<svg width="10" height="6" viewBox="0 0 10 6" fill="none" xmlns="http://www.w3.org/2000/svg">
<path d="M4.91866 5.91381C5.00845 5.91381 5.09824 5.91381 5.1873 5.91455C5.88907 5.83322 6.49531 5.53971 6.99452 5.02883C7.6812 4.32572 8.35999 3.61522 9.0359 2.90251C9.48483 2.42859 9.49273 1.76098 9.06678 1.31738C8.63294 0.865644 7.96852 0.871559 7.50522 1.34769C6.86451 2.0057 6.23529 2.67627 5.59745 3.33797C5.05729 3.89839 4.38354 3.89765 3.84554 3.33797C3.20195 2.66888 2.56555 1.99313 1.91837 1.32847C1.57215 0.972848 1.12753 0.893739 0.706615 1.08523C0.300063 1.27006 0.045789 1.68852 0.0666194 2.14469C0.0795486 2.43303 0.19232 2.67923 0.388413 2.88402C1.08731 3.61301 1.78046 4.34864 2.48941 5.06727C2.97569 5.55967 3.57474 5.83322 4.25568 5.91455C4.34547 5.91455 4.43526 5.91381 4.52432 5.91381C4.65577 5.91381 4.78722 5.91381 4.91866 5.91381Z" fill="#68759F"/>
</svg>
