<svg width="10" height="6" viewBox="0 0 10 6" fill="none" xmlns="http://www.w3.org/2000/svg">
<path d="M4.91866 5.91378C5.00845 5.91378 5.09824 5.91378 5.1873 5.91452C5.88907 5.83319 6.49531 5.53968 6.99452 5.0288C7.6812 4.32569 8.35999 3.61519 9.0359 2.90248C9.48483 2.42856 9.49273 1.76095 9.06678 1.31735C8.63294 0.865614 7.96852 0.871529 7.50522 1.34766C6.86451 2.00567 6.23529 2.67624 5.59745 3.33794C5.05729 3.89836 4.38354 3.89762 3.84554 3.33794C3.20195 2.66885 2.56555 1.9931 1.91837 1.32844C1.57215 0.972817 1.12753 0.893709 0.706615 1.0852C0.300063 1.27003 0.045789 1.68849 0.0666194 2.14466C0.0795486 2.433 0.19232 2.6792 0.388413 2.88399C1.08731 3.61298 1.78046 4.34861 2.48941 5.06724C2.97569 5.55964 3.57474 5.83319 4.25568 5.91452C4.34547 5.91452 4.43526 5.91378 4.52432 5.91378C4.65577 5.91378 4.78722 5.91378 4.91866 5.91378Z" fill="#98A2C3"/>
</svg>
