<?xml version="1.0" standalone="no"?>
<!DOCTYPE svg PUBLIC "-//W3C//DTD SVG 1.1//EN" "http://www.w3.org/Graphics/SVG/1.1/DTD/svg11.dtd" >
<svg xmlns="http://www.w3.org/2000/svg" xmlns:xlink="http://www.w3.org/1999/xlink" version="1.1">
<metadata>
Created by FontForge 20170731 at Thu Jul  9 18:22:03 2020
 By Aleksey,,,
Copyright (c) 2017 by Martin Va'cha. All rights reserved.
</metadata>
<defs>
<font id="Gellix-Black" horiz-adv-x="1128" >
  <font-face 
    font-family="Gellix Black"
    font-weight="900"
    font-stretch="normal"
    units-per-em="2048"
    panose-1="0 0 10 0 0 0 0 0 0 0"
    ascent="1741"
    descent="-307"
    x-height="1012"
    cap-height="1434"
    bbox="-1141 -489 2433 2421"
    underline-thickness="102"
    underline-position="-409"
    unicode-range="U+0020-25CF"
  />
<missing-glyph horiz-adv-x="1474" 
d="M737 1454q202 0 371.5 -98t268 -267t98.5 -370q0 -150 -58 -286.5t-156.5 -235.5t-235.5 -158t-288 -59q-200 0 -369.5 99.5t-268.5 269.5t-99 370t99 369.5t268.5 267.5t369.5 98zM510 627q43 0 75.5 72.5t32.5 172.5q0 102 -32.5 174t-75.5 72q-46 0 -80.5 -72
t-34.5 -174q0 -100 34.5 -172.5t80.5 -72.5zM967 627q47 0 79.5 71.5t32.5 173.5q0 103 -32.5 174.5t-79.5 71.5q-45 0 -77 -72t-32 -174q0 -101 32.5 -173t76.5 -72zM737 197q64 0 109 44t45 105q0 64 -44.5 108t-109.5 44q-64 0 -106.5 -43.5t-42.5 -108.5q0 -61 43 -105
t106 -44z" />
    <glyph glyph-name=".notdef" horiz-adv-x="1474" 
d="M737 1454q202 0 371.5 -98t268 -267t98.5 -370q0 -150 -58 -286.5t-156.5 -235.5t-235.5 -158t-288 -59q-200 0 -369.5 99.5t-268.5 269.5t-99 370t99 369.5t268.5 267.5t369.5 98zM510 627q43 0 75.5 72.5t32.5 172.5q0 102 -32.5 174t-75.5 72q-46 0 -80.5 -72
t-34.5 -174q0 -100 34.5 -172.5t80.5 -72.5zM967 627q47 0 79.5 71.5t32.5 173.5q0 103 -32.5 174.5t-79.5 71.5q-45 0 -77 -72t-32 -174q0 -101 32.5 -173t76.5 -72zM737 197q64 0 109 44t45 105q0 64 -44.5 108t-109.5 44q-64 0 -106.5 -43.5t-42.5 -108.5q0 -61 43 -105
t106 -44z" />
    <glyph glyph-name=".null" horiz-adv-x="0" 
 />
    <glyph glyph-name="nonmarkingreturn" horiz-adv-x="682" 
 />
    <glyph glyph-name="space" unicode=" " horiz-adv-x="374" 
 />
    <glyph glyph-name="exclam" unicode="!" horiz-adv-x="643" 
d="M127 1434h389l-10 -955h-369zM322 -20q-95 0 -160.5 64.5t-65.5 156.5t65.5 155.5t160.5 63.5t160 -63.5t65 -155.5q0 -93 -65 -157t-160 -64z" />
    <glyph glyph-name="quotedbl" unicode="&#x22;" horiz-adv-x="1042" 
d="M125 887l-23 547h365l-21 -547h-321zM598 887l-23 547h365l-20 -547h-322z" />
    <glyph glyph-name="numbersign" unicode="#" horiz-adv-x="1488" 
d="M1456 831h-256l-63 -227h237v-313h-325l-82 -291h-312l82 291h-225l-82 -291h-311l82 291h-168v313h256l63 227h-237v314h325l82 289h312l-82 -289h225l82 289h311l-82 -289h168v-314zM825 604l64 227h-225l-64 -227h225z" />
    <glyph glyph-name="dollar" unicode="$" horiz-adv-x="1218" 
d="M1163 442q0 -165 -107.5 -286t-283.5 -160v-242h-352v256q-162 55 -259.5 184t-97.5 298h386q0 -67 47.5 -106.5t126.5 -39.5q72 0 113.5 25.5t41.5 70.5q0 26 -24 44.5t-65 31.5t-93.5 25.5t-111 28.5t-117 36.5t-111 54.5t-93.5 78.5t-65 112.5t-24 152q0 155 94.5 270
t251.5 158v245h352v-249q117 -34 197 -110.5t114.5 -171.5t34.5 -206h-403q2 64 -37.5 104.5t-110.5 40.5q-114 0 -114 -79q0 -28 30.5 -48t80.5 -31.5t113.5 -28t130.5 -34t130.5 -52t113.5 -80t80.5 -121t30.5 -171.5z" />
    <glyph glyph-name="percent" unicode="%" horiz-adv-x="1523" 
d="M735 1128q0 -142 -94 -236.5t-235 -94.5q-140 0 -234 94.5t-94 236.5q0 139 94 232.5t234 93.5q141 0 235 -93t94 -233zM1094 1434h288l-952 -1434h-289zM502 1128q0 47 -25.5 76t-70.5 29t-71 -29t-26 -76q0 -48 26 -78t71 -30t70.5 30t25.5 78zM1446 311
q0 -142 -94.5 -236.5t-235.5 -94.5q-140 0 -234 94.5t-94 236.5q0 139 94 232.5t234 93.5q141 0 235.5 -93.5t94.5 -232.5zM1212 311q0 47 -25.5 76t-70.5 29t-70.5 -29t-25.5 -76q0 -48 25.5 -78t70.5 -30t70.5 30t25.5 78z" />
    <glyph glyph-name="ampersand" unicode="&#x26;" horiz-adv-x="1689" 
d="M1569 0h-506l-86 94q-169 -114 -365 -114q-219 0 -361 121.5t-142 310.5q0 139 65.5 224.5t181.5 141.5q-80 119 -80 260q0 173 124 294.5t302 121.5q177 0 301.5 -121.5t124.5 -294.5q0 -126 -56.5 -205.5t-156.5 -132.5l97 -102l96 111h457l-322 -359zM610 1047
q0 -25 22 -53t70 -74q93 52 93 127q0 38 -26.5 64t-66.5 26t-66 -26t-26 -64zM625 315q61 0 123 27l-193 209q-82 -52 -82 -125q0 -48 44.5 -79.5t107.5 -31.5z" />
    <glyph glyph-name="quotesingle" unicode="'" horiz-adv-x="569" 
d="M125 887l-23 547h365l-21 -547h-321z" />
    <glyph glyph-name="parenleft" unicode="(" horiz-adv-x="747" 
d="M113 618q0 330 129 624.5t356 483.5l217 -241q-170 -141 -263 -371.5t-93 -495.5t93 -495t263 -371l-217 -241q-227 189 -356 483t-129 624z" />
    <glyph glyph-name="parenright" unicode=")" horiz-adv-x="747" 
d="M635 618q0 -330 -129 -624t-356 -483l-218 241q170 141 263.5 371.5t93.5 494.5t-93.5 495t-263.5 372l218 241q227 -189 356 -483.5t129 -624.5z" />
    <glyph glyph-name="asterisk" unicode="*" horiz-adv-x="1110" 
d="M1008 1083l-269 -98l193 -221l-178 -154l-199 226l-199 -226l-178 154l195 219l-271 100l82 228l252 -97v261h238v-261l252 97z" />
    <glyph glyph-name="plus" unicode="+" horiz-adv-x="1234" 
d="M1157 850v-346h-366v-367h-347v367h-366v346h366v367h347v-367h366z" />
    <glyph glyph-name="comma" unicode="," horiz-adv-x="624" 
d="M528 268l-122 -577h-310l76 577h356z" />
    <glyph glyph-name="hyphen" unicode="-" horiz-adv-x="833" 
d="M51 362v345h731v-345h-731z" />
    <glyph glyph-name="period" unicode="." horiz-adv-x="643" 
d="M322 -20q-95 0 -160.5 64.5t-65.5 156.5t65.5 155.5t160.5 63.5t160 -63.5t65 -155.5q0 -93 -65 -157t-160 -64z" />
    <glyph glyph-name="slash" unicode="/" horiz-adv-x="1038" 
d="M6 0l631 1434h395l-631 -1434h-395z" />
    <glyph glyph-name="zero" unicode="0" horiz-adv-x="1265" 
d="M633 -20q-181 0 -314.5 94t-202.5 260t-69 383t69 383t202.5 260t314.5 94t314.5 -94t202.5 -260t69 -383t-69 -383t-202.5 -260t-314.5 -94zM633 358q186 0 186 359q0 358 -186 358q-187 0 -187 -358q0 -359 187 -359z" />
    <glyph glyph-name="one" unicode="1" horiz-adv-x="837" 
d="M760 1434v-1434h-387v901l-312 -225v461l443 297h256z" />
    <glyph glyph-name="two" unicode="2" horiz-adv-x="1185" 
d="M88 0v274l412 394q29 28 69.5 65.5t59 54.5t41.5 42t32 42.5t16 41.5t7 51q0 47 -40.5 78.5t-98.5 31.5q-81 0 -115.5 -59.5t-26.5 -161.5h-393q-12 262 141 431t402 169q232 0 381 -135t149 -344q0 -64 -18 -125t-45.5 -111t-76.5 -108t-94.5 -103t-115.5 -108l-45 -41
h391v-379h-1032z" />
    <glyph glyph-name="three" unicode="3" horiz-adv-x="1153" 
d="M354 862l195 199h-490v373h1039v-250l-281 -277q133 -37 213 -151.5t80 -268.5q0 -222 -155.5 -364.5t-395.5 -142.5q-226 0 -379.5 135.5t-163.5 345.5h390q11 -42 48.5 -72.5t104.5 -30.5q66 0 109 39.5t43 100.5q0 52 -30.5 86.5t-81 47t-114.5 9t-131 -24.5v246z" />
    <glyph glyph-name="four" unicode="4" horiz-adv-x="1280" 
d="M1245 631v-352h-127v-279h-389v279h-688v258l481 897h441l-433 -803h199v250h389v-250h127z" />
    <glyph glyph-name="five" unicode="5" horiz-adv-x="1146" 
d="M563 -20q-146 0 -266.5 53.5t-197.5 164.5t-83 263h390q38 -103 157 -103q62 0 104 44t42 106q0 68 -41 108.5t-105 40.5q-104 0 -155 -67h-342l63 844h881v-367h-531l-14 -133q29 19 74 31t84 12q217 0 351 -125t134 -354q0 -142 -72.5 -261.5t-198 -188t-274.5 -68.5z
" />
    <glyph glyph-name="six" unicode="6" horiz-adv-x="1132" 
d="M668 977q187 -11 307.5 -145t120.5 -336q0 -138 -72 -257t-194.5 -189t-264.5 -70q-143 0 -266 70t-194.5 189t-71.5 257q0 166 110 342l369 596h444zM565 350q65 0 109.5 43.5t44.5 106.5t-45 106t-111 43q-63 0 -106 -43t-43 -106t44 -106.5t107 -43.5z" />
    <glyph glyph-name="seven" unicode="7" horiz-adv-x="1103" 
d="M31 1434h1036v-256l-563 -1178h-434l512 1059h-551v375z" />
    <glyph glyph-name="eight" unicode="8" horiz-adv-x="1116" 
d="M559 -16q-229 0 -375.5 124t-146.5 316q0 105 55 198t150 152q-70 47 -113 123.5t-43 153.5q0 175 133 286t340 111q205 0 338 -111.5t133 -285.5q0 -78 -43 -154.5t-113 -122.5q95 -55 150 -147t55 -203q0 -192 -146.5 -316t-373.5 -124zM559 928q53 0 85.5 27.5
t31.5 70.5q1 43 -31.5 70.5t-85.5 27.5t-85.5 -27.5t-31.5 -70.5q-1 -43 31.5 -70.5t85.5 -27.5zM559 326q68 0 111 37.5t43 95.5q0 60 -43 97.5t-111 37.5t-110.5 -37.5t-42.5 -97.5q0 -59 43 -96t110 -37z" />
    <glyph glyph-name="nine" unicode="9" horiz-adv-x="1132" 
d="M567 1454q143 0 266 -70t195 -189t72 -257q0 -164 -111 -342l-368 -596h-445l289 457q-187 11 -307.5 145t-120.5 336q0 138 71.5 257t194 189t264.5 70zM569 784q63 0 106.5 43.5t43.5 106.5t-44.5 106t-107.5 43q-65 0 -109 -43t-44 -106t44.5 -106.5t110.5 -43.5z" />
    <glyph glyph-name="colon" unicode=":" horiz-adv-x="643" 
d="M322 612q-95 0 -160.5 64.5t-65.5 157.5q0 92 65.5 155.5t160.5 63.5t160 -63.5t65 -155.5q0 -93 -65 -157.5t-160 -64.5zM322 -20q-95 0 -160.5 64.5t-65.5 156.5t65.5 155.5t160.5 63.5t160 -63.5t65 -155.5q0 -93 -65 -157t-160 -64z" />
    <glyph glyph-name="semicolon" unicode=";" horiz-adv-x="692" 
d="M371 602q-95 0 -160.5 64.5t-65.5 156.5t65.5 155.5t160.5 63.5t160 -63.5t65 -155.5q0 -93 -65 -157t-160 -64zM528 307l-122 -577h-310l76 577h356z" />
    <glyph glyph-name="less" unicode="&#x3c;" horiz-adv-x="1067" 
d="M989 152l-911 407v281l911 407v-373l-411 -174l411 -172v-376z" />
    <glyph glyph-name="equal" unicode="=" horiz-adv-x="1234" 
d="M1157 1139v-346h-1079v346h1079zM1157 596v-346h-1079v346h1079z" />
    <glyph glyph-name="greater" unicode="&#x3e;" horiz-adv-x="1067" 
d="M78 152v376l411 172l-411 174v373l911 -407v-281z" />
    <glyph glyph-name="question" unicode="?" horiz-adv-x="1114" 
d="M559 1454q144 0 264 -59t189 -162t69 -227q0 -80 -19 -146.5t-49.5 -111t-67.5 -81t-74 -61t-68 -45.5t-50.5 -41t-19.5 -41h-379q0 73 18 130t47 92t64 62.5t70 48t64 40.5t47 48t18 63q0 112 -133 112q-73 0 -110.5 -50.5t-35.5 -127.5h-391q-6 153 64.5 281t198.5 202
t284 74zM549 -20q-95 0 -160 64t-65 157q0 92 65 155.5t160 63.5t160 -63.5t65 -155.5q0 -93 -65 -157t-160 -64z" />
    <glyph glyph-name="at" unicode="@" horiz-adv-x="1937" 
d="M1069 918h291v-404q0 -93 13.5 -122.5t64.5 -29.5q48 0 79 71t31 163q0 226 -154.5 349.5t-435.5 123.5q-161 0 -291 -73t-204 -202.5t-74 -289.5q0 -156 72.5 -284t200 -200.5t282.5 -72.5q75 0 141.5 21.5t79.5 51.5h398q-68 -156 -238.5 -247.5t-380.5 -91.5
q-173 0 -328.5 63t-268 172t-179 262t-66.5 326q0 140 43 268.5t121.5 230t184 176.5t236 115.5t271.5 40.5q417 0 647 -193.5t230 -545.5q0 -222 -117 -362t-299 -140q-187 0 -272 105q-97 -105 -248 -105q-154 0 -261.5 121.5t-107.5 298.5t107.5 298.5t261.5 121.5
q100 0 170 -64v48zM944 383q54 0 88 32.5t37 86.5v12q0 60 -34 95.5t-91 35.5q-54 0 -89.5 -37.5t-35.5 -93.5q0 -55 36 -93t89 -38z" />
    <glyph glyph-name="A" unicode="A" horiz-adv-x="1449" 
d="M1024 0l-66 176h-477l-65 -176h-412l565 1434h308l569 -1434h-422zM606 508h232l-115 309z" />
    <glyph glyph-name="B" unicode="B" horiz-adv-x="1204" 
d="M78 0v1434h561q128 0 236.5 -54t170.5 -145t62 -195q0 -88 -48.5 -167.5t-123.5 -114.5q104 -30 168.5 -122.5t64.5 -217.5q0 -116 -64.5 -213t-172 -151t-232.5 -54h-622zM467 885h154q40 0 68 25.5t28 62.5t-28 62.5t-68 25.5h-154v-176zM467 373h199q44 0 76 32t32 76
t-30.5 76.5t-73.5 32.5h-203v-217z" />
    <glyph glyph-name="C" unicode="C" horiz-adv-x="1544" 
d="M788 -20q-157 0 -294 56t-234 153t-153 233.5t-56 292.5q0 157 56 294t153 235t234 154t294 56q173 0 328.5 -71t256.5 -197.5t116 -278.5h-432q-22 73 -97 120.5t-172 47.5q-146 0 -241.5 -102.5t-95.5 -257.5q0 -154 95.5 -255.5t241.5 -101.5q96 0 171.5 53.5
t97.5 133.5h436q-37 -249 -234 -407t-471 -158z" />
    <glyph glyph-name="D" unicode="D" horiz-adv-x="1386" 
d="M596 1434q156 0 293 -54.5t235 -148.5t154.5 -226t56.5 -282q0 -154 -56.5 -289t-154.5 -230t-235 -149.5t-293 -54.5h-518v1434h518zM625 373q136 0 223.5 98.5t87.5 251.5q0 147 -87 242.5t-224 95.5h-158v-688h158z" />
    <glyph glyph-name="E" unicode="E" horiz-adv-x="1056" 
d="M78 1434h921v-373h-532v-152h475v-372h-475v-164h532v-373h-921v1434z" />
    <glyph glyph-name="F" unicode="F" horiz-adv-x="1044" 
d="M78 1434h921v-373h-532v-207h475v-373h-475v-481h-389v1434z" />
    <glyph glyph-name="G" unicode="G" horiz-adv-x="1552" 
d="M1489 842q12 -80 12 -168q0 -147 -54 -276t-148 -221t-227 -144.5t-284 -52.5q-157 0 -294 56t-234 153t-153 233.5t-56 292.5q0 157 56 294t153 235t234 154t294 56q136 0 263.5 -44t220.5 -116.5t153 -168.5t70 -197h-440q-25 70 -99 108.5t-168 38.5
q-146 0 -241.5 -102.5t-95.5 -257.5q0 -154 95.5 -255.5t241.5 -101.5q133 0 209 51t88 121h-348v312h752z" />
    <glyph glyph-name="H" unicode="H" horiz-adv-x="1431" 
d="M965 1434h389v-1434h-389v553h-498v-553h-389v1434h389v-508h498v508z" />
    <glyph glyph-name="I" unicode="I" horiz-adv-x="544" 
d="M78 1434h389v-1434h-389v1434z" />
    <glyph glyph-name="J" unicode="J" horiz-adv-x="729" 
d="M61 356q14 -2 62 -2q72 0 110.5 31t38.5 111v938h390v-1049q0 -173 -122.5 -286t-295.5 -113q-114 0 -183 14v356z" />
    <glyph glyph-name="K" unicode="K" horiz-adv-x="1486" 
d="M1436 0h-504l-465 655v-655h-389v1434h389v-574l438 574h488l-523 -672z" />
    <glyph glyph-name="L" unicode="L" horiz-adv-x="1122" 
d="M78 1434h389v-1061h616v-373h-1005v1434z" />
    <glyph glyph-name="M" unicode="M" horiz-adv-x="1769" 
d="M78 0v1434h475l356 -863l385 863h398v-1434h-389v682l-285 -682h-279l-272 682v-682h-389z" />
    <glyph glyph-name="N" unicode="N" horiz-adv-x="1325" 
d="M78 1434h321l459 -658v658h389v-1434h-317l-463 655v-655h-389v1434z" />
    <glyph glyph-name="O" unicode="O" horiz-adv-x="1576" 
d="M788 1454q157 0 294 -56t234.5 -154t153.5 -235t56 -294q0 -156 -56 -292.5t-153.5 -233.5t-234.5 -153t-294 -56t-294 56t-234 153t-153 233.5t-56 292.5q0 157 56 294t153 235t234 154t294 56zM788 1075q-146 0 -241.5 -102.5t-95.5 -257.5q0 -154 95.5 -255.5
t241.5 -101.5t242 101.5t96 255.5q0 155 -96 257.5t-242 102.5z" />
    <glyph glyph-name="P" unicode="P" horiz-adv-x="1181" 
d="M621 1434q229 0 375.5 -137t146.5 -351q0 -215 -146.5 -353t-375.5 -138h-154v-455h-389v1434h543zM621 827q59 0 96 33.5t37 85.5q0 51 -37 83t-96 32h-154v-234h154z" />
    <glyph glyph-name="Q" unicode="Q" horiz-adv-x="1574" 
d="M1626 0h-405l-66 70q-167 -90 -367 -90q-157 0 -294 56t-234 153t-153 233.5t-56 292.5q0 157 56 294t153 235t234 154t294 56t294 -56t234.5 -154t153.5 -235t56 -294q0 -258 -146 -453zM788 358q33 0 86 11l-278 295h405l97 -101q28 70 28 152q0 155 -96 257.5
t-242 102.5t-241.5 -102.5t-95.5 -257.5q0 -154 95.5 -255.5t241.5 -101.5z" />
    <glyph glyph-name="R" unicode="R" horiz-adv-x="1318" 
d="M1300 0h-471l-282 508h-80v-508h-389v1434h571q121 0 229 -62t174 -169.5t66 -231.5q0 -125 -46 -222.5t-132 -158.5zM467 1059v-217h141q47 0 82 32t35 76t-35 76.5t-82 32.5h-141z" />
    <glyph glyph-name="S" unicode="S" horiz-adv-x="1218" 
d="M623 -20q-242 0 -401 145.5t-159 366.5h386q0 -67 47.5 -106.5t126.5 -39.5q72 0 113.5 25.5t41.5 70.5q0 26 -24 44.5t-65 31.5t-93.5 25.5t-111 28.5t-117 36.5t-111 54.5t-93.5 78.5t-65 112.5t-24 152q0 194 144.5 321t363.5 127q111 0 202 -28t152.5 -76.5
t103 -114.5t60 -139t18.5 -154h-403q2 64 -37.5 104.5t-110.5 40.5q-114 0 -114 -79q0 -28 30.5 -48t80.5 -31.5t113.5 -28t130.5 -34t130.5 -52t113.5 -80t80.5 -121t30.5 -171.5q0 -131 -69.5 -237t-193.5 -165.5t-277 -59.5z" />
    <glyph glyph-name="T" unicode="T" horiz-adv-x="1236" 
d="M1202 1434v-373h-389v-1061h-389v1061h-389v373h1167z" />
    <glyph glyph-name="U" unicode="U" horiz-adv-x="1318" 
d="M659 -18q-123 0 -231 44t-185 121t-121 185.5t-44 232.5v869h389v-869q0 -88 55 -146.5t137 -58.5q83 0 138 58.5t55 146.5v869h389v-869q0 -166 -75.5 -299.5t-208.5 -208.5t-298 -75z" />
    <glyph glyph-name="V" unicode="V" horiz-adv-x="1390" 
d="M6 1434h416l276 -791l277 791h409l-534 -1434h-307z" />
    <glyph glyph-name="W" unicode="W" horiz-adv-x="2074" 
d="M1661 1436h407l-473 -1436h-307l-252 768l-245 -768h-310l-475 1436h414l223 -768l244 768h307l246 -770z" />
    <glyph glyph-name="X" unicode="X" horiz-adv-x="1449" 
d="M1444 0h-461l-260 393l-262 -393h-455l490 733l-467 701h465l233 -353l234 353h454l-461 -695z" />
    <glyph glyph-name="Y" unicode="Y" horiz-adv-x="1464" 
d="M6 1434h473l262 -455l263 455h454l-526 -848v-586h-389v586z" />
    <glyph glyph-name="Z" unicode="Z" horiz-adv-x="1241" 
d="M82 1434h1096v-258l-598 -803h604v-373h-1137v258l598 803h-563v373z" />
    <glyph glyph-name="bracketleft" unicode="[" horiz-adv-x="776" 
d="M412 1434v-1540h303v-297h-637v2134h637v-297h-303z" />
    <glyph glyph-name="backslash" unicode="\" horiz-adv-x="1038" 
d="M1036 0h-395l-631 1434h396z" />
    <glyph glyph-name="bracketright" unicode="]" horiz-adv-x="790" 
d="M379 1434h-303v297h637v-2134h-637v297h303v1540z" />
    <glyph glyph-name="asciicircum" unicode="^" horiz-adv-x="1300" 
d="M1198 543h-377l-172 411l-174 -411h-373l408 911h281z" />
    <glyph glyph-name="underscore" unicode="_" horiz-adv-x="1357" 
d="M41 -367v347h1276v-347h-1276z" />
    <glyph glyph-name="grave" unicode="`" horiz-adv-x="815" 
d="M102 1454h430l181 -338h-338z" />
    <glyph glyph-name="a" unicode="a" horiz-adv-x="1212" 
d="M766 1012h369v-1012h-369v98q-98 -118 -268 -118q-188 0 -320.5 154.5t-132.5 371.5t132.5 371.5t320.5 154.5q169 0 268 -119v99zM586 332q74 0 127 51t53 123t-53 123t-127 51t-127 -51t-53 -123t53 -123t127 -51z" />
    <glyph glyph-name="b" unicode="b" horiz-adv-x="1212" 
d="M715 1032q188 0 320 -154.5t132 -371.5t-132 -371.5t-320 -154.5q-171 0 -269 118v-98h-368v1434h368v-521q99 119 269 119zM627 332q74 0 127 51t53 123t-53 123t-127 51t-127.5 -51t-53.5 -123t53.5 -123t127.5 -51z" />
    <glyph glyph-name="c" unicode="c" 
d="M571 -20q-149 0 -269 68t-188.5 188t-68.5 268q0 227 150 377.5t376 150.5q202 0 348.5 -124.5t161.5 -311.5h-374q-11 36 -48.5 59t-87.5 23q-72 0 -118.5 -49t-46.5 -125q0 -74 46.5 -122t118.5 -48q52 0 90.5 25.5t49.5 64.5h372q-12 -191 -159 -317.5t-353 -126.5z
" />
    <glyph glyph-name="d" unicode="d" horiz-adv-x="1212" 
d="M766 1434h369v-1434h-369v98q-98 -118 -268 -118q-188 0 -320.5 154.5t-132.5 371.5t132.5 371.5t320.5 154.5q169 0 268 -119v521zM586 332q74 0 127 51t53 123t-53 123t-127 51t-127 -51t-53 -123t53 -123t127 -51z" />
    <glyph glyph-name="e" unicode="e" 
d="M1083 537q0 -48 -8 -134h-688q20 -57 69 -88.5t117 -31.5q113 0 134 69h360q-23 -170 -154.5 -271t-328.5 -101q-148 0 -272 70t-195.5 192t-71.5 268q0 145 70 265t192.5 188.5t270.5 68.5q207 0 356 -144t149 -351zM399 635h299q-6 45 -46 72.5t-93 27.5
q-118 0 -160 -100z" />
    <glyph glyph-name="f" unicode="f" horiz-adv-x="880" 
d="M754 1149q-66 0 -110 -33.5t-44 -93.5v-10h229v-353h-229v-659h-369v659h-180v353h180v16q0 216 120.5 343.5t314.5 127.5q96 0 163 -18v-340q-31 8 -75 8z" />
    <glyph glyph-name="g" unicode="g" horiz-adv-x="1212" 
d="M766 1014h369v-963q0 -141 -72.5 -247t-193 -159t-269.5 -53q-40 0 -81 3t-95 13.5t-101.5 27.5t-96 47t-84.5 69.5t-61 98t-30 129.5h369q8 -43 55 -63.5t113 -20.5t122 39.5t56 99.5v100q-98 -115 -268 -115q-124 0 -228.5 68.5t-164.5 185t-60 252.5q0 137 60 253.5
t164.5 184.5t228.5 68q171 0 268 -114v96zM586 360q74 0 127 48.5t53 117.5q0 70 -53 119t-127 49t-127 -49t-53 -119q0 -69 53 -117.5t127 -48.5z" />
    <glyph glyph-name="h" unicode="h" horiz-adv-x="1167" 
d="M680 1032q193 0 301.5 -123.5t108.5 -343.5v-565h-369v516q0 73 -38 117.5t-101 44.5q-62 0 -99 -44.5t-37 -117.5v-516h-368v1434h368v-523q88 121 234 121z" />
    <glyph glyph-name="i" unicode="i" horiz-adv-x="524" 
d="M262 1530q89 0 152 -63.5t63 -151.5t-63 -151.5t-152 -63.5q-88 0 -151.5 63.5t-63.5 151.5t63.5 151.5t151.5 63.5zM78 1012h368v-1012h-368v1012z" />
    <glyph glyph-name="j" unicode="j" horiz-adv-x="524" 
d="M262 1530q89 0 152 -63.5t63 -151.5t-63 -151.5t-152 -63.5q-88 0 -151.5 63.5t-63.5 151.5t63.5 151.5t151.5 63.5zM-59 -41q20 -4 39 -4q43 0 70.5 20t27.5 64v973h368v-1012q0 -170 -120 -273.5t-318 -103.5q-13 0 -67 4v332z" />
    <glyph glyph-name="k" unicode="k" horiz-adv-x="1204" 
d="M1200 0h-469l-285 418v-418h-368v1434h368v-809l273 387h448l-360 -492z" />
    <glyph glyph-name="l" unicode="l" horiz-adv-x="524" 
d="M446 1434v-1434h-368v1434h368z" />
    <glyph glyph-name="m" unicode="m" horiz-adv-x="1734" 
d="M1243 1032q179 0 296.5 -109t117.5 -284v-639h-371v549q0 58 -30 93.5t-80 35.5q-57 0 -91 -35t-34 -94v-549h-369v549q0 58 -32 93.5t-85 35.5q-54 0 -86.5 -35t-32.5 -94v-549h-368v1012h368v-99q94 119 265 119q86 0 146.5 -26.5t103.5 -87.5q48 48 123.5 81t158.5 33
z" />
    <glyph glyph-name="n" unicode="n" horiz-adv-x="1167" 
d="M680 1032q193 0 301.5 -123.5t108.5 -343.5v-565h-369v516q0 73 -38 117.5t-101 44.5q-62 0 -99 -44.5t-37 -117.5v-516h-368v1012h368v-101q88 121 234 121z" />
    <glyph glyph-name="o" unicode="o" horiz-adv-x="1150" 
d="M575 1032q225 0 378 -151t153 -377q0 -148 -70 -268.5t-191.5 -188t-269.5 -67.5q-226 0 -378 149.5t-152 374.5q0 149 69.5 270t190.5 189.5t270 68.5zM575 678q-74 0 -125 -50t-51 -124q0 -73 51 -121.5t125 -48.5q73 0 125 48.5t52 121.5q0 74 -52 124t-125 50z" />
    <glyph glyph-name="p" unicode="p" horiz-adv-x="1212" 
d="M715 1032q188 0 320 -154.5t132 -371.5t-132 -371.5t-320 -154.5q-171 0 -269 118v-405h-368v1319h368v-99q99 119 269 119zM627 332q74 0 127 51t53 123t-53 123t-127 51t-127.5 -51t-53.5 -123t53.5 -123t127.5 -51z" />
    <glyph glyph-name="q" unicode="q" horiz-adv-x="1212" 
d="M766 1012h369v-1319h-369v405q-98 -118 -268 -118q-188 0 -320.5 154.5t-132.5 371.5t132.5 371.5t320.5 154.5q169 0 268 -119v99zM586 332q74 0 127 51t53 123t-53 123t-127 51t-127 -51t-53 -123t53 -123t127 -51z" />
    <glyph glyph-name="r" unicode="r" horiz-adv-x="823" 
d="M696 1030q39 0 97 -10v-334q-74 12 -107 12q-240 0 -240 -258v-440h-368v1012h368v-94q92 112 250 112z" />
    <glyph glyph-name="s" unicode="s" horiz-adv-x="999" 
d="M526 -20q-212 0 -344 100.5t-147 277.5h332q3 -35 42.5 -59.5t92.5 -24.5q98 0 98 45q0 24 -30 37.5t-78.5 20t-106.5 13.5t-116.5 26t-107 49.5t-78.5 90t-30 142.5q0 139 113.5 235.5t304.5 96.5q119 0 218 -39t166 -121t79 -196h-352q-2 28 -33.5 48.5t-73.5 20.5
q-86 0 -86 -45q0 -21 23.5 -31.5t62.5 -13t88.5 -7.5t101 -11t101 -27.5t88.5 -54.5t62.5 -93.5t23.5 -142.5q0 -141 -120 -239t-294 -98z" />
    <glyph glyph-name="t" unicode="t" horiz-adv-x="845" 
d="M793 659h-230v-200q0 -60 44 -93.5t110 -33.5q45 0 76 8v-340q-67 -18 -164 -18q-194 0 -314 127.5t-120 343.5v206h-181v353h181v256h368v-256h230v-353z" />
    <glyph glyph-name="u" unicode="u" horiz-adv-x="1167" 
d="M721 1012h369v-1012h-369v100q-88 -120 -234 -120q-193 0 -301 123t-108 343v566h368v-516q0 -73 38.5 -117.5t101.5 -44.5q61 0 98 44t37 118v516z" />
    <glyph glyph-name="v" unicode="v" horiz-adv-x="1146" 
d="M1141 1012l-412 -1012h-311l-412 1012h400l167 -502l164 502h404z" />
    <glyph glyph-name="w" unicode="w" horiz-adv-x="1619" 
d="M367 0l-361 1012h395l111 -420l154 420h284l158 -420l109 420h397l-363 -1012h-284l-158 418l-162 -418h-280z" />
    <glyph glyph-name="x" unicode="x" horiz-adv-x="1179" 
d="M1169 0h-446l-135 199l-137 -199h-441l357 520l-336 492h446l113 -164l112 164h441l-332 -486z" />
    <glyph glyph-name="y" unicode="y" horiz-adv-x="1134" 
d="M731 1012h397l-548 -1319h-398l195 426l-371 893h395l166 -461z" />
    <glyph glyph-name="z" unicode="z" horiz-adv-x="1036" 
d="M967 1012v-260l-389 -398h397v-354h-940v258l393 401h-358v353h897z" />
    <glyph glyph-name="braceleft" unicode="{" horiz-adv-x="958" 
d="M770 -403q-246 0 -386 143t-140 395v227q0 61 -53 110t-150 75v233q97 26 150 75t53 110v227q0 252 140 395.5t386 143.5h154v-297h-154q-94 0 -153.5 -67.5t-59.5 -174.5v-199q0 -190 -156 -329q156 -139 156 -330v-199q0 -107 59.5 -174t153.5 -67h154v-297h-154z" />
    <glyph glyph-name="bar" unicode="|" horiz-adv-x="544" 
d="M78 1638h389v-1945h-389v1945z" />
    <glyph glyph-name="braceright" unicode="}" horiz-adv-x="958" 
d="M188 -403h-153v297h153q94 0 153.5 67t59.5 174v199q0 191 156 330q-156 139 -156 329v199q0 107 -59.5 174.5t-153.5 67.5h-153v297h153q246 0 386.5 -143.5t140.5 -395.5v-227q0 -61 53 -110t150 -75v-233q-97 -26 -150 -75t-53 -110v-227q0 -252 -140.5 -395
t-386.5 -143z" />
    <glyph glyph-name="asciitilde" unicode="~" horiz-adv-x="1263" 
d="M389 403l-311 39q26 204 118.5 313t237.5 109q69 0 141 -26t126.5 -52t82.5 -26q34 0 53.5 34t30.5 103l318 -37q-34 -202 -128.5 -313t-234.5 -111q-70 0 -139 26.5t-122.5 52.5t-84.5 26q-35 0 -55 -34t-33 -104z" />
    <glyph glyph-name="uni00A0" unicode="&#xa0;" horiz-adv-x="374" 
 />
    <glyph glyph-name="exclamdown" unicode="&#xa1;" horiz-adv-x="643" 
d="M322 1454q95 0 160 -64t65 -157q0 -92 -65 -155.5t-160 -63.5t-160.5 63.5t-65.5 155.5t65.5 156.5t160.5 64.5zM127 0l10 954h369l10 -954h-389z" />
    <glyph glyph-name="cent" unicode="&#xa2;" 
d="M1083 424q-9 -146 -100 -258t-233 -158v-254h-369v258q-153 55 -244.5 187t-91.5 305q0 175 91.5 307t244.5 188v258h369v-253q139 -46 229 -155.5t102 -252.5h-374q-11 36 -48.5 59t-87.5 23q-72 0 -118.5 -49t-46.5 -125q0 -74 46.5 -122t118.5 -48q52 0 90.5 25.5
t49.5 64.5h372z" />
    <glyph glyph-name="sterling" unicode="&#xa3;" horiz-adv-x="1280" 
d="M614 551q-26 -95 -112 -178h698v-373h-1122v373q60 31 99.5 77.5t49.5 100.5h-149v311h153v80q0 230 135.5 371t370.5 141q213 0 356 -127.5t152 -335.5h-401q0 32 -26 57t-70 25q-70 0 -98.5 -51t-28.5 -154v-6h260v-311h-267z" />
    <glyph glyph-name="currency" unicode="&#xa4;" horiz-adv-x="1695" 
d="M1503 733q0 -159 -69 -297l184 -184l-287 -287l-184 185q-137 -70 -295 -70q-157 0 -301 72l-186 -187l-287 287l186 186q-71 139 -71 295q0 158 71 297l-186 187l287 286l186 -186q142 74 301 74q160 0 295 -72l184 184l287 -286l-184 -185q69 -138 69 -299zM852 449
q119 0 201 82t82 202q0 121 -82 205t-201 84q-120 0 -205.5 -85t-85.5 -204q0 -117 85.5 -200.5t205.5 -83.5z" />
    <glyph glyph-name="yen" unicode="&#xa5;" horiz-adv-x="1464" 
d="M1458 1434l-377 -607h224v-311h-373v-516h-389v516h-383v311h229l-383 607h473l262 -455l263 455h454z" />
    <glyph glyph-name="brokenbar" unicode="&#xa6;" horiz-adv-x="544" 
d="M78 838v800h389v-800h-389zM78 -307v801h389v-801h-389z" />
    <glyph glyph-name="section" unicode="&#xa7;" horiz-adv-x="1136" 
d="M1059 530q0 -110 -64 -213q64 -87 64 -221q0 -79 -33 -153.5t-92.5 -133.5t-153 -95t-205.5 -36q-217 0 -357 131t-140 334h321q0 -72 49 -115.5t127 -43.5q74 0 118 30t44 82q0 37 -36 62.5t-93 42t-126 33.5t-138.5 45.5t-126.5 69.5t-93 114t-36 170q0 118 66 215
q-66 85 -66 217q0 176 129.5 289.5t323.5 113.5q122 0 215.5 -37.5t149.5 -102.5t84 -145t28 -171h-336q0 66 -41 108.5t-111 42.5q-59 0 -91.5 -25t-32.5 -71q0 -31 28 -54t74 -35.5t104.5 -28.5t120 -32t120 -47t104.5 -72.5t74 -110t28 -157.5zM406 633q0 -25 16 -44
t51.5 -33t67.5 -23t90 -23.5t94 -24.5q12 18 12 45q0 22 -13 40t-32 30t-53.5 24t-63 19.5t-75.5 19.5t-78 21q-16 -19 -16 -51z" />
    <glyph glyph-name="dieresis" unicode="&#xa8;" horiz-adv-x="1130" 
d="M317 1530q89 0 152 -63.5t63 -151.5t-63 -151.5t-152 -63.5q-88 0 -151.5 63.5t-63.5 151.5t63.5 151.5t151.5 63.5zM813 1530q89 0 152 -63.5t63 -151.5t-63 -151.5t-152 -63.5q-88 0 -151.5 63.5t-63.5 151.5t63.5 151.5t151.5 63.5z" />
    <glyph glyph-name="copyright" unicode="&#xa9;" horiz-adv-x="1576" 
d="M786 -20q-198 0 -367.5 99t-268.5 268.5t-99 369.5t99 369.5t268.5 268.5t367.5 99q150 0 287 -58.5t236.5 -157.5t158 -235t58.5 -286t-58.5 -286t-158 -235t-236.5 -157.5t-287 -58.5zM788 117q161 0 298.5 80.5t217.5 219t80 300.5t-80 300.5t-217.5 219t-298.5 80.5
q-121 0 -231 -47.5t-190 -128t-127 -191.5t-47 -233t47 -233t127 -191.5t190 -128t231 -47.5zM801 322q-173 0 -287.5 113.5t-114.5 285.5t114.5 286.5t287.5 114.5q146 0 258.5 -86.5t124.5 -212.5h-244q-12 38 -50.5 62t-88.5 24q-76 0 -127 -53.5t-51 -134.5
q0 -79 51.5 -132.5t126.5 -53.5q49 0 88 27t51 69h246q-19 -136 -127 -222.5t-258 -86.5z" />
    <glyph glyph-name="ordfeminine" unicode="&#xaa;" horiz-adv-x="727" 
d="M453 1442h229v-608h-229v55q-59 -68 -156 -68q-112 0 -191 93t-79 223q0 131 79 224t191 93q97 0 156 -68v56zM352 1040q40 0 70.5 29t30.5 68t-30.5 68.5t-70.5 29.5q-41 0 -71.5 -29t-30.5 -69q0 -38 30.5 -67.5t71.5 -29.5z" />
    <glyph glyph-name="guillemotleft" unicode="&#xab;" horiz-adv-x="1540" 
d="M700 86l-598 393v238l598 395v-375l-258 -139l258 -133v-379zM1436 86l-598 393v238l598 395v-375l-258 -139l258 -133v-379z" />
    <glyph glyph-name="logicalnot" unicode="&#xac;" horiz-adv-x="1200" 
d="M1122 831v-788h-346v442h-698v346h1044z" />
    <glyph glyph-name="uni00AD" unicode="&#xad;" horiz-adv-x="833" 
d="M51 362v345h731v-345h-731z" />
    <glyph glyph-name="registered" unicode="&#xae;" horiz-adv-x="1591" 
d="M786 1454q150 0 287 -58.5t236.5 -157.5t158 -235t58.5 -286t-58.5 -286t-158 -235t-236.5 -157.5t-287 -58.5q-198 0 -367.5 99t-268.5 268.5t-99 369.5t99 369.5t268.5 268.5t367.5 99zM788 117q161 0 298.5 80.5t217.5 219t80 300.5t-80 300.5t-217.5 219t-298.5 80.5
q-121 0 -231 -47.5t-190 -128t-127 -191.5t-47 -233t47 -233t127 -191.5t190 -128t231 -47.5zM1071 858q0 -136 -94 -205l194 -321h-264l-151 272h-37v-272h-219v780h311q103 0 181.5 -75.5t78.5 -178.5zM719 901v-108h72q23 0 40 16t17 37q0 23 -17.5 39t-39.5 16h-72z" />
    <glyph glyph-name="macron" unicode="&#xaf;" horiz-adv-x="860" 
d="M102 1116v295h656v-295h-656z" />
    <glyph glyph-name="degree" unicode="&#xb0;" horiz-adv-x="862" 
d="M760 1128q0 -137 -97 -234t-233 -97q-135 0 -231.5 97.5t-96.5 233.5q0 134 96.5 230t231.5 96q136 0 233 -96t97 -230zM537 1128q0 43 -31.5 74t-75.5 31t-75 -31t-31 -74q0 -44 31 -76t75 -32t75.5 32t31.5 76z" />
    <glyph glyph-name="plusminus" unicode="&#xb1;" horiz-adv-x="1234" 
d="M791 1192h366v-346h-366v-367h-347v367h-366v346h366v367h347v-367zM78 0v346h1079v-346h-1079z" />
    <glyph glyph-name="uni00B2" unicode="&#xb2;" horiz-adv-x="712" 
d="M53 573v170l242 232q21 20 49.5 45.5t39.5 36.5t24.5 27.5t17.5 31t4 33.5q0 26 -23.5 43.5t-54.5 17.5q-90 0 -80 -129h-243q-7 159 85 262t242 103q140 0 231 -82t91 -209q0 -92 -53 -167.5t-160 -166.5l-14 -12h223v-236h-621z" />
    <glyph glyph-name="uni00B3" unicode="&#xb3;" horiz-adv-x="694" 
d="M211 1092l108 110h-284v232h627v-156l-162 -158q78 -25 124 -93.5t46 -158.5q0 -135 -94.5 -221t-239.5 -86q-137 0 -229.5 83t-98.5 210h242q17 -57 86 -57q37 0 60.5 21.5t23.5 55.5q0 58 -65.5 75.5t-143.5 -9.5v152z" />
    <glyph glyph-name="acute" unicode="&#xb4;" horiz-adv-x="815" 
d="M713 1454l-273 -338h-338l181 338h430z" />
    <glyph glyph-name="uni00B5" unicode="&#xb5;" horiz-adv-x="1167" 
d="M721 1012h369v-1012h-369v100q-88 -120 -234 -120q-27 0 -41 2v-289h-368v1319h368v-516q0 -73 38.5 -117.5t101.5 -44.5q61 0 98 44t37 118v516z" />
    <glyph glyph-name="paragraph" unicode="&#xb6;" horiz-adv-x="1777" 
d="M1743 1434v-373h-221v-1368h-348v1368h-195v-1368h-348v762h-62q-232 0 -381 137.5t-149 351.5t146.5 352t375.5 138h1182zM631 827v234h-82q-53 0 -87 -33t-34 -84t34 -84t87 -33h82z" />
    <glyph glyph-name="periodcentered" unicode="&#xb7;" horiz-adv-x="643" 
d="M322 432q-95 0 -160.5 64.5t-65.5 156.5t65.5 155.5t160.5 63.5t160 -63.5t65 -155.5q0 -93 -65 -157t-160 -64z" />
    <glyph glyph-name="cedilla" unicode="&#xb8;" horiz-adv-x="694" 
d="M201 57h272q60 -65 90.5 -133t29.5 -127.5t-29.5 -111t-80 -86t-128.5 -49.5t-169 -5l-84 260q82 -5 133.5 8.5t68 39.5t10 60.5t-36.5 71.5t-76 72z" />
    <glyph glyph-name="uni00B9" unicode="&#xb9;" horiz-adv-x="503" 
d="M461 1434v-861h-240v529l-186 -133v286l268 179h158z" />
    <glyph glyph-name="ordmasculine" unicode="&#xba;" horiz-adv-x="686" 
d="M575 1866q225 0 378 -151.5t153 -377.5q0 -148 -70 -268.5t-191.5 -188t-269.5 -67.5q-226 0 -378 149.5t-152 374.5q0 227 152 378t378 151zM575 1511q-74 0 -125 -50t-51 -124q0 -73 51 -121.5t125 -48.5q73 0 125 48.5t52 121.5q0 74 -52 124t-125 50z" />
    <glyph glyph-name="guillemotright" unicode="&#xbb;" horiz-adv-x="1540" 
d="M104 86v379l258 133l-258 139v375l598 -395v-238zM840 86v379l258 133l-258 139v375l598 -395v-238z" />
    <glyph glyph-name="onequarter" unicode="&#xbc;" horiz-adv-x="1789" 
d="M461 573h-240v529l-186 -133v286l268 179h158v-861zM1221 1434h288l-952 -1434h-289zM1769 389v-223h-73v-166h-242v166h-412v145l287 549h275l-248 -471h98v137h242v-137h73z" />
    <glyph glyph-name="onehalf" unicode="&#xbd;" horiz-adv-x="1816" 
d="M461 1434v-861h-240v529l-186 -133v286l268 179h158zM1221 1434h288l-952 -1434h-289zM1194 0v170l242 231q21 20 49.5 45.5t39.5 36.5t24.5 27.5t17.5 31t4 33.5q0 26 -23.5 44t-54.5 18q-90 0 -80 -129h-244q-7 159 85.5 261.5t242.5 102.5q140 0 231 -81.5t91 -208.5
q0 -92 -53 -167.5t-160 -166.5l-15 -12h224v-236h-621z" />
    <glyph glyph-name="threequarters" unicode="&#xbe;" horiz-adv-x="1847" 
d="M670 868q0 -135 -94.5 -221t-239.5 -86q-137 0 -229.5 83t-98.5 210h242q17 -57 86 -57q37 0 60.5 21.5t23.5 55.5q0 58 -65.5 75.5t-143.5 -9.5v152l108 110h-284v232h627v-156l-162 -158q78 -25 124 -93.5t46 -158.5zM1278 1434h289l-953 -1434h-288zM1827 389v-223
h-74v-166h-242v166h-411v145l286 549h275l-248 -471h98v137h242v-137h74z" />
    <glyph glyph-name="questiondown" unicode="&#xbf;" horiz-adv-x="1101" 
d="M553 1454q95 0 160 -64t65 -157q0 -92 -65 -155.5t-160 -63.5t-160 63.5t-65 155.5q0 93 65 157t160 64zM543 -20q-144 0 -264.5 59t-189.5 162t-69 227q0 80 19 146.5t50 111t68 80.5t74 61t68 45.5t50.5 40.5t19.5 41h379q0 -73 -18 -130t-47 -92t-64 -62.5t-70 -47.5
t-64 -40t-47 -48t-18 -63q0 -58 35.5 -85.5t97.5 -27.5q73 0 110 51t35 128h392q6 -153 -64.5 -281t-198.5 -202t-284 -74z" />
    <glyph glyph-name="Agrave" unicode="&#xc0;" horiz-adv-x="1449" 
d="M924 1538h-338l-273 338h430zM1024 0l-66 176h-477l-65 -176h-412l565 1434h308l569 -1434h-422zM606 508h232l-115 309z" />
    <glyph glyph-name="Aacute" unicode="&#xc1;" horiz-adv-x="1449" 
d="M1159 1876l-272 -338h-338l180 338h430zM1024 0l-66 176h-477l-65 -176h-412l565 1434h308l569 -1434h-422zM606 508h232l-115 309z" />
    <glyph glyph-name="Acircumflex" unicode="&#xc2;" horiz-adv-x="1449" 
d="M727 1653l-82 -115h-326l207 338h400l209 -338h-326zM1024 0l-66 176h-477l-65 -176h-412l565 1434h308l569 -1434h-422zM606 508h232l-115 309z" />
    <glyph glyph-name="Atilde" unicode="&#xc3;" horiz-adv-x="1449" 
d="M588 1622q-24 0 -37.5 -25t-11.5 -67l-297 53q15 156 104 254t211 98q64 0 128 -25.5t108.5 -51t60.5 -25.5q26 0 43.5 24t20.5 64l294 -51q-19 -154 -110 -253t-209 -99q-53 0 -105.5 16t-86 36t-65 36t-48.5 16zM1024 0l-66 176h-477l-65 -176h-412l565 1434h308
l569 -1434h-422zM606 508h232l-115 309z" />
    <glyph glyph-name="Adieresis" unicode="&#xc4;" horiz-adv-x="1449" 
d="M479 1511q-88 0 -151.5 63.5t-63.5 151.5t63.5 152t151.5 64q89 0 152 -64t63 -152t-63 -151.5t-152 -63.5zM975 1511q-88 0 -151.5 63.5t-63.5 151.5t63.5 152t151.5 64q89 0 152 -64t63 -152t-63 -151.5t-152 -63.5zM1024 0l-66 176h-477l-65 -176h-412l565 1434h308
l569 -1434h-422zM606 508h232l-115 309z" />
    <glyph glyph-name="Aring" unicode="&#xc5;" horiz-adv-x="1449" 
d="M727 1522q-133 0 -225 89t-92 218q0 130 91.5 219.5t225.5 89.5q135 0 228.5 -89.5t93.5 -219.5q0 -129 -93.5 -218t-228.5 -89zM727 1929q-41 0 -69.5 -29.5t-28.5 -70.5t28.5 -69.5t69.5 -28.5q43 0 72.5 28.5t29.5 69.5t-29.5 70.5t-72.5 29.5zM1024 0l-66 176h-477
l-65 -176h-412l565 1434h308l569 -1434h-422zM606 508h232l-115 309z" />
    <glyph glyph-name="AE" unicode="&#xc6;" horiz-adv-x="1949" 
d="M1892 1061h-522v-152h467v-372h-467v-164h522v-373h-903v262h-416l-129 -262h-440l760 1434h1128v-373zM745 608h244v492z" />
    <glyph glyph-name="Ccedilla" unicode="&#xc7;" horiz-adv-x="1544" 
d="M1493 545q-34 -224 -200 -377t-404 -182q47 -72 59 -143t-12 -129t-75 -100.5t-133.5 -61t-182.5 -7.5l-84 260q84 -5 136 9.5t67.5 42.5t6 64t-43.5 75q-257 51 -416.5 248.5t-159.5 470.5q0 157 56 294t153 235t234 154t294 56q173 0 328.5 -71t256.5 -197.5
t116 -278.5h-432q-22 73 -97 120.5t-172 47.5q-146 0 -241.5 -102.5t-95.5 -257.5q0 -154 95.5 -255.5t241.5 -101.5q96 0 171.5 53.5t97.5 133.5h436z" />
    <glyph glyph-name="Egrave" unicode="&#xc8;" horiz-adv-x="1056" 
d="M145 1876h430l181 -338h-338zM78 1434h921v-373h-532v-152h475v-372h-475v-164h532v-373h-921v1434z" />
    <glyph glyph-name="Eacute" unicode="&#xc9;" horiz-adv-x="1056" 
d="M991 1876l-272 -338h-338l180 338h430zM78 1434h921v-373h-532v-152h475v-372h-475v-164h532v-373h-921v1434z" />
    <glyph glyph-name="Ecircumflex" unicode="&#xca;" horiz-adv-x="1056" 
d="M559 1653l-82 -115h-325l206 338h400l209 -338h-326zM999 1061h-532v-152h475v-372h-475v-164h532v-373h-921v1434h921v-373z" />
    <glyph glyph-name="Edieresis" unicode="&#xcb;" horiz-adv-x="1056" 
d="M311 1942q89 0 152 -64t63 -152t-63 -151.5t-152 -63.5q-88 0 -151.5 63.5t-63.5 151.5t63.5 152t151.5 64zM807 1942q89 0 152 -64t63 -152t-63 -151.5t-152 -63.5q-88 0 -151.5 63.5t-63.5 151.5t63.5 152t151.5 64zM78 1434h921v-373h-532v-152h475v-372h-475v-164
h532v-373h-921v1434z" />
    <glyph glyph-name="Igrave" unicode="&#xcc;" horiz-adv-x="544" 
d="M-141 1876h430l180 -338h-338zM78 1434h389v-1434h-389v1434z" />
    <glyph glyph-name="Iacute" unicode="&#xcd;" horiz-adv-x="544" 
d="M705 1876l-273 -338h-338l180 338h431zM78 1434h389v-1434h-389v1434z" />
    <glyph glyph-name="Icircumflex" unicode="&#xce;" horiz-adv-x="544" 
d="M272 1653l-82 -115h-325l207 338h399l209 -338h-326zM78 0v1434h389v-1434h-389z" />
    <glyph glyph-name="Idieresis" unicode="&#xcf;" horiz-adv-x="544" 
d="M25 1942q89 0 152 -64t63 -152t-63 -151.5t-152 -63.5q-88 0 -151.5 63.5t-63.5 151.5t63.5 152t151.5 64zM520 1942q89 0 152 -64t63 -152t-63 -151.5t-152 -63.5q-88 0 -151.5 63.5t-63.5 151.5t63.5 152t151.5 64zM78 1434h389v-1434h-389v1434z" />
    <glyph glyph-name="Eth" unicode="&#xd0;" horiz-adv-x="1386" 
d="M596 1434q156 0 293 -54.5t235 -148.5t154.5 -226t56.5 -282q0 -154 -56.5 -289t-154.5 -230t-235 -149.5t-293 -54.5h-518v602h-150v242h150v590h518zM625 373q136 0 223.5 98.5t87.5 251.5q0 147 -87 242.5t-224 95.5h-158v-217h188v-242h-188v-229h158z" />
    <glyph glyph-name="Ntilde" unicode="&#xd1;" horiz-adv-x="1325" 
d="M182 1583q15 156 104.5 254t211.5 98q64 0 128 -25.5t108.5 -51t60.5 -25.5q26 0 43 24t20 64l295 -51q-19 -154 -110 -253t-209 -99q-53 0 -106 16t-86 36t-65 36t-49 16q-24 0 -37.5 -25t-11.5 -67zM78 1434h321l459 -658v658h389v-1434h-317l-463 655v-655h-389v1434z
" />
    <glyph glyph-name="Ograve" unicode="&#xd2;" horiz-adv-x="1576" 
d="M375 1876h430l180 -338h-338zM788 1454q157 0 294 -56t234.5 -154t153.5 -235t56 -294q0 -156 -56 -292.5t-153.5 -233.5t-234.5 -153t-294 -56t-294 56t-234 153t-153 233.5t-56 292.5q0 157 56 294t153 235t234 154t294 56zM788 1075q-146 0 -241.5 -102.5
t-95.5 -257.5q0 -154 95.5 -255.5t241.5 -101.5t242 101.5t96 255.5q0 155 -96 257.5t-242 102.5z" />
    <glyph glyph-name="Oacute" unicode="&#xd3;" horiz-adv-x="1576" 
d="M1221 1876l-273 -338h-338l181 338h430zM788 1454q157 0 294 -56t234.5 -154t153.5 -235t56 -294q0 -156 -56 -292.5t-153.5 -233.5t-234.5 -153t-294 -56t-294 56t-234 153t-153 233.5t-56 292.5q0 157 56 294t153 235t234 154t294 56zM788 1075q-146 0 -241.5 -102.5
t-95.5 -257.5q0 -154 95.5 -255.5t241.5 -101.5t242 101.5t96 255.5q0 155 -96 257.5t-242 102.5z" />
    <glyph glyph-name="Ocircumflex" unicode="&#xd4;" horiz-adv-x="1576" 
d="M788 1653l-81 -115h-326l207 338h399l209 -338h-326zM788 1454q157 0 294 -56t234.5 -154t153.5 -235t56 -294q0 -156 -56 -292.5t-153.5 -233.5t-234.5 -153t-294 -56t-294 56t-234 153t-153 233.5t-56 292.5q0 157 56 294t153 235t234 154t294 56zM788 358
q146 0 242 101.5t96 255.5q0 155 -96 257.5t-242 102.5t-241.5 -102.5t-95.5 -257.5q0 -154 95.5 -255.5t241.5 -101.5z" />
    <glyph glyph-name="Otilde" unicode="&#xd5;" horiz-adv-x="1576" 
d="M303 1583q15 156 104 254t211 98q64 0 128 -25.5t108.5 -51t60.5 -25.5q26 0 43.5 24t20.5 64l295 -51q-19 -154 -110.5 -253t-209.5 -99q-53 0 -105.5 16t-86 36t-65 36t-48.5 16q-24 0 -37.5 -25t-11.5 -67zM788 1454q157 0 294 -56t234.5 -154t153.5 -235t56 -294
q0 -156 -56 -292.5t-153.5 -233.5t-234.5 -153t-294 -56t-294 56t-234 153t-153 233.5t-56 292.5q0 157 56 294t153 235t234 154t294 56zM788 1075q-146 0 -241.5 -102.5t-95.5 -257.5q0 -154 95.5 -255.5t241.5 -101.5t242 101.5t96 255.5q0 155 -96 257.5t-242 102.5z" />
    <glyph glyph-name="Odieresis" unicode="&#xd6;" horiz-adv-x="1576" 
d="M541 1942q89 0 152 -64t63 -152t-63 -151.5t-152 -63.5q-88 0 -151.5 63.5t-63.5 151.5t63.5 152t151.5 64zM1036 1942q89 0 152 -64t63 -152t-63 -151.5t-152 -63.5q-88 0 -151.5 63.5t-63.5 151.5t63.5 152t151.5 64zM788 1454q157 0 294 -56t234.5 -154t153.5 -235
t56 -294q0 -156 -56 -292.5t-153.5 -233.5t-234.5 -153t-294 -56t-294 56t-234 153t-153 233.5t-56 292.5q0 157 56 294t153 235t234 154t294 56zM788 1075q-146 0 -241.5 -102.5t-95.5 -257.5q0 -154 95.5 -255.5t241.5 -101.5t242 101.5t96 255.5q0 155 -96 257.5
t-242 102.5z" />
    <glyph glyph-name="multiply" unicode="&#xd7;" horiz-adv-x="1218" 
d="M1141 981l-287 -287l287 -286l-244 -246l-289 287l-284 -285l-246 244l284 286l-284 285l246 246l284 -285l287 287z" />
    <glyph glyph-name="Oslash" unicode="&#xd8;" horiz-adv-x="1576" 
d="M788 1454q157 0 294 -56t234.5 -154t153.5 -235t56 -294q0 -156 -56 -292.5t-153.5 -233.5t-234.5 -153t-294 -56t-294 56t-234 153t-153 233.5t-56 292.5q0 157 56 294t153 235t234 154t294 56zM788 1075q-146 0 -241.5 -102.5t-95.5 -257.5q0 -65 18 -121l393 473
q-33 8 -74 8zM788 358q146 0 242 101.5t96 255.5q0 69 -22 133l-395 -481q56 -9 79 -9z" />
    <glyph glyph-name="Ugrave" unicode="&#xd9;" horiz-adv-x="1318" 
d="M246 1876h430l180 -338h-338zM659 -18q-123 0 -231 44t-185 121t-121 185.5t-44 232.5v869h389v-869q0 -88 55 -146.5t137 -58.5q83 0 138 58.5t55 146.5v869h389v-869q0 -166 -75.5 -299.5t-208.5 -208.5t-298 -75z" />
    <glyph glyph-name="Uacute" unicode="&#xda;" horiz-adv-x="1318" 
d="M1092 1876l-273 -338h-338l181 338h430zM659 -18q-123 0 -231 44t-185 121t-121 185.5t-44 232.5v869h389v-869q0 -88 55 -146.5t137 -58.5q83 0 138 58.5t55 146.5v869h389v-869q0 -166 -75.5 -299.5t-208.5 -208.5t-298 -75z" />
    <glyph glyph-name="Ucircumflex" unicode="&#xdb;" horiz-adv-x="1318" 
d="M659 1653l-81 -115h-326l207 338h399l209 -338h-326zM852 1434h389v-869q0 -166 -75.5 -299.5t-208.5 -208.5t-298 -75q-123 0 -231 44t-185 121t-121 185.5t-44 232.5v869h389v-869q0 -88 55 -146.5t137 -58.5q83 0 138 58.5t55 146.5v869z" />
    <glyph glyph-name="Udieresis" unicode="&#xdc;" horiz-adv-x="1318" 
d="M412 1942q89 0 152 -64t63 -152t-63 -151.5t-152 -63.5q-88 0 -151.5 63.5t-63.5 151.5t63.5 152t151.5 64zM907 1942q89 0 152 -64t63 -152t-63 -151.5t-152 -63.5q-88 0 -151.5 63.5t-63.5 151.5t63.5 152t151.5 64zM659 -18q-123 0 -231 44t-185 121t-121 185.5
t-44 232.5v869h389v-869q0 -88 55 -146.5t137 -58.5q83 0 138 58.5t55 146.5v869h389v-869q0 -166 -75.5 -299.5t-208.5 -208.5t-298 -75z" />
    <glyph glyph-name="Yacute" unicode="&#xdd;" horiz-adv-x="1464" 
d="M1167 1876l-272 -338h-338l180 338h430zM6 1434h473l262 -455l263 455h454l-526 -848v-586h-389v586z" />
    <glyph glyph-name="Thorn" unicode="&#xde;" horiz-adv-x="1177" 
d="M621 1206q229 0 375.5 -136.5t146.5 -350.5q0 -215 -146.5 -353.5t-375.5 -138.5h-154v-227h-389v1434h389v-228h154zM621 600q59 0 96 33.5t37 85.5q0 51 -37 83t-96 32h-154v-234h154z" />
    <glyph glyph-name="germandbls" unicode="&#xdf;" horiz-adv-x="1218" 
d="M72 0v817q0 299 150 468t417 169q91 0 176.5 -32t152 -88t106.5 -138t40 -176q0 -111 -88 -225q152 -134 152 -312q0 -202 -139.5 -342.5t-340.5 -140.5h-135v373h111q44 0 74 29.5t30 72.5t-30 73t-74 30h-111v348h70q39 0 62.5 21.5t23.5 51.5q0 38 -23.5 60t-64.5 22
q-78 0 -124 -71.5t-46 -192.5v-817h-389z" />
    <glyph glyph-name="agrave" unicode="&#xe0;" horiz-adv-x="1212" 
d="M868 1116h-338l-272 338h430zM766 1012h369v-1012h-369v98q-98 -118 -268 -118q-188 0 -320.5 154.5t-132.5 371.5t132.5 371.5t320.5 154.5q169 0 268 -119v99zM586 332q74 0 127 51t53 123t-53 123t-127 51t-127 -51t-53 -123t53 -123t127 -51z" />
    <glyph glyph-name="aacute" unicode="&#xe1;" horiz-adv-x="1212" 
d="M1104 1454l-273 -338h-337l180 338h430zM766 1012h369v-1012h-369v98q-98 -118 -268 -118q-188 0 -320.5 154.5t-132.5 371.5t132.5 371.5t320.5 154.5q169 0 268 -119v99zM586 332q74 0 127 51t53 123t-53 123t-127 51t-127 -51t-53 -123t53 -123t127 -51z" />
    <glyph glyph-name="acircumflex" unicode="&#xe2;" horiz-adv-x="1212" 
d="M672 1231l-82 -115h-326l207 338h399l209 -338h-325zM766 1012h369v-1012h-369v98q-98 -118 -268 -118q-188 0 -320.5 154.5t-132.5 371.5t132.5 371.5t320.5 154.5q169 0 268 -119v99zM586 332q74 0 127 51t53 123t-53 123t-127 51t-127 -51t-53 -123t53 -123t127 -51z
" />
    <glyph glyph-name="atilde" unicode="&#xe3;" horiz-adv-x="1212" 
d="M532 1200q-24 0 -37.5 -25t-11.5 -67l-297 53q15 156 104.5 254t211.5 98q64 0 128 -25.5t108.5 -51t60.5 -25.5q26 0 43 24t20 64l295 -51q-19 -154 -110 -253t-209 -99q-53 0 -106 16t-86 36t-65 36t-49 16zM766 913v99h369v-1012h-369v98q-98 -118 -268 -118
q-188 0 -320.5 154.5t-132.5 371.5t132.5 371.5t320.5 154.5q169 0 268 -119zM586 332q74 0 127 51t53 123t-53 123t-127 51t-127 -51t-53 -123t53 -123t127 -51z" />
    <glyph glyph-name="adieresis" unicode="&#xe4;" horiz-adv-x="1212" 
d="M422 1100q-88 0 -151.5 63.5t-63.5 151.5t63.5 151.5t151.5 63.5q89 0 152 -63.5t63 -151.5t-63 -151.5t-152 -63.5zM918 1100q-88 0 -152 63.5t-64 151.5t64 151.5t152 63.5q89 0 152 -63.5t63 -151.5t-63 -151.5t-152 -63.5zM766 1012h369v-1012h-369v98
q-98 -118 -268 -118q-188 0 -320.5 154.5t-132.5 371.5t132.5 371.5t320.5 154.5q169 0 268 -119v99zM586 332q74 0 127 51t53 123t-53 123t-127 51t-127 -51t-53 -123t53 -123t127 -51z" />
    <glyph glyph-name="aring" unicode="&#xe5;" horiz-adv-x="1212" 
d="M672 1100q-134 0 -226 89t-92 218q0 130 92 219.5t226 89.5q135 0 228 -89.5t93 -219.5q0 -129 -93 -218t-228 -89zM672 1507q-41 0 -70 -29.5t-29 -70.5t29 -69.5t70 -28.5q43 0 72.5 28.5t29.5 69.5t-29.5 70.5t-72.5 29.5zM766 1012h369v-1012h-369v98
q-98 -118 -268 -118q-188 0 -320.5 154.5t-132.5 371.5t132.5 371.5t320.5 154.5q169 0 268 -119v99zM586 332q74 0 127 51t53 123t-53 123t-127 51t-127 -51t-53 -123t53 -123t127 -51z" />
    <glyph glyph-name="ae" unicode="&#xe6;" horiz-adv-x="1961" 
d="M1917 549q0 -63 -12 -139h-662q45 -119 199 -119q45 0 92.5 20t62.5 47l289 -176q-46 -83 -167.5 -142.5t-245.5 -59.5q-226 0 -338 124v-104h-369v98q-98 -118 -268 -118q-188 0 -320.5 154.5t-132.5 371.5t132.5 371.5t320.5 154.5q169 0 268 -119v99h369v-103
q114 123 331 123q186 0 318.5 -142t132.5 -341zM1239 631h313q-10 44 -53 74t-94 30q-135 0 -166 -104zM586 332q74 0 127 51t53 123t-53 123t-127 51t-127 -51t-53 -123t53 -123t127 -51z" />
    <glyph glyph-name="ccedilla" unicode="&#xe7;" 
d="M1083 424q-10 -156 -112 -271.5t-258 -154.5q64 -91 69 -180.5t-40.5 -154t-141.5 -98.5t-223 -20l-84 260q83 -5 134.5 9t67.5 41t8 61.5t-40 73.5q-185 34 -301.5 176t-116.5 338q0 227 150 377.5t376 150.5q202 0 348.5 -124.5t161.5 -311.5h-374q-11 36 -48.5 59
t-87.5 23q-72 0 -118.5 -49t-46.5 -125q0 -74 46.5 -122t118.5 -48q52 0 90.5 25.5t49.5 64.5h372z" />
    <glyph glyph-name="egrave" unicode="&#xe8;" 
d="M760 1116h-338l-272 338h430zM1083 537q0 -48 -8 -134h-688q20 -57 69 -88.5t117 -31.5q113 0 134 69h360q-23 -170 -154.5 -271t-328.5 -101q-148 0 -272 70t-195.5 192t-71.5 268q0 145 70 265t192.5 188.5t270.5 68.5q207 0 356 -144t149 -351zM399 635h299
q-6 45 -46 72.5t-93 27.5q-118 0 -160 -100z" />
    <glyph glyph-name="eacute" unicode="&#xe9;" 
d="M995 1454l-272 -338h-338l180 338h430zM1083 537q0 -48 -8 -134h-688q20 -57 69 -88.5t117 -31.5q113 0 134 69h360q-23 -170 -154.5 -271t-328.5 -101q-148 0 -272 70t-195.5 192t-71.5 268q0 145 70 265t192.5 188.5t270.5 68.5q207 0 356 -144t149 -351zM399 635h299
q-6 45 -46 72.5t-93 27.5q-118 0 -160 -100z" />
    <glyph glyph-name="ecircumflex" unicode="&#xea;" 
d="M563 1231l-82 -115h-325l206 338h400l209 -338h-326zM1083 537q0 -48 -8 -134h-688q20 -57 69 -88.5t117 -31.5q113 0 134 69h360q-23 -170 -154.5 -271t-328.5 -101q-148 0 -272 70t-195.5 192t-71.5 268q0 145 70 265t192.5 188.5t270.5 68.5q207 0 356 -144t149 -351z
M399 635h299q-6 45 -46 72.5t-93 27.5q-118 0 -160 -100z" />
    <glyph glyph-name="edieresis" unicode="&#xeb;" 
d="M313 1100q-88 0 -151.5 63.5t-63.5 151.5t63.5 151.5t151.5 63.5q89 0 152 -63.5t63 -151.5t-63 -151.5t-152 -63.5zM809 1100q-88 0 -151.5 63.5t-63.5 151.5t63.5 151.5t151.5 63.5q89 0 152 -63.5t63 -151.5t-63 -151.5t-152 -63.5zM1083 537q0 -48 -8 -134h-688
q20 -57 69 -88.5t117 -31.5q113 0 134 69h360q-23 -170 -154.5 -271t-328.5 -101q-148 0 -272 70t-195.5 192t-71.5 268q0 145 70 265t192.5 188.5t270.5 68.5q207 0 356 -144t149 -351zM399 635h299q-6 45 -46 72.5t-93 27.5q-118 0 -160 -100z" />
    <glyph glyph-name="igrave" unicode="&#xec;" horiz-adv-x="524" 
d="M-152 1454h431l180 -338h-338zM78 1012h368v-1012h-368v1012z" />
    <glyph glyph-name="iacute" unicode="&#xed;" horiz-adv-x="524" 
d="M694 1454l-272 -338h-338l180 338h430zM78 1012h368v-1012h-368v1012z" />
    <glyph glyph-name="icircumflex" unicode="&#xee;" horiz-adv-x="524" 
d="M262 1231l-82 -115h-325l206 338h400l209 -338h-326zM78 0v1012h368v-1012h-368z" />
    <glyph glyph-name="idieresis" unicode="&#xef;" horiz-adv-x="524" 
d="M12 1530q89 0 152 -63.5t63 -151.5t-63 -151.5t-152 -63.5q-88 0 -151.5 63.5t-63.5 151.5t63.5 151.5t151.5 63.5zM508 1530q89 0 152 -63.5t63 -151.5t-63 -151.5t-152 -63.5q-88 0 -151.5 63.5t-63.5 151.5t63.5 151.5t151.5 63.5zM78 1012h368v-1012h-368v1012z" />
    <glyph glyph-name="eth" unicode="&#xf0;" horiz-adv-x="1251" 
d="M1348 1339v-241h-213v-461q0 -149 -43 -273.5t-117 -208t-174.5 -129.5t-214.5 -46q-124 0 -227.5 41.5t-171.5 113t-105 167t-37 204.5q0 217 132.5 371.5t320.5 154.5q169 0 268 -119v185h-219v241h219v95h369v-95h213zM586 332q74 0 127 51t53 123t-53 123t-127 51
t-127 -51t-53 -123t53 -123t127 -51z" />
    <glyph glyph-name="ntilde" unicode="&#xf1;" horiz-adv-x="1167" 
d="M428 1200q-24 0 -37.5 -25t-11.5 -67l-297 53q15 156 104 254t211 98q64 0 128 -25.5t108.5 -51t60.5 -25.5q26 0 43.5 24t20.5 64l295 -51q-19 -154 -110.5 -253t-209.5 -99q-53 0 -105.5 16t-86 36t-65 36t-48.5 16zM680 1032q193 0 301.5 -123.5t108.5 -343.5v-565
h-369v516q0 73 -38 117.5t-101 44.5q-62 0 -99 -44.5t-37 -117.5v-516h-368v1012h368v-101q88 121 234 121z" />
    <glyph glyph-name="ograve" unicode="&#xf2;" horiz-adv-x="1150" 
d="M166 1454h430l180 -338h-338zM575 1032q225 0 378 -151t153 -377q0 -148 -70 -268.5t-191.5 -188t-269.5 -67.5q-226 0 -378 149.5t-152 374.5q0 149 69.5 270t190.5 189.5t270 68.5zM575 678q-74 0 -125 -50t-51 -124q0 -73 51 -121.5t125 -48.5q73 0 125 48.5t52 121.5
q0 74 -52 124t-125 50z" />
    <glyph glyph-name="oacute" unicode="&#xf3;" horiz-adv-x="1150" 
d="M1012 1454l-273 -338h-338l181 338h430zM575 1032q225 0 378 -151t153 -377q0 -148 -70 -268.5t-191.5 -188t-269.5 -67.5q-226 0 -378 149.5t-152 374.5q0 149 69.5 270t190.5 189.5t270 68.5zM575 678q-74 0 -125 -50t-51 -124q0 -73 51 -121.5t125 -48.5
q73 0 125 48.5t52 121.5q0 74 -52 124t-125 50z" />
    <glyph glyph-name="ocircumflex" unicode="&#xf4;" horiz-adv-x="1150" 
d="M580 1231l-82 -115h-326l207 338h399l209 -338h-325zM575 1032q225 0 378 -151t153 -377q0 -148 -70 -268.5t-191.5 -188t-269.5 -67.5q-226 0 -378 149.5t-152 374.5q0 149 69.5 270t190.5 189.5t270 68.5zM575 334q73 0 125 48.5t52 121.5q0 74 -52 124t-125 50
q-74 0 -125 -50t-51 -124q0 -73 51 -121.5t125 -48.5z" />
    <glyph glyph-name="otilde" unicode="&#xf5;" horiz-adv-x="1150" 
d="M94 1161q15 156 104.5 254t211.5 98q64 0 128 -25.5t108.5 -51t60.5 -25.5q26 0 43 24t20 64l295 -51q-19 -154 -110.5 -253t-209.5 -99q-53 0 -105.5 16t-86 36t-65 36t-48.5 16q-24 0 -37.5 -25t-11.5 -67zM575 1032q225 0 378 -151t153 -377q0 -148 -70 -268.5
t-191.5 -188t-269.5 -67.5q-226 0 -378 149.5t-152 374.5q0 149 69.5 270t190.5 189.5t270 68.5zM575 678q-74 0 -125 -50t-51 -124q0 -73 51 -121.5t125 -48.5q73 0 125 48.5t52 121.5q0 74 -52 124t-125 50z" />
    <glyph glyph-name="odieresis" unicode="&#xf6;" horiz-adv-x="1150" 
d="M330 1530q89 0 152 -63.5t63 -151.5t-63 -151.5t-152 -63.5q-88 0 -151.5 63.5t-63.5 151.5t63.5 151.5t151.5 63.5zM825 1530q89 0 152 -63.5t63 -151.5t-63 -151.5t-152 -63.5q-88 0 -151.5 63.5t-63.5 151.5t63.5 151.5t151.5 63.5zM575 1032q225 0 378 -151t153 -377
q0 -148 -70 -268.5t-191.5 -188t-269.5 -67.5q-226 0 -378 149.5t-152 374.5q0 149 69.5 270t190.5 189.5t270 68.5zM575 678q-74 0 -125 -50t-51 -124q0 -73 51 -121.5t125 -48.5q73 0 125 48.5t52 121.5q0 74 -52 124t-125 50z" />
    <glyph glyph-name="divide" unicode="&#xf7;" horiz-adv-x="1234" 
d="M618 903q-95 0 -160 64t-65 157q0 92 65 155.5t160 63.5t160.5 -63.5t65.5 -155.5t-65.5 -156.5t-160.5 -64.5zM1157 836v-347h-1079v347h1079zM618 -20q-95 0 -160 64t-65 157q0 92 65 155.5t160 63.5t160.5 -63.5t65.5 -155.5t-65.5 -156.5t-160.5 -64.5z" />
    <glyph glyph-name="oslash" unicode="&#xf8;" horiz-adv-x="1144" 
d="M571 1032q224 0 373.5 -150.5t149.5 -377.5q0 -148 -68 -268t-187.5 -188t-267.5 -68q-226 0 -375 149t-149 375q0 227 149 377.5t375 150.5zM557 719q-87 -5 -143 -65t-56 -150t60 -150zM580 293q88 3 144 62t56 149q0 93 -59 155z" />
    <glyph glyph-name="ugrave" unicode="&#xf9;" horiz-adv-x="1167" 
d="M772 1116h-338l-272 338h430zM721 1012h369v-1012h-369v100q-88 -120 -234 -120q-193 0 -301 123t-108 343v566h368v-516q0 -73 38.5 -117.5t101.5 -44.5q61 0 98 44t37 118v516z" />
    <glyph glyph-name="uacute" unicode="&#xfa;" horiz-adv-x="1167" 
d="M1008 1454l-273 -338h-338l181 338h430zM721 1012h369v-1012h-369v100q-88 -120 -234 -120q-193 0 -301 123t-108 343v566h368v-516q0 -73 38.5 -117.5t101.5 -44.5q61 0 98 44t37 118v516z" />
    <glyph glyph-name="ucircumflex" unicode="&#xfb;" horiz-adv-x="1167" 
d="M575 1231l-81 -115h-326l207 338h399l209 -338h-326zM721 1012h369v-1012h-369v100q-88 -120 -234 -120q-193 0 -301 123t-108 343v566h368v-516q0 -73 38.5 -117.5t101.5 -44.5q61 0 98 44t37 118v516z" />
    <glyph glyph-name="udieresis" unicode="&#xfc;" horiz-adv-x="1167" 
d="M326 1100q-88 0 -151.5 63.5t-63.5 151.5t63.5 151.5t151.5 63.5q89 0 152 -63.5t63 -151.5t-63 -151.5t-152 -63.5zM821 1100q-88 0 -151.5 63.5t-63.5 151.5t63.5 151.5t151.5 63.5q89 0 152 -63.5t63 -151.5t-63 -151.5t-152 -63.5zM721 1012h369v-1012h-369v100
q-88 -120 -234 -120q-193 0 -301 123t-108 343v566h368v-516q0 -73 38.5 -117.5t101.5 -44.5q61 0 98 44t37 118v516z" />
    <glyph glyph-name="yacute" unicode="&#xfd;" horiz-adv-x="1134" 
d="M1020 1454l-272 -338h-338l180 338h430zM731 1012h397l-548 -1319h-398l195 426l-371 893h395l166 -461z" />
    <glyph glyph-name="thorn" unicode="&#xfe;" horiz-adv-x="1210" 
d="M713 1032q188 0 320 -154.5t132 -371.5t-132 -371.5t-320 -154.5q-171 0 -269 118v-405h-366v1741h366v-521q99 119 269 119zM625 332q74 0 127 51t53 123t-53 123t-127 51t-127.5 -51t-53.5 -123t53.5 -123t127.5 -51z" />
    <glyph glyph-name="ydieresis" unicode="&#xff;" horiz-adv-x="1134" 
d="M338 1100q-88 0 -151.5 63.5t-63.5 151.5t63.5 151.5t151.5 63.5q89 0 152 -63.5t63 -151.5t-63 -151.5t-152 -63.5zM834 1100q-88 0 -152 63.5t-64 151.5t64 151.5t152 63.5q89 0 152 -63.5t63 -151.5t-63 -151.5t-152 -63.5zM731 1012h397l-548 -1319h-398l195 426
l-371 893h395l166 -461z" />
    <glyph glyph-name="Amacron" unicode="&#x100;" horiz-adv-x="1449" 
d="M1055 1833v-295h-656v295h656zM1024 0l-66 176h-477l-65 -176h-412l565 1434h308l569 -1434h-422zM606 508h232l-115 309z" />
    <glyph glyph-name="amacron" unicode="&#x101;" horiz-adv-x="1136" 
d="M944 1411v-295h-655v295h655zM766 1012h369v-1012h-369v98q-98 -118 -268 -118q-188 0 -320.5 154.5t-132.5 371.5t132.5 371.5t320.5 154.5q169 0 268 -119v99zM586 332q74 0 127 51t53 123t-53 123t-127 51t-127 -51t-53 -123t53 -123t127 -51z" />
    <glyph glyph-name="Abreve" unicode="&#x102;" horiz-adv-x="1449" 
d="M727 1511q-162 0 -264 93t-101 251h277q-1 -47 23.5 -75.5t64.5 -28.5q39 0 63.5 28.5t24.5 75.5h277q0 -158 -102.5 -251t-262.5 -93zM1024 0l-66 176h-477l-65 -176h-412l565 1434h308l569 -1434h-422zM606 508h232l-115 309z" />
    <glyph glyph-name="abreve" unicode="&#x103;" horiz-adv-x="1146" 
d="M561 1090q-162 0 -263.5 93t-100.5 251h276q-1 -47 23.5 -76t64.5 -29q39 0 63.5 29t24.5 76h277q0 -158 -102.5 -251t-262.5 -93zM766 1012h369v-1012h-369v98q-98 -118 -268 -118q-188 0 -320.5 154.5t-132.5 371.5t132.5 371.5t320.5 154.5q169 0 268 -119v99z
M586 332q74 0 127 51t53 123t-53 123t-127 51t-127 -51t-53 -123t53 -123t127 -51z" />
    <glyph glyph-name="Aogonek" unicode="&#x104;" horiz-adv-x="1449" 
d="M1380 -106l88 -232q-41 -23 -117 -38t-153 -15q-114 0 -187 66t-73 167q0 104 76 189l-56 145h-477l-65 -176h-412l565 1434h308l487 -1225v-2l82 -207h-82q-48 -6 -77.5 -24.5t-29.5 -43.5q0 -22 18.5 -34.5t49.5 -12.5q17 0 55 9zM606 508h232l-115 309z" />
    <glyph glyph-name="aogonek" unicode="&#x105;" horiz-adv-x="1212" 
d="M1151 -106l88 -232q-41 -23 -117 -38t-153 -15q-114 0 -187 66t-73 167q0 87 57 166v90q-98 -118 -268 -118q-188 0 -320.5 154.5t-132.5 371.5t132.5 371.5t320.5 154.5q169 0 268 -119v99h369v-1012q-48 -6 -77.5 -24.5t-29.5 -43.5q0 -22 18.5 -34.5t49.5 -12.5
q18 0 55 9zM586 332q74 0 127 51t53 123t-53 123t-127 51t-127 -51t-53 -123t53 -123t127 -51z" />
    <glyph glyph-name="Cacute" unicode="&#x106;" horiz-adv-x="1544" 
d="M1204 1876l-272 -338h-338l180 338h430zM788 -20q-157 0 -294 56t-234 153t-153 233.5t-56 292.5q0 157 56 294t153 235t234 154t294 56q173 0 328.5 -71t256.5 -197.5t116 -278.5h-432q-22 73 -97 120.5t-172 47.5q-146 0 -241.5 -102.5t-95.5 -257.5
q0 -154 95.5 -255.5t241.5 -101.5q96 0 171.5 53.5t97.5 133.5h436q-37 -249 -234 -407t-471 -158z" />
    <glyph glyph-name="cacute" unicode="&#x107;" 
d="M1004 1454l-273 -338h-338l180 338h431zM571 -20q-149 0 -269 68t-188.5 188t-68.5 268q0 227 150 377.5t376 150.5q202 0 348.5 -124.5t161.5 -311.5h-374q-11 36 -48.5 59t-87.5 23q-72 0 -118.5 -49t-46.5 -125q0 -74 46.5 -122t118.5 -48q52 0 90.5 25.5t49.5 64.5
h372q-12 -191 -159 -317.5t-353 -126.5z" />
    <glyph glyph-name="Ccircumflex" unicode="&#x108;" horiz-adv-x="1544" 
d="M772 1653l-82 -115h-325l206 338h400l209 -338h-326zM1057 545h436q-37 -249 -234 -407t-471 -158q-157 0 -294 56t-234 153t-153 233.5t-56 292.5q0 157 56 294t153 235t234 154t294 56q173 0 328.5 -71t256.5 -197.5t116 -278.5h-432q-22 73 -97 120.5t-172 47.5
q-146 0 -241.5 -102.5t-95.5 -257.5q0 -154 95.5 -255.5t241.5 -101.5q96 0 171.5 53.5t97.5 133.5z" />
    <glyph glyph-name="ccircumflex" unicode="&#x109;" 
d="M571 1231l-82 -115h-325l207 338h399l209 -338h-326zM711 424h372q-12 -191 -159 -317.5t-353 -126.5q-149 0 -269 68t-188.5 188t-68.5 268q0 227 150 377.5t376 150.5q202 0 348.5 -124.5t161.5 -311.5h-374q-11 36 -48.5 59t-87.5 23q-72 0 -118.5 -49t-46.5 -125
q0 -74 46.5 -122t118.5 -48q52 0 90.5 25.5t49.5 64.5z" />
    <glyph glyph-name="Cdotaccent" unicode="&#x10a;" horiz-adv-x="1544" 
d="M772 1942q89 0 152 -64t63 -152t-63 -151.5t-152 -63.5q-88 0 -151.5 63.5t-63.5 151.5t63.5 152t151.5 64zM788 -20q-157 0 -294 56t-234 153t-153 233.5t-56 292.5q0 157 56 294t153 235t234 154t294 56q173 0 328.5 -71t256.5 -197.5t116 -278.5h-432
q-22 73 -97 120.5t-172 47.5q-146 0 -241.5 -102.5t-95.5 -257.5q0 -154 95.5 -255.5t241.5 -101.5q96 0 171.5 53.5t97.5 133.5h436q-37 -249 -234 -407t-471 -158z" />
    <glyph glyph-name="cdotaccent" unicode="&#x10b;" 
d="M571 1530q89 0 152 -63.5t63 -151.5t-63 -151.5t-152 -63.5q-88 0 -151.5 63.5t-63.5 151.5t63.5 151.5t151.5 63.5zM571 -20q-149 0 -269 68t-188.5 188t-68.5 268q0 227 150 377.5t376 150.5q202 0 348.5 -124.5t161.5 -311.5h-374q-11 36 -48.5 59t-87.5 23
q-72 0 -118.5 -49t-46.5 -125q0 -74 46.5 -122t118.5 -48q52 0 90.5 25.5t49.5 64.5h372q-12 -191 -159 -317.5t-353 -126.5z" />
    <glyph glyph-name="Ccaron" unicode="&#x10c;" horiz-adv-x="1544" 
d="M571 1538l-206 338h325l82 -115l82 115h326l-209 -338h-400zM1057 545h436q-37 -249 -234 -407t-471 -158q-157 0 -294 56t-234 153t-153 233.5t-56 292.5q0 157 56 294t153 235t234 154t294 56q173 0 328.5 -71t256.5 -197.5t116 -278.5h-432q-22 73 -97 120.5
t-172 47.5q-146 0 -241.5 -102.5t-95.5 -257.5q0 -154 95.5 -255.5t241.5 -101.5q96 0 171.5 53.5t97.5 133.5z" />
    <glyph glyph-name="ccaron" unicode="&#x10d;" 
d="M371 1116l-207 338h325l82 -115l82 115h326l-209 -338h-399zM711 424h372q-12 -191 -159 -317.5t-353 -126.5q-149 0 -269 68t-188.5 188t-68.5 268q0 227 150 377.5t376 150.5q202 0 348.5 -124.5t161.5 -311.5h-374q-11 36 -48.5 59t-87.5 23q-72 0 -118.5 -49
t-46.5 -125q0 -74 46.5 -122t118.5 -48q52 0 90.5 25.5t49.5 64.5z" />
    <glyph glyph-name="Dcaron" unicode="&#x10e;" horiz-adv-x="1386" 
d="M387 1538l-207 338h326l82 -115l82 115h325l-209 -338h-399zM596 1434q156 0 293 -54.5t235 -148.5t154.5 -226t56.5 -282q0 -154 -56.5 -289t-154.5 -230t-235 -149.5t-293 -54.5h-518v1434h518zM625 373q136 0 223.5 98.5t87.5 251.5q0 147 -87 242.5t-224 95.5h-158
v-688h158z" />
    <glyph glyph-name="dcaron" unicode="&#x10f;" horiz-adv-x="1628" 
d="M1262 1563h385l-117 -447h-305zM766 913v521h369v-1434h-369v98q-98 -118 -268 -118q-188 0 -320.5 154.5t-132.5 371.5t132.5 371.5t320.5 154.5q169 0 268 -119zM586 332q74 0 127 51t53 123t-53 123t-127 51t-127 -51t-53 -123t53 -123t127 -51z" />
    <glyph glyph-name="Dcroat" unicode="&#x110;" horiz-adv-x="1386" 
d="M596 1434q156 0 293 -54.5t235 -148.5t154.5 -226t56.5 -282q0 -154 -56.5 -289t-154.5 -230t-235 -149.5t-293 -54.5h-518v602h-150v242h150v590h518zM625 373q136 0 223.5 98.5t87.5 251.5q0 147 -87 242.5t-224 95.5h-158v-217h188v-242h-188v-229h158z" />
    <glyph glyph-name="dcroat" unicode="&#x111;" horiz-adv-x="1212" 
d="M1309 1321v-205h-174v-1116h-369v98q-98 -118 -268 -118q-188 0 -320.5 154.5t-132.5 371.5t132.5 371.5t320.5 154.5q169 0 268 -119v203h-184v205h184v113h369v-113h174zM586 332q74 0 127 51t53 123t-53 123t-127 51t-127 -51t-53 -123t53 -123t127 -51z" />
    <glyph glyph-name="Emacron" unicode="&#x112;" horiz-adv-x="1056" 
d="M231 1538v295h656v-295h-656zM78 1434h921v-373h-532v-152h475v-372h-475v-164h532v-373h-921v1434z" />
    <glyph glyph-name="emacron" unicode="&#x113;" 
d="M891 1411v-295h-655v295h655zM1083 537q0 -48 -8 -134h-688q20 -57 69 -88.5t117 -31.5q113 0 134 69h360q-23 -170 -154.5 -271t-328.5 -101q-148 0 -272 70t-195.5 192t-71.5 268q0 145 70 265t192.5 188.5t270.5 68.5q207 0 356 -144t149 -351zM399 635h299
q-6 45 -46 72.5t-93 27.5q-118 0 -160 -100z" />
    <glyph glyph-name="Ebreve" unicode="&#x114;" horiz-adv-x="1056" 
d="M924 1855q0 -158 -102.5 -251t-262.5 -93q-162 0 -263.5 93t-100.5 251h276q-1 -47 23.5 -75.5t64.5 -28.5q39 0 63.5 28.5t24.5 75.5h277zM78 1434h921v-373h-532v-152h475v-372h-475v-164h532v-373h-921v1434z" />
    <glyph glyph-name="ebreve" unicode="&#x115;" 
d="M563 1090q-162 0 -263.5 93t-100.5 251h276q-1 -47 23.5 -76t64.5 -29q39 0 63.5 29t24.5 76h277q0 -158 -102.5 -251t-262.5 -93zM1083 537q0 -48 -8 -134h-688q20 -57 69 -88.5t117 -31.5q113 0 134 69h360q-23 -170 -154.5 -271t-328.5 -101q-148 0 -272 70
t-195.5 192t-71.5 268q0 145 70 265t192.5 188.5t270.5 68.5q207 0 356 -144t149 -351zM399 635h299q-6 45 -46 72.5t-93 27.5q-118 0 -160 -100z" />
    <glyph glyph-name="Edotaccent" unicode="&#x116;" horiz-adv-x="1056" 
d="M559 1942q89 0 152 -64t63 -152t-63 -151.5t-152 -63.5q-88 0 -151.5 63.5t-63.5 151.5t63.5 152t151.5 64zM78 1434h921v-373h-532v-152h475v-372h-475v-164h532v-373h-921v1434z" />
    <glyph glyph-name="edotaccent" unicode="&#x117;" 
d="M563 1100q-88 0 -151.5 63.5t-63.5 151.5t63.5 151.5t151.5 63.5q89 0 152 -63.5t63 -151.5t-63 -151.5t-152 -63.5zM1083 537q0 -48 -8 -134h-688q20 -57 69 -88.5t117 -31.5q113 0 134 69h360q-23 -170 -154.5 -271t-328.5 -101q-148 0 -272 70t-195.5 192t-71.5 268
q0 145 70 265t192.5 188.5t270.5 68.5q207 0 356 -144t149 -351zM399 635h299q-6 45 -46 72.5t-93 27.5q-118 0 -160 -100z" />
    <glyph glyph-name="Eogonek" unicode="&#x118;" horiz-adv-x="1056" 
d="M999 1061h-532v-152h475v-372h-475v-164h532v-373h-122q-48 -6 -77.5 -24.5t-29.5 -43.5q0 -22 18.5 -34.5t49.5 -12.5q18 0 55 9l88 -232q-41 -23 -117 -38t-153 -15q-114 0 -187 66t-73 167q0 82 51 158h-424v1434h921v-373z" />
    <glyph glyph-name="eogonek" unicode="&#x119;" 
d="M1083 537q0 -48 -8 -134h-688q20 -57 69 -88.5t117 -31.5q113 0 134 69h360q-18 -144 -121 -243l4 -25q-71 -43 -100 -79.5t-29 -72.5q0 -22 18.5 -34.5t49.5 -12.5q17 0 55 9l88 -232q-41 -23 -117 -38t-153 -15q-114 0 -187 66t-73 167q0 73 39 140
q-211 15 -353.5 165.5t-142.5 362.5q0 145 70 265t192.5 188.5t270.5 68.5q207 0 356 -144t149 -351zM399 635h299q-6 45 -46 72.5t-93 27.5q-118 0 -160 -100z" />
    <glyph glyph-name="Ecaron" unicode="&#x11a;" horiz-adv-x="1056" 
d="M358 1538l-206 338h325l82 -115l82 115h326l-209 -338h-400zM999 1061h-532v-152h475v-372h-475v-164h532v-373h-921v1434h921v-373z" />
    <glyph glyph-name="ecaron" unicode="&#x11b;" 
d="M362 1116l-206 338h325l82 -115l82 115h326l-209 -338h-400zM1083 537q0 -48 -8 -134h-688q20 -57 69 -88.5t117 -31.5q113 0 134 69h360q-23 -170 -154.5 -271t-328.5 -101q-148 0 -272 70t-195.5 192t-71.5 268q0 145 70 265t192.5 188.5t270.5 68.5q207 0 356 -144
t149 -351zM399 635h299q-6 45 -46 72.5t-93 27.5q-118 0 -160 -100z" />
    <glyph glyph-name="Gcircumflex" unicode="&#x11c;" horiz-adv-x="1552" 
d="M776 1653l-82 -115h-325l206 338h400l209 -338h-326zM1489 842q12 -80 12 -168q0 -147 -54 -276t-148 -221t-227 -144.5t-284 -52.5q-157 0 -294 56t-234 153t-153 233.5t-56 292.5q0 157 56 294t153 235t234 154t294 56q136 0 263.5 -44t220.5 -116.5t153 -168.5
t70 -197h-440q-25 70 -99 108.5t-168 38.5q-146 0 -241.5 -102.5t-95.5 -257.5q0 -154 95.5 -255.5t241.5 -101.5q133 0 209 51t88 121h-348v312h752z" />
    <glyph glyph-name="gcircumflex" unicode="&#x11d;" horiz-adv-x="1212" 
d="M639 1231l-82 -115h-326l207 338h400l209 -338h-326zM766 1014h369v-963q0 -141 -72.5 -247t-193 -159t-269.5 -53q-40 0 -81 3t-95 13.5t-101.5 27.5t-96 47t-84.5 69.5t-61 98t-30 129.5h369q8 -43 55 -63.5t113 -20.5t122 39.5t56 99.5v100q-98 -115 -268 -115
q-124 0 -228.5 68.5t-164.5 185t-60 252.5q0 137 60 253.5t164.5 184.5t228.5 68q171 0 268 -114v96zM586 360q74 0 127 48.5t53 117.5q0 70 -53 119t-127 49t-127 -49t-53 -119q0 -69 53 -117.5t127 -48.5z" />
    <glyph glyph-name="Gbreve" unicode="&#x11e;" horiz-adv-x="1552" 
d="M776 1511q-162 0 -263.5 93t-100.5 251h276q-1 -47 23.5 -75.5t64.5 -28.5q39 0 63.5 28.5t24.5 75.5h277q0 -158 -102.5 -251t-262.5 -93zM1489 842q12 -80 12 -168q0 -147 -54 -276t-148 -221t-227 -144.5t-284 -52.5q-157 0 -294 56t-234 153t-153 233.5t-56 292.5
q0 157 56 294t153 235t234 154t294 56q136 0 263.5 -44t220.5 -116.5t153 -168.5t70 -197h-440q-25 70 -99 108.5t-168 38.5q-146 0 -241.5 -102.5t-95.5 -257.5q0 -154 95.5 -255.5t241.5 -101.5q133 0 209 51t88 121h-348v312h752z" />
    <glyph glyph-name="gbreve" unicode="&#x11f;" horiz-adv-x="1212" 
d="M639 1090q-162 0 -264 93t-101 251h277q-1 -47 23.5 -76t64.5 -29q39 0 63.5 29t24.5 76h277q0 -158 -102.5 -251t-262.5 -93zM766 1014h369v-963q0 -141 -72.5 -247t-193 -159t-269.5 -53q-40 0 -81 3t-95 13.5t-101.5 27.5t-96 47t-84.5 69.5t-61 98t-30 129.5h369
q8 -43 55 -63.5t113 -20.5t122 39.5t56 99.5v100q-98 -115 -268 -115q-124 0 -228.5 68.5t-164.5 185t-60 252.5q0 137 60 253.5t164.5 184.5t228.5 68q171 0 268 -114v96zM586 360q74 0 127 48.5t53 117.5q0 70 -53 119t-127 49t-127 -49t-53 -119q0 -69 53 -117.5
t127 -48.5z" />
    <glyph glyph-name="Gdotaccent" unicode="&#x120;" horiz-adv-x="1552" 
d="M776 1511q-88 0 -151.5 63.5t-63.5 151.5t63.5 152t151.5 64q89 0 152 -64t63 -152t-63 -151.5t-152 -63.5zM1489 842q12 -80 12 -168q0 -147 -54 -276t-148 -221t-227 -144.5t-284 -52.5q-157 0 -294 56t-234 153t-153 233.5t-56 292.5q0 157 56 294t153 235t234 154
t294 56q136 0 263.5 -44t220.5 -116.5t153 -168.5t70 -197h-440q-25 70 -99 108.5t-168 38.5q-146 0 -241.5 -102.5t-95.5 -257.5q0 -154 95.5 -255.5t241.5 -101.5q133 0 209 51t88 121h-348v312h752z" />
    <glyph glyph-name="gdotaccent" unicode="&#x121;" horiz-adv-x="1212" 
d="M639 1100q-88 0 -151.5 63.5t-63.5 151.5t63.5 151.5t151.5 63.5q89 0 152 -63.5t63 -151.5t-63 -151.5t-152 -63.5zM766 1014h369v-963q0 -141 -72.5 -247t-193 -159t-269.5 -53q-40 0 -81 3t-95 13.5t-101.5 27.5t-96 47t-84.5 69.5t-61 98t-30 129.5h369
q8 -43 55 -63.5t113 -20.5t122 39.5t56 99.5v100q-98 -115 -268 -115q-124 0 -228.5 68.5t-164.5 185t-60 252.5q0 137 60 253.5t164.5 184.5t228.5 68q171 0 268 -114v96zM586 360q74 0 127 48.5t53 117.5q0 70 -53 119t-127 49t-127 -49t-53 -119q0 -69 53 -117.5
t127 -48.5z" />
    <glyph glyph-name="uni0122" unicode="&#x122;" horiz-adv-x="1552" 
d="M1489 842q12 -80 12 -168q0 -147 -54 -276t-148 -221t-227 -144.5t-284 -52.5q-157 0 -294 56t-234 153t-153 233.5t-56 292.5q0 157 56 294t153 235t234 154t294 56q136 0 263.5 -44t220.5 -116.5t153 -168.5t70 -197h-440q-25 70 -99 108.5t-168 38.5
q-146 0 -241.5 -102.5t-95.5 -257.5q0 -154 95.5 -255.5t241.5 -101.5q133 0 209 51t88 121h-348v312h752zM385 -459l180 338h430l-272 -338h-338z" />
    <glyph glyph-name="uni0123" unicode="&#x123;" horiz-adv-x="1212" 
d="M1075 1475l-180 -338h-430l272 338h338zM766 1014h369v-963q0 -141 -72.5 -247t-193 -159t-269.5 -53q-40 0 -81 3t-95 13.5t-101.5 27.5t-96 47t-84.5 69.5t-61 98t-30 129.5h369q8 -43 55 -63.5t113 -20.5t122 39.5t56 99.5v100q-98 -115 -268 -115q-124 0 -228.5 68.5
t-164.5 185t-60 252.5q0 137 60 253.5t164.5 184.5t228.5 68q171 0 268 -114v96zM586 360q74 0 127 48.5t53 117.5q0 70 -53 119t-127 49t-127 -49t-53 -119q0 -69 53 -117.5t127 -48.5z" />
    <glyph glyph-name="Hcircumflex" unicode="&#x124;" horiz-adv-x="1431" 
d="M717 1653l-82 -115h-326l207 338h399l209 -338h-325zM965 1434h389v-1434h-389v553h-498v-553h-389v1434h389v-508h498v508z" />
    <glyph glyph-name="hcircumflex" unicode="&#x125;" horiz-adv-x="1167" 
d="M264 1653l-82 -115h-325l206 338h400l209 -338h-326zM680 1032q193 0 301.5 -123.5t108.5 -343.5v-565h-369v516q0 73 -38 117.5t-101 44.5q-62 0 -99 -44.5t-37 -117.5v-516h-368v1434h368v-523q88 121 234 121z" />
    <glyph glyph-name="Hbar" unicode="&#x126;" horiz-adv-x="1431" 
d="M1475 1346v-314h-121v-1032h-389v553h-498v-553h-389v1032h-125v314h125v88h389v-88h498v88h389v-88h121zM965 926v106h-498v-106h498z" />
    <glyph glyph-name="hbar" unicode="&#x127;" horiz-adv-x="1167" 
d="M680 1032q193 0 301.5 -123.5t108.5 -343.5v-565h-369v516q0 73 -38 117.5t-101 44.5q-62 0 -99 -44.5t-37 -117.5v-516h-368v1116h-174v205h174v113h368v-113h185v-205h-185v-205q88 121 234 121z" />
    <glyph glyph-name="Itilde" unicode="&#x128;" horiz-adv-x="544" 
d="M-213 1583q15 156 104 254t211 98q64 0 128 -25.5t108.5 -51t60.5 -25.5q26 0 43.5 24t20.5 64l295 -51q-19 -154 -110.5 -253t-209.5 -99q-53 0 -105.5 16t-86 36t-65 36t-48.5 16q-24 0 -37.5 -25t-11.5 -67zM78 1434h389v-1434h-389v1434z" />
    <glyph glyph-name="itilde" unicode="&#x129;" horiz-adv-x="524" 
d="M-223 1161q15 156 104 254t211 98q64 0 128 -25.5t108.5 -51t60.5 -25.5q26 0 43.5 24t20.5 64l295 -51q-19 -154 -110.5 -253t-209.5 -99q-53 0 -105.5 16t-86 36t-65 36t-48.5 16q-24 0 -37.5 -25t-11.5 -67zM78 1012h368v-1012h-368v1012z" />
    <glyph glyph-name="Imacron" unicode="&#x12a;" horiz-adv-x="544" 
d="M-55 1538v295h655v-295h-655zM78 1434h389v-1434h-389v1434z" />
    <glyph glyph-name="imacron" unicode="&#x12b;" horiz-adv-x="524" 
d="M-66 1116v295h656v-295h-656zM78 1012h368v-1012h-368v1012z" />
    <glyph glyph-name="Ibreve" unicode="&#x12c;" horiz-adv-x="544" 
d="M637 1855q0 -158 -102.5 -251t-262.5 -93q-162 0 -263.5 93t-100.5 251h276q-1 -47 23.5 -75.5t64.5 -28.5q39 0 63.5 28.5t24.5 75.5h277zM78 1434h389v-1434h-389v1434z" />
    <glyph glyph-name="ibreve" unicode="&#x12d;" horiz-adv-x="524" 
d="M627 1434q0 -158 -102.5 -251t-262.5 -93q-162 0 -263.5 93t-100.5 251h276q-1 -47 23.5 -76t64.5 -29q39 0 63.5 29t24.5 76h277zM78 1012h368v-1012h-368v1012z" />
    <glyph glyph-name="Iogonek" unicode="&#x12e;" horiz-adv-x="544" 
d="M483 -106l88 -232q-41 -23 -117 -38t-153 -15q-114 0 -187 66t-73 167q0 82 51 158h-14v1434h389v-1434q-48 -6 -77.5 -24.5t-29.5 -43.5q0 -22 18.5 -34.5t49.5 -12.5q18 0 55 9z" />
    <glyph glyph-name="iogonek" unicode="&#x12f;" horiz-adv-x="524" 
d="M262 1100q-88 0 -151.5 63.5t-63.5 151.5t63.5 151.5t151.5 63.5q89 0 152 -63.5t63 -151.5t-63 -151.5t-152 -63.5zM463 -106l88 -232q-41 -23 -117 -38t-153 -15q-114 0 -187.5 66t-73.5 167q0 86 58 166v1004h368v-1012q-47 -6 -76.5 -24.5t-29.5 -43.5
q0 -22 18.5 -34.5t49.5 -12.5q18 0 55 9z" />
    <glyph glyph-name="Idotaccent" unicode="&#x130;" horiz-adv-x="544" 
d="M272 1942q89 0 152 -64t63 -152t-63 -151.5t-152 -63.5q-88 0 -151.5 63.5t-63.5 151.5t63.5 152t151.5 64zM78 1434h389v-1434h-389v1434z" />
    <glyph glyph-name="dotlessi" unicode="&#x131;" horiz-adv-x="524" 
d="M78 1012h368v-1012h-368v1012z" />
    <glyph glyph-name="IJ" unicode="&#x132;" horiz-adv-x="1273" 
d="M78 1434h389v-1434h-389v1434zM606 356q14 -2 62 -2q72 0 110.5 31t38.5 111v938h389v-1049q0 -173 -122.5 -286t-295.5 -113q-113 0 -182 14v356z" />
    <glyph glyph-name="ij" unicode="&#x133;" horiz-adv-x="1048" 
d="M262 1530q89 0 152 -63.5t63 -151.5t-63 -151.5t-152 -63.5q-88 0 -151.5 63.5t-63.5 151.5t63.5 151.5t151.5 63.5zM786 1530q89 0 152 -63.5t63 -151.5t-63 -151.5t-152 -63.5q-88 0 -151.5 63.5t-63.5 151.5t63.5 151.5t151.5 63.5zM78 1012h368v-1012h-368v1012z
M465 -41q20 -4 39 -4q43 0 70.5 20t27.5 64v973h369v-1012q0 -170 -120.5 -273.5t-318.5 -103.5q-13 0 -67 4v332z" />
    <glyph glyph-name="Jcircumflex" unicode="&#x134;" horiz-adv-x="729" 
d="M463 1653l-82 -115h-326l207 338h400l208 -338h-325zM272 496v938h390v-1049q0 -173 -122.5 -286t-295.5 -113q-114 0 -183 14v356q14 -2 62 -2q72 0 110.5 31t38.5 111z" />
    <glyph glyph-name="jcircumflex" unicode="&#x135;" horiz-adv-x="524" 
d="M262 1231l-82 -115h-325l206 338h400l209 -338h-326zM78 39v973h368v-1012q0 -170 -120 -273.5t-318 -103.5q-13 0 -67 4v332q20 -4 39 -4q43 0 70.5 20t27.5 64z" />
    <glyph glyph-name="uni0136" unicode="&#x136;" horiz-adv-x="1486" 
d="M870 762l566 -762h-504l-465 655v-655h-389v1434h389v-574l438 574h488zM281 -459l180 338h430l-273 -338h-337z" />
    <glyph glyph-name="uni0137" unicode="&#x137;" horiz-adv-x="1204" 
d="M446 418v-418h-368v1434h368v-809l273 387h448l-360 -492l393 -520h-469zM209 -459l180 338h430l-272 -338h-338z" />
    <glyph glyph-name="kgreenlandic" unicode="&#x138;" horiz-adv-x="1204" 
d="M1200 0h-469l-287 446v-446h-366v1012h366v-416l275 416h448l-340 -492z" />
    <glyph glyph-name="Lacute" unicode="&#x139;" horiz-adv-x="1122" 
d="M702 1876l-272 -338h-338l180 338h430zM78 1434h389v-1061h616v-373h-1005v1434z" />
    <glyph glyph-name="lacute" unicode="&#x13a;" horiz-adv-x="524" 
d="M750 1876l-273 -338h-338l180 338h431zM446 1434v-1434h-368v1434h368z" />
    <glyph glyph-name="uni013B" unicode="&#x13b;" horiz-adv-x="1122" 
d="M78 1434h389v-1061h616v-373h-1005v1434zM737 -121l-272 -338h-338l180 338h430z" />
    <glyph glyph-name="uni013C" unicode="&#x13c;" horiz-adv-x="524" 
d="M446 1434v-1434h-368v1434h368zM520 -121l-272 -338h-338l180 338h430z" />
    <glyph glyph-name="Lcaron" unicode="&#x13d;" horiz-adv-x="1122" 
d="M616 1116l37 447h385l-116 -447h-306zM78 1434h389v-1061h616v-373h-1005v1434z" />
    <glyph glyph-name="lcaron" unicode="&#x13e;" horiz-adv-x="921" 
d="M518 1116l37 447h385l-117 -447h-305zM446 1434v-1434h-368v1434h368z" />
    <glyph glyph-name="Ldot" unicode="&#x13f;" horiz-adv-x="1144" 
d="M78 1434h389v-1061h616v-373h-1005v1434zM844 618q-95 0 -160.5 64.5t-65.5 157.5q0 92 65.5 155.5t160.5 63.5t160 -63.5t65 -155.5q0 -93 -65 -157.5t-160 -64.5z" />
    <glyph glyph-name="ldot" unicode="&#x140;" horiz-adv-x="925" 
d="M397 1434v-1434h-368v1434h368zM694 578q-95 0 -160 64t-65 157q0 92 65 155.5t160 63.5t160.5 -63.5t65.5 -155.5t-65.5 -156.5t-160.5 -64.5z" />
    <glyph glyph-name="Lslash" unicode="&#x141;" horiz-adv-x="1122" 
d="M467 373h616v-373h-1005v557l-174 -82v334l174 80v545h389v-363l274 127v-332l-274 -129v-364z" />
    <glyph glyph-name="lslash" unicode="&#x142;" horiz-adv-x="524" 
d="M553 1059v-338l-107 -49v-672h-368v500l-111 -51v339l111 52v594h368v-424z" />
    <glyph glyph-name="Nacute" unicode="&#x143;" horiz-adv-x="1325" 
d="M1100 1876l-273 -338h-338l181 338h430zM78 1434h321l459 -658v658h389v-1434h-317l-463 655v-655h-389v1434z" />
    <glyph glyph-name="nacute" unicode="&#x144;" horiz-adv-x="1167" 
d="M999 1454l-272 -338h-338l180 338h430zM680 1032q193 0 301.5 -123.5t108.5 -343.5v-565h-369v516q0 73 -38 117.5t-101 44.5q-62 0 -99 -44.5t-37 -117.5v-516h-368v1012h368v-101q88 121 234 121z" />
    <glyph glyph-name="uni0145" unicode="&#x145;" horiz-adv-x="1325" 
d="M78 1434h321l459 -658v658h389v-1434h-317l-463 655v-655h-389v1434zM920 -121l-273 -338h-338l180 338h431z" />
    <glyph glyph-name="uni0146" unicode="&#x146;" horiz-adv-x="1167" 
d="M680 1032q193 0 301.5 -123.5t108.5 -343.5v-565h-369v516q0 73 -38 117.5t-101 44.5q-62 0 -99 -44.5t-37 -117.5v-516h-368v1012h368v-101q88 121 234 121zM213 -459l180 338h430l-272 -338h-338z" />
    <glyph glyph-name="Ncaron" unicode="&#x147;" horiz-adv-x="1325" 
d="M467 1538l-207 338h326l82 -115l82 115h325l-209 -338h-399zM858 1434h389v-1434h-317l-463 655v-655h-389v1434h321l459 -658v658z" />
    <glyph glyph-name="ncaron" unicode="&#x148;" horiz-adv-x="1167" 
d="M367 1116l-207 338h325l82 -115l82 115h326l-209 -338h-399zM680 1032q193 0 301.5 -123.5t108.5 -343.5v-565h-369v516q0 73 -38 117.5t-101 44.5q-62 0 -99 -44.5t-37 -117.5v-516h-368v1012h368v-101q88 121 234 121z" />
    <glyph glyph-name="napostrophe" unicode="&#x149;" horiz-adv-x="1173" 
d="M201 1272q-47 27 -75 74.5t-28 103.5q0 86 59.5 145.5t145.5 59.5t145.5 -59.5t59.5 -145.5q0 -39 -13.5 -78.5t-52.5 -105.5l-90 -150h-233zM680 1032q193 0 301.5 -123.5t108.5 -343.5v-565h-369v516q0 73 -38 117.5t-101 44.5q-62 0 -99 -44.5t-37 -117.5v-516h-368
v1012h368v-101q88 121 234 121z" />
    <glyph glyph-name="Eng" unicode="&#x14a;" horiz-adv-x="1325" 
d="M858 1434h389v-1362q0 -173 -122.5 -286.5t-295.5 -113.5q-108 0 -182 15v356q14 -2 62 -2q113 0 139 74l-381 540v-655h-389v1434h321l459 -658v658z" />
    <glyph glyph-name="eng" unicode="&#x14b;" horiz-adv-x="1165" 
d="M680 1032q193 0 301.5 -123.5t108.5 -343.5v-565h-3q0 -170 -120 -273.5t-318 -103.5q-13 0 -67 4v332q20 -4 39 -4q43 0 70.5 20t27.5 64v205h2v272q0 73 -38 117.5t-101 44.5q-62 0 -99 -44.5t-37 -117.5v-516h-368v1012h368v-101q88 121 234 121z" />
    <glyph glyph-name="Omacron" unicode="&#x14c;" horiz-adv-x="1576" 
d="M461 1538v295h655v-295h-655zM788 1454q157 0 294 -56t234.5 -154t153.5 -235t56 -294q0 -156 -56 -292.5t-153.5 -233.5t-234.5 -153t-294 -56t-294 56t-234 153t-153 233.5t-56 292.5q0 157 56 294t153 235t234 154t294 56zM788 1075q-146 0 -241.5 -102.5
t-95.5 -257.5q0 -154 95.5 -255.5t241.5 -101.5t242 101.5t96 255.5q0 155 -96 257.5t-242 102.5z" />
    <glyph glyph-name="omacron" unicode="&#x14d;" horiz-adv-x="1150" 
d="M252 1116v295h655v-295h-655zM575 1032q225 0 378 -151t153 -377q0 -148 -70 -268.5t-191.5 -188t-269.5 -67.5q-226 0 -378 149.5t-152 374.5q0 149 69.5 270t190.5 189.5t270 68.5zM575 678q-74 0 -125 -50t-51 -124q0 -73 51 -121.5t125 -48.5q73 0 125 48.5t52 121.5
q0 74 -52 124t-125 50z" />
    <glyph glyph-name="Obreve" unicode="&#x14e;" horiz-adv-x="1576" 
d="M1153 1855q0 -158 -102.5 -251t-262.5 -93q-162 0 -263.5 93t-100.5 251h276q-1 -47 23.5 -75.5t64.5 -28.5q39 0 64 28.5t25 75.5h276zM788 1454q157 0 294 -56t234.5 -154t153.5 -235t56 -294q0 -156 -56 -292.5t-153.5 -233.5t-234.5 -153t-294 -56t-294 56t-234 153
t-153 233.5t-56 292.5q0 157 56 294t153 235t234 154t294 56zM788 1075q-146 0 -241.5 -102.5t-95.5 -257.5q0 -154 95.5 -255.5t241.5 -101.5t242 101.5t96 255.5q0 155 -96 257.5t-242 102.5z" />
    <glyph glyph-name="obreve" unicode="&#x14f;" horiz-adv-x="1150" 
d="M944 1434q0 -158 -102 -251t-262 -93q-162 0 -264 93t-101 251h277q-1 -47 23.5 -76t64.5 -29q39 0 63.5 29t24.5 76h276zM575 1032q225 0 378 -151t153 -377q0 -148 -70 -268.5t-191.5 -188t-269.5 -67.5q-226 0 -378 149.5t-152 374.5q0 149 69.5 270t190.5 189.5
t270 68.5zM575 678q-74 0 -125 -50t-51 -124q0 -73 51 -121.5t125 -48.5q73 0 125 48.5t52 121.5q0 74 -52 124t-125 50z" />
    <glyph glyph-name="Ohungarumlaut" unicode="&#x150;" horiz-adv-x="1576" 
d="M715 1538l114 338h-376l-115 -338h377zM1229 1538l117 338h-377l-117 -338h377zM788 1454q157 0 294 -56t234.5 -154t153.5 -235t56 -294q0 -156 -56 -292.5t-153.5 -233.5t-234.5 -153t-294 -56t-294 56t-234 153t-153 233.5t-56 292.5q0 157 56 294t153 235t234 154
t294 56zM788 1075q-146 0 -241.5 -102.5t-95.5 -257.5q0 -154 95.5 -255.5t241.5 -101.5t242 101.5t96 255.5q0 155 -96 257.5t-242 102.5z" />
    <glyph glyph-name="ohungarumlaut" unicode="&#x151;" horiz-adv-x="1150" 
d="M506 1116l115 338h-377l-115 -338h377zM1020 1116l117 338h-377l-117 -338h377zM575 1032q225 0 378 -151t153 -377q0 -148 -70 -268.5t-191.5 -188t-269.5 -67.5q-226 0 -378 149.5t-152 374.5q0 149 69.5 270t190.5 189.5t270 68.5zM575 678q-74 0 -125 -50t-51 -124
q0 -73 51 -121.5t125 -48.5q73 0 125 48.5t52 121.5q0 74 -52 124t-125 50z" />
    <glyph glyph-name="OE" unicode="&#x152;" horiz-adv-x="1898" 
d="M1841 1061h-532v-152h475v-372h-475v-164h532v-373h-1050q-209 0 -378 93t-265.5 258.5t-96.5 371.5q0 200 96.5 363t266 255.5t377.5 92.5h1050v-373zM920 373v688h-158q-137 0 -224 -95.5t-87 -242.5q0 -153 87.5 -251.5t223.5 -98.5h158z" />
    <glyph glyph-name="oe" unicode="&#x153;" horiz-adv-x="1830" 
d="M1778 403h-680q-1 -2 -2 -6t-2 -6q23 -51 71 -79.5t111 -28.5q112 0 133 69h360q-23 -170 -154.5 -271t-328.5 -101q-202 0 -354 129q-148 -129 -357 -129q-226 0 -378 149.5t-152 374.5q0 149 69.5 270t190.5 189.5t270 68.5q204 0 353 -127q146 127 352 127
q136 0 252 -65t185 -179t69 -251q0 -48 -8 -134zM1262 735q-118 0 -160 -100h299q-6 45 -46 72.5t-93 27.5zM575 334q65 0 114 39t61 100q-2 12 -2 37v29q-10 61 -59.5 100t-113.5 39q-74 0 -125 -50t-51 -124q0 -73 51 -121.5t125 -48.5z" />
    <glyph glyph-name="Racute" unicode="&#x154;" horiz-adv-x="1318" 
d="M973 1876l-273 -338h-338l181 338h430zM1300 0h-471l-282 508h-80v-508h-389v1434h571q121 0 229 -62t174 -169.5t66 -231.5q0 -125 -46 -222.5t-132 -158.5zM467 1059v-217h141q47 0 82 32t35 76t-35 76.5t-82 32.5h-141z" />
    <glyph glyph-name="racute" unicode="&#x155;" horiz-adv-x="823" 
d="M883 1454l-273 -338h-338l181 338h430zM446 918q92 112 250 112q39 0 97 -10v-334q-74 12 -107 12q-240 0 -240 -258v-440h-368v1012h368v-94z" />
    <glyph glyph-name="uni0156" unicode="&#x156;" horiz-adv-x="1318" 
d="M467 508v-508h-389v1434h571q121 0 229 -62t174 -169.5t66 -231.5q0 -125 -46 -222.5t-132 -158.5l360 -590h-471l-282 508h-80zM467 1059v-217h141q47 0 82 32t35 76t-35 76.5t-82 32.5h-141zM256 -459l180 338h430l-272 -338h-338z" />
    <glyph glyph-name="uni0157" unicode="&#x157;" horiz-adv-x="823" 
d="M696 1030q39 0 97 -10v-334q-74 12 -107 12q-240 0 -240 -258v-440h-368v1012h368v-94q92 112 250 112zM-92 -459l180 338h430l-272 -338h-338z" />
    <glyph glyph-name="Rcaron" unicode="&#x158;" horiz-adv-x="1318" 
d="M340 1538l-207 338h326l82 -115l82 115h325l-209 -338h-399zM1300 0h-471l-282 508h-80v-508h-389v1434h571q121 0 229 -62t174 -169.5t66 -231.5q0 -125 -46 -222.5t-132 -158.5zM467 1059v-217h141q47 0 82 32t35 76t-35 76.5t-82 32.5h-141z" />
    <glyph glyph-name="rcaron" unicode="&#x159;" horiz-adv-x="823" 
d="M250 1116l-207 338h326l82 -115l81 115h326l-209 -338h-399zM446 918q92 112 250 112q39 0 97 -10v-334q-74 12 -107 12q-240 0 -240 -258v-440h-368v1012h368v-94z" />
    <glyph glyph-name="Sacute" unicode="&#x15a;" horiz-adv-x="1218" 
d="M1016 1876l-273 -338h-337l180 338h430zM623 -20q-242 0 -401 145.5t-159 366.5h386q0 -67 47.5 -106.5t126.5 -39.5q72 0 113.5 25.5t41.5 70.5q0 26 -24 44.5t-65 31.5t-93.5 25.5t-111 28.5t-117 36.5t-111 54.5t-93.5 78.5t-65 112.5t-24 152q0 194 144.5 321
t363.5 127q111 0 202 -28t152.5 -76.5t103 -114.5t60 -139t18.5 -154h-403q2 64 -37.5 104.5t-110.5 40.5q-114 0 -114 -79q0 -28 30.5 -48t80.5 -31.5t113.5 -28t130.5 -34t130.5 -52t113.5 -80t80.5 -121t30.5 -171.5q0 -131 -69.5 -237t-193.5 -165.5t-277 -59.5z" />
    <glyph glyph-name="sacute" unicode="&#x15b;" horiz-adv-x="999" 
d="M903 1454l-272 -338h-338l180 338h430zM526 -20q-212 0 -344 100.5t-147 277.5h332q3 -35 42.5 -59.5t92.5 -24.5q98 0 98 45q0 24 -30 37.5t-78.5 20t-106.5 13.5t-116.5 26t-107 49.5t-78.5 90t-30 142.5q0 139 113.5 235.5t304.5 96.5q119 0 218 -39t166 -121t79 -196
h-352q-2 28 -33.5 48.5t-73.5 20.5q-86 0 -86 -45q0 -21 23.5 -31.5t62.5 -13t88.5 -7.5t101 -11t101 -27.5t88.5 -54.5t62.5 -93.5t23.5 -142.5q0 -141 -120 -239t-294 -98z" />
    <glyph glyph-name="Scircumflex" unicode="&#x15c;" horiz-adv-x="1218" 
d="M584 1653l-82 -115h-326l207 338h399l209 -338h-325zM453 1008q0 -28 30.5 -48t80.5 -31.5t113.5 -28t130.5 -34t130.5 -52t113.5 -80t80.5 -121t30.5 -171.5q0 -131 -69.5 -237t-193.5 -165.5t-277 -59.5q-242 0 -401 145.5t-159 366.5h386q0 -67 47.5 -106.5
t126.5 -39.5q72 0 113.5 25.5t41.5 70.5q0 26 -24 44.5t-65 31.5t-93.5 25.5t-111 28.5t-117 36.5t-111 54.5t-93.5 78.5t-65 112.5t-24 152q0 194 144.5 321t363.5 127q111 0 202 -28t152.5 -76.5t103 -114.5t60 -139t18.5 -154h-403q2 64 -37.5 104.5t-110.5 40.5
q-114 0 -114 -79z" />
    <glyph glyph-name="scircumflex" unicode="&#x15d;" horiz-adv-x="999" 
d="M471 1231l-82 -115h-326l207 338h400l209 -338h-326zM389 698q0 -21 23.5 -31.5t62.5 -13t88.5 -7.5t101 -11t101 -27.5t88.5 -54.5t62.5 -93.5t23.5 -142.5q0 -141 -120 -239t-294 -98q-212 0 -344 100.5t-147 277.5h332q3 -35 42.5 -59.5t92.5 -24.5q98 0 98 45
q0 24 -30 37.5t-78.5 20t-106.5 13.5t-116.5 26t-107 49.5t-78.5 90t-30 142.5q0 139 113.5 235.5t304.5 96.5q119 0 218 -39t166 -121t79 -196h-352q-2 28 -33.5 48.5t-73.5 20.5q-86 0 -86 -45z" />
    <glyph glyph-name="Scedilla" unicode="&#x15e;" horiz-adv-x="1218" 
d="M1163 442q0 -169 -113.5 -292.5t-297.5 -157.5q62 -90 65.5 -178.5t-42 -152t-141.5 -97t-222 -19.5l-84 260q83 -5 135 9t68 42t7.5 62.5t-40.5 73.5q-194 36 -314.5 173t-120.5 327h386q0 -67 47.5 -106.5t126.5 -39.5q72 0 113.5 25.5t41.5 70.5q0 26 -24 44.5
t-65 31.5t-93.5 25.5t-111 28.5t-117 36.5t-111 54.5t-93.5 78.5t-65 112.5t-24 152q0 194 144.5 321t363.5 127q111 0 202 -28t152.5 -76.5t103 -114.5t60 -139t18.5 -154h-403q2 64 -37.5 104.5t-110.5 40.5q-114 0 -114 -79q0 -28 30.5 -48t80.5 -31.5t113.5 -28
t130.5 -34t130.5 -52t113.5 -80t80.5 -121t30.5 -171.5z" />
    <glyph glyph-name="scedilla" unicode="&#x15f;" horiz-adv-x="999" 
d="M940 317q0 -116 -83.5 -205.5t-215.5 -119.5q62 -90 65.5 -178.5t-42 -152t-141.5 -97t-222 -19.5l-84 260q83 -5 135 9t67.5 41.5t6.5 62.5t-41 74q-154 31 -246 126t-104 240h332q3 -35 42.5 -59.5t92.5 -24.5q98 0 98 45q0 24 -30 37.5t-78.5 20t-106.5 13.5
t-116.5 26t-107 49.5t-78.5 90t-30 142.5q0 139 113.5 235.5t304.5 96.5q119 0 218 -39t166 -121t79 -196h-352q-2 28 -33.5 48.5t-73.5 20.5q-86 0 -86 -45q0 -21 23.5 -31.5t62.5 -13t88.5 -7.5t101 -11t101 -27.5t88.5 -54.5t62.5 -93.5t23.5 -142.5z" />
    <glyph glyph-name="Scaron" unicode="&#x160;" horiz-adv-x="1218" 
d="M383 1538l-207 338h326l82 -115l82 115h325l-209 -338h-399zM453 1008q0 -28 30.5 -48t80.5 -31.5t113.5 -28t130.5 -34t130.5 -52t113.5 -80t80.5 -121t30.5 -171.5q0 -131 -69.5 -237t-193.5 -165.5t-277 -59.5q-242 0 -401 145.5t-159 366.5h386q0 -67 47.5 -106.5
t126.5 -39.5q72 0 113.5 25.5t41.5 70.5q0 26 -24 44.5t-65 31.5t-93.5 25.5t-111 28.5t-117 36.5t-111 54.5t-93.5 78.5t-65 112.5t-24 152q0 194 144.5 321t363.5 127q111 0 202 -28t152.5 -76.5t103 -114.5t60 -139t18.5 -154h-403q2 64 -37.5 104.5t-110.5 40.5
q-114 0 -114 -79z" />
    <glyph glyph-name="scaron" unicode="&#x161;" horiz-adv-x="999" 
d="M270 1116l-207 338h326l82 -115l82 115h326l-209 -338h-400zM389 698q0 -21 23.5 -31.5t62.5 -13t88.5 -7.5t101 -11t101 -27.5t88.5 -54.5t62.5 -93.5t23.5 -142.5q0 -141 -120 -239t-294 -98q-212 0 -344 100.5t-147 277.5h332q3 -35 42.5 -59.5t92.5 -24.5q98 0 98 45
q0 24 -30 37.5t-78.5 20t-106.5 13.5t-116.5 26t-107 49.5t-78.5 90t-30 142.5q0 139 113.5 235.5t304.5 96.5q119 0 218 -39t166 -121t79 -196h-352q-2 28 -33.5 48.5t-73.5 20.5q-86 0 -86 -45z" />
    <glyph glyph-name="uni0162" unicode="&#x162;" horiz-adv-x="1232" 
d="M1202 1061h-389v-1036q60 -75 81 -152t0.5 -140t-70.5 -110.5t-135.5 -68.5t-190.5 -9l-84 260q86 -6 138 9t66.5 44t3 66t-46.5 76h-151v1061h-389v373h1167v-373z" />
    <glyph glyph-name="uni0163" unicode="&#x163;" horiz-adv-x="845" 
d="M793 659h-230v-200q0 -60 44 -93.5t110 -33.5q45 0 76 8v-340q-47 -11 -88 -14q59 -90 61 -177t-44.5 -150t-142 -95.5t-219.5 -18.5l-84 260q81 -5 132 7.5t68 38t11.5 59t-33 70t-71.5 71.5q-89 60 -138.5 163t-49.5 239v206h-181v353h181v256h368v-256h230v-353z" />
    <glyph glyph-name="Tcaron" unicode="&#x164;" horiz-adv-x="1236" 
d="M418 1538l-207 338h326l81 -115l82 115h326l-209 -338h-399zM1202 1434v-373h-389v-1061h-389v1061h-389v373h1167z" />
    <glyph glyph-name="tcaron" unicode="&#x165;" horiz-adv-x="845" 
d="M653 1563h385l-116 -447h-306zM563 1268v-256h230v-353h-230v-200q0 -60 44 -93.5t110 -33.5q45 0 76 8v-340q-67 -18 -164 -18q-194 0 -314 127.5t-120 343.5v206h-181v353h181v256h368z" />
    <glyph glyph-name="Tbar" unicode="&#x166;" horiz-adv-x="1236" 
d="M1202 1061h-389v-223h168v-242h-168v-596h-389v596h-170v242h170v223h-389v373h1167v-373z" />
    <glyph glyph-name="tbar" unicode="&#x167;" horiz-adv-x="845" 
d="M793 659h-230v-67h178v-182h-168q15 -37 54 -57.5t90 -20.5q45 0 76 8v-340q-67 -18 -164 -18q-185 0 -302.5 115t-129.5 313h-183v182h181v67h-181v353h181v256h368v-256h230v-353z" />
    <glyph glyph-name="Utilde" unicode="&#x168;" horiz-adv-x="1318" 
d="M174 1583q15 156 104 254t211 98q64 0 128 -25.5t108.5 -51t60.5 -25.5q26 0 43.5 24t20.5 64l295 -51q-19 -154 -110.5 -253t-209.5 -99q-53 0 -105.5 16t-86 36t-65 36t-48.5 16q-24 0 -37.5 -25t-11.5 -67zM659 -18q-123 0 -231 44t-185 121t-121 185.5t-44 232.5v869
h389v-869q0 -88 55 -146.5t137 -58.5q83 0 138 58.5t55 146.5v869h389v-869q0 -166 -75.5 -299.5t-208.5 -208.5t-298 -75z" />
    <glyph glyph-name="utilde" unicode="&#x169;" horiz-adv-x="1167" 
d="M436 1200q-24 0 -37.5 -25t-11.5 -67l-297 53q15 156 104.5 254t211.5 98q64 0 128 -25.5t108 -51t60 -25.5q26 0 43.5 24t20.5 64l295 -51q-19 -154 -110.5 -253t-209.5 -99q-53 0 -105.5 16t-86 36t-65 36t-48.5 16zM721 1012h369v-1012h-369v100q-88 -120 -234 -120
q-193 0 -301 123t-108 343v566h368v-516q0 -73 38.5 -117.5t101.5 -44.5q61 0 98 44t37 118v516z" />
    <glyph glyph-name="Umacron" unicode="&#x16a;" horiz-adv-x="1318" 
d="M332 1538v295h655v-295h-655zM659 -18q-123 0 -231 44t-185 121t-121 185.5t-44 232.5v869h389v-869q0 -88 55 -146.5t137 -58.5q83 0 138 58.5t55 146.5v869h389v-869q0 -166 -75.5 -299.5t-208.5 -208.5t-298 -75z" />
    <glyph glyph-name="umacron" unicode="&#x16b;" horiz-adv-x="1167" 
d="M903 1411v-295h-655v295h655zM721 1012h369v-1012h-369v100q-88 -120 -234 -120q-193 0 -301 123t-108 343v566h368v-516q0 -73 38.5 -117.5t101.5 -44.5q61 0 98 44t37 118v516z" />
    <glyph glyph-name="Ubreve" unicode="&#x16c;" horiz-adv-x="1318" 
d="M1024 1855q0 -158 -102.5 -251t-262.5 -93q-162 0 -263.5 93t-100.5 251h276q-1 -47 23.5 -75.5t64.5 -28.5q39 0 64 28.5t25 75.5h276zM659 -18q-123 0 -231 44t-185 121t-121 185.5t-44 232.5v869h389v-869q0 -88 55 -146.5t137 -58.5q83 0 138 58.5t55 146.5v869h389
v-869q0 -166 -75.5 -299.5t-208.5 -208.5t-298 -75z" />
    <glyph glyph-name="ubreve" unicode="&#x16d;" horiz-adv-x="1167" 
d="M575 1090q-162 0 -263.5 93t-100.5 251h276q-1 -47 23.5 -76t64.5 -29q39 0 64 29t25 76h276q0 -158 -102.5 -251t-262.5 -93zM721 1012h369v-1012h-369v100q-88 -120 -234 -120q-193 0 -301 123t-108 343v566h368v-516q0 -73 38.5 -117.5t101.5 -44.5q61 0 98 44t37 118
v516z" />
    <glyph glyph-name="Uring" unicode="&#x16e;" horiz-adv-x="1318" 
d="M659 1522q-133 0 -225 89t-92 218q0 130 91.5 219.5t225.5 89.5q135 0 228.5 -89.5t93.5 -219.5q0 -129 -93.5 -218t-228.5 -89zM659 1731q43 0 73 28.5t30 69.5t-30 70.5t-73 29.5q-41 0 -69.5 -29.5t-28.5 -70.5t28.5 -69.5t69.5 -28.5zM659 -18q-123 0 -231 44
t-185 121t-121 185.5t-44 232.5v869h389v-869q0 -88 55 -146.5t137 -58.5q83 0 138 58.5t55 146.5v869h389v-869q0 -166 -75.5 -299.5t-208.5 -208.5t-298 -75z" />
    <glyph glyph-name="uring" unicode="&#x16f;" horiz-adv-x="1167" 
d="M575 1100q-133 0 -225 89t-92 218q0 130 91.5 219.5t225.5 89.5q135 0 228.5 -89.5t93.5 -219.5q0 -129 -93.5 -218t-228.5 -89zM575 1507q-41 0 -69.5 -29.5t-28.5 -70.5t28.5 -69.5t69.5 -28.5q43 0 73 28.5t30 69.5t-30 70.5t-73 29.5zM721 1012h369v-1012h-369v100
q-88 -120 -234 -120q-193 0 -301 123t-108 343v566h368v-516q0 -73 38.5 -117.5t101.5 -44.5q61 0 98 44t37 118v516z" />
    <glyph glyph-name="Uhungarumlaut" unicode="&#x170;" horiz-adv-x="1318" 
d="M586 1538l114 338h-376l-115 -338h377zM1100 1538l117 338h-377l-117 -338h377zM659 -18q-123 0 -231 44t-185 121t-121 185.5t-44 232.5v869h389v-869q0 -88 55 -146.5t137 -58.5q83 0 138 58.5t55 146.5v869h389v-869q0 -166 -75.5 -299.5t-208.5 -208.5t-298 -75z" />
    <glyph glyph-name="uhungarumlaut" unicode="&#x171;" horiz-adv-x="1167" 
d="M616 1454l-114 -338h-377l115 338h376zM1133 1454l-117 -338h-377l117 338h377zM721 496v516h369v-1012h-369v100q-88 -120 -234 -120q-193 0 -301 123t-108 343v566h368v-516q0 -73 38.5 -117.5t101.5 -44.5q61 0 98 44t37 118z" />
    <glyph glyph-name="Uogonek" unicode="&#x172;" horiz-adv-x="1318" 
d="M852 1434h389v-869q0 -226 -135 -385.5t-350 -191.5q-58 -20 -58 -56q0 -22 18.5 -34.5t49.5 -12.5q18 0 55 9l88 -232q-41 -23 -117 -38t-153 -15q-114 0 -187 66t-73 167q0 92 65 176q-166 62 -266 209t-100 338v869h389v-869q0 -88 55 -146.5t137 -58.5q83 0 138 58.5
t55 146.5v869z" />
    <glyph glyph-name="uogonek" unicode="&#x173;" horiz-adv-x="1167" 
d="M1104 -106l88 -232q-41 -23 -117 -38t-153 -15q-114 0 -187 66t-73 167q0 91 59 168v90q-88 -120 -234 -120q-193 0 -301 123t-108 343v566h368v-516q0 -73 38.5 -117.5t101.5 -44.5q61 0 98 44t37 118v516h369v-1012h-3q-47 -6 -76.5 -24.5t-29.5 -43.5
q0 -22 18.5 -34.5t49.5 -12.5q17 0 55 9z" />
    <glyph glyph-name="Wcircumflex" unicode="&#x174;" horiz-adv-x="2074" 
d="M1036 1653l-82 -115h-325l207 338h399l209 -338h-326zM1661 1436h407l-473 -1436h-307l-252 768l-245 -768h-310l-475 1436h414l223 -768l244 768h307l246 -770z" />
    <glyph glyph-name="wcircumflex" unicode="&#x175;" horiz-adv-x="1619" 
d="M811 1231l-82 -115h-326l207 338h400l209 -338h-326zM1217 1012h397l-363 -1012h-284l-158 418l-162 -418h-280l-361 1012h395l111 -420l154 420h284l158 -420z" />
    <glyph glyph-name="Ycircumflex" unicode="&#x176;" horiz-adv-x="1464" 
d="M735 1653l-82 -115h-325l207 338h399l209 -338h-326zM1004 1434h454l-526 -848v-586h-389v586l-537 848h473l262 -455z" />
    <glyph glyph-name="ycircumflex" unicode="&#x177;" horiz-adv-x="1134" 
d="M588 1231l-82 -115h-326l207 338h399l209 -338h-325zM731 1012h397l-548 -1319h-398l195 426l-371 893h395l166 -461z" />
    <glyph glyph-name="Ydieresis" unicode="&#x178;" horiz-adv-x="1464" 
d="M487 1942q89 0 152 -64t63 -152t-63 -151.5t-152 -63.5q-88 0 -151.5 63.5t-63.5 151.5t63.5 152t151.5 64zM983 1942q89 0 152 -64t63 -152t-63 -151.5t-152 -63.5q-88 0 -151.5 63.5t-63.5 151.5t63.5 152t151.5 64zM6 1434h473l262 -455l263 455h454l-526 -848v-586
h-389v586z" />
    <glyph glyph-name="Zacute" unicode="&#x179;" horiz-adv-x="1241" 
d="M1047 1876l-273 -338h-338l180 338h431zM82 1434h1096v-258l-598 -803h604v-373h-1137v258l598 803h-563v373z" />
    <glyph glyph-name="zacute" unicode="&#x17a;" horiz-adv-x="1036" 
d="M938 1454l-272 -338h-338l180 338h430zM967 1012v-260l-389 -398h397v-354h-940v258l393 401h-358v353h897z" />
    <glyph glyph-name="Zdotaccent" unicode="&#x17b;" horiz-adv-x="1241" 
d="M614 1942q89 0 152 -64t63 -152t-63 -151.5t-152 -63.5q-88 0 -151.5 63.5t-63.5 151.5t63.5 152t151.5 64zM82 1434h1096v-258l-598 -803h604v-373h-1137v258l598 803h-563v373z" />
    <glyph glyph-name="zdotaccent" unicode="&#x17c;" horiz-adv-x="1036" 
d="M506 1530q89 0 152 -63.5t63 -151.5t-63 -151.5t-152 -63.5q-88 0 -151.5 63.5t-63.5 151.5t63.5 151.5t151.5 63.5zM967 1012v-260l-389 -398h397v-354h-940v258l393 401h-358v353h897z" />
    <glyph glyph-name="Zcaron" unicode="&#x17d;" horiz-adv-x="1241" 
d="M414 1538l-207 338h325l82 -115l82 115h326l-209 -338h-399zM580 373h604v-373h-1137v258l598 803h-563v373h1096v-258z" />
    <glyph glyph-name="zcaron" unicode="&#x17e;" horiz-adv-x="1036" 
d="M305 1116l-207 338h326l82 -115l82 115h325l-208 -338h-400zM578 354h397v-354h-940v258l393 401h-358v353h897v-260z" />
    <glyph glyph-name="longs" unicode="&#x17f;" horiz-adv-x="798" 
d="M666 1499q96 0 163 -18v-340q-31 8 -75 8q-66 0 -110 -33.5t-44 -93.5v-1022h-369v659h-180v353h180v16q0 216 120.5 343.5t314.5 127.5z" />
    <glyph glyph-name="uni0180" unicode="&#x180;" horiz-adv-x="1212" 
d="M715 1032q188 0 320 -154.5t132 -371.5t-132 -371.5t-320 -154.5q-171 0 -269 118v-98h-368v1085h-180v242h180v107h368v-107h179v-242h-179v-172q99 119 269 119zM627 332q74 0 127 51t53 123t-53 123t-127 51t-127.5 -51t-53.5 -123t53.5 -123t127.5 -51z" />
    <glyph glyph-name="florin" unicode="&#x192;" horiz-adv-x="819" 
d="M692 1149q-66 0 -109.5 -33t-43.5 -94v-10h229v-353h-229v-516q0 -216 -120.5 -343.5t-314.5 -127.5q-92 0 -163 19v340q31 -8 75 -8q66 0 110 33.5t44 93.5v509h-180v353h180v16q0 216 120 343.5t314 127.5q96 0 164 -18v-340q-31 8 -76 8z" />
    <glyph glyph-name="uni01EA" unicode="&#x1ea;" horiz-adv-x="1576" 
d="M887 -14q-23 -9 -36 -24t-13 -30q0 -22 18 -34.5t49 -12.5q19 0 56 9l88 -232q-41 -23 -117.5 -38t-153.5 -15q-114 0 -187 66t-73 167q0 87 57 166q-236 65 -380 257t-144 450q0 157 56 294t153 235t234 154t294 56t294 -56t234.5 -154t153.5 -235t56 -294
q0 -192 -81.5 -351t-227 -258t-330.5 -120zM451 715q0 -154 95.5 -255.5t241.5 -101.5t242 101.5t96 255.5q0 155 -96 257.5t-242 102.5t-241.5 -102.5t-95.5 -257.5z" />
    <glyph glyph-name="uni01EB" unicode="&#x1eb;" horiz-adv-x="1150" 
d="M666 -14q-52 -20 -52 -54q0 -22 18.5 -34.5t49.5 -12.5q18 0 55 9l88 -232q-41 -23 -117 -38t-153 -15q-114 0 -187 66t-73 167q0 95 67 178q-144 59 -230.5 189t-86.5 295q0 149 69.5 270t190.5 189.5t270 68.5q225 0 378 -151t153 -377q0 -200 -123.5 -343.5
t-316.5 -174.5zM575 678q-74 0 -125 -50t-51 -124q0 -73 51 -121.5t125 -48.5q73 0 125 48.5t52 121.5q0 74 -52 124t-125 50z" />
    <glyph glyph-name="Aringacute" unicode="&#x1fa;" horiz-adv-x="1449" 
d="M727 1522q-133 0 -225 89t-92 218q0 82 37.5 150t103.5 110l178 332h430l-264 -328q71 -41 112.5 -110.5t41.5 -153.5q0 -129 -93.5 -218t-228.5 -89zM727 1731q43 0 72.5 28.5t29.5 69.5t-29.5 70.5t-72.5 29.5q-41 0 -69.5 -29.5t-28.5 -70.5t28.5 -69.5t69.5 -28.5z
M1024 0l-66 176h-477l-65 -176h-412l565 1434h308l569 -1434h-422zM606 508h232l-115 309z" />
    <glyph glyph-name="aringacute" unicode="&#x1fb;" horiz-adv-x="1212" 
d="M672 1100q-134 0 -226 89t-92 218q0 82 38 150t104 110l178 332h430l-264 -328q70 -41 111.5 -110t41.5 -154q0 -129 -93 -218t-228 -89zM672 1309q43 0 72.5 28.5t29.5 69.5t-29.5 70.5t-72.5 29.5q-41 0 -70 -29.5t-29 -70.5t29 -69.5t70 -28.5zM766 1012h369v-1012
h-369v98q-98 -118 -268 -118q-188 0 -320.5 154.5t-132.5 371.5t132.5 371.5t320.5 154.5q169 0 268 -119v99zM586 332q74 0 127 51t53 123t-53 123t-127 51t-127 -51t-53 -123t53 -123t127 -51z" />
    <glyph glyph-name="AEacute" unicode="&#x1fc;" horiz-adv-x="1949" 
d="M1694 1876l-273 -338h-338l181 338h430zM1892 1061h-522v-152h467v-372h-467v-164h522v-373h-903v262h-416l-129 -262h-440l760 1434h1128v-373zM745 608h244v492z" />
    <glyph glyph-name="aeacute" unicode="&#x1fd;" horiz-adv-x="1961" 
d="M1413 1454l-272 -338h-338l180 338h430zM1917 549q0 -63 -12 -139h-662q45 -119 199 -119q45 0 92.5 20t62.5 47l289 -176q-46 -83 -167.5 -142.5t-245.5 -59.5q-226 0 -338 124v-104h-369v98q-98 -118 -268 -118q-188 0 -320.5 154.5t-132.5 371.5t132.5 371.5
t320.5 154.5q169 0 268 -119v99h369v-103q114 123 331 123q186 0 318.5 -142t132.5 -341zM1239 631h313q-10 44 -53 74t-94 30q-135 0 -166 -104zM586 332q74 0 127 51t53 123t-53 123t-127 51t-127 -51t-53 -123t53 -123t127 -51z" />
    <glyph glyph-name="uni0218" unicode="&#x218;" horiz-adv-x="1218" 
d="M623 -20q-242 0 -401 145.5t-159 366.5h386q0 -67 47.5 -106.5t126.5 -39.5q72 0 113.5 25.5t41.5 70.5q0 26 -24 44.5t-65 31.5t-93.5 25.5t-111 28.5t-117 36.5t-111 54.5t-93.5 78.5t-65 112.5t-24 152q0 194 144.5 321t363.5 127q111 0 202 -28t152.5 -76.5
t103 -114.5t60 -139t18.5 -154h-403q2 64 -37.5 104.5t-110.5 40.5q-114 0 -114 -79q0 -28 30.5 -48t80.5 -31.5t113.5 -28t130.5 -34t130.5 -52t113.5 -80t80.5 -121t30.5 -171.5q0 -131 -69.5 -237t-193.5 -165.5t-277 -59.5zM866 -121l-272 -338h-338l180 338h430z" />
    <glyph glyph-name="uni0219" unicode="&#x219;" horiz-adv-x="999" 
d="M526 -20q-212 0 -344 100.5t-147 277.5h332q3 -35 42.5 -59.5t92.5 -24.5q98 0 98 45q0 24 -30 37.5t-78.5 20t-106.5 13.5t-116.5 26t-107 49.5t-78.5 90t-30 142.5q0 139 113.5 235.5t304.5 96.5q119 0 218 -39t166 -121t79 -196h-352q-2 28 -33.5 48.5t-73.5 20.5
q-86 0 -86 -45q0 -21 23.5 -31.5t62.5 -13t88.5 -7.5t101 -11t101 -27.5t88.5 -54.5t62.5 -93.5t23.5 -142.5q0 -141 -120 -239t-294 -98zM756 -121l-273 -338h-338l181 338h430z" />
    <glyph glyph-name="uni021A" unicode="&#x21a;" horiz-adv-x="1236" 
d="M1202 1434v-373h-389v-1061h-389v1061h-389v373h1167zM266 -459l180 338h431l-273 -338h-338z" />
    <glyph glyph-name="uni021B" unicode="&#x21b;" horiz-adv-x="845" 
d="M629 -18q-194 0 -314 127.5t-120 343.5v206h-181v353h181v256h368v-256h230v-353h-230v-200q0 -60 44 -93.5t110 -33.5q45 0 76 8v-340q-67 -18 -164 -18zM385 -121h430l-272 -338h-338z" />
    <glyph glyph-name="uni0237" unicode="&#x237;" horiz-adv-x="524" 
d="M-59 -41q20 -4 39 -4q43 0 70.5 20t27.5 64v973h368v-1012q0 -170 -120 -273.5t-318 -103.5q-13 0 -67 4v332z" />
    <glyph glyph-name="uni0243" unicode="&#x243;" horiz-adv-x="1204" 
d="M936 758q104 -30 168.5 -122.5t64.5 -217.5q0 -116 -64.5 -213t-172 -151t-232.5 -54h-622v352h-168v242h168v840h561q128 0 236.5 -54t170.5 -145t62 -195q0 -88 -48.5 -167.5t-123.5 -114.5zM467 1061v-176h154q40 0 68 25.5t28 62.5t-28 62.5t-68 25.5h-154zM666 373
q44 0 76 32t32 76t-30.5 76.5t-73.5 32.5h-203v-217h199z" />
    <glyph glyph-name="circumflex" unicode="&#x2c6;" horiz-adv-x="1019" 
d="M918 1116h-326l-82 115l-82 -115h-326l207 338h400z" />
    <glyph glyph-name="caron" unicode="&#x2c7;" horiz-adv-x="1019" 
d="M592 1454h326l-209 -338h-400l-207 338h326l82 -115z" />
    <glyph glyph-name="breve" unicode="&#x2d8;" horiz-adv-x="933" 
d="M831 1434q0 -158 -102 -251t-262 -93q-162 0 -264 93t-101 251h277q-1 -47 23.5 -76t64.5 -29q39 0 63.5 29t24.5 76h276z" />
    <glyph glyph-name="dotaccent" unicode="&#x2d9;" horiz-adv-x="634" 
d="M317 1530q89 0 152 -63.5t63 -151.5t-63 -151.5t-152 -63.5q-88 0 -151.5 63.5t-63.5 151.5t63.5 151.5t151.5 63.5z" />
    <glyph glyph-name="ring" unicode="&#x2da;" horiz-adv-x="843" 
d="M420 1100q-134 0 -226 89t-92 218q0 130 92 219.5t226 89.5q135 0 228 -89.5t93 -219.5q0 -129 -93 -218t-228 -89zM420 1309q43 0 72.5 28.5t29.5 69.5t-29.5 70.5t-72.5 29.5q-41 0 -69.5 -29.5t-28.5 -70.5t28.5 -69.5t69.5 -28.5z" />
    <glyph glyph-name="ogonek" unicode="&#x2db;" horiz-adv-x="735" 
d="M528 209v-209q-47 -6 -76.5 -24.5t-29.5 -43.5q0 -22 18 -34.5t49 -12.5q18 0 56 9l88 -232q-41 -23 -117.5 -38t-153.5 -15q-114 0 -187 66t-73 167q0 130 120 233t306 134z" />
    <glyph glyph-name="tilde" unicode="&#x2dc;" horiz-adv-x="1175" 
d="M102 1161q15 156 104.5 254t211.5 98q64 0 128 -25.5t108.5 -51t60.5 -25.5q26 0 43 24t20 64l295 -51q-19 -154 -110 -253t-209 -99q-53 0 -105.5 16t-86 36t-65 36t-48.5 16q-25 0 -38.5 -25t-11.5 -67z" />
    <glyph glyph-name="hungarumlaut" unicode="&#x2dd;" horiz-adv-x="1212" 
d="M479 1116l115 338h-377l-115 -338h377zM993 1116l117 338h-377l-117 -338h377z" />
    <glyph glyph-name="gravecomb" unicode="&#x300;" horiz-adv-x="0" 
d="M-778 1454h430l180 -338h-338z" />
    <glyph glyph-name="acutecomb" unicode="&#x301;" horiz-adv-x="0" 
d="M-203 1454l-272 -338h-338l180 338h430z" />
    <glyph glyph-name="uni0302" unicode="&#x302;" horiz-adv-x="0" 
d="M-88 1116h-326l-82 115l-82 -115h-325l207 338h399z" />
    <glyph glyph-name="tildecomb" unicode="&#x303;" horiz-adv-x="0" 
d="M-1141 1161q15 156 104.5 254t211.5 98q64 0 128 -25.5t108.5 -51t60.5 -25.5q26 0 43 24t20 64l295 -51q-19 -154 -110 -253t-209 -99q-53 0 -106 16t-86 36t-65 36t-49 16q-24 0 -37.5 -25t-11.5 -67z" />
    <glyph glyph-name="uni0304" unicode="&#x304;" horiz-adv-x="0" 
d="M-868 1116v295h655v-295h-655z" />
    <glyph glyph-name="uni0306" unicode="&#x306;" horiz-adv-x="0" 
d="M-154 1434q0 -158 -102 -251t-262 -93q-162 0 -264 93t-101 251h277q-1 -47 23.5 -76t64.5 -29q39 0 63.5 29t24.5 76h276z" />
    <glyph glyph-name="uni0307" unicode="&#x307;" horiz-adv-x="0" 
d="M-465 1530q89 0 152 -63.5t63 -151.5t-63 -151.5t-152 -63.5q-88 0 -151.5 63.5t-63.5 151.5t63.5 151.5t151.5 63.5z" />
    <glyph glyph-name="uni0308" unicode="&#x308;" horiz-adv-x="0" 
d="M-791 1530q89 0 152.5 -63.5t63.5 -151.5t-63.5 -151.5t-152.5 -63.5q-88 0 -151.5 63.5t-63.5 151.5t63.5 151.5t151.5 63.5zM-295 1530q89 0 152 -63.5t63 -151.5t-63 -151.5t-152 -63.5q-88 0 -151.5 63.5t-63.5 151.5t63.5 151.5t151.5 63.5z" />
    <glyph glyph-name="uni030A" unicode="&#x30a;" horiz-adv-x="0" 
d="M-567 1100q-134 0 -226 89t-92 218q0 130 92 219.5t226 89.5q135 0 228 -89.5t93 -219.5q0 -129 -93 -218t-228 -89zM-567 1309q43 0 72.5 28.5t29.5 69.5t-29.5 70.5t-72.5 29.5q-41 0 -70 -29.5t-29 -70.5t29 -69.5t70 -28.5z" />
    <glyph glyph-name="uni030B" unicode="&#x30b;" horiz-adv-x="0" 
d="M-659 1116l114 338h-377l-114 -338h377zM-145 1116l116 338h-377l-116 -338h377z" />
    <glyph glyph-name="uni030C" unicode="&#x30c;" horiz-adv-x="0" 
d="M-459 1454h326l-209 -338h-399l-207 338h325l82 -115z" />
    <glyph glyph-name="uni0312" unicode="&#x312;" horiz-adv-x="0" 
d="M-543 1137l273 338h338l-181 -338h-430z" />
    <glyph glyph-name="uni0326" unicode="&#x326;" horiz-adv-x="0" 
d="M-80 -121l-272 -338h-338l180 338h430z" />
    <glyph glyph-name="uni0327" unicode="&#x327;" horiz-adv-x="0" 
d="M-524 57h272q60 -65 90.5 -133t29.5 -127.5t-29.5 -111t-80 -86t-128.5 -49.5t-169 -5l-84 260q82 -5 133.5 8.5t68 39.5t10 60.5t-36.5 71.5t-76 72z" />
    <glyph glyph-name="uni0328" unicode="&#x328;" horiz-adv-x="0" 
d="M-471 209v-209q-48 -6 -77.5 -24.5t-29.5 -43.5q0 -22 18.5 -34.5t49.5 -12.5q17 0 55 9l88 -232q-41 -23 -117 -38t-153 -15q-114 0 -187 66t-73 167q0 130 120 233t306 134z" />
    <glyph glyph-name="uni0394" unicode="&#x394;" horiz-adv-x="1210" 
d="M4 0v373l447 1061h307l448 -1061v-373h-1202zM414 373h377l-187 485z" />
    <glyph glyph-name="uni0394" unicode="&#x3b4;" horiz-adv-x="1210" 
d="M4 0v373l447 1061h307l448 -1061v-373h-1202zM414 373h377l-187 485z" />
    <glyph glyph-name="uni03A9" unicode="&#x3a9;" horiz-adv-x="1591" 
d="M82 0v373h217q-90 51 -142.5 161.5t-52.5 249.5q0 142 52 266.5t143.5 213t220 139.5t275.5 51t275 -51t218.5 -139.5t142.5 -213t52 -266.5t-51.5 -252t-141.5 -159h219v-373h-661v373q109 50 173 157.5t64 233.5q0 149 -76.5 230t-213.5 81q-136 0 -212.5 -81.5
t-76.5 -229.5q0 -126 64 -233.5t173 -157.5v-373h-661z" />
    <glyph glyph-name="uni03A9" unicode="&#x3c9;" horiz-adv-x="1591" 
d="M82 0v373h217q-90 51 -142.5 161.5t-52.5 249.5q0 142 52 266.5t143.5 213t220 139.5t275.5 51t275 -51t218.5 -139.5t142.5 -213t52 -266.5t-51.5 -252t-141.5 -159h219v-373h-661v373q109 50 173 157.5t64 233.5q0 149 -76.5 230t-213.5 81q-136 0 -212.5 -81.5
t-76.5 -229.5q0 -126 64 -233.5t173 -157.5v-373h-661z" />
    <glyph glyph-name="uni03BC" unicode="&#x3bc;" horiz-adv-x="1167" 
d="M721 1012h369v-1012h-369v100q-88 -120 -234 -120q-27 0 -41 2v-289h-368v1319h368v-516q0 -73 38.5 -117.5t101.5 -44.5q61 0 98 44t37 118v516z" />
    <glyph glyph-name="pi" unicode="&#x3c0;" horiz-adv-x="1540" 
d="M1487 659h-260v-200q0 -61 43.5 -94t109.5 -33q45 0 76 8v-340q-68 -18 -164 -18q-194 0 -314 127.5t-120 343.5v206h-190v-659h-369v659h-254v353h1442v-353z" />
    <glyph glyph-name="uni0E3F" unicode="&#xe3f;" horiz-adv-x="1429" 
d="M1096 758q104 -30 168.5 -122.5t64.5 -217.5q0 -116 -64.5 -213t-172 -151t-232.5 -54h-6v-246h-352v246h-264v1434h264v245h352v-247q177 -19 295.5 -131.5t118.5 -260.5q0 -88 -48.5 -167.5t-123.5 -114.5zM627 1061v-176h153q40 0 68.5 25.5t28.5 62.5t-28.5 62.5
t-68.5 25.5h-153zM825 373q44 0 76.5 32t32.5 76t-31 76.5t-74 32.5h-202v-217h198z" />
    <glyph glyph-name="Wgrave" unicode="&#x1e80;" horiz-adv-x="2074" 
d="M623 1876h430l180 -338h-338zM1661 1436h407l-473 -1436h-307l-252 768l-245 -768h-310l-475 1436h414l223 -768l244 768h307l246 -770z" />
    <glyph glyph-name="wgrave" unicode="&#x1e81;" horiz-adv-x="1619" 
d="M397 1454h430l181 -338h-338zM367 0l-361 1012h395l111 -420l154 420h284l158 -420l109 420h397l-363 -1012h-284l-158 418l-162 -418h-280z" />
    <glyph glyph-name="Wacute" unicode="&#x1e82;" horiz-adv-x="2074" 
d="M1468 1876l-272 -338h-338l180 338h430zM1661 1436h407l-473 -1436h-307l-252 768l-245 -768h-310l-475 1436h414l223 -768l244 768h307l246 -770z" />
    <glyph glyph-name="wacute" unicode="&#x1e83;" horiz-adv-x="1619" 
d="M1243 1454l-272 -338h-338l180 338h430zM367 0l-361 1012h395l111 -420l154 420h284l158 -420l109 420h397l-363 -1012h-284l-158 418l-162 -418h-280z" />
    <glyph glyph-name="Wdieresis" unicode="&#x1e84;" horiz-adv-x="2074" 
d="M788 1942q89 0 152.5 -64t63.5 -152t-63.5 -151.5t-152.5 -63.5q-88 0 -151.5 63.5t-63.5 151.5t63.5 152t151.5 64zM1284 1942q89 0 152 -64t63 -152t-63 -151.5t-152 -63.5q-88 0 -151.5 63.5t-63.5 151.5t63.5 152t151.5 64zM1661 1436h407l-473 -1436h-307l-252 768
l-245 -768h-310l-475 1436h414l223 -768l244 768h307l246 -770z" />
    <glyph glyph-name="wdieresis" unicode="&#x1e85;" horiz-adv-x="1619" 
d="M561 1530q89 0 152 -63.5t63 -151.5t-63 -151.5t-152 -63.5q-88 0 -151.5 63.5t-63.5 151.5t63.5 151.5t151.5 63.5zM1057 1530q89 0 152 -63.5t63 -151.5t-63 -151.5t-152 -63.5q-88 0 -151.5 63.5t-63.5 151.5t63.5 151.5t151.5 63.5zM367 0l-361 1012h395l111 -420
l154 420h284l158 -420l109 420h397l-363 -1012h-284l-158 418l-162 -418h-280z" />
    <glyph glyph-name="uni1E9E" unicode="&#x1e9e;" horiz-adv-x="1316" 
d="M645 1454q247 0 410 -131t172 -322l-183 -176q104 -47 171 -145.5t67 -204.5q0 -128 -67 -237.5t-181 -173.5t-248 -64h-221v373h217q43 0 73 27t30 69t-30 69t-73 27h-217v238l226 231q-30 41 -125 41q-89 0 -143 -76.5t-54 -203.5v-795h-391v795q0 299 154 479t413 180
z" />
    <glyph glyph-name="Ygrave" unicode="&#x1ef2;" horiz-adv-x="1464" 
d="M322 1876h430l180 -338h-338zM6 1434h473l262 -455l263 455h454l-526 -848v-586h-389v586z" />
    <glyph glyph-name="ygrave" unicode="&#x1ef3;" horiz-adv-x="1134" 
d="M784 1116h-338l-272 338h430zM731 1012h397l-548 -1319h-398l195 426l-371 893h395l166 -461z" />
    <glyph glyph-name="uni2009" unicode="&#x2009;" horiz-adv-x="272" 
 />
    <glyph glyph-name="endash" unicode="&#x2013;" horiz-adv-x="1310" 
d="M102 362v345h1106v-345h-1106z" />
    <glyph glyph-name="emdash" unicode="&#x2014;" horiz-adv-x="2252" 
d="M102 362v345h2048v-345h-2048z" />
    <glyph glyph-name="quoteleft" unicode="&#x2018;" horiz-adv-x="641" 
d="M102 1161q0 36 15 76.5t51 110.5l166 317h205l-129 -326q46 -25 74 -72.5t28 -105.5q0 -86 -59.5 -144.5t-145.5 -58.5t-145.5 58.5t-59.5 144.5z" />
    <glyph glyph-name="quoteright" unicode="&#x2019;" horiz-adv-x="641" 
d="M539 1462q0 -36 -15 -76t-51 -110l-166 -318h-205l129 326q-46 25 -74 72.5t-28 105.5q0 86 59.5 144.5t145.5 58.5t145.5 -58.5t59.5 -144.5z" />
    <glyph glyph-name="quotesinglbase" unicode="&#x201a;" horiz-adv-x="641" 
d="M539 197q0 -36 -15 -76.5t-51 -110.5l-166 -317h-205l129 325q-46 25 -74 73t-28 106q0 86 59 144t146 58t146 -58t59 -144z" />
    <glyph glyph-name="quotedblleft" unicode="&#x201c;" horiz-adv-x="1146" 
d="M102 1161q0 36 15 76.5t51 110.5l166 317h205l-129 -326q46 -25 74 -72.5t28 -105.5q0 -86 -59.5 -144.5t-145.5 -58.5t-145.5 58.5t-59.5 144.5zM608 1161q0 36 15 76.5t51 110.5l166 317h204l-129 -326q47 -25 75 -72.5t28 -105.5q0 -86 -59.5 -144.5t-145.5 -58.5
t-145.5 58.5t-59.5 144.5z" />
    <glyph glyph-name="quotedblright" unicode="&#x201d;" horiz-adv-x="1146" 
d="M539 1462q0 -36 -15 -76t-51 -110l-166 -318h-205l129 326q-46 25 -74 72.5t-28 105.5q0 86 59.5 144.5t145.5 58.5t145.5 -58.5t59.5 -144.5zM1044 1462q0 -36 -15 -76.5t-50 -109.5l-166 -318h-205l129 326q-46 25 -74 72.5t-28 105.5q0 86 59.5 144.5t145.5 58.5
t145 -58.5t59 -144.5z" />
    <glyph glyph-name="quotedblbase" unicode="&#x201e;" horiz-adv-x="1146" 
d="M539 197q0 -36 -15 -76.5t-51 -110.5l-166 -317h-205l129 325q-46 25 -74 73t-28 106q0 86 59 144t146 58t146 -58t59 -144zM1044 197q0 -60 -65 -187l-166 -317h-205l129 325q-46 25 -74 73t-28 106q0 86 59 144t146 58q86 0 145 -58t59 -144z" />
    <glyph glyph-name="dagger" unicode="&#x2020;" horiz-adv-x="974" 
d="M872 1180v-314h-217v-518h-329v518h-224v314h224v295h329v-295h217z" />
    <glyph glyph-name="daggerdbl" unicode="&#x2021;" horiz-adv-x="1003" 
d="M872 866h-217v-258h217v-313h-217v-295h-329v295h-224v313h224v258h-224v314h224v295h329v-295h217v-314z" />
    <glyph glyph-name="bullet" unicode="&#x2022;" horiz-adv-x="864" 
d="M430 184q-136 0 -228.5 93.5t-92.5 230.5q0 139 92 231t229 92q138 0 231 -92t93 -231q0 -137 -93 -230.5t-231 -93.5z" />
    <glyph glyph-name="ellipsis" unicode="&#x2026;" horiz-adv-x="1703" 
d="M322 -20q-95 0 -160.5 64.5t-65.5 156.5t65.5 155.5t160.5 63.5t160 -63.5t65 -155.5q0 -93 -65 -157t-160 -64zM860 -20q-95 0 -160 64t-65 157q0 92 65 155.5t160 63.5t160 -63.5t65 -155.5q0 -93 -65 -157t-160 -64zM1382 -20q-95 0 -160 64t-65 157q0 92 65 155.5
t160 63.5t160.5 -63.5t65.5 -155.5t-65.5 -156.5t-160.5 -64.5z" />
    <glyph glyph-name="perthousand" unicode="&#x2030;" horiz-adv-x="2240" 
d="M735 1128q0 -142 -94 -236.5t-235 -94.5q-140 0 -234 94.5t-94 236.5q0 139 94 232.5t234 93.5q141 0 235 -93t94 -233zM1094 1434h288l-952 -1434h-289zM502 1128q0 47 -25.5 76t-70.5 29t-71 -29t-26 -76q0 -48 26 -78t71 -30t70.5 30t25.5 78zM1446 311
q0 -142 -94.5 -236.5t-235.5 -94.5q-140 0 -234 94.5t-94 236.5q0 139 94 232.5t234 93.5q141 0 235.5 -93.5t94.5 -232.5zM2163 311q0 -142 -94.5 -236.5t-235.5 -94.5q-140 0 -234 94.5t-94 236.5q0 139 94 232.5t234 93.5q141 0 235.5 -93.5t94.5 -232.5zM1212 311
q0 47 -25.5 76t-70.5 29t-70.5 -29t-25.5 -76q0 -48 25.5 -78t70.5 -30t70.5 30t25.5 78zM1929 311q0 47 -25.5 76t-70.5 29t-70.5 -29t-25.5 -76q0 -48 25.5 -78t70.5 -30t70.5 30t25.5 78z" />
    <glyph glyph-name="guilsinglleft" unicode="&#x2039;" horiz-adv-x="802" 
d="M700 86l-598 393v238l598 395v-375l-258 -139l258 -133v-379z" />
    <glyph glyph-name="guilsinglright" unicode="&#x203a;" horiz-adv-x="802" 
d="M102 86v379l258 133l-258 139v375l598 -395v-238z" />
    <glyph glyph-name="fraction" unicode="&#x2044;" horiz-adv-x="503" 
d="M584 1434h288l-952 -1434h-289z" />
    <glyph glyph-name="Euro" unicode="&#x20ac;" horiz-adv-x="1769" 
d="M1282 545h436q-37 -249 -233.5 -407t-470.5 -158q-276 0 -474.5 161.5t-248.5 419.5h-256v311h256q34 170 134.5 302t253.5 206t335 74q173 0 328.5 -71t256 -197.5t115.5 -278.5h-432q-22 73 -96.5 120.5t-171.5 47.5q-104 0 -185.5 -54.5t-121.5 -148.5h469l-74 -311
h-395q39 -93 120.5 -148t186.5 -55q96 0 171 53.5t97 133.5z" />
    <glyph glyph-name="uni20BD" unicode="&#x20bd;" horiz-adv-x="1370" 
d="M782 537h-127v-119h318v-291h-318v-127h-389v127h-231v291h231v119h-231v301h231v596h516q246 0 397.5 -123t151.5 -322q0 -203 -151.5 -327.5t-397.5 -124.5zM655 1133v-295h127q67 0 113.5 43t46.5 108q0 62 -46.5 103t-113.5 41h-127z" />
    <glyph glyph-name="uni2116" unicode="&#x2116;" horiz-adv-x="2510" 
d="M1901 1450q225 0 377.5 -151t152.5 -377q0 -148 -70 -268.5t-191 -188.5t-269 -68q-226 0 -378.5 150t-152.5 375q0 149 69.5 270t191 189.5t270.5 68.5zM78 1434h321l459 -658v658h389v-1434h-317l-463 655v-655h-389v1434zM1901 1096q-74 0 -125.5 -50t-51.5 -124
q0 -73 51.5 -121.5t125.5 -48.5q73 0 124.5 48.5t51.5 121.5q0 74 -51.5 124t-124.5 50zM2433 342v-346h-1079v346h1079z" />
    <glyph glyph-name="uni2117" unicode="&#x2117;" horiz-adv-x="1591" 
d="M786 1454q150 0 287 -58.5t236.5 -157.5t158 -235t58.5 -286t-58.5 -286t-158 -235t-236.5 -157.5t-287 -58.5q-198 0 -367.5 99t-268.5 268.5t-99 369.5t99 369.5t268.5 268.5t367.5 99zM788 117q161 0 298.5 80.5t217.5 219t80 300.5t-80 300.5t-217.5 219t-298.5 80.5
q-121 0 -231 -47.5t-190 -128t-127 -191.5t-47 -233t47 -233t127 -191.5t190 -128t231 -47.5zM834 1112q126 0 207 -75t81 -193q0 -119 -81 -195t-207 -76h-76v-241h-219v780h295zM834 784q29 0 48 17t19 43t-18.5 41.5t-48.5 15.5h-76v-117h76z" />
    <glyph glyph-name="trademark" unicode="&#x2122;" horiz-adv-x="1804" 
d="M723 1434v-232h-229v-629h-242v629h-232v232h703zM1513 1434h248v-861h-241v394l-164 -394h-172l-156 394v-394h-242v861h295l207 -504z" />
    <glyph glyph-name="uni2126" unicode="&#x2126;" horiz-adv-x="1591" 
d="M82 0v373h217q-90 51 -142.5 161.5t-52.5 249.5q0 142 52 266.5t143.5 213t220 139.5t275.5 51t275 -51t218.5 -139.5t142.5 -213t52 -266.5t-51.5 -252t-141.5 -159h219v-373h-661v373q109 50 173 157.5t64 233.5q0 149 -76.5 230t-213.5 81q-136 0 -212.5 -81.5
t-76.5 -229.5q0 -126 64 -233.5t173 -157.5v-373h-661z" />
    <glyph glyph-name="oneeighth" unicode="&#x215b;" horiz-adv-x="1810" 
d="M461 1434v-861h-240v529l-186 -133v286l268 179h158zM1221 1434h288l-952 -1434h-289zM1477 -10q-138 0 -227 75t-89 191q0 61 31.5 116t89.5 93q-42 29 -67 74t-25 90q0 105 81 172t206 67q124 0 204 -67t80 -172q0 -43 -24 -88.5t-66 -75.5q55 -33 87 -88.5t32 -120.5
q0 -116 -88.5 -191t-224.5 -75zM1477 559q29 0 46 15.5t17 39.5q0 23 -17.5 38.5t-45.5 15.5t-47 -15.5t-19 -38.5q0 -24 18.5 -39.5t47.5 -15.5zM1477 203q37 0 61.5 20.5t24.5 52.5q0 33 -24.5 54.5t-61.5 21.5t-61.5 -21.5t-24.5 -54.5q0 -32 24.5 -52.5t61.5 -20.5z" />
    <glyph glyph-name="threeeighths" unicode="&#x215c;" horiz-adv-x="1867" 
d="M211 1092l108 110h-284v232h627v-156l-162 -158q78 -25 124 -93.5t46 -158.5q0 -135 -94.5 -221t-239.5 -86q-137 0 -229.5 83t-98.5 210h242q17 -57 86 -57q37 0 60.5 21.5t23.5 55.5q0 58 -65.5 75.5t-143.5 -9.5v152zM1278 1434h289l-953 -1434h-288zM1534 -10
q-138 0 -226.5 75t-88.5 191q0 61 31 116t89 93q-42 29 -67 74t-25 90q0 105 81 172t206 67q124 0 204.5 -67t80.5 -172q0 -43 -24 -88.5t-66 -75.5q55 -33 86.5 -88.5t31.5 -120.5q0 -116 -88.5 -191t-224.5 -75zM1534 559q29 0 46 15.5t17 39.5q0 23 -17.5 38.5
t-45.5 15.5t-47 -15.5t-19 -38.5q0 -24 18.5 -39.5t47.5 -15.5zM1534 203q37 0 61.5 20.5t24.5 52.5q0 33 -24.5 54.5t-61.5 21.5t-61.5 -21.5t-24.5 -54.5q0 -32 24.5 -52.5t61.5 -20.5z" />
    <glyph glyph-name="fiveeighths" unicode="&#x215d;" horiz-adv-x="1861" 
d="M340 561q-137 0 -232.5 77.5t-99.5 215.5h242q20 -57 90 -57q33 0 56.5 25t23.5 59q0 38 -23 61t-57 23q-28 0 -53 -11t-37 -30h-213l39 510h532v-228h-315l-8 -67q46 24 92 24q130 0 210.5 -76t80.5 -213q0 -130 -95.5 -221.5t-232.5 -91.5zM1272 1434h289l-953 -1434
h-289zM1528 -10q-138 0 -227 75t-89 191q0 61 31.5 116t89.5 93q-42 29 -67 74t-25 90q0 105 81 172t206 67q124 0 204 -67t80 -172q0 -43 -24 -88.5t-66 -75.5q55 -33 87 -88.5t32 -120.5q0 -116 -88.5 -191t-224.5 -75zM1528 559q29 0 46 15.5t17 39.5q0 23 -17.5 38.5
t-45.5 15.5t-47 -15.5t-19 -38.5q0 -24 18.5 -39.5t47.5 -15.5zM1528 203q37 0 61.5 20.5t24.5 52.5q0 33 -24.5 54.5t-61.5 21.5t-61.5 -21.5t-24.5 -54.5q0 -32 24.5 -52.5t61.5 -20.5z" />
    <glyph glyph-name="seveneighths" unicode="&#x215e;" horiz-adv-x="1716" 
d="M18 1434h625v-160l-336 -701h-268l303 627h-324v234zM1126 1434h289l-952 -1434h-289zM1382 -10q-138 0 -226.5 75t-88.5 191q0 61 31.5 116t89.5 93q-42 29 -67 74t-25 90q0 105 80.5 172t205.5 67q124 0 204.5 -67t80.5 -172q0 -43 -24 -88.5t-66 -75.5
q55 -33 87 -88.5t32 -120.5q0 -116 -89 -191t-225 -75zM1382 559q29 0 46.5 15.5t17.5 39.5q0 23 -18 38.5t-46 15.5t-46.5 -15.5t-18.5 -38.5q0 -24 18 -39.5t47 -15.5zM1382 203q37 0 61.5 20.5t24.5 52.5q0 33 -24.5 54.5t-61.5 21.5t-61.5 -21.5t-24.5 -54.5
q0 -32 24.5 -52.5t61.5 -20.5z" />
    <glyph glyph-name="arrowleft" unicode="&#x2190;" horiz-adv-x="1742" 
d="M1640 807v-328h-913l352 -336l-233 -233l-744 733l744 735l233 -233l-352 -338h913z" />
    <glyph glyph-name="arrowup" unicode="&#x2191;" horiz-adv-x="1673" 
d="M1571 795l-234 -234l-336 352v-913h-327v913l-338 -352l-234 234l736 743z" />
    <glyph glyph-name="arrowright" unicode="&#x2192;" horiz-adv-x="1742" 
d="M897 1378l743 -735l-743 -733l-233 233l352 336h-914v328h914l-352 338z" />
    <glyph glyph-name="arrowdown" unicode="&#x2193;" horiz-adv-x="1673" 
d="M1337 952l234 -233l-735 -744l-734 744l234 233l336 -352v913h327v-913z" />
    <glyph glyph-name="uni2196" unicode="&#x2196;" horiz-adv-x="1406" 
d="M1305 287l-232 -232l-645 645l10 -485h-329l-7 1042l1045 -6v-329l-488 10z" />
    <glyph glyph-name="uni2197" unicode="&#x2197;" horiz-adv-x="1406" 
d="M260 1251l1045 6l-7 -1042h-329l10 485l-645 -645l-232 232l646 645l-488 -10v329z" />
    <glyph glyph-name="uni2198" unicode="&#x2198;" horiz-adv-x="1406" 
d="M260 2v330l488 -10l-646 645l232 231l645 -645l-10 485h329l7 -1042z" />
    <glyph glyph-name="uni2199" unicode="&#x2199;" horiz-adv-x="1406" 
d="M1305 967l-646 -645l488 10v-330l-1045 -6l7 1042h329l-10 -485l645 645z" />
    <glyph glyph-name="partialdiff" unicode="&#x2202;" horiz-adv-x="1249" 
d="M1038 838q111 -178 111 -342q0 -138 -72 -257t-195 -189t-266 -70q-142 0 -264.5 70t-194 189t-71.5 257q0 202 120.5 336t307.5 145l-289 457h445zM616 350q63 0 107.5 43.5t44.5 106.5t-43.5 106t-106.5 43q-66 0 -110.5 -43t-44.5 -106t44.5 -106.5t108.5 -43.5z" />
    <glyph glyph-name="emptyset" unicode="&#x2205;" horiz-adv-x="1695" 
d="M365 -35l-287 287l186 186q-71 139 -71 295q0 178 88.5 329.5t240.5 240t330 88.5q160 0 295 -72l184 184l287 -286l-184 -185q69 -138 69 -299q0 -133 -51.5 -254t-138.5 -208.5t-207.5 -139t-253.5 -51.5q-157 0 -301 72zM567 678l338 338q-24 6 -53 6
q-120 0 -205.5 -85t-85.5 -204q0 -28 6 -55zM852 449q119 0 201 82t82 202q0 27 -7 58l-335 -336q27 -6 59 -6z" />
    <glyph glyph-name="uni2206" unicode="&#x2206;" horiz-adv-x="1210" 
d="M4 0v373l447 1061h307l448 -1061v-373h-1202zM414 373h377l-187 485z" />
    <glyph glyph-name="product" unicode="&#x220f;" horiz-adv-x="1478" 
d="M1376 1434v-1434h-389v1061h-495v-1061h-390v1434h1274z" />
    <glyph glyph-name="summation" unicode="&#x2211;" horiz-adv-x="1302" 
d="M1200 1434v-373h-559l250 -344l-250 -344h559v-373h-1098v270l334 447l-334 446v271h1098z" />
    <glyph glyph-name="minus" unicode="&#x2212;" horiz-adv-x="1234" 
d="M1157 850v-346h-1079v346h1079z" />
    <glyph glyph-name="radical" unicode="&#x221a;" horiz-adv-x="1619" 
d="M1106 1434h412l-551 -1434h-308l-251 639h-306v373h570l143 -342z" />
    <glyph glyph-name="infinity" unicode="&#x221e;" horiz-adv-x="2037" 
d="M1417 1233q121 0 224.5 -46.5t172 -123.5t107.5 -177t39 -208t-39 -207.5t-107.5 -176t-172 -122t-224.5 -45.5q-127 0 -232 55t-167 131q-61 -78 -165 -133t-232 -55q-121 0 -225 46.5t-172.5 123.5t-107 176.5t-38.5 206.5t38.5 207t107 177.5t172.5 124t225 46.5
q125 0 229 -54t168 -132q64 77 170 131.5t229 54.5zM641 481q70 0 132 48.5t97 148.5q-35 102 -96.5 151.5t-132.5 49.5q-82 0 -133 -54.5t-51 -146.5q0 -90 50 -143.5t134 -53.5zM1399 481q81 0 131.5 53.5t50.5 143.5q0 91 -51 146t-131 55q-59 0 -115.5 -50t-91.5 -151
q34 -99 91 -148t116 -49z" />
    <glyph glyph-name="integral" unicode="&#x222b;" horiz-adv-x="819" 
d="M604 1499q96 0 164 -18v-340q-31 8 -76 8q-66 0 -109.5 -33t-43.5 -94v-879q0 -216 -120.5 -343.5t-314.5 -127.5q-92 0 -163 19v340q31 -8 75 -8q66 0 110 33.5t44 93.5v878q0 216 120 343.5t314 127.5z" />
    <glyph glyph-name="approxequal" unicode="&#x2248;" horiz-adv-x="1263" 
d="M389 680l-311 39q26 204 118.5 313t237.5 109q69 0 141 -26.5t126.5 -52.5t82.5 -26q34 0 53.5 34.5t30.5 103.5l318 -37q-34 -202 -128.5 -313t-234.5 -111q-70 0 -139 26t-122.5 52t-84.5 26q-35 0 -55 -33.5t-33 -103.5zM389 143l-311 39q26 204 118.5 313t237.5 109
q69 0 141 -26t126.5 -52t82.5 -26q34 0 53.5 34t30.5 103l318 -37q-34 -202 -128.5 -313t-234.5 -111q-55 0 -111 16.5t-93 36t-76.5 36t-65.5 16.5q-35 0 -55 -34t-33 -104z" />
    <glyph glyph-name="notequal" unicode="&#x2260;" horiz-adv-x="1234" 
d="M1157 793h-338l-88 -197h426v-346h-579l-113 -250h-328l113 250h-172v346h325l89 197h-414v346h569l111 247h327l-110 -247h182v-346z" />
    <glyph glyph-name="lessequal" unicode="&#x2264;" horiz-adv-x="1069" 
d="M991 420l-911 407v281l911 408v-373l-411 -174l411 -172v-377zM989 0h-911v346h911v-346z" />
    <glyph glyph-name="greaterequal" unicode="&#x2265;" horiz-adv-x="1069" 
d="M78 420v377l411 172l-411 174v373l911 -408v-281zM80 0v346h911v-346h-911z" />
    <glyph glyph-name="lozenge" unicode="&#x25ca;" horiz-adv-x="1288" 
d="M772 1434l414 -717l-414 -717h-258l-412 717l412 717h258zM641 371l197 346l-197 346l-201 -346z" />
    <glyph glyph-name="circle" unicode="&#x25cb;" horiz-adv-x="1576" 
d="M786 -20q-198 0 -367.5 99t-268.5 268.5t-99 369.5t99 369.5t268.5 268.5t367.5 99q150 0 287 -58.5t236.5 -157.5t158 -235t58.5 -286t-58.5 -286t-158 -235t-236.5 -157.5t-287 -58.5zM788 117q161 0 298.5 80.5t217.5 219t80 300.5t-80 300.5t-217.5 219t-298.5 80.5
q-121 0 -231 -47.5t-190 -128t-127 -191.5t-47 -233t47 -233t127 -191.5t190 -128t231 -47.5z" />
    <glyph glyph-name="uni25CF" unicode="&#x25cf;" horiz-adv-x="1576" 
d="M788 -20q-200 0 -369.5 99t-268.5 268.5t-99 369.5t99 369.5t268.5 268.5t369.5 99q150 0 286.5 -58.5t235.5 -157.5t157.5 -235t58.5 -286t-58.5 -286t-157.5 -235t-235.5 -157.5t-286.5 -58.5z" />
    <glyph glyph-name="P_sq" horiz-adv-x="1230" 
d="M1153 1434v-979h-686v-455h-389v1434h1075zM764 827v234h-297v-234h297z" />
    <glyph glyph-name="P_sq_sinf" horiz-adv-x="735" 
d="M692 860v-594h-407v-266h-242v860h649zM451 500v129h-166v-129h166z" />
    <glyph glyph-name="Iacute_J.loclNLD" horiz-adv-x="1273" 
d="M705 1876l-273 -338h-338l180 338h431zM1440 1876l-273 -338h-338l181 338h430zM78 1434h389v-1434h-389v1434zM606 356q14 -2 62 -2q72 0 110.5 31t38.5 111v938h389v-1049q0 -173 -122.5 -286t-295.5 -113q-113 0 -182 14v356z" />
    <glyph glyph-name="O.ss10" horiz-adv-x="1472" 
d="M1395 1434v-1434h-1317v1434h1317zM467 373h539v688h-539v-688z" />
    <glyph glyph-name="Oacute.ss10" horiz-adv-x="1472" 
d="M1169 1876l-272 -338h-338l180 338h430zM1395 1434v-1434h-1317v1434h1317zM467 373h539v688h-539v-688z" />
    <glyph glyph-name="Obreve.ss10" horiz-adv-x="1472" 
d="M737 1511q-162 0 -263.5 93t-100.5 251h276q-1 -47 23.5 -75.5t64.5 -28.5q39 0 63.5 28.5t24.5 75.5h277q0 -158 -102.5 -251t-262.5 -93zM1395 1434v-1434h-1317v1434h1317zM467 373h539v688h-539v-688z" />
    <glyph glyph-name="Ocircumflex.ss10" horiz-adv-x="1472" 
d="M737 1653l-82 -115h-325l207 338h399l209 -338h-326zM1395 1434v-1434h-1317v1434h1317zM467 373h539v688h-539v-688z" />
    <glyph glyph-name="Odieresis.ss10" horiz-adv-x="1472" 
d="M489 1511q-88 0 -151.5 63.5t-63.5 151.5t63.5 152t151.5 64q89 0 152.5 -64t63.5 -152t-63.5 -151.5t-152.5 -63.5zM985 1511q-88 0 -151.5 63.5t-63.5 151.5t63.5 152t151.5 64q89 0 152 -64t63 -152t-63 -151.5t-152 -63.5zM1395 1434v-1434h-1317v1434h1317zM467 373
h539v688h-539v-688z" />
    <glyph glyph-name="Ograve.ss10" horiz-adv-x="1472" 
d="M934 1538h-338l-272 338h430zM1395 1434v-1434h-1317v1434h1317zM467 373h539v688h-539v-688z" />
    <glyph glyph-name="Ohungarumlaut.ss10" horiz-adv-x="1472" 
d="M778 1876l-114 -338h-377l114 338h377zM1294 1876l-116 -338h-377l117 338h376zM1395 1434v-1434h-1317v1434h1317zM467 373h539v688h-539v-688z" />
    <glyph glyph-name="Omacron.ss10" horiz-adv-x="1472" 
d="M1065 1833v-295h-655v295h655zM1395 1434v-1434h-1317v1434h1317zM467 373h539v688h-539v-688z" />
    <glyph glyph-name="uni01EA.ss10" horiz-adv-x="1472" 
d="M1395 1434v-1434h-467q-48 -6 -77.5 -24.5t-29.5 -43.5q0 -22 18.5 -34.5t49.5 -12.5q17 0 55 9l88 -232q-41 -23 -117 -38t-153 -15q-114 0 -187 66t-73 167q0 82 51 158h-475v1434h1317zM467 373h539v688h-539v-688z" />
    <glyph glyph-name="S.ss12" 
d="M543 1434h422v-379h-498q-21 0 -35 -12t-14 -31q0 -23 28.5 -40.5t75 -28.5t106 -28t122 -36t122 -55.5t106 -83.5t75 -123.5t28.5 -172.5q0 -87 -31 -165.5t-92 -141.5t-160.5 -100t-226.5 -37h-489v379h510q41 0 65.5 18t24.5 47q0 27 -22.5 47t-60.5 33.5t-87 25.5
t-103.5 27.5t-108.5 35t-103 52t-87 75t-60.5 107.5t-22.5 146q0 194 144.5 317.5t371.5 123.5z" />
    <glyph glyph-name="Sacute.ss12" 
d="M1030 1876l-272 -338h-338l180 338h430zM543 1434h422v-379h-498q-21 0 -35 -12t-14 -31q0 -23 28.5 -40.5t75 -28.5t106 -28t122 -36t122 -55.5t106 -83.5t75 -123.5t28.5 -172.5q0 -87 -31 -165.5t-92 -141.5t-160.5 -100t-226.5 -37h-489v379h510q41 0 65.5 18
t24.5 47q0 27 -22.5 47t-60.5 33.5t-87 25.5t-103.5 27.5t-108.5 35t-103 52t-87 75t-60.5 107.5t-22.5 146q0 194 144.5 317.5t371.5 123.5z" />
    <glyph glyph-name="Scaron.ss12" 
d="M397 1538l-207 338h326l82 -115l82 115h326l-209 -338h-400zM418 1012q0 -23 28.5 -40.5t75 -28.5t106 -28t122 -36t122 -55.5t106 -83.5t75 -123.5t28.5 -172.5q0 -87 -31 -165.5t-92 -141.5t-160.5 -100t-226.5 -37h-489v379h510q41 0 65.5 18t24.5 47q0 27 -22.5 47
t-60.5 33.5t-87 25.5t-103.5 27.5t-108.5 35t-103 52t-87 75t-60.5 107.5t-22.5 146q0 194 144.5 317.5t371.5 123.5h422v-379h-498q-21 0 -35 -12t-14 -31z" />
    <glyph glyph-name="Scedilla.ss12" 
d="M1081 444q0 -170 -111.5 -294.5t-322.5 -145.5q44 -61 62 -123.5t10.5 -116t-39.5 -99t-82.5 -75.5t-123.5 -42.5t-159 -2.5l-84 260q113 -8 166.5 20.5t48.5 75t-53 99.5h-311v379h510q41 0 65.5 18t24.5 47q0 27 -22.5 47t-60.5 33.5t-87 25.5t-103.5 27.5t-108.5 35
t-103 52t-87 75t-60.5 107.5t-22.5 146q0 194 144.5 317.5t371.5 123.5h422v-379h-498q-21 0 -35 -12t-14 -31q0 -23 28.5 -40.5t75 -28.5t106 -28t122 -36t122 -55.5t106 -83.5t75 -123.5t28.5 -172.5z" />
    <glyph glyph-name="Scircumflex.ss12" 
d="M598 1653l-82 -115h-326l207 338h400l209 -338h-326zM418 1012q0 -23 28.5 -40.5t75 -28.5t106 -28t122 -36t122 -55.5t106 -83.5t75 -123.5t28.5 -172.5q0 -87 -31 -165.5t-92 -141.5t-160.5 -100t-226.5 -37h-489v379h510q41 0 65.5 18t24.5 47q0 27 -22.5 47
t-60.5 33.5t-87 25.5t-103.5 27.5t-108.5 35t-103 52t-87 75t-60.5 107.5t-22.5 146q0 194 144.5 317.5t371.5 123.5h422v-379h-498q-21 0 -35 -12t-14 -31z" />
    <glyph glyph-name="uni0218.ss12" 
d="M543 1434h422v-379h-498q-21 0 -35 -12t-14 -31q0 -23 28.5 -40.5t75 -28.5t106 -28t122 -36t122 -55.5t106 -83.5t75 -123.5t28.5 -172.5q0 -87 -31 -165.5t-92 -141.5t-160.5 -100t-226.5 -37h-489v379h510q41 0 65.5 18t24.5 47q0 27 -22.5 47t-60.5 33.5t-87 25.5
t-103.5 27.5t-108.5 35t-103 52t-87 75t-60.5 107.5t-22.5 146q0 194 144.5 317.5t371.5 123.5zM770 -121l-272 -338h-338l180 338h430z" />
    <glyph glyph-name="D.ss16" horiz-adv-x="1517" 
d="M727 1434q156 0 293 -54.5t235 -148.5t154.5 -226t56.5 -282q0 -154 -56.5 -289t-154.5 -230t-235 -149.5t-293 -54.5h-692v352h174v1082h518zM756 373q136 0 223.5 98.5t87.5 251.5q0 147 -87 242.5t-224 95.5h-158v-688h158z" />
    <glyph glyph-name="Eth.ss16" horiz-adv-x="1517" 
d="M727 1434q156 0 293 -54.5t235 -148.5t154.5 -226t56.5 -282q0 -154 -56.5 -289t-154.5 -230t-235 -149.5t-293 -54.5h-692v352h174v244h-178v242h178v596h518zM756 373q136 0 223.5 98.5t87.5 251.5q0 147 -87 242.5t-224 95.5h-158v-223h160v-242h-160v-223h158z" />
    <glyph glyph-name="Dcaron.ss16" horiz-adv-x="1517" 
d="M510 1538l-207 338h326l82 -115l82 115h325l-209 -338h-399zM727 1434q156 0 293 -54.5t235 -148.5t154.5 -226t56.5 -282q0 -154 -56.5 -289t-154.5 -230t-235 -149.5t-293 -54.5h-692v352h174v1082h518zM756 373q136 0 223.5 98.5t87.5 251.5q0 147 -87 242.5
t-224 95.5h-158v-688h158z" />
    <glyph glyph-name="Dcroat.ss16" horiz-adv-x="1517" 
d="M727 1434q156 0 293 -54.5t235 -148.5t154.5 -226t56.5 -282q0 -154 -56.5 -289t-154.5 -230t-235 -149.5t-293 -54.5h-692v352h174v244h-178v242h178v596h518zM756 373q136 0 223.5 98.5t87.5 251.5q0 147 -87 242.5t-224 95.5h-158v-223h160v-242h-160v-223h158z" />
    <glyph glyph-name="J.ss17" horiz-adv-x="866" 
d="M788 1434v-1434h-727v373h338v1061h389z" />
    <glyph glyph-name="Jcircumflex.ss17" horiz-adv-x="866" 
d="M592 1653l-82 -115h-326l207 338h400l208 -338h-325zM399 373v1061h389v-1434h-727v373h338z" />
    <glyph glyph-name="L.ss18" horiz-adv-x="1253" 
d="M598 373h616v-373h-1179v352h174v1082h389v-1061z" />
    <glyph glyph-name="Lacute.ss18" horiz-adv-x="1253" 
d="M823 1876l-272 -338h-338l180 338h430zM598 373h616v-373h-1179v352h174v1082h389v-1061z" />
    <glyph glyph-name="Lcaron.ss18" horiz-adv-x="1253" 
d="M1190 1563l-117 -447h-305l37 447h385zM598 373h616v-373h-1179v352h174v1082h389v-1061z" />
    <glyph glyph-name="uni013B.ss18" horiz-adv-x="1253" 
d="M598 373h616v-373h-1179v352h174v1082h389v-1061zM264 -459l180 338h430l-272 -338h-338z" />
    <glyph glyph-name="Ldot.ss18" horiz-adv-x="1253" 
d="M598 373h616v-373h-1179v352h174v1082h389v-1061zM985 618q-95 0 -160 64.5t-65 157.5q0 92 65 155.5t160 63.5t160 -63.5t65 -155.5q0 -93 -65 -157.5t-160 -64.5z" />
    <glyph glyph-name="Lslash.ss18" horiz-adv-x="1253" 
d="M598 373h616v-373h-1179v352h174v205l-174 -82v334l174 80v545h389v-363l274 127v-332l-274 -129v-364z" />
    <glyph glyph-name="M.swsh" horiz-adv-x="2074" 
d="M1661 -2l-221 770l-246 -770h-307l-244 768l-223 -768h-414l475 1436h310l245 -768l252 768h307l473 -1436h-407z" />
    <glyph glyph-name="G.titl" horiz-adv-x="1658" 
d="M1624 842v-312h-133q-40 -250 -231.5 -400t-471.5 -150q-157 0 -294 56t-234 153t-153 233.5t-56 292.5q0 157 56 294t153 235t234 154t294 56q136 0 263.5 -44t220.5 -116.5t153 -168.5t70 -197h-440q-25 70 -99 108.5t-168 38.5q-146 0 -241.5 -102.5t-95.5 -257.5
q0 -156 101 -256.5t267 -100.5q118 0 195.5 60.5t77.5 111.5h-355v312h887z" />
    <glyph glyph-name="Gbreve.titl" horiz-adv-x="1658" 
d="M750 1511q-162 0 -264 93t-101 251h277q-1 -47 23.5 -75.5t64.5 -28.5q39 0 63.5 28.5t24.5 75.5h276q0 -158 -102 -251t-262 -93zM1624 842v-312h-133q-40 -250 -231.5 -400t-471.5 -150q-157 0 -294 56t-234 153t-153 233.5t-56 292.5q0 157 56 294t153 235t234 154
t294 56q136 0 263.5 -44t220.5 -116.5t153 -168.5t70 -197h-440q-25 70 -99 108.5t-168 38.5q-146 0 -241.5 -102.5t-95.5 -257.5q0 -156 101 -256.5t267 -100.5q118 0 195.5 60.5t77.5 111.5h-355v312h887z" />
    <glyph glyph-name="Gcircumflex.titl" horiz-adv-x="1658" 
d="M750 1653l-82 -115h-326l207 338h399l209 -338h-326zM1624 842v-312h-133q-40 -250 -231.5 -400t-471.5 -150q-157 0 -294 56t-234 153t-153 233.5t-56 292.5q0 157 56 294t153 235t234 154t294 56q136 0 263.5 -44t220.5 -116.5t153 -168.5t70 -197h-440
q-25 70 -99 108.5t-168 38.5q-146 0 -241.5 -102.5t-95.5 -257.5q0 -156 101 -256.5t267 -100.5q118 0 195.5 60.5t77.5 111.5h-355v312h887z" />
    <glyph glyph-name="uni0122.titl" horiz-adv-x="1658" 
d="M1624 842v-312h-133q-40 -250 -231.5 -400t-471.5 -150q-157 0 -294 56t-234 153t-153 233.5t-56 292.5q0 157 56 294t153 235t234 154t294 56q136 0 263.5 -44t220.5 -116.5t153 -168.5t70 -197h-440q-25 70 -99 108.5t-168 38.5q-146 0 -241.5 -102.5t-95.5 -257.5
q0 -156 101 -256.5t267 -100.5q118 0 195.5 60.5t77.5 111.5h-355v312h887zM442 -459l181 338h430l-273 -338h-338z" />
    <glyph glyph-name="Gdotaccent.titl" horiz-adv-x="1658" 
d="M750 1511q-88 0 -151.5 63.5t-63.5 151.5t63.5 152t151.5 64q89 0 152 -64t63 -152t-63 -151.5t-152 -63.5zM1624 842v-312h-133q-40 -250 -231.5 -400t-471.5 -150q-157 0 -294 56t-234 153t-153 233.5t-56 292.5q0 157 56 294t153 235t234 154t294 56q136 0 263.5 -44
t220.5 -116.5t153 -168.5t70 -197h-440q-25 70 -99 108.5t-168 38.5q-146 0 -241.5 -102.5t-95.5 -257.5q0 -156 101 -256.5t267 -100.5q118 0 195.5 60.5t77.5 111.5h-355v312h887z" />
    <glyph glyph-name="I.titl" horiz-adv-x="761" 
d="M707 1081h-132v-729h132v-352h-652v352h131v729h-131v353h652v-353z" />
    <glyph glyph-name="IJ.titl" horiz-adv-x="1601" 
d="M707 1434v-353h-132v-729h132v-352h-652v352h131v729h-131v353h652zM1554 1434v-353h-131v-696q0 -173 -122 -286t-295 -113q-114 0 -183 14v356q14 -2 62 -2q72 0 110.5 31t38.5 111v585h-131v353h651z" />
    <glyph glyph-name="Iacute.titl" horiz-adv-x="761" 
d="M813 1876l-272 -338h-338l180 338h430zM707 1434v-353h-132v-729h132v-352h-652v352h131v729h-131v353h652z" />
    <glyph glyph-name="Ibreve.titl" horiz-adv-x="761" 
d="M381 1511q-162 0 -264 93t-101 251h277q-1 -47 23.5 -75.5t64.5 -28.5q39 0 63.5 28.5t24.5 75.5h276q0 -158 -102 -251t-262 -93zM707 1434v-353h-132v-729h132v-352h-652v352h131v729h-131v353h652z" />
    <glyph glyph-name="Icircumflex.titl" horiz-adv-x="761" 
d="M381 1653l-82 -115h-326l207 338h400l208 -338h-325zM707 1434v-353h-132v-729h132v-352h-652v352h131v729h-131v353h652z" />
    <glyph glyph-name="Idieresis.titl" horiz-adv-x="761" 
d="M348 1726q0 -88 -63 -151.5t-152 -63.5q-88 0 -151.5 63.5t-63.5 151.5t63.5 152t151.5 64q89 0 152 -64t63 -152zM629 1942q89 0 152 -64t63 -152t-63 -151.5t-152 -63.5q-88 0 -151.5 63.5t-63.5 151.5t63.5 152t151.5 64zM707 1434v-353h-132v-729h132v-352h-652v352
h131v729h-131v353h652z" />
    <glyph glyph-name="Idotaccent.titl" horiz-adv-x="761" 
d="M381 1511q-88 0 -151.5 63.5t-63.5 151.5t63.5 152t151.5 64q89 0 152 -64t63 -152t-63 -151.5t-152 -63.5zM707 1081h-132v-729h132v-352h-652v352h131v729h-131v353h652v-353z" />
    <glyph glyph-name="Igrave.titl" horiz-adv-x="761" 
d="M578 1538h-338l-273 338h430zM707 1081h-132v-729h132v-352h-652v352h131v729h-131v353h652v-353z" />
    <glyph glyph-name="Imacron.titl" horiz-adv-x="761" 
d="M53 1833h656v-295h-656v295zM707 1434v-353h-132v-729h132v-352h-652v352h131v729h-131v353h652z" />
    <glyph glyph-name="Iogonek.titl" horiz-adv-x="761" 
d="M707 1081h-132v-729h132v-352h-138q-47 -6 -76.5 -24.5t-29.5 -43.5q0 -22 18 -34.5t49 -12.5q18 0 56 9l88 -232q-41 -23 -117.5 -38t-153.5 -15q-114 0 -187 66t-73 167q0 81 52 158h-140v352h131v729h-131v353h652v-353z" />
    <glyph glyph-name="Itilde.titl" horiz-adv-x="761" 
d="M571 1921l295 -51q-19 -154 -110 -253t-209 -99q-53 0 -105.5 16t-86 36t-65 36t-48.5 16q-24 0 -37.5 -25t-11.5 -67l-297 53q15 156 104 254t211 98q64 0 128 -25.5t108.5 -51t60.5 -25.5q26 0 43 24t20 64zM707 1434v-353h-132v-729h132v-352h-652v352h131v729h-131
v353h652z" />
    <glyph glyph-name="J.titl" horiz-adv-x="839" 
d="M793 1434v-353h-131v-696q0 -173 -122.5 -286t-295.5 -113q-114 0 -183 14v356q14 -2 62 -2q72 0 110.5 31t38.5 111v585h-131v353h652z" />
    <glyph glyph-name="Jcircumflex.titl" horiz-adv-x="839" 
d="M457 1653l-82 -115h-326l207 338h399l209 -338h-325zM793 1434v-353h-131v-696q0 -173 -122.5 -286t-295.5 -113q-114 0 -183 14v356q14 -2 62 -2q72 0 110.5 31t38.5 111v585h-131v353h652z" />
    <glyph glyph-name="T.titl" horiz-adv-x="1236" 
d="M1202 1061h-389v-709h131v-352h-651v352h131v709h-389v373h1167v-373z" />
    <glyph glyph-name="Tbar.titl" horiz-adv-x="1236" 
d="M1202 1061h-389v-223h164v-242h-164v-244h131v-352h-651v352h131v244h-174v242h174v223h-389v373h1167v-373z" />
    <glyph glyph-name="Tcaron.titl" horiz-adv-x="1236" 
d="M414 1538l-207 338h325l82 -115l82 115h326l-209 -338h-399zM1202 1061h-389v-709h131v-352h-651v352h131v709h-389v373h1167v-373z" />
    <glyph glyph-name="uni0162.titl" horiz-adv-x="1236" 
d="M1202 1061h-389v-709h131v-352h-194q65 -91 70.5 -181t-39.5 -154.5t-141.5 -99t-223.5 -20.5l-84 260q113 -8 166.5 20.5t48.5 75t-53 99.5h-201v352h131v709h-389v373h1167v-373z" />
    <glyph glyph-name="uni021A.titl" horiz-adv-x="1236" 
d="M1202 1061h-389v-709h131v-352h-651v352h131v709h-389v373h1167v-373zM260 -459l180 338h430l-272 -338h-338z" />
    <glyph glyph-name="Y.titl" horiz-adv-x="1464" 
d="M932 586v-234h131v-352h-651v352h131v234l-537 848h473l262 -455l263 455h454z" />
    <glyph glyph-name="Yacute.titl" horiz-adv-x="1464" 
d="M1149 1876l-272 -338h-338l180 338h430zM932 586v-234h131v-352h-651v352h131v234l-537 848h473l262 -455l263 455h454z" />
    <glyph glyph-name="Ycircumflex.titl" horiz-adv-x="1464" 
d="M717 1653l-82 -115h-326l207 338h399l209 -338h-325zM932 586v-234h131v-352h-651v352h131v234l-537 848h473l262 -455l263 455h454z" />
    <glyph glyph-name="Ydieresis.titl" horiz-adv-x="1464" 
d="M469 1511q-88 0 -151.5 63.5t-63.5 151.5t63.5 152t151.5 64q89 0 152 -64t63 -152t-63 -151.5t-152 -63.5zM965 1511q-88 0 -151.5 63.5t-63.5 151.5t63.5 152t151.5 64q89 0 152 -64t63 -152t-63 -151.5t-152 -63.5zM932 586v-234h131v-352h-651v352h131v234l-537 848
h473l262 -455l263 455h454z" />
    <glyph glyph-name="Ygrave.titl" horiz-adv-x="1464" 
d="M913 1538h-338l-272 338h430zM932 586v-234h131v-352h-651v352h131v234l-537 848h473l262 -455l263 455h454z" />
    <glyph glyph-name="i.loclTRK" horiz-adv-x="524" 
d="M262 1530q89 0 152 -63.5t63 -151.5t-63 -151.5t-152 -63.5q-88 0 -151.5 63.5t-63.5 151.5t63.5 151.5t151.5 63.5zM78 1012h368v-1012h-368v1012z" />
    <glyph glyph-name="eth.alt" horiz-adv-x="1202" 
d="M1040 885q58 -93 87.5 -188.5t29.5 -174.5q0 -109 -45 -210t-120 -174.5t-178.5 -117t-215.5 -43.5q-111 0 -214.5 44t-178 117.5t-119.5 174t-45 209.5q0 217 133.5 359.5t337.5 148.5l-86 137l-246 -69l-57 198l186 54l-106 170h444l39 -62l311 88l56 -198l-254 -74z
M598 350q74 0 126 51t52 125t-51 125t-125 51q-76 0 -129 -51t-53 -125q0 -73 52.5 -124.5t127.5 -51.5z" />
    <glyph glyph-name="germandbls.calt" horiz-adv-x="1316" 
d="M645 1454q247 0 410 -131t172 -322l-183 -176q104 -47 171 -145.5t67 -204.5q0 -128 -67 -237.5t-181 -173.5t-248 -64h-221v373h217q43 0 73 27t30 69t-30 69t-73 27h-217v238l226 231q-30 41 -125 41q-89 0 -143 -76.5t-54 -203.5v-795h-391v795q0 299 154 479t413 180
z" />
    <glyph glyph-name="iacute_j.loclNLD" horiz-adv-x="1048" 
d="M694 1454l-272 -338h-338l180 338h430zM1219 1454l-273 -338h-338l180 338h431zM78 1012h368v-1012h-368v1012zM465 -41q20 -4 39 -4q43 0 70.5 20t27.5 64v973h369v-1012q0 -170 -120.5 -273.5t-318.5 -103.5q-13 0 -67 4v332z" />
    <glyph glyph-name="a.ss01" horiz-adv-x="1019" 
d="M498 1032q227 0 343.5 -113t116.5 -305v-614h-346v92q-79 -112 -247 -112q-127 0 -215.5 91t-88.5 220q0 153 122.5 237t324.5 84h104v29q0 43 -31 68.5t-83 25.5q-48 0 -79 -22.5t-34 -63.5h-324q17 161 143.5 272t293.5 111zM455 264q65 0 110 36.5t47 86.5h-129
q-46 0 -74 -16.5t-28 -44.5t20 -45t54 -17z" />
    <glyph glyph-name="aacute.ss01" horiz-adv-x="1019" 
d="M956 1454l-272 -338h-338l180 338h430zM498 1032q227 0 343.5 -113t116.5 -305v-614h-346v92q-79 -112 -247 -112q-127 0 -215.5 91t-88.5 220q0 153 122.5 237t324.5 84h104v29q0 43 -31 68.5t-83 25.5q-48 0 -79 -22.5t-34 -63.5h-324q17 161 143.5 272t293.5 111z
M455 264q65 0 110 36.5t47 86.5h-129q-46 0 -74 -16.5t-28 -44.5t20 -45t54 -17z" />
    <glyph glyph-name="abreve.ss01" horiz-adv-x="1019" 
d="M524 1090q-162 0 -263.5 93t-100.5 251h276q-1 -47 23.5 -76t64.5 -29q39 0 63.5 29t24.5 76h277q0 -158 -102.5 -251t-262.5 -93zM498 1032q227 0 343.5 -113t116.5 -305v-614h-346v92q-79 -112 -247 -112q-127 0 -215.5 91t-88.5 220q0 153 122.5 237t324.5 84h104v29
q0 43 -31 68.5t-83 25.5q-48 0 -79 -22.5t-34 -63.5h-324q17 161 143.5 272t293.5 111zM455 264q65 0 110 36.5t47 86.5h-129q-46 0 -74 -16.5t-28 -44.5t20 -45t54 -17z" />
    <glyph glyph-name="acircumflex.ss01" horiz-adv-x="1019" 
d="M524 1231l-82 -115h-325l207 338h399l209 -338h-326zM498 1032q227 0 343.5 -113t116.5 -305v-614h-346v92q-79 -112 -247 -112q-127 0 -215.5 91t-88.5 220q0 153 122.5 237t324.5 84h104v29q0 43 -31 68.5t-83 25.5q-48 0 -79 -22.5t-34 -63.5h-324q17 161 143.5 272
t293.5 111zM455 264q65 0 110 36.5t47 86.5h-129q-46 0 -74 -16.5t-28 -44.5t20 -45t54 -17z" />
    <glyph glyph-name="adieresis.ss01" horiz-adv-x="1019" 
d="M274 1100q-88 0 -151.5 63.5t-63.5 151.5t63.5 151.5t151.5 63.5q89 0 152 -63.5t63 -151.5t-63 -151.5t-152 -63.5zM770 1100q-88 0 -151.5 63.5t-63.5 151.5t63.5 151.5t151.5 63.5q89 0 152 -63.5t63 -151.5t-63 -151.5t-152 -63.5zM498 1032q227 0 343.5 -113
t116.5 -305v-614h-346v92q-79 -112 -247 -112q-127 0 -215.5 91t-88.5 220q0 153 122.5 237t324.5 84h104v29q0 43 -31 68.5t-83 25.5q-48 0 -79 -22.5t-34 -63.5h-324q17 161 143.5 272t293.5 111zM455 264q65 0 110 36.5t47 86.5h-129q-46 0 -74 -16.5t-28 -44.5t20 -45
t54 -17z" />
    <glyph glyph-name="agrave.ss01" horiz-adv-x="1019" 
d="M721 1116h-338l-272 338h430zM498 1032q227 0 343.5 -113t116.5 -305v-614h-346v92q-79 -112 -247 -112q-127 0 -215.5 91t-88.5 220q0 153 122.5 237t324.5 84h104v29q0 43 -31 68.5t-83 25.5q-48 0 -79 -22.5t-34 -63.5h-324q17 161 143.5 272t293.5 111zM455 264
q65 0 110 36.5t47 86.5h-129q-46 0 -74 -16.5t-28 -44.5t20 -45t54 -17z" />
    <glyph glyph-name="amacron.ss01" horiz-adv-x="1019" 
d="M852 1411v-295h-655v295h655zM498 1032q227 0 343.5 -113t116.5 -305v-614h-346v92q-79 -112 -247 -112q-127 0 -215.5 91t-88.5 220q0 153 122.5 237t324.5 84h104v29q0 43 -31 68.5t-83 25.5q-48 0 -79 -22.5t-34 -63.5h-324q17 161 143.5 272t293.5 111zM455 264
q65 0 110 36.5t47 86.5h-129q-46 0 -74 -16.5t-28 -44.5t20 -45t54 -17z" />
    <glyph glyph-name="aogonek.ss01" horiz-adv-x="1019" 
d="M975 -106l88 -232q-41 -23 -117 -38t-153 -15q-114 0 -187.5 66t-73.5 167q0 106 80 195v55q-79 -112 -247 -112q-127 0 -215.5 91t-88.5 220q0 153 122.5 237t324.5 84h104v29q0 43 -31 68.5t-83 25.5q-48 0 -79 -22.5t-34 -63.5h-324q17 161 143.5 272t293.5 111
q227 0 343.5 -113t116.5 -305v-614q-47 -6 -76.5 -24.5t-29.5 -43.5q0 -22 18.5 -34.5t49.5 -12.5q18 0 55 9zM455 264q65 0 110 36.5t47 86.5h-129q-46 0 -74 -16.5t-28 -44.5t20 -45t54 -17z" />
    <glyph glyph-name="aring.ss01" horiz-adv-x="1019" 
d="M524 1100q-133 0 -225 89t-92 218q0 130 91.5 219.5t225.5 89.5q135 0 228.5 -89.5t93.5 -219.5q0 -129 -93.5 -218t-228.5 -89zM524 1507q-41 0 -69.5 -29.5t-28.5 -70.5t28.5 -69.5t69.5 -28.5q43 0 73 28.5t30 69.5t-30 70.5t-73 29.5zM498 1032q227 0 343.5 -113
t116.5 -305v-614h-346v92q-79 -112 -247 -112q-127 0 -215.5 91t-88.5 220q0 153 122.5 237t324.5 84h104v29q0 43 -31 68.5t-83 25.5q-48 0 -79 -22.5t-34 -63.5h-324q17 161 143.5 272t293.5 111zM455 264q65 0 110 36.5t47 86.5h-129q-46 0 -74 -16.5t-28 -44.5t20 -45
t54 -17z" />
    <glyph glyph-name="atilde.ss01" horiz-adv-x="1019" 
d="M385 1200q-24 0 -37.5 -25t-11.5 -67l-297 53q15 156 104 254t211 98q64 0 128 -25.5t108.5 -51t60.5 -25.5q26 0 43.5 24t20.5 64l295 -51q-19 -154 -110.5 -253t-209.5 -99q-53 0 -105.5 16t-86 36t-65 36t-48.5 16zM498 1032q227 0 343.5 -113t116.5 -305v-614h-346
v92q-79 -112 -247 -112q-127 0 -215.5 91t-88.5 220q0 153 122.5 237t324.5 84h104v29q0 43 -31 68.5t-83 25.5q-48 0 -79 -22.5t-34 -63.5h-324q17 161 143.5 272t293.5 111zM455 264q65 0 110 36.5t47 86.5h-129q-46 0 -74 -16.5t-28 -44.5t20 -45t54 -17z" />
    <glyph glyph-name="ae.ss01" horiz-adv-x="1839" 
d="M1794 537q0 -48 -8 -134h-688q20 -57 69 -88.5t117 -31.5q112 0 133 69h361q-23 -170 -155 -271t-329 -101q-189 0 -336 112v-92h-346v92q-79 -112 -247 -112q-127 0 -215.5 91t-88.5 220q0 153 122.5 237t324.5 84h104v29q0 43 -31 68.5t-83 25.5q-48 0 -79 -22.5
t-34 -63.5h-324q17 161 143.5 272t293.5 111q278 0 393 -170q74 80 176.5 125t220.5 45q136 0 252 -65t185 -179t69 -251zM1110 635h299q-6 45 -46 72.5t-93 27.5q-118 0 -160 -100zM455 264q65 0 110 36.5t47 86.5h-129q-46 0 -74 -16.5t-28 -44.5t20 -45t54 -17z" />
    <glyph glyph-name="aeacute.ss01" horiz-adv-x="1839" 
d="M1352 1454l-273 -338h-338l181 338h430zM1794 537q0 -48 -8 -134h-688q20 -57 69 -88.5t117 -31.5q112 0 133 69h361q-23 -170 -155 -271t-329 -101q-189 0 -336 112v-92h-346v92q-79 -112 -247 -112q-127 0 -215.5 91t-88.5 220q0 153 122.5 237t324.5 84h104v29
q0 43 -31 68.5t-83 25.5q-48 0 -79 -22.5t-34 -63.5h-324q17 161 143.5 272t293.5 111q278 0 393 -170q74 80 176.5 125t220.5 45q136 0 252 -65t185 -179t69 -251zM1110 635h299q-6 45 -46 72.5t-93 27.5q-118 0 -160 -100zM455 264q65 0 110 36.5t47 86.5h-129
q-46 0 -74 -16.5t-28 -44.5t20 -45t54 -17z" />
    <glyph glyph-name="a.ss02" horiz-adv-x="1028" 
d="M104 1012h846v-1012h-368v92q-79 -112 -248 -112q-127 0 -215 91t-88 220q0 153 122 237t324 84h105v88h-478v312zM424 264q65 0 110.5 36.5t47.5 86.5h-129q-46 0 -74.5 -16.5t-28.5 -44.5t20 -45t54 -17z" />
    <glyph glyph-name="aacute.ss02" horiz-adv-x="1028" 
d="M956 1454l-272 -338h-338l180 338h430zM104 700v312h846v-1012h-368v92q-79 -112 -248 -112q-127 0 -215 91t-88 220q0 153 122 237t324 84h105v88h-478zM424 264q65 0 110.5 36.5t47.5 86.5h-129q-46 0 -74.5 -16.5t-28.5 -44.5t20 -45t54 -17z" />
    <glyph glyph-name="abreve.ss02" horiz-adv-x="1028" 
d="M524 1090q-162 0 -263.5 93t-100.5 251h276q-1 -47 23.5 -76t64.5 -29q39 0 63.5 29t24.5 76h277q0 -158 -102.5 -251t-262.5 -93zM104 1012h846v-1012h-368v92q-79 -112 -248 -112q-127 0 -215 91t-88 220q0 153 122 237t324 84h105v88h-478v312zM424 264
q65 0 110.5 36.5t47.5 86.5h-129q-46 0 -74.5 -16.5t-28.5 -44.5t20 -45t54 -17z" />
    <glyph glyph-name="acircumflex.ss02" horiz-adv-x="1028" 
d="M524 1231l-82 -115h-325l207 338h399l209 -338h-326zM104 1012h846v-1012h-368v92q-79 -112 -248 -112q-127 0 -215 91t-88 220q0 153 122 237t324 84h105v88h-478v312zM424 264q65 0 110.5 36.5t47.5 86.5h-129q-46 0 -74.5 -16.5t-28.5 -44.5t20 -45t54 -17z" />
    <glyph glyph-name="adieresis.ss02" horiz-adv-x="1028" 
d="M274 1100q-88 0 -151.5 63.5t-63.5 151.5t63.5 151.5t151.5 63.5q89 0 152 -63.5t63 -151.5t-63 -151.5t-152 -63.5zM770 1100q-88 0 -151.5 63.5t-63.5 151.5t63.5 151.5t151.5 63.5q89 0 152 -63.5t63 -151.5t-63 -151.5t-152 -63.5zM104 700v312h846v-1012h-368v92
q-79 -112 -248 -112q-127 0 -215 91t-88 220q0 153 122 237t324 84h105v88h-478zM424 264q65 0 110.5 36.5t47.5 86.5h-129q-46 0 -74.5 -16.5t-28.5 -44.5t20 -45t54 -17z" />
    <glyph glyph-name="agrave.ss02" horiz-adv-x="1001" 
d="M711 1116h-338l-273 338h430zM104 1012h846v-1012h-368v92q-79 -112 -248 -112q-127 0 -215 91t-88 220q0 153 122 237t324 84h105v88h-478v312zM424 264q65 0 110.5 36.5t47.5 86.5h-129q-46 0 -74.5 -16.5t-28.5 -44.5t20 -45t54 -17z" />
    <glyph glyph-name="amacron.ss02" horiz-adv-x="1028" 
d="M852 1411v-295h-655v295h655zM104 1012h846v-1012h-368v92q-79 -112 -248 -112q-127 0 -215 91t-88 220q0 153 122 237t324 84h105v88h-478v312zM424 264q65 0 110.5 36.5t47.5 86.5h-129q-46 0 -74.5 -16.5t-28.5 -44.5t20 -45t54 -17z" />
    <glyph glyph-name="aogonek.ss02" horiz-adv-x="1028" 
d="M967 -106l88 -232q-41 -23 -117.5 -38t-153.5 -15q-114 0 -187 66t-73 167q0 86 58 166v84q-79 -112 -248 -112q-127 0 -215 91t-88 220q0 153 122 237t324 84h105v88h-478v312h846v-1012q-47 -6 -76.5 -24.5t-29.5 -43.5q0 -22 18 -34.5t49 -12.5q19 0 56 9zM424 264
q65 0 110.5 36.5t47.5 86.5h-129q-46 0 -74.5 -16.5t-28.5 -44.5t20 -45t54 -17z" />
    <glyph glyph-name="aring.ss02" horiz-adv-x="1028" 
d="M524 1100q-133 0 -225 89t-92 218q0 130 91.5 219.5t225.5 89.5q135 0 228.5 -89.5t93.5 -219.5q0 -129 -93.5 -218t-228.5 -89zM524 1507q-41 0 -69.5 -29.5t-28.5 -70.5t28.5 -69.5t69.5 -28.5q43 0 73 28.5t30 69.5t-30 70.5t-73 29.5zM104 1012h846v-1012h-368v92
q-79 -112 -248 -112q-127 0 -215 91t-88 220q0 153 122 237t324 84h105v88h-478v312zM424 264q65 0 110.5 36.5t47.5 86.5h-129q-46 0 -74.5 -16.5t-28.5 -44.5t20 -45t54 -17z" />
    <glyph glyph-name="atilde.ss02" horiz-adv-x="1028" 
d="M385 1200q-24 0 -37.5 -25t-11.5 -67l-297 53q15 156 104 254t211 98q64 0 128 -25.5t108.5 -51t60.5 -25.5q26 0 43.5 24t20.5 64l295 -51q-19 -154 -110.5 -253t-209.5 -99q-53 0 -105.5 16t-86 36t-65 36t-48.5 16zM104 700v312h846v-1012h-368v92q-79 -112 -248 -112
q-127 0 -215 91t-88 220q0 153 122 237t324 84h105v88h-478zM424 264q65 0 110.5 36.5t47.5 86.5h-129q-46 0 -74.5 -16.5t-28.5 -44.5t20 -45t54 -17z" />
    <glyph glyph-name="ae.ss02" horiz-adv-x="1732" 
d="M1688 537q0 -37 -9 -134h-688q20 -57 69.5 -88.5t117.5 -31.5q112 0 133 69h360q-23 -170 -154.5 -271t-328.5 -101q-194 0 -320 120v-100h-286v92q-79 -112 -248 -112q-127 0 -215 91t-88 220q0 157 124 246.5t343 89.5h84v73h-478v312h764v-94q124 114 314 114
q136 0 252 -65t185 -179t69 -251zM1004 635h299q-6 44 -46.5 72t-93.5 28q-117 0 -159 -100zM424 264q65 0 111.5 37.5t46.5 87.5v12h-109q-64 0 -93.5 -21.5t-29.5 -53.5q0 -28 20 -45t54 -17z" />
    <glyph glyph-name="aeacute.ss02" horiz-adv-x="1732" 
d="M1298 1454l-272 -338h-338l180 338h430zM1688 537q0 -37 -9 -134h-688q20 -57 69.5 -88.5t117.5 -31.5q112 0 133 69h360q-23 -170 -154.5 -271t-328.5 -101q-194 0 -320 120v-100h-286v92q-79 -112 -248 -112q-127 0 -215 91t-88 220q0 157 124 246.5t343 89.5h84v73
h-478v312h764v-94q124 114 314 114q136 0 252 -65t185 -179t69 -251zM1004 635h299q-6 44 -46.5 72t-93.5 28q-117 0 -159 -100zM424 264q65 0 111.5 37.5t46.5 87.5v12h-109q-64 0 -93.5 -21.5t-29.5 -53.5q0 -28 20 -45t54 -17z" />
    <glyph glyph-name="c.ss03" horiz-adv-x="901" 
d="M844 659h-398v-307h398v-352h-766v1012h766v-353z" />
    <glyph glyph-name="cacute.ss03" horiz-adv-x="901" 
d="M911 1454l-272 -338h-338l180 338h430zM844 659h-398v-307h398v-352h-766v1012h766v-353z" />
    <glyph glyph-name="ccaron.ss03" horiz-adv-x="901" 
d="M279 1116l-207 338h325l82 -115l82 115h326l-209 -338h-399zM78 0v1012h766v-353h-398v-307h398v-352h-766z" />
    <glyph glyph-name="ccedilla.ss03" horiz-adv-x="901" 
d="M844 659h-398v-307h398v-352h-197q65 -91 70.5 -181t-39.5 -154.5t-141.5 -99t-223.5 -20.5l-84 260q113 -8 166.5 20.5t48.5 75t-53 99.5h-313v1012h766v-353z" />
    <glyph glyph-name="ccircumflex.ss03" horiz-adv-x="901" 
d="M479 1231l-82 -115h-325l207 338h399l209 -338h-326zM78 0v1012h766v-353h-398v-307h398v-352h-766z" />
    <glyph glyph-name="cdotaccent.ss03" horiz-adv-x="901" 
d="M479 1530q89 0 152 -63.5t63 -151.5t-63 -151.5t-152 -63.5q-88 0 -151.5 63.5t-63.5 151.5t63.5 151.5t151.5 63.5zM844 659h-398v-307h398v-352h-766v1012h766v-353z" />
    <glyph glyph-name="g.ss04" horiz-adv-x="1191" 
d="M745 1012h369v-1319h-928v307h559v182q-94 -108 -262 -108q-120 0 -221 64.5t-159 174.5t-58 240q0 197 128 338t310 141q169 0 262 -110v90zM569 393q72 0 123 47t51 113t-51 112t-123 46t-123 -46t-51 -112t51 -113t123 -47z" />
    <glyph glyph-name="gbreve.ss04" horiz-adv-x="1191" 
d="M606 1090q-162 0 -263.5 93t-100.5 251h276q-1 -47 23.5 -76t64.5 -29q39 0 63.5 29t24.5 76h277q0 -158 -102.5 -251t-262.5 -93zM745 1012h369v-1319h-928v307h559v182q-94 -108 -262 -108q-120 0 -221 64.5t-159 174.5t-58 240q0 197 128 338t310 141q169 0 262 -110
v90zM569 393q72 0 123 47t51 113t-51 112t-123 46t-123 -46t-51 -112t51 -113t123 -47z" />
    <glyph glyph-name="gcircumflex.ss04" horiz-adv-x="1191" 
d="M606 1231l-82 -115h-325l207 338h399l209 -338h-326zM745 1012h369v-1319h-928v307h559v182q-94 -108 -262 -108q-120 0 -221 64.5t-159 174.5t-58 240q0 197 128 338t310 141q169 0 262 -110v90zM569 393q72 0 123 47t51 113t-51 112t-123 46t-123 -46t-51 -112t51 -113
t123 -47z" />
    <glyph glyph-name="uni0123.ss04" horiz-adv-x="1191" 
d="M1042 1475l-180 -338h-430l273 338h337zM745 1012h369v-1319h-928v307h559v182q-94 -108 -262 -108q-120 0 -221 64.5t-159 174.5t-58 240q0 197 128 338t310 141q169 0 262 -110v90zM569 393q72 0 123 47t51 113t-51 112t-123 46t-123 -46t-51 -112t51 -113t123 -47z
" />
    <glyph glyph-name="gdotaccent.ss04" horiz-adv-x="1191" 
d="M606 1100q-88 0 -151.5 63.5t-63.5 151.5t63.5 151.5t151.5 63.5q89 0 152 -63.5t63 -151.5t-63 -151.5t-152 -63.5zM745 1012h369v-1319h-928v307h559v182q-94 -108 -262 -108q-120 0 -221 64.5t-159 174.5t-58 240q0 197 128 338t310 141q169 0 262 -110v90zM569 393
q72 0 123 47t51 113t-51 112t-123 46t-123 -46t-51 -112t51 -113t123 -47z" />
    <glyph glyph-name="h.ss05" 
d="M446 1434v-422h605v-1012h-369v659h-236v-659h-368v1434h368z" />
    <glyph glyph-name="hbar.ss05" 
d="M446 1012h605v-1012h-369v659h-236v-659h-368v1096h-180v241h180v97h368v-97h179v-241h-179v-84z" />
    <glyph glyph-name="hcircumflex.ss05" 
d="M262 1653l-82 -115h-325l206 338h400l209 -338h-326zM446 1012h605v-1012h-369v659h-236v-659h-368v1434h368v-422z" />
    <glyph glyph-name="j.ss06" horiz-adv-x="524" 
d="M262 1530q89 0 152 -63.5t63 -151.5t-63 -151.5t-152 -63.5q-88 0 -151.5 63.5t-63.5 151.5t63.5 151.5t151.5 63.5zM446 1012v-1319h-368v1319h368z" />
    <glyph glyph-name="uni0237.ss06" horiz-adv-x="524" 
d="M446 1012v-1319h-368v1319h368z" />
    <glyph glyph-name="jcircumflex.ss06" horiz-adv-x="524" 
d="M262 1231l-82 -115h-325l206 338h400l209 -338h-326zM78 -307v1319h368v-1319h-368z" />
    <glyph glyph-name="l.ss07" horiz-adv-x="624" 
d="M446 1434v-1082h148v-352h-516v1434h368z" />
    <glyph glyph-name="lacute.ss07" horiz-adv-x="624" 
d="M705 1876l-273 -338h-338l180 338h431zM446 1434v-1082h148v-352h-516v1434h368z" />
    <glyph glyph-name="lcaron.ss07" horiz-adv-x="903" 
d="M520 1116l37 447h385l-117 -447h-305zM446 1434v-1082h148v-352h-516v1434h368z" />
    <glyph glyph-name="uni013C.ss07" horiz-adv-x="624" 
d="M446 1434v-1082h148v-352h-516v1434h368zM625 -121l-273 -338h-338l181 338h430z" />
    <glyph glyph-name="ldot.ss07" horiz-adv-x="952" 
d="M446 1434v-1082h148v-352h-516v1434h368zM721 578q-95 0 -160 64t-65 157q0 92 65 155.5t160 63.5t160 -63.5t65 -155.5q0 -93 -65 -157t-160 -64z" />
    <glyph glyph-name="lslash.ss07" horiz-adv-x="624" 
d="M446 352h148v-352h-516v500l-109 -51v339l109 50v596h368v-424l109 49v-338l-109 -51v-318z" />
    <glyph glyph-name="m.ss08" horiz-adv-x="1691" 
d="M1614 1012v-1012h-369v659h-215v-659h-368v659h-216v-659h-368v1012h1536z" />
    <glyph glyph-name="n.ss09" 
d="M1051 1012v-1012h-369v659h-236v-659h-368v1012h973z" />
    <glyph glyph-name="nacute.ss09" 
d="M995 1454l-272 -338h-338l180 338h430zM1051 1012v-1012h-369v659h-236v-659h-368v1012h973z" />
    <glyph glyph-name="ncaron.ss09" 
d="M362 1116l-206 338h325l82 -115l82 115h326l-209 -338h-400zM78 1012h973v-1012h-369v659h-236v-659h-368v1012z" />
    <glyph glyph-name="uni0146.ss09" 
d="M1051 1012v-1012h-369v659h-236v-659h-368v1012h973zM819 -121l-272 -338h-338l180 338h430z" />
    <glyph glyph-name="eng.ss09" horiz-adv-x="1157" 
d="M78 1012h973v-1012q0 -170 -120.5 -273.5t-318.5 -103.5q-43 0 -118 10l49 326q20 -4 41 -4q43 0 70.5 20t27.5 64v620h-236v-659h-368v1012z" />
    <glyph glyph-name="ntilde.ss09" 
d="M78 1161q15 156 104 254t211 98q64 0 128 -25.5t108.5 -51t60.5 -25.5q26 0 43.5 24t20.5 64l295 -51q-19 -154 -110.5 -253t-209.5 -99q-53 0 -105.5 16t-86 36t-65 36t-48.5 16q-24 0 -37.5 -25t-11.5 -67zM1051 1012v-1012h-369v659h-236v-659h-368v1012h973z" />
    <glyph glyph-name="o.ss10" horiz-adv-x="1124" 
d="M1047 1012v-1012h-969v1012h969zM680 659h-236v-307h236v307z" />
    <glyph glyph-name="oacute.ss10" horiz-adv-x="1124" 
d="M995 1454l-272 -338h-338l180 338h430zM1047 1012v-1012h-969v1012h969zM680 659h-236v-307h236v307z" />
    <glyph glyph-name="obreve.ss10" horiz-adv-x="1124" 
d="M928 1434q0 -158 -102.5 -251t-262.5 -93q-162 0 -263.5 93t-100.5 251h276q-1 -47 23.5 -76t64.5 -29q39 0 63.5 29t24.5 76h277zM1047 1012v-1012h-969v1012h969zM680 659h-236v-307h236v307z" />
    <glyph glyph-name="ocircumflex.ss10" horiz-adv-x="1124" 
d="M563 1231l-82 -115h-325l206 338h400l209 -338h-326zM78 1012h969v-1012h-969v1012zM680 352v307h-236v-307h236z" />
    <glyph glyph-name="odieresis.ss10" horiz-adv-x="1124" 
d="M313 1530q89 0 152 -63.5t63 -151.5t-63 -151.5t-152 -63.5q-88 0 -151.5 63.5t-63.5 151.5t63.5 151.5t151.5 63.5zM809 1530q89 0 152 -63.5t63 -151.5t-63 -151.5t-152 -63.5q-88 0 -151.5 63.5t-63.5 151.5t63.5 151.5t151.5 63.5zM1047 1012v-1012h-969v1012h969z
M680 659h-236v-307h236v307z" />
    <glyph glyph-name="ograve.ss10" horiz-adv-x="1124" 
d="M150 1454h430l180 -338h-338zM1047 1012v-1012h-969v1012h969zM680 659h-236v-307h236v307z" />
    <glyph glyph-name="ohungarumlaut.ss10" horiz-adv-x="1124" 
d="M489 1116l115 338h-377l-114 -338h376zM1004 1116l116 338h-377l-116 -338h377zM1047 1012v-1012h-969v1012h969zM680 659h-236v-307h236v307z" />
    <glyph glyph-name="omacron.ss10" horiz-adv-x="1124" 
d="M236 1116v295h655v-295h-655zM1047 1012v-1012h-969v1012h969zM680 659h-236v-307h236v307z" />
    <glyph glyph-name="oslash.ss10" horiz-adv-x="1124" 
d="M78 1012h969v-1012h-969v1012zM623 713h-240v-252zM489 299h252v262z" />
    <glyph glyph-name="otilde.ss10" horiz-adv-x="1124" 
d="M78 1161q15 156 104 254t211 98q64 0 128 -25.5t108.5 -51t60.5 -25.5q26 0 43.5 24t20.5 64l295 -51q-19 -154 -110.5 -253t-209.5 -99q-53 0 -105.5 16t-86 36t-65 36t-48.5 16q-24 0 -37.5 -25t-11.5 -67zM1047 1012v-1012h-969v1012h969zM680 659h-236v-307h236v307z
" />
    <glyph glyph-name="oe.ss10" horiz-adv-x="1912" 
d="M1868 537q0 -48 -8 -134h-689q20 -57 69.5 -88.5t117.5 -31.5q112 0 133 69h360q-23 -170 -154.5 -271t-328.5 -101q-182 0 -321 102v-82h-969v1012h969v-78q137 98 315 98q136 0 252 -65t185 -179t69 -251zM1184 635h299q-6 44 -46.5 72t-93.5 28q-117 0 -159 -100z
M680 352v307h-236v-307h236z" />
    <glyph glyph-name="r.ss11" horiz-adv-x="780" 
d="M750 1012v-353h-306v-659h-366v1012h672z" />
    <glyph glyph-name="racute.ss11" horiz-adv-x="780" 
d="M819 1454l-272 -338h-338l180 338h430zM750 1012v-353h-306v-659h-366v1012h672z" />
    <glyph glyph-name="rcaron.ss11" horiz-adv-x="780" 
d="M186 1116l-206 338h325l82 -115l82 115h326l-209 -338h-400zM78 0v1012h672v-353h-306v-659h-366z" />
    <glyph glyph-name="uni0157.ss11" horiz-adv-x="780" 
d="M750 1012v-353h-306v-659h-366v1012h672zM504 -121l-273 -338h-337l180 338h430z" />
    <glyph glyph-name="s.ss12" horiz-adv-x="913" 
d="M508 0h-432v276h434q11 0 19 7.5t8 17.5q0 14 -28 25t-73 21t-99 23t-108 37t-99 56t-73 85.5t-28 121.5q0 160 116.5 251t319.5 91h375v-277h-414q-11 0 -19 -7t-8 -17q0 -17 27 -30t70 -24.5t95 -26t104 -39t95 -58t70 -89t27 -125.5q0 -145 -99.5 -232t-279.5 -87z
" />
    <glyph glyph-name="sacute.ss12" horiz-adv-x="913" 
d="M909 1454l-272 -338h-338l180 338h430zM508 0h-432v276h434q11 0 19 7.5t8 17.5q0 14 -28 25t-73 21t-99 23t-108 37t-99 56t-73 85.5t-28 121.5q0 160 116.5 251t319.5 91h375v-277h-414q-11 0 -19 -7t-8 -17q0 -17 27 -30t70 -24.5t95 -26t104 -39t95 -58t70 -89
t27 -125.5q0 -145 -99.5 -232t-279.5 -87z" />
    <glyph glyph-name="scaron.ss12" horiz-adv-x="913" 
d="M276 1116l-206 338h325l82 -115l82 115h326l-209 -338h-400zM399 711q0 -17 27 -30t70 -24.5t95 -26t104 -39t95 -58t70 -89t27 -125.5q0 -145 -99.5 -232t-279.5 -87h-432v276h434q11 0 19 7.5t8 17.5q0 14 -28 25t-73 21t-99 23t-108 37t-99 56t-73 85.5t-28 121.5
q0 160 116.5 251t319.5 91h375v-277h-414q-11 0 -19 -7t-8 -17z" />
    <glyph glyph-name="scedilla.ss12" horiz-adv-x="913" 
d="M887 319q0 -126 -76 -209.5t-217 -103.5q54 -73 70.5 -147.5t-6 -135t-73 -105.5t-134.5 -65t-187 -8l-84 260q113 -8 166.5 20.5t48.5 75t-53 99.5h-266v276h434q11 0 19 7.5t8 17.5q0 14 -28 25t-73 21t-99 23t-108 37t-99 56t-73 85.5t-28 121.5q0 160 116.5 251
t319.5 91h375v-277h-414q-11 0 -19 -7t-8 -17q0 -17 27 -30t70 -24.5t95 -26t104 -39t95 -58t70 -89t27 -125.5z" />
    <glyph glyph-name="scircumflex.ss12" horiz-adv-x="913" 
d="M477 1231l-82 -115h-325l206 338h400l209 -338h-326zM399 711q0 -17 27 -30t70 -24.5t95 -26t104 -39t95 -58t70 -89t27 -125.5q0 -145 -99.5 -232t-279.5 -87h-432v276h434q11 0 19 7.5t8 17.5q0 14 -28 25t-73 21t-99 23t-108 37t-99 56t-73 85.5t-28 121.5
q0 160 116.5 251t319.5 91h375v-277h-414q-11 0 -19 -7t-8 -17z" />
    <glyph glyph-name="uni0219.ss12" horiz-adv-x="913" 
d="M508 0h-432v276h434q11 0 19 7.5t8 17.5q0 14 -28 25t-73 21t-99 23t-108 37t-99 56t-73 85.5t-28 121.5q0 160 116.5 251t319.5 91h375v-277h-414q-11 0 -19 -7t-8 -17q0 -17 27 -30t70 -24.5t95 -26t104 -39t95 -58t70 -89t27 -125.5q0 -145 -99.5 -232t-279.5 -87z
M719 -121l-273 -338h-337l180 338h430z" />
    <glyph glyph-name="t.ss13" horiz-adv-x="806" 
d="M776 1012v-353h-188v-659h-369v659h-188v353h188v256h369v-256h188z" />
    <glyph glyph-name="tbar.ss13" horiz-adv-x="806" 
d="M776 659h-188v-110h143v-182h-143v-367h-369v367h-143v182h143v110h-188v353h188v256h369v-256h188v-353z" />
    <glyph glyph-name="tcaron.ss13" horiz-adv-x="806" 
d="M670 1563h385l-117 -447h-305zM588 1268v-256h188v-353h-188v-659h-369v659h-188v353h188v256h369z" />
    <glyph glyph-name="uni0163.ss13" horiz-adv-x="806" 
d="M776 659h-188v-649q56 -74 73.5 -149t-4.5 -136t-72.5 -106.5t-135 -65.5t-187.5 -8l-84 260q113 -8 166.5 20.5t48.5 75t-53 99.5h-121v659h-188v353h188v256h369v-256h188v-353z" />
    <glyph glyph-name="uni021B.ss13" horiz-adv-x="806" 
d="M588 1012h188v-353h-188v-659h-369v659h-188v353h188v256h369v-256zM49 -459l180 338h430l-272 -338h-338z" />
    <glyph glyph-name="u.ss14" horiz-adv-x="1161" 
d="M1073 1012v-541q0 -215 -138 -353t-353 -138q-216 0 -355 138t-139 353v541h367v-541q0 -63 34.5 -100t92.5 -37q57 0 91 37t34 100v541h366z" />
    <glyph glyph-name="uacute.ss14" horiz-adv-x="1161" 
d="M1016 1454l-273 -338h-337l180 338h430zM1073 1012v-541q0 -215 -138 -353t-353 -138q-216 0 -355 138t-139 353v541h367v-541q0 -63 34.5 -100t92.5 -37q57 0 91 37t34 100v541h366z" />
    <glyph glyph-name="ucircumflex.ss14" horiz-adv-x="1161" 
d="M584 1231l-82 -115h-326l207 338h399l209 -338h-325zM707 1012h366v-541q0 -215 -138 -353t-353 -138q-216 0 -355 138t-139 353v541h367v-541q0 -63 34.5 -100t92.5 -37q57 0 91 37t34 100v541z" />
    <glyph glyph-name="udieresis.ss14" horiz-adv-x="1161" 
d="M334 1530q89 0 152 -63.5t63 -151.5t-63 -151.5t-152 -63.5q-88 0 -151.5 63.5t-63.5 151.5t63.5 151.5t151.5 63.5zM829 1530q89 0 152 -63.5t63 -151.5t-63 -151.5t-152 -63.5q-88 0 -151.5 63.5t-63.5 151.5t63.5 151.5t151.5 63.5zM1073 1012v-541q0 -215 -138 -353
t-353 -138q-216 0 -355 138t-139 353v541h367v-541q0 -63 34.5 -100t92.5 -37q57 0 91 37t34 100v541h366z" />
    <glyph glyph-name="ugrave.ss14" horiz-adv-x="1161" 
d="M170 1454h430l180 -338h-338zM1073 1012v-541q0 -215 -138 -353t-353 -138q-216 0 -355 138t-139 353v541h367v-541q0 -63 34.5 -100t92.5 -37q57 0 91 37t34 100v541h366z" />
    <glyph glyph-name="uhungarumlaut.ss14" horiz-adv-x="1161" 
d="M510 1116l115 338h-377l-115 -338h377zM1024 1116l117 338h-377l-117 -338h377zM1073 1012v-541q0 -215 -138 -353t-353 -138q-216 0 -355 138t-139 353v541h367v-541q0 -63 34.5 -100t92.5 -37q57 0 91 37t34 100v541h366z" />
    <glyph glyph-name="umacron.ss14" horiz-adv-x="1161" 
d="M256 1116v295h655v-295h-655zM1073 1012v-541q0 -215 -138 -353t-353 -138q-216 0 -355 138t-139 353v541h367v-541q0 -63 34.5 -100t92.5 -37q57 0 91 37t34 100v541h366z" />
    <glyph glyph-name="uogonek.ss14" horiz-adv-x="1161" 
d="M707 1012h366v-541q0 -190 -109 -322t-288 -161q-53 -19 -53 -56q0 -22 18 -34.5t49 -12.5q18 0 55 9l89 -232q-41 -23 -117.5 -38t-153.5 -15q-114 0 -187 66t-73 167q0 94 68 178q-131 58 -207 177t-76 274v541h367v-541q0 -63 34.5 -100t92.5 -37q57 0 91 37t34 100
v541z" />
    <glyph glyph-name="uring.ss14" horiz-adv-x="1161" 
d="M584 1100q-134 0 -226 89t-92 218q0 130 92 219.5t226 89.5q135 0 228 -89.5t93 -219.5q0 -129 -93 -218t-228 -89zM584 1309q43 0 72.5 28.5t29.5 69.5t-29.5 70.5t-72.5 29.5q-41 0 -70 -29.5t-29 -70.5t29 -69.5t70 -28.5zM1073 1012v-541q0 -215 -138 -353t-353 -138
q-216 0 -355 138t-139 353v541h367v-541q0 -63 34.5 -100t92.5 -37q57 0 91 37t34 100v541h366z" />
    <glyph glyph-name="utilde.ss14" horiz-adv-x="1161" 
d="M98 1161q15 156 104.5 254t211.5 98q64 0 128 -25.5t108.5 -51t60.5 -25.5q26 0 43 24t20 64l295 -51q-19 -154 -110 -253t-209 -99q-53 0 -106 16t-86 36t-65 36t-49 16q-24 0 -37.5 -25t-11.5 -67zM1073 1012v-541q0 -215 -138 -353t-353 -138q-216 0 -355 138
t-139 353v541h367v-541q0 -63 34.5 -100t92.5 -37q57 0 91 37t34 100v541h366z" />
    <glyph glyph-name="u.ss15" 
d="M1051 0h-973v1012h368v-660h236v660h369v-1012z" />
    <glyph glyph-name="uacute.ss15" 
d="M997 1454l-272 -338h-338l180 338h430zM1051 0h-973v1012h368v-660h236v660h369v-1012z" />
    <glyph glyph-name="ucircumflex.ss15" 
d="M565 1231l-82 -115h-325l207 338h399l209 -338h-326zM682 1012h369v-1012h-973v1012h368v-660h236v660z" />
    <glyph glyph-name="udieresis.ss15" 
d="M315 1530q89 0 152 -63.5t63 -151.5t-63 -151.5t-152 -63.5q-88 0 -151.5 63.5t-63.5 151.5t63.5 151.5t151.5 63.5zM811 1530q89 0 152 -63.5t63 -151.5t-63 -151.5t-152 -63.5q-88 0 -151.5 63.5t-63.5 151.5t63.5 151.5t151.5 63.5zM1051 0h-973v1012h368v-660h236
v660h369v-1012z" />
    <glyph glyph-name="ugrave.ss15" 
d="M152 1454h430l180 -338h-338zM1051 0h-973v1012h368v-660h236v660h369v-1012z" />
    <glyph glyph-name="uhungarumlaut.ss15" 
d="M492 1116l114 338h-377l-114 -338h377zM1006 1116l116 338h-377l-116 -338h377zM1051 0h-973v1012h368v-660h236v660h369v-1012z" />
    <glyph glyph-name="umacron.ss15" 
d="M238 1116v295h655v-295h-655zM1051 0h-973v1012h368v-660h236v660h369v-1012z" />
    <glyph glyph-name="uogonek.ss15" 
d="M791 0q-48 -6 -77.5 -24.5t-29.5 -43.5q0 -22 18.5 -34.5t49.5 -12.5q18 0 55 9l88 -232q-41 -23 -117 -38t-153 -15q-114 0 -187 66t-73 167q0 82 51 158h-338v1012h368v-660h236v660h369v-1012h-260z" />
    <glyph glyph-name="uring.ss15" 
d="M565 1100q-133 0 -225 89t-92 218q0 130 91.5 219.5t225.5 89.5q135 0 228.5 -89.5t93.5 -219.5q0 -129 -93.5 -218t-228.5 -89zM565 1309q43 0 73 28.5t30 69.5t-30 70.5t-73 29.5q-41 0 -69.5 -29.5t-28.5 -70.5t28.5 -69.5t69.5 -28.5zM1051 0h-973v1012h368v-660h236
v660h369v-1012z" />
    <glyph glyph-name="utilde.ss15" 
d="M80 1161q15 156 104 254t211 98q64 0 128 -25.5t108.5 -51t60.5 -25.5q26 0 43.5 24t20.5 64l295 -51q-19 -154 -110.5 -253t-209.5 -99q-53 0 -105.5 16t-86 36t-65 36t-48.5 16q-24 0 -37.5 -25t-11.5 -67zM1051 0h-973v1012h368v-660h236v660h369v-1012z" />
    <glyph glyph-name="uni00CD00A40301" horiz-adv-x="1273" 
d="M705 1876l-273 -338h-338l180 338h431zM1440 1876l-273 -338h-338l181 338h430zM78 1434h389v-1434h-389v1434zM606 356q14 -2 62 -2q72 0 110.5 31t38.5 111v938h389v-1049q0 -173 -122.5 -286t-295.5 -113q-113 0 -182 14v356z" />
    <glyph glyph-name="T_h.dlig" horiz-adv-x="2174" 
d="M1688 1032q193 0 301 -123.5t108 -343.5v-565h-368v516q0 73 -38.5 117.5t-101.5 44.5q-61 0 -98 -44t-37 -118v-516h-369v1061h-272v-1061h-389v1061h-389v373h1419v-523q88 121 234 121z" />
    <glyph glyph-name="T_i.dlig" horiz-adv-x="1529" 
d="M1202 1061h-389v-1061h-389v1061h-389v373h1167v-373zM1083 1012h369v-1012h-369v1012z" />
    <glyph glyph-name="f_f.dlig" horiz-adv-x="1634" 
d="M1507 1149q-66 0 -109.5 -33t-43.5 -94v-10h229v-353h-229v-659h-369v659h-385v-659h-369v659h-180v353h180v16q0 216 120.5 343.5t314.5 127.5q96 0 163 -18v-340q-31 8 -75 8q-66 0 -110 -33.5t-44 -93.5v-10h385v16q0 216 120 343.5t314 127.5q97 0 164 -18v-340
q-31 8 -76 8z" />
    <glyph glyph-name="f_f_i.dlig" horiz-adv-x="2146" 
d="M2068 1012v-1012h-368v659h-346v-659h-369v659h-385v-659h-369v659h-180v353h180v16q0 216 120.5 343.5t314.5 127.5q96 0 163 -18v-340q-31 8 -75 8q-66 0 -110 -33.5t-44 -93.5v-10h385v16q0 216 120 343.5t314 127.5q97 0 164 -18v-340q-31 8 -76 8q-66 0 -109.5 -33
t-43.5 -94v-10h714z" />
    <glyph glyph-name="f_f_t.dlig" horiz-adv-x="2359" 
d="M2306 659h-229v-200q0 -61 43.5 -94t109.5 -33q45 0 76 8v-340q-68 -18 -164 -18q-194 0 -314 127.5t-120 343.5v206h-354v-659h-369v659h-385v-659h-369v659h-180v353h180v16q0 216 120.5 343.5t314.5 127.5q96 0 163 -18v-340q-31 8 -75 8q-66 0 -110 -33.5t-44 -93.5
v-10h385v16q0 216 120 343.5t314 127.5q97 0 164 -18v-340q-31 8 -76 8q-66 0 -109.5 -33t-43.5 -94v-10h354v256h369v-256h229v-353z" />
    <glyph glyph-name="f_i.dlig" horiz-adv-x="1392" 
d="M1315 1012v-1012h-369v659h-346v-659h-369v659h-180v353h180v16q0 216 120.5 343.5t314.5 127.5q96 0 163 -18v-340q-31 8 -75 8q-66 0 -110 -33.5t-44 -93.5v-10h715z" />
    <glyph glyph-name="f_l.dlig" horiz-adv-x="1392" 
d="M946 1434h369v-1434h-369v659h-346v-659h-369v659h-180v353h180v16q0 216 120.5 343.5t314.5 127.5q96 0 163 -18v-340q-31 8 -75 8q-66 0 -110 -33.5t-44 -93.5v-10h346v422z" />
    <glyph glyph-name="f_t.dlig" horiz-adv-x="1605" 
d="M1552 659h-229v-200q0 -60 44 -93.5t110 -33.5q44 0 75 8v-340q-68 -18 -163 -18q-194 0 -314.5 127.5t-120.5 343.5v206h-354v-659h-369v659h-180v353h180v16q0 216 120.5 343.5t314.5 127.5q96 0 163 -18v-340q-31 8 -75 8q-66 0 -110 -33.5t-44 -93.5v-10h354v256h369
v-256h229v-353z" />
    <glyph glyph-name="A.sinf" horiz-adv-x="874" 
d="M610 0l-37 100h-278l-37 -100h-256l338 860h190l342 -860h-262zM373 305h127l-64 172z" />
    <glyph glyph-name="B.sinf" horiz-adv-x="722" 
d="M43 0v860h340q117 0 200 -70.5t83 -166.5q0 -50 -28.5 -98t-72.5 -70q61 -19 99 -74t38 -129q0 -106 -84 -179t-200 -73h-375zM285 535h86q22 0 36.5 13.5t14.5 33.5q0 19 -15 33t-36 14h-86v-94zM285 231h112q24 0 42 18t18 42q0 25 -17.5 42t-40.5 17h-114v-119z" />
    <glyph glyph-name="C.sinf" horiz-adv-x="925" 
d="M471 -12q-190 0 -316 125.5t-126 314.5q0 191 126 317.5t316 126.5q161 0 286 -95.5t138 -233.5h-270q-12 41 -55 67.5t-99 26.5q-84 0 -139.5 -59.5t-55.5 -149.5q0 -88 56 -146.5t139 -58.5q55 0 98.5 30.5t55.5 76.5h272q-22 -150 -141.5 -246t-284.5 -96z" />
    <glyph glyph-name="D.sinf" horiz-adv-x="829" 
d="M356 860q190 0 317.5 -122t127.5 -304q0 -187 -127 -310.5t-318 -123.5h-313v860h313zM375 231q78 0 128 57.5t50 145.5q0 84 -49.5 139.5t-128.5 55.5h-90v-398h90z" />
    <glyph glyph-name="E.sinf" horiz-adv-x="632" 
d="M43 860h557v-231h-315v-80h282v-234h-282v-84h315v-231h-557v860z" />
    <glyph glyph-name="F.sinf" horiz-adv-x="626" 
d="M43 860h557v-231h-315v-115h282v-231h-282v-283h-242v860z" />
    <glyph glyph-name="G.sinf" horiz-adv-x="929" 
d="M893 508q8 -49 8 -102q0 -190 -118.5 -304t-311.5 -114q-190 0 -316 125.5t-126 314.5q0 191 126 317.5t316 126.5q164 0 289.5 -95t136.5 -224h-272q-15 40 -57 62t-97 22q-84 0 -139.5 -59.5t-55.5 -149.5q0 -89 59.5 -147t156.5 -58q69 0 107.5 27.5t45.5 64.5h-207
v193h455z" />
    <glyph glyph-name="H.sinf" horiz-adv-x="858" 
d="M571 860h244v-860h-244v328h-286v-328h-242v860h242v-301h286v301z" />
    <glyph glyph-name="I.sinf" horiz-adv-x="327" 
d="M43 860h242v-860h-242v860z" />
    <glyph glyph-name="J.sinf" horiz-adv-x="440" 
d="M37 221h37q44 0 66 18t22 60v561h241v-629q0 -103 -74.5 -171t-178.5 -68q-66 0 -113 8v221z" />
    <glyph glyph-name="K.sinf" horiz-adv-x="899" 
d="M868 0h-313l-270 389v-389h-242v860h242v-340l256 340h303l-307 -403z" />
    <glyph glyph-name="L.sinf" horiz-adv-x="673" 
d="M43 860h242v-629h366v-231h-608v860z" />
    <glyph glyph-name="M.sinf" horiz-adv-x="1060" 
d="M43 0v860h295l207 -504l225 504h248v-860h-242v393l-164 -393h-172l-155 393v-393h-242z" />
    <glyph glyph-name="N.sinf" horiz-adv-x="790" 
d="M43 860h199l264 -377v377h242v-860h-197l-266 375v-375h-242v860z" />
    <glyph glyph-name="O.sinf" horiz-adv-x="944" 
d="M471 872q192 0 318 -126.5t126 -317.5q0 -189 -126 -314.5t-318 -125.5q-190 0 -316 125.5t-126 314.5q0 191 126 317.5t316 126.5zM471 637q-84 0 -139.5 -59.5t-55.5 -149.5q0 -87 55.5 -146t139.5 -59t139.5 58.5t55.5 146.5q0 90 -55.5 149.5t-139.5 59.5z" />
    <glyph glyph-name="P.sinf" horiz-adv-x="708" 
d="M369 860q138 0 227.5 -83t89.5 -212q0 -130 -89.5 -214.5t-227.5 -84.5h-84v-266h-242v860h326zM369 500q32 0 52.5 18t20.5 47q0 28 -20.5 46t-52.5 18h-84v-129h84z" />
    <glyph glyph-name="Q.sinf" horiz-adv-x="942" 
d="M979 0h-252l-37 41q-95 -53 -219 -53q-190 0 -316 125.5t-126 314.5q0 191 126 317.5t316 126.5q192 0 318 -126.5t126 -317.5q0 -150 -86 -270zM471 223q13 0 41 4l-162 170h252l49 -51q15 47 15 82q0 90 -55.5 149.5t-139.5 59.5t-139.5 -59.5t-55.5 -149.5
q0 -87 55.5 -146t139.5 -59z" />
    <glyph glyph-name="R.sinf" horiz-adv-x="794" 
d="M784 0h-292l-166 301h-41v-301h-242v860h344q112 0 198.5 -83t86.5 -197q0 -150 -103 -226zM285 627v-119h77q26 0 45 18t19 41q0 24 -19.5 42t-44.5 18h-77z" />
    <glyph glyph-name="S.sinf" horiz-adv-x="731" 
d="M375 -12q-148 0 -243 87t-95 222h239q0 -38 27.5 -60t71.5 -22q39 0 62.5 13.5t23.5 39.5q0 17 -23 29t-60 21t-81.5 19.5t-89 29.5t-81.5 46.5t-60 75.5t-23 111q0 118 87 195t218 77q84 0 148.5 -26t101.5 -70.5t55.5 -98.5t18.5 -116h-250q2 36 -20.5 60t-61.5 24
q-61 0 -61 -43q0 -18 23 -30t60.5 -20.5t82 -19t89.5 -29.5t82.5 -46.5t60.5 -76t23 -112.5q0 -52 -21.5 -101.5t-61.5 -89.5t-103 -64.5t-139 -24.5z" />
    <glyph glyph-name="T.sinf" horiz-adv-x="743" 
d="M723 860v-231h-229v-629h-242v629h-232v231h703z" />
    <glyph glyph-name="U.sinf" horiz-adv-x="786" 
d="M393 -10q-151 0 -250.5 99.5t-99.5 250.5v520h242v-520q0 -49 31.5 -82t76.5 -33q46 0 77.5 33t31.5 82v520h241v-520q0 -151 -99.5 -250.5t-250.5 -99.5z" />
    <glyph glyph-name="V.sinf" horiz-adv-x="837" 
d="M2 860h258l160 -459l160 459h256l-322 -860h-190z" />
    <glyph glyph-name="W.sinf" horiz-adv-x="1243" 
d="M987 862h254l-283 -862h-190l-147 371l-142 -371h-192l-285 862h258l127 -446l156 446h162l155 -446z" />
    <glyph glyph-name="X.sinf" horiz-adv-x="876" 
d="M874 0h-286l-152 227l-151 -227h-283l293 440l-281 420h291l135 -203l135 203h283l-276 -416z" />
    <glyph glyph-name="Y.sinf" horiz-adv-x="884" 
d="M2 860h295l152 -266l151 266h283l-316 -510v-350h-243v350z" />
    <glyph glyph-name="Z.sinf" horiz-adv-x="747" 
d="M49 860h662v-160l-351 -469h353v-231h-684v160l350 469h-330v231z" />
    <glyph glyph-name="a.sinf" horiz-adv-x="727" 
d="M453 608h229v-608h-229v55q-58 -67 -156 -67q-112 0 -191 92.5t-79 222.5q0 131 79 224.5t191 93.5q97 0 156 -68v55zM352 207q40 0 70.5 28.5t30.5 67.5t-30.5 68.5t-70.5 29.5q-41 0 -71.5 -29t-30.5 -69q0 -38 30.5 -67t71.5 -29z" />
    <glyph glyph-name="b.sinf" horiz-adv-x="727" 
d="M430 621q112 0 191 -93.5t79 -224.5q0 -130 -79 -222.5t-191 -92.5q-98 0 -156 67v-55h-229v860h229v-307q59 68 156 68zM375 207q41 0 71.5 29t30.5 67q0 40 -30.5 69t-71.5 29q-40 0 -70.5 -29.5t-30.5 -68.5t30.5 -67.5t70.5 -28.5z" />
    <glyph glyph-name="c.sinf" horiz-adv-x="677" 
d="M342 -12q-135 0 -225 90t-90 225t90 226.5t225 91.5q123 0 211.5 -76.5t97.5 -190.5h-233q-6 20 -27 32.5t-49 12.5q-40 0 -66 -27.5t-26 -68.5t26.5 -67.5t65.5 -26.5q29 0 50.5 13.5t27.5 35.5h231q-6 -116 -95 -193t-214 -77z" />
    <glyph glyph-name="d.sinf" horiz-adv-x="727" 
d="M453 860h229v-860h-229v55q-58 -67 -156 -67q-112 0 -191 92.5t-79 222.5q0 131 79 224.5t191 93.5q97 0 156 -68v307zM352 207q40 0 70.5 28.5t30.5 67.5t-30.5 68.5t-70.5 29.5q-41 0 -71.5 -29t-30.5 -69q0 -38 30.5 -67t71.5 -29z" />
    <glyph glyph-name="e.sinf" horiz-adv-x="677" 
d="M651 322q0 -28 -4 -82h-407q12 -29 40 -46.5t64 -17.5q63 0 74 37h223q-14 -103 -92.5 -164t-198.5 -61q-135 0 -229 93t-94 226q0 132 92 223t227 91q125 0 215 -87.5t90 -211.5zM248 383h164q-3 24 -25.5 38.5t-50.5 14.5q-66 0 -88 -53z" />
    <glyph glyph-name="f.sinf" horiz-adv-x="534" 
d="M457 684q-37 0 -63.5 -20t-26.5 -54v-2h137v-219h-137v-389h-230v389h-106v219h106v6q0 131 74 209t192 78q58 0 101 -12v-211q-21 6 -47 6z" />
    <glyph glyph-name="g.sinf" horiz-adv-x="727" 
d="M453 608h229v-577q0 -126 -92.5 -200.5t-229.5 -74.5q-35 0 -70 3.5t-82.5 18t-83.5 38.5t-63.5 69t-31.5 105h229q8 -45 94 -45q37 0 69 21.5t32 53.5v64q-58 -64 -156 -64q-112 0 -191 88t-79 211q0 124 79 213t191 89q99 0 156 -66v53zM352 229q40 0 70.5 27t30.5 63
q0 38 -30.5 65.5t-70.5 27.5t-71 -27.5t-31 -65.5q0 -37 30.5 -63.5t71.5 -26.5z" />
    <glyph glyph-name="h.sinf" horiz-adv-x="700" 
d="M410 621q116 0 180.5 -75t64.5 -208v-338h-229v307q0 41 -21.5 66.5t-56.5 25.5q-34 0 -54 -25.5t-20 -66.5v-307h-229v860h229v-309q54 70 136 70z" />
    <glyph glyph-name="i.sinf" horiz-adv-x="319" 
d="M160 922q55 0 94 -40t39 -94t-39.5 -93.5t-93.5 -39.5t-93.5 39.5t-39.5 93.5t39.5 94t93.5 40zM45 608h229v-608h-229v608z" />
    <glyph glyph-name="j.sinf" horiz-adv-x="319" 
d="M160 922q54 0 93.5 -40t39.5 -94t-39.5 -93.5t-93.5 -39.5t-93.5 39.5t-39.5 93.5t39.5 94t93.5 40zM-37 -16q3 0 11 -1t14 -1q57 0 57 45v581h229v-606q0 -101 -74.5 -164t-195.5 -63q-4 0 -18 1t-23 1v207z" />
    <glyph glyph-name="k.sinf" horiz-adv-x="731" 
d="M729 0h-293l-162 246v-246h-229v860h229v-481l156 229h279l-211 -297z" />
    <glyph glyph-name="l.sinf" horiz-adv-x="319" 
d="M274 860v-860h-229v860h229z" />
    <glyph glyph-name="m.sinf" horiz-adv-x="1038" 
d="M745 621q106 0 177 -66.5t71 -169.5v-385h-231v328q0 32 -17 51.5t-43 19.5q-32 0 -50.5 -20t-18.5 -51v-328h-230v328q0 32 -17.5 51.5t-45.5 19.5q-30 0 -48 -20t-18 -51v-328h-229v608h229v-55q56 68 156 68q97 0 148 -68q28 28 73.5 48t93.5 20z" />
    <glyph glyph-name="n.sinf" horiz-adv-x="700" 
d="M410 621q116 0 180.5 -75t64.5 -208v-338h-229v307q0 41 -21.5 66.5t-56.5 25.5q-34 0 -54 -25.5t-20 -66.5v-307h-229v608h229v-57q54 70 136 70z" />
    <glyph glyph-name="o.sinf" horiz-adv-x="1150" 
d="M575 1032q225 0 378 -151t153 -377q0 -148 -70 -268.5t-191.5 -188t-269.5 -67.5q-226 0 -378 149.5t-152 374.5q0 149 69.5 270t190.5 189.5t270 68.5zM575 678q-74 0 -125 -50t-51 -124q0 -73 51 -121.5t125 -48.5q73 0 125 48.5t52 121.5q0 74 -52 124t-125 50z" />
    <glyph glyph-name="p.sinf" horiz-adv-x="727" 
d="M430 621q112 0 191 -93.5t79 -224.5q0 -130 -79 -222.5t-191 -92.5q-98 0 -156 67v-237h-229v790h229v-55q59 68 156 68zM375 207q41 0 71.5 29t30.5 67q0 40 -30.5 69t-71.5 29q-40 0 -70.5 -29.5t-30.5 -68.5t30.5 -67.5t70.5 -28.5z" />
    <glyph glyph-name="q.sinf" horiz-adv-x="727" 
d="M453 608h229v-790h-229v237q-58 -67 -156 -67q-112 0 -191 92.5t-79 222.5q0 131 79 224.5t191 93.5q97 0 156 -68v55zM352 207q40 0 70.5 28.5t30.5 67.5t-30.5 68.5t-70.5 29.5q-41 0 -71.5 -29t-30.5 -69q0 -38 30.5 -67t71.5 -29z" />
    <glyph glyph-name="r.sinf" horiz-adv-x="499" 
d="M424 618q22 0 57 -6v-206q-36 6 -65 6q-142 0 -142 -154v-258h-229v608h229v-55q59 65 150 65z" />
    <glyph glyph-name="s.sinf" horiz-adv-x="604" 
d="M319 -12q-128 0 -209 61t-90 168h207q2 -19 24 -33t52 -14q53 0 53 23q0 15 -24 23t-60 10.5t-78.5 11.5t-78.5 24t-60 52t-24 92q0 92 68.5 152t185.5 60q111 0 190.5 -57t89.5 -160h-219q0 15 -17.5 27t-41.5 12q-47 0 -47 -22q0 -15 24.5 -21t61 -5.5t79 -8t79 -25
t61 -58.5t24.5 -107q0 -86 -73 -145.5t-177 -59.5z" />
    <glyph glyph-name="a.ss01.sinf" horiz-adv-x="610" 
d="M299 621q136 0 206 -68.5t70 -183.5v-369h-215v51q-46 -63 -143 -63q-75 0 -128.5 55t-53.5 133q0 91 73.5 142t192.5 51h59v16q0 23 -16.5 37t-44.5 14q-27 0 -44.5 -12t-18.5 -35h-201q11 97 87 164.5t177 67.5zM272 164q35 0 60.5 20t27.5 45h-75q-22 0 -37 -9.5
t-15 -22.5q0 -14 11 -23.5t28 -9.5z" />
    <glyph glyph-name="a.ss02.sinf" horiz-adv-x="616" 
d="M61 608h510v-608h-229v51q-45 -63 -145 -63q-75 0 -128 55.5t-53 132.5q0 91 74 142t193 51h59v45h-281v194zM254 164q35 0 60.5 20t27.5 45h-76q-23 0 -37 -9t-14 -23t10.5 -23.5t28.5 -9.5z" />
    <glyph glyph-name="c.ss03.sinf" horiz-adv-x="563" 
d="M506 389h-232v-170h232v-219h-461v608h461v-219z" />
    <glyph glyph-name="g.ss04.sinf" horiz-adv-x="714" 
d="M440 608h230v-790h-559v190h329v103q-58 -64 -151 -64q-109 0 -185.5 84t-76.5 203q0 117 76.5 200.5t185.5 83.5q94 0 151 -63v53zM342 246q39 0 67.5 26t28.5 62q0 35 -28.5 60.5t-67.5 25.5q-40 0 -69 -25.5t-29 -60.5q0 -37 29 -62.5t69 -25.5z" />
    <glyph glyph-name="h.ss05.sinf" horiz-adv-x="677" 
d="M274 860v-252h359v-608h-230v389h-129v-389h-229v860h229z" />
    <glyph glyph-name="j.ss06.sinf" horiz-adv-x="319" 
d="M160 922q55 0 94 -40t39 -94t-39.5 -93.5t-93.5 -39.5t-93.5 39.5t-39.5 93.5t39.5 94t93.5 40zM274 608v-790h-229v790h229z" />
    <glyph glyph-name="l.ss07.sinf" horiz-adv-x="378" 
d="M274 860v-641h88v-219h-317v860h229z" />
    <glyph glyph-name="m.ss08.sinf" horiz-adv-x="1011" 
d="M967 608v-608h-228v389h-118v-389h-230v389h-117v-389h-229v608h922z" />
    <glyph glyph-name="n.ss09.sinf" horiz-adv-x="677" 
d="M633 608v-608h-230v389h-129v-389h-229v608h588z" />
    <glyph glyph-name="O.ss10.sinf" horiz-adv-x="878" 
d="M836 860v-860h-793v860h793zM285 231h309v398h-309v-398z" />
    <glyph glyph-name="o.ss10.sinf" horiz-adv-x="675" 
d="M631 608v-608h-586v608h586zM401 389h-129v-170h129v170z" />
    <glyph glyph-name="r.ss11.sinf" horiz-adv-x="473" 
d="M455 608v-219h-183v-389h-227v608h410z" />
    <glyph glyph-name="S.ss12.sinf" horiz-adv-x="677" 
d="M326 860h254v-235h-301q-7 0 -14 -6.5t-7 -14.5q0 -14 21.5 -24t56.5 -18t76.5 -18.5t83.5 -31t77 -49.5t56.5 -79t21.5 -116q0 -52 -19 -99t-55 -85.5t-96.5 -61t-136.5 -22.5h-295v236h307q21 0 34 9t13 23q0 19 -21.5 32t-56 22t-76 19t-82.5 28t-75.5 44t-56 72.5
t-21.5 108.5q0 117 88 191.5t224 74.5z" />
    <glyph glyph-name="s.ss12.sinf" horiz-adv-x="546" 
d="M305 0h-262v172h264q2 0 5 3t3 7q0 8 -22.5 14.5t-55.5 12.5t-72.5 20t-72.5 33t-55.5 54.5t-22.5 82.5q0 97 71 153t194 56h227v-172h-250q-10 0 -10 -10q0 -12 29.5 -21t71.5 -21.5t84 -31.5t71.5 -60t29.5 -99q0 -87 -59.5 -140t-167.5 -53z" />
    <glyph glyph-name="t.ss13.sinf" horiz-adv-x="487" 
d="M469 608v-219h-111v-389h-229v389h-111v219h111v152h229v-152h111z" />
    <glyph glyph-name="u.ss14.sinf" horiz-adv-x="696" 
d="M645 608v-325q0 -129 -84 -212t-213 -83t-213 83.5t-84 211.5v325h228v-325q0 -34 19 -54t50 -20t50.5 20.5t19.5 53.5v325h227z" />
    <glyph glyph-name="u.ss15.sinf" horiz-adv-x="677" 
d="M633 0h-588v608h229v-389h129v389h230v-608z" />
    <glyph glyph-name="D.ss16.sinf" horiz-adv-x="911" 
d="M438 860q190 0 317.5 -122t127.5 -304q0 -187 -127 -310.5t-318 -123.5h-418v219h105v641h313zM457 231q78 0 128 57.5t50 145.5q0 84 -49.5 139.5t-128.5 55.5h-90v-398h90z" />
    <glyph glyph-name="J.ss17.sinf" horiz-adv-x="522" 
d="M479 860v-860h-442v231h201v629h241z" />
    <glyph glyph-name="L.ss18.sinf" horiz-adv-x="755" 
d="M367 231h366v-231h-713v219h105v641h242v-629z" />
    <glyph glyph-name="t.sinf" horiz-adv-x="512" 
d="M481 389h-137v-108q0 -35 26 -54.5t64 -19.5q33 0 47 4v-211q-47 -12 -100 -12q-118 0 -191 78.5t-73 209.5v113h-109v219h109v152h227v-152h137v-219z" />
    <glyph glyph-name="G.titl.sinf" horiz-adv-x="995" 
d="M975 508v-193h-80q-26 -150 -141 -238.5t-283 -88.5q-190 0 -316 125.5t-126 314.5q0 191 126 317.5t316 126.5q164 0 289.5 -95t136.5 -224h-272q-15 40 -57 62t-97 22q-84 0 -139.5 -59.5t-55.5 -149.5q0 -89 59.5 -147t156.5 -58q66 0 109.5 33t43.5 59h-207v193h537z
" />
    <glyph glyph-name="I.titl.sinf" horiz-adv-x="458" 
d="M428 641h-78v-422h78v-219h-397v219h78v422h-78v219h397v-219z" />
    <glyph glyph-name="J.titl.sinf" horiz-adv-x="505" 
d="M469 860v-219h-66v-410q0 -103 -74.5 -171t-178.5 -68q-66 0 -113 8v221h37q44 0 66 18t22 60v342h-90v219h397z" />
    <glyph glyph-name="T.titl.sinf" horiz-adv-x="743" 
d="M723 629h-229v-410h77v-219h-397v219h78v410h-232v231h703v-231z" />
    <glyph glyph-name="Y.titl.sinf" horiz-adv-x="884" 
d="M567 350v-131h76v-219h-397v219h78v131l-322 510h295l152 -266l151 266h283z" />
    <glyph glyph-name="u.sinf" horiz-adv-x="700" 
d="M426 608h229v-608h-229v55q-55 -67 -135 -67q-116 0 -181 74t-65 206v340h229v-309q0 -40 21.5 -65t56.5 -25q33 0 53.5 25t20.5 65v309z" />
    <glyph glyph-name="v.sinf" horiz-adv-x="690" 
d="M688 608l-246 -608h-194l-246 608h248l96 -291l92 291h250z" />
    <glyph glyph-name="w.sinf" horiz-adv-x="970" 
d="M219 0l-217 608h246l61 -239l86 239h178l91 -239l59 239h246l-217 -608h-177l-90 238l-92 -238h-174z" />
    <glyph glyph-name="x.sinf" horiz-adv-x="712" 
d="M709 0h-279l-76 111l-75 -111h-275l213 313l-201 295h279l61 -90l62 90h274l-198 -293z" />
    <glyph glyph-name="y.sinf" horiz-adv-x="681" 
d="M434 608h246l-328 -790h-248l119 258l-221 532h246l94 -264z" />
    <glyph glyph-name="z.sinf" horiz-adv-x="624" 
d="M582 608v-162l-224 -225h230v-221h-568v160l226 229h-205v219h541z" />
    <glyph glyph-name="zero.cv01" horiz-adv-x="1193" 
d="M606 1452q254 0 396.5 -166.5t142.5 -462.5v-213q0 -296 -142.5 -462t-396.5 -166h-16q-256 0 -399.5 166t-143.5 462v213q0 296 143.5 462.5t399.5 166.5h16zM590 1073q-150 0 -150 -229v-254q0 -230 150 -230h16q150 0 150 230v254q0 229 -150 229h-16z" />
    <glyph glyph-name="two.cv01" horiz-adv-x="1136" 
d="M41 0v195q0 65 14.5 124.5t36.5 106t58 91.5t70 77.5t83 67.5t85 57.5t87 52.5q122 70 165.5 111.5t43.5 95.5q0 46 -33 74t-90 28q-81 0 -114 -61.5t-25 -165.5h-393q-12 262 140.5 431t401.5 169q220 0 362 -131t142 -334q0 -148 -98 -261t-326 -234q-44 -23 -67 -35.5
t-53 -30t-43 -29.5t-13 -20h596v-379h-1030z" />
    <glyph glyph-name="three.cv01" horiz-adv-x="1101" 
d="M856 748q88 -27 150.5 -121t62.5 -195q0 -208 -141 -329t-379 -121q-249 0 -391.5 148.5t-130.5 395.5h358q-4 -76 43.5 -128t120.5 -52q59 0 97 34.5t38 86.5q0 47 -39.5 77.5t-95.5 30.5h-68v306h47q47 0 78 30.5t31 77.5q0 41 -29.5 68.5t-75.5 27.5q-63 0 -99 -41.5
t-36 -107.5h-344q-14 107 22 204t106.5 164t167 106.5t200.5 39.5q125 0 234 -59t174 -160.5t65 -220.5q0 -80 -48.5 -156.5t-117.5 -105.5z" />
    <glyph glyph-name="four.cv01" horiz-adv-x="1361" 
d="M1327 598v-373h-127v-225h-389v225h-770v271l637 938h522v-836h127zM530 598h281v412z" />
    <glyph glyph-name="seven.cv01" horiz-adv-x="1232" 
d="M1196 1434v-256l-573 -1178h-435l519 1059h-289v-211h-389v586h1167z" />
    <glyph glyph-name="zero.tf" horiz-adv-x="1269" 
d="M635 -18q-181 0 -314.5 94t-202.5 260t-69 383t69 383t202.5 260t314.5 94t314.5 -94t202.5 -260t69 -383t-69 -383t-202.5 -260t-314.5 -94zM635 360q186 0 186 359q0 358 -186 358t-186 -358q0 -359 186 -359z" />
    <glyph glyph-name="one.tf" horiz-adv-x="1269" 
d="M858 352h281v-352h-1010v352h342v549l-311 -225v461l442 297h256v-1082z" />
    <glyph glyph-name="two.tf" horiz-adv-x="1269" 
d="M158 0v274l411 394q30 29 70 65.5t59 54t42 42.5t32 42.5t16 41.5t7 51q0 47 -41 78.5t-99 31.5q-81 0 -115 -59.5t-26 -161.5h-393q-12 262 141 431t402 169q232 0 381 -135t149 -344q0 -64 -18 -125t-45.5 -111t-76.5 -108t-94.5 -103t-115.5 -108l-45 -41h391v-379
h-1032z" />
    <glyph glyph-name="three.tf" horiz-adv-x="1269" 
d="M426 862l195 199h-490v373h1038v-250l-280 -277q133 -37 213 -151.5t80 -268.5q0 -222 -155.5 -364.5t-395.5 -142.5q-226 0 -379.5 135.5t-163.5 345.5h389q11 -42 49 -72.5t105 -30.5q66 0 108.5 39.5t42.5 100.5q0 52 -30.5 86.5t-81 47t-114 9t-130.5 -24.5v246z" />
    <glyph glyph-name="four.tf" horiz-adv-x="1269" 
d="M1247 631v-352h-127v-279h-389v279h-688v258l481 897h441l-433 -803h199v250h389v-250h127z" />
    <glyph glyph-name="five.tf" horiz-adv-x="1269" 
d="M645 -20q-146 0 -266.5 53.5t-197.5 164.5t-83 263h389q38 -103 158 -103q62 0 104 44t42 106q0 68 -41 108.5t-105 40.5q-105 0 -156 -67h-342l64 844h881v-367h-531l-14 -133q29 19 74 31t84 12q217 0 351 -125t134 -354q0 -142 -72.5 -261.5t-198 -188t-274.5 -68.5z
" />
    <glyph glyph-name="six.tf" horiz-adv-x="1269" 
d="M752 977q187 -11 307.5 -145t120.5 -336q0 -138 -72 -257t-194.5 -189t-264.5 -70q-143 0 -266 70t-194.5 189t-71.5 257q0 166 110 342l369 596h444zM649 350q65 0 109.5 43.5t44.5 106.5t-45 106t-111 43q-63 0 -106 -43t-43 -106t44 -106.5t107 -43.5z" />
    <glyph glyph-name="seven.tf" horiz-adv-x="1269" 
d="M119 1434h1036v-256l-563 -1178h-434l512 1059h-551v375z" />
    <glyph glyph-name="eight.tf" horiz-adv-x="1269" 
d="M637 -16q-229 0 -375.5 124t-146.5 316q0 105 54.5 198t149.5 152q-70 47 -112.5 123.5t-42.5 153.5q0 175 133 286t340 111q205 0 338 -111.5t133 -285.5q0 -78 -43 -154.5t-113 -122.5q95 -55 150 -147t55 -203q0 -192 -146.5 -316t-373.5 -124zM637 928
q53 0 85.5 27.5t31.5 70.5q1 43 -31.5 70.5t-85.5 27.5t-85.5 -27.5t-31.5 -70.5q-1 -43 31.5 -70.5t85.5 -27.5zM637 326q68 0 111 37.5t43 95.5q0 60 -43 97.5t-111 37.5t-111 -37.5t-43 -97.5q0 -58 43 -95.5t111 -37.5z" />
    <glyph glyph-name="nine.tf" horiz-adv-x="1269" 
d="M643 1454q143 0 266 -70t195 -189t72 -257q0 -164 -111 -342l-369 -596h-444l289 457q-187 11 -307.5 145t-120.5 336q0 138 71.5 257t194 189t264.5 70zM645 784q63 0 106.5 43.5t43.5 106.5t-44.5 106t-107.5 43q-65 0 -109.5 -43t-44.5 -106t45 -106.5t111 -43.5z" />
    <glyph glyph-name="zero.tf.cv01" horiz-adv-x="1269" 
d="M645 1452q254 0 396.5 -166.5t142.5 -462.5v-213q0 -296 -142.5 -462t-396.5 -166h-16q-256 0 -399.5 166t-143.5 462v213q0 296 143.5 462.5t399.5 166.5h16zM629 1073q-150 0 -150 -229v-254q0 -230 150 -230h16q150 0 150 230v254q0 229 -150 229h-16z" />
    <glyph glyph-name="two.tf.cv01" horiz-adv-x="1269" 
d="M150 0v195q0 65 14.5 124.5t36.5 106t58 91.5t70 77.5t83 67.5t85 57.5t87 52.5q122 70 165.5 111.5t43.5 95.5q0 46 -33 74t-90 28q-81 0 -114.5 -62t-25.5 -165h-393q-12 262 141 431t402 169q220 0 362 -131t142 -334q0 -148 -98 -261t-326 -234q-44 -23 -67 -35.5
t-53 -30t-43 -29.5t-13 -20h596v-379h-1030z" />
    <glyph glyph-name="three.tf.cv01" horiz-adv-x="1269" 
d="M946 748q88 -27 150.5 -121t62.5 -195q0 -208 -141 -329t-379 -121q-249 0 -391.5 148.5t-130.5 395.5h358q-4 -76 43.5 -128t120.5 -52q59 0 97 34.5t38 86.5q0 47 -39.5 77.5t-95.5 30.5h-68v306h47q47 0 78 30.5t31 77.5q0 41 -29 68.5t-75 27.5q-63 0 -99.5 -41.5
t-36.5 -107.5h-344q-14 107 22 204t106.5 164t167 106.5t200.5 39.5q125 0 234 -59t174 -160.5t65 -220.5q0 -80 -48.5 -156.5t-117.5 -105.5z" />
    <glyph glyph-name="four.tf.cv01" horiz-adv-x="1269" 
d="M1366 598v-373h-127v-225h-389v225h-770v271l637 938h522v-836h127zM569 598h281v412z" />
    <glyph glyph-name="seven.tf.cv01" horiz-adv-x="1269" 
d="M1221 1434v-256l-574 -1178h-434l518 1059h-289v-211h-389v586h1168z" />
    <glyph glyph-name="zero.tf.zero" horiz-adv-x="1269" 
d="M635 1454q181 0 314.5 -94t202.5 -260t69 -383t-69 -383t-202.5 -260t-314.5 -94t-314.5 94t-202.5 260t-69 383t69 383t202.5 260t314.5 94zM635 1075q-186 0 -186 -358v-10l282 335q-39 33 -96 33zM635 358q186 0 186 359v10l-282 -336q39 -33 96 -33z" />
    <glyph glyph-name="zero.zero" horiz-adv-x="1265" 
d="M633 1454q181 0 314.5 -94t202.5 -260t69 -383t-69 -383t-202.5 -260t-314.5 -94t-314.5 94t-202.5 260t-69 383t69 383t202.5 260t314.5 94zM633 1075q-187 0 -187 -358v-10l283 335q-39 33 -96 33zM633 358q186 0 186 359v10l-282 -336q39 -33 96 -33z" />
    <glyph glyph-name="three.sinf" horiz-adv-x="694" 
d="M211 518l108 111h-284v231h627v-155l-162 -158q78 -25 124 -93.5t46 -158.5q0 -135 -94.5 -221t-239.5 -86q-137 0 -229.5 83t-98.5 210h242q17 -58 86 -58q37 0 60.5 22t23.5 56q0 58 -65.5 75.5t-143.5 -9.5v151z" />
    <glyph glyph-name="four.sinf" horiz-adv-x="772" 
d="M752 389v-223h-74v-166h-242v166h-411v145l286 549h275l-248 -471h98v137h242v-137h74z" />
    <glyph glyph-name="five.sinf" horiz-adv-x="690" 
d="M340 -12q-137 0 -232.5 77.5t-99.5 215.5h242q21 -58 90 -58q33 0 56.5 25t23.5 59q0 38 -23 61t-57 23q-28 0 -53 -11t-37 -30h-213l39 510h532v-227h-315l-8 -68q48 25 92 25q130 0 210.5 -76t80.5 -213q0 -130 -95.5 -221.5t-232.5 -91.5z" />
    <glyph glyph-name="six.sinf" horiz-adv-x="679" 
d="M410 588q109 -9 179 -89.5t70 -199.5q0 -126 -94.5 -218.5t-224.5 -92.5q-132 0 -227 92.5t-95 218.5q0 98 66 205l221 356h277zM340 219q35 0 60.5 24t25.5 58q0 35 -25.5 59.5t-62.5 24.5q-34 0 -58 -24.5t-24 -59.5q0 -34 24.5 -58t59.5 -24z" />
    <glyph glyph-name="seven.sinf" horiz-adv-x="665" 
d="M18 860h625v-160l-336 -700h-268l303 627h-324v233z" />
    <glyph glyph-name="eight.sinf" horiz-adv-x="669" 
d="M336 -10q-138 0 -227 75t-89 191q0 61 31.5 116t89.5 93q-42 29 -67 74t-25 90q0 105 81 172t206 67q124 0 204.5 -67t80.5 -172q0 -43 -24 -88.5t-67 -75.5q55 -33 87 -88.5t32 -120.5q0 -116 -88.5 -191t-224.5 -75zM336 559q29 0 46 15.5t17 39.5q0 23 -17.5 38.5
t-45.5 15.5t-47 -15.5t-19 -38.5q0 -24 18.5 -39.5t47.5 -15.5zM336 203q37 0 61.5 20.5t24.5 52.5q0 33 -24.5 54.5t-61.5 21.5t-61.5 -21.5t-24.5 -54.5q0 -32 24.5 -52.5t61.5 -20.5z" />
    <glyph glyph-name="nine.sinf" horiz-adv-x="679" 
d="M340 872q132 0 227 -92.5t95 -218.5q0 -98 -66 -205l-221 -356h-277l172 272q-109 9 -179.5 89.5t-70.5 199.5q0 126 95 218.5t225 92.5zM342 475q34 0 58 24.5t24 59.5q0 34 -24.5 58t-59.5 24t-60.5 -24t-25.5 -58q0 -35 25.5 -59.5t62.5 -24.5z" />
    <glyph glyph-name="zero.dnom" horiz-adv-x="761" 
d="M381 -12q-164 0 -259 122.5t-95 319.5t95 319.5t259 122.5q163 0 258.5 -122t95.5 -320t-95.5 -320t-258.5 -122zM381 223q104 0 104 207t-104 207q-107 0 -107 -207t107 -207z" />
    <glyph glyph-name="zero.sinf" horiz-adv-x="761" 
d="M381 -12q-164 0 -259 122.5t-95 319.5t95 319.5t259 122.5q163 0 258.5 -122t95.5 -320t-95.5 -320t-258.5 -122zM381 223q104 0 104 207t-104 207q-107 0 -107 -207t107 -207z" />
    <glyph glyph-name="one.sinf" horiz-adv-x="503" 
d="M461 860v-860h-240v528l-186 -133v287l268 178h158z" />
    <glyph glyph-name="two.sinf" horiz-adv-x="712" 
d="M53 0v170l242 231q21 20 49.5 45.5t39.5 36.5t24.5 27.5t17.5 31t4 33.5q0 26 -23.5 44t-54.5 18q-90 0 -80 -129h-243q-7 159 85 261.5t242 102.5q140 0 231 -81.5t91 -208.5q0 -92 -53 -167.5t-160 -166.5l-14 -12h223v-236h-621z" />
    <glyph glyph-name="one.dnom" horiz-adv-x="473" 
d="M461 860v-860h-240v528l-186 -133v287l268 178h158z" />
    <glyph glyph-name="two.dnom" horiz-adv-x="675" 
d="M53 0v170l242 231q21 20 49.5 45.5t39.5 36.5t24.5 27.5t17.5 31t4 33.5q0 26 -23.5 44t-54.5 18q-90 0 -80 -129h-243q-7 159 85 261.5t242 102.5q140 0 231 -81.5t91 -208.5q0 -92 -53 -167.5t-160 -166.5l-14 -12h223v-236h-621z" />
    <glyph glyph-name="three.dnom" horiz-adv-x="694" 
d="M211 518l108 111h-284v231h627v-155l-162 -158q78 -25 124 -93.5t46 -158.5q0 -135 -94.5 -221t-239.5 -86q-137 0 -229.5 83t-98.5 210h242q17 -58 86 -58q37 0 60.5 22t23.5 56q0 58 -65.5 75.5t-143.5 -9.5v151z" />
    <glyph glyph-name="four.dnom" horiz-adv-x="772" 
d="M752 389v-223h-74v-166h-242v166h-411v145l286 549h275l-248 -471h98v137h242v-137h74z" />
    <glyph glyph-name="five.dnom" horiz-adv-x="688" 
d="M340 -12q-137 0 -232.5 77.5t-99.5 215.5h242q21 -58 90 -58q33 0 56.5 25t23.5 59q0 38 -23 61t-57 23q-28 0 -53 -11t-37 -30h-213l39 510h532v-227h-315l-8 -68q48 25 92 25q130 0 210.5 -76t80.5 -213q0 -130 -95.5 -221.5t-232.5 -91.5z" />
    <glyph glyph-name="six.dnom" horiz-adv-x="657" 
d="M410 588q109 -9 179 -89.5t70 -199.5q0 -126 -94.5 -218.5t-224.5 -92.5q-132 0 -227 92.5t-95 218.5q0 98 66 205l221 356h277zM340 219q35 0 60.5 24t25.5 58q0 35 -25.5 59.5t-62.5 24.5q-34 0 -58 -24.5t-24 -59.5q0 -34 24.5 -58t59.5 -24z" />
    <glyph glyph-name="seven.dnom" horiz-adv-x="665" 
d="M18 860h625v-160l-336 -700h-268l303 627h-324v233z" />
    <glyph glyph-name="eight.dnom" horiz-adv-x="669" 
d="M336 -10q-138 0 -227 75t-89 191q0 61 31.5 116t89.5 93q-42 29 -67 74t-25 90q0 105 81 172t206 67q124 0 204.5 -67t80.5 -172q0 -43 -24 -88.5t-67 -75.5q55 -33 87 -88.5t32 -120.5q0 -116 -88.5 -191t-224.5 -75zM336 559q29 0 46 15.5t17 39.5q0 23 -17.5 38.5
t-45.5 15.5t-47 -15.5t-19 -38.5q0 -24 18.5 -39.5t47.5 -15.5zM336 203q37 0 61.5 20.5t24.5 52.5q0 33 -24.5 54.5t-61.5 21.5t-61.5 -21.5t-24.5 -54.5q0 -32 24.5 -52.5t61.5 -20.5z" />
    <glyph glyph-name="nine.dnom" horiz-adv-x="679" 
d="M340 872q132 0 227 -92.5t95 -218.5q0 -98 -66 -205l-221 -356h-277l172 272q-109 9 -179.5 89.5t-70.5 199.5q0 126 95 218.5t225 92.5zM342 475q34 0 58 24.5t24 59.5q0 34 -24.5 58t-59.5 24t-60.5 -24t-25.5 -58q0 -35 25.5 -59.5t62.5 -24.5z" />
    <glyph glyph-name="zero.numr" horiz-adv-x="761" 
d="M381 752q-164 0 -259 122.5t-95 319.5t95 319.5t259 122.5q163 0 258.5 -122t95.5 -320t-95.5 -320t-258.5 -122zM381 987q104 0 104 207t-104 207q-107 0 -107 -207t107 -207z" />
    <glyph glyph-name="one.numr" horiz-adv-x="534" 
d="M461 1434v-861h-240v529l-186 -133v286l268 179h158z" />
    <glyph glyph-name="two.numr" horiz-adv-x="675" 
d="M53 573v170l242 232q21 20 49.5 45.5t39.5 36.5t24.5 27.5t17.5 31t4 33.5q0 26 -23.5 43.5t-54.5 17.5q-90 0 -80 -129h-243q-7 159 85 262t242 103q140 0 231 -82t91 -209q0 -92 -53 -167.5t-160 -166.5l-14 -12h223v-236h-621z" />
    <glyph glyph-name="three.numr" horiz-adv-x="694" 
d="M211 1092l108 110h-284v232h627v-156l-162 -158q78 -25 124 -93.5t46 -158.5q0 -135 -94.5 -221t-239.5 -86q-137 0 -229.5 83t-98.5 210h242q17 -57 86 -57q37 0 60.5 21.5t23.5 55.5q0 58 -65.5 75.5t-143.5 -9.5v152z" />
    <glyph glyph-name="four.numr" horiz-adv-x="772" 
d="M752 963v-224h-74v-166h-242v166h-411v146l286 549h275l-248 -471h98v137h242v-137h74z" />
    <glyph glyph-name="five.numr" horiz-adv-x="688" 
d="M340 561q-137 0 -232.5 77.5t-99.5 215.5h242q20 -57 90 -57q33 0 56.5 25t23.5 59q0 38 -23 61t-57 23q-28 0 -53 -11t-37 -30h-213l39 510h532v-228h-315l-8 -67q46 24 92 24q130 0 210.5 -76t80.5 -213q0 -130 -95.5 -221.5t-232.5 -91.5z" />
    <glyph glyph-name="six.numr" horiz-adv-x="657" 
d="M410 1161q109 -9 179 -89.5t70 -199.5q0 -126 -94.5 -218.5t-224.5 -92.5q-132 0 -227 92.5t-95 218.5q0 98 66 205l221 357h277zM340 793q35 0 60.5 23.5t25.5 57.5q0 35 -25.5 59.5t-62.5 24.5q-34 0 -58 -24.5t-24 -59.5q0 -34 24.5 -57.5t59.5 -23.5z" />
    <glyph glyph-name="seven.numr" horiz-adv-x="665" 
d="M18 1434h625v-160l-336 -701h-268l303 627h-324v234z" />
    <glyph glyph-name="eight.numr" horiz-adv-x="669" 
d="M336 563q-138 0 -227 75t-89 191q0 61 31.5 116t89.5 93q-42 29 -67 74t-25 90q0 105 81 172.5t206 67.5q124 0 204.5 -67.5t80.5 -172.5q0 -43 -24 -88.5t-67 -75.5q55 -33 87 -88.5t32 -120.5q0 -116 -88.5 -191t-224.5 -75zM336 1133q29 0 46 15.5t17 39.5
q0 23 -17.5 38t-45.5 15t-47 -15t-19 -38q0 -24 18.5 -39.5t47.5 -15.5zM336 776q37 0 61.5 21t24.5 53q0 33 -24.5 54.5t-61.5 21.5t-61.5 -21.5t-24.5 -54.5q0 -32 24.5 -53t61.5 -21z" />
    <glyph glyph-name="nine.numr" horiz-adv-x="679" 
d="M340 1446q132 0 227 -92.5t95 -218.5q0 -98 -66 -205l-221 -357h-277l172 273q-109 9 -179.5 89.5t-70.5 199.5q0 126 95 218.5t225 92.5zM342 1049q34 0 58 24.5t24 59.5q0 34 -24.5 57.5t-59.5 23.5t-60.5 -23.5t-25.5 -57.5q0 -35 25.5 -59.5t62.5 -24.5z" />
    <glyph glyph-name="zero.sups" horiz-adv-x="761" 
d="M381 571q-164 0 -259 123t-95 320t95 319.5t259 122.5q163 0 258.5 -122t95.5 -320t-95.5 -320.5t-258.5 -122.5zM381 807q104 0 104 207t-104 207q-107 0 -107 -207t107 -207z" />
    <glyph glyph-name="one.sups" horiz-adv-x="503" 
d="M461 1444v-860h-240v528l-186 -133v287l268 178h158z" />
    <glyph glyph-name="two.sups" horiz-adv-x="712" 
d="M53 584v170l242 231q21 20 49.5 45.5t39.5 36.5t24.5 27.5t17.5 31t4 33.5q0 26 -23.5 44t-54.5 18q-90 0 -80 -129h-243q-7 159 85 261.5t242 102.5q140 0 231 -82t91 -209q0 -92 -53 -167.5t-160 -166.5l-14 -12h223v-235h-621z" />
    <glyph glyph-name="three.sups" horiz-adv-x="694" 
d="M211 1102l108 110h-284v232h627v-156l-162 -158q78 -25 124 -93t46 -158q0 -135 -94.5 -221.5t-239.5 -86.5q-137 0 -229.5 83t-98.5 210h242q17 -57 86 -57q37 0 60.5 22t23.5 56q0 58 -65.5 75t-143.5 -10v152z" />
    <glyph glyph-name="four.sups" horiz-adv-x="772" 
d="M752 973v-223h-74v-166h-242v166h-411v145l286 549h275l-248 -471h98v137h242v-137h74z" />
    <glyph glyph-name="five.sups" horiz-adv-x="690" 
d="M340 571q-137 0 -232.5 77.5t-99.5 215.5h242q20 -57 90 -57q33 0 56.5 25t23.5 59q0 38 -23 61t-57 23q-28 0 -53 -11t-37 -30h-213l39 510h532v-227h-315l-8 -68q48 25 92 25q130 0 210.5 -76t80.5 -213q0 -131 -96 -222.5t-232 -91.5z" />
    <glyph glyph-name="six.sups" horiz-adv-x="679" 
d="M410 1171q109 -9 179 -89t70 -199q0 -126 -94.5 -219t-224.5 -93q-132 0 -227 93t-95 219q0 97 66 204l221 357h277zM340 803q35 0 60.5 24t25.5 58q0 35 -25.5 59.5t-62.5 24.5q-34 0 -58 -24.5t-24 -59.5q0 -34 24.5 -58t59.5 -24z" />
    <glyph glyph-name="seven.sups" horiz-adv-x="665" 
d="M18 1444h625v-160l-336 -700h-268l303 626h-324v234z" />
    <glyph glyph-name="eight.sups" horiz-adv-x="669" 
d="M336 573q-138 0 -227 75.5t-89 191.5q0 61 31.5 116t89.5 93q-42 30 -67 74t-25 89q0 105 81 172.5t206 67.5q124 0 204.5 -67.5t80.5 -172.5q0 -43 -24 -88t-67 -75q55 -33 87 -88.5t32 -120.5q0 -116 -88.5 -191.5t-224.5 -75.5zM336 1143q29 0 46 15.5t17 39.5
q0 23 -17.5 38t-45.5 15t-47 -15t-19 -38q0 -24 18.5 -39.5t47.5 -15.5zM336 786q37 0 61.5 21t24.5 53q0 33 -24.5 54.5t-61.5 21.5t-61.5 -21.5t-24.5 -54.5q0 -32 24.5 -53t61.5 -21z" />
    <glyph glyph-name="nine.sups" horiz-adv-x="679" 
d="M340 1456q132 0 227 -92.5t95 -218.5q0 -98 -66 -205l-221 -356h-277l172 272q-109 9 -179.5 89.5t-70.5 199.5q0 126 95 218.5t225 92.5zM342 1059q34 0 58 24.5t24 59.5q0 34 -24.5 58t-59.5 24t-60.5 -24t-25.5 -58q0 -35 25.5 -59.5t62.5 -24.5z" />
    <glyph glyph-name="three.sinf.cv01" horiz-adv-x="675" 
d="M520 449q52 -19 87.5 -74.5t35.5 -114.5q0 -125 -85 -197.5t-228 -72.5q-152 0 -238 90.5t-78 241.5h224q-3 -43 23 -75t69 -32q31 0 52 19.5t21 48.5q0 25 -21 41t-52 16h-39v190h26q26 0 43 17.5t17 42.5q0 23 -16.5 38t-41.5 15q-35 0 -55 -24.5t-20 -61.5h-213
q-13 86 27.5 159t114 113.5t157.5 40.5q115 0 200.5 -79t85.5 -187q0 -45 -28.5 -91.5t-67.5 -63.5z" />
    <glyph glyph-name="four.sinf.cv01" horiz-adv-x="854" 
d="M819 365v-224h-74v-141h-241v141h-463v160l379 559h325v-495h74zM346 365h158v233z" />
    <glyph glyph-name="seven.sinf.cv01" horiz-adv-x="745" 
d="M723 860v-160l-342 -700h-268l305 627h-160v-125h-242v358h707z" />
    <glyph glyph-name="zero.dnom.cv01" horiz-adv-x="716" 
d="M365 870q152 0 237.5 -99.5t85.5 -276.5v-127q0 -177 -85.5 -277t-237.5 -100h-11q-155 0 -241 100t-86 277v127q0 177 86 276.5t241 99.5h11zM354 635q-84 0 -84 -129v-152q0 -129 84 -129h11q81 0 81 129v152q0 129 -81 129h-11z" />
    <glyph glyph-name="zero.sinf.cv01" horiz-adv-x="716" 
d="M365 870q152 0 237.5 -99.5t85.5 -276.5v-127q0 -177 -85.5 -277t-237.5 -100h-11q-155 0 -241 100t-86 277v127q0 177 86 276.5t241 99.5h11zM354 635q-84 0 -84 -129v-152q0 -129 84 -129h11q81 0 81 129v152q0 129 -81 129h-11z" />
    <glyph glyph-name="two.sinf.cv01" horiz-adv-x="684" 
d="M25 0v121q0 66 22 120.5t64.5 97t80 69.5t93.5 59q70 40 95.5 64t25.5 55q0 25 -18.5 40t-49.5 15q-44 0 -63.5 -36t-14.5 -97h-244q-7 159 85.5 261.5t242.5 102.5q132 0 218.5 -78.5t86.5 -201.5q0 -89 -59.5 -158t-196.5 -141q-6 -3 -21.5 -11t-26.5 -13.5t-24 -12.5
t-19.5 -12t-6.5 -8h352v-236h-622z" />
    <glyph glyph-name="two.dnom.cv01" horiz-adv-x="684" 
d="M25 0v121q0 66 22 120.5t64.5 97t80 69.5t93.5 59q70 40 95.5 64t25.5 55q0 25 -18.5 40t-49.5 15q-44 0 -63.5 -36t-14.5 -97h-244q-7 159 85.5 261.5t242.5 102.5q132 0 218.5 -78.5t86.5 -201.5q0 -89 -59.5 -158t-196.5 -141q-6 -3 -21.5 -11t-26.5 -13.5t-24 -12.5
t-19.5 -12t-6.5 -8h352v-236h-622z" />
    <glyph glyph-name="three.dnom.cv01" horiz-adv-x="675" 
d="M520 449q52 -19 87.5 -74.5t35.5 -114.5q0 -125 -85 -197.5t-228 -72.5q-152 0 -238 90.5t-78 241.5h224q-3 -43 23 -75t69 -32q31 0 52 19.5t21 48.5q0 25 -21 41t-52 16h-39v190h26q26 0 43 17.5t17 42.5q0 23 -16.5 38t-41.5 15q-35 0 -55 -24.5t-20 -61.5h-213
q-13 86 27.5 159t114 113.5t157.5 40.5q115 0 200.5 -79t85.5 -187q0 -45 -28.5 -91.5t-67.5 -63.5z" />
    <glyph glyph-name="four.dnom.cv01" horiz-adv-x="854" 
d="M819 365v-224h-74v-141h-241v141h-463v160l379 559h325v-495h74zM346 365h158v233z" />
    <glyph glyph-name="seven.dnom.cv01" horiz-adv-x="745" 
d="M723 860v-160l-342 -700h-268l305 627h-160v-125h-242v358h707z" />
    <glyph glyph-name="zero.numr.cv01" horiz-adv-x="716" 
d="M365 1444q152 0 237.5 -100t85.5 -277v-127q0 -177 -85.5 -277t-237.5 -100h-11q-155 0 -241 100t-86 277v127q0 177 86 277t241 100h11zM354 1208q-84 0 -84 -129v-151q0 -129 84 -129h11q81 0 81 129v151q0 129 -81 129h-11z" />
    </font>
</defs>
</svg>
