<?xml version="1.0" standalone="no"?>
<!DOCTYPE svg PUBLIC "-//W3C//DTD SVG 1.1//EN" "http://www.w3.org/Graphics/SVG/1.1/DTD/svg11.dtd" >
<svg xmlns="http://www.w3.org/2000/svg" xmlns:xlink="http://www.w3.org/1999/xlink" version="1.1">
<metadata>
Created by FontForge 20170731 at Thu Jul  9 18:21:58 2020
 By Aleksey,,,
Copyright (c) 2017 by Martin Va'cha. All rights reserved.
</metadata>
<defs>
<font id="Gellix-Medium" horiz-adv-x="737" >
  <font-face 
    font-family="Gellix Medium"
    font-weight="500"
    font-stretch="normal"
    units-per-em="2048"
    panose-1="0 0 6 0 0 0 0 0 0 0"
    ascent="1683"
    descent="-365"
    x-height="999"
    cap-height="1434"
    bbox="-991 -442 2519 2308"
    underline-thickness="102"
    underline-position="-409"
    unicode-range="U+0020-25CF"
  />
<missing-glyph horiz-adv-x="1474" 
d="M737 1454q202 0 371.5 -98t268 -267t98.5 -370q0 -150 -58 -286.5t-156.5 -235.5t-235.5 -158t-288 -59q-200 0 -369.5 99.5t-268.5 269.5t-99 370t99 369.5t268.5 267.5t369.5 98zM510 627q43 0 75.5 72.5t32.5 172.5q0 102 -32.5 174t-75.5 72q-46 0 -80.5 -72
t-34.5 -174q0 -100 34.5 -172.5t80.5 -72.5zM967 627q47 0 79.5 71.5t32.5 173.5q0 103 -32.5 174.5t-79.5 71.5q-45 0 -77 -72t-32 -174q0 -101 32.5 -173t76.5 -72zM737 197q64 0 109 44t45 105q0 64 -44.5 108t-109.5 44q-64 0 -106.5 -43.5t-42.5 -108.5q0 -61 43 -105
t106 -44z" />
    <glyph glyph-name=".notdef" horiz-adv-x="1474" 
d="M737 1454q202 0 371.5 -98t268 -267t98.5 -370q0 -150 -58 -286.5t-156.5 -235.5t-235.5 -158t-288 -59q-200 0 -369.5 99.5t-268.5 269.5t-99 370t99 369.5t268.5 267.5t369.5 98zM510 627q43 0 75.5 72.5t32.5 172.5q0 102 -32.5 174t-75.5 72q-46 0 -80.5 -72
t-34.5 -174q0 -100 34.5 -172.5t80.5 -72.5zM967 627q47 0 79.5 71.5t32.5 173.5q0 103 -32.5 174.5t-79.5 71.5q-45 0 -77 -72t-32 -174q0 -101 32.5 -173t76.5 -72zM737 197q64 0 109 44t45 105q0 64 -44.5 108t-109.5 44q-64 0 -106.5 -43.5t-42.5 -108.5q0 -61 43 -105
t106 -44z" />
    <glyph glyph-name=".null" horiz-adv-x="0" 
 />
    <glyph glyph-name="nonmarkingreturn" horiz-adv-x="682" 
 />
    <glyph glyph-name="space" unicode=" " horiz-adv-x="471" 
 />
    <glyph glyph-name="exclam" unicode="!" horiz-adv-x="507" 
d="M152 1434h204l-8 -1035h-188zM254 -20q-60 0 -99.5 39t-39.5 98q0 57 39.5 97t99.5 40q58 0 98.5 -40t40.5 -97q0 -58 -40 -97.5t-99 -39.5z" />
    <glyph glyph-name="quotedbl" unicode="&#x22;" horiz-adv-x="706" 
d="M119 963l-17 471h191l-14 -471h-160zM428 963l-14 471h190l-14 -471h-162z" />
    <glyph glyph-name="numbersign" unicode="#" horiz-adv-x="1366" 
d="M1315 872h-281l-88 -309h287v-164h-332l-113 -399h-165l112 399h-280l-113 -399h-166l113 399h-236v164h281l88 309h-287v162h332l113 400h165l-112 -400h280l113 400h166l-113 -400h236v-162zM780 563l88 309h-280l-88 -309h280z" />
    <glyph glyph-name="dollar" unicode="$" horiz-adv-x="1218" 
d="M1130 397q0 -163 -119.5 -277t-308.5 -136v-230h-180v234q-189 29 -306.5 157t-117.5 308h195q0 -127 92.5 -207t237.5 -80q136 0 223.5 64.5t87.5 166.5q0 59 -28 102.5t-75 70t-108 46.5t-129 37t-135.5 36t-128.5 48.5t-108 69.5t-75 105t-28 149q0 155 112 262
t291 127v229h180v-233q182 -28 282.5 -145.5t100.5 -278.5h-202q-3 107 -84 176.5t-209 69.5q-123 0 -201 -57.5t-78 -149.5q0 -53 28 -92.5t75.5 -63t109 -41.5t129.5 -34.5t135.5 -36t129 -51t109 -74.5t75.5 -112.5t28 -158.5z" />
    <glyph glyph-name="percent" unicode="%" horiz-adv-x="1492" 
d="M698 1157q0 -129 -79.5 -214t-202.5 -85t-204 85t-81 214t81 213t204 84t202.5 -84t79.5 -213zM1145 1434h155l-952 -1434h-155zM569 1157q0 77 -42 125.5t-111 48.5q-70 0 -113 -48.5t-43 -125.5t43 -126.5t113 -49.5q68 0 110.5 49.5t42.5 126.5zM1360 279
q0 -129 -80 -214t-203 -85t-202.5 85t-79.5 214t79.5 212.5t202.5 83.5t203 -83.5t80 -212.5zM1231 279q0 77 -42 126.5t-112 49.5t-111.5 -49t-41.5 -127t42 -127.5t111 -49.5q70 0 112 49.5t42 127.5z" />
    <glyph glyph-name="ampersand" unicode="&#x26;" horiz-adv-x="1478" 
d="M1368 0h-252l-176 186q-107 -104 -210 -155t-228 -51q-177 0 -295.5 113t-118.5 282q0 80 23 144t67 111t91.5 79.5t113.5 64.5q-69 77 -109.5 153t-40.5 169q0 152 108 255t269 103q155 0 260 -103t105 -255q0 -73 -22.5 -132t-66.5 -103t-89.5 -74t-110.5 -62l256 -270
l168 168h254l-295 -304zM416 1100q0 -57 37.5 -113.5t109.5 -130.5q54 24 90.5 45t71.5 50.5t52.5 66.5t17.5 82q0 76 -54 128t-131 52q-83 0 -138.5 -51.5t-55.5 -128.5zM518 170q75 0 144 37t149 117l-301 319q-106 -51 -162.5 -108.5t-56.5 -145.5q0 -95 63.5 -157
t163.5 -62z" />
    <glyph glyph-name="quotesingle" unicode="'" horiz-adv-x="395" 
d="M119 963l-17 471h191l-14 -471h-160z" />
    <glyph glyph-name="parenleft" unicode="(" horiz-adv-x="651" 
d="M154 592q0 312 119 591.5t313 440.5l112 -127q-165 -137 -265.5 -382.5t-100.5 -522.5t100.5 -522.5t265.5 -382.5l-112 -127q-194 161 -313 440.5t-119 591.5z" />
    <glyph glyph-name="parenright" unicode=")" horiz-adv-x="651" 
d="M498 592q0 -312 -119 -591.5t-313 -440.5l-113 127q165 137 265.5 382.5t100.5 522.5t-100.5 522.5t-265.5 382.5l113 127q194 -161 313 -440.5t119 -591.5z" />
    <glyph glyph-name="asterisk" unicode="*" horiz-adv-x="1013" 
d="M922 1124l-314 -92l207 -282l-98 -80l-211 282l-211 -284l-98 84l209 280l-316 92l43 123l309 -90v318h129v-318l310 90z" />
    <glyph glyph-name="plus" unicode="+" horiz-adv-x="1189" 
d="M1057 733v-176h-375v-375h-176v375h-375v176h375v375h176v-375h375z" />
    <glyph glyph-name="comma" unicode="," horiz-adv-x="518" 
d="M403 211l-135 -444h-153l86 444h202z" />
    <glyph glyph-name="hyphen" unicode="-" horiz-adv-x="679" 
d="M51 440v176h578v-176h-578z" />
    <glyph glyph-name="period" unicode="." horiz-adv-x="507" 
d="M254 -20q-60 0 -99.5 39t-39.5 98q0 57 39.5 97t99.5 40q58 0 98.5 -40t40.5 -97q0 -58 -40 -97.5t-99 -39.5z" />
    <glyph glyph-name="slash" unicode="/" horiz-adv-x="866" 
d="M16 0l631 1434h203l-631 -1434h-203z" />
    <glyph glyph-name="zero" unicode="0" horiz-adv-x="1230" 
d="M616 -20q-249 0 -389.5 198t-140.5 539t140.5 539t389.5 198q248 0 388.5 -198.5t140.5 -538.5t-140.5 -538.5t-388.5 -198.5zM616 170q155 0 240.5 140.5t85.5 406.5t-85.5 406.5t-240.5 140.5q-157 0 -242 -140.5t-85 -406.5t85 -406.5t242 -140.5z" />
    <glyph glyph-name="one" unicode="1" horiz-adv-x="759" 
d="M614 1434v-1434h-198v1163l-326 -272v239l385 304h139z" />
    <glyph glyph-name="two" unicode="2" horiz-adv-x="1136" 
d="M90 0v143l524 523q117 117 168.5 197t51.5 161q0 104 -74.5 172t-188.5 68q-133 0 -211.5 -83.5t-74.5 -222.5h-199q-4 147 58.5 260.5t175 174.5t255.5 61q200 0 330.5 -120t130.5 -306q0 -119 -71.5 -236.5t-208.5 -248.5l-353 -353h648v-190h-961z" />
    <glyph glyph-name="three" unicode="3" horiz-adv-x="1107" 
d="M367 829l374 416h-661v189h940v-136l-414 -444q178 12 301 -103t123 -296q0 -209 -140.5 -342t-357.5 -133q-199 0 -335.5 110t-155.5 287h197q19 -92 97.5 -149.5t196.5 -57.5q129 0 212 81.5t83 207.5q0 77 -37.5 135.5t-100.5 87.5t-146.5 35t-175.5 -21v133z" />
    <glyph glyph-name="four" unicode="4" horiz-adv-x="1193" 
d="M1141 494v-181h-183v-313h-198v313h-719v140l520 981h223l-497 -940h473v448h198v-448h183z" />
    <glyph glyph-name="five" unicode="5" horiz-adv-x="1089" 
d="M528 -20q-196 0 -334 108.5t-153 288.5h197q22 -93 100.5 -150t189.5 -57q123 0 207 83.5t84 203.5q0 126 -84 210.5t-207 84.5q-75 0 -141 -26t-106 -71h-172l67 779h754v-187h-578l-41 -409q40 36 106.5 56.5t137.5 20.5q201 0 334 -128t133 -334q0 -130 -66 -239
t-179.5 -171.5t-248.5 -62.5z" />
    <glyph glyph-name="six" unicode="6" horiz-adv-x="1097" 
d="M584 934q195 0 327.5 -135t132.5 -336q0 -131 -66 -242t-179 -176t-246 -65q-134 0 -247 65t-179 176t-66 242q0 76 30 169.5t87 184.5l383 617h225l-335 -531q71 31 133 31zM553 168q126 0 213.5 85.5t87.5 211.5t-87.5 212.5t-215.5 86.5q-126 0 -212.5 -86.5
t-86.5 -212.5t87.5 -211.5t213.5 -85.5z" />
    <glyph glyph-name="seven" unicode="7" horiz-adv-x="1034" 
d="M31 1434h956v-138l-616 -1296h-219l598 1245h-719v189z" />
    <glyph glyph-name="eight" unicode="8" horiz-adv-x="1093" 
d="M547 -18q-210 0 -345.5 119t-135.5 302q0 126 75 227.5t197 141.5q-96 37 -156.5 122t-60.5 183q0 163 120 268t306 105t306 -105t120 -268q0 -98 -60.5 -183t-156.5 -122q122 -40 197 -141.5t75 -227.5q0 -183 -135.5 -302t-345.5 -119zM547 864q103 0 169 57.5
t66 147.5q0 89 -66 146t-169 57t-168.5 -57t-65.5 -146q0 -91 65.5 -148t168.5 -57zM547 166q126 0 207.5 71.5t81.5 180.5q0 107 -81.5 177.5t-207.5 70.5q-124 0 -205.5 -70.5t-81.5 -177.5q0 -109 81.5 -180.5t205.5 -71.5z" />
    <glyph glyph-name="nine" unicode="9" horiz-adv-x="1097" 
d="M545 1454q134 0 247.5 -65t179.5 -176t66 -242q0 -76 -30.5 -170t-87.5 -185l-383 -616h-226l340 532q-69 -32 -137 -32q-195 0 -328 135t-133 336q0 131 66 242t179.5 176t246.5 65zM547 670q126 0 212.5 86.5t86.5 212.5t-87.5 211.5t-213.5 85.5t-213.5 -85.5
t-87.5 -211.5t87.5 -212.5t215.5 -86.5z" />
    <glyph glyph-name="colon" unicode=":" horiz-adv-x="507" 
d="M254 662q-60 0 -99.5 40t-39.5 97q0 59 39.5 98t99.5 39q59 0 99 -39.5t40 -97.5q0 -57 -40.5 -97t-98.5 -40zM254 -20q-60 0 -99.5 39t-39.5 98q0 57 39.5 97t99.5 40q58 0 98.5 -40t40.5 -97q0 -58 -40 -97.5t-99 -39.5z" />
    <glyph glyph-name="semicolon" unicode=";" horiz-adv-x="569" 
d="M315 598q-59 0 -99 39.5t-40 97.5q0 57 40.5 97t98.5 40t99 -40t41 -97q0 -58 -40.5 -97.5t-99.5 -39.5zM403 221l-135 -442h-153l86 442h202z" />
    <glyph glyph-name="less" unicode="&#x3c;" horiz-adv-x="1134" 
d="M1004 244l-873 399v148l873 397v-193l-623 -278l623 -279v-194z" />
    <glyph glyph-name="equal" unicode="=" horiz-adv-x="1189" 
d="M1057 946v-176h-926v176h926zM1057 539v-177h-926v177h926z" />
    <glyph glyph-name="greater" unicode="&#x3e;" horiz-adv-x="1134" 
d="M131 244v194l623 279l-623 278v193l873 -397v-148z" />
    <glyph glyph-name="question" unicode="?" horiz-adv-x="1026" 
d="M516 1454q195 0 326 -118t131 -296q0 -76 -21.5 -140t-56 -108.5t-76.5 -83.5t-84 -72.5t-77 -67.5t-57 -77.5t-23 -93.5h-193q0 76 21 138.5t55 104.5t75 77.5t82.5 67t75.5 63.5t55 76.5t21 97.5q0 109 -72 175.5t-186 66.5q-126 0 -203.5 -81t-77.5 -206h-196
q-3 204 134.5 340.5t346.5 136.5zM487 -20q-59 0 -99 39.5t-40 97.5q0 57 40.5 97t98.5 40q60 0 100 -40t40 -97q0 -59 -40 -98t-100 -39z" />
    <glyph glyph-name="at" unicode="@" horiz-adv-x="1904" 
d="M1196 918h156v-510q0 -99 29 -143t96 -44q80 0 127 95t47 259q0 278 -191 439.5t-518 161.5q-195 0 -352 -89t-245.5 -246t-88.5 -352q0 -189 86 -341t238 -238t340 -86q113 0 210.5 33.5t135.5 85.5h207q-67 -119 -219 -189.5t-334 -70.5q-171 0 -322.5 61.5
t-260.5 167.5t-172 256t-63 321q0 175 64.5 329t176 263.5t267.5 172.5t332 63q399 0 629.5 -199t230.5 -543q0 -232 -90.5 -363.5t-243.5 -131.5q-190 0 -245 149q-52 -77 -132 -119t-180 -42q-169 0 -286 125.5t-117 308.5q0 181 117 306.5t286 125.5q188 0 285 -152v136z
M932 219q118 0 191 77.5t73 205.5q0 127 -73 203.5t-191 76.5q-116 0 -194.5 -81t-78.5 -199t79.5 -200.5t193.5 -82.5z" />
    <glyph glyph-name="A" unicode="A" horiz-adv-x="1361" 
d="M1124 0l-125 317h-643l-125 -317h-208l571 1434h170l575 -1434h-215zM432 506h494l-246 629z" />
    <glyph glyph-name="B" unicode="B" horiz-adv-x="1208" 
d="M145 0v1434h510q174 0 296 -107.5t122 -257.5q0 -110 -65.5 -199t-165.5 -112q130 -17 216.5 -119.5t86.5 -239.5q0 -168 -124.5 -283.5t-303.5 -115.5h-572zM342 823h307q94 0 159.5 63t65.5 154q0 86 -65.5 145.5t-159.5 59.5h-307v-422zM342 188h363q103 0 171 68.5
t68 169.5q0 98 -69 167t-168 69h-365v-474z" />
    <glyph glyph-name="C" unicode="C" horiz-adv-x="1558" 
d="M809 -20q-200 0 -364.5 97t-258.5 267t-94 377q0 204 94 372t258.5 264.5t364.5 96.5q243 0 430 -140.5t225 -355.5h-219q-37 135 -158.5 220.5t-277.5 85.5q-143 0 -261 -71.5t-185.5 -196.5t-67.5 -275q0 -233 148 -392t366 -159q159 0 281 90.5t157 233.5h221
q-44 -228 -227.5 -371t-431.5 -143z" />
    <glyph glyph-name="D" unicode="D" horiz-adv-x="1406" 
d="M604 1434q148 0 279.5 -54t226.5 -147.5t150 -226t55 -283.5q0 -153 -55 -287.5t-149.5 -230t-226.5 -150.5t-280 -55h-459v1434h459zM616 188q214 0 355 152.5t141 382.5q0 227 -140.5 374.5t-355.5 147.5h-272v-1057h272z" />
    <glyph glyph-name="E" unicode="E" horiz-adv-x="1073" 
d="M145 1434h824v-189h-625v-393h557v-188h-557v-476h625v-188h-824v1434z" />
    <glyph glyph-name="F" unicode="F" horiz-adv-x="1040" 
d="M145 1434h824v-189h-625v-416h557v-188h-557v-641h-199v1434z" />
    <glyph glyph-name="G" unicode="G" horiz-adv-x="1591" 
d="M1491 782q8 -41 8 -116q0 -196 -90 -353.5t-247.5 -245t-350.5 -87.5q-201 0 -366 97t-259 266.5t-94 375.5q0 205 94 373.5t259 265t366 96.5q227 0 418 -135t239 -322h-223q-44 116 -168.5 191.5t-265.5 75.5q-218 0 -367 -157.5t-149 -387.5q0 -153 68 -278.5
t189.5 -198t270.5 -72.5q188 0 322.5 119t157.5 303h-474v190h662z" />
    <glyph glyph-name="H" unicode="H" horiz-adv-x="1437" 
d="M1094 1434h198v-1434h-198v649h-750v-649h-199v1434h199v-596h750v596z" />
    <glyph glyph-name="I" unicode="I" horiz-adv-x="489" 
d="M145 1434h199v-1434h-199v1434z" />
    <glyph glyph-name="J" unicode="J" horiz-adv-x="638" 
d="M49 170q12 -2 43 -2q106 0 159.5 64.5t53.5 203.5v998h199v-1047q0 -191 -97 -298t-262 -107q-49 0 -96 6v182z" />
    <glyph glyph-name="K" unicode="K" horiz-adv-x="1296" 
d="M1253 0h-262l-649 711v-711h-197v1434h197v-639l600 639h252l-643 -680z" />
    <glyph glyph-name="L" unicode="L" horiz-adv-x="1118" 
d="M145 1434h199v-1246h705v-188h-904v1434z" />
    <glyph glyph-name="M" unicode="M" horiz-adv-x="1763" 
d="M145 0v1434h236l512 -1145l524 1145h201v-1434h-199v1042l-467 -1042h-145l-463 1042v-1042h-199z" />
    <glyph glyph-name="N" unicode="N" horiz-adv-x="1409" 
d="M145 1434h179l741 -1061v1061h197v-1434h-175l-743 1059v-1059h-199v1434z" />
    <glyph glyph-name="O" unicode="O" horiz-adv-x="1634" 
d="M817 1454q151 0 285.5 -56.5t231 -154t152.5 -233.5t56 -289q0 -155 -56 -292.5t-152.5 -236t-231 -155.5t-285.5 -57q-152 0 -286.5 57t-230.5 155.5t-152 236t-56 292.5q0 204 94.5 372t261 264.5t369.5 96.5zM817 1264q-145 0 -265 -71.5t-188.5 -196.5t-68.5 -275
q0 -233 150.5 -392t371.5 -159t371.5 159t150.5 392q0 150 -68.5 275t-188.5 196.5t-265 71.5z" />
    <glyph glyph-name="P" unicode="P" horiz-adv-x="1206" 
d="M696 1434q189 0 315 -121.5t126 -304.5t-126 -305.5t-315 -122.5h-352v-580h-199v1434h551zM696 768q103 0 173.5 69.5t70.5 170.5t-70.5 169t-173.5 68h-352v-477h352z" />
    <glyph glyph-name="Q" unicode="Q" horiz-adv-x="1652" 
d="M1546 0h-229l-88 104q-181 -124 -412 -124q-152 0 -286.5 57t-230.5 155.5t-152 236t-56 292.5q0 204 94.5 372t261 264.5t369.5 96.5q151 0 285.5 -56.5t231 -154t152.5 -233.5t56 -289q0 -293 -182 -500zM817 170q160 0 285 86l-340 408h227l240 -287q110 148 110 344
q0 150 -68.5 275t-188.5 196.5t-265 71.5t-265 -71.5t-188.5 -196.5t-68.5 -275q0 -233 150.5 -392t371.5 -159z" />
    <glyph glyph-name="R" unicode="R" horiz-adv-x="1261" 
d="M1206 0h-237l-381 596h-244v-596h-199v1434h529q181 0 306.5 -120t125.5 -296q0 -155 -82 -263.5t-221 -144.5zM342 1245l2 -461h326q103 0 170 66.5t67 167.5q0 98 -67 162.5t-170 64.5h-328z" />
    <glyph glyph-name="S" unicode="S" horiz-adv-x="1218" 
d="M623 -20q-227 0 -376 134.5t-149 338.5h195q0 -127 92.5 -207t237.5 -80q136 0 223.5 64.5t87.5 166.5q0 59 -28 102.5t-75 70t-108 46.5t-129 37t-135.5 36t-128.5 48.5t-108 69.5t-75 105t-28 149q0 171 135.5 282t341.5 111q229 0 359 -123.5t130 -308.5h-202
q-3 107 -84 176.5t-209 69.5q-123 0 -201 -57.5t-78 -149.5q0 -53 28 -92.5t75.5 -63t109 -41.5t129.5 -34.5t135.5 -36t129 -51t109 -74.5t75.5 -112.5t28 -158.5q0 -181 -144 -299t-363 -118z" />
    <glyph glyph-name="T" unicode="T" horiz-adv-x="1218" 
d="M1163 1434v-189h-454v-1245h-199v1245h-455v189h1108z" />
    <glyph glyph-name="U" unicode="U" horiz-adv-x="1396" 
d="M698 -20q-238 0 -395.5 160t-157.5 401v893h199v-893q0 -159 100.5 -264t253.5 -105t254 105t101 264v893h198v-893q0 -241 -157.5 -401t-395.5 -160z" />
    <glyph glyph-name="V" unicode="V" horiz-adv-x="1310" 
d="M31 1434h211l415 -1125l416 1125h207l-541 -1434h-166z" />
    <glyph glyph-name="W" unicode="W" horiz-adv-x="2080" 
d="M1843 1434h209l-479 -1434h-168l-363 1114l-362 -1114h-168l-481 1434h209l360 -1115l363 1115h167l359 -1117z" />
    <glyph glyph-name="X" unicode="X" horiz-adv-x="1277" 
d="M1247 0h-233l-377 567l-377 -567h-229l491 739l-461 695h236l342 -516l344 516h231l-458 -691z" />
    <glyph glyph-name="Y" unicode="Y" horiz-adv-x="1304" 
d="M31 1434h239l389 -603l385 603h232l-520 -801v-633h-199v633z" />
    <glyph glyph-name="Z" unicode="Z" horiz-adv-x="1200" 
d="M102 1434h1022v-138l-805 -1108h814v-188h-1076v139l807 1106h-762v189z" />
    <glyph glyph-name="bracketleft" unicode="[" horiz-adv-x="667" 
d="M305 1458v-1677h301v-154h-475v1987h475v-156h-301z" />
    <glyph glyph-name="backslash" unicode="\" horiz-adv-x="851" 
d="M829 0h-200l-631 1434h201z" />
    <glyph glyph-name="bracketright" unicode="]" horiz-adv-x="673" 
d="M369 1458h-301v156h475v-1987h-475v154h301v1677z" />
    <glyph glyph-name="asciicircum" unicode="^" horiz-adv-x="1148" 
d="M1047 584h-195l-279 622l-278 -622h-193l400 870h147z" />
    <glyph glyph-name="underscore" unicode="_" horiz-adv-x="1110" 
d="M41 -197v177h1028v-177h-1028z" />
    <glyph glyph-name="grave" unicode="`" horiz-adv-x="604" 
d="M102 1413h230l170 -297h-178z" />
    <glyph glyph-name="a" unicode="a" horiz-adv-x="1263" 
d="M944 999h189v-999h-189v205q-56 -109 -153 -167t-228 -58q-202 0 -343.5 151.5t-141.5 368.5t141.5 368.5t343.5 151.5q131 0 228 -58t153 -167v204zM602 160q148 0 245 96t97 244t-97 244t-245 96q-142 0 -241 -99t-99 -241t99 -241t241 -99z" />
    <glyph glyph-name="b" unicode="b" horiz-adv-x="1263" 
d="M700 1020q134 0 246 -69t177 -189t65 -262t-65 -262t-177 -189t-246 -69q-129 0 -225.5 57.5t-152.5 163.5v-201h-191v1434h191v-635q56 106 152.5 163.5t225.5 57.5zM662 160q142 0 240.5 98.5t98.5 241.5t-98.5 241.5t-240.5 98.5q-147 0 -243.5 -96.5t-96.5 -243.5
t96.5 -243.5t243.5 -96.5z" />
    <glyph glyph-name="c" unicode="c" horiz-adv-x="1140" 
d="M594 -20q-143 0 -261.5 68t-186.5 187t-68 263q0 221 149 371.5t367 150.5q175 0 309.5 -104.5t159.5 -260.5h-193q-22 80 -100 132.5t-176 52.5q-141 0 -236.5 -98t-95.5 -244q0 -143 95.5 -240.5t236.5 -97.5q100 0 179 53.5t99 138.5h191q-22 -163 -156 -267.5
t-313 -104.5z" />
    <glyph glyph-name="d" unicode="d" horiz-adv-x="1263" 
d="M944 1434h189v-1434h-189v205q-56 -109 -153 -167t-228 -58q-202 0 -343.5 151.5t-141.5 368.5t141.5 368.5t343.5 151.5q131 0 228 -58t153 -167v639zM602 160q148 0 245 96t97 244t-97 244t-245 96q-142 0 -241 -99t-99 -241t99 -241t241 -99z" />
    <glyph glyph-name="e" unicode="e" horiz-adv-x="1148" 
d="M1071 524q0 -43 -4 -75h-803q17 -137 105.5 -218t226.5 -81q105 0 181 47.5t95 126.5h189q-28 -156 -158 -250t-313 -94q-218 0 -365 150.5t-147 373.5q0 142 67 260.5t184.5 187t258.5 68.5q203 0 343 -141t140 -355zM270 608h596q-12 106 -90.5 173t-195.5 67
q-118 0 -201 -64t-109 -176z" />
    <glyph glyph-name="f" unicode="f" horiz-adv-x="749" 
d="M631 1288q-201 0 -201 -190v-99h272v-180h-272v-819h-188v819h-195v180h195v101q0 179 94 272.5t256 93.5q60 0 110 -12v-174q-31 8 -71 8z" />
    <glyph glyph-name="g" unicode="g" horiz-adv-x="1263" 
d="M944 999h189v-964q0 -207 -140.5 -331t-361.5 -124q-84 0 -165 20t-154.5 60.5t-121 112t-51.5 164.5h187q4 -90 90 -144.5t209 -54.5q137 0 228 80t91 209v196q-56 -106 -153.5 -163.5t-227.5 -57.5q-202 0 -343.5 149t-141.5 361q0 139 64.5 256t176 184.5t244.5 67.5
q130 0 227.5 -57t153.5 -162v198zM602 178q148 0 245 94.5t97 239.5q0 143 -97 237.5t-245 94.5q-142 0 -241 -97t-99 -235q0 -140 99 -237t241 -97z" />
    <glyph glyph-name="h" unicode="h" horiz-adv-x="1191" 
d="M641 1020q193 0 305.5 -121t112.5 -328v-571h-189v551q0 131 -74 210t-198 79q-126 0 -201 -79t-75 -210v-551h-191v1434h191v-609q48 93 130.5 144t188.5 51z" />
    <glyph glyph-name="i" unicode="i" horiz-adv-x="452" 
d="M227 1448q51 0 89 -38t38 -89q0 -52 -38 -89.5t-89 -37.5q-53 0 -90 37t-37 90q0 51 37.5 89t89.5 38zM131 999h191v-999h-191v999z" />
    <glyph glyph-name="j" unicode="j" horiz-adv-x="452" 
d="M227 1448q51 0 89 -38t38 -89q0 -52 -38 -89.5t-89 -37.5q-53 0 -90 37t-37 90q0 51 37.5 89t89.5 38zM-25 -231q8 -2 27 -2q129 0 129 182v1050h191v-1067q0 -164 -79 -252t-223 -88q-7 0 -22 1t-23 1v175z" />
    <glyph glyph-name="k" unicode="k" horiz-adv-x="1062" 
d="M1032 0h-248l-462 477v-477h-191v1434h191v-873l442 438h235l-489 -479z" />
    <glyph glyph-name="l" unicode="l" horiz-adv-x="452" 
d="M322 1434v-1434h-191v1434h191z" />
    <glyph glyph-name="m" unicode="m" horiz-adv-x="1832" 
d="M1292 1020q185 0 296.5 -112.5t111.5 -303.5v-604h-189v565q0 128 -66 201.5t-181 73.5q-104 0 -179 -69.5t-75 -205.5v-565h-189v565q0 128 -66.5 201.5t-183.5 73.5q-102 0 -175.5 -68.5t-73.5 -206.5v-565h-191v999h191v-155q50 92 134.5 134t178.5 42q241 0 328 -197
q42 91 132 144t197 53z" />
    <glyph glyph-name="n" unicode="n" horiz-adv-x="1191" 
d="M641 1020q193 0 305.5 -121t112.5 -328v-571h-189v551q0 131 -74 210t-198 79q-126 0 -201 -79t-75 -210v-551h-191v999h191v-174q48 93 130.5 144t188.5 51z" />
    <glyph glyph-name="o" unicode="o" horiz-adv-x="1187" 
d="M594 1020q143 0 261 -68.5t186.5 -188.5t68.5 -265q0 -219 -149.5 -368.5t-366.5 -149.5q-143 0 -261.5 68t-186.5 187t-68 263q0 221 149 371.5t367 150.5zM594 840q-141 0 -236.5 -98t-95.5 -244q0 -143 95.5 -240.5t236.5 -97.5q140 0 236 98t96 240q0 146 -96 244
t-236 98z" />
    <glyph glyph-name="p" unicode="p" horiz-adv-x="1263" 
d="M700 1020q134 0 246 -69t177 -189t65 -262t-65 -262t-177 -189t-246 -69q-129 0 -225.5 57.5t-152.5 163.5v-563h-191v1361h191v-200q56 106 152.5 163.5t225.5 57.5zM662 160q142 0 240.5 98.5t98.5 241.5t-98.5 241.5t-240.5 98.5q-147 0 -243.5 -96.5t-96.5 -243.5
t96.5 -243.5t243.5 -96.5z" />
    <glyph glyph-name="q" unicode="q" horiz-adv-x="1263" 
d="M944 999h189v-1361h-189v567q-56 -109 -153 -167t-228 -58q-202 0 -343.5 151.5t-141.5 368.5t141.5 368.5t343.5 151.5q131 0 228 -58t153 -167v204zM602 160q148 0 245 96t97 244t-97 244t-245 96q-142 0 -241 -99t-99 -241t99 -241t241 -99z" />
    <glyph glyph-name="r" unicode="r" 
d="M596 1018q48 0 92 -12v-175q-53 17 -98 17q-115 0 -191.5 -78.5t-76.5 -206.5v-563h-191v999h191v-145q45 77 116 120.5t158 43.5z" />
    <glyph glyph-name="s" unicode="s" horiz-adv-x="937" 
d="M481 -20q-176 0 -290.5 88t-129.5 239h181q9 -74 72.5 -119t158.5 -45q93 0 149 39.5t56 102.5q0 50 -33 82t-85 47.5t-115.5 27.5t-127 28.5t-115.5 43.5t-85 80.5t-33 130.5q0 129 101 212t266 83q155 0 266 -80.5t129 -220.5h-191q-9 61 -66.5 101t-142.5 40
q-79 0 -128.5 -33t-49.5 -88q0 -48 33 -77.5t85 -43.5t115.5 -25t127 -28.5t115.5 -46.5t85 -87t33 -142q0 -133 -109 -221t-272 -88z" />
    <glyph glyph-name="t" unicode="t" horiz-adv-x="743" 
d="M680 819h-270v-461q0 -192 200 -192q43 0 70 8v-174q-46 -12 -109 -12q-162 0 -256 93.5t-94 272.5v465h-194v180h194v271h189v-271h270v-180z" />
    <glyph glyph-name="u" unicode="u" horiz-adv-x="1191" 
d="M870 999h189v-999h-189v176q-48 -94 -130.5 -145t-190.5 -51q-192 0 -305 120.5t-113 325.5v573h191v-550q0 -131 73.5 -210t196.5 -79q127 0 202.5 79t75.5 210v550z" />
    <glyph glyph-name="v" unicode="v" horiz-adv-x="1069" 
d="M1038 999l-422 -999h-163l-422 999h205l299 -753l296 753h207z" />
    <glyph glyph-name="w" unicode="w" horiz-adv-x="1611" 
d="M393 0l-362 999h200l240 -716l256 716h154l260 -716l237 716h203l-364 -999h-152l-260 717l-262 -717h-150z" />
    <glyph glyph-name="x" unicode="x" horiz-adv-x="1044" 
d="M1006 0h-228l-258 358l-258 -358h-223l371 516l-349 483h226l235 -325l234 325h225l-346 -483z" />
    <glyph glyph-name="y" unicode="y" horiz-adv-x="1062" 
d="M829 999h203l-571 -1364h-203l176 400l-403 964h202l297 -745z" />
    <glyph glyph-name="z" unicode="z" horiz-adv-x="1026" 
d="M940 999v-139l-616 -684l618 4v-180h-883v139l619 684l-576 -4v180h838z" />
    <glyph glyph-name="braceleft" unicode="{" horiz-adv-x="804" 
d="M616 -373q-170 0 -272 104.5t-102 284.5v326q0 73 -55 132.5t-146 84.5v121q91 24 146 84.5t55 132.5v328q0 179 102 283t272 106h136v-156h-136q-92 0 -150 -64t-58 -169v-314q0 -92 -45.5 -169t-120.5 -121q76 -47 121 -124t45 -167v-314q0 -106 58 -170.5t150 -64.5
h136v-154h-136z" />
    <glyph glyph-name="bar" unicode="|" horiz-adv-x="460" 
d="M131 1638h199v-2003h-199v2003z" />
    <glyph glyph-name="braceright" unicode="}" horiz-adv-x="804" 
d="M188 -373h-135v154h135q92 0 150.5 64.5t58.5 170.5v314q0 90 45 167t121 124q-75 44 -120.5 121t-45.5 169v314q0 105 -58.5 169t-150.5 64h-135v156h135q170 -2 271.5 -106t101.5 -283v-328q0 -71 56 -132t147 -85v-121q-92 -25 -147.5 -85t-55.5 -132v-326
q0 -180 -101.5 -284.5t-271.5 -104.5z" />
    <glyph glyph-name="asciitilde" unicode="~" horiz-adv-x="1185" 
d="M293 487l-162 21q17 139 87 218t173 79q49 0 107.5 -21t103.5 -46.5t94 -46.5t80 -21q94 0 115 151l164 -20q-20 -139 -90.5 -219t-171.5 -80q-47 0 -104 21.5t-100.5 47t-93.5 47t-85 21.5q-93 0 -117 -152z" />
    <glyph glyph-name="uni00A0" unicode="&#xa0;" horiz-adv-x="471" 
 />
    <glyph glyph-name="exclamdown" unicode="&#xa1;" horiz-adv-x="507" 
d="M254 1454q59 0 99 -39.5t40 -97.5q0 -57 -40.5 -97t-98.5 -40q-60 0 -99.5 40t-39.5 97q0 59 39.5 98t99.5 39zM152 0l8 1034h188l8 -1034h-204z" />
    <glyph glyph-name="cent" unicode="&#xa2;" horiz-adv-x="1140" 
d="M594 160q100 0 179 53.5t99 138.5h191q-18 -142 -125.5 -241.5t-259.5 -124.5v-232h-191v236q-180 35 -294.5 176t-114.5 332q0 192 114.5 334.5t294.5 177.5v235h191v-231q149 -25 256 -123.5t129 -235.5h-193q-22 80 -100 132.5t-176 52.5q-141 0 -236.5 -98
t-95.5 -244q0 -143 95.5 -240.5t236.5 -97.5z" />
    <glyph glyph-name="sterling" unicode="&#xa3;" horiz-adv-x="1234" 
d="M520 514q0 -209 -151 -326h782v-188h-1006v188q177 111 177 322v131h-164v162h164v213q0 194 115 316t304 122q169 0 285 -94t129 -248h-203q-6 66 -63.5 109t-143.5 43q-104 0 -164.5 -77.5t-60.5 -203.5v-180h377v-162h-377v-127z" />
    <glyph glyph-name="currency" unicode="&#xa4;" horiz-adv-x="1593" 
d="M1360 721q0 -181 -103 -318l205 -202l-143 -142l-203 203q-142 -102 -315 -102q-180 0 -322 104l-205 -205l-143 142l207 205q-105 140 -105 315q0 179 107 317l-209 207l143 141l207 -206q137 106 320 106q176 0 315 -104l203 204l143 -141l-205 -205q103 -137 103 -319
zM801 344q157 0 266 109.5t109 267.5q0 160 -109 270.5t-266 110.5t-270 -112t-113 -269q0 -155 113 -266t270 -111z" />
    <glyph glyph-name="yen" unicode="&#xa5;" horiz-adv-x="1304" 
d="M1276 1434l-434 -670h299v-162h-385v-602h-199v602h-391v162h305l-440 670h239l389 -603l385 603h232z" />
    <glyph glyph-name="brokenbar" unicode="&#xa6;" horiz-adv-x="460" 
d="M131 883v755h199v-755h-199zM131 -365v756h199v-756h-199z" />
    <glyph glyph-name="section" unicode="&#xa7;" horiz-adv-x="1271" 
d="M1126 461q0 -123 -79 -221q79 -89 79 -234q0 -163 -135.5 -277t-347.5 -114q-217 0 -357.5 125.5t-140.5 318.5h168q0 -127 92 -205.5t238 -78.5q137 0 225 64.5t88 166.5q0 74 -43.5 123.5t-113 76t-154 47t-169 46t-154 62.5t-113 107.5t-43.5 170.5q0 128 90 227
q-90 83 -90 228q0 159 129.5 262.5t325.5 103.5q214 0 338 -115t124 -286h-174q-3 106 -84.5 173.5t-208.5 67.5q-126 0 -204 -56.5t-78 -147.5q0 -54 27 -93t73 -62.5t105.5 -41t125 -33t131 -33.5t125 -47.5t105.5 -70t73 -105.5t27 -149zM334 639q0 -62 35.5 -104
t100 -66.5t132.5 -41t156 -40t147 -49.5q51 51 51 123q0 55 -25.5 97t-64.5 67t-98.5 46.5t-114.5 34t-126 32t-121 38.5q-72 -53 -72 -137z" />
    <glyph glyph-name="dieresis" unicode="&#xa8;" horiz-adv-x="811" 
d="M229 1448q52 0 90.5 -38t38.5 -89q0 -52 -38 -89.5t-91 -37.5t-90 37t-37 90q0 51 37.5 89t89.5 38zM580 1448q52 0 90.5 -38t38.5 -89q0 -52 -38 -89.5t-91 -37.5q-52 0 -89.5 37t-37.5 90q0 51 37.5 89t89.5 38z" />
    <glyph glyph-name="copyright" unicode="&#xa9;" horiz-adv-x="1656" 
d="M827 -20q-198 0 -367.5 99t-268.5 268.5t-99 369.5t99 369.5t268.5 268.5t367.5 99q150 0 287 -58.5t236.5 -157.5t158 -235t58.5 -286t-58.5 -286t-158 -235t-236.5 -157.5t-287 -58.5zM829 66q131 0 251 52t207 139t138.5 207.5t51.5 252.5t-51.5 252.5t-138.5 207.5
t-207 139t-251 52q-175 0 -324.5 -87.5t-237 -237.5t-87.5 -326t87.5 -326t237 -237.5t324.5 -87.5zM836 295q-175 0 -294.5 122.5t-119.5 303.5q0 180 119.5 301t294.5 121q141 0 248.5 -81t129.5 -206h-133q-22 77 -89.5 124.5t-155.5 47.5q-123 0 -207 -89t-84 -218
q0 -131 84 -221t207 -90q90 0 158.5 50.5t88.5 131.5h134q-25 -132 -131.5 -214.5t-249.5 -82.5z" />
    <glyph glyph-name="ordfeminine" unicode="&#xaa;" horiz-adv-x="755" 
d="M557 1440h123v-600h-123v116q-68 -129 -221 -129q-121 0 -206 92.5t-85 221.5q0 130 84.5 220.5t206.5 90.5q74 0 131 -33t90 -94v115zM362 946q83 0 139 56t56 139t-56 138.5t-139 55.5t-140.5 -56t-57.5 -138t57.5 -138.5t140.5 -56.5z" />
    <glyph glyph-name="guillemotleft" unicode="&#xab;" horiz-adv-x="1357" 
d="M664 74l-568 418v129l568 419v-198l-394 -285l394 -283v-200zM1243 74l-567 418v129l567 419v-198l-393 -285l393 -283v-200z" />
    <glyph glyph-name="logicalnot" unicode="&#xac;" horiz-adv-x="1193" 
d="M1061 735v-604h-178v426h-752v178h930z" />
    <glyph glyph-name="uni00AD" unicode="&#xad;" horiz-adv-x="679" 
d="M51 440v176h578v-176h-578z" />
    <glyph glyph-name="registered" unicode="&#xae;" horiz-adv-x="1624" 
d="M827 1454q150 0 287 -58.5t236.5 -157.5t158 -235t58.5 -286t-58.5 -286t-158 -235t-236.5 -157.5t-287 -58.5q-198 0 -367.5 99t-268.5 268.5t-99 369.5t99 369.5t268.5 268.5t367.5 99zM829 66q131 0 251 52t207 139t138.5 207.5t51.5 252.5t-51.5 252.5t-138.5 207.5
t-207 139t-251 52q-175 0 -324.5 -87.5t-237 -237.5t-87.5 -326t87.5 -326t237 -237.5t324.5 -87.5zM1116 891q0 -88 -46.5 -150t-125.5 -84l232 -350h-144l-215 340h-137v-340h-121v826h307q103 0 176.5 -70.5t73.5 -171.5zM678 1018l2 -268h174q61 0 101 39t40 96
t-40.5 95t-100.5 38h-176z" />
    <glyph glyph-name="macron" unicode="&#xaf;" horiz-adv-x="860" 
d="M102 1139v153h656v-153h-656z" />
    <glyph glyph-name="degree" unicode="&#xb0;" horiz-adv-x="825" 
d="M709 1159q0 -124 -88 -212.5t-211 -88.5t-210 88t-87 213q0 122 87 208.5t210 86.5t211 -87t88 -208zM586 1159q0 70 -52 121t-124 51t-124.5 -51t-52.5 -121q0 -73 52.5 -125.5t124.5 -52.5t124 52.5t52 125.5z" />
    <glyph glyph-name="plusminus" unicode="&#xb1;" horiz-adv-x="1189" 
d="M682 883h375v-176h-375v-375h-176v375h-375v176h375v374h176v-374zM131 0v176h926v-176h-926z" />
    <glyph glyph-name="uni00B2" unicode="&#xb2;" horiz-adv-x="684" 
d="M55 573v95l307 305q72 72 102 117.5t30 93.5q0 59 -43 98t-107 39q-77 0 -122 -48.5t-44 -129.5h-129q-4 135 80.5 219t216.5 84q122 0 201.5 -73t79.5 -187q0 -134 -172 -293l-195 -195h373v-125h-578z" />
    <glyph glyph-name="uni00B3" unicode="&#xb3;" horiz-adv-x="667" 
d="M217 1073l217 238h-387v123h569v-88l-241 -256q105 4 176.5 -66.5t71.5 -175.5q0 -126 -85 -206.5t-216 -80.5q-121 0 -204.5 68.5t-94.5 175.5h129q11 -52 57 -85.5t113 -33.5q73 0 120 47t47 119q0 88 -80.5 126.5t-191.5 8.5v86z" />
    <glyph glyph-name="acute" unicode="&#xb4;" horiz-adv-x="604" 
d="M502 1413l-223 -297h-177l168 297h232z" />
    <glyph glyph-name="uni00B5" unicode="&#xb5;" horiz-adv-x="1191" 
d="M870 999h189v-999h-189v176q-48 -94 -130.5 -145t-190.5 -51q-130 0 -227 57v-402h-191v1364h191v-550q0 -131 73.5 -210t196.5 -79q127 0 202.5 79t75.5 210v550z" />
    <glyph glyph-name="paragraph" unicode="&#xb6;" horiz-adv-x="1454" 
d="M1399 1434v-189h-174v-1610h-189v1610h-198v-1610h-189v945h-135q-189 0 -316.5 123.5t-127.5 306.5q0 180 126.5 302t313.5 122h889zM649 768v477h-143q-100 0 -170 -68.5t-70 -166.5q0 -101 70 -171.5t170 -70.5h143z" />
    <glyph glyph-name="periodcentered" unicode="&#xb7;" horiz-adv-x="507" 
d="M254 432q-60 0 -99.5 39t-39.5 98q0 58 40 98t99 40q58 0 98.5 -40.5t40.5 -97.5q0 -58 -40 -97.5t-99 -39.5z" />
    <glyph glyph-name="cedilla" unicode="&#xb8;" horiz-adv-x="559" 
d="M174 37h145q74 -68 108.5 -140t26.5 -133t-45 -109t-106.5 -73.5t-155.5 -21.5l-45 137q122 5 173 55.5t23.5 127.5t-124.5 157z" />
    <glyph glyph-name="uni00B9" unicode="&#xb9;" horiz-adv-x="458" 
d="M375 1434v-861h-127v682l-197 -159v155l236 183h88z" />
    <glyph glyph-name="ordmasculine" unicode="&#xba;" horiz-adv-x="710" 
d="M354 1452q131 0 221.5 -90.5t90.5 -220.5q0 -133 -90.5 -223.5t-221.5 -90.5t-220 90.5t-89 223.5q0 131 89.5 221t219.5 90zM354 1335q-79 0 -133.5 -56t-54.5 -138q0 -83 54.5 -139t133.5 -56q80 0 135.5 56t55.5 139t-55.5 138.5t-135.5 55.5z" />
    <glyph glyph-name="guillemotright" unicode="&#xbb;" horiz-adv-x="1357" 
d="M115 74v200l393 283l-393 285v198l567 -419v-129zM694 74v200l391 283l-391 285v198l566 -419v-129z" />
    <glyph glyph-name="onequarter" unicode="&#xbc;" horiz-adv-x="1654" 
d="M248 573v682l-197 -159v155l236 183h88v-861h-127zM1194 1434h154l-953 -1434h-153zM1624 307v-121h-106v-186h-129v186h-431v84l310 590h145l-291 -553h267v254h129v-254h106z" />
    <glyph glyph-name="onehalf" unicode="&#xbd;" horiz-adv-x="1660" 
d="M375 1434v-861h-127v682l-197 -159v155l236 183h88zM1194 1434h154l-953 -1434h-153zM1092 0v94l309 305q70 70 99.5 116t29.5 95q0 60 -42.5 99t-107.5 39q-77 0 -121.5 -48.5t-41.5 -130.5h-130q-4 135 80 219t215 84q122 0 201.5 -73t79.5 -187q0 -137 -172 -293
l-193 -194h373v-125h-579z" />
    <glyph glyph-name="threequarters" unicode="&#xbe;" horiz-adv-x="1771" 
d="M623 848q0 -126 -85 -206.5t-216 -80.5q-121 0 -204.5 68.5t-94.5 175.5h129q11 -52 57 -85.5t113 -33.5q73 0 120 47t47 119q0 88 -80.5 126.5t-191.5 8.5v86l217 238h-387v123h569v-88l-241 -256q105 4 176.5 -66.5t71.5 -175.5zM1311 1434h153l-952 -1434h-154z
M1741 307v-121h-107v-186h-129v186h-430v84l309 590h146l-291 -553h266v254h129v-254h107z" />
    <glyph glyph-name="questiondown" unicode="&#xbf;" horiz-adv-x="1019" 
d="M532 1454q59 0 99.5 -39.5t40.5 -97.5q0 -57 -41 -97t-99 -40t-98.5 40t-40.5 97q0 58 40 97.5t99 39.5zM504 -20q-195 0 -325 117.5t-130 295.5q0 76 21.5 140t56 108.5t76 83.5t83.5 72.5t76.5 67.5t56.5 77.5t23 93.5h193q0 -60 -13 -111t-35.5 -88.5t-51.5 -70
t-61 -58.5t-63.5 -50.5t-60.5 -50t-51.5 -53t-35.5 -64t-13 -78.5q0 -109 72 -175.5t186 -66.5q126 0 203 81t77 206h197q3 -204 -134.5 -340.5t-346.5 -136.5z" />
    <glyph glyph-name="Agrave" unicode="&#xc0;" horiz-adv-x="1361" 
d="M786 1550h-176l-223 297h231zM1124 0l-125 317h-643l-125 -317h-208l571 1434h170l575 -1434h-215zM432 506h494l-246 629z" />
    <glyph glyph-name="Aacute" unicode="&#xc1;" horiz-adv-x="1361" 
d="M977 1847l-221 -297h-176l168 297h229zM1124 0l-125 317h-643l-125 -317h-208l571 1434h170l575 -1434h-215zM432 506h494l-246 629z" />
    <glyph glyph-name="Acircumflex" unicode="&#xc2;" horiz-adv-x="1361" 
d="M682 1737l-125 -174h-168l189 297h208l191 -297h-170zM1124 0l-125 317h-643l-125 -317h-208l571 1434h170l575 -1434h-215zM432 506h494l-246 629z" />
    <glyph glyph-name="Atilde" unicode="&#xc3;" horiz-adv-x="1361" 
d="M541 1675q-37 0 -59 -30.5t-21 -81.5l-156 26q7 111 70 179.5t151 68.5q54 0 111.5 -29.5t104.5 -58.5t75 -29q37 0 61.5 31t24.5 80l154 -25q-9 -109 -72.5 -178t-150.5 -69q-55 0 -112 29t-104 58t-77 29zM1124 0l-125 317h-643l-125 -317h-208l571 1434h170l575 -1434
h-215zM432 506h494l-246 629z" />
    <glyph glyph-name="Adieresis" unicode="&#xc4;" horiz-adv-x="1361" 
d="M506 1565q-51 0 -89 37.5t-38 89.5q0 51 38 88t89 37q53 0 91 -37t38 -88q0 -52 -38 -89.5t-91 -37.5zM858 1565q-53 0 -91 37.5t-38 89.5q0 51 38 88t91 37q51 0 89 -37t38 -88q0 -52 -38 -89.5t-89 -37.5zM1124 0l-125 317h-643l-125 -317h-208l571 1434h170l575 -1434
h-215zM432 506h494l-246 629z" />
    <glyph glyph-name="Aring" unicode="&#xc5;" horiz-adv-x="1361" 
d="M682 1544q-111 0 -184.5 70.5t-73.5 177.5q0 106 74 177t184 71t185 -71t75 -177q0 -107 -74.5 -177.5t-185.5 -70.5zM682 1925q-58 0 -97.5 -38.5t-39.5 -94.5q0 -57 39 -95t98 -38q60 0 98.5 38t38.5 95q0 56 -39 94.5t-98 38.5zM1124 0l-125 317h-643l-125 -317h-208
l571 1434h170l575 -1434h-215zM432 506h494l-246 629z" />
    <glyph glyph-name="AE" unicode="&#xc6;" horiz-adv-x="1898" 
d="M1796 1245h-620v-393h553v-188h-553v-476h620v-188h-817v356h-524l-207 -356h-225l856 1434h917v-189zM557 532h422v725z" />
    <glyph glyph-name="Ccedilla" unicode="&#xc7;" horiz-adv-x="1558" 
d="M1468 494q-41 -211 -202 -350.5t-385 -159.5q67 -80 80 -160t-20.5 -139t-108.5 -94t-175 -31l-45 137q108 4 161 45.5t43.5 105t-75.5 134.5q-184 17 -332.5 117.5t-232.5 263.5t-84 358q0 204 94 372t258.5 264.5t364.5 96.5q243 0 430 -140.5t225 -355.5h-219
q-37 135 -158.5 220.5t-277.5 85.5q-143 0 -261 -71.5t-185.5 -196.5t-67.5 -275q0 -233 148 -392t366 -159q159 0 281 90.5t157 233.5h221z" />
    <glyph glyph-name="Egrave" unicode="&#xc8;" horiz-adv-x="1073" 
d="M268 1847h232l168 -297h-176zM145 1434h824v-189h-625v-393h557v-188h-557v-476h625v-188h-824v1434z" />
    <glyph glyph-name="Eacute" unicode="&#xc9;" horiz-adv-x="1073" 
d="M858 1847l-221 -297h-176l168 297h229zM145 1434h824v-189h-625v-393h557v-188h-557v-476h625v-188h-824v1434z" />
    <glyph glyph-name="Ecircumflex" unicode="&#xca;" horiz-adv-x="1073" 
d="M563 1737l-125 -174h-168l189 297h209l190 -297h-170zM969 1245h-625v-393h557v-188h-557v-476h625v-188h-824v1434h824v-189z" />
    <glyph glyph-name="Edieresis" unicode="&#xcb;" horiz-adv-x="1073" 
d="M389 1817q53 0 91 -37t38 -88q0 -52 -38 -89.5t-91 -37.5q-51 0 -89 37.5t-38 89.5q0 51 38 88t89 37zM741 1817q51 0 89 -37t38 -88q0 -52 -38 -89.5t-89 -37.5q-53 0 -91 37.5t-38 89.5q0 51 38 88t91 37zM145 1434h824v-189h-625v-393h557v-188h-557v-476h625v-188
h-824v1434z" />
    <glyph glyph-name="Igrave" unicode="&#xcc;" horiz-adv-x="489" 
d="M-51 1847h231l168 -297h-176zM145 1434h199v-1434h-199v1434z" />
    <glyph glyph-name="Iacute" unicode="&#xcd;" horiz-adv-x="489" 
d="M539 1847l-222 -297h-176l168 297h230zM145 1434h199v-1434h-199v1434z" />
    <glyph glyph-name="Icircumflex" unicode="&#xce;" horiz-adv-x="489" 
d="M348 1860l191 -297h-170l-125 174l-125 -174h-170l190 297h209zM145 0v1434h199v-1434h-199z" />
    <glyph glyph-name="Idieresis" unicode="&#xcf;" horiz-adv-x="489" 
d="M68 1817q53 0 91 -37t38 -88q0 -52 -38 -89.5t-91 -37.5q-52 0 -89.5 37.5t-37.5 89.5q0 51 37.5 88t89.5 37zM420 1817q51 0 89 -37t38 -88q0 -52 -38 -89.5t-89 -37.5q-53 0 -91 37.5t-38 89.5q0 51 38 88t91 37zM145 1434h199v-1434h-199v1434z" />
    <glyph glyph-name="Eth" unicode="&#xd0;" horiz-adv-x="1406" 
d="M604 1434q148 0 279.5 -54t226.5 -147.5t150 -226t55 -283.5q0 -153 -55 -287.5t-149.5 -230t-226.5 -150.5t-280 -55h-459v657h-208v131h208v646h459zM616 188q214 0 355 152.5t141 382.5q0 227 -140.5 374.5t-355.5 147.5h-272v-457h229v-131h-229v-469h272z" />
    <glyph glyph-name="Ntilde" unicode="&#xd1;" horiz-adv-x="1409" 
d="M332 1589q7 111 70 179.5t151 68.5q54 0 111.5 -29.5t104.5 -58.5t75 -29q37 0 61.5 31t24.5 80l153 -25q-9 -109 -72.5 -178t-150.5 -69q-55 0 -112 29t-104 58t-77 29q-37 0 -59 -30.5t-21 -81.5zM145 1434h179l741 -1061v1061h197v-1434h-175l-743 1059v-1059h-199
v1434z" />
    <glyph glyph-name="Ograve" unicode="&#xd2;" horiz-adv-x="1634" 
d="M520 1847h232l168 -297h-177zM817 1454q151 0 285.5 -56.5t231 -154t152.5 -233.5t56 -289q0 -155 -56 -292.5t-152.5 -236t-231 -155.5t-285.5 -57q-152 0 -286.5 57t-230.5 155.5t-152 236t-56 292.5q0 204 94.5 372t261 264.5t369.5 96.5zM817 1264q-145 0 -265 -71.5
t-188.5 -196.5t-68.5 -275q0 -233 150.5 -392t371.5 -159t371.5 159t150.5 392q0 150 -68.5 275t-188.5 196.5t-265 71.5z" />
    <glyph glyph-name="Oacute" unicode="&#xd3;" horiz-adv-x="1634" 
d="M1110 1847l-221 -297h-176l168 297h229zM817 1454q151 0 285.5 -56.5t231 -154t152.5 -233.5t56 -289q0 -155 -56 -292.5t-152.5 -236t-231 -155.5t-285.5 -57q-152 0 -286.5 57t-230.5 155.5t-152 236t-56 292.5q0 204 94.5 372t261 264.5t369.5 96.5zM817 1264
q-145 0 -265 -71.5t-188.5 -196.5t-68.5 -275q0 -233 150.5 -392t371.5 -159t371.5 159t150.5 392q0 150 -68.5 275t-188.5 196.5t-265 71.5z" />
    <glyph glyph-name="Ocircumflex" unicode="&#xd4;" horiz-adv-x="1634" 
d="M815 1737l-125 -174h-168l189 297h209l190 -297h-170zM817 1454q151 0 285.5 -56.5t231 -154t152.5 -233.5t56 -289q0 -155 -56 -292.5t-152.5 -236t-231 -155.5t-285.5 -57q-152 0 -286.5 57t-230.5 155.5t-152 236t-56 292.5q0 204 94.5 372t261 264.5t369.5 96.5z
M817 170q221 0 371.5 159t150.5 392q0 150 -68.5 275t-188.5 196.5t-265 71.5t-265 -71.5t-188.5 -196.5t-68.5 -275q0 -233 150.5 -392t371.5 -159z" />
    <glyph glyph-name="Otilde" unicode="&#xd5;" horiz-adv-x="1634" 
d="M440 1589q7 111 70.5 179.5t151.5 68.5q54 0 111.5 -29.5t104 -58.5t74.5 -29q37 0 61.5 31t24.5 80l154 -25q-9 -109 -72.5 -178t-150.5 -69q-55 0 -112 29t-104 58t-77 29q-37 0 -59 -30.5t-21 -81.5zM817 1454q151 0 285.5 -56.5t231 -154t152.5 -233.5t56 -289
q0 -155 -56 -292.5t-152.5 -236t-231 -155.5t-285.5 -57q-152 0 -286.5 57t-230.5 155.5t-152 236t-56 292.5q0 204 94.5 372t261 264.5t369.5 96.5zM817 1264q-145 0 -265 -71.5t-188.5 -196.5t-68.5 -275q0 -233 150.5 -392t371.5 -159t371.5 159t150.5 392
q0 150 -68.5 275t-188.5 196.5t-265 71.5z" />
    <glyph glyph-name="Odieresis" unicode="&#xd6;" horiz-adv-x="1634" 
d="M641 1817q53 0 91 -37t38 -88q0 -52 -38 -89.5t-91 -37.5q-51 0 -89 37.5t-38 89.5q0 51 38 88t89 37zM993 1817q51 0 89 -37t38 -88q0 -52 -38 -89.5t-89 -37.5q-53 0 -91 37.5t-38 89.5q0 51 38 88t91 37zM817 1454q151 0 285.5 -56.5t231 -154t152.5 -233.5t56 -289
q0 -155 -56 -292.5t-152.5 -236t-231 -155.5t-285.5 -57q-152 0 -286.5 57t-230.5 155.5t-152 236t-56 292.5q0 204 94.5 372t261 264.5t369.5 96.5zM817 1264q-145 0 -265 -71.5t-188.5 -196.5t-68.5 -275q0 -233 150.5 -392t371.5 -159t371.5 159t150.5 392
q0 150 -68.5 275t-188.5 196.5t-265 71.5z" />
    <glyph glyph-name="multiply" unicode="&#xd7;" horiz-adv-x="1099" 
d="M967 950l-291 -291l291 -290l-125 -127l-293 293l-291 -291l-127 125l293 293l-291 288l125 125l291 -289l291 291z" />
    <glyph glyph-name="Oslash" unicode="&#xd8;" horiz-adv-x="1634" 
d="M817 1454q151 0 285.5 -56.5t231 -154t152.5 -233.5t56 -289q0 -155 -56 -292.5t-152.5 -236t-231 -155.5t-285.5 -57q-152 0 -286.5 57t-230.5 155.5t-152 236t-56 292.5q0 204 94.5 372t261 264.5t369.5 96.5zM295 721q0 -207 119 -354l676 821q-126 76 -273 76
q-145 0 -265 -71.5t-188.5 -196.5t-68.5 -275zM817 170q221 0 371.5 159t150.5 392q0 204 -120 352l-680 -821q124 -82 278 -82z" />
    <glyph glyph-name="Ugrave" unicode="&#xd9;" horiz-adv-x="1396" 
d="M403 1847h232l168 -297h-176zM698 -20q-238 0 -395.5 160t-157.5 401v893h199v-893q0 -159 100.5 -264t253.5 -105t254 105t101 264v893h198v-893q0 -241 -157.5 -401t-395.5 -160z" />
    <glyph glyph-name="Uacute" unicode="&#xda;" horiz-adv-x="1396" 
d="M993 1847l-221 -297h-176l168 297h229zM698 -20q-238 0 -395.5 160t-157.5 401v893h199v-893q0 -159 100.5 -264t253.5 -105t254 105t101 264v893h198v-893q0 -241 -157.5 -401t-395.5 -160z" />
    <glyph glyph-name="Ucircumflex" unicode="&#xdb;" horiz-adv-x="1396" 
d="M698 1737l-125 -174h-167l188 297h209l190 -297h-170zM1053 1434h198v-893q0 -241 -157.5 -401t-395.5 -160t-395.5 160t-157.5 401v893h199v-893q0 -159 100.5 -264t253.5 -105t254 105t101 264v893z" />
    <glyph glyph-name="Udieresis" unicode="&#xdc;" horiz-adv-x="1396" 
d="M522 1817q53 0 91 -37t38 -88q0 -52 -38 -89.5t-91 -37.5q-51 0 -89 37.5t-38 89.5q0 51 38 88t89 37zM874 1817q51 0 89 -37t38 -88q0 -52 -38 -89.5t-89 -37.5q-53 0 -91 37.5t-38 89.5q0 51 38 88t91 37zM698 -20q-238 0 -395.5 160t-157.5 401v893h199v-893
q0 -159 100.5 -264t253.5 -105t254 105t101 264v893h198v-893q0 -241 -157.5 -401t-395.5 -160z" />
    <glyph glyph-name="Yacute" unicode="&#xdd;" horiz-adv-x="1304" 
d="M948 1847l-221 -297h-176l168 297h229zM31 1434h239l389 -603l385 603h232l-520 -801v-633h-199v633z" />
    <glyph glyph-name="Thorn" unicode="&#xde;" horiz-adv-x="1200" 
d="M696 1145q189 0 315 -121t126 -303q0 -184 -126 -306t-315 -122h-352v-293h-199v1434h199v-289h352zM696 481q103 0 173.5 69.5t70.5 170.5q0 100 -70.5 167.5t-173.5 67.5h-352v-475h352z" />
    <glyph glyph-name="germandbls" unicode="&#xdf;" horiz-adv-x="1206" 
d="M129 0v961q0 227 135 360t359 133q179 0 308.5 -116t129.5 -283q0 -107 -58.5 -185t-148.5 -100q124 -30 201.5 -123.5t77.5 -220.5q0 -178 -123.5 -302t-300.5 -124h-244v188h233q98 0 166 68.5t68 165.5q0 102 -75 169.5t-200 67.5h-192v179h174q96 0 159.5 60.5
t63.5 148.5q0 92 -70 156.5t-174 64.5q-128 0 -209 -85.5t-81 -221.5v-961h-199z" />
    <glyph glyph-name="agrave" unicode="&#xe0;" horiz-adv-x="1263" 
d="M793 1116h-177l-223 297h232zM944 999h189v-999h-189v205q-56 -109 -153 -167t-228 -58q-202 0 -343.5 151.5t-141.5 368.5t141.5 368.5t343.5 151.5q131 0 228 -58t153 -167v204zM602 160q148 0 245 96t97 244t-97 244t-245 96q-142 0 -241 -99t-99 -241t99 -241
t241 -99z" />
    <glyph glyph-name="aacute" unicode="&#xe1;" horiz-adv-x="1263" 
d="M983 1413l-221 -297h-178l170 297h229zM944 999h189v-999h-189v205q-56 -109 -153 -167t-228 -58q-202 0 -343.5 151.5t-141.5 368.5t141.5 368.5t343.5 151.5q131 0 228 -58t153 -167v204zM602 160q148 0 245 96t97 244t-97 244t-245 96q-142 0 -241 -99t-99 -241
t99 -241t241 -99z" />
    <glyph glyph-name="acircumflex" unicode="&#xe2;" horiz-adv-x="1263" 
d="M688 1303l-125 -175h-168l189 297h209l190 -297h-170zM944 999h189v-999h-189v205q-56 -109 -153 -167t-228 -58q-202 0 -343.5 151.5t-141.5 368.5t141.5 368.5t343.5 151.5q131 0 228 -58t153 -167v204zM602 160q148 0 245 96t97 244t-97 244t-245 96q-142 0 -241 -99
t-99 -241t99 -241t241 -99z" />
    <glyph glyph-name="atilde" unicode="&#xe3;" horiz-adv-x="1263" 
d="M549 1241q-37 0 -59 -31t-21 -82l-156 27q7 111 70.5 179.5t151.5 68.5q54 0 111.5 -29.5t104 -58.5t74.5 -29q37 0 61.5 31t24.5 80l154 -25q-9 -109 -72.5 -178.5t-150.5 -69.5q-44 0 -89.5 18.5t-77 40t-66.5 40t-60 18.5zM944 999h189v-999h-189v205
q-56 -109 -153 -167t-228 -58q-202 0 -343.5 151.5t-141.5 368.5t141.5 368.5t343.5 151.5q131 0 228 -58t153 -167v204zM602 160q148 0 245 96t97 244t-97 244t-245 96q-142 0 -241 -99t-99 -241t99 -241t241 -99z" />
    <glyph glyph-name="adieresis" unicode="&#xe4;" horiz-adv-x="1263" 
d="M514 1194q-52 0 -89.5 37t-37.5 90q0 51 37.5 89t89.5 38q51 0 89 -38t38 -89q0 -52 -38 -89.5t-89 -37.5zM864 1194q-52 0 -89.5 37t-37.5 90q0 51 37.5 89t89.5 38q51 0 89 -38t38 -89q0 -52 -38 -89.5t-89 -37.5zM944 999h189v-999h-189v205q-56 -109 -153 -167
t-228 -58q-202 0 -343.5 151.5t-141.5 368.5t141.5 368.5t343.5 151.5q131 0 228 -58t153 -167v204zM602 160q148 0 245 96t97 244t-97 244t-245 96q-142 0 -241 -99t-99 -241t99 -241t241 -99z" />
    <glyph glyph-name="aring" unicode="&#xe5;" horiz-adv-x="1263" 
d="M688 1110q-109 0 -182.5 70.5t-73.5 177.5q0 106 73.5 177t182.5 71q112 0 186 -71t74 -177q0 -107 -74 -177.5t-186 -70.5zM688 1491q-58 0 -96.5 -38.5t-38.5 -94.5q0 -57 38.5 -95t96.5 -38q60 0 99.5 38t39.5 95q0 56 -39.5 94.5t-99.5 38.5zM944 999h189v-999h-189
v205q-56 -109 -153 -167t-228 -58q-202 0 -343.5 151.5t-141.5 368.5t141.5 368.5t343.5 151.5q131 0 228 -58t153 -167v204zM602 160q148 0 245 96t97 244t-97 244t-245 96q-142 0 -241 -99t-99 -241t99 -241t241 -99z" />
    <glyph glyph-name="ae" unicode="&#xe6;" horiz-adv-x="2064" 
d="M1987 543q0 -5 -5 -68h-808q10 -152 105.5 -243t238.5 -91q96 0 176.5 40.5t117.5 107.5l148 -90q-53 -97 -172.5 -158t-257.5 -61q-130 0 -233.5 59t-163.5 168v-207h-189v205q-56 -109 -153 -167t-228 -58q-202 0 -343.5 151.5t-141.5 368.5t141.5 368.5t343.5 151.5
q131 0 228 -58t153 -167v204h189v-200q60 106 162.5 163.5t232.5 57.5q126 0 231.5 -63.5t166.5 -173t61 -240.5zM1180 598h620q-9 114 -94.5 190t-204.5 76q-126 0 -211 -72t-110 -194zM602 160q148 0 245 96t97 244t-97 244t-245 96q-142 0 -241 -99t-99 -241t99 -241
t241 -99z" />
    <glyph glyph-name="ccedilla" unicode="&#xe7;" horiz-adv-x="1140" 
d="M594 160q100 0 179 53.5t99 138.5h191q-20 -150 -136.5 -251t-277.5 -119q65 -79 78 -159t-20.5 -138.5t-108 -93.5t-174.5 -31l-45 137q109 4 161.5 46t42 107t-78.5 138q-186 31 -306 173t-120 337q0 221 149 371.5t367 150.5q175 0 309.5 -104.5t159.5 -260.5h-193
q-22 80 -100 132.5t-176 52.5q-141 0 -236.5 -98t-95.5 -244q0 -143 95.5 -240.5t236.5 -97.5z" />
    <glyph glyph-name="egrave" unicode="&#xe8;" horiz-adv-x="1148" 
d="M682 1116h-176l-223 297h231zM1071 524q0 -43 -4 -75h-803q17 -137 105.5 -218t226.5 -81q105 0 181 47.5t95 126.5h189q-28 -156 -158 -250t-313 -94q-218 0 -365 150.5t-147 373.5q0 142 67 260.5t184.5 187t258.5 68.5q203 0 343 -141t140 -355zM270 608h596
q-12 106 -90.5 173t-195.5 67q-118 0 -201 -64t-109 -176z" />
    <glyph glyph-name="eacute" unicode="&#xe9;" horiz-adv-x="1148" 
d="M872 1413l-221 -297h-176l168 297h229zM1071 524q0 -43 -4 -75h-803q17 -137 105.5 -218t226.5 -81q105 0 181 47.5t95 126.5h189q-28 -156 -158 -250t-313 -94q-218 0 -365 150.5t-147 373.5q0 142 67 260.5t184.5 187t258.5 68.5q203 0 343 -141t140 -355zM270 608h596
q-12 106 -90.5 173t-195.5 67q-118 0 -201 -64t-109 -176z" />
    <glyph glyph-name="ecircumflex" unicode="&#xea;" horiz-adv-x="1148" 
d="M578 1303l-125 -175h-168l188 297h209l190 -297h-170zM1071 524q0 -43 -4 -75h-803q17 -137 105.5 -218t226.5 -81q105 0 181 47.5t95 126.5h189q-28 -156 -158 -250t-313 -94q-218 0 -365 150.5t-147 373.5q0 142 67 260.5t184.5 187t258.5 68.5q203 0 343 -141
t140 -355zM270 608h596q-12 106 -90.5 173t-195.5 67q-118 0 -201 -64t-109 -176z" />
    <glyph glyph-name="edieresis" unicode="&#xeb;" horiz-adv-x="1148" 
d="M401 1194q-51 0 -89 37.5t-38 89.5q0 51 38 89t89 38q52 0 90.5 -38t38.5 -89q0 -52 -38 -89.5t-91 -37.5zM754 1194q-53 0 -91 37.5t-38 89.5q0 51 38.5 89t90.5 38q51 0 89 -38t38 -89q0 -52 -38 -89.5t-89 -37.5zM1071 524q0 -43 -4 -75h-803q17 -137 105.5 -218
t226.5 -81q105 0 181 47.5t95 126.5h189q-28 -156 -158 -250t-313 -94q-218 0 -365 150.5t-147 373.5q0 142 67 260.5t184.5 187t258.5 68.5q203 0 343 -141t140 -355zM270 608h596q-12 106 -90.5 173t-195.5 67q-118 0 -201 -64t-109 -176z" />
    <glyph glyph-name="igrave" unicode="&#xec;" horiz-adv-x="452" 
d="M-68 1413h232l168 -297h-176zM131 999h191v-999h-191v999z" />
    <glyph glyph-name="iacute" unicode="&#xed;" horiz-adv-x="452" 
d="M522 1413l-221 -297h-176l168 297h229zM131 999h191v-999h-191v999z" />
    <glyph glyph-name="icircumflex" unicode="&#xee;" horiz-adv-x="452" 
d="M332 1425l190 -297h-170l-125 175l-125 -175h-170l191 297h209zM131 0v999h191v-999h-191z" />
    <glyph glyph-name="idieresis" unicode="&#xef;" horiz-adv-x="452" 
d="M51 1448q52 0 90.5 -38t38.5 -89q0 -52 -38 -89.5t-91 -37.5t-90 37t-37 90q0 51 37.5 89t89.5 38zM403 1448q51 0 89 -38t38 -89q0 -52 -38 -89.5t-89 -37.5q-53 0 -91 37.5t-38 89.5q0 51 38.5 89t90.5 38zM131 999h191v-999h-191v999z" />
    <glyph glyph-name="eth" unicode="&#xf0;" horiz-adv-x="1286" 
d="M1386 1307v-131h-253v-619q0 -258 -151.5 -417.5t-379.5 -159.5q-151 0 -271.5 69.5t-186.5 188t-66 262.5q0 217 141.5 368.5t343.5 151.5q134 0 233.5 -63.5t147.5 -176.5v396h-256v131h256v127h189v-127h253zM602 160q148 0 245 96t97 244t-97 244t-245 96
q-143 0 -242.5 -99t-99.5 -241t99.5 -241t242.5 -99z" />
    <glyph glyph-name="ntilde" unicode="&#xf1;" horiz-adv-x="1191" 
d="M440 1241q-37 0 -59 -31t-21 -82l-155 27q9 111 71.5 179.5t151.5 68.5q53 0 110 -29.5t104 -58.5t75 -29q38 0 62 30.5t26 80.5l153 -25q-9 -109 -73 -178.5t-150 -69.5q-44 0 -90 18.5t-77.5 40t-67 40t-60.5 18.5zM641 1020q193 0 305.5 -121t112.5 -328v-571h-189
v551q0 131 -74 210t-198 79q-126 0 -201 -79t-75 -210v-551h-191v999h191v-174q48 93 130.5 144t188.5 51z" />
    <glyph glyph-name="ograve" unicode="&#xf2;" horiz-adv-x="1187" 
d="M299 1413h231l168 -297h-176zM594 1020q143 0 261 -68.5t186.5 -188.5t68.5 -265q0 -219 -149.5 -368.5t-366.5 -149.5q-143 0 -261.5 68t-186.5 187t-68 263q0 221 149 371.5t367 150.5zM594 840q-141 0 -236.5 -98t-95.5 -244q0 -143 95.5 -240.5t236.5 -97.5
q140 0 236 98t96 240q0 146 -96 244t-236 98z" />
    <glyph glyph-name="oacute" unicode="&#xf3;" horiz-adv-x="1187" 
d="M889 1413l-221 -297h-176l167 297h230zM594 1020q143 0 261 -68.5t186.5 -188.5t68.5 -265q0 -219 -149.5 -368.5t-366.5 -149.5q-143 0 -261.5 68t-186.5 187t-68 263q0 221 149 371.5t367 150.5zM594 840q-141 0 -236.5 -98t-95.5 -244q0 -143 95.5 -240.5t236.5 -97.5
q140 0 236 98t96 240q0 146 -96 244t-236 98z" />
    <glyph glyph-name="ocircumflex" unicode="&#xf4;" horiz-adv-x="1187" 
d="M594 1303l-125 -175h-168l188 297h209l191 -297h-170zM594 1020q143 0 261 -68.5t186.5 -188.5t68.5 -265q0 -219 -149.5 -368.5t-366.5 -149.5q-143 0 -261.5 68t-186.5 187t-68 263q0 221 149 371.5t367 150.5zM594 160q140 0 236 98t96 240q0 146 -96 244t-236 98
q-141 0 -236.5 -98t-95.5 -244q0 -143 95.5 -240.5t236.5 -97.5z" />
    <glyph glyph-name="otilde" unicode="&#xf5;" horiz-adv-x="1187" 
d="M217 1155q7 111 70 179.5t151 68.5q54 0 111.5 -29.5t104.5 -58.5t75 -29q37 0 61.5 31t24.5 80l154 -25q-9 -109 -73 -178.5t-151 -69.5q-44 0 -89.5 18.5t-76.5 40t-66 40t-60 18.5q-37 0 -59 -31t-21 -82zM594 1020q143 0 261 -68.5t186.5 -188.5t68.5 -265
q0 -219 -149.5 -368.5t-366.5 -149.5q-143 0 -261.5 68t-186.5 187t-68 263q0 221 149 371.5t367 150.5zM594 840q-141 0 -236.5 -98t-95.5 -244q0 -143 95.5 -240.5t236.5 -97.5q140 0 236 98t96 240q0 146 -96 244t-236 98z" />
    <glyph glyph-name="odieresis" unicode="&#xf6;" horiz-adv-x="1187" 
d="M418 1448q52 0 90.5 -38t38.5 -89q0 -52 -38 -89.5t-91 -37.5q-51 0 -89 37.5t-38 89.5q0 51 38 89t89 38zM770 1448q51 0 89 -38t38 -89q0 -52 -38 -89.5t-89 -37.5q-53 0 -91 37.5t-38 89.5q0 51 38.5 89t90.5 38zM594 1020q143 0 261 -68.5t186.5 -188.5t68.5 -265
q0 -219 -149.5 -368.5t-366.5 -149.5q-143 0 -261.5 68t-186.5 187t-68 263q0 221 149 371.5t367 150.5zM594 840q-141 0 -236.5 -98t-95.5 -244q0 -143 95.5 -240.5t236.5 -97.5q140 0 236 98t96 240q0 146 -96 244t-236 98z" />
    <glyph glyph-name="divide" unicode="&#xf7;" horiz-adv-x="1189" 
d="M596 881q-60 0 -99.5 39.5t-39.5 97.5q0 59 39.5 98t99.5 39q59 0 99 -39.5t40 -97.5q0 -57 -40.5 -97t-98.5 -40zM1057 737v-178h-926v178h926zM596 139q-60 0 -99.5 39.5t-39.5 97.5q0 59 39.5 98.5t99.5 39.5q59 0 99 -40t40 -98q0 -57 -40.5 -97t-98.5 -40z" />
    <glyph glyph-name="oslash" unicode="&#xf8;" horiz-adv-x="1187" 
d="M594 1020q143 0 261 -68.5t186.5 -188.5t68.5 -265q0 -219 -149.5 -368.5t-366.5 -149.5q-143 0 -261.5 68t-186.5 187t-68 263q0 221 149 371.5t367 150.5zM594 840q-141 0 -236.5 -98t-95.5 -244q0 -84 35.5 -156t97.5 -117l236 613q-12 2 -37 2zM594 160q140 0 236 98
t96 240q0 86 -35 157.5t-98 118.5l-236 -612q12 -2 37 -2z" />
    <glyph glyph-name="ugrave" unicode="&#xf9;" horiz-adv-x="1191" 
d="M700 1116h-176l-221 297h229zM870 999h189v-999h-189v176q-48 -94 -130.5 -145t-190.5 -51q-192 0 -305 120.5t-113 325.5v573h191v-550q0 -131 73.5 -210t196.5 -79q127 0 202.5 79t75.5 210v550z" />
    <glyph glyph-name="uacute" unicode="&#xfa;" horiz-adv-x="1191" 
d="M891 1413l-221 -297h-176l168 297h229zM870 999h189v-999h-189v176q-48 -94 -130.5 -145t-190.5 -51q-192 0 -305 120.5t-113 325.5v573h191v-550q0 -131 73.5 -210t196.5 -79q127 0 202.5 79t75.5 210v550z" />
    <glyph glyph-name="ucircumflex" unicode="&#xfb;" horiz-adv-x="1191" 
d="M598 1305l-127 -177h-168l189 297h210l189 -297h-168zM870 999h189v-999h-189v176q-48 -94 -130.5 -145t-190.5 -51q-192 0 -305 120.5t-113 325.5v573h191v-550q0 -131 73.5 -210t196.5 -79q127 0 202.5 79t75.5 210v550z" />
    <glyph glyph-name="udieresis" unicode="&#xfc;" horiz-adv-x="1191" 
d="M422 1194q-52 0 -89.5 37t-37.5 90q0 51 37.5 89t89.5 38t90.5 -38t38.5 -89q0 -52 -38 -89.5t-91 -37.5zM772 1194q-52 0 -89.5 37t-37.5 90q0 51 37.5 89t89.5 38t90.5 -38t38.5 -89q0 -52 -38 -89.5t-91 -37.5zM870 999h189v-999h-189v176q-48 -94 -130.5 -145
t-190.5 -51q-192 0 -305 120.5t-113 325.5v573h191v-550q0 -131 73.5 -210t196.5 -79q127 0 202.5 79t75.5 210v550z" />
    <glyph glyph-name="yacute" unicode="&#xfd;" horiz-adv-x="1062" 
d="M842 1413l-221 -297h-177l168 297h230zM829 999h203l-571 -1364h-203l176 400l-403 964h202l297 -745z" />
    <glyph glyph-name="thorn" unicode="&#xfe;" horiz-adv-x="1263" 
d="M700 1020q100 0 190 -41t154.5 -110.5t103 -165.5t38.5 -203t-38.5 -203t-103 -165.5t-154.5 -110.5t-190 -41q-131 0 -228 58t-153 167v-570h-188v1799h188v-639q56 109 153 167t228 58zM662 160q142 0 240.5 98.5t98.5 241.5t-98.5 241.5t-240.5 98.5
q-148 0 -245.5 -96.5t-97.5 -243.5t97.5 -243.5t245.5 -96.5z" />
    <glyph glyph-name="ydieresis" unicode="&#xff;" horiz-adv-x="1062" 
d="M371 1194q-51 0 -89 37.5t-38 89.5q0 51 38 89t89 38q52 0 90.5 -38t38.5 -89q0 -52 -38 -89.5t-91 -37.5zM723 1194q-53 0 -91 37.5t-38 89.5q0 51 38.5 89t90.5 38q51 0 89 -38t38 -89q0 -52 -38 -89.5t-89 -37.5zM829 999h203l-571 -1364h-203l176 400l-403 964h202
l297 -745z" />
    <glyph glyph-name="Amacron" unicode="&#x100;" horiz-adv-x="1361" 
d="M1010 1726v-153h-656v153h656zM1124 0l-125 317h-643l-125 -317h-208l571 1434h170l575 -1434h-215zM432 506h494l-246 629z" />
    <glyph glyph-name="amacron" unicode="&#x101;" horiz-adv-x="1183" 
d="M938 1292v-153h-655v153h655zM944 999h189v-999h-189v205q-56 -109 -153 -167t-228 -58q-202 0 -343.5 151.5t-141.5 368.5t141.5 368.5t343.5 151.5q131 0 228 -58t153 -167v204zM602 160q148 0 245 96t97 244t-97 244t-245 96q-142 0 -241 -99t-99 -241t99 -241
t241 -99z" />
    <glyph glyph-name="Abreve" unicode="&#x102;" horiz-adv-x="1361" 
d="M684 1538q-136 0 -224 87t-89 228h145q1 -83 48.5 -134.5t119.5 -51.5q71 0 118 51.5t48 134.5h145q0 -141 -88 -228t-223 -87zM1124 0l-125 317h-643l-125 -317h-208l571 1434h170l575 -1434h-215zM432 506h494l-246 629z" />
    <glyph glyph-name="abreve" unicode="&#x103;" horiz-adv-x="1185" 
d="M580 1104q-135 0 -224 87t-90 228h148q0 -82 47.5 -134t118.5 -52t118 52t47 134h148q-1 -141 -89.5 -228t-223.5 -87zM944 999h189v-999h-189v205q-56 -109 -153 -167t-228 -58q-202 0 -343.5 151.5t-141.5 368.5t141.5 368.5t343.5 151.5q131 0 228 -58t153 -167v204z
M602 160q148 0 245 96t97 244t-97 244t-245 96q-142 0 -241 -99t-99 -241t99 -241t241 -99z" />
    <glyph glyph-name="Aogonek" unicode="&#x104;" horiz-adv-x="1361" 
d="M1315 -233l47 -125q-81 -43 -201 -43q-93 0 -151 54t-58 138q0 72 41.5 137t114.5 113l-109 276h-643l-125 -317h-208l571 1434h170l575 -1434h-55q-76 -24 -121 -69t-45 -101q0 -37 27 -61.5t72 -24.5q53 0 98 23zM432 506h494l-246 629z" />
    <glyph glyph-name="aogonek" unicode="&#x105;" horiz-adv-x="1263" 
d="M1161 -233l49 -125q-84 -43 -200 -43q-94 0 -152.5 54t-58.5 138q0 69 38 131t107 109v174q-56 -109 -153 -167t-228 -58q-202 0 -343.5 151.5t-141.5 368.5t141.5 368.5t343.5 151.5q131 0 228 -58t153 -167v204h189v-999q-77 -24 -122.5 -69t-45.5 -101q0 -38 27 -62
t73 -24q51 0 96 23zM602 160q148 0 245 96t97 244t-97 244t-245 96q-142 0 -241 -99t-99 -241t99 -241t241 -99z" />
    <glyph glyph-name="Cacute" unicode="&#x106;" horiz-adv-x="1558" 
d="M1104 1847l-221 -297h-176l167 297h230zM809 -20q-200 0 -364.5 97t-258.5 267t-94 377q0 204 94 372t258.5 264.5t364.5 96.5q243 0 430 -140.5t225 -355.5h-219q-37 135 -158.5 220.5t-277.5 85.5q-143 0 -261 -71.5t-185.5 -196.5t-67.5 -275q0 -233 148 -392
t366 -159q159 0 281 90.5t157 233.5h221q-44 -228 -227.5 -371t-431.5 -143z" />
    <glyph glyph-name="cacute" unicode="&#x107;" horiz-adv-x="1140" 
d="M887 1413l-221 -297h-177l168 297h230zM594 -20q-143 0 -261.5 68t-186.5 187t-68 263q0 221 149 371.5t367 150.5q175 0 309.5 -104.5t159.5 -260.5h-193q-22 80 -100 132.5t-176 52.5q-141 0 -236.5 -98t-95.5 -244q0 -143 95.5 -240.5t236.5 -97.5q100 0 179 53.5
t99 138.5h191q-22 -163 -156 -267.5t-313 -104.5z" />
    <glyph glyph-name="Ccircumflex" unicode="&#x108;" horiz-adv-x="1558" 
d="M809 1737l-125 -174h-168l189 297h208l191 -297h-170zM1247 494h221q-44 -228 -227.5 -371t-431.5 -143q-200 0 -364.5 97t-258.5 267t-94 377q0 204 94 372t258.5 264.5t364.5 96.5q243 0 430 -140.5t225 -355.5h-219q-37 135 -158.5 220.5t-277.5 85.5
q-143 0 -261 -71.5t-185.5 -196.5t-67.5 -275q0 -233 148 -392t366 -159q159 0 281 90.5t157 233.5z" />
    <glyph glyph-name="ccircumflex" unicode="&#x109;" horiz-adv-x="1140" 
d="M592 1303l-125 -175h-168l188 297h209l191 -297h-170zM594 160q100 0 179 53.5t99 138.5h191q-22 -163 -156 -267.5t-313 -104.5q-143 0 -261.5 68t-186.5 187t-68 263q0 221 149 371.5t367 150.5q175 0 309.5 -104.5t159.5 -260.5h-193q-22 80 -100 132.5t-176 52.5
q-141 0 -236.5 -98t-95.5 -244q0 -143 95.5 -240.5t236.5 -97.5z" />
    <glyph glyph-name="Cdotaccent" unicode="&#x10a;" horiz-adv-x="1558" 
d="M811 1817q51 0 89 -37t38 -88q0 -52 -38 -89.5t-89 -37.5q-53 0 -90 37.5t-37 89.5q0 51 37.5 88t89.5 37zM809 -20q-200 0 -364.5 97t-258.5 267t-94 377q0 204 94 372t258.5 264.5t364.5 96.5q243 0 430 -140.5t225 -355.5h-219q-37 135 -158.5 220.5t-277.5 85.5
q-143 0 -261 -71.5t-185.5 -196.5t-67.5 -275q0 -233 148 -392t366 -159q159 0 281 90.5t157 233.5h221q-44 -228 -227.5 -371t-431.5 -143z" />
    <glyph glyph-name="cdotaccent" unicode="&#x10b;" horiz-adv-x="1140" 
d="M592 1448q51 0 89 -38t38 -89q0 -52 -38 -89.5t-89 -37.5q-52 0 -89.5 37t-37.5 90q0 51 37.5 89t89.5 38zM594 -20q-143 0 -261.5 68t-186.5 187t-68 263q0 221 149 371.5t367 150.5q175 0 309.5 -104.5t159.5 -260.5h-193q-22 80 -100 132.5t-176 52.5
q-141 0 -236.5 -98t-95.5 -244q0 -143 95.5 -240.5t236.5 -97.5q100 0 179 53.5t99 138.5h191q-22 -163 -156 -267.5t-313 -104.5z" />
    <glyph glyph-name="Ccaron" unicode="&#x10c;" horiz-adv-x="1558" 
d="M705 1550l-189 297h168l125 -174l125 174h170l-191 -297h-208zM1247 494h221q-44 -228 -227.5 -371t-431.5 -143q-200 0 -364.5 97t-258.5 267t-94 377q0 204 94 372t258.5 264.5t364.5 96.5q243 0 430 -140.5t225 -355.5h-219q-37 135 -158.5 220.5t-277.5 85.5
q-143 0 -261 -71.5t-185.5 -196.5t-67.5 -275q0 -233 148 -392t366 -159q159 0 281 90.5t157 233.5z" />
    <glyph glyph-name="ccaron" unicode="&#x10d;" horiz-adv-x="1140" 
d="M487 1116l-188 297h168l125 -174l125 174h170l-191 -297h-209zM594 160q100 0 179 53.5t99 138.5h191q-22 -163 -156 -267.5t-313 -104.5q-143 0 -261.5 68t-186.5 187t-68 263q0 221 149 371.5t367 150.5q175 0 309.5 -104.5t159.5 -260.5h-193q-22 80 -100 132.5
t-176 52.5q-141 0 -236.5 -98t-95.5 -244q0 -143 95.5 -240.5t236.5 -97.5z" />
    <glyph glyph-name="Dcaron" unicode="&#x10e;" horiz-adv-x="1406" 
d="M518 1550l-188 297h168l125 -174l125 174h170l-191 -297h-209zM604 1434q148 0 279.5 -54t226.5 -147.5t150 -226t55 -283.5q0 -153 -55 -287.5t-149.5 -230t-226.5 -150.5t-280 -55h-459v1434h459zM616 188q214 0 355 152.5t141 382.5q0 227 -140.5 374.5t-355.5 147.5
h-272v-1057h272z" />
    <glyph glyph-name="dcaron" unicode="&#x10f;" horiz-adv-x="1437" 
d="M1268 1540h198l-84 -424h-155zM944 795v639h189v-1434h-189v205q-56 -109 -153 -167t-228 -58q-202 0 -343.5 151.5t-141.5 368.5t141.5 368.5t343.5 151.5q131 0 228 -58t153 -167zM602 160q148 0 245 96t97 244t-97 244t-245 96q-142 0 -241 -99t-99 -241t99 -241
t241 -99z" />
    <glyph glyph-name="Dcroat" unicode="&#x110;" horiz-adv-x="1406" 
d="M604 1434q148 0 279.5 -54t226.5 -147.5t150 -226t55 -283.5q0 -153 -55 -287.5t-149.5 -230t-226.5 -150.5t-280 -55h-459v657h-208v131h208v646h459zM616 188q214 0 355 152.5t141 382.5q0 227 -140.5 374.5t-355.5 147.5h-272v-457h229v-131h-229v-469h272z" />
    <glyph glyph-name="dcroat" unicode="&#x111;" horiz-adv-x="1263" 
d="M1366 1303v-123h-233v-1180h-189v205q-56 -109 -153 -167t-228 -58q-202 0 -343.5 151.5t-141.5 368.5t141.5 368.5t343.5 151.5q131 0 228 -58t153 -167v385h-215v123h215v131h189v-131h233zM602 160q148 0 245 96t97 244t-97 244t-245 96q-142 0 -241 -99t-99 -241
t99 -241t241 -99z" />
    <glyph glyph-name="Emacron" unicode="&#x112;" horiz-adv-x="1073" 
d="M238 1573v153h655v-153h-655zM145 1434h824v-189h-625v-393h557v-188h-557v-476h625v-188h-824v1434z" />
    <glyph glyph-name="emacron" unicode="&#x113;" horiz-adv-x="1148" 
d="M905 1292v-153h-655v153h655zM1071 524q0 -43 -4 -75h-803q17 -137 105.5 -218t226.5 -81q105 0 181 47.5t95 126.5h189q-28 -156 -158 -250t-313 -94q-218 0 -365 150.5t-147 373.5q0 142 67 260.5t184.5 187t258.5 68.5q203 0 343 -141t140 -355zM270 608h596
q-12 106 -90.5 173t-195.5 67q-118 0 -201 -64t-109 -176z" />
    <glyph glyph-name="Ebreve" unicode="&#x114;" horiz-adv-x="1073" 
d="M877 1853q0 -141 -88.5 -228t-223.5 -87q-136 0 -224 87t-89 228h145q1 -83 48.5 -134.5t119.5 -51.5q71 0 118 51.5t48 134.5h146zM145 1434h824v-189h-625v-393h557v-188h-557v-476h625v-188h-824v1434z" />
    <glyph glyph-name="ebreve" unicode="&#x115;" horiz-adv-x="1148" 
d="M580 1104q-136 0 -224.5 87t-89.5 228h146q1 -83 48.5 -134.5t119.5 -51.5q71 0 117.5 51.5t47.5 134.5h146q0 -141 -88 -228t-223 -87zM1071 524q0 -43 -4 -75h-803q17 -137 105.5 -218t226.5 -81q105 0 181 47.5t95 126.5h189q-28 -156 -158 -250t-313 -94
q-218 0 -365 150.5t-147 373.5q0 142 67 260.5t184.5 187t258.5 68.5q203 0 343 -141t140 -355zM270 608h596q-12 106 -90.5 173t-195.5 67q-118 0 -201 -64t-109 -176z" />
    <glyph glyph-name="Edotaccent" unicode="&#x116;" horiz-adv-x="1073" 
d="M565 1817q51 0 89 -37t38 -88q0 -52 -38 -89.5t-89 -37.5q-53 0 -90 37.5t-37 89.5q0 51 37.5 88t89.5 37zM145 1434h824v-189h-625v-393h557v-188h-557v-476h625v-188h-824v1434z" />
    <glyph glyph-name="edotaccent" unicode="&#x117;" horiz-adv-x="1148" 
d="M580 1194q-52 0 -89.5 37t-37.5 90q0 51 37.5 89t89.5 38q51 0 89 -38t38 -89q0 -52 -38 -89.5t-89 -37.5zM1071 524q0 -43 -4 -75h-803q17 -137 105.5 -218t226.5 -81q105 0 181 47.5t95 126.5h189q-28 -156 -158 -250t-313 -94q-218 0 -365 150.5t-147 373.5
q0 142 67 260.5t184.5 187t258.5 68.5q203 0 343 -141t140 -355zM270 608h596q-12 106 -90.5 173t-195.5 67q-118 0 -201 -64t-109 -176z" />
    <glyph glyph-name="Eogonek" unicode="&#x118;" horiz-adv-x="1073" 
d="M969 1245h-625v-393h557v-188h-557v-476h625v-188h-156q-76 -24 -121 -69t-45 -101q0 -38 26.5 -62t71.5 -24q54 0 99 23l47 -125q-81 -43 -201 -43q-93 0 -151 54t-58 138q0 118 105 209h-441v1434h824v-189z" />
    <glyph glyph-name="eogonek" unicode="&#x119;" horiz-adv-x="1148" 
d="M1071 524q0 -43 -4 -75h-803q17 -137 105.5 -218t226.5 -81q105 0 181 47.5t95 126.5h189q-24 -137 -125 -224l2 -14q-102 -78 -147.5 -136.5t-45.5 -119.5q0 -37 27 -61.5t72 -24.5q53 0 98 23l47 -125q-81 -43 -201 -43q-93 0 -150.5 54t-57.5 138q0 99 84 193
q-46 -4 -74 -4q-218 0 -365 150.5t-147 373.5q0 142 67 260.5t184.5 187t258.5 68.5q203 0 343 -141t140 -355zM270 608h596q-12 106 -90.5 173t-195.5 67q-118 0 -201 -64t-109 -176z" />
    <glyph glyph-name="Ecaron" unicode="&#x11a;" horiz-adv-x="1073" 
d="M459 1550l-189 297h168l125 -174l125 174h170l-190 -297h-209zM969 1245h-625v-393h557v-188h-557v-476h625v-188h-824v1434h824v-189z" />
    <glyph glyph-name="ecaron" unicode="&#x11b;" horiz-adv-x="1148" 
d="M473 1116l-188 297h168l125 -174l124 174h170l-190 -297h-209zM1071 524q0 -43 -4 -75h-803q17 -137 105.5 -218t226.5 -81q105 0 181 47.5t95 126.5h189q-28 -156 -158 -250t-313 -94q-218 0 -365 150.5t-147 373.5q0 142 67 260.5t184.5 187t258.5 68.5q203 0 343 -141
t140 -355zM270 608h596q-12 106 -90.5 173t-195.5 67q-118 0 -201 -64t-109 -176z" />
    <glyph glyph-name="Gcircumflex" unicode="&#x11c;" horiz-adv-x="1591" 
d="M805 1737l-125 -174h-168l188 297h209l191 -297h-170zM1491 782q8 -41 8 -116q0 -196 -90 -353.5t-247.5 -245t-350.5 -87.5q-201 0 -366 97t-259 266.5t-94 375.5q0 205 94 373.5t259 265t366 96.5q227 0 418 -135t239 -322h-223q-44 116 -168.5 191.5t-265.5 75.5
q-218 0 -367 -157.5t-149 -387.5q0 -153 68 -278.5t189.5 -198t270.5 -72.5q188 0 322.5 119t157.5 303h-474v190h662z" />
    <glyph glyph-name="gcircumflex" unicode="&#x11d;" horiz-adv-x="1263" 
d="M694 1303l-125 -175h-168l189 297h209l190 -297h-170zM944 999h189v-964q0 -207 -140.5 -331t-361.5 -124q-84 0 -165 20t-154.5 60.5t-121 112t-51.5 164.5h187q4 -90 90 -144.5t209 -54.5q137 0 228 80t91 209v196q-56 -106 -153.5 -163.5t-227.5 -57.5
q-202 0 -343.5 149t-141.5 361q0 139 64.5 256t176 184.5t244.5 67.5q130 0 227.5 -57t153.5 -162v198zM602 178q148 0 245 94.5t97 239.5q0 143 -97 237.5t-245 94.5q-142 0 -241 -97t-99 -235q0 -140 99 -237t241 -97z" />
    <glyph glyph-name="Gbreve" unicode="&#x11e;" horiz-adv-x="1591" 
d="M807 1538q-136 0 -224 87t-89 228h145q1 -83 48.5 -134.5t119.5 -51.5q71 0 118 51.5t48 134.5h145q0 -141 -88 -228t-223 -87zM1491 782q8 -41 8 -116q0 -196 -90 -353.5t-247.5 -245t-350.5 -87.5q-201 0 -366 97t-259 266.5t-94 375.5q0 205 94 373.5t259 265
t366 96.5q227 0 418 -135t239 -322h-223q-44 116 -168.5 191.5t-265.5 75.5q-218 0 -367 -157.5t-149 -387.5q0 -153 68 -278.5t189.5 -198t270.5 -72.5q188 0 322.5 119t157.5 303h-474v190h662z" />
    <glyph glyph-name="gbreve" unicode="&#x11f;" horiz-adv-x="1263" 
d="M696 1104q-136 0 -224 87t-89 228h145q1 -83 48.5 -134.5t119.5 -51.5q71 0 118 51.5t48 134.5h146q0 -141 -88.5 -228t-223.5 -87zM944 999h189v-964q0 -207 -140.5 -331t-361.5 -124q-84 0 -165 20t-154.5 60.5t-121 112t-51.5 164.5h187q4 -90 90 -144.5t209 -54.5
q137 0 228 80t91 209v196q-56 -106 -153.5 -163.5t-227.5 -57.5q-202 0 -343.5 149t-141.5 361q0 139 64.5 256t176 184.5t244.5 67.5q130 0 227.5 -57t153.5 -162v198zM602 178q148 0 245 94.5t97 239.5q0 143 -97 237.5t-245 94.5q-142 0 -241 -97t-99 -235
q0 -140 99 -237t241 -97z" />
    <glyph glyph-name="Gdotaccent" unicode="&#x120;" horiz-adv-x="1591" 
d="M805 1565q-53 0 -90 37.5t-37 89.5q0 51 37.5 88t89.5 37q51 0 89 -37t38 -88q0 -52 -38 -89.5t-89 -37.5zM1491 782q8 -41 8 -116q0 -196 -90 -353.5t-247.5 -245t-350.5 -87.5q-201 0 -366 97t-259 266.5t-94 375.5q0 205 94 373.5t259 265t366 96.5q227 0 418 -135
t239 -322h-223q-44 116 -168.5 191.5t-265.5 75.5q-218 0 -367 -157.5t-149 -387.5q0 -153 68 -278.5t189.5 -198t270.5 -72.5q188 0 322.5 119t157.5 303h-474v190h662z" />
    <glyph glyph-name="gdotaccent" unicode="&#x121;" horiz-adv-x="1263" 
d="M696 1194q-52 0 -89.5 37t-37.5 90q0 51 37.5 89t89.5 38q51 0 89 -38t38 -89q0 -52 -38 -89.5t-89 -37.5zM944 999h189v-964q0 -207 -140.5 -331t-361.5 -124q-84 0 -165 20t-154.5 60.5t-121 112t-51.5 164.5h187q4 -90 90 -144.5t209 -54.5q137 0 228 80t91 209v196
q-56 -106 -153.5 -163.5t-227.5 -57.5q-202 0 -343.5 149t-141.5 361q0 139 64.5 256t176 184.5t244.5 67.5q130 0 227.5 -57t153.5 -162v198zM602 178q148 0 245 94.5t97 239.5q0 143 -97 237.5t-245 94.5q-142 0 -241 -97t-99 -235q0 -140 99 -237t241 -97z" />
    <glyph glyph-name="uni0122" unicode="&#x122;" horiz-adv-x="1591" 
d="M1491 782q8 -41 8 -116q0 -196 -90 -353.5t-247.5 -245t-350.5 -87.5q-201 0 -366 97t-259 266.5t-94 375.5q0 205 94 373.5t259 265t366 96.5q227 0 418 -135t239 -322h-223q-44 116 -168.5 191.5t-265.5 75.5q-218 0 -367 -157.5t-149 -387.5q0 -153 68 -278.5
t189.5 -198t270.5 -72.5q188 0 322.5 119t157.5 303h-474v190h662zM532 -442l170 297h230l-223 -297h-177z" />
    <glyph glyph-name="uni0123" unicode="&#x123;" horiz-adv-x="1263" 
d="M987 1423l-168 -299h-229l221 299h176zM944 999h189v-964q0 -207 -140.5 -331t-361.5 -124q-84 0 -165 20t-154.5 60.5t-121 112t-51.5 164.5h187q4 -90 90 -144.5t209 -54.5q137 0 228 80t91 209v196q-56 -106 -153.5 -163.5t-227.5 -57.5q-202 0 -343.5 149t-141.5 361
q0 139 64.5 256t176 184.5t244.5 67.5q130 0 227.5 -57t153.5 -162v198zM602 178q148 0 245 94.5t97 239.5q0 143 -97 237.5t-245 94.5q-142 0 -241 -97t-99 -235q0 -140 99 -237t241 -97z" />
    <glyph glyph-name="Hcircumflex" unicode="&#x124;" horiz-adv-x="1437" 
d="M719 1737l-125 -174h-168l188 297h209l191 -297h-170zM1094 1434h198v-1434h-198v649h-750v-649h-199v1434h199v-596h750v596z" />
    <glyph glyph-name="hcircumflex" unicode="&#x125;" horiz-adv-x="1191" 
d="M352 1563l-125 174l-125 -174h-170l191 297h209l188 -297h-168zM641 1020q193 0 305.5 -121t112.5 -328v-571h-189v551q0 131 -74 210t-198 79q-126 0 -201 -79t-75 -210v-551h-191v1434h191v-609q48 93 130.5 144t188.5 51z" />
    <glyph glyph-name="Hbar" unicode="&#x126;" horiz-adv-x="1437" 
d="M1425 1231v-162h-133v-1069h-198v649h-750v-649h-199v1069h-137v162h137v203h199v-203h750v203h198v-203h133zM1094 838v231h-750v-231h750z" />
    <glyph glyph-name="hbar" unicode="&#x127;" horiz-adv-x="1191" 
d="M641 1020q193 0 305.5 -121t112.5 -328v-571h-189v551q0 131 -74 210t-198 79q-126 0 -201 -79t-75 -210v-551h-191v1180h-221v123h221v131h191v-131h223v-123h-223v-355q48 93 130.5 144t188.5 51z" />
    <glyph glyph-name="Itilde" unicode="&#x128;" horiz-adv-x="489" 
d="M-131 1589q7 111 70 179.5t151 68.5q54 0 111.5 -29.5t104.5 -58.5t75 -29q37 0 61.5 31t24.5 80l154 -25q-9 -109 -73 -178t-151 -69q-55 0 -112 29t-104 58t-77 29q-37 0 -58.5 -30.5t-20.5 -81.5zM145 1434h199v-1434h-199v1434z" />
    <glyph glyph-name="itilde" unicode="&#x129;" horiz-adv-x="452" 
d="M-150 1155q7 111 70.5 179.5t151.5 68.5q54 0 111.5 -29.5t104 -58.5t74.5 -29q37 0 62 31t25 80l153 -25q-9 -109 -72.5 -178.5t-150.5 -69.5q-44 0 -89.5 18.5t-77 40t-66.5 40t-60 18.5q-37 0 -59 -31t-21 -82zM131 999h191v-999h-191v999z" />
    <glyph glyph-name="Imacron" unicode="&#x12a;" horiz-adv-x="489" 
d="M-84 1573v153h655v-153h-655zM145 1434h199v-1434h-199v1434z" />
    <glyph glyph-name="imacron" unicode="&#x12b;" horiz-adv-x="452" 
d="M-100 1139v153h655v-153h-655zM131 999h191v-999h-191v999z" />
    <glyph glyph-name="Ibreve" unicode="&#x12c;" horiz-adv-x="489" 
d="M557 1853q0 -141 -88 -228t-223 -87q-137 0 -225.5 87t-88.5 228h146q1 -83 48.5 -134.5t119.5 -51.5q71 0 118 51.5t48 134.5h145zM145 1434h199v-1434h-199v1434z" />
    <glyph glyph-name="ibreve" unicode="&#x12d;" horiz-adv-x="452" 
d="M541 1419q0 -141 -88.5 -228t-223.5 -87q-137 0 -225 87t-88 228h145q1 -83 48.5 -134.5t119.5 -51.5q71 0 118 51.5t48 134.5h146zM131 999h191v-999h-191v999z" />
    <glyph glyph-name="Iogonek" unicode="&#x12e;" horiz-adv-x="489" 
d="M373 -233l47 -125q-81 -43 -201 -43q-93 0 -151 54t-58 138q0 136 135 234v1409h199v-1434h-2q-76 -24 -121 -69t-45 -101q0 -38 26.5 -62t71.5 -24q54 0 99 23z" />
    <glyph glyph-name="iogonek" unicode="&#x12f;" horiz-adv-x="452" 
d="M227 1194q-53 0 -90 37t-37 90q0 51 37.5 89t89.5 38q51 0 89 -38t38 -89q0 -52 -38 -89.5t-89 -37.5zM350 -233l47 -125q-81 -43 -200 -43q-93 0 -151 54t-58 138q0 143 143 240v968h191v-999h-3q-76 -24 -120.5 -69t-44.5 -101q0 -38 26.5 -62t71.5 -24q53 0 98 23z
" />
    <glyph glyph-name="Idotaccent" unicode="&#x130;" horiz-adv-x="489" 
d="M246 1817q51 0 89 -37t38 -88q0 -52 -38 -89.5t-89 -37.5q-52 0 -89.5 37.5t-37.5 89.5q0 51 37.5 88t89.5 37zM145 1434h199v-1434h-199v1434z" />
    <glyph glyph-name="dotlessi" unicode="&#x131;" horiz-adv-x="452" 
d="M131 999h191v-999h-191v999z" />
    <glyph glyph-name="IJ" unicode="&#x132;" horiz-adv-x="1128" 
d="M145 1434h199v-1434h-199v1434zM539 170q12 -2 43 -2q106 0 159.5 64.5t53.5 203.5v998h198v-1047q0 -191 -96.5 -298t-261.5 -107q-49 0 -96 6v182z" />
    <glyph glyph-name="ij" unicode="&#x133;" horiz-adv-x="905" 
d="M227 1448q51 0 89 -38t38 -89q0 -52 -38 -89.5t-89 -37.5q-53 0 -90 37t-37 90q0 51 37.5 89t89.5 38zM680 1448q51 0 89 -38t38 -89q0 -52 -38 -89.5t-89 -37.5q-53 0 -91 37.5t-38 89.5q0 51 38.5 89t90.5 38zM131 999h191v-999h-191v999zM428 -231q8 -2 27 -2
q129 0 129 182v1050h190v-1067q0 -165 -78.5 -252.5t-222.5 -87.5q-7 0 -22 1t-23 1v175z" />
    <glyph glyph-name="Jcircumflex" unicode="&#x134;" horiz-adv-x="638" 
d="M510 1860l190 -297h-170l-124 174l-125 -174h-168l188 297h209zM305 436v998h199v-1047q0 -191 -97 -298t-262 -107q-49 0 -96 6v182q12 -2 43 -2q106 0 159.5 64.5t53.5 203.5z" />
    <glyph glyph-name="jcircumflex" unicode="&#x135;" horiz-adv-x="452" 
d="M330 1425l190 -297h-170l-125 175l-125 -175h-170l191 297h209zM131 -51v1050h191v-1067q0 -164 -79 -252t-223 -88q-7 0 -22 1t-23 1v175q8 -2 27 -2q129 0 129 182z" />
    <glyph glyph-name="uni0136" unicode="&#x136;" horiz-adv-x="1296" 
d="M551 754l702 -754h-262l-649 711v-711h-197v1434h197v-639l600 639h252zM377 -442l170 297h229l-223 -297h-176z" />
    <glyph glyph-name="uni0137" unicode="&#x137;" horiz-adv-x="1062" 
d="M510 520l522 -520h-248l-462 477v-477h-191v1434h191v-873l442 438h235zM283 -442l170 297h229l-223 -297h-176z" />
    <glyph glyph-name="kgreenlandic" unicode="&#x138;" horiz-adv-x="1064" 
d="M1034 0h-246l-469 492v-492h-188v999h188v-452l447 452h238l-482 -479z" />
    <glyph glyph-name="Lacute" unicode="&#x139;" horiz-adv-x="1118" 
d="M539 1847l-222 -297h-176l168 297h230zM145 1434h199v-1246h705v-188h-904v1434z" />
    <glyph glyph-name="lacute" unicode="&#x13a;" horiz-adv-x="452" 
d="M537 1847l-222 -297h-176l168 297h230zM322 1434v-1434h-191v1434h191z" />
    <glyph glyph-name="uni013B" unicode="&#x13b;" horiz-adv-x="1118" 
d="M145 1434h199v-1246h705v-188h-904v1434zM713 -145l-224 -297h-176l170 297h230z" />
    <glyph glyph-name="uni013C" unicode="&#x13c;" horiz-adv-x="452" 
d="M322 1434v-1434h-191v1434h191zM387 -145l-223 -297h-176l170 297h229z" />
    <glyph glyph-name="Lcaron" unicode="&#x13d;" horiz-adv-x="1118" 
d="M553 1116l41 424h201l-86 -424h-156zM145 1434h199v-1246h705v-188h-904v1434z" />
    <glyph glyph-name="lcaron" unicode="&#x13e;" horiz-adv-x="626" 
d="M416 1116l41 424h200l-86 -424h-155zM322 1434v-1434h-191v1434h191z" />
    <glyph glyph-name="Ldot" unicode="&#x13f;" horiz-adv-x="1122" 
d="M145 1434h199v-1246h705v-188h-904v1434zM766 641q-60 0 -99.5 39.5t-39.5 97.5q0 59 39.5 98t99.5 39q59 0 99 -39.5t40 -97.5q0 -57 -40.5 -97t-98.5 -40z" />
    <glyph glyph-name="ldot" unicode="&#x140;" horiz-adv-x="677" 
d="M307 1434v-1434h-190v1434h190zM553 600q-59 0 -99 40t-40 97q0 59 39.5 98t99.5 39q59 0 99 -39.5t40 -97.5q0 -57 -40.5 -97t-98.5 -40z" />
    <glyph glyph-name="Lslash" unicode="&#x141;" horiz-adv-x="1118" 
d="M344 188h705v-188h-904v580l-149 -70v172l149 70v682h199v-590l395 184v-170l-395 -184v-486z" />
    <glyph glyph-name="lslash" unicode="&#x142;" horiz-adv-x="452" 
d="M463 1014v-174l-141 -66v-774h-191v686l-139 -63v174l139 63v574h191v-486z" />
    <glyph glyph-name="Nacute" unicode="&#x143;" horiz-adv-x="1409" 
d="M1004 1847l-222 -297h-176l168 297h230zM145 1434h179l741 -1061v1061h197v-1434h-175l-743 1059v-1059h-199v1434z" />
    <glyph glyph-name="nacute" unicode="&#x144;" horiz-adv-x="1191" 
d="M877 1413l-222 -297h-178l170 297h230zM641 1020q193 0 305.5 -121t112.5 -328v-571h-189v551q0 131 -74 210t-198 79q-126 0 -201 -79t-75 -210v-551h-191v999h191v-174q48 93 130.5 144t188.5 51z" />
    <glyph glyph-name="uni0145" unicode="&#x145;" horiz-adv-x="1409" 
d="M145 1434h179l741 -1061v1061h197v-1434h-175l-743 1059v-1059h-199v1434zM864 -145l-223 -297h-176l170 297h229z" />
    <glyph glyph-name="uni0146" unicode="&#x146;" horiz-adv-x="1191" 
d="M641 1020q193 0 305.5 -121t112.5 -328v-571h-189v551q0 131 -74 210t-198 79q-126 0 -201 -79t-75 -210v-551h-191v999h191v-174q48 93 130.5 144t188.5 51zM342 -442l168 297h231l-223 -297h-176z" />
    <glyph glyph-name="Ncaron" unicode="&#x147;" horiz-adv-x="1409" 
d="M604 1550l-188 297h168l125 -174l125 174h170l-191 -297h-209zM1065 1434h197v-1434h-175l-743 1059v-1059h-199v1434h179l741 -1061v1061z" />
    <glyph glyph-name="ncaron" unicode="&#x148;" horiz-adv-x="1191" 
d="M477 1116l-190 297h170l125 -176l125 176h170l-191 -297h-209zM641 1020q193 0 305.5 -121t112.5 -328v-571h-189v551q0 131 -74 210t-198 79q-126 0 -201 -79t-75 -210v-551h-191v999h191v-174q48 93 130.5 144t188.5 51z" />
    <glyph glyph-name="napostrophe" unicode="&#x149;" horiz-adv-x="1177" 
d="M223 1264q-35 14 -56.5 46.5t-21.5 73.5q0 56 37 94t94 38q56 0 94 -38t38 -94q0 -45 -37 -108l-88 -160h-123zM641 1020q193 0 305.5 -121t112.5 -328v-571h-189v551q0 131 -74 210t-198 79q-126 0 -201 -79t-75 -210v-551h-191v999h191v-174q48 93 130.5 144t188.5 51z
" />
    <glyph glyph-name="Eng" unicode="&#x14a;" horiz-adv-x="1409" 
d="M1065 1434h197v-1416q0 -191 -97 -298t-262 -107q-47 0 -94 6v182q10 -2 41 -2q100 0 154 56.5t61 177.5l-721 1026v-1059h-199v1434h179l741 -1061v1061z" />
    <glyph glyph-name="eng" unicode="&#x14b;" horiz-adv-x="1189" 
d="M1059 571v-571h-2v-68q0 -165 -78 -252.5t-223 -87.5q-6 0 -20 1t-23 1v175q6 -2 26 -2q129 0 129 182v346h2v256q0 131 -74 210t-198 79q-126 0 -201 -79t-75 -210v-551h-191v999h191v-174q48 93 130.5 144t188.5 51q193 0 305.5 -121t112.5 -328z" />
    <glyph glyph-name="Omacron" unicode="&#x14c;" horiz-adv-x="1634" 
d="M489 1573v153h656v-153h-656zM817 1454q151 0 285.5 -56.5t231 -154t152.5 -233.5t56 -289q0 -155 -56 -292.5t-152.5 -236t-231 -155.5t-285.5 -57q-152 0 -286.5 57t-230.5 155.5t-152 236t-56 292.5q0 204 94.5 372t261 264.5t369.5 96.5zM817 1264q-145 0 -265 -71.5
t-188.5 -196.5t-68.5 -275q0 -233 150.5 -392t371.5 -159t371.5 159t150.5 392q0 150 -68.5 275t-188.5 196.5t-265 71.5z" />
    <glyph glyph-name="omacron" unicode="&#x14d;" horiz-adv-x="1187" 
d="M266 1139v153h656v-153h-656zM594 1020q143 0 261 -68.5t186.5 -188.5t68.5 -265q0 -219 -149.5 -368.5t-366.5 -149.5q-143 0 -261.5 68t-186.5 187t-68 263q0 221 149 371.5t367 150.5zM594 840q-141 0 -236.5 -98t-95.5 -244q0 -143 95.5 -240.5t236.5 -97.5
q140 0 236 98t96 240q0 146 -96 244t-236 98z" />
    <glyph glyph-name="Obreve" unicode="&#x14e;" horiz-adv-x="1634" 
d="M1128 1853q0 -141 -88 -228t-223 -87q-136 0 -224 87t-89 228h145q1 -83 48.5 -134.5t119.5 -51.5q71 0 118 51.5t48 134.5h145zM817 1454q151 0 285.5 -56.5t231 -154t152.5 -233.5t56 -289q0 -155 -56 -292.5t-152.5 -236t-231 -155.5t-285.5 -57q-152 0 -286.5 57
t-230.5 155.5t-152 236t-56 292.5q0 204 94.5 372t261 264.5t369.5 96.5zM817 1264q-145 0 -265 -71.5t-188.5 -196.5t-68.5 -275q0 -233 150.5 -392t371.5 -159t371.5 159t150.5 392q0 150 -68.5 275t-188.5 196.5t-265 71.5z" />
    <glyph glyph-name="obreve" unicode="&#x14f;" horiz-adv-x="1187" 
d="M907 1419q0 -141 -88 -228t-223 -87q-136 0 -224 87t-89 228h145q1 -83 48.5 -134.5t119.5 -51.5q71 0 118 51.5t48 134.5h145zM594 1020q143 0 261 -68.5t186.5 -188.5t68.5 -265q0 -219 -149.5 -368.5t-366.5 -149.5q-143 0 -261.5 68t-186.5 187t-68 263
q0 221 149 371.5t367 150.5zM594 840q-141 0 -236.5 -98t-95.5 -244q0 -143 95.5 -240.5t236.5 -97.5q140 0 236 98t96 240q0 146 -96 244t-236 98z" />
    <glyph glyph-name="Ohungarumlaut" unicode="&#x150;" horiz-adv-x="1634" 
d="M723 1550l135 310h-194l-138 -310h197zM1077 1550l135 310h-194l-135 -310h194zM817 1454q151 0 285.5 -56.5t231 -154t152.5 -233.5t56 -289q0 -155 -56 -292.5t-152.5 -236t-231 -155.5t-285.5 -57q-152 0 -286.5 57t-230.5 155.5t-152 236t-56 292.5q0 204 94.5 372
t261 264.5t369.5 96.5zM817 1264q-145 0 -265 -71.5t-188.5 -196.5t-68.5 -275q0 -233 150.5 -392t371.5 -159t371.5 159t150.5 392q0 150 -68.5 275t-188.5 196.5t-265 71.5z" />
    <glyph glyph-name="ohungarumlaut" unicode="&#x151;" horiz-adv-x="1187" 
d="M502 1116l135 309h-195l-137 -309h197zM856 1116l135 309h-194l-135 -309h194zM594 1020q143 0 261 -68.5t186.5 -188.5t68.5 -265q0 -219 -149.5 -368.5t-366.5 -149.5q-143 0 -261.5 68t-186.5 187t-68 263q0 221 149 371.5t367 150.5zM594 840q-141 0 -236.5 -98
t-95.5 -244q0 -143 95.5 -240.5t236.5 -97.5q140 0 236 98t96 240q0 146 -96 244t-236 98z" />
    <glyph glyph-name="OE" unicode="&#x152;" horiz-adv-x="1988" 
d="M1886 1245h-626v-393h559v-188h-559v-476h626v-188h-1083q-149 0 -281 55t-226 150.5t-149 230t-55 287.5q0 151 55 283.5t149.5 226t226 147.5t280.5 54h1083v-189zM1063 188v1057h-272q-215 0 -355.5 -147.5t-140.5 -374.5q0 -230 141 -382.5t355 -152.5h272z" />
    <glyph glyph-name="oe" unicode="&#x153;" horiz-adv-x="1998" 
d="M1923 524q0 -43 -4 -75h-801q17 -137 104.5 -218t225.5 -81q105 0 181 47.5t95 126.5h189q-28 -156 -158 -250t-311 -94q-132 0 -243 59t-181 162q-70 -103 -182 -162t-244 -59q-143 0 -261.5 68t-186.5 187t-68 263q0 221 149 371.5t367 150.5q131 0 242.5 -59
t183.5 -162q68 103 179 162t241 59q203 0 343 -141t140 -355zM1124 608h596q-14 106 -92.5 173t-195.5 67t-199.5 -64t-108.5 -176zM594 160q140 0 236 98t96 240q0 146 -96 244t-236 98q-141 0 -236.5 -98t-95.5 -244q0 -143 95.5 -240.5t236.5 -97.5z" />
    <glyph glyph-name="Racute" unicode="&#x154;" horiz-adv-x="1261" 
d="M858 1847l-221 -297h-176l168 297h229zM1206 0h-237l-381 596h-244v-596h-199v1434h529q181 0 306.5 -120t125.5 -296q0 -155 -82 -263.5t-221 -144.5zM342 1245l2 -461h326q103 0 170 66.5t67 167.5q0 98 -67 162.5t-170 64.5h-328z" />
    <glyph glyph-name="racute" unicode="&#x155;" 
d="M702 1413l-221 -297h-176l168 297h229zM322 854q45 77 116 120.5t158 43.5q48 0 92 -12v-175q-53 17 -98 17q-115 0 -191.5 -78.5t-76.5 -206.5v-563h-191v999h191v-145z" />
    <glyph glyph-name="uni0156" unicode="&#x156;" horiz-adv-x="1261" 
d="M803 610l403 -610h-237l-381 596h-244v-596h-199v1434h529q181 0 306.5 -120t125.5 -296q0 -155 -82 -263.5t-221 -144.5zM342 1245l2 -461h326q103 0 170 66.5t67 167.5q0 98 -67 162.5t-170 64.5h-328zM377 -442l170 297h229l-223 -297h-176z" />
    <glyph glyph-name="uni0157" unicode="&#x157;" 
d="M596 1018q48 0 92 -12v-175q-53 17 -98 17q-115 0 -191.5 -78.5t-76.5 -206.5v-563h-191v999h191v-145q45 77 116 120.5t158 43.5zM-16 -442l170 297h229l-223 -297h-176z" />
    <glyph glyph-name="Rcaron" unicode="&#x158;" horiz-adv-x="1261" 
d="M459 1550l-189 297h168l125 -174l125 174h170l-190 -297h-209zM1206 0h-237l-381 596h-244v-596h-199v1434h529q181 0 306.5 -120t125.5 -296q0 -155 -82 -263.5t-221 -144.5zM342 1245l2 -461h326q103 0 170 66.5t67 167.5q0 98 -67 162.5t-170 64.5h-328z" />
    <glyph glyph-name="rcaron" unicode="&#x159;" 
d="M303 1116l-188 297h168l125 -174l124 174h170l-190 -297h-209zM322 854q45 77 116 120.5t158 43.5q48 0 92 -12v-175q-53 17 -98 17q-115 0 -191.5 -78.5t-76.5 -206.5v-563h-191v999h191v-145z" />
    <glyph glyph-name="Sacute" unicode="&#x15a;" horiz-adv-x="1218" 
d="M891 1847l-221 -297h-176l168 297h229zM623 -20q-227 0 -376 134.5t-149 338.5h195q0 -127 92.5 -207t237.5 -80q136 0 223.5 64.5t87.5 166.5q0 59 -28 102.5t-75 70t-108 46.5t-129 37t-135.5 36t-128.5 48.5t-108 69.5t-75 105t-28 149q0 171 135.5 282t341.5 111
q229 0 359 -123.5t130 -308.5h-202q-3 107 -84 176.5t-209 69.5q-123 0 -201 -57.5t-78 -149.5q0 -53 28 -92.5t75.5 -63t109 -41.5t129.5 -34.5t135.5 -36t129 -51t109 -74.5t75.5 -112.5t28 -158.5q0 -181 -144 -299t-363 -118z" />
    <glyph glyph-name="sacute" unicode="&#x15b;" horiz-adv-x="948" 
d="M748 1419l-224 -299h-176l168 299h232zM481 -20q-176 0 -290.5 88t-129.5 239h181q9 -74 72.5 -119t158.5 -45q93 0 149 39.5t56 102.5q0 50 -33 82t-85 47.5t-115.5 27.5t-127 28.5t-115.5 43.5t-85 80.5t-33 130.5q0 129 101 212t266 83q155 0 266 -80.5t129 -220.5
h-191q-9 61 -66.5 101t-142.5 40q-79 0 -128.5 -33t-49.5 -88q0 -48 33 -77.5t85 -43.5t115.5 -25t127 -28.5t115.5 -46.5t85 -87t33 -142q0 -133 -109 -221t-272 -88z" />
    <glyph glyph-name="Scircumflex" unicode="&#x15c;" horiz-adv-x="1218" 
d="M596 1737l-125 -174h-168l189 297h208l191 -297h-170zM311 1061q0 -53 28 -92.5t75.5 -63t109 -41.5t129.5 -34.5t135.5 -36t129 -51t109 -74.5t75.5 -112.5t28 -158.5q0 -181 -144 -299t-363 -118q-227 0 -376 134.5t-149 338.5h195q0 -127 92.5 -207t237.5 -80
q136 0 223.5 64.5t87.5 166.5q0 59 -28 102.5t-75 70t-108 46.5t-129 37t-135.5 36t-128.5 48.5t-108 69.5t-75 105t-28 149q0 171 135.5 282t341.5 111q229 0 359 -123.5t130 -308.5h-202q-3 107 -84 176.5t-209 69.5q-123 0 -201 -57.5t-78 -149.5z" />
    <glyph glyph-name="scircumflex" unicode="&#x15d;" horiz-adv-x="948" 
d="M453 1307l-125 -174h-170l190 297h209l188 -297h-167zM268 739q0 -48 33 -77.5t85 -43.5t115.5 -25t127 -28.5t115.5 -46.5t85 -87t33 -142q0 -133 -109 -221t-272 -88q-176 0 -290.5 88t-129.5 239h181q9 -74 72.5 -119t158.5 -45q93 0 149 39.5t56 102.5q0 50 -33 82
t-85 47.5t-115.5 27.5t-127 28.5t-115.5 43.5t-85 80.5t-33 130.5q0 129 101 212t266 83q155 0 266 -80.5t129 -220.5h-191q-9 61 -66.5 101t-142.5 40q-79 0 -128.5 -33t-49.5 -88z" />
    <glyph glyph-name="Scedilla" unicode="&#x15e;" horiz-adv-x="1218" 
d="M1130 397q0 -162 -116.5 -275t-302.5 -136q54 -64 74.5 -129.5t6 -119t-53 -95.5t-104 -64t-145.5 -18l-45 137q108 4 161 45t44 104.5t-74 135.5q-210 15 -343.5 146.5t-133.5 324.5h195q0 -127 92.5 -207t237.5 -80q136 0 223.5 64.5t87.5 166.5q0 59 -28 102.5t-75 70
t-108 46.5t-129 37t-135.5 36t-128.5 48.5t-108 69.5t-75 105t-28 149q0 171 135.5 282t341.5 111q229 0 359 -123.5t130 -308.5h-202q-3 107 -84 176.5t-209 69.5q-123 0 -201 -57.5t-78 -149.5q0 -53 28 -92.5t75.5 -63t109 -41.5t129.5 -34.5t135.5 -36t129 -51
t109 -74.5t75.5 -112.5t28 -158.5z" />
    <glyph glyph-name="scedilla" unicode="&#x15f;" horiz-adv-x="948" 
d="M862 289q0 -117 -86 -200.5t-221 -104.5q66 -79 79.5 -159t-20 -139t-108 -94.5t-174.5 -31.5l-45 137q108 4 161 45.5t43.5 105.5t-75.5 136q-150 15 -246 101t-109 222h181q9 -74 72.5 -119t158.5 -45q93 0 149 39.5t56 102.5q0 50 -33 82t-85 47.5t-115.5 27.5
t-127 28.5t-115.5 43.5t-85 80.5t-33 130.5q0 129 101 212t266 83q155 0 266 -80.5t129 -220.5h-191q-9 61 -66.5 101t-142.5 40q-79 0 -128.5 -33t-49.5 -88q0 -48 33 -77.5t85 -43.5t115.5 -25t127 -28.5t115.5 -46.5t85 -87t33 -142z" />
    <glyph glyph-name="Scaron" unicode="&#x160;" horiz-adv-x="1218" 
d="M492 1550l-189 297h168l125 -174l125 174h170l-191 -297h-208zM311 1061q0 -53 28 -92.5t75.5 -63t109 -41.5t129.5 -34.5t135.5 -36t129 -51t109 -74.5t75.5 -112.5t28 -158.5q0 -181 -144 -299t-363 -118q-227 0 -376 134.5t-149 338.5h195q0 -127 92.5 -207t237.5 -80
q136 0 223.5 64.5t87.5 166.5q0 59 -28 102.5t-75 70t-108 46.5t-129 37t-135.5 36t-128.5 48.5t-108 69.5t-75 105t-28 149q0 171 135.5 282t341.5 111q229 0 359 -123.5t130 -308.5h-202q-3 107 -84 176.5t-209 69.5q-123 0 -201 -57.5t-78 -149.5z" />
    <glyph glyph-name="scaron" unicode="&#x161;" horiz-adv-x="948" 
d="M348 1120l-190 299h170l125 -176l125 176h167l-188 -299h-209zM268 739q0 -48 33 -77.5t85 -43.5t115.5 -25t127 -28.5t115.5 -46.5t85 -87t33 -142q0 -133 -109 -221t-272 -88q-176 0 -290.5 88t-129.5 239h181q9 -74 72.5 -119t158.5 -45q93 0 149 39.5t56 102.5
q0 50 -33 82t-85 47.5t-115.5 27.5t-127 28.5t-115.5 43.5t-85 80.5t-33 130.5q0 129 101 212t266 83q155 0 266 -80.5t129 -220.5h-191q-9 61 -66.5 101t-142.5 40q-79 0 -128.5 -33t-49.5 -88z" />
    <glyph glyph-name="uni0162" unicode="&#x162;" horiz-adv-x="1216" 
d="M1163 1245h-454v-1222q57 -56 87.5 -115t33.5 -110.5t-17.5 -97t-60.5 -77.5t-99.5 -49t-130.5 -14l-45 137q113 5 165.5 49t37.5 111.5t-90 142.5h-80v1245h-455v189h1108v-189z" />
    <glyph glyph-name="uni0163" unicode="&#x163;" horiz-adv-x="743" 
d="M680 819h-270v-461q0 -192 200 -192q43 0 70 8v-174q-46 -12 -109 -12h-2q55 -64 76.5 -129.5t7.5 -120t-52.5 -96.5t-104.5 -64t-146 -18l-45 137q120 5 171.5 54t26.5 123.5t-116 154.5q-166 88 -166 325v465h-194v180h194v271h189v-271h270v-180z" />
    <glyph glyph-name="Tcaron" unicode="&#x164;" horiz-adv-x="1218" 
d="M502 1550l-189 297h168l125 -174l125 174h170l-190 -297h-209zM1163 1434v-189h-454v-1245h-199v1245h-455v189h1108z" />
    <glyph glyph-name="tcaron" unicode="&#x165;" horiz-adv-x="743" 
d="M565 1540h201l-86 -424h-156zM410 1270v-271h270v-180h-270v-461q0 -192 200 -192q43 0 70 8v-174q-46 -12 -109 -12q-162 0 -256 93.5t-94 272.5v465h-194v180h194v271h189z" />
    <glyph glyph-name="Tbar" unicode="&#x166;" horiz-adv-x="1218" 
d="M1163 1245h-454v-463h217v-131h-217v-651h-199v651h-221v131h221v463h-455v189h1108v-189z" />
    <glyph glyph-name="tbar" unicode="&#x167;" horiz-adv-x="743" 
d="M680 819h-270v-262h254v-117h-254v-82q0 -192 200 -192q43 0 70 8v-174q-46 -12 -109 -12q-162 0 -256 93.5t-94 272.5v86h-194v117h194v262h-194v180h194v271h189v-271h270v-180z" />
    <glyph glyph-name="Utilde" unicode="&#x168;" horiz-adv-x="1396" 
d="M322 1589q7 111 70 179.5t151 68.5q54 0 111.5 -29.5t104.5 -58.5t75 -29q37 0 61.5 31t24.5 80l153 -25q-9 -109 -72.5 -178t-150.5 -69q-55 0 -112 29t-104 58t-77 29q-37 0 -59 -30.5t-21 -81.5zM698 -20q-238 0 -395.5 160t-157.5 401v893h199v-893
q0 -159 100.5 -264t253.5 -105t254 105t101 264v893h198v-893q0 -241 -157.5 -401t-395.5 -160z" />
    <glyph glyph-name="utilde" unicode="&#x169;" horiz-adv-x="1191" 
d="M457 1241q-37 0 -60 -31.5t-22 -81.5l-154 27q7 111 69.5 179.5t151.5 68.5q54 0 111.5 -29.5t104.5 -58.5t75 -29q37 0 61.5 31t24.5 80l154 -25q-9 -109 -72.5 -178.5t-150.5 -69.5q-44 0 -89.5 18.5t-77 40t-66.5 40t-60 18.5zM870 999h189v-999h-189v176
q-48 -94 -130.5 -145t-190.5 -51q-192 0 -305 120.5t-113 325.5v573h191v-550q0 -131 73.5 -210t196.5 -79q127 0 202.5 79t75.5 210v550z" />
    <glyph glyph-name="Umacron" unicode="&#x16a;" horiz-adv-x="1396" 
d="M371 1573v153h655v-153h-655zM698 -20q-238 0 -395.5 160t-157.5 401v893h199v-893q0 -159 100.5 -264t253.5 -105t254 105t101 264v893h198v-893q0 -241 -157.5 -401t-395.5 -160z" />
    <glyph glyph-name="umacron" unicode="&#x16b;" horiz-adv-x="1191" 
d="M926 1292v-153h-656v153h656zM870 999h189v-999h-189v176q-48 -94 -130.5 -145t-190.5 -51q-192 0 -305 120.5t-113 325.5v573h191v-550q0 -131 73.5 -210t196.5 -79q127 0 202.5 79t75.5 210v550z" />
    <glyph glyph-name="Ubreve" unicode="&#x16c;" horiz-adv-x="1396" 
d="M1012 1853q0 -141 -88.5 -228t-223.5 -87q-136 0 -224 87t-89 228h145q1 -83 48.5 -134.5t119.5 -51.5q71 0 118 51.5t48 134.5h146zM698 -20q-238 0 -395.5 160t-157.5 401v893h199v-893q0 -159 100.5 -264t253.5 -105t254 105t101 264v893h198v-893q0 -241 -157.5 -401
t-395.5 -160z" />
    <glyph glyph-name="ubreve" unicode="&#x16d;" horiz-adv-x="1191" 
d="M598 1104q-136 0 -224 87t-89 228h145q1 -83 48.5 -134.5t119.5 -51.5q71 0 118 51.5t48 134.5h145q0 -141 -88 -228t-223 -87zM870 999h189v-999h-189v176q-48 -94 -130.5 -145t-190.5 -51q-192 0 -305 120.5t-113 325.5v573h191v-550q0 -131 73.5 -210t196.5 -79
q127 0 202.5 79t75.5 210v550z" />
    <glyph glyph-name="Uring" unicode="&#x16e;" horiz-adv-x="1396" 
d="M698 1544q-111 0 -184.5 70.5t-73.5 177.5q0 106 74 177t184 71t185 -71t75 -177q0 -107 -74.5 -177.5t-185.5 -70.5zM698 1659q60 0 99 38t39 95q0 56 -39.5 94.5t-98.5 38.5q-58 0 -97.5 -38.5t-39.5 -94.5q0 -57 39 -95t98 -38zM698 -20q-238 0 -395.5 160t-157.5 401
v893h199v-893q0 -159 100.5 -264t253.5 -105t254 105t101 264v893h198v-893q0 -241 -157.5 -401t-395.5 -160z" />
    <glyph glyph-name="uring" unicode="&#x16f;" horiz-adv-x="1191" 
d="M598 1110q-111 0 -184.5 70.5t-73.5 177.5q0 106 74 177t184 71t184 -71t74 -177q0 -107 -73.5 -177.5t-184.5 -70.5zM598 1491q-59 0 -98 -38.5t-39 -94.5q0 -57 38.5 -95t98.5 -38q59 0 98 38t39 95q0 56 -39.5 94.5t-97.5 38.5zM870 999h189v-999h-189v176
q-48 -94 -130.5 -145t-190.5 -51q-192 0 -305 120.5t-113 325.5v573h191v-550q0 -131 73.5 -210t196.5 -79q127 0 202.5 79t75.5 210v550z" />
    <glyph glyph-name="Uhungarumlaut" unicode="&#x170;" horiz-adv-x="1396" 
d="M606 1550l135 310h-194l-137 -310h196zM961 1550l135 310h-195l-135 -310h195zM698 -20q-238 0 -395.5 160t-157.5 401v893h199v-893q0 -159 100.5 -264t253.5 -105t254 105t101 264v893h198v-893q0 -241 -157.5 -401t-395.5 -160z" />
    <glyph glyph-name="uhungarumlaut" unicode="&#x171;" horiz-adv-x="1191" 
d="M639 1425l-135 -309h-195l135 309h195zM995 1425l-135 -309h-196l135 309h196zM870 999h189v-999h-189v176q-48 -94 -130.5 -145t-190.5 -51q-192 0 -305 120.5t-113 325.5v573h191v-550q0 -131 73.5 -210t196.5 -79q127 0 202.5 79t75.5 210v550z" />
    <glyph glyph-name="Uogonek" unicode="&#x172;" horiz-adv-x="1396" 
d="M1053 1434h198v-893q0 -203 -115 -352.5t-300 -192.5q-70 -25 -111 -69t-41 -97q0 -38 26.5 -62t71.5 -24q54 0 99 23l47 -125q-81 -43 -201 -43q-93 0 -151 54t-58 138q0 108 90 195q-204 31 -333.5 184.5t-129.5 370.5v893h199v-893q0 -159 100.5 -264t253.5 -105
t254 105t101 264v893z" />
    <glyph glyph-name="uogonek" unicode="&#x173;" horiz-adv-x="1191" 
d="M1087 -233l48 -125q-81 -43 -201 -43q-93 0 -151 54t-58 138q0 69 38 131.5t107 110.5v143q-48 -94 -130.5 -145t-190.5 -51q-192 0 -305 120.5t-113 325.5v573h191v-550q0 -131 73.5 -210t196.5 -79q127 0 202.5 79t75.5 210v550h189v-999h-2q-76 -24 -121 -69t-45 -101
q0 -38 26.5 -62t71.5 -24q53 0 98 23z" />
    <glyph glyph-name="Wcircumflex" unicode="&#x174;" horiz-adv-x="2080" 
d="M1040 1737l-125 -174h-167l188 297h209l190 -297h-170zM1843 1434h209l-479 -1434h-168l-363 1114l-362 -1114h-168l-481 1434h209l360 -1115l363 1115h167l359 -1117z" />
    <glyph glyph-name="wcircumflex" unicode="&#x175;" horiz-adv-x="1611" 
d="M805 1303l-125 -175h-168l188 297h209l191 -297h-170zM1378 999h203l-364 -999h-152l-260 717l-262 -717h-150l-362 999h200l240 -716l256 716h154l260 -716z" />
    <glyph glyph-name="Ycircumflex" unicode="&#x176;" horiz-adv-x="1304" 
d="M653 1737l-125 -174h-168l189 297h209l190 -297h-170zM1044 1434h232l-520 -801v-633h-199v633l-526 801h239l389 -603z" />
    <glyph glyph-name="ycircumflex" unicode="&#x177;" horiz-adv-x="1062" 
d="M547 1303l-125 -175h-168l188 297h209l191 -297h-170zM829 999h203l-571 -1364h-203l176 400l-403 964h202l297 -745z" />
    <glyph glyph-name="Ydieresis" unicode="&#x178;" horiz-adv-x="1304" 
d="M479 1817q53 0 91 -37t38 -88q0 -52 -38 -89.5t-91 -37.5q-51 0 -89 37.5t-38 89.5q0 51 38 88t89 37zM831 1817q51 0 89 -37t38 -88q0 -52 -38 -89.5t-89 -37.5q-53 0 -91 37.5t-38 89.5q0 51 38 88t91 37zM31 1434h239l389 -603l385 603h232l-520 -801v-633h-199v633z
" />
    <glyph glyph-name="Zacute" unicode="&#x179;" horiz-adv-x="1200" 
d="M897 1847l-221 -297h-176l168 297h229zM102 1434h1022v-138l-805 -1108h814v-188h-1076v139l807 1106h-762v189z" />
    <glyph glyph-name="zacute" unicode="&#x17a;" horiz-adv-x="1026" 
d="M797 1413l-222 -297h-176l168 297h230zM940 999v-139l-616 -684l618 4v-180h-883v139l619 684l-576 -4v180h838z" />
    <glyph glyph-name="Zdotaccent" unicode="&#x17b;" horiz-adv-x="1200" 
d="M604 1817q51 0 89 -37t38 -88q0 -52 -38 -89.5t-89 -37.5q-52 0 -89.5 37.5t-37.5 89.5q0 51 37.5 88t89.5 37zM102 1434h1022v-138l-805 -1108h814v-188h-1076v139l807 1106h-762v189z" />
    <glyph glyph-name="zdotaccent" unicode="&#x17c;" horiz-adv-x="1026" 
d="M504 1448q51 0 89 -38t38 -89q0 -52 -38 -89.5t-89 -37.5q-52 0 -89.5 37t-37.5 90q0 51 37.5 89t89.5 38zM940 999v-139l-616 -684l618 4v-180h-883v139l619 684l-576 -4v180h838z" />
    <glyph glyph-name="Zcaron" unicode="&#x17d;" horiz-adv-x="1200" 
d="M500 1550l-189 297h168l125 -174l125 174h170l-190 -297h-209zM319 188h814v-188h-1076v139l807 1106h-762v189h1022v-138z" />
    <glyph glyph-name="zcaron" unicode="&#x17e;" horiz-adv-x="1026" 
d="M397 1116l-188 297h168l125 -174l125 174h170l-191 -297h-209zM324 176l618 4v-180h-883v139l619 684l-576 -4v180h838v-139z" />
    <glyph glyph-name="longs" unicode="&#x17f;" horiz-adv-x="667" 
d="M592 1466q60 0 110 -12v-174q-31 8 -71 8q-201 0 -201 -190v-1098h-188v819h-195v180h195v101q0 179 94 272.5t256 93.5z" />
    <glyph glyph-name="uni0180" unicode="&#x180;" horiz-adv-x="1263" 
d="M700 1020q134 0 246 -69t177 -189t65 -262t-65 -262t-177 -189t-246 -69q-129 0 -225.5 57.5t-152.5 163.5v-201h-191v1182h-221v131h221v121h191v-121h225v-131h-225v-383q56 106 152.5 163.5t225.5 57.5zM662 160q142 0 240.5 98.5t98.5 241.5t-98.5 241.5t-240.5 98.5
q-147 0 -243.5 -96.5t-96.5 -243.5t96.5 -243.5t243.5 -96.5z" />
    <glyph glyph-name="florin" unicode="&#x192;" horiz-adv-x="753" 
d="M434 1098v-99h273v-180h-273v-837q0 -179 -93.5 -273t-256.5 -94q-57 0 -109 10v174q27 -8 72 -8q199 0 199 193v835h-195v180h195v101q0 179 94 272.5t256 93.5q62 0 111 -12v-174q-31 8 -72 8q-201 0 -201 -190z" />
    <glyph glyph-name="uni01EA" unicode="&#x1ea;" horiz-adv-x="1634" 
d="M948 -8q-66 -27 -102.5 -68.5t-36.5 -93.5q0 -38 26.5 -62t71.5 -24q54 0 99 23l47 -125q-81 -43 -201 -43q-93 0 -151 54t-58 138q0 105 88 193q-183 21 -328.5 122t-228 262t-82.5 353q0 204 94.5 372t261 264.5t369.5 96.5q151 0 285.5 -56.5t231 -154t152.5 -233.5
t56 -289q0 -278 -167 -481t-427 -248zM295 721q0 -233 150.5 -392t371.5 -159t371.5 159t150.5 392q0 150 -68.5 275t-188.5 196.5t-265 71.5t-265 -71.5t-188.5 -196.5t-68.5 -275z" />
    <glyph glyph-name="uni01EB" unicode="&#x1eb;" horiz-adv-x="1187" 
d="M729 -4q-72 -24 -114 -67.5t-42 -98.5q0 -37 27 -61.5t72 -24.5q53 0 98 23l47 -125q-81 -43 -201 -43q-93 0 -150.5 54t-57.5 138q0 110 90 197q-183 33 -301.5 175t-118.5 335q0 221 149 371.5t367 150.5q143 0 261 -68.5t186.5 -188.5t68.5 -265q0 -182 -106.5 -319.5
t-274.5 -182.5zM262 498q0 -143 95.5 -240.5t236.5 -97.5q140 0 236 98t96 240q0 146 -96 244t-236 98q-141 0 -236.5 -98t-95.5 -244z" />
    <glyph glyph-name="Aringacute" unicode="&#x1fa;" horiz-adv-x="1361" 
d="M682 1544q-111 0 -184.5 70.5t-73.5 177.5q0 80 44.5 142t117.5 89l162 285h229l-209 -280q78 -25 126 -89t48 -147q0 -107 -74.5 -177.5t-185.5 -70.5zM682 1925q-58 0 -97.5 -38.5t-39.5 -94.5q0 -57 39 -95t98 -38q60 0 98.5 38t38.5 95q0 56 -39 94.5t-98 38.5z
M1124 0l-125 317h-643l-125 -317h-208l571 1434h170l575 -1434h-215zM432 506h494l-246 629z" />
    <glyph glyph-name="aringacute" unicode="&#x1fb;" horiz-adv-x="1263" 
d="M688 1110q-109 0 -182.5 70.5t-73.5 177.5q0 80 43.5 141.5t116.5 89.5l162 285h229l-209 -281q79 -25 126.5 -88t47.5 -147q0 -107 -74 -177.5t-186 -70.5zM688 1491q-58 0 -96.5 -38.5t-38.5 -94.5q0 -57 38.5 -95t96.5 -38q60 0 99.5 38t39.5 95q0 56 -39.5 94.5
t-99.5 38.5zM944 999h189v-999h-189v205q-56 -109 -153 -167t-228 -58q-202 0 -343.5 151.5t-141.5 368.5t141.5 368.5t343.5 151.5q131 0 228 -58t153 -167v204zM602 160q148 0 245 96t97 244t-97 244t-245 96q-142 0 -241 -99t-99 -241t99 -241t241 -99z" />
    <glyph glyph-name="AEacute" unicode="&#x1fc;" horiz-adv-x="1898" 
d="M1602 1847l-222 -297h-176l168 297h230zM1796 1245h-620v-393h553v-188h-553v-476h620v-188h-817v356h-524l-207 -356h-225l856 1434h917v-189zM557 532h422v725z" />
    <glyph glyph-name="aeacute" unicode="&#x1fd;" horiz-adv-x="2064" 
d="M1327 1413l-221 -297h-176l168 297h229zM1987 543q0 -5 -5 -68h-808q10 -152 105.5 -243t238.5 -91q96 0 176.5 40.5t117.5 107.5l148 -90q-53 -97 -172.5 -158t-257.5 -61q-130 0 -233.5 59t-163.5 168v-207h-189v205q-56 -109 -153 -167t-228 -58q-202 0 -343.5 151.5
t-141.5 368.5t141.5 368.5t343.5 151.5q131 0 228 -58t153 -167v204h189v-200q60 106 162.5 163.5t232.5 57.5q126 0 231.5 -63.5t166.5 -173t61 -240.5zM1180 598h620q-9 114 -94.5 190t-204.5 76q-126 0 -211 -72t-110 -194zM602 160q148 0 245 96t97 244t-97 244t-245 96
q-142 0 -241 -99t-99 -241t99 -241t241 -99z" />
    <glyph glyph-name="uni0218" unicode="&#x218;" horiz-adv-x="1218" 
d="M623 -20q-227 0 -376 134.5t-149 338.5h195q0 -127 92.5 -207t237.5 -80q136 0 223.5 64.5t87.5 166.5q0 59 -28 102.5t-75 70t-108 46.5t-129 37t-135.5 36t-128.5 48.5t-108 69.5t-75 105t-28 149q0 171 135.5 282t341.5 111q229 0 359 -123.5t130 -308.5h-202
q-3 107 -84 176.5t-209 69.5q-123 0 -201 -57.5t-78 -149.5q0 -53 28 -92.5t75.5 -63t109 -41.5t129.5 -34.5t135.5 -36t129 -51t109 -74.5t75.5 -112.5t28 -158.5q0 -181 -144 -299t-363 -118zM770 -145l-223 -297h-176l170 297h229z" />
    <glyph glyph-name="uni0219" unicode="&#x219;" horiz-adv-x="948" 
d="M481 -20q-176 0 -290.5 88t-129.5 239h181q9 -74 72.5 -119t158.5 -45q93 0 149 39.5t56 102.5q0 50 -33 82t-85 47.5t-115.5 27.5t-127 28.5t-115.5 43.5t-85 80.5t-33 130.5q0 129 101 212t266 83q155 0 266 -80.5t129 -220.5h-191q-9 61 -66.5 101t-142.5 40
q-79 0 -128.5 -33t-49.5 -88q0 -48 33 -77.5t85 -43.5t115.5 -25t127 -28.5t115.5 -46.5t85 -87t33 -142q0 -133 -109 -221t-272 -88zM610 -145l-221 -297h-176l168 297h229z" />
    <glyph glyph-name="uni021A" unicode="&#x21a;" horiz-adv-x="1218" 
d="M1163 1434v-189h-454v-1245h-199v1245h-455v189h1108zM369 -442l170 297h229l-223 -297h-176z" />
    <glyph glyph-name="uni021B" unicode="&#x21b;" horiz-adv-x="743" 
d="M680 819h-270v-461q0 -192 200 -192q43 0 70 8v-174q-46 -12 -109 -12q-162 0 -256 93.5t-94 272.5v465h-194v180h194v271h189v-271h270v-180zM231 -442l170 297h230l-223 -297h-177z" />
    <glyph glyph-name="uni0237" unicode="&#x237;" horiz-adv-x="452" 
d="M-25 -231q8 -2 27 -2q129 0 129 182v1050h191v-1067q0 -164 -79 -252t-223 -88q-7 0 -22 1t-23 1v175z" />
    <glyph glyph-name="uni0243" unicode="&#x243;" horiz-adv-x="1208" 
d="M842 758q130 -17 216.5 -119.5t86.5 -239.5q0 -168 -124.5 -283.5t-303.5 -115.5h-572v350h-219v131h219v953h510q174 0 296 -107.5t122 -257.5q0 -110 -65.5 -199t-165.5 -112zM342 1245v-422h307q94 0 159.5 63t65.5 154q0 86 -65.5 145.5t-159.5 59.5h-307zM705 188
q103 0 171 68.5t68 169.5q0 98 -69 167t-168 69h-365v-181h221v-131h-221v-162h363z" />
    <glyph glyph-name="circumflex" unicode="&#x2c6;" horiz-adv-x="792" 
d="M690 1128h-168l-125 175l-125 -175h-170l191 297h209z" />
    <glyph glyph-name="caron" unicode="&#x2c7;" horiz-adv-x="792" 
d="M522 1413h168l-188 -297h-209l-191 297h170l125 -174z" />
    <glyph glyph-name="breve" unicode="&#x2d8;" horiz-adv-x="829" 
d="M727 1419q0 -141 -88 -228t-223 -87q-136 0 -224.5 87t-89.5 228h146q1 -83 48.5 -134.5t119.5 -51.5q71 0 118 51.5t48 134.5h145z" />
    <glyph glyph-name="dotaccent" unicode="&#x2d9;" horiz-adv-x="460" 
d="M229 1448q52 0 90.5 -38t38.5 -89q0 -52 -38 -89.5t-91 -37.5t-90 37t-37 90q0 51 37.5 89t89.5 38z" />
    <glyph glyph-name="ring" unicode="&#x2da;" horiz-adv-x="720" 
d="M360 1110q-111 0 -184.5 70.5t-73.5 177.5q0 106 74 177t184 71t184 -71t74 -177q0 -107 -73.5 -177.5t-184.5 -70.5zM360 1225q59 0 98.5 38t39.5 95q0 56 -40 94.5t-98 38.5t-97.5 -38.5t-39.5 -94.5q0 -57 39 -95t98 -38z" />
    <glyph glyph-name="ogonek" unicode="&#x2db;" horiz-adv-x="616" 
d="M434 117v-117q-76 -24 -121 -69t-45 -101q0 -37 27 -61.5t72 -24.5q53 0 98 23l49 -125q-84 -43 -203 -43q-93 0 -151 54t-58 138q0 109 91.5 197.5t240.5 128.5z" />
    <glyph glyph-name="tilde" unicode="&#x2dc;" horiz-adv-x="958" 
d="M102 1155q9 111 71.5 179.5t150.5 68.5q54 0 111.5 -29.5t104 -58.5t74.5 -29q37 0 61.5 31t24.5 80l156 -25q-10 -109 -74 -178.5t-151 -69.5q-44 0 -89.5 18.5t-77 40t-66.5 40t-60 18.5q-37 0 -59 -31t-21 -82z" />
    <glyph glyph-name="hungarumlaut" unicode="&#x2dd;" horiz-adv-x="890" 
d="M297 1116l135 309h-194l-136 -309h195zM653 1116l135 309h-196l-135 -309h196z" />
    <glyph glyph-name="gravecomb" unicode="&#x300;" horiz-adv-x="0" 
d="M-889 1413h232l168 -297h-177z" />
    <glyph glyph-name="acutecomb" unicode="&#x301;" horiz-adv-x="0" 
d="M-336 1413l-221 -297h-176l168 297h229z" />
    <glyph glyph-name="uni0302" unicode="&#x302;" horiz-adv-x="0" 
d="M-100 1128h-170l-125 175l-125 -175h-168l188 297h209z" />
    <glyph glyph-name="tildecomb" unicode="&#x303;" horiz-adv-x="0" 
d="M-991 1155q7 111 70 179.5t151 68.5q54 0 111.5 -29.5t104.5 -58.5t75 -29q37 0 61.5 31t24.5 80l153 -25q-9 -109 -72.5 -178.5t-150.5 -69.5q-44 0 -89.5 18.5t-77 40t-66.5 40t-60 18.5q-37 0 -59 -31t-21 -82z" />
    <glyph glyph-name="uni0304" unicode="&#x304;" horiz-adv-x="0" 
d="M-940 1139v153h655v-153h-655z" />
    <glyph glyph-name="uni0306" unicode="&#x306;" horiz-adv-x="0" 
d="M-272 1419q0 -141 -88.5 -228t-223.5 -87q-136 0 -224 87t-89 228h145q1 -83 48.5 -134.5t119.5 -51.5q71 0 118 51.5t48 134.5h146z" />
    <glyph glyph-name="uni0307" unicode="&#x307;" horiz-adv-x="0" 
d="M-535 1448q51 0 89 -38t38 -89q0 -52 -38 -89.5t-89 -37.5q-53 0 -90 37t-37 90q0 51 37.5 89t89.5 38z" />
    <glyph glyph-name="uni0308" unicode="&#x308;" horiz-adv-x="0" 
d="M-752 1448q52 0 90.5 -38t38.5 -89q0 -52 -38 -89.5t-91 -37.5q-51 0 -89 37.5t-38 89.5q0 51 38 89t89 38zM-399 1448q51 0 89 -38t38 -89q0 -52 -38 -89.5t-89 -37.5q-53 0 -91 37.5t-38 89.5q0 51 38.5 89t90.5 38z" />
    <glyph glyph-name="uni030A" unicode="&#x30a;" horiz-adv-x="0" 
d="M-582 1110q-111 0 -184.5 70.5t-73.5 177.5q0 106 74 177t184 71t185 -71t75 -177q0 -107 -74.5 -177.5t-185.5 -70.5zM-582 1225q60 0 99 38t39 95q0 56 -39.5 94.5t-98.5 38.5q-58 0 -97.5 -38.5t-39.5 -94.5q0 -57 39 -95t98 -38z" />
    <glyph glyph-name="uni030B" unicode="&#x30b;" horiz-adv-x="0" 
d="M-707 1116l136 309h-195l-137 -309h196zM-352 1116l135 309h-195l-135 -309h195z" />
    <glyph glyph-name="uni030C" unicode="&#x30c;" horiz-adv-x="0" 
d="M-422 1413h170l-190 -297h-209l-189 297h168l125 -174z" />
    <glyph glyph-name="uni0312" unicode="&#x312;" horiz-adv-x="0" 
d="M-383 1124l221 299h178l-170 -299h-229z" />
    <glyph glyph-name="uni0326" unicode="&#x326;" horiz-adv-x="0" 
d="M-104 -145l-224 -297h-176l170 297h230z" />
    <glyph glyph-name="uni0327" unicode="&#x327;" horiz-adv-x="0" 
d="M-358 37h145q74 -68 108.5 -140t26.5 -133t-45 -109t-106.5 -73.5t-155.5 -21.5l-45 137q122 5 173 55.5t23.5 127.5t-124.5 157z" />
    <glyph glyph-name="uni0328" unicode="&#x328;" horiz-adv-x="0" 
d="M-496 117v-117q-76 -24 -121 -69t-45 -101q0 -37 27 -61.5t72 -24.5q53 0 98 23l47 -125q-81 -43 -200 -43q-93 0 -151 54t-58 138q0 109 91 197.5t240 128.5z" />
    <glyph glyph-name="uni0394" unicode="&#x394;" horiz-adv-x="1226" 
d="M23 0v188l505 1248h170l506 -1248v-188h-1181zM231 188h764l-381 967z" />
    <glyph glyph-name="uni0394" unicode="&#x3b4;" horiz-adv-x="1226" 
d="M23 0v188l505 1248h170l506 -1248v-188h-1181zM231 188h764l-381 967z" />
    <glyph glyph-name="uni03A9" unicode="&#x3a9;" horiz-adv-x="1593" 
d="M139 0v188h293q-163 93 -247.5 239.5t-84.5 332.5q0 150 53.5 279.5t146 220t221.5 142.5t276 52q146 0 274.5 -52t220 -142.5t144.5 -220t53 -279.5q0 -189 -83.5 -334.5t-246.5 -237.5h293v-188h-530v188q180 96 273 240.5t93 321.5q0 231 -137.5 372.5t-353.5 141.5
q-217 0 -354.5 -141.5t-137.5 -372.5q0 -175 93.5 -320.5t273.5 -241.5v-188h-533z" />
    <glyph glyph-name="uni03A9" unicode="&#x3c9;" horiz-adv-x="1593" 
d="M139 0v188h293q-163 93 -247.5 239.5t-84.5 332.5q0 150 53.5 279.5t146 220t221.5 142.5t276 52q146 0 274.5 -52t220 -142.5t144.5 -220t53 -279.5q0 -189 -83.5 -334.5t-246.5 -237.5h293v-188h-530v188q180 96 273 240.5t93 321.5q0 231 -137.5 372.5t-353.5 141.5
q-217 0 -354.5 -141.5t-137.5 -372.5q0 -175 93.5 -320.5t273.5 -241.5v-188h-533z" />
    <glyph glyph-name="uni03BC" unicode="&#x3bc;" horiz-adv-x="1191" 
d="M870 999h189v-999h-189v176q-48 -94 -130.5 -145t-190.5 -51q-130 0 -227 57v-402h-191v1364h191v-550q0 -131 73.5 -210t196.5 -79q127 0 202.5 79t75.5 210v550z" />
    <glyph glyph-name="pi" unicode="&#x3c0;" horiz-adv-x="1435" 
d="M1370 819h-280v-461q0 -192 198 -192q41 0 72 8v-174q-46 -12 -111 -12q-162 0 -256 93.5t-94 272.5v465h-354v-819h-189v819h-278v180h1292v-180z" />
    <glyph glyph-name="uni0E3F" unicode="&#xe3f;" horiz-adv-x="1243" 
d="M840 758q130 -17 216.5 -119.5t86.5 -239.5q0 -168 -124.5 -283.5t-303.5 -115.5h-66v-246h-180v246h-326v1434h326v245h180v-245h4q174 0 296 -107.5t122 -257.5q0 -110 -66 -199t-165 -112zM340 1245v-422h307q94 0 159.5 63t65.5 154q0 86 -65.5 145.5t-159.5 59.5
h-307zM702 188q102 0 171 69t69 169q0 98 -69 167t-168 69h-365v-474h362z" />
    <glyph glyph-name="Wgrave" unicode="&#x1e80;" horiz-adv-x="2080" 
d="M745 1847h232l168 -297h-176zM1843 1434h209l-479 -1434h-168l-363 1114l-362 -1114h-168l-481 1434h209l360 -1115l363 1115h167l359 -1117z" />
    <glyph glyph-name="wgrave" unicode="&#x1e81;" horiz-adv-x="1611" 
d="M510 1413h231l168 -297h-176zM393 0l-362 999h200l240 -716l256 716h154l260 -716l237 716h203l-364 -999h-152l-260 717l-262 -717h-150z" />
    <glyph glyph-name="Wacute" unicode="&#x1e82;" horiz-adv-x="2080" 
d="M1335 1847l-221 -297h-176l168 297h229zM1843 1434h209l-479 -1434h-168l-363 1114l-362 -1114h-168l-481 1434h209l360 -1115l363 1115h167l359 -1117z" />
    <glyph glyph-name="wacute" unicode="&#x1e83;" horiz-adv-x="1611" 
d="M1100 1413l-221 -297h-177l168 297h230zM393 0l-362 999h200l240 -716l256 716h154l260 -716l237 716h203l-364 -999h-152l-260 717l-262 -717h-150z" />
    <glyph glyph-name="Wdieresis" unicode="&#x1e84;" horiz-adv-x="2080" 
d="M864 1817q53 0 91 -37t38 -88q0 -52 -38 -89.5t-91 -37.5q-51 0 -89 37.5t-38 89.5q0 51 38 88t89 37zM1217 1817q51 0 88.5 -37t37.5 -88q0 -52 -37.5 -89.5t-88.5 -37.5q-53 0 -91.5 37.5t-38.5 89.5q0 51 38.5 88t91.5 37zM1843 1434h209l-479 -1434h-168l-363 1114
l-362 -1114h-168l-481 1434h209l360 -1115l363 1115h167l359 -1117z" />
    <glyph glyph-name="wdieresis" unicode="&#x1e85;" horiz-adv-x="1611" 
d="M631 1448q52 0 90.5 -38t38.5 -89q0 -52 -38 -89.5t-91 -37.5q-51 0 -89 37.5t-38 89.5q0 51 38 89t89 38zM983 1448q51 0 89 -38t38 -89q0 -52 -38 -89.5t-89 -37.5q-53 0 -91 37.5t-38 89.5q0 51 38.5 89t90.5 38zM393 0l-362 999h200l240 -716l256 716h154l260 -716
l237 716h203l-364 -999h-152l-260 717l-262 -717h-150z" />
    <glyph glyph-name="uni1E9E" unicode="&#x1e9e;" horiz-adv-x="1249" 
d="M631 1454q193 0 331.5 -109t157.5 -272l-307 -287q170 -9 271.5 -108.5t101.5 -253.5q0 -114 -58.5 -212t-158 -155t-215.5 -57h-275v188h273q98 0 165.5 67.5t67.5 164.5q0 106 -65 168.5t-175 62.5h-165l-9 129l328 314q-22 73 -94 121.5t-166 48.5q-129 0 -212 -91.5
t-83 -234.5v-938h-199v938q0 229 135 372.5t351 143.5z" />
    <glyph glyph-name="Ygrave" unicode="&#x1ef2;" horiz-adv-x="1304" 
d="M358 1847h232l168 -297h-176zM31 1434h239l389 -603l385 603h232l-520 -801v-633h-199v633z" />
    <glyph glyph-name="ygrave" unicode="&#x1ef3;" horiz-adv-x="1062" 
d="M651 1116h-176l-223 297h231zM829 999h203l-571 -1364h-203l176 400l-403 964h202l297 -745z" />
    <glyph glyph-name="uni2009" unicode="&#x2009;" horiz-adv-x="368" 
 />
    <glyph glyph-name="endash" unicode="&#x2013;" horiz-adv-x="1179" 
d="M102 440v176h975v-176h-975z" />
    <glyph glyph-name="emdash" unicode="&#x2014;" horiz-adv-x="2252" 
d="M102 440v176h2048v-176h-2048z" />
    <glyph glyph-name="quoteleft" unicode="&#x2018;" horiz-adv-x="481" 
d="M102 1182q0 32 37 108l135 271h109l-98 -258q37 -13 58.5 -46.5t21.5 -74.5q0 -55 -38 -93t-94 -38q-55 0 -93 37.5t-38 93.5z" />
    <glyph glyph-name="quoteright" unicode="&#x2019;" horiz-adv-x="481" 
d="M379 1430q0 -35 -37 -111l-135 -268h-109l99 258q-37 14 -58.5 46t-21.5 75q0 56 37.5 93.5t93.5 37.5t93.5 -37.5t37.5 -93.5z" />
    <glyph glyph-name="quotesinglbase" unicode="&#x201a;" horiz-adv-x="481" 
d="M379 145q0 -32 -37 -108l-135 -268h-109l99 256q-37 15 -58.5 47t-21.5 73q0 57 37.5 94t93.5 37t93.5 -37t37.5 -94z" />
    <glyph glyph-name="quotedblleft" unicode="&#x201c;" horiz-adv-x="835" 
d="M102 1182q0 32 37 108l135 271h109l-98 -258q37 -13 58.5 -46.5t21.5 -74.5q0 -55 -38 -93t-94 -38q-55 0 -93 37.5t-38 93.5zM457 1182q0 32 37 108l135 271h108l-96 -258q35 -14 56.5 -47t21.5 -74q0 -56 -37 -93.5t-94 -37.5q-56 0 -93.5 37.5t-37.5 93.5z" />
    <glyph glyph-name="quotedblright" unicode="&#x201d;" horiz-adv-x="835" 
d="M379 1430q0 -35 -37 -111l-135 -268h-109l99 258q-37 14 -58.5 46t-21.5 75q0 56 37.5 93.5t93.5 37.5t93.5 -37.5t37.5 -93.5zM733 1430q0 -41 -37 -111l-135 -268h-106l96 258q-36 14 -58 46.5t-22 74.5q0 56 37.5 93.5t93.5 37.5t93.5 -37.5t37.5 -93.5z" />
    <glyph glyph-name="quotedblbase" unicode="&#x201e;" horiz-adv-x="835" 
d="M379 145q0 -32 -37 -108l-135 -268h-109l99 256q-37 15 -58.5 47t-21.5 73q0 57 37.5 94t93.5 37t93.5 -37t37.5 -94zM733 145q0 -38 -37 -108l-135 -268h-106l96 256q-36 15 -58 47.5t-22 72.5q0 57 37.5 94t93.5 37t93.5 -37t37.5 -94z" />
    <glyph glyph-name="dagger" unicode="&#x2020;" horiz-adv-x="933" 
d="M831 1141v-162h-278v-567h-172v567h-279v162h279v334h172v-334h278z" />
    <glyph glyph-name="daggerdbl" unicode="&#x2021;" horiz-adv-x="946" 
d="M831 979h-278v-483h278v-162h-278v-334h-172v334h-279v162h279v483h-279v162h279v334h172v-334h278v-162z" />
    <glyph glyph-name="bullet" unicode="&#x2022;" horiz-adv-x="675" 
d="M336 254q-104 0 -175 71t-71 177t71 177t175 71q106 0 178 -71t72 -177t-72 -177t-178 -71z" />
    <glyph glyph-name="ellipsis" unicode="&#x2026;" horiz-adv-x="1310" 
d="M254 -20q-60 0 -99.5 39t-39.5 98q0 57 39.5 97t99.5 40q58 0 98.5 -40t40.5 -97q0 -58 -40 -97.5t-99 -39.5zM666 -20q-59 0 -99.5 39.5t-40.5 97.5q0 57 41 97t99 40t98.5 -40t40.5 -97q0 -58 -40 -97.5t-99 -39.5zM1057 -20q-60 0 -99.5 39t-39.5 98q0 57 40 97t99 40
q58 0 98.5 -40t40.5 -97q0 -58 -40 -97.5t-99 -39.5z" />
    <glyph glyph-name="perthousand" unicode="&#x2030;" horiz-adv-x="2136" 
d="M698 1157q0 -129 -79.5 -214t-202.5 -85t-204 85t-81 214t81 213t204 84t202.5 -84t79.5 -213zM1145 1434h155l-952 -1434h-155zM569 1157q0 77 -42 125.5t-111 48.5q-70 0 -113 -48.5t-43 -125.5t43 -126.5t113 -49.5q68 0 110.5 49.5t42.5 126.5zM1360 279
q0 -129 -80 -214t-203 -85t-202.5 85t-79.5 214t79.5 212.5t202.5 83.5t203 -83.5t80 -212.5zM2005 279q0 -129 -80.5 -214t-204.5 -85q-122 0 -202 85t-80 214t80 212.5t202 83.5q124 0 204.5 -83.5t80.5 -212.5zM1231 279q0 77 -42 126.5t-112 49.5t-111.5 -49t-41.5 -127
t42 -127.5t111 -49.5q70 0 112 49.5t42 127.5zM1876 279q0 77 -43 126.5t-113 49.5q-68 0 -110.5 -49.5t-42.5 -126.5t42.5 -127t110.5 -50q70 0 113 50t43 127z" />
    <glyph glyph-name="guilsinglleft" unicode="&#x2039;" horiz-adv-x="765" 
d="M664 74l-568 418v129l568 419v-198l-394 -285l394 -283v-200z" />
    <glyph glyph-name="guilsinglright" unicode="&#x203a;" horiz-adv-x="778" 
d="M115 74v200l393 283l-393 285v198l567 -419v-129z" />
    <glyph glyph-name="fraction" unicode="&#x2044;" horiz-adv-x="487" 
d="M643 1434h154l-953 -1434h-153z" />
    <glyph glyph-name="Euro" unicode="&#x20ac;" horiz-adv-x="1734" 
d="M1423 494h219q-44 -229 -227 -371.5t-432 -142.5q-187 0 -343 85.5t-253 236t-115 339.5h-217v162h217q18 185 115 333.5t253.5 233t342.5 84.5q160 0 301 -63t235 -177t119 -256h-217q-38 136 -159.5 221t-278.5 85q-195 0 -338.5 -131t-169.5 -330h653l-51 -162h-604
q26 -205 169.5 -338t340.5 -133q159 0 282 90.5t158 233.5z" />
    <glyph glyph-name="uni20BD" unicode="&#x20bd;" horiz-adv-x="1335" 
d="M825 580h-352v-193h406v-160h-406v-227h-199v227h-219v160h219v193h-219v188h219v666h551q189 0 315 -121.5t126 -304.5t-126 -305.5t-315 -122.5zM473 1245v-477h352q103 0 172.5 69.5t69.5 170.5t-69.5 169t-172.5 68h-352z" />
    <glyph glyph-name="uni2116" unicode="&#x2116;" horiz-adv-x="2668" 
d="M2001 1452q144 0 262.5 -68t187 -187.5t68.5 -264.5t-68.5 -264.5t-187 -187.5t-262.5 -68q-143 0 -261.5 68t-186.5 187.5t-68 264.5t68 264.5t186.5 187.5t261.5 68zM145 1434h179l741 -1061v1061h197v-1434h-175l-743 1059v-1059h-199v1434zM2001 1272
q-140 0 -235 -97.5t-95 -242.5q0 -143 95.5 -241.5t234.5 -98.5t235.5 98.5t96.5 241.5q0 144 -96 242t-236 98zM2464 174v-176h-926v176h926z" />
    <glyph glyph-name="uni2117" unicode="&#x2117;" horiz-adv-x="1624" 
d="M827 1454q150 0 287 -58.5t236.5 -157.5t158 -235t58.5 -286t-58.5 -286t-158 -235t-236.5 -157.5t-287 -58.5q-198 0 -367.5 99t-268.5 268.5t-99 369.5t99 369.5t268.5 268.5t367.5 99zM829 66q131 0 251 52t207 139t138.5 207.5t51.5 252.5t-51.5 252.5t-138.5 207.5
t-207 139t-251 52q-175 0 -324.5 -87.5t-237 -237.5t-87.5 -326t87.5 -326t237 -237.5t324.5 -87.5zM913 1133q110 0 184 -71t74 -177t-74 -177t-184 -71h-196v-330h-119v826h315zM913 752q58 0 98 38.5t40 94.5q0 57 -39.5 95t-98.5 38h-196v-266h196z" />
    <glyph glyph-name="trademark" unicode="&#x2122;" horiz-adv-x="1802" 
d="M700 1434v-123h-268v-738h-131v738h-268v123h667zM1585 1434h133v-861h-129v605l-272 -605h-94l-267 605v-605h-129v861h154l299 -670z" />
    <glyph glyph-name="uni2126" unicode="&#x2126;" horiz-adv-x="1593" 
d="M139 0v188h293q-163 93 -247.5 239.5t-84.5 332.5q0 150 53.5 279.5t146 220t221.5 142.5t276 52q146 0 274.5 -52t220 -142.5t144.5 -220t53 -279.5q0 -189 -83.5 -334.5t-246.5 -237.5h293v-188h-530v188q180 96 273 240.5t93 321.5q0 231 -137.5 372.5t-353.5 141.5
q-217 0 -354.5 -141.5t-137.5 -372.5q0 -175 93.5 -320.5t273.5 -241.5v-188h-533z" />
    <glyph glyph-name="oneeighth" unicode="&#x215b;" horiz-adv-x="1683" 
d="M375 1434v-861h-127v682l-197 -159v155l236 183h88zM1194 1434h154l-953 -1434h-153zM1354 -10q-126 0 -208.5 72t-82.5 182q0 71 43.5 132t116.5 87q-56 23 -91.5 73.5t-35.5 108.5q0 98 72.5 161.5t185.5 63.5q114 0 186 -63t72 -162q0 -57 -34 -107.5t-93 -74.5
q72 -23 117 -84t45 -135q0 -109 -83 -181.5t-210 -72.5zM1354 516q63 0 102 34t39 87q0 54 -39.5 88.5t-101.5 34.5q-60 0 -100 -34.5t-40 -88.5q0 -52 40 -86.5t100 -34.5zM1354 104q74 0 122 42t48 108t-48 107.5t-122 41.5q-73 0 -120.5 -41.5t-47.5 -107.5t48 -108
t120 -42z" />
    <glyph glyph-name="threeeighths" unicode="&#x215c;" horiz-adv-x="1798" 
d="M217 1073l217 238h-387v123h569v-88l-241 -256q105 4 176.5 -66.5t71.5 -175.5q0 -126 -85 -206.5t-216 -80.5q-121 0 -204.5 68.5t-94.5 175.5h129q11 -52 57 -85.5t113 -33.5q73 0 120 47t47 119q0 88 -80.5 126.5t-191.5 8.5v86zM1311 1434h153l-952 -1434h-154z
M1470 -10q-126 0 -209 72t-83 182q0 72 43.5 132.5t117.5 86.5q-56 23 -91.5 73.5t-35.5 108.5q0 98 72.5 161.5t185.5 63.5t186 -63.5t73 -161.5q0 -56 -34.5 -107t-92.5 -75q70 -23 114.5 -84t44.5 -135q0 -109 -82.5 -181.5t-208.5 -72.5zM1470 516q61 0 100.5 34
t39.5 87q0 54 -39.5 88.5t-100.5 34.5t-100 -34.5t-39 -88.5q0 -53 39 -87t100 -34zM1470 104q72 0 120 42t48 108t-47.5 107.5t-120.5 41.5q-74 0 -122 -41.5t-48 -107.5t48 -108t122 -42z" />
    <glyph glyph-name="fiveeighths" unicode="&#x215d;" horiz-adv-x="1798" 
d="M319 561q-119 0 -203 66t-93 178h129q12 -54 57.5 -86.5t109.5 -32.5q69 0 117.5 48t48.5 116q0 72 -48.5 120t-117.5 48q-96 0 -145 -55h-113l41 471h461v-121h-346l-22 -232q54 45 141 45q122 0 201 -76t79 -202q0 -120 -87 -203.5t-210 -83.5zM1292 1434h154
l-952 -1434h-154zM1468 -10q-126 0 -208 72t-82 182q0 72 42.5 132.5t116.5 86.5q-56 23 -91.5 73.5t-35.5 108.5q0 98 72.5 161.5t185.5 63.5t185.5 -63.5t72.5 -161.5q0 -56 -34.5 -107t-92.5 -75q71 -23 115.5 -84.5t44.5 -134.5q0 -109 -82 -181.5t-209 -72.5zM1468 516
q61 0 100.5 34t39.5 87q0 54 -39.5 88.5t-100.5 34.5t-100 -34.5t-39 -88.5q0 -53 39 -87t100 -34zM1468 104q72 0 120 42t48 108t-47.5 107.5t-120.5 41.5q-74 0 -122 -41.5t-48 -107.5t48 -108t122 -42z" />
    <glyph glyph-name="seveneighths" unicode="&#x215e;" horiz-adv-x="1599" 
d="M18 1434h580v-91l-369 -770h-143l354 736h-422v125zM1110 1434h154l-953 -1434h-153zM1272 -10q-126 0 -209.5 72t-83.5 182q0 72 44 132.5t118 86.5q-56 23 -91.5 73.5t-35.5 108.5q0 98 72.5 161.5t185.5 63.5t185.5 -63.5t72.5 -161.5q0 -56 -34.5 -107t-92.5 -75
q71 -23 115.5 -84.5t44.5 -134.5q0 -109 -82.5 -181.5t-208.5 -72.5zM1272 516q61 0 100 34t39 87q0 54 -39 88.5t-100 34.5t-100 -34.5t-39 -88.5q0 -53 39 -87t100 -34zM1272 104q72 0 120 42t48 108t-47.5 107.5t-120.5 41.5q-74 0 -122 -41.5t-48 -107.5t48 -108
t122 -42z" />
    <glyph glyph-name="arrowleft" unicode="&#x2190;" horiz-adv-x="1576" 
d="M1475 727v-168h-1053l428 -416l-123 -120l-625 620l625 623l123 -121l-428 -418h1053z" />
    <glyph glyph-name="arrowup" unicode="&#x2191;" horiz-adv-x="1449" 
d="M1348 748l-123 -121l-414 424v-1051h-170v1053l-418 -426l-121 121l623 624z" />
    <glyph glyph-name="arrowright" unicode="&#x2192;" horiz-adv-x="1576" 
d="M850 1266l625 -623l-625 -620l-121 120l426 416h-1053v168h1053l-426 418z" />
    <glyph glyph-name="arrowdown" unicode="&#x2193;" horiz-adv-x="1449" 
d="M1225 725l123 -123l-625 -625l-621 625l121 123l416 -428v1053h170v-1051z" />
    <glyph glyph-name="uni2196" unicode="&#x2196;" horiz-adv-x="1234" 
d="M1133 197l-119 -119l-746 745l8 -596h-172l-2 881l883 -2v-172l-596 6z" />
    <glyph glyph-name="uni2197" unicode="&#x2197;" horiz-adv-x="1234" 
d="M250 1106h880l-2 -881h-172l9 594l-744 -743l-119 121l744 743l-596 -6v172z" />
    <glyph glyph-name="uni2198" unicode="&#x2198;" horiz-adv-x="1234" 
d="M250 0v172l594 -6l-742 743l119 119l744 -743l-9 594h172l2 -881z" />
    <glyph glyph-name="uni2199" unicode="&#x2199;" horiz-adv-x="1234" 
d="M1133 909l-744 -743l596 6v-172l-883 -2l2 881h172l-8 -596l746 745z" />
    <glyph glyph-name="partialdiff" unicode="&#x2202;" horiz-adv-x="1179" 
d="M952 817q57 -92 88 -185.5t31 -168.5q0 -131 -66 -242t-179.5 -176t-247.5 -65q-133 0 -246 65t-178.5 176t-65.5 242q0 201 132 336t327 135q64 0 135 -31l-338 531h225zM578 168q128 0 214.5 85.5t86.5 211.5t-86.5 212.5t-212.5 86.5t-215 -86.5t-89 -212.5t88 -211.5
t214 -85.5z" />
    <glyph glyph-name="emptyset" unicode="&#x2205;" horiz-adv-x="1593" 
d="M1462 1245l-200 -201q98 -148 98 -323q0 -153 -74.5 -282t-203 -204t-281.5 -75q-182 0 -324 102l-203 -203l-143 142l203 202q-101 144 -101 318q0 153 76.5 283t207.5 206t284 76q172 0 317 -98l201 198zM418 721q0 -97 49 -184l518 516q-84 49 -184 49
q-157 0 -270 -112t-113 -269zM1176 721q0 98 -50 190l-516 -516q88 -51 191 -51q157 0 266 109.5t109 267.5z" />
    <glyph glyph-name="uni2206" unicode="&#x2206;" horiz-adv-x="1226" 
d="M23 0v188l505 1248h170l506 -1248v-188h-1181zM231 188h764l-381 967z" />
    <glyph glyph-name="product" unicode="&#x220f;" horiz-adv-x="1351" 
d="M1249 1434v-1434h-198v1245h-750v-1245h-199v1434h1147z" />
    <glyph glyph-name="summation" unicode="&#x2211;" horiz-adv-x="1228" 
d="M1126 1434v-189h-764l386 -528l-386 -529h764v-188h-1024v152l414 565l-414 567v150h1024z" />
    <glyph glyph-name="minus" unicode="&#x2212;" horiz-adv-x="1189" 
d="M1057 739v-176h-926v176h926z" />
    <glyph glyph-name="radical" unicode="&#x221a;" horiz-adv-x="1447" 
d="M1141 1434h205l-512 -1434h-181l-280 811h-271v188h414l232 -700z" />
    <glyph glyph-name="infinity" unicode="&#x221e;" horiz-adv-x="2004" 
d="M1405 1163q206 0 336.5 -143t130.5 -350q0 -209 -130.5 -352.5t-336.5 -143.5q-136 0 -249.5 80.5t-154.5 187.5q-40 -108 -153 -188t-248 -80q-138 0 -246 68t-165.5 180.5t-57.5 247.5q0 206 131 349.5t338 143.5q136 0 248.5 -79t152.5 -187q40 107 154.5 186.5
t249.5 79.5zM608 354q118 0 208 86.5t108 229.5q-18 142 -108 227.5t-208 85.5q-127 0 -206.5 -88t-79.5 -225q0 -139 79.5 -227.5t206.5 -88.5zM1397 354q126 0 206 89t80 227q0 137 -80 225t-206 88q-113 0 -200 -86t-105 -227q18 -143 105 -229.5t200 -86.5z" />
    <glyph glyph-name="integral" unicode="&#x222b;" horiz-adv-x="753" 
d="M596 1466q62 0 111 -12v-174q-31 8 -72 8q-201 0 -201 -190v-1116q0 -179 -93.5 -273t-256.5 -94q-57 0 -109 10v174q27 -8 72 -8q199 0 199 193v1116q0 179 94 272.5t256 93.5z" />
    <glyph glyph-name="approxequal" unicode="&#x2248;" horiz-adv-x="1185" 
d="M293 647l-162 21q17 140 87 219.5t173 79.5q49 0 107.5 -21.5t103.5 -47.5t94 -47.5t80 -21.5q94 0 115 154l164 -20q-20 -139 -90.5 -219t-171.5 -80q-47 0 -104 21.5t-100.5 47t-93.5 47t-85 21.5q-93 0 -117 -154zM293 231l-162 21q17 140 87 219.5t173 79.5
q49 0 107.5 -21.5t103.5 -47t94 -47t80 -21.5q94 0 115 153l164 -20q-20 -139 -90.5 -219t-171.5 -80q-47 0 -104 21.5t-100.5 47t-93.5 47t-85 21.5q-93 0 -117 -154z" />
    <glyph glyph-name="notequal" unicode="&#x2260;" horiz-adv-x="1189" 
d="M1057 770h-318l-108 -231h426v-177h-510l-107 -223h-172l107 223h-244v177h326l110 231h-436v176h520l92 197h175l-95 -197h234v-176z" />
    <glyph glyph-name="lessequal" unicode="&#x2264;" horiz-adv-x="1136" 
d="M1004 360l-871 400v147l871 400v-195l-623 -278l623 -279v-195zM1004 0h-873v176h873v-176z" />
    <glyph glyph-name="greaterequal" unicode="&#x2265;" horiz-adv-x="1136" 
d="M131 360v195l623 279l-623 278v195l873 -400v-147zM133 0v176h871v-176h-871z" />
    <glyph glyph-name="lozenge" unicode="&#x25ca;" horiz-adv-x="1136" 
d="M639 1434l393 -717l-393 -717h-143l-392 717l392 717h143zM565 193l285 524l-285 524l-282 -524z" />
    <glyph glyph-name="circle" unicode="&#x25cb;" horiz-adv-x="1656" 
d="M827 -20q-198 0 -367.5 99t-268.5 268.5t-99 369.5t99 369.5t268.5 268.5t367.5 99q150 0 287 -58.5t236.5 -157.5t158 -235t58.5 -286t-58.5 -286t-158 -235t-236.5 -157.5t-287 -58.5zM829 66q131 0 251 52t207 139t138.5 207.5t51.5 252.5t-51.5 252.5t-138.5 207.5
t-207 139t-251 52q-175 0 -324.5 -87.5t-237 -237.5t-87.5 -326t87.5 -326t237 -237.5t324.5 -87.5z" />
    <glyph glyph-name="uni25CF" unicode="&#x25cf;" horiz-adv-x="1656" 
d="M829 -20q-200 0 -369.5 99t-268.5 268.5t-99 369.5t99 369.5t268.5 268.5t369.5 99q150 0 286.5 -58.5t235.5 -157.5t157.5 -235t58.5 -286t-58.5 -286t-157.5 -235t-235.5 -157.5t-286.5 -58.5z" />
    <glyph glyph-name="P_sq" horiz-adv-x="1271" 
d="M1126 1434v-854h-782v-580h-199v1434h981zM928 768v477h-584v-477h584z" />
    <glyph glyph-name="P_sq_sinf" horiz-adv-x="757" 
d="M676 860v-522h-461v-338h-133v860h594zM545 465v270h-330v-270h330z" />
    <glyph glyph-name="Iacute_J.loclNLD" horiz-adv-x="1128" 
d="M539 1847l-222 -297h-176l168 297h230zM1190 1847l-221 -297h-176l168 297h229zM145 1434h199v-1434h-199v1434zM539 170q12 -2 43 -2q106 0 159.5 64.5t53.5 203.5v998h198v-1047q0 -191 -96.5 -298t-261.5 -107q-49 0 -96 6v182z" />
    <glyph glyph-name="O.ss10" horiz-adv-x="1548" 
d="M1204 1434h197v-1434h-1256v1434h199v-4h860v4zM344 188h860v1053h-860v-1053z" />
    <glyph glyph-name="Oacute.ss10" horiz-adv-x="1548" 
d="M1069 1847l-221 -297h-176l168 297h229zM1204 1434h197v-1434h-1256v1434h199v-4h860v4zM344 188h860v1053h-860v-1053z" />
    <glyph glyph-name="Obreve.ss10" horiz-adv-x="1548" 
d="M776 1538q-136 0 -224 87t-89 228h145q1 -83 48.5 -134.5t119.5 -51.5q71 0 118 51.5t48 134.5h145q0 -141 -88 -228t-223 -87zM1204 1434h197v-1434h-1256v1434h199v-4h860v4zM344 188h860v1053h-860v-1053z" />
    <glyph glyph-name="Ocircumflex.ss10" horiz-adv-x="1548" 
d="M774 1737l-125 -174h-168l189 297h209l190 -297h-170zM1204 1434h197v-1434h-1256v1434h199v-4h860v4zM344 188h860v1053h-860v-1053z" />
    <glyph glyph-name="Odieresis.ss10" horiz-adv-x="1548" 
d="M598 1565q-51 0 -89 37.5t-38 89.5q0 51 38 88t89 37q53 0 91 -37t38 -88q0 -52 -38 -89.5t-91 -37.5zM950 1565q-53 0 -91 37.5t-38 89.5q0 51 38 88t91 37q51 0 89 -37t38 -88q0 -52 -38 -89.5t-89 -37.5zM1204 1434h197v-1434h-1256v1434h199v-4h860v4zM344 188h860
v1053h-860v-1053z" />
    <glyph glyph-name="Ograve.ss10" horiz-adv-x="1548" 
d="M879 1550h-177l-223 297h232zM1204 1434h197v-1434h-1256v1434h199v-4h860v4zM344 188h860v1053h-860v-1053z" />
    <glyph glyph-name="Ohungarumlaut.ss10" horiz-adv-x="1548" 
d="M817 1860l-135 -310h-197l138 310h194zM1171 1860l-135 -310h-194l135 310h194zM1204 1434h197v-1434h-1256v1434h199v-4h860v4zM344 188h860v1053h-860v-1053z" />
    <glyph glyph-name="Omacron.ss10" horiz-adv-x="1548" 
d="M1102 1726v-153h-656v153h656zM1204 1434h197v-1434h-1256v1434h199v-4h860v4zM344 188h860v1053h-860v-1053z" />
    <glyph glyph-name="uni01EA.ss10" horiz-adv-x="1548" 
d="M1204 1434h197v-1434h-447q-76 -24 -121 -69t-45 -101q0 -37 27 -61.5t72 -24.5q53 0 98 23l47 -125q-81 -43 -201 -43q-93 0 -150.5 54t-57.5 138q0 119 104 209h-582v1434h199v-4h860v4zM344 188h860v1053h-860v-1053z" />
    <glyph glyph-name="S.ss12" horiz-adv-x="1122" 
d="M522 1434h420v-191h-453q-103 0 -165 -48t-62 -126q0 -52 26.5 -91.5t71.5 -65t103 -46t122 -39t128 -40t122 -53.5t103 -74.5t71.5 -108.5t26.5 -150q0 -178 -125 -289.5t-354 -111.5h-469v190h479q126 0 197.5 56.5t71.5 154.5q0 54 -26.5 94.5t-71 66t-102 45.5
t-121.5 38t-128 38.5t-121.5 51.5t-102 72.5t-71 106t-26.5 147.5q0 166 126 269.5t330 103.5z" />
    <glyph glyph-name="Sacute.ss12" horiz-adv-x="1122" 
d="M877 1847l-222 -297h-176l168 297h230zM522 1434h420v-191h-453q-103 0 -165 -48t-62 -126q0 -52 26.5 -91.5t71.5 -65t103 -46t122 -39t128 -40t122 -53.5t103 -74.5t71.5 -108.5t26.5 -150q0 -178 -125 -289.5t-354 -111.5h-469v190h479q126 0 197.5 56.5t71.5 154.5
q0 54 -26.5 94.5t-71 66t-102 45.5t-121.5 38t-128 38.5t-121.5 51.5t-102 72.5t-71 106t-26.5 147.5q0 166 126 269.5t330 103.5z" />
    <glyph glyph-name="Scaron.ss12" horiz-adv-x="1122" 
d="M477 1550l-188 297h168l125 -174l125 174h170l-191 -297h-209zM262 1069q0 -52 26.5 -91.5t71.5 -65t103 -46t122 -39t128 -40t122 -53.5t103 -74.5t71.5 -108.5t26.5 -150q0 -178 -125 -289.5t-354 -111.5h-469v190h479q126 0 197.5 56.5t71.5 154.5q0 54 -26.5 94.5
t-71 66t-102 45.5t-121.5 38t-128 38.5t-121.5 51.5t-102 72.5t-71 106t-26.5 147.5q0 166 126 269.5t330 103.5h420v-191h-453q-103 0 -165 -48t-62 -126z" />
    <glyph glyph-name="Scedilla.ss12" horiz-adv-x="1122" 
d="M1036 401q0 -168 -112 -277.5t-318 -121.5q75 -81 93.5 -164.5t-13.5 -145.5t-108 -99.5t-179 -32.5l-45 137q113 5 165.5 49t37.5 111.5t-90 142.5h-379v190h479q126 0 197.5 56.5t71.5 154.5q0 54 -26.5 94.5t-71 66t-102 45.5t-121.5 38t-128 38.5t-121.5 51.5
t-102 72.5t-71 106t-26.5 147.5q0 166 126 269.5t330 103.5h420v-191h-453q-103 0 -165 -48t-62 -126q0 -52 26.5 -91.5t71.5 -65t103 -46t122 -39t128 -40t122 -53.5t103 -74.5t71.5 -108.5t26.5 -150z" />
    <glyph glyph-name="Scircumflex.ss12" horiz-adv-x="1122" 
d="M582 1737l-125 -174h-168l188 297h209l191 -297h-170zM262 1069q0 -52 26.5 -91.5t71.5 -65t103 -46t122 -39t128 -40t122 -53.5t103 -74.5t71.5 -108.5t26.5 -150q0 -178 -125 -289.5t-354 -111.5h-469v190h479q126 0 197.5 56.5t71.5 154.5q0 54 -26.5 94.5t-71 66
t-102 45.5t-121.5 38t-128 38.5t-121.5 51.5t-102 72.5t-71 106t-26.5 147.5q0 166 126 269.5t330 103.5h420v-191h-453q-103 0 -165 -48t-62 -126z" />
    <glyph glyph-name="uni0218.ss12" horiz-adv-x="1122" 
d="M522 1434h420v-191h-453q-103 0 -165 -48t-62 -126q0 -52 26.5 -91.5t71.5 -65t103 -46t122 -39t128 -40t122 -53.5t103 -74.5t71.5 -108.5t26.5 -150q0 -178 -125 -289.5t-354 -111.5h-469v190h479q126 0 197.5 56.5t71.5 154.5q0 54 -26.5 94.5t-71 66t-102 45.5
t-121.5 38t-128 38.5t-121.5 51.5t-102 72.5t-71 106t-26.5 147.5q0 166 126 269.5t330 103.5zM680 -145l-223 -297h-176l170 297h229z" />
    <glyph glyph-name="D.ss16" horiz-adv-x="1484" 
d="M682 1434q149 0 280.5 -54t226 -147.5t149.5 -226t55 -283.5q0 -153 -55 -287.5t-149 -230t-226 -150.5t-281 -55h-629v180h170v1254h459zM694 188q214 0 355 152.5t141 382.5q0 227 -140.5 374.5t-355.5 147.5h-272v-1057h272z" />
    <glyph glyph-name="Eth.ss16" horiz-adv-x="1484" 
d="M682 1434q149 0 280.5 -54t226 -147.5t149.5 -226t55 -283.5q0 -153 -55 -287.5t-149 -230t-226 -150.5t-281 -55h-629v180h170v471h-170v131h170v652h459zM694 188q214 0 355 152.5t141 382.5q0 227 -140.5 374.5t-355.5 147.5h-272v-463h268v-131h-268v-463h272z" />
    <glyph glyph-name="Dcaron.ss16" horiz-adv-x="1484" 
d="M594 1550l-188 297h167l125 -174l125 174h170l-190 -297h-209zM682 1434q149 0 280.5 -54t226 -147.5t149.5 -226t55 -283.5q0 -153 -55 -287.5t-149 -230t-226 -150.5t-281 -55h-629v180h170v1254h459zM694 188q214 0 355 152.5t141 382.5q0 227 -140.5 374.5
t-355.5 147.5h-272v-1057h272z" />
    <glyph glyph-name="Dcroat.ss16" horiz-adv-x="1484" 
d="M682 1434q149 0 280.5 -54t226 -147.5t149.5 -226t55 -283.5q0 -153 -55 -287.5t-149 -230t-226 -150.5t-281 -55h-629v180h170v471h-170v131h170v652h459zM694 188q214 0 355 152.5t141 382.5q0 227 -140.5 374.5t-355.5 147.5h-272v-463h268v-131h-268v-463h272z" />
    <glyph glyph-name="J.ss17" horiz-adv-x="792" 
d="M647 1434v-1434h-598v188h400v1246h198z" />
    <glyph glyph-name="Jcircumflex.ss17" horiz-adv-x="792" 
d="M651 1860l191 -297h-170l-125 174l-125 -174h-168l188 297h209zM449 188v1246h198v-1434h-598v188h400z" />
    <glyph glyph-name="L.ss18" horiz-adv-x="1196" 
d="M422 188h704v-188h-1073v180h170v1254h199v-1246z" />
    <glyph glyph-name="Lacute.ss18" horiz-adv-x="1196" 
d="M612 1847l-221 -297h-176l168 297h229zM422 188h704v-188h-1073v180h170v1254h199v-1246z" />
    <glyph glyph-name="Lcaron.ss18" horiz-adv-x="1196" 
d="M952 1540l-86 -424h-155l41 424h200zM422 188h704v-188h-1073v180h170v1254h199v-1246z" />
    <glyph glyph-name="uni013B.ss18" horiz-adv-x="1196" 
d="M422 188h704v-188h-1073v180h170v1254h199v-1246zM381 -442l170 297h229l-223 -297h-176z" />
    <glyph glyph-name="Ldot.ss18" horiz-adv-x="1196" 
d="M422 188h704v-188h-1073v180h170v1254h199v-1246zM866 641q-60 0 -99.5 39.5t-39.5 97.5q0 59 39.5 98t99.5 39q59 0 98.5 -39.5t39.5 -97.5q0 -57 -40 -97t-98 -40z" />
    <glyph glyph-name="Lslash.ss18" horiz-adv-x="1196" 
d="M422 188h704v-188h-1073v180h170v410l-170 -80v172l170 80v672h199v-580l375 174v-170l-375 -176v-494z" />
    <glyph glyph-name="M.swsh" horiz-adv-x="2080" 
d="M1843 0l-354 1116l-359 -1116h-167l-363 1114l-360 -1114h-209l481 1434h168l362 -1115l363 1115h168l479 -1434h-209z" />
    <glyph glyph-name="G.titl" horiz-adv-x="1669" 
d="M1620 782v-190h-127q-25 -270 -214.5 -441t-465.5 -171q-151 0 -285 57t-229.5 155.5t-151 235.5t-55.5 291q0 205 94.5 373.5t260 265t366.5 96.5q151 0 293 -62.5t239.5 -167.5t127.5 -227h-222q-44 116 -169 191.5t-269 75.5t-263 -71.5t-187 -197t-68 -276.5
q0 -153 68.5 -278.5t190 -198t271.5 -72.5q129 0 235 60t165.5 156t64.5 206h-461v190h791z" />
    <glyph glyph-name="Gbreve.titl" horiz-adv-x="1669" 
d="M784 1538q-136 0 -224 87t-89 228h145q1 -83 48.5 -134.5t119.5 -51.5q71 0 118 51.5t48 134.5h146q0 -141 -88.5 -228t-223.5 -87zM1620 782v-190h-127q-25 -270 -214.5 -441t-465.5 -171q-151 0 -285 57t-229.5 155.5t-151 235.5t-55.5 291q0 205 94.5 373.5t260 265
t366.5 96.5q151 0 293 -62.5t239.5 -167.5t127.5 -227h-222q-44 116 -169 191.5t-269 75.5t-263 -71.5t-187 -197t-68 -276.5q0 -153 68.5 -278.5t190 -198t271.5 -72.5q129 0 235 60t165.5 156t64.5 206h-461v190h791z" />
    <glyph glyph-name="Gcircumflex.titl" horiz-adv-x="1669" 
d="M784 1737l-125 -174h-167l188 297h209l190 -297h-170zM1620 782v-190h-127q-25 -270 -214.5 -441t-465.5 -171q-151 0 -285 57t-229.5 155.5t-151 235.5t-55.5 291q0 205 94.5 373.5t260 265t366.5 96.5q151 0 293 -62.5t239.5 -167.5t127.5 -227h-222
q-44 116 -169 191.5t-269 75.5t-263 -71.5t-187 -197t-68 -276.5q0 -153 68.5 -278.5t190 -198t271.5 -72.5q129 0 235 60t165.5 156t64.5 206h-461v190h791z" />
    <glyph glyph-name="uni0122.titl" horiz-adv-x="1669" 
d="M1620 782v-190h-127q-25 -270 -214.5 -441t-465.5 -171q-151 0 -285 57t-229.5 155.5t-151 235.5t-55.5 291q0 205 94.5 373.5t260 265t366.5 96.5q151 0 293 -62.5t239.5 -167.5t127.5 -227h-222q-44 116 -169 191.5t-269 75.5t-263 -71.5t-187 -197t-68 -276.5
q0 -153 68.5 -278.5t190 -198t271.5 -72.5q129 0 235 60t165.5 156t64.5 206h-461v190h791zM551 -442l170 297h229l-223 -297h-176z" />
    <glyph glyph-name="Gdotaccent.titl" horiz-adv-x="1669" 
d="M784 1565q-52 0 -89.5 37.5t-37.5 89.5q0 51 37.5 88t89.5 37q51 0 89 -37t38 -88q0 -52 -38 -89.5t-89 -37.5zM1620 782v-190h-127q-25 -270 -214.5 -441t-465.5 -171q-151 0 -285 57t-229.5 155.5t-151 235.5t-55.5 291q0 205 94.5 373.5t260 265t366.5 96.5
q151 0 293 -62.5t239.5 -167.5t127.5 -227h-222q-44 116 -169 191.5t-269 75.5t-263 -71.5t-187 -197t-68 -276.5q0 -153 68.5 -278.5t190 -198t271.5 -72.5q129 0 235 60t165.5 156t64.5 206h-461v190h791z" />
    <glyph glyph-name="I.titl" horiz-adv-x="710" 
d="M608 1253h-153v-1073h153v-180h-506v180h154v1073h-154v181h506v-181z" />
    <glyph glyph-name="IJ.titl" horiz-adv-x="1495" 
d="M608 1434v-181h-153v-1073h153v-180h-506v180h154v1073h-154v181h506zM1368 1434v-181h-154v-866q0 -191 -96.5 -298t-261.5 -107q-48 0 -94 6v182q10 -2 41 -2q215 0 215 268v817h-156v181h506z" />
    <glyph glyph-name="Iacute.titl" horiz-adv-x="710" 
d="M651 1847l-221 -297h-176l168 297h229zM608 1434v-181h-153v-1073h153v-180h-506v180h154v1073h-154v181h506z" />
    <glyph glyph-name="Ibreve.titl" horiz-adv-x="710" 
d="M358 1538q-136 0 -224 87t-89 228h145q1 -83 48.5 -134.5t119.5 -51.5q71 0 118 51.5t48 134.5h146q0 -141 -88.5 -228t-223.5 -87zM608 1434v-181h-153v-1073h153v-180h-506v180h154v1073h-154v181h506z" />
    <glyph glyph-name="Icircumflex.titl" horiz-adv-x="710" 
d="M356 1737l-125 -174h-168l189 297h209l190 -297h-170zM608 1434v-181h-153v-1073h153v-180h-506v180h154v1073h-154v181h506z" />
    <glyph glyph-name="Idieresis.titl" horiz-adv-x="710" 
d="M309 1692q0 -52 -38 -89.5t-91 -37.5q-51 0 -89 37.5t-38 89.5q0 51 38 88t89 37q53 0 91 -37t38 -88zM532 1817q51 0 89 -37t38 -88q0 -52 -38 -89.5t-89 -37.5q-53 0 -91 37.5t-38 89.5q0 51 38 88t91 37zM608 1434v-181h-153v-1073h153v-180h-506v180h154v1073h-154
v181h506z" />
    <glyph glyph-name="Idotaccent.titl" horiz-adv-x="710" 
d="M356 1565q-52 0 -89.5 37.5t-37.5 89.5q0 51 37.5 88t89.5 37q51 0 89 -37t38 -88q0 -52 -38 -89.5t-89 -37.5zM608 1253h-153v-1073h153v-180h-506v180h154v1073h-154v181h506v-181z" />
    <glyph glyph-name="Igrave.titl" horiz-adv-x="710" 
d="M461 1550h-176l-224 297h232zM608 1253h-153v-1073h153v-180h-506v180h154v1073h-154v181h506v-181z" />
    <glyph glyph-name="Imacron.titl" horiz-adv-x="710" 
d="M29 1726h655v-153h-655v153zM608 1434v-181h-153v-1073h153v-180h-506v180h154v1073h-154v181h506z" />
    <glyph glyph-name="Iogonek.titl" horiz-adv-x="710" 
d="M565 -233l47 -125q-81 -43 -200 -43q-93 0 -151 54t-58 138q0 119 104 209h-205v180h154v1073h-154v181h506v-181h-153v-1073h153v-180h-73q-76 -24 -121 -69t-45 -101q0 -38 26.5 -62t71.5 -24q53 0 98 23z" />
    <glyph glyph-name="Itilde.titl" horiz-adv-x="710" 
d="M578 1831l153 -25q-9 -109 -72.5 -178t-150.5 -69q-55 0 -112 29t-104 58t-77 29q-37 0 -59 -30.5t-21 -81.5l-155 26q7 111 70 179.5t151 68.5q54 0 111.5 -29.5t104.5 -58.5t75 -29q37 0 61.5 31t24.5 80zM608 1434v-181h-153v-1073h153v-180h-506v180h154v1073h-154
v181h506z" />
    <glyph glyph-name="J.titl" horiz-adv-x="784" 
d="M657 1434v-181h-153v-866q0 -191 -97 -298t-262 -107q-49 0 -96 6v182q12 -2 43 -2q106 0 159.5 64.5t53.5 203.5v817h-153v181h505z" />
    <glyph glyph-name="Jcircumflex.titl" horiz-adv-x="784" 
d="M399 1737l-125 -174h-168l189 297h209l190 -297h-170zM657 1434v-181h-153v-866q0 -191 -97 -298t-262 -107q-49 0 -96 6v182q12 -2 43 -2q106 0 159.5 64.5t53.5 203.5v817h-153v181h505z" />
    <glyph glyph-name="T.titl" horiz-adv-x="1218" 
d="M1163 1245h-454v-1065h153v-180h-506v180h154v1065h-455v189h1108v-189z" />
    <glyph glyph-name="Tbar.titl" horiz-adv-x="1218" 
d="M1163 1245h-454v-463h217v-131h-217v-471h153v-180h-506v180h154v471h-221v131h221v463h-455v189h1108v-189z" />
    <glyph glyph-name="Tcaron.titl" horiz-adv-x="1218" 
d="M502 1550l-189 299h168l125 -176l125 176h170l-188 -299h-211zM1163 1245h-454v-1065h153v-180h-506v180h154v1065h-455v189h1108v-189z" />
    <glyph glyph-name="uni0162.titl" horiz-adv-x="1218" 
d="M1163 1245h-454v-1065h153v-180h-166q59 -65 83 -132.5t11 -123t-51.5 -99.5t-105 -66.5t-148.5 -18.5l-45 137q114 5 166.5 49t37.5 111.5t-89 142.5h-199v180h154v1065h-455v189h1108v-189z" />
    <glyph glyph-name="uni021A.titl" horiz-adv-x="1218" 
d="M1163 1245h-454v-1065h153v-180h-506v180h154v1065h-455v189h1108v-189zM367 -442l170 297h229l-221 -297h-178z" />
    <glyph glyph-name="Y.titl" horiz-adv-x="1304" 
d="M756 633v-453h153v-180h-506v180h154v453l-526 801h239l389 -603l385 603h232z" />
    <glyph glyph-name="Yacute.titl" horiz-adv-x="1304" 
d="M932 1849l-223 -299h-177l170 299h230zM756 633v-453h153v-180h-506v180h154v453l-526 801h239l389 -603l385 603h232z" />
    <glyph glyph-name="Ycircumflex.titl" horiz-adv-x="1304" 
d="M637 1739l-125 -176h-170l190 297h209l191 -297h-170zM756 633v-453h153v-180h-506v180h154v453l-526 801h239l389 -603l385 603h232z" />
    <glyph glyph-name="Ydieresis.titl" horiz-adv-x="1304" 
d="M463 1565q-53 0 -91 37.5t-38 89.5q0 51 38 88t91 37q51 0 89 -37t38 -88q0 -52 -38 -89.5t-89 -37.5zM813 1565q-53 0 -90 37.5t-37 89.5q0 51 37.5 88t89.5 37q51 0 89 -37t38 -88q0 -52 -38 -89.5t-89 -37.5zM756 633v-453h153v-180h-506v180h154v453l-526 801h239
l389 -603l385 603h232z" />
    <glyph glyph-name="Ygrave.titl" horiz-adv-x="1304" 
d="M741 1550h-178l-221 299h229zM756 633v-453h153v-180h-506v180h154v453l-526 801h239l389 -603l385 603h232z" />
    <glyph glyph-name="i.loclTRK" horiz-adv-x="452" 
d="M227 1448q51 0 89 -38t38 -89q0 -52 -38 -89.5t-89 -37.5q-53 0 -90 37t-37 90q0 51 37.5 89t89.5 38zM131 999h191v-999h-191v999z" />
    <glyph glyph-name="eth.alt" horiz-adv-x="1206" 
d="M999 891q62 -97 95.5 -200.5t33.5 -188.5q0 -142 -71.5 -263t-194.5 -191.5t-268 -70.5q-144 0 -267 71t-194.5 192t-71.5 262q0 220 144.5 367t359.5 147q80 0 164 -41l-162 254l-241 -103l-50 111l226 96l-119 187h225l70 -111l274 117l52 -111l-261 -110zM594 166
q143 0 242.5 98t99.5 240q0 145 -98.5 244.5t-241.5 99.5q-145 0 -245.5 -99.5t-100.5 -244.5q0 -141 100 -239.5t244 -98.5z" />
    <glyph glyph-name="germandbls.calt" horiz-adv-x="1249" 
d="M631 1454q193 0 331.5 -109t157.5 -272l-307 -287q170 -9 271.5 -108.5t101.5 -253.5q0 -114 -58.5 -212t-158 -155t-215.5 -57h-275v188h273q98 0 165.5 67.5t67.5 164.5q0 106 -65 168.5t-175 62.5h-165l-9 129l328 314q-22 73 -94 121.5t-166 48.5q-129 0 -212 -91.5
t-83 -234.5v-938h-199v938q0 229 135 372.5t351 143.5z" />
    <glyph glyph-name="iacute_j.loclNLD" horiz-adv-x="905" 
d="M522 1413l-221 -297h-176l168 297h229zM973 1413l-221 -297h-177l168 297h230zM131 999h191v-999h-191v999zM428 -231q8 -2 27 -2q129 0 129 182v1050h190v-1067q0 -165 -78.5 -252.5t-222.5 -87.5q-7 0 -22 1t-23 1v175z" />
    <glyph glyph-name="a.ss01" horiz-adv-x="1036" 
d="M506 1020q198 0 309 -108t111 -289v-623h-181v143q-110 -163 -325 -163q-146 0 -238 82t-92 206q0 160 132.5 249t365.5 89h157v27q0 106 -65 168.5t-174 62.5q-95 0 -162.5 -55t-73.5 -139h-168q7 97 62.5 177.5t146 126.5t195.5 46zM451 129q128 0 211 81t83 191v64
h-159q-328 0 -328 -180q0 -70 52.5 -113t140.5 -43z" />
    <glyph glyph-name="aacute.ss01" horiz-adv-x="1036" 
d="M813 1413l-221 -297h-176l168 297h229zM506 1020q198 0 309 -108t111 -289v-623h-181v143q-110 -163 -325 -163q-146 0 -238 82t-92 206q0 160 132.5 249t365.5 89h157v27q0 106 -65 168.5t-174 62.5q-95 0 -162.5 -55t-73.5 -139h-168q7 97 62.5 177.5t146 126.5
t195.5 46zM451 129q128 0 211 81t83 191v64h-159q-328 0 -328 -180q0 -70 52.5 -113t140.5 -43z" />
    <glyph glyph-name="abreve.ss01" horiz-adv-x="1036" 
d="M520 1104q-136 0 -224 87t-89 228h145q1 -83 48.5 -134.5t119.5 -51.5q71 0 118 51.5t48 134.5h145q0 -141 -88 -228t-223 -87zM506 1020q198 0 309 -108t111 -289v-623h-181v143q-110 -163 -325 -163q-146 0 -238 82t-92 206q0 160 132.5 249t365.5 89h157v27
q0 106 -65 168.5t-174 62.5q-95 0 -162.5 -55t-73.5 -139h-168q7 97 62.5 177.5t146 126.5t195.5 46zM451 129q128 0 211 81t83 191v64h-159q-328 0 -328 -180q0 -70 52.5 -113t140.5 -43z" />
    <glyph glyph-name="acircumflex.ss01" horiz-adv-x="1036" 
d="M518 1303l-125 -175h-168l189 297h209l190 -297h-170zM506 1020q198 0 309 -108t111 -289v-623h-181v143q-110 -163 -325 -163q-146 0 -238 82t-92 206q0 160 132.5 249t365.5 89h157v27q0 106 -65 168.5t-174 62.5q-95 0 -162.5 -55t-73.5 -139h-168q7 97 62.5 177.5
t146 126.5t195.5 46zM451 129q128 0 211 81t83 191v64h-159q-328 0 -328 -180q0 -70 52.5 -113t140.5 -43z" />
    <glyph glyph-name="adieresis.ss01" horiz-adv-x="1036" 
d="M344 1194q-51 0 -89 37.5t-38 89.5q0 51 38 89t89 38q52 0 90.5 -38t38.5 -89q0 -52 -38 -89.5t-91 -37.5zM696 1194q-53 0 -91 37.5t-38 89.5q0 51 38.5 89t90.5 38q51 0 89 -38t38 -89q0 -52 -38 -89.5t-89 -37.5zM506 1020q198 0 309 -108t111 -289v-623h-181v143
q-110 -163 -325 -163q-146 0 -238 82t-92 206q0 160 132.5 249t365.5 89h157v27q0 106 -65 168.5t-174 62.5q-95 0 -162.5 -55t-73.5 -139h-168q7 97 62.5 177.5t146 126.5t195.5 46zM451 129q128 0 211 81t83 191v64h-159q-328 0 -328 -180q0 -70 52.5 -113t140.5 -43z" />
    <glyph glyph-name="agrave.ss01" horiz-adv-x="1036" 
d="M623 1116h-177l-223 297h232zM506 1020q198 0 309 -108t111 -289v-623h-181v143q-110 -163 -325 -163q-146 0 -238 82t-92 206q0 160 132.5 249t365.5 89h157v27q0 106 -65 168.5t-174 62.5q-95 0 -162.5 -55t-73.5 -139h-168q7 97 62.5 177.5t146 126.5t195.5 46z
M451 129q128 0 211 81t83 191v64h-159q-328 0 -328 -180q0 -70 52.5 -113t140.5 -43z" />
    <glyph glyph-name="amacron.ss01" horiz-adv-x="1036" 
d="M848 1292v-153h-655v153h655zM506 1020q198 0 309 -108t111 -289v-623h-181v143q-110 -163 -325 -163q-146 0 -238 82t-92 206q0 160 132.5 249t365.5 89h157v27q0 106 -65 168.5t-174 62.5q-95 0 -162.5 -55t-73.5 -139h-168q7 97 62.5 177.5t146 126.5t195.5 46z
M451 129q128 0 211 81t83 191v64h-159q-328 0 -328 -180q0 -70 52.5 -113t140.5 -43z" />
    <glyph glyph-name="aogonek.ss01" horiz-adv-x="1036" 
d="M954 -233l47 -125q-81 -43 -200 -43q-93 0 -151 54t-58 138q0 71 40 135.5t113 112.5v104q-110 -163 -325 -163q-146 0 -238 82t-92 206q0 160 132.5 249t365.5 89h157v27q0 106 -65 168.5t-174 62.5q-95 0 -162.5 -55t-73.5 -139h-168q7 97 62.5 177.5t146 126.5
t195.5 46q198 0 309 -108t111 -289v-623h-2q-76 -24 -121 -69t-45 -101q0 -38 26.5 -62t71.5 -24q53 0 98 23zM451 129q128 0 211 81t83 191v64h-159q-328 0 -328 -180q0 -70 52.5 -113t140.5 -43z" />
    <glyph glyph-name="aring.ss01" horiz-adv-x="1036" 
d="M520 1110q-111 0 -184.5 70.5t-73.5 177.5q0 106 74 177t184 71t185 -71t75 -177q0 -107 -74.5 -177.5t-185.5 -70.5zM520 1491q-58 0 -97.5 -38.5t-39.5 -94.5q0 -57 39 -95t98 -38q60 0 98.5 38t38.5 95q0 56 -39 94.5t-98 38.5zM506 1020q198 0 309 -108t111 -289
v-623h-181v143q-110 -163 -325 -163q-146 0 -238 82t-92 206q0 160 132.5 249t365.5 89h157v27q0 106 -65 168.5t-174 62.5q-95 0 -162.5 -55t-73.5 -139h-168q7 97 62.5 177.5t146 126.5t195.5 46zM451 129q128 0 211 81t83 191v64h-159q-328 0 -328 -180q0 -70 52.5 -113
t140.5 -43z" />
    <glyph glyph-name="atilde.ss01" horiz-adv-x="1036" 
d="M379 1241q-37 0 -59 -31t-21 -82l-156 27q7 111 70.5 179.5t151.5 68.5q54 0 111.5 -29.5t104 -58.5t74.5 -29q37 0 61.5 31t24.5 80l154 -25q-9 -109 -72.5 -178.5t-150.5 -69.5q-44 0 -89.5 18.5t-77 40t-66.5 40t-60 18.5zM506 1020q198 0 309 -108t111 -289v-623
h-181v143q-110 -163 -325 -163q-146 0 -238 82t-92 206q0 160 132.5 249t365.5 89h157v27q0 106 -65 168.5t-174 62.5q-95 0 -162.5 -55t-73.5 -139h-168q7 97 62.5 177.5t146 126.5t195.5 46zM451 129q128 0 211 81t83 191v64h-159q-328 0 -328 -180q0 -70 52.5 -113
t140.5 -43z" />
    <glyph glyph-name="ae.ss01" horiz-adv-x="1878" 
d="M1802 524q0 -43 -4 -75h-801q17 -137 104.5 -218t225.5 -81q105 0 181.5 47.5t95.5 126.5h188q-28 -156 -158 -250t-311 -94q-120 0 -223.5 49.5t-173.5 136.5v-166h-181v143q-110 -163 -325 -163q-146 0 -238 82t-92 206q0 160 132.5 249t365.5 89h157v27
q0 106 -65 168.5t-174 62.5q-95 0 -162.5 -55t-73.5 -139h-168q7 97 62.5 177.5t146 126.5t195.5 46q146 0 246 -59.5t143 -167.5q69 105 181 166t243 61q203 0 343 -141t140 -355zM1004 608h595q-14 106 -92.5 173t-195.5 67t-199 -64t-108 -176zM451 129q128 0 211 81
t83 191v64h-159q-328 0 -328 -180q0 -70 52.5 -113t140.5 -43z" />
    <glyph glyph-name="aeacute.ss01" horiz-adv-x="1878" 
d="M1233 1413l-221 -297h-176l168 297h229zM1802 524q0 -43 -4 -75h-801q17 -137 104.5 -218t225.5 -81q105 0 181.5 47.5t95.5 126.5h188q-28 -156 -158 -250t-311 -94q-120 0 -223.5 49.5t-173.5 136.5v-166h-181v143q-110 -163 -325 -163q-146 0 -238 82t-92 206
q0 160 132.5 249t365.5 89h157v27q0 106 -65 168.5t-174 62.5q-95 0 -162.5 -55t-73.5 -139h-168q7 97 62.5 177.5t146 126.5t195.5 46q146 0 246 -59.5t143 -167.5q69 105 181 166t243 61q203 0 343 -141t140 -355zM1004 608h595q-14 106 -92.5 173t-195.5 67t-199 -64
t-108 -176zM451 129q128 0 211 81t83 191v64h-159q-328 0 -328 -180q0 -70 52.5 -113t140.5 -43z" />
    <glyph glyph-name="a.ss02" horiz-adv-x="1052" 
d="M145 999h777v-999h-189v145q-111 -165 -327 -165q-146 0 -237 81.5t-91 206.5q0 161 131 249.5t364 88.5h160v232h-588v161zM436 129q128 0 212.5 81.5t84.5 190.5v64h-162q-327 0 -327 -180q0 -70 52.5 -113t139.5 -43z" />
    <glyph glyph-name="aacute.ss02" horiz-adv-x="1052" 
d="M825 1413l-221 -297h-176l168 297h229zM145 999h777v-999h-189v145q-111 -165 -327 -165q-146 0 -237 81.5t-91 206.5q0 161 131 249.5t364 88.5h160v232h-588v161zM436 129q128 0 212.5 81.5t84.5 190.5v64h-162q-327 0 -327 -180q0 -70 52.5 -113t139.5 -43z" />
    <glyph glyph-name="abreve.ss02" horiz-adv-x="1052" 
d="M532 1104q-136 0 -224 87t-89 228h146q1 -83 48 -134.5t119 -51.5q71 0 118 51.5t48 134.5h146q0 -141 -88.5 -228t-223.5 -87zM145 999h777v-999h-189v145q-111 -165 -327 -165q-146 0 -237 81.5t-91 206.5q0 161 131 249.5t364 88.5h160v232h-588v161zM436 129
q128 0 212.5 81.5t84.5 190.5v64h-162q-327 0 -327 -180q0 -70 52.5 -113t139.5 -43z" />
    <glyph glyph-name="acircumflex.ss02" horiz-adv-x="1052" 
d="M530 1303l-124 -175h-168l188 297h209l190 -297h-170zM145 999h777v-999h-189v145q-111 -165 -327 -165q-146 0 -237 81.5t-91 206.5q0 161 131 249.5t364 88.5h160v232h-588v161zM436 129q128 0 212.5 81.5t84.5 190.5v64h-162q-327 0 -327 -180q0 -70 52.5 -113
t139.5 -43z" />
    <glyph glyph-name="adieresis.ss02" horiz-adv-x="1052" 
d="M354 1194q-51 0 -89 37.5t-38 89.5q0 51 38 89t89 38q52 0 90.5 -38t38.5 -89q0 -52 -38 -89.5t-91 -37.5zM707 1194q-53 0 -91 37.5t-38 89.5q0 51 38.5 89t90.5 38q51 0 89 -38t38 -89q0 -52 -38 -89.5t-89 -37.5zM145 999h777v-999h-189v145q-111 -165 -327 -165
q-146 0 -237 81.5t-91 206.5q0 161 131 249.5t364 88.5h160v232h-588v161zM436 129q128 0 212.5 81.5t84.5 190.5v64h-162q-327 0 -327 -180q0 -70 52.5 -113t139.5 -43z" />
    <glyph glyph-name="agrave.ss02" horiz-adv-x="1046" 
d="M631 1116h-178l-222 297h230zM145 999h777v-999h-189v145q-111 -165 -327 -165q-146 0 -237 81.5t-91 206.5q0 161 131 249.5t364 88.5h160v232h-588v161zM436 129q128 0 212.5 81.5t84.5 190.5v64h-162q-327 0 -327 -180q0 -70 52.5 -113t139.5 -43z" />
    <glyph glyph-name="amacron.ss02" horiz-adv-x="1052" 
d="M858 1292v-153h-655v153h655zM145 999h777v-999h-189v145q-111 -165 -327 -165q-146 0 -237 81.5t-91 206.5q0 161 131 249.5t364 88.5h160v232h-588v161zM436 129q128 0 212.5 81.5t84.5 190.5v64h-162q-327 0 -327 -180q0 -70 52.5 -113t139.5 -43z" />
    <glyph glyph-name="aogonek.ss02" horiz-adv-x="1052" 
d="M952 -233l47 -125q-81 -43 -200 -43q-93 0 -151 54t-58 138q0 143 143 240v114q-111 -165 -327 -165q-146 0 -237 81.5t-91 206.5q0 161 131 249.5t364 88.5h160v232h-588v161h777v-999q-76 -24 -121 -69t-45 -101q0 -38 26.5 -62t71.5 -24q53 0 98 23zM436 129
q128 0 212.5 81.5t84.5 190.5v64h-162q-327 0 -327 -180q0 -70 52.5 -113t139.5 -43z" />
    <glyph glyph-name="aring.ss02" horiz-adv-x="1052" 
d="M530 1110q-111 0 -184.5 70.5t-73.5 177.5q0 106 74 177t184 71t185.5 -71t75.5 -177q0 -107 -75 -177.5t-186 -70.5zM530 1491q-58 0 -97.5 -38.5t-39.5 -94.5q0 -57 39 -95t98 -38q60 0 99 38t39 95q0 56 -39.5 94.5t-98.5 38.5zM145 999h777v-999h-189v145
q-111 -165 -327 -165q-146 0 -237 81.5t-91 206.5q0 161 131 249.5t364 88.5h160v232h-588v161zM436 129q128 0 212.5 81.5t84.5 190.5v64h-162q-327 0 -327 -180q0 -70 52.5 -113t139.5 -43z" />
    <glyph glyph-name="atilde.ss02" horiz-adv-x="1052" 
d="M389 1241q-37 0 -59 -31t-21 -82l-155 27q7 111 70 179.5t151 68.5q54 0 111.5 -29.5t104.5 -58.5t75 -29q37 0 61.5 31t24.5 80l153 -25q-9 -109 -72.5 -178.5t-150.5 -69.5q-44 0 -89.5 18.5t-77 40t-66.5 40t-60 18.5zM145 999h777v-999h-189v145q-111 -165 -327 -165
q-146 0 -237 81.5t-91 206.5q0 161 131 249.5t364 88.5h160v232h-588v161zM436 129q128 0 212.5 81.5t84.5 190.5v64h-162q-327 0 -327 -180q0 -70 52.5 -113t139.5 -43z" />
    <glyph glyph-name="ae.ss02" horiz-adv-x="1830" 
d="M1755 539q0 -26 -4 -66h-817q6 -148 100.5 -242t237.5 -94q112 0 190 50.5t97 134.5h184q-26 -156 -155 -249t-312 -93q-125 0 -226 53t-165 147v-180h-152v168q-98 -188 -336 -188q-140 0 -229.5 82t-89.5 206q0 160 131 244t375 84h149v242h-588v161h740v-178
q65 93 165 146t222 53q203 0 343 -139.5t140 -341.5zM946 600h613q-7 114 -91.5 189t-201.5 75q-120 0 -206.5 -70.5t-113.5 -193.5zM436 129q129 0 213 78t84 186v78h-153q-166 0 -251 -47.5t-85 -138.5q0 -70 52.5 -113t139.5 -43z" />
    <glyph glyph-name="aeacute.ss02" horiz-adv-x="1830" 
d="M1208 1413l-221 -297h-176l168 297h229zM1755 539q0 -26 -4 -66h-817q6 -148 100.5 -242t237.5 -94q112 0 190 50.5t97 134.5h184q-26 -156 -155 -249t-312 -93q-125 0 -226 53t-165 147v-180h-152v168q-98 -188 -336 -188q-140 0 -229.5 82t-89.5 206q0 160 131 244
t375 84h149v242h-588v161h740v-178q65 93 165 146t222 53q203 0 343 -139.5t140 -341.5zM946 600h613q-7 114 -91.5 189t-201.5 75q-120 0 -206.5 -70.5t-113.5 -193.5zM436 129q129 0 213 78t84 186v78h-153q-166 0 -251 -47.5t-85 -138.5q0 -70 52.5 -113t139.5 -43z" />
    <glyph glyph-name="c.ss03" horiz-adv-x="980" 
d="M870 819h-548v-639h548v-180h-739v999h739v-180z" />
    <glyph glyph-name="cacute.ss03" horiz-adv-x="980" 
d="M799 1413l-221 -297h-177l168 297h230zM870 819h-548v-639h548v-180h-739v999h739v-180z" />
    <glyph glyph-name="ccaron.ss03" horiz-adv-x="980" 
d="M401 1116l-188 297h168l125 -174l125 174h170l-191 -297h-209zM870 819h-548v-639h548v-180h-739v999h739v-180z" />
    <glyph glyph-name="ccedilla.ss03" horiz-adv-x="980" 
d="M870 819h-548v-639h548v-180h-268q50 -54 75 -110.5t24.5 -105.5t-22.5 -92.5t-62 -73.5t-98 -45.5t-126 -12.5l-45 137q113 5 165.5 49t37.5 111.5t-90 142.5h-330v999h739v-180z" />
    <glyph glyph-name="ccircumflex.ss03" horiz-adv-x="980" 
d="M506 1303l-125 -175h-168l188 297h209l191 -297h-170zM870 819h-548v-639h548v-180h-739v999h739v-180z" />
    <glyph glyph-name="cdotaccent.ss03" horiz-adv-x="980" 
d="M506 1448q51 0 89 -38t38 -89q0 -52 -38 -89.5t-89 -37.5q-52 0 -89.5 37t-37.5 90q0 51 37.5 89t89.5 38zM870 819h-548v-639h548v-180h-739v999h739v-180z" />
    <glyph glyph-name="g.ss04" horiz-adv-x="1263" 
d="M944 999h189v-1364h-863v179h674v424q-56 -104 -153.5 -161t-227.5 -57q-202 0 -343.5 146.5t-141.5 353.5q0 137 64.5 252t176 181.5t244.5 66.5q130 0 227.5 -56.5t153.5 -160.5v196zM602 193q148 0 245 93t97 234t-97 234.5t-245 93.5q-142 0 -241 -95.5t-99 -232.5
t99 -232t241 -95z" />
    <glyph glyph-name="gbreve.ss04" horiz-adv-x="1263" 
d="M664 1104q-136 0 -224.5 87t-89.5 228h146q1 -83 48.5 -134.5t119.5 -51.5q71 0 117.5 51.5t47.5 134.5h146q0 -141 -88 -228t-223 -87zM944 999h189v-1364h-863v179h674v424q-56 -104 -153.5 -161t-227.5 -57q-202 0 -343.5 146.5t-141.5 353.5q0 137 64.5 252
t176 181.5t244.5 66.5q130 0 227.5 -56.5t153.5 -160.5v196zM602 193q148 0 245 93t97 234t-97 234.5t-245 93.5q-142 0 -241 -95.5t-99 -232.5t99 -232t241 -95z" />
    <glyph glyph-name="gcircumflex.ss04" horiz-adv-x="1263" 
d="M662 1303l-125 -175h-168l188 297h209l190 -297h-170zM944 999h189v-1364h-863v179h674v424q-56 -104 -153.5 -161t-227.5 -57q-202 0 -343.5 146.5t-141.5 353.5q0 137 64.5 252t176 181.5t244.5 66.5q130 0 227.5 -56.5t153.5 -160.5v196zM602 193q148 0 245 93t97 234
t-97 234.5t-245 93.5q-142 0 -241 -95.5t-99 -232.5t99 -232t241 -95z" />
    <glyph glyph-name="uni0123.ss04" horiz-adv-x="1263" 
d="M954 1423l-168 -299h-229l221 299h176zM944 999h189v-1364h-863v179h674v424q-56 -104 -153.5 -161t-227.5 -57q-202 0 -343.5 146.5t-141.5 353.5q0 137 64.5 252t176 181.5t244.5 66.5q130 0 227.5 -56.5t153.5 -160.5v196zM602 193q148 0 245 93t97 234t-97 234.5
t-245 93.5q-142 0 -241 -95.5t-99 -232.5t99 -232t241 -95z" />
    <glyph glyph-name="gdotaccent.ss04" horiz-adv-x="1263" 
d="M664 1194q-52 0 -89.5 37t-37.5 90q0 51 37.5 89t89.5 38q51 0 89 -38t38 -89q0 -52 -38 -89.5t-89 -37.5zM944 999h189v-1364h-863v179h674v424q-56 -104 -153.5 -161t-227.5 -57q-202 0 -343.5 146.5t-141.5 353.5q0 137 64.5 252t176 181.5t244.5 66.5
q130 0 227.5 -56.5t153.5 -160.5v196zM602 193q148 0 245 93t97 234t-97 234.5t-245 93.5q-142 0 -241 -95.5t-99 -232.5t99 -232t241 -95z" />
    <glyph glyph-name="h.ss05" horiz-adv-x="1153" 
d="M322 1434v-435h700v-999h-188v819h-512v-819h-191v1434h191z" />
    <glyph glyph-name="hbar.ss05" horiz-adv-x="1153" 
d="M322 999h700v-999h-188v819h-512v-819h-191v1155h-221v131h221v148h191v-148h225v-131h-225v-156z" />
    <glyph glyph-name="hcircumflex.ss05" horiz-adv-x="1153" 
d="M350 1563l-125 174l-125 -174h-170l191 297h209l190 -297h-170zM322 999h700v-999h-188v819h-512v-819h-191v1434h191v-435z" />
    <glyph glyph-name="j.ss06" horiz-adv-x="452" 
d="M227 1448q51 0 89 -38t38 -89q0 -52 -38 -89.5t-89 -37.5q-53 0 -90 37t-37 90q0 51 37.5 89t89.5 38zM322 999v-1364h-191v1364h191z" />
    <glyph glyph-name="uni0237.ss06" horiz-adv-x="452" 
d="M322 999v-1364h-191v1364h191z" />
    <glyph glyph-name="jcircumflex.ss06" horiz-adv-x="452" 
d="M330 1425l190 -297h-170l-125 175l-125 -175h-170l191 297h209zM131 -365v1364h191v-1364h-191z" />
    <glyph glyph-name="l.ss07" horiz-adv-x="538" 
d="M322 1434v-1254h157v-180h-348v1434h191z" />
    <glyph glyph-name="lacute.ss07" horiz-adv-x="538" 
d="M526 1847l-221 -297h-176l168 297h229zM322 1434v-1254h157v-180h-348v1434h191z" />
    <glyph glyph-name="lcaron.ss07" horiz-adv-x="661" 
d="M397 1116l43 424h199l-84 -424h-158zM322 1434v-1254h157v-180h-348v1434h191z" />
    <glyph glyph-name="uni013C.ss07" horiz-adv-x="538" 
d="M322 1434v-1254h157v-180h-348v1434h191zM461 -145l-223 -297h-177l170 297h230z" />
    <glyph glyph-name="ldot.ss07" horiz-adv-x="692" 
d="M322 1434v-1254h157v-180h-348v1434h191zM567 600q-58 0 -98.5 40t-40.5 97q0 58 40 97.5t99 39.5q60 0 100 -39t40 -98q0 -57 -40 -97t-100 -40z" />
    <glyph glyph-name="lslash.ss07" horiz-adv-x="538" 
d="M322 180h157v-180h-348v686l-139 -63v174l139 63v574h191v-486l141 66v-174l-141 -66v-594z" />
    <glyph glyph-name="m.ss08" horiz-adv-x="1781" 
d="M1649 999v-999h-189v819h-475v-819h-188v819h-475v-819h-191v999h1518z" />
    <glyph glyph-name="n.ss09" horiz-adv-x="1153" 
d="M1022 999v-999h-188v819h-512v-819h-191v999h891z" />
    <glyph glyph-name="nacute.ss09" horiz-adv-x="1153" 
d="M870 1413l-221 -297h-176l168 297h229zM1022 999v-999h-188v819h-512v-819h-191v999h891z" />
    <glyph glyph-name="ncaron.ss09" horiz-adv-x="1153" 
d="M471 1116l-188 297h168l124 -174l125 174h170l-190 -297h-209zM131 999h891v-999h-188v819h-512v-819h-191v999z" />
    <glyph glyph-name="uni0146.ss09" horiz-adv-x="1153" 
d="M1022 999v-999h-188v819h-512v-819h-191v999h891zM733 -145l-223 -297h-176l170 297h229z" />
    <glyph glyph-name="eng.ss09" horiz-adv-x="1144" 
d="M131 999h891v-1067q0 -165 -78.5 -252.5t-222.5 -87.5q-27 0 -74 7l23 170q10 -2 35 -2q129 0 129 182v870h-512v-819h-191v999z" />
    <glyph glyph-name="ntilde.ss09" horiz-adv-x="1153" 
d="M201 1155q7 111 70 179.5t151 68.5q54 0 111.5 -29.5t104.5 -58.5t75 -29q37 0 61.5 31t24.5 80l153 -25q-9 -109 -72.5 -178.5t-150.5 -69.5q-44 0 -89.5 18.5t-77 40t-66.5 40t-60 18.5q-37 0 -59 -31t-21 -82zM1022 999v-999h-188v819h-512v-819h-191v999h891z" />
    <glyph glyph-name="o.ss10" horiz-adv-x="1153" 
d="M1020 999v-999h-889v999h889zM831 819h-512v-639h512v639z" />
    <glyph glyph-name="oacute.ss10" horiz-adv-x="1153" 
d="M870 1413l-221 -297h-176l168 297h229zM1020 999v-999h-889v999h889zM831 819h-512v-639h512v639z" />
    <glyph glyph-name="obreve.ss10" horiz-adv-x="1153" 
d="M889 1419q0 -141 -88 -228t-223 -87q-136 0 -224.5 87t-89.5 228h146q1 -83 48.5 -134.5t119.5 -51.5q71 0 117.5 51.5t47.5 134.5h146zM1020 999v-999h-889v999h889zM831 819h-512v-639h512v639z" />
    <glyph glyph-name="ocircumflex.ss10" horiz-adv-x="1153" 
d="M575 1303l-124 -175h-168l188 297h209l190 -297h-170zM131 999h889v-999h-889v999zM831 180v639h-512v-639h512z" />
    <glyph glyph-name="odieresis.ss10" horiz-adv-x="1153" 
d="M401 1448q52 0 90.5 -38t38.5 -89q0 -52 -38 -89.5t-91 -37.5q-51 0 -89 37.5t-38 89.5q0 51 38 89t89 38zM754 1448q51 0 89 -38t38 -89q0 -52 -38 -89.5t-89 -37.5q-53 0 -91 37.5t-38 89.5q0 51 38.5 89t90.5 38zM1020 999v-999h-889v999h889zM831 819h-512v-639h512
v639z" />
    <glyph glyph-name="ograve.ss10" horiz-adv-x="1153" 
d="M281 1413h231l168 -297h-176zM1020 999v-999h-889v999h889zM831 819h-512v-639h512v639z" />
    <glyph glyph-name="ohungarumlaut.ss10" horiz-adv-x="1153" 
d="M485 1116l136 309h-195l-137 -309h196zM840 1116l135 309h-195l-135 -309h195zM1020 999v-999h-889v999h889zM831 819h-512v-639h512v639z" />
    <glyph glyph-name="omacron.ss10" horiz-adv-x="1153" 
d="M250 1139v153h655v-153h-655zM1020 999v-999h-889v999h889zM831 819h-512v-639h512v639z" />
    <glyph glyph-name="oslash.ss10" horiz-adv-x="1153" 
d="M131 999h889v-999h-889v999zM774 819h-455v-536zM373 180h458v537z" />
    <glyph glyph-name="otilde.ss10" horiz-adv-x="1153" 
d="M201 1155q7 111 70 179.5t151 68.5q54 0 111.5 -29.5t104.5 -58.5t75 -29q37 0 61.5 31t24.5 80l153 -25q-9 -109 -72.5 -178.5t-150.5 -69.5q-44 0 -89.5 18.5t-77 40t-66.5 40t-60 18.5q-37 0 -59 -31t-21 -82zM1020 999v-999h-889v999h889zM831 819h-512v-639h512v639
z" />
    <glyph glyph-name="oe.ss10" horiz-adv-x="1970" 
d="M1894 524q0 -43 -4 -75h-800q18 -137 104.5 -218t224.5 -81q105 0 181.5 47.5t95.5 126.5h188q-28 -156 -158 -250t-311 -94q-120 0 -222.5 48t-172.5 134v-162h-889v999h889v-161q70 86 172 134t219 48q203 0 343 -141t140 -355zM1096 608h596q-14 106 -93 173t-196 67
t-199 -64t-108 -176zM831 180v639h-512v-639h512z" />
    <glyph glyph-name="r.ss11" horiz-adv-x="727" 
d="M678 999v-180h-359v-819h-188v999h547z" />
    <glyph glyph-name="racute.ss11" horiz-adv-x="727" 
d="M688 1413l-221 -297h-176l168 297h229zM678 999v-180h-359v-819h-188v999h547z" />
    <glyph glyph-name="rcaron.ss11" horiz-adv-x="727" 
d="M289 1116l-189 297h168l125 -174l125 174h170l-190 -297h-209zM131 0v999h547v-180h-359v-819h-188z" />
    <glyph glyph-name="uni0157.ss11" horiz-adv-x="727" 
d="M678 999v-180h-359v-819h-188v999h547zM373 -145l-223 -297h-177l170 297h230z" />
    <glyph glyph-name="s.ss12" horiz-adv-x="901" 
d="M467 0h-361v156h367q88 0 136 34t48 97q0 42 -32 70.5t-83.5 44.5t-113.5 29.5t-124.5 32.5t-114 47.5t-83.5 81t-32 126.5q0 132 96 206t266 74h340v-155h-362q-72 0 -112 -29t-40 -82q0 -36 24.5 -63t65 -41.5t92 -30t105.5 -27.5t105.5 -35t92 -52t65 -78.5
t24.5 -114.5q0 -135 -97 -213t-272 -78z" />
    <glyph glyph-name="sacute.ss12" horiz-adv-x="901" 
d="M764 1413l-221 -297h-176l168 297h229zM467 0h-361v156h367q88 0 136 34t48 97q0 42 -32 70.5t-83.5 44.5t-113.5 29.5t-124.5 32.5t-114 47.5t-83.5 81t-32 126.5q0 132 96 206t266 74h340v-155h-362q-72 0 -112 -29t-40 -82q0 -36 24.5 -63t65 -41.5t92 -30
t105.5 -27.5t105.5 -35t92 -52t65 -78.5t24.5 -114.5q0 -135 -97 -213t-272 -78z" />
    <glyph glyph-name="scaron.ss12" horiz-adv-x="901" 
d="M365 1116l-189 297h168l125 -174l125 174h170l-191 -297h-208zM262 733q0 -36 24.5 -63t65 -41.5t92 -30t105.5 -27.5t105.5 -35t92 -52t65 -78.5t24.5 -114.5q0 -135 -97 -213t-272 -78h-361v156h367q88 0 136 34t48 97q0 42 -32 70.5t-83.5 44.5t-113.5 29.5
t-124.5 32.5t-114 47.5t-83.5 81t-32 126.5q0 132 96 206t266 74h340v-155h-362q-72 0 -112 -29t-40 -82z" />
    <glyph glyph-name="scedilla.ss12" horiz-adv-x="901" 
d="M836 291q0 -122 -79.5 -198t-224.5 -89q61 -65 86 -133.5t12.5 -124.5t-50.5 -100t-105 -67t-149 -19l-45 137q113 5 165 49t37 111.5t-90 142.5h-287v156h367q88 0 136 34t48 97q0 42 -32 70.5t-83.5 44.5t-113.5 29.5t-124.5 32.5t-114 47.5t-83.5 81t-32 126.5
q0 132 96 206t266 74h340v-155h-362q-72 0 -112 -29t-40 -82q0 -36 24.5 -63t65 -41.5t92 -30t105.5 -27.5t105.5 -35t92 -52t65 -78.5t24.5 -114.5z" />
    <glyph glyph-name="scircumflex.ss12" horiz-adv-x="901" 
d="M469 1303l-125 -175h-168l189 297h208l191 -297h-170zM262 733q0 -36 24.5 -63t65 -41.5t92 -30t105.5 -27.5t105.5 -35t92 -52t65 -78.5t24.5 -114.5q0 -135 -97 -213t-272 -78h-361v156h367q88 0 136 34t48 97q0 42 -32 70.5t-83.5 44.5t-113.5 29.5t-124.5 32.5
t-114 47.5t-83.5 81t-32 126.5q0 132 96 206t266 74h340v-155h-362q-72 0 -112 -29t-40 -82z" />
    <glyph glyph-name="uni0219.ss12" horiz-adv-x="901" 
d="M467 0h-361v156h367q88 0 136 34t48 97q0 42 -32 70.5t-83.5 44.5t-113.5 29.5t-124.5 32.5t-114 47.5t-83.5 81t-32 126.5q0 132 96 206t266 74h340v-155h-362q-72 0 -112 -29t-40 -82q0 -36 24.5 -63t65 -41.5t92 -30t105.5 -27.5t105.5 -35t92 -52t65 -78.5
t24.5 -114.5q0 -135 -97 -213t-272 -78zM606 -145l-223 -297h-176l170 297h229z" />
    <glyph glyph-name="t.ss13" horiz-adv-x="731" 
d="M688 999v-180h-233v-819h-189v819h-235v180h235v269h189v-269h233z" />
    <glyph glyph-name="tbar.ss13" horiz-adv-x="731" 
d="M688 819h-233v-282h172v-117h-172v-420h-189v420h-176v117h176v282h-235v180h235v269h189v-269h233v-180z" />
    <glyph glyph-name="tcaron.ss13" horiz-adv-x="731" 
d="M608 1540h201l-86 -424h-156zM455 1268v-269h233v-180h-233v-819h-189v819h-235v180h235v269h189z" />
    <glyph glyph-name="uni0163.ss13" horiz-adv-x="731" 
d="M688 819h-233v-801q67 -66 96 -136t18.5 -128t-48 -104t-105.5 -70t-152 -20l-45 137q85 4 136 30.5t63.5 68.5t-9.5 95t-77 109h-66v819h-235v180h235v269h189v-269h233v-180z" />
    <glyph glyph-name="uni021B.ss13" horiz-adv-x="731" 
d="M455 999h233v-180h-233v-819h-189v819h-235v180h235v269h189v-269zM119 -442l170 297h229l-223 -297h-176z" />
    <glyph glyph-name="u.ss14" horiz-adv-x="1193" 
d="M1057 999v-538q0 -215 -127.5 -348t-333.5 -133q-204 0 -331.5 133t-127.5 348v538h187v-538q0 -136 74.5 -218.5t197.5 -82.5q124 0 198 82t74 219v538h189z" />
    <glyph glyph-name="uacute.ss14" horiz-adv-x="1193" 
d="M893 1413l-221 -297h-176l168 297h229zM1057 999v-538q0 -215 -127.5 -348t-333.5 -133q-204 0 -331.5 133t-127.5 348v538h187v-538q0 -136 74.5 -218.5t197.5 -82.5q124 0 198 82t74 219v538h189z" />
    <glyph glyph-name="ucircumflex.ss14" horiz-adv-x="1193" 
d="M598 1303l-125 -175h-168l189 297h208l191 -297h-170zM868 999h189v-538q0 -215 -127.5 -348t-333.5 -133q-204 0 -331.5 133t-127.5 348v538h187v-538q0 -136 74.5 -218.5t197.5 -82.5q124 0 198 82t74 219v538z" />
    <glyph glyph-name="udieresis.ss14" horiz-adv-x="1193" 
d="M422 1448q52 0 90.5 -38t38.5 -89q0 -52 -38 -89.5t-91 -37.5q-51 0 -89 37.5t-38 89.5q0 51 38 89t89 38zM774 1448q51 0 89 -38t38 -89q0 -52 -38 -89.5t-89 -37.5q-53 0 -91 37.5t-38 89.5q0 51 38.5 89t90.5 38zM1057 999v-538q0 -215 -127.5 -348t-333.5 -133
q-204 0 -331.5 133t-127.5 348v538h187v-538q0 -136 74.5 -218.5t197.5 -82.5q124 0 198 82t74 219v538h189z" />
    <glyph glyph-name="ugrave.ss14" horiz-adv-x="1193" 
d="M303 1413h232l167 -297h-176zM1057 999v-538q0 -215 -127.5 -348t-333.5 -133q-204 0 -331.5 133t-127.5 348v538h187v-538q0 -136 74.5 -218.5t197.5 -82.5q124 0 198 82t74 219v538h189z" />
    <glyph glyph-name="uhungarumlaut.ss14" horiz-adv-x="1193" 
d="M506 1116l135 309h-195l-137 -309h197zM860 1116l135 309h-194l-135 -309h194zM1057 999v-538q0 -215 -127.5 -348t-333.5 -133q-204 0 -331.5 133t-127.5 348v538h187v-538q0 -136 74.5 -218.5t197.5 -82.5q124 0 198 82t74 219v538h189z" />
    <glyph glyph-name="umacron.ss14" horiz-adv-x="1193" 
d="M270 1139v153h656v-153h-656zM1057 999v-538q0 -215 -127.5 -348t-333.5 -133q-204 0 -331.5 133t-127.5 348v538h187v-538q0 -136 74.5 -218.5t197.5 -82.5q124 0 198 82t74 219v538h189z" />
    <glyph glyph-name="uogonek.ss14" horiz-adv-x="1193" 
d="M868 999h189v-538q0 -179 -90.5 -303.5t-243.5 -163.5q-69 -24 -109.5 -67.5t-40.5 -96.5q0 -37 27 -61.5t72 -24.5q53 0 98 23l47 -125q-81 -43 -201 -43q-93 0 -150.5 54t-57.5 138q0 111 92 197q-165 31 -264 158t-99 315v538h187v-538q0 -136 74.5 -218.5
t197.5 -82.5q124 0 198 82t74 219v538z" />
    <glyph glyph-name="uring.ss14" horiz-adv-x="1193" 
d="M598 1110q-111 0 -184.5 70.5t-73.5 177.5q0 106 74 177t184 71t185 -71t75 -177q0 -107 -74.5 -177.5t-185.5 -70.5zM598 1225q60 0 98.5 38t38.5 95q0 56 -39 94.5t-98 38.5q-58 0 -97.5 -38.5t-39.5 -94.5q0 -57 39 -95t98 -38zM1057 999v-538q0 -215 -127.5 -348
t-333.5 -133q-204 0 -331.5 133t-127.5 348v538h187v-538q0 -136 74.5 -218.5t197.5 -82.5q124 0 198 82t74 219v538h189z" />
    <glyph glyph-name="utilde.ss14" horiz-adv-x="1193" 
d="M221 1155q7 111 70 179.5t151 68.5q54 0 111.5 -29.5t104.5 -58.5t75 -29q37 0 61.5 31t24.5 80l154 -25q-9 -109 -72.5 -178.5t-150.5 -69.5q-44 0 -89.5 18.5t-77 40t-66.5 40t-60 18.5q-37 0 -59 -31t-21 -82zM1057 999v-538q0 -215 -127.5 -348t-333.5 -133
q-204 0 -331.5 133t-127.5 348v538h187v-538q0 -136 74.5 -218.5t197.5 -82.5q124 0 198 82t74 219v538h189z" />
    <glyph glyph-name="u.ss15" horiz-adv-x="1153" 
d="M1022 0h-891v999h191v-819h512v819h188v-999z" />
    <glyph glyph-name="uacute.ss15" horiz-adv-x="1153" 
d="M872 1413l-221 -297h-176l168 297h229zM1022 0h-891v999h191v-819h512v819h188v-999z" />
    <glyph glyph-name="ucircumflex.ss15" horiz-adv-x="1153" 
d="M578 1303l-125 -175h-168l188 297h209l190 -297h-170zM834 999h188v-999h-891v999h191v-819h512v819z" />
    <glyph glyph-name="udieresis.ss15" horiz-adv-x="1153" 
d="M401 1448q52 0 90.5 -38t38.5 -89q0 -52 -38 -89.5t-91 -37.5q-51 0 -89 37.5t-38 89.5q0 51 38 89t89 38zM754 1448q51 0 89 -38t38 -89q0 -52 -38 -89.5t-89 -37.5q-53 0 -91 37.5t-38 89.5q0 51 38.5 89t90.5 38zM1022 0h-891v999h191v-819h512v819h188v-999z" />
    <glyph glyph-name="ugrave.ss15" horiz-adv-x="1153" 
d="M283 1413h231l168 -297h-176zM1022 0h-891v999h191v-819h512v819h188v-999z" />
    <glyph glyph-name="uhungarumlaut.ss15" horiz-adv-x="1153" 
d="M485 1116l136 309h-195l-137 -309h196zM840 1116l135 309h-195l-135 -309h195zM1022 0h-891v999h191v-819h512v819h188v-999z" />
    <glyph glyph-name="umacron.ss15" horiz-adv-x="1153" 
d="M250 1139v153h655v-153h-655zM1022 0h-891v999h191v-819h512v819h188v-999z" />
    <glyph glyph-name="uogonek.ss15" horiz-adv-x="1153" 
d="M760 0q-76 -24 -121 -69t-45 -101q0 -38 26.5 -62t71.5 -24q54 0 99 23l47 -125q-81 -43 -201 -43q-93 0 -151 54t-58 138q0 119 104 209h-401v999h191v-819h512v819h188v-999h-262z" />
    <glyph glyph-name="uring.ss15" horiz-adv-x="1153" 
d="M578 1110q-111 0 -185 70.5t-74 177.5q0 106 74.5 177t184.5 71t185 -71t75 -177q0 -107 -74.5 -177.5t-185.5 -70.5zM578 1225q60 0 98.5 38t38.5 95q0 56 -39 94.5t-98 38.5q-58 0 -98 -38.5t-40 -94.5q0 -57 39.5 -95t98.5 -38zM1022 0h-891v999h191v-819h512v819h188
v-999z" />
    <glyph glyph-name="utilde.ss15" horiz-adv-x="1153" 
d="M201 1155q7 111 70 179.5t151 68.5q54 0 111.5 -29.5t104.5 -58.5t75 -29q37 0 61.5 31t24.5 80l153 -25q-9 -109 -72.5 -178.5t-150.5 -69.5q-44 0 -89.5 18.5t-77 40t-66.5 40t-60 18.5q-37 0 -59 -31t-21 -82zM1022 0h-891v999h191v-819h512v819h188v-999z" />
    <glyph glyph-name="uni00CD00A40301" horiz-adv-x="1128" 
d="M539 1847l-222 -297h-176l168 297h230zM1190 1847l-221 -297h-176l168 297h229zM145 1434h199v-1434h-199v1434zM539 170q12 -2 43 -2q106 0 159.5 64.5t53.5 203.5v998h198v-1047q0 -191 -96.5 -298t-261.5 -107q-49 0 -96 6v182z" />
    <glyph glyph-name="T_h.dlig" horiz-adv-x="2316" 
d="M1765 1020q193 0 305.5 -121t112.5 -328v-571h-188v551q0 131 -74.5 210t-198.5 79q-126 0 -201 -79t-75 -210v-551h-191v1245h-546v-1245h-199v1245h-455v189h1391v-609q48 93 130.5 144t188.5 51z" />
    <glyph glyph-name="T_i.dlig" horiz-adv-x="1486" 
d="M1163 1434v-189h-454v-1245h-199v1245h-455v189h1108zM1165 999h189v-999h-189v999z" />
    <glyph glyph-name="f_f.dlig" horiz-adv-x="1386" 
d="M1266 1288q-199 0 -199 -190v-99h270v-180h-270v-819h-188v819h-449v-819h-188v819h-195v180h195v101q0 179 94 272.5t256 93.5q60 0 110 -12v-174q-31 8 -71 8q-201 0 -201 -190v-99h449v101q0 179 94 272.5t256 93.5q61 0 108 -12v-174q-27 8 -71 8z" />
    <glyph glyph-name="f_f_i.dlig" horiz-adv-x="1812" 
d="M1681 999v-999h-188v819h-426v-819h-188v819h-449v-819h-188v819h-195v180h195v101q0 179 94 272.5t256 93.5q60 0 110 -12v-174q-31 8 -71 8q-201 0 -201 -190v-99h449v101q0 179 94 272.5t256 93.5q61 0 108 -12v-174q-27 8 -71 8q-199 0 -199 -190v-99h614z" />
    <glyph glyph-name="f_f_t.dlig" horiz-adv-x="2019" 
d="M1956 819h-270v-461q0 -192 198 -192q45 0 72 8v-174q-46 -12 -111 -12q-162 0 -255 93.5t-93 272.5v465h-430v-819h-188v819h-449v-819h-188v819h-195v180h195v101q0 179 94 272.5t256 93.5q60 0 110 -12v-174q-31 8 -71 8q-201 0 -201 -190v-99h449v101q0 179 94 272.5
t256 93.5q61 0 108 -12v-174q-27 8 -71 8q-199 0 -199 -190v-99h430v271h189v-271h270v-180z" />
    <glyph glyph-name="f_i.dlig" horiz-adv-x="1177" 
d="M1044 999v-999h-188v819h-426v-819h-188v819h-195v180h195v101q0 179 94 272.5t256 93.5q60 0 110 -12v-174q-31 8 -71 8q-201 0 -201 -190v-99h614z" />
    <glyph glyph-name="f_l.dlig" horiz-adv-x="1177" 
d="M856 1434h188v-1434h-188v819h-426v-819h-188v819h-195v180h195v101q0 179 94 272.5t256 93.5q60 0 110 -12v-174q-31 8 -71 8q-201 0 -201 -190v-99h426v435z" />
    <glyph glyph-name="f_t.dlig" horiz-adv-x="1382" 
d="M1319 819h-270v-461q0 -192 200 -192q43 0 70 8v-174q-47 -12 -109 -12q-162 0 -256 93.5t-94 272.5v465h-430v-819h-188v819h-195v180h195v101q0 179 94 272.5t256 93.5q60 0 110 -12v-174q-31 8 -71 8q-201 0 -201 -190v-99h430v271h189v-271h270v-180z" />
    <glyph glyph-name="A.sinf" horiz-adv-x="821" 
d="M670 0l-72 184h-377l-71 -184h-138l342 860h111l344 -860h-139zM264 295h291l-145 369z" />
    <glyph glyph-name="B.sinf" horiz-adv-x="724" 
d="M84 0v860h309q104 0 178 -65t74 -156q0 -64 -38 -117.5t-95 -66.5q76 -10 126 -71.5t50 -143.5q0 -101 -76 -170.5t-182 -69.5h-346zM213 496h174q54 0 91.5 36.5t37.5 88.5q0 47 -38 81.5t-91 34.5h-174v-241zM213 123h207q58 0 97.5 39.5t39.5 97.5q0 57 -40 96t-97 39
h-207v-272z" />
    <glyph glyph-name="C.sinf" horiz-adv-x="935" 
d="M483 -12q-183 0 -306.5 127.5t-123.5 316.5q0 186 123.5 313t306.5 127q148 0 261.5 -85t136.5 -214h-144q-23 77 -93.5 126t-160.5 49q-126 0 -211.5 -92t-85.5 -224q0 -135 85.5 -227t211.5 -92q93 0 163.5 51.5t90.5 134.5h146q-26 -138 -137.5 -224.5t-262.5 -86.5z
" />
    <glyph glyph-name="D.sinf" horiz-adv-x="841" 
d="M362 860q182 0 304 -121t122 -305q0 -186 -122 -310t-304 -124h-278v860h278zM371 123q123 0 204.5 88.5t81.5 222.5q0 132 -81.5 217.5t-204.5 85.5h-158v-614h158z" />
    <glyph glyph-name="E.sinf" horiz-adv-x="643" 
d="M84 860h500v-123h-371v-221h330v-125h-330v-268h371v-123h-500v860z" />
    <glyph glyph-name="F.sinf" horiz-adv-x="624" 
d="M84 860h500v-123h-371v-237h330v-123h-330v-377h-129v860z" />
    <glyph glyph-name="G.sinf" horiz-adv-x="952" 
d="M895 465q4 -46 4 -66q0 -179 -117.5 -295t-296.5 -116q-184 0 -308 127.5t-124 316.5q0 186 125 313t309 127q139 0 255.5 -82t142.5 -196h-146q-24 67 -96.5 110.5t-155.5 43.5q-127 0 -214 -91t-87 -225q0 -136 88.5 -227.5t221.5 -91.5q115 0 189.5 70.5t76.5 170.5v4
h-270v107h403z" />
    <glyph glyph-name="H.sinf" horiz-adv-x="862" 
d="M649 860h129v-860h-129v385h-436v-385h-129v860h129v-352h436v352z" />
    <glyph glyph-name="I.sinf" horiz-adv-x="296" 
d="M84 860h129v-860h-129v860z" />
    <glyph glyph-name="J.sinf" horiz-adv-x="387" 
d="M31 113h24q127 0 127 151v596h127v-627q0 -114 -59 -178.5t-158 -64.5q-43 0 -61 4v119z" />
    <glyph glyph-name="K.sinf" horiz-adv-x="786" 
d="M762 0h-172l-377 422v-422h-129v860h129v-379l350 379h164l-379 -407z" />
    <glyph glyph-name="L.sinf" horiz-adv-x="671" 
d="M84 860h129v-737h418v-123h-547v860z" />
    <glyph glyph-name="M.sinf" horiz-adv-x="1058" 
d="M84 0v860h154l299 -670l305 670h133v-860h-129v604l-273 -604h-94l-266 604v-604h-129z" />
    <glyph glyph-name="N.sinf" horiz-adv-x="839" 
d="M84 860h115l428 -612v612h131v-860h-115l-430 612v-612h-129v860z" />
    <glyph glyph-name="O.sinf" horiz-adv-x="976" 
d="M487 872q186 0 312.5 -127t126.5 -313q0 -189 -126 -316.5t-313 -127.5q-185 0 -309.5 127.5t-124.5 316.5q0 186 125 313t309 127zM487 748q-127 0 -214 -91t-87 -225t87 -226.5t214 -92.5q129 0 216.5 92t87.5 227q0 132 -87.5 224t-216.5 92z" />
    <glyph glyph-name="P.sinf" horiz-adv-x="722" 
d="M414 860q115 0 191.5 -74t76.5 -184q0 -112 -76 -186t-192 -74h-201v-342h-129v860h330zM414 465q58 0 97.5 39.5t39.5 97.5q0 57 -39.5 96t-97.5 39h-201v-272h201z" />
    <glyph glyph-name="Q.sinf" horiz-adv-x="976" 
d="M926 432q0 -177 -115 -305l109 -127h-136l-51 59q-110 -71 -246 -71q-185 0 -309.5 127.5t-124.5 316.5q0 186 125 313t309 127q186 0 312.5 -127t126.5 -313zM487 113q91 0 162 47l-203 237h138l141 -168q66 89 66 203q0 132 -87.5 224t-216.5 92q-127 0 -214 -91
t-87 -225t87 -226.5t214 -92.5z" />
    <glyph glyph-name="R.sinf" horiz-adv-x="759" 
d="M729 0h-156l-221 352h-139v-352h-129v860h319q108 0 185.5 -73.5t77.5 -178.5q0 -91 -48 -155t-129 -88zM213 735v-270h178q61 0 102.5 39t41.5 98q0 57 -41 95t-103 38h-178z" />
    <glyph glyph-name="S.sinf" horiz-adv-x="731" 
d="M373 -12q-137 0 -226.5 81t-89.5 205h127q0 -73 53.5 -119t135.5 -46q77 0 127.5 37.5t50.5 95.5q0 42 -26.5 70.5t-69 44t-94 28t-103.5 29.5t-94.5 41t-69 69t-26.5 109q0 104 81.5 171.5t206.5 67.5q140 0 217.5 -76t77.5 -188h-131q-2 62 -48.5 102t-119.5 40
q-69 0 -112 -32t-43 -83q0 -35 21 -59.5t54.5 -37t77 -25.5t89 -22.5t89 -29t77 -44.5t54.5 -70t21 -105q0 -105 -85.5 -179.5t-221.5 -74.5z" />
    <glyph glyph-name="T.sinf" horiz-adv-x="731" 
d="M700 860v-123h-268v-737h-131v737h-268v123h667z" />
    <glyph glyph-name="U.sinf" horiz-adv-x="833" 
d="M416 -12q-142 0 -237 96.5t-95 241.5v534h129v-534q0 -91 58.5 -152t144.5 -61q88 0 146.5 61t58.5 152v534h129v-534q0 -145 -95 -241.5t-239 -96.5z" />
    <glyph glyph-name="V.sinf" horiz-adv-x="792" 
d="M16 860h140l241 -655l242 655h135l-323 -860h-109z" />
    <glyph glyph-name="W.sinf" horiz-adv-x="1249" 
d="M1096 860h137l-287 -860h-108l-213 614l-209 -614h-109l-291 860h140l206 -649l220 649h92l217 -649z" />
    <glyph glyph-name="X.sinf" horiz-adv-x="778" 
d="M760 0h-152l-219 330l-221 -330h-152l297 444l-278 416h155l199 -301l201 301h151l-276 -414z" />
    <glyph glyph-name="Y.sinf" horiz-adv-x="792" 
d="M16 860h158l225 -352l226 352h151l-313 -481v-379h-129v379z" />
    <glyph glyph-name="Z.sinf" horiz-adv-x="722" 
d="M61 860h617v-90l-471 -647h475v-123h-647v90l473 647h-447v123z" />
    <glyph glyph-name="a.sinf" horiz-adv-x="755" 
d="M557 600h123v-600h-123v117q-68 -129 -221 -129q-121 0 -206 91t-85 220q0 131 85 222t206 91q153 0 221 -129v117zM362 106q83 0 139 55t56 138q0 85 -56 141t-139 56t-140.5 -57.5t-57.5 -139.5q0 -80 57.5 -136.5t140.5 -56.5z" />
    <glyph glyph-name="b.sinf" horiz-adv-x="755" 
d="M422 612q120 0 204.5 -91.5t84.5 -221.5q0 -128 -84 -219.5t-205 -91.5q-76 0 -133 34.5t-90 96.5v-119h-123v860h123v-381q33 64 90 98.5t133 34.5zM395 106q82 0 139.5 56.5t57.5 136.5q0 82 -57.5 139.5t-139.5 57.5q-83 0 -139.5 -56t-56.5 -141q0 -83 55.5 -138
t140.5 -55z" />
    <glyph glyph-name="c.sinf" horiz-adv-x="684" 
d="M354 -12q-131 0 -220 89.5t-89 221.5t89.5 222.5t219.5 90.5q108 0 190 -63.5t95 -159.5h-125q-12 46 -57.5 75.5t-102.5 29.5q-80 0 -134 -56t-54 -139q0 -81 55 -137t133 -56q58 0 104 30t56 79h125q-12 -99 -94 -163t-191 -64z" />
    <glyph glyph-name="d.sinf" horiz-adv-x="755" 
d="M557 860h123v-860h-123v117q-68 -129 -221 -129q-121 0 -206 91t-85 220q0 131 85 222t206 91q153 0 221 -129v377zM362 106q83 0 139 55t56 138q0 85 -56 141t-139 56t-140.5 -57.5t-57.5 -139.5q0 -80 57.5 -136.5t140.5 -56.5z" />
    <glyph glyph-name="e.sinf" horiz-adv-x="688" 
d="M643 324q0 -29 -2 -43h-483q5 -83 59 -137t133 -54q64 0 109.5 29.5t56.5 75.5h121q-17 -93 -95.5 -150t-187.5 -57q-131 0 -220 91t-89 224q0 130 89 219.5t218 89.5q122 0 206.5 -83.5t84.5 -204.5zM166 362h348q-3 64 -51 107t-115 43t-116 -40t-66 -110z" />
    <glyph glyph-name="f.sinf" horiz-adv-x="456" 
d="M385 766q-56 0 -86.5 -29t-30.5 -84v-53h160v-117h-160v-483h-125v483h-114v117h114v55q0 110 58.5 168t158.5 58q33 0 68 -7v-114q-21 6 -43 6z" />
    <glyph glyph-name="g.sinf" horiz-adv-x="755" 
d="M557 600h123v-577q0 -125 -85 -200t-218 -75q-49 0 -98 11.5t-94 35.5t-74 68t-31 102h121q3 -52 52.5 -83.5t119.5 -31.5q78 0 131 47t53 119v113q-67 -125 -221 -125q-121 0 -206 88.5t-85 214.5q0 127 84.5 216t206.5 89q74 0 131 -33t90 -94v115zM362 115
q83 0 139 55t56 137q0 83 -56 138t-139 55q-82 0 -140 -56.5t-58 -136.5t57.5 -136t140.5 -56z" />
    <glyph glyph-name="h.sinf" horiz-adv-x="712" 
d="M387 612q115 0 182.5 -72.5t67.5 -197.5v-342h-123v328q0 75 -43 120.5t-113 45.5q-72 0 -115.5 -45.5t-43.5 -120.5v-328h-123v860h123v-362q62 114 188 114z" />
    <glyph glyph-name="i.sinf" horiz-adv-x="278" 
d="M139 872q33 0 57.5 -23.5t24.5 -55.5q0 -33 -24.5 -57.5t-57.5 -24.5q-34 0 -58 24t-24 58q0 32 24 55.5t58 23.5zM78 600h123v-600h-123v600z" />
    <glyph glyph-name="j.sinf" horiz-adv-x="276" 
d="M137 872q33 0 57.5 -23.5t24.5 -55.5q0 -33 -24.5 -57.5t-57.5 -24.5q-32 0 -56 24t-24 58q0 32 24 55.5t56 23.5zM-16 -129h16q76 0 76 104v625h123v-637q0 -95 -49 -150t-140 -55h-26v113z" />
    <glyph glyph-name="k.sinf" horiz-adv-x="645" 
d="M629 0h-162l-268 285v-285h-123v860h123v-524l256 264h155l-286 -289z" />
    <glyph glyph-name="l.sinf" horiz-adv-x="276" 
d="M199 860v-860h-123v860h123z" />
    <glyph glyph-name="m.sinf" horiz-adv-x="1095" 
d="M774 612q110 0 177 -67t67 -180v-365h-125v338q0 72 -37.5 114t-101.5 42q-60 0 -103 -40t-43 -116v-338h-123v338q0 73 -38 114.5t-103 41.5q-59 0 -102 -38.5t-43 -117.5v-338h-123v600h123v-92q30 54 80 79t106 25q138 0 193 -112q26 52 80 82t116 30z" />
    <glyph glyph-name="n.sinf" horiz-adv-x="712" 
d="M387 612q115 0 182.5 -72.5t67.5 -197.5v-342h-123v328q0 75 -43 120.5t-113 45.5q-72 0 -115.5 -45.5t-43.5 -120.5v-328h-123v600h123v-102q62 114 188 114z" />
    <glyph glyph-name="o.sinf" horiz-adv-x="710" 
d="M354 612q131 0 221.5 -90.5t90.5 -222.5t-90.5 -221.5t-221.5 -89.5t-220 89.5t-89 221.5t89.5 222.5t219.5 90.5zM354 494q-80 0 -134 -56t-54 -139q0 -81 55 -137t133 -56q80 0 135.5 56t55.5 137q0 83 -55.5 139t-135.5 56z" />
    <glyph glyph-name="p.sinf" horiz-adv-x="755" 
d="M422 612q121 0 205 -91t84 -222q0 -129 -84.5 -220t-204.5 -91q-76 0 -133 34.5t-90 96.5v-334h-123v815h123v-121q33 64 90 98.5t133 34.5zM395 106q82 0 139.5 56.5t57.5 136.5q0 82 -57.5 139.5t-139.5 57.5q-83 0 -139.5 -56t-56.5 -141q0 -83 55.5 -138t140.5 -55z
" />
    <glyph glyph-name="q.sinf" horiz-adv-x="755" 
d="M557 600h123v-815h-123v332q-68 -129 -221 -129q-121 0 -206 91t-85 220q0 131 85 222t206 91q153 0 221 -129v117zM362 106q83 0 139 55t56 138q0 85 -56 141t-139 56t-140.5 -57.5t-57.5 -139.5q0 -80 57.5 -136.5t140.5 -56.5z" />
    <glyph glyph-name="r.sinf" horiz-adv-x="446" 
d="M362 612q22 0 58 -8v-112q-28 8 -62 8q-68 0 -113.5 -46.5t-45.5 -123.5v-330h-123v600h123v-86q58 98 163 98z" />
    <glyph glyph-name="s.sinf" horiz-adv-x="573" 
d="M291 -12q-108 0 -177 53t-79 145h115q5 -43 42 -70.5t91 -27.5q56 0 88 23.5t32 62.5q0 34 -26 54t-65.5 26.5t-85.5 17t-85.5 24t-65.5 48.5t-26 90q0 77 61 127.5t160 50.5q95 0 162.5 -48.5t77.5 -131.5h-121q-4 35 -38 58.5t-79 23.5q-49 0 -78.5 -20.5t-29.5 -53.5
q0 -32 26.5 -50t66 -23t85.5 -14.5t85.5 -24t66 -53t26.5 -99.5q0 -81 -66 -134.5t-163 -53.5z" />
    <glyph glyph-name="a.ss01.sinf" horiz-adv-x="620" 
d="M303 612q119 0 185.5 -65t66.5 -174v-373h-115v96q-57 -108 -196 -108q-84 0 -138.5 50t-54.5 126q0 93 78.5 141.5t218.5 48.5h92v27q0 59 -38 95t-99 36q-54 0 -92 -32t-43 -79h-109q6 89 77 150t167 61zM270 86q73 0 121.5 44.5t48.5 105.5v40h-96q-88 0 -135 -26.5
t-47 -77.5q0 -39 29.5 -62.5t78.5 -23.5z" />
    <glyph glyph-name="a.ss02.sinf" horiz-adv-x="630" 
d="M84 600h471v-600h-125v96q-57 -108 -197 -108q-84 0 -137 50.5t-53 125.5q0 93 78.5 141.5t218.5 48.5h90v140h-346v106zM260 86q73 0 121.5 44.5t48.5 105.5v40h-94q-89 0 -136.5 -26.5t-47.5 -77.5q0 -39 29.5 -62.5t78.5 -23.5z" />
    <glyph glyph-name="c.ss03.sinf" horiz-adv-x="632" 
d="M520 483h-321v-364h321v-119h-444v600h444v-117z" />
    <glyph glyph-name="g.ss04.sinf" horiz-adv-x="749" 
d="M551 600h123v-815h-524v102h401v254q-67 -125 -219 -125q-120 0 -203.5 87t-83.5 210q0 125 83.5 212t203.5 87q152 0 219 -125v113zM356 123q83 0 139 54t56 136t-56 136.5t-139 54.5q-82 0 -138 -55.5t-56 -135.5t56 -135t138 -55z" />
    <glyph glyph-name="h.ss05.sinf" horiz-adv-x="690" 
d="M199 860v-260h415v-600h-122v483h-293v-483h-123v860h123z" />
    <glyph glyph-name="j.ss06.sinf" horiz-adv-x="276" 
d="M137 872q34 0 59 -23.5t25 -55.5q0 -33 -25.5 -57.5t-58.5 -24.5q-32 0 -56 24t-24 58q0 32 24 55.5t56 23.5zM199 600v-815h-123v815h123z" />
    <glyph glyph-name="l.ss07.sinf" horiz-adv-x="327" 
d="M199 860v-741h96v-119h-219v860h123z" />
    <glyph glyph-name="m.ss08.sinf" horiz-adv-x="1062" 
d="M987 600v-600h-123v483h-270v-483h-125v483h-270v-483h-123v600h911z" />
    <glyph glyph-name="n.ss09.sinf" horiz-adv-x="690" 
d="M614 600v-600h-122v483h-293v-483h-123v600h538z" />
    <glyph glyph-name="O.ss10.sinf" horiz-adv-x="923" 
d="M711 860h129v-860h-756v860h129v-2h498v2zM213 123h498v612h-498v-612z" />
    <glyph glyph-name="o.ss10.sinf" horiz-adv-x="690" 
d="M614 600v-600h-538v600h538zM489 483h-290v-364h290v364z" />
    <glyph glyph-name="r.ss11.sinf" horiz-adv-x="438" 
d="M412 600v-117h-213v-483h-123v600h336z" />
    <glyph glyph-name="S.ss12.sinf" horiz-adv-x="673" 
d="M315 860h250v-125h-272q-56 0 -90.5 -27t-34.5 -69q0 -33 19.5 -57.5t52 -38.5t73.5 -28t83.5 -25t83.5 -31.5t73.5 -46t52 -69t19.5 -99.5q0 -107 -75.5 -175.5t-213.5 -68.5h-283v125h289q71 0 111.5 32t40.5 87q0 34 -19.5 59.5t-52 39.5t-73.5 27.5t-83.5 24.5
t-83.5 30.5t-73.5 43.5t-52 66.5t-19.5 97.5q0 101 77.5 164t200.5 63z" />
    <glyph glyph-name="s.ss12.sinf" horiz-adv-x="540" 
d="M283 0h-224v94h224q47 0 75.5 20.5t28.5 55.5q0 33 -35.5 53t-86.5 31t-102 26.5t-86.5 52.5t-35.5 95q0 80 59 126t162 46h207v-94h-217q-40 0 -64 -17.5t-24 -48.5q0 -33 35 -53t85 -31.5t100 -27.5t85 -54t35 -98q0 -81 -58.5 -128.5t-162.5 -47.5z" />
    <glyph glyph-name="t.ss13.sinf" horiz-adv-x="444" 
d="M418 600v-117h-137v-483h-123v483h-140v117h140v160h123v-160h137z" />
    <glyph glyph-name="u.ss14.sinf" horiz-adv-x="712" 
d="M635 600v-324q0 -129 -77 -208.5t-202 -79.5q-123 0 -199.5 80t-76.5 208v324h121v-324q0 -76 43 -123t112 -47t112.5 47t43.5 123v324h123z" />
    <glyph glyph-name="u.ss15.sinf" horiz-adv-x="690" 
d="M614 0h-538v600h123v-481h293v481h122v-600z" />
    <glyph glyph-name="D.ss16.sinf" horiz-adv-x="890" 
d="M412 860q182 0 305 -122t123 -304q0 -186 -123 -310t-305 -124h-381v119h102v741h279zM420 123q123 0 205 89t82 222q0 132 -81 217.5t-206 85.5h-158v-614h158z" />
    <glyph glyph-name="J.ss17.sinf" horiz-adv-x="479" 
d="M395 860v-860h-364v123h235v737h129z" />
    <glyph glyph-name="L.ss18.sinf" horiz-adv-x="720" 
d="M262 123h420v-123h-651v119h102v741h129v-737z" />
    <glyph glyph-name="t.sinf" horiz-adv-x="450" 
d="M414 483h-160v-262q0 -112 117 -112q28 0 43 6v-115q-36 -8 -68 -8q-99 0 -157 58.5t-58 168.5v264h-117v117h117v162h123v-162h160v-117z" />
    <glyph glyph-name="G.titl.sinf" horiz-adv-x="1001" 
d="M973 465v-107h-76q-12 -161 -128.5 -265.5t-283.5 -104.5q-184 0 -308 127.5t-124 316.5q0 186 125 313t309 127q139 0 255.5 -82t142.5 -196h-146q-24 67 -96.5 110.5t-155.5 43.5q-127 0 -214 -91t-87 -225q0 -136 88.5 -227.5t221.5 -91.5q113 0 189.5 73.5
t76.5 171.5h-270v107h481z" />
    <glyph glyph-name="I.titl.sinf" horiz-adv-x="428" 
d="M371 743h-92v-624h92v-119h-312v119h91v624h-91v117h312v-117z" />
    <glyph glyph-name="J.titl.sinf" horiz-adv-x="473" 
d="M397 860v-117h-88v-510q0 -114 -59 -178.5t-158 -64.5q-43 0 -61 4v119h24q127 0 127 151v479h-98v117h313z" />
    <glyph glyph-name="T.titl.sinf" horiz-adv-x="731" 
d="M700 737h-268v-618h90v-119h-313v119h92v618h-268v123h667v-123z" />
    <glyph glyph-name="Y.titl.sinf" horiz-adv-x="792" 
d="M463 379v-260h92v-119h-313v119h92v260l-318 481h158l225 -352l226 352h151z" />
    <glyph glyph-name="u.sinf" horiz-adv-x="712" 
d="M514 600h123v-600h-123v100q-61 -112 -188 -112q-116 0 -183 72t-67 196v344h123v-328q0 -75 43 -120.5t114 -45.5q70 0 114 46t44 120v328z" />
    <glyph glyph-name="v.sinf" horiz-adv-x="647" 
d="M629 600l-252 -600h-107l-254 600h136l172 -436l172 436h133z" />
    <glyph glyph-name="w.sinf" horiz-adv-x="966" 
d="M236 0l-220 600h134l135 -414l149 414h98l152 -414l135 414h131l-219 -600h-98l-150 414l-151 -414h-96z" />
    <glyph glyph-name="x.sinf" horiz-adv-x="632" 
d="M612 0h-149l-148 207l-147 -207h-148l222 309l-207 291h147l135 -186l134 186h145l-207 -289z" />
    <glyph glyph-name="y.sinf" horiz-adv-x="641" 
d="M492 600h133l-342 -815h-131l106 240l-242 575h134l169 -434z" />
    <glyph glyph-name="z.sinf" horiz-adv-x="618" 
d="M565 600v-90l-352 -391h354v-119h-532v90l354 393h-328v117h504z" />
    <glyph glyph-name="zero.cv01" horiz-adv-x="1200" 
d="M610 1454q243 0 373.5 -159.5t130.5 -454.5v-246q0 -295 -130.5 -454.5t-373.5 -159.5h-18q-243 0 -374.5 159.5t-131.5 454.5v246q0 295 131.5 454.5t374.5 159.5h18zM592 1264q-151 0 -229 -105t-78 -309v-266q0 -204 78 -309t229 -105h18q151 0 229.5 105t78.5 309
v266q0 204 -78.5 309t-229.5 105h-18z" />
    <glyph glyph-name="two.cv01" horiz-adv-x="1069" 
d="M53 0v111q0 83 20 152.5t54.5 126t96 113t130.5 105t172 111.5q143 86 201.5 152.5t58.5 158.5q0 101 -68.5 168.5t-182.5 67.5q-133 0 -212 -84.5t-75 -223.5h-199q-6 221 133 358.5t357 137.5q196 0 321 -119t125 -301q0 -141 -88 -245t-281 -216q-208 -129 -278 -203
t-70 -180h713v-190h-928z" />
    <glyph glyph-name="three.cv01" horiz-adv-x="1081" 
d="M713 768q120 -18 211.5 -120t91.5 -236q0 -189 -136.5 -310.5t-347.5 -121.5q-210 0 -342 118.5t-135 307.5h185q4 -104 87 -172t205 -68q123 0 205 76t82 186t-86.5 181t-224.5 71h-62v156h56q115 0 188.5 61.5t73.5 157.5q0 89 -67.5 150t-170.5 61
q-112 0 -180.5 -64.5t-73.5 -169.5h-178q-4 120 54.5 217t160 150t223.5 53q117 0 216 -51.5t156 -141t57 -196.5q0 -105 -70.5 -189t-177.5 -106z" />
    <glyph glyph-name="four.cv01" horiz-adv-x="1241" 
d="M1188 467v-188h-182v-279h-199v279h-766v145l707 1010h258v-967h182zM283 467h524v745z" />
    <glyph glyph-name="seven.cv01" horiz-adv-x="1118" 
d="M1071 1434v-138l-627 -1296h-221l608 1245h-581v-219h-199v408h1020z" />
    <glyph glyph-name="zero.tf" horiz-adv-x="1241" 
d="M621 -20q-249 0 -390 199t-141 538q0 341 141 539t390 198q247 0 387.5 -198t140.5 -539q0 -339 -140.5 -538t-387.5 -199zM621 172q155 0 240 140t85 405q0 266 -85 406.5t-240 140.5q-157 0 -242.5 -140.5t-85.5 -406.5q0 -265 85.5 -405t242.5 -140z" />
    <glyph glyph-name="one.tf" horiz-adv-x="1241" 
d="M731 180h373v-180h-957v180h388v983l-326 -272v239l385 304h137v-1254z" />
    <glyph glyph-name="two.tf" horiz-adv-x="1241" 
d="M188 0v143l525 523q117 117 168 197t51 161q0 104 -74 172t-188 68q-133 0 -212 -83.5t-75 -222.5h-199q-6 221 133 358.5t357 137.5q200 0 330.5 -120t130.5 -306q0 -119 -71.5 -236.5t-209.5 -248.5l-352 -353h647v-190h-961z" />
    <glyph glyph-name="three.tf" horiz-adv-x="1241" 
d="M461 829l375 416h-662v189h940v-136l-414 -444q178 12 301 -103t123 -296q0 -209 -140 -342t-357 -133q-198 0 -334.5 110t-155.5 287h197q18 -92 96 -149.5t197 -57.5q129 0 213 81.5t84 207.5q0 77 -38 135.5t-101.5 87.5t-147.5 35t-176 -21v133z" />
    <glyph glyph-name="four.tf" horiz-adv-x="1241" 
d="M1176 494v-181h-183v-313h-196v313h-721v140l520 981h223l-497 -940h475v448h196v-448h183z" />
    <glyph glyph-name="five.tf" horiz-adv-x="1241" 
d="M627 -20q-196 0 -334.5 108.5t-153.5 288.5h197q22 -93 101 -150t190 -57q123 0 207 83.5t84 203.5q0 126 -84 210.5t-207 84.5q-76 0 -142.5 -26t-105.5 -71h-172l65 779h756v-187h-579l-39 -409q39 36 105.5 56.5t137.5 20.5q201 0 334 -128t133 -334q0 -97 -39 -185
t-104.5 -151t-157 -100t-192.5 -37z" />
    <glyph glyph-name="six.tf" horiz-adv-x="1241" 
d="M657 934q195 0 328 -135t133 -336q0 -131 -66 -242t-179 -176t-246 -65q-204 0 -349 142t-145 341q0 75 31 168.5t88 185.5l383 617h225l-338 -531q71 31 135 31zM627 168q126 0 213.5 85.5t87.5 211.5t-87.5 212.5t-215.5 86.5q-126 0 -212.5 -86.5t-86.5 -212.5
t87.5 -211.5t213.5 -85.5z" />
    <glyph glyph-name="seven.tf" horiz-adv-x="1241" 
d="M143 1434h957v-138l-617 -1296h-219l598 1245h-719v189z" />
    <glyph glyph-name="eight.tf" horiz-adv-x="1241" 
d="M621 -18q-210 0 -346 119t-136 302q0 126 75.5 227.5t197.5 141.5q-96 37 -156.5 122t-60.5 183q0 163 120 268t306 105t306 -105t120 -268q0 -98 -61 -183t-157 -122q122 -40 197.5 -141.5t75.5 -227.5q0 -183 -135.5 -302t-345.5 -119zM621 864q103 0 169 57.5
t66 147.5q0 89 -66 146t-169 57t-168.5 -57t-65.5 -146q0 -91 65.5 -148t168.5 -57zM621 166q124 0 205 71.5t81 180.5q0 107 -81 177.5t-205 70.5t-205.5 -70.5t-81.5 -177.5q0 -109 81.5 -180.5t205.5 -71.5z" />
    <glyph glyph-name="nine.tf" horiz-adv-x="1241" 
d="M645 1454q133 0 246.5 -65t179.5 -176t66 -242q0 -76 -30 -170t-87 -185l-383 -616h-225l336 530q-68 -30 -134 -30q-196 0 -328 135t-132 336q0 131 66 242t179 176t246 65zM647 670q126 0 212.5 86.5t86.5 212.5t-87.5 211.5t-213.5 85.5t-213.5 -85.5t-87.5 -211.5
t87.5 -212.5t215.5 -86.5z" />
    <glyph glyph-name="zero.tf.cv01" horiz-adv-x="1241" 
d="M631 1454q243 0 373.5 -159.5t130.5 -454.5v-246q0 -295 -130.5 -454.5t-373.5 -159.5h-19q-243 0 -374.5 159.5t-131.5 454.5v246q0 295 131.5 454.5t374.5 159.5h19zM612 1264q-151 0 -229 -105t-78 -309v-266q0 -204 78 -309t229 -105h19q151 0 229 105t78 309v266
q0 204 -78 309t-229 105h-19z" />
    <glyph glyph-name="two.tf.cv01" horiz-adv-x="1241" 
d="M174 0v111q0 83 20 152.5t54.5 126t96 113t130.5 105t172 111.5q143 86 201.5 152.5t58.5 158.5q0 101 -69 168.5t-183 67.5q-132 0 -211 -84.5t-75 -223.5h-199q-4 147 58.5 260.5t175 174.5t255.5 61q197 0 322 -119.5t125 -300.5q0 -141 -88 -245t-281 -216
q-207 -128 -276.5 -202.5t-69.5 -180.5h711v-190h-928z" />
    <glyph glyph-name="three.tf.cv01" horiz-adv-x="1241" 
d="M819 768q119 -18 210 -120.5t91 -235.5q0 -189 -135.5 -310.5t-347.5 -121.5q-209 0 -340.5 118.5t-134.5 307.5h182q6 -104 89.5 -172t203.5 -68q125 0 207 76t82 186t-87 181t-225 71h-61v156h53q116 0 190 61.5t74 157.5q0 89 -67 150t-170 61q-112 0 -181.5 -64.5
t-72.5 -169.5h-178q-4 120 54.5 217t160 150t223.5 53q179 0 303.5 -113t124.5 -276q0 -105 -70.5 -189t-177.5 -106z" />
    <glyph glyph-name="four.tf.cv01" horiz-adv-x="1241" 
d="M1280 467v-188h-182v-279h-199v279h-766v145l707 1010h258v-967h182zM375 467h524v747z" />
    <glyph glyph-name="seven.tf.cv01" horiz-adv-x="1241" 
d="M1143 1434v-138l-627 -1296h-219l606 1245h-581v-219h-199v408h1020z" />
    <glyph glyph-name="zero.tf.zero" horiz-adv-x="1241" 
d="M621 1454q247 0 387.5 -198t140.5 -539t-140.5 -539t-387.5 -198q-249 0 -390 198t-141 539t141 539t390 198zM621 1264q-157 0 -242.5 -140.5t-85.5 -406.5q0 -142 24 -250l547 651q-84 146 -243 146zM621 170q155 0 240 140.5t85 406.5q0 139 -24 244l-545 -650
q85 -141 244 -141z" />
    <glyph glyph-name="zero.zero" horiz-adv-x="1230" 
d="M616 1454q248 0 388.5 -198.5t140.5 -538.5t-140.5 -538.5t-388.5 -198.5q-249 0 -389.5 198t-140.5 539t140.5 539t389.5 198zM616 1264q-157 0 -242 -140.5t-85 -406.5q0 -142 24 -250l547 651q-84 146 -244 146zM616 170q155 0 240.5 140.5t85.5 406.5q0 138 -24 246
l-545 -650q84 -143 243 -143z" />
    <glyph glyph-name="three.sinf" horiz-adv-x="667" 
d="M217 500l217 237h-387v123h569v-88l-241 -256q105 4 176.5 -66.5t71.5 -175.5q0 -126 -85 -206t-216 -80q-121 0 -204.5 68t-94.5 175h129q11 -52 56.5 -85t113.5 -33q73 0 120 47t47 119q0 88 -80.5 126.5t-191.5 8.5v86z" />
    <glyph glyph-name="four.sinf" horiz-adv-x="720" 
d="M690 307v-121h-106v-186h-129v186h-430v84l309 590h145l-291 -553h267v254h129v-254h106z" />
    <glyph glyph-name="five.sinf" horiz-adv-x="657" 
d="M319 -12q-119 0 -203 65.5t-93 177.5h129q12 -54 57.5 -86t109.5 -32q69 0 117.5 47.5t48.5 115.5q0 72 -48.5 120t-117.5 48q-96 0 -145 -55h-113l41 471h461v-121h-346l-22 -231q54 45 141 45q122 0 201 -76.5t79 -202.5q0 -120 -87 -203t-210 -83z" />
    <glyph glyph-name="six.sinf" horiz-adv-x="659" 
d="M352 563q119 0 198 -81.5t79 -202.5q0 -120 -87.5 -205.5t-209.5 -85.5q-123 0 -210 85.5t-87 205.5q0 98 69 213l230 368h147l-198 -311q40 14 69 14zM332 111q72 0 122 49.5t50 120.5q0 72 -50 122t-122 50t-122 -50t-50 -122q0 -71 50 -120.5t122 -49.5z" />
    <glyph glyph-name="seven.sinf" horiz-adv-x="624" 
d="M18 860h580v-90l-369 -770h-143l354 735h-422v125z" />
    <glyph glyph-name="eight.sinf" horiz-adv-x="657" 
d="M330 -10q-126 0 -209.5 72t-83.5 182q0 72 44 132.5t118 86.5q-56 23 -91.5 73.5t-35.5 108.5q0 98 72.5 161.5t185.5 63.5t185.5 -63.5t72.5 -161.5q0 -56 -34.5 -107t-92.5 -75q71 -23 115.5 -84.5t44.5 -134.5q0 -109 -82.5 -181.5t-208.5 -72.5zM330 516q61 0 100 34
t39 87q0 54 -39 88.5t-100 34.5t-100.5 -34.5t-39.5 -88.5q0 -53 39.5 -87t100.5 -34zM330 104q72 0 120 42t48 108t-47.5 107.5t-120.5 41.5q-74 0 -122 -41.5t-48 -107.5t48 -108t122 -42z" />
    <glyph glyph-name="nine.sinf" horiz-adv-x="659" 
d="M328 872q123 0 211 -85t88 -205q0 -100 -72 -213l-229 -369h-148l199 311q-40 -14 -70 -14q-118 0 -197 81.5t-79 203.5q0 120 87 205t210 85zM330 408q70 0 120 50.5t50 121.5t-50 120.5t-122 49.5t-122 -49.5t-50 -120.5t50.5 -121.5t123.5 -50.5z" />
    <glyph glyph-name="zero.dnom" horiz-adv-x="741" 
d="M371 -12q-150 0 -236 120t-86 322t86 322t236 120t235.5 -119t85.5 -323q0 -203 -85.5 -322.5t-235.5 -119.5zM371 113q89 0 137.5 81t48.5 236t-48.5 236.5t-137.5 81.5q-90 0 -139.5 -81.5t-49.5 -236.5t49.5 -236t139.5 -81z" />
    <glyph glyph-name="zero.sinf" horiz-adv-x="741" 
d="M371 -12q-150 0 -236 120t-86 322t86 322t236 120t235.5 -119t85.5 -323q0 -203 -85.5 -322.5t-235.5 -119.5zM371 113q89 0 137.5 81t48.5 236t-48.5 236.5t-137.5 81.5q-90 0 -139.5 -81.5t-49.5 -236.5t49.5 -236t139.5 -81z" />
    <glyph glyph-name="one.sinf" horiz-adv-x="458" 
d="M375 860v-860h-127v682l-197 -160v156l236 182h88z" />
    <glyph glyph-name="two.sinf" horiz-adv-x="684" 
d="M55 0v94l307 305q72 72 102 117.5t30 93.5q0 60 -43 99t-107 39q-77 0 -122 -48.5t-44 -130.5h-129q-4 135 80.5 219t216.5 84q122 0 201.5 -73t79.5 -187q0 -134 -172 -293l-195 -194h373v-125h-578z" />
    <glyph glyph-name="one.dnom" horiz-adv-x="432" 
d="M375 860v-860h-127v682l-197 -160v156l236 182h88z" />
    <glyph glyph-name="two.dnom" horiz-adv-x="624" 
d="M55 0v94l307 305q72 72 102 117.5t30 93.5q0 60 -43 99t-107 39q-77 0 -122 -48.5t-44 -130.5h-129q-4 135 80.5 219t216.5 84q122 0 201.5 -73t79.5 -187q0 -134 -172 -293l-195 -194h373v-125h-578z" />
    <glyph glyph-name="three.dnom" horiz-adv-x="667" 
d="M217 500l217 237h-387v123h569v-88l-241 -256q105 4 176.5 -66.5t71.5 -175.5q0 -126 -85 -206t-216 -80q-121 0 -204.5 68t-94.5 175h129q11 -52 56.5 -85t113.5 -33q73 0 120 47t47 119q0 88 -80.5 126.5t-191.5 8.5v86z" />
    <glyph glyph-name="four.dnom" horiz-adv-x="720" 
d="M690 307v-121h-106v-186h-129v186h-430v84l309 590h145l-291 -553h267v254h129v-254h106z" />
    <glyph glyph-name="five.dnom" horiz-adv-x="647" 
d="M319 -12q-119 0 -203 65.5t-93 177.5h129q12 -54 57.5 -86t109.5 -32q69 0 117.5 47.5t48.5 115.5q0 72 -48.5 120t-117.5 48q-96 0 -145 -55h-113l41 471h461v-121h-346l-22 -231q54 45 141 45q122 0 201 -76.5t79 -202.5q0 -120 -87 -203t-210 -83z" />
    <glyph glyph-name="six.dnom" horiz-adv-x="663" 
d="M352 563q119 0 198 -81.5t79 -202.5q0 -120 -87.5 -205.5t-209.5 -85.5q-123 0 -210 85.5t-87 205.5q0 98 69 213l230 368h147l-198 -311q40 14 69 14zM332 111q72 0 122 49.5t50 120.5q0 72 -50 122t-122 50t-122 -50t-50 -122q0 -71 50 -120.5t122 -49.5z" />
    <glyph glyph-name="seven.dnom" horiz-adv-x="624" 
d="M18 860h580v-90l-369 -770h-143l354 735h-422v125z" />
    <glyph glyph-name="eight.dnom" horiz-adv-x="657" 
d="M330 -10q-126 0 -209.5 72t-83.5 182q0 72 44 132.5t118 86.5q-56 23 -91.5 73.5t-35.5 108.5q0 98 72.5 161.5t185.5 63.5t185.5 -63.5t72.5 -161.5q0 -56 -34.5 -107t-92.5 -75q71 -23 115.5 -84.5t44.5 -134.5q0 -109 -82.5 -181.5t-208.5 -72.5zM330 516q61 0 100 34
t39 87q0 54 -39 88.5t-100 34.5t-100.5 -34.5t-39.5 -88.5q0 -53 39.5 -87t100.5 -34zM330 104q72 0 120 42t48 108t-47.5 107.5t-120.5 41.5q-74 0 -122 -41.5t-48 -107.5t48 -108t122 -42z" />
    <glyph glyph-name="nine.dnom" horiz-adv-x="659" 
d="M328 872q123 0 211 -85t88 -205q0 -100 -72 -213l-229 -369h-148l199 311q-40 -14 -70 -14q-118 0 -197 81.5t-79 203.5q0 120 87 205t210 85zM330 408q70 0 120 50.5t50 121.5t-50 120.5t-122 49.5t-122 -49.5t-50 -120.5t50.5 -121.5t123.5 -50.5z" />
    <glyph glyph-name="zero.numr" horiz-adv-x="741" 
d="M371 215q-150 0 -236 120t-86 322q0 203 86 323t236 120t235.5 -119.5t85.5 -323.5q0 -203 -85.5 -322.5t-235.5 -119.5zM371 340q89 0 137.5 81t48.5 236t-48.5 236.5t-137.5 81.5q-90 0 -139.5 -81.5t-49.5 -236.5t49.5 -236t139.5 -81z" />
    <glyph glyph-name="one.numr" horiz-adv-x="471" 
d="M375 1434v-861h-127v682l-197 -159v155l236 183h88z" />
    <glyph glyph-name="two.numr" horiz-adv-x="624" 
d="M55 573v95l307 305q72 72 102 117.5t30 93.5q0 59 -43 98t-107 39q-77 0 -122 -48.5t-44 -129.5h-129q-4 135 80.5 219t216.5 84q122 0 201.5 -73t79.5 -187q0 -134 -172 -293l-195 -195h373v-125h-578z" />
    <glyph glyph-name="three.numr" horiz-adv-x="667" 
d="M217 1073l217 238h-387v123h569v-88l-241 -256q105 4 176.5 -66.5t71.5 -175.5q0 -126 -85 -206.5t-216 -80.5q-121 0 -204.5 68.5t-94.5 175.5h129q11 -52 57 -85.5t113 -33.5q73 0 120 47t47 119q0 88 -80.5 126.5t-191.5 8.5v86z" />
    <glyph glyph-name="four.numr" horiz-adv-x="720" 
d="M690 881v-121h-106v-187h-129v187h-430v84l309 590h145l-291 -553h267v254h129v-254h106z" />
    <glyph glyph-name="five.numr" horiz-adv-x="647" 
d="M319 561q-119 0 -203 66t-93 178h129q12 -54 57.5 -86.5t109.5 -32.5q69 0 117.5 48t48.5 116q0 72 -48.5 120t-117.5 48q-96 0 -145 -55h-113l41 471h461v-121h-346l-22 -232q54 45 141 45q122 0 201 -76t79 -202q0 -120 -87 -203.5t-210 -83.5z" />
    <glyph glyph-name="six.numr" horiz-adv-x="663" 
d="M352 1137q118 0 197.5 -81.5t79.5 -203.5q0 -120 -87.5 -205.5t-209.5 -85.5q-123 0 -210 85.5t-87 205.5q0 98 69 213l230 369h147l-198 -312q43 15 69 15zM332 684q72 0 122 49.5t50 120.5q0 72 -50 122t-122 50t-122 -50t-50 -122q0 -71 50 -120.5t122 -49.5z" />
    <glyph glyph-name="seven.numr" horiz-adv-x="624" 
d="M18 1434h580v-91l-369 -770h-143l354 736h-422v125z" />
    <glyph glyph-name="eight.numr" horiz-adv-x="657" 
d="M330 563q-126 0 -209.5 72t-83.5 182q0 72 44 132.5t118 86.5q-56 23 -91.5 74t-35.5 109q0 98 72.5 161.5t185.5 63.5t185.5 -63.5t72.5 -161.5q0 -56 -34.5 -107.5t-92.5 -75.5q71 -23 115.5 -84.5t44.5 -134.5q0 -109 -82.5 -181.5t-208.5 -72.5zM330 1090
q61 0 100 33.5t39 86.5q0 54 -39 88.5t-100 34.5t-100.5 -34.5t-39.5 -88.5q0 -53 39.5 -86.5t100.5 -33.5zM330 678q73 0 120.5 42t47.5 107q0 66 -48 108t-120 42q-74 0 -122 -42t-48 -108t48 -107.5t122 -41.5z" />
    <glyph glyph-name="nine.numr" horiz-adv-x="659" 
d="M328 1446q123 0 211 -85.5t88 -205.5q0 -100 -72 -213l-229 -369h-148l199 312q-43 -15 -70 -15q-118 0 -197 81.5t-79 203.5q0 120 87 205.5t210 85.5zM330 981q70 0 120 50.5t50 121.5t-50 120.5t-122 49.5t-122 -49.5t-50 -120.5t50.5 -121.5t123.5 -50.5z" />
    <glyph glyph-name="zero.sups" horiz-adv-x="741" 
d="M371 571q-150 0 -236 120t-86 323q0 202 86 322t236 120t235.5 -119t85.5 -323q0 -203 -85.5 -323t-235.5 -120zM371 696q89 0 137.5 81.5t48.5 236.5t-48.5 236t-137.5 81q-90 0 -139.5 -81t-49.5 -236t49.5 -236.5t139.5 -81.5z" />
    <glyph glyph-name="one.sups" horiz-adv-x="458" 
d="M375 1444v-860h-127v682l-197 -160v156l236 182h88z" />
    <glyph glyph-name="two.sups" horiz-adv-x="684" 
d="M55 584v94l307 305q72 72 102 117.5t30 93.5q0 59 -43 98t-107 39q-77 0 -122 -48.5t-44 -129.5h-129q-4 135 80.5 219t216.5 84q122 0 201.5 -73t79.5 -187q0 -134 -172 -293l-195 -194h373v-125h-578z" />
    <glyph glyph-name="three.sups" horiz-adv-x="667" 
d="M217 1083l217 238h-387v123h569v-88l-241 -256q105 4 176.5 -66.5t71.5 -175.5q0 -126 -85 -206.5t-216 -80.5q-121 0 -204.5 68.5t-94.5 175.5h129q11 -52 57 -85.5t113 -33.5q73 0 120 47t47 119q0 88 -80.5 126.5t-191.5 8.5v86z" />
    <glyph glyph-name="four.sups" horiz-adv-x="720" 
d="M690 891v-121h-106v-186h-129v186h-430v84l309 590h145l-291 -553h267v254h129v-254h106z" />
    <glyph glyph-name="five.sups" horiz-adv-x="657" 
d="M319 571q-119 0 -203 66t-93 178h129q12 -54 57.5 -86.5t109.5 -32.5q69 0 117.5 48t48.5 116q0 72 -48.5 120t-117.5 48q-96 0 -145 -55h-113l41 471h461v-121h-346l-22 -231q54 45 141 45q122 0 201 -76.5t79 -202.5q0 -120 -87 -203.5t-210 -83.5z" />
    <glyph glyph-name="six.sups" horiz-adv-x="659" 
d="M352 1147q118 0 197.5 -81.5t79.5 -203.5q0 -120 -87.5 -205.5t-209.5 -85.5q-123 0 -210 85.5t-87 205.5q0 98 69 213l230 369h147l-198 -311q40 14 69 14zM332 694q72 0 122 49.5t50 120.5q0 72 -50 122t-122 50t-122 -50t-50 -122q0 -71 50 -120.5t122 -49.5z" />
    <glyph glyph-name="seven.sups" horiz-adv-x="624" 
d="M18 1444h580v-90l-369 -770h-143l354 735h-422v125z" />
    </font>
</defs>
</svg>
