<?xml version="1.0" standalone="no"?>
<!DOCTYPE svg PUBLIC "-//W3C//DTD SVG 1.1//EN" "http://www.w3.org/Graphics/SVG/1.1/DTD/svg11.dtd" >
<svg xmlns="http://www.w3.org/2000/svg" xmlns:xlink="http://www.w3.org/1999/xlink" version="1.1">
<metadata>
Created by FontForge 20170731 at Thu Jul  9 18:21:53 2020
 By Aleksey,,,
Copyright (c) 2018 by Martin Va'cha. All rights reserved.
</metadata>
<defs>
<font id="Gellix-LightItalic" horiz-adv-x="737" >
  <font-face 
    font-family="Gellix Light"
    font-weight="300"
    font-style="italic"
    font-stretch="normal"
    units-per-em="2048"
    panose-1="0 0 4 0 0 0 0 0 0 0"
    ascent="1651"
    descent="-397"
    x-height="991"
    cap-height="1434"
    bbox="-933.439 -434 2664 2245"
    underline-thickness="102"
    underline-position="-409"
    slope="-11"
    unicode-range="U+0020-25CF"
  />
<missing-glyph horiz-adv-x="2291" 
d="M1133 -418v2048q-201 -7 -384 -92t-316 -222.5t-211.5 -324t-78.5 -387.5q0 -202 78 -388t210.5 -322.5t316 -220.5t385.5 -91zM1202 1624v-2036q85 24 156.5 166.5t113 368t41.5 481.5q0 389 -91.5 685t-219.5 335zM1579 604q0 -327 -62.5 -591t-168.5 -394
q150 56 268.5 199.5t185 349t66.5 436.5q0 229 -66.5 435t-185 351t-268.5 203q106 -131 168.5 -396.5t62.5 -592.5zM1548 -344q287 115 465 375t178 573t-179.5 574.5t-469.5 377.5q182 -145 287.5 -400t105.5 -552q0 -296 -104.5 -550.5t-282.5 -397.5z" />
    <glyph glyph-name=".notdef" horiz-adv-x="2291" 
d="M1133 -418v2048q-201 -7 -384 -92t-316 -222.5t-211.5 -324t-78.5 -387.5q0 -202 78 -388t210.5 -322.5t316 -220.5t385.5 -91zM1202 1624v-2036q85 24 156.5 166.5t113 368t41.5 481.5q0 389 -91.5 685t-219.5 335zM1579 604q0 -327 -62.5 -591t-168.5 -394
q150 56 268.5 199.5t185 349t66.5 436.5q0 229 -66.5 435t-185 351t-268.5 203q106 -131 168.5 -396.5t62.5 -592.5zM1548 -344q287 115 465 375t178 573t-179.5 574.5t-469.5 377.5q182 -145 287.5 -400t105.5 -552q0 -296 -104.5 -550.5t-282.5 -397.5z" />
    <glyph glyph-name=".null" horiz-adv-x="0" 
 />
    <glyph glyph-name="nonmarkingreturn" horiz-adv-x="682" 
 />
    <glyph glyph-name="space" unicode=" " horiz-adv-x="526" 
 />
    <glyph glyph-name="exclam" unicode="!" horiz-adv-x="458" 
d="M365 1434h102l-215 -1080h-90zM158 -20q-38 0 -64 26t-26 64t26 65t64 27q39 0 65.5 -26.5t26.5 -65.5q0 -38 -26 -64t-66 -26z" />
    <glyph glyph-name="quotedbl" unicode="&#x22;" horiz-adv-x="520" 
d="M213 1004l72 430h94l-94 -430h-72zM434 1004l72 430h92l-94 -430h-70z" />
    <glyph glyph-name="numbersign" unicode="#" horiz-adv-x="1298" 
d="M1313 895h-293l-168 -354h311l-16 -80h-332l-219 -461h-88l219 461h-309l-219 -461h-86l219 461h-275l17 80h295l168 354h-314l15 78h335l220 461h86l-220 -461h312l219 461h86l-219 -461h272zM766 541l168 354h-311l-168 -354h311z" />
    <glyph glyph-name="dollar" unicode="$" horiz-adv-x="1218" 
d="M1171 1065h-90q17 133 -82 218t-260 85q-154 0 -264 -73.5t-129 -188.5q-13 -76 7.5 -131t66 -86.5t107 -54t130.5 -39t138 -35.5t129 -50t103 -75.5t60 -119.5t0 -175q-29 -157 -174.5 -258.5t-345.5 -101.5h-6l-43 -226h-88l45 232q-187 27 -291 150.5t-75 295.5h90
q-27 -161 81 -263.5t291 -102.5q167 0 286 80.5t142 209.5q14 83 -5.5 144t-64 96.5t-105.5 60.5t-130 42.5t-138 36t-129.5 47.5t-104 70t-62 109.5t-2.5 161.5q25 145 161 237.5t326 92.5h17l41 225h88l-45 -233q169 -26 259.5 -131.5t65.5 -249.5z" />
    <glyph glyph-name="percent" unicode="%" horiz-adv-x="1660" 
d="M813 1174q-5 -124 -79.5 -203.5t-188.5 -79.5q-112 0 -182.5 80t-65.5 203q4 123 79.5 201.5t188.5 78.5q114 0 183.5 -78.5t64.5 -201.5zM1448 1434h82l-1231 -1434h-82zM741 1174q3 95 -45.5 153.5t-132.5 58.5q-83 0 -137 -59t-55 -153q-3 -95 45.5 -155.5
t132.5 -60.5q83 0 136 60.5t56 155.5zM1450 262q-5 -123 -80.5 -202.5t-189.5 -79.5q-112 0 -181.5 79.5t-64.5 202.5q5 122 80 201.5t188 79.5q112 0 182.5 -79.5t65.5 -201.5zM1376 262q3 94 -45.5 153.5t-132.5 59.5q-83 0 -136 -60t-56 -153q-3 -95 45.5 -155t132.5 -60
q83 0 136 60.5t56 154.5z" />
    <glyph glyph-name="ampersand" unicode="&#x26;" horiz-adv-x="1398" 
d="M1327 575l-323 -284l221 -291h-113l-176 231l-39 -32q-132 -116 -244.5 -167.5t-238.5 -51.5q-101 0 -183 53.5t-121.5 145.5t-19.5 196q14 67 45 123.5t68.5 96t93.5 76t103.5 59.5t113.5 50q-20 27 -35.5 50t-34 55.5t-29 60.5t-20.5 65.5t-8.5 70.5t6.5 75
q26 134 128.5 215.5t244.5 81.5q100 0 178.5 -43t115.5 -118.5t21 -164.5q-9 -45 -27 -84.5t-40.5 -69.5t-57 -59t-64.5 -49.5t-75.5 -43t-78 -37t-83.5 -35.5l297 -392l248 217h127zM481 1151q-5 -24 -5.5 -48t3.5 -47.5t9.5 -43t17 -42.5t20.5 -39.5t25 -40t25.5 -36.5
t27.5 -37q59 23 92 37t82 37.5t78 45t60.5 50.5t49.5 64.5t27 76.5q22 102 -48 173t-189 71q-104 0 -179.5 -60.5t-95.5 -160.5zM825 248l60 51l-318 416q-64 -26 -107.5 -46.5t-94.5 -52t-84.5 -64.5t-60 -79t-36.5 -100q-16 -79 14.5 -150.5t94 -114t141.5 -42.5
q102 0 191 41.5t200 140.5z" />
    <glyph glyph-name="quotesingle" unicode="'" horiz-adv-x="299" 
d="M213 1004l72 430h94l-94 -430h-72z" />
    <glyph glyph-name="parenleft" unicode="(" horiz-adv-x="579" 
d="M387 -410q-157 141 -216 411.5t1 582.5q60 308 221 576.5t371 410.5l47 -70q-195 -131 -346.5 -384t-208.5 -546q-56 -290 -5 -541.5t195 -381.5z" />
    <glyph glyph-name="parenright" unicode=")" horiz-adv-x="577" 
d="M223 1561q157 -141 216 -411.5t-1 -582.5q-60 -307 -221 -576t-371 -409l-47 68q195 130 346.5 384t208.5 546q56 289 5 542t-195 381z" />
    <glyph glyph-name="asterisk" unicode="*" horiz-adv-x="960" 
d="M997 1147l-354 -88l154 -318l-58 -39l-155 316l-279 -318l-51 45l278 316l-321 86l31 65l323 -88l68 351h72l-68 -351l354 88z" />
    <glyph glyph-name="plus" unicode="+" horiz-adv-x="1163" 
d="M1034 670l-14 -84h-379l-74 -379h-84l74 379h-377l17 84h376l74 377h82l-72 -377h377z" />
    <glyph glyph-name="comma" unicode="," horiz-adv-x="460" 
d="M274 178l-213 -368h-69l162 368h120z" />
    <glyph glyph-name="hyphen" unicode="-" horiz-adv-x="593" 
d="M49 485l17 82h491l-16 -82h-492z" />
    <glyph glyph-name="period" unicode="." horiz-adv-x="436" 
d="M135 -20q-38 0 -64 26t-26 64t26 65t64 27t65 -27t27 -65t-27 -64t-65 -26z" />
    <glyph glyph-name="slash" unicode="/" horiz-adv-x="770" 
d="M-76 0l912 1434h96l-909 -1434h-99z" />
    <glyph glyph-name="zero" unicode="0" horiz-adv-x="1212" 
d="M514 -20q-237 0 -333.5 197.5t-28.5 545.5q66 343 233.5 537t398.5 194q237 0 333 -197.5t30 -545.5q-68 -343 -235.5 -537t-397.5 -194zM518 66q194 0 335.5 173t201.5 484q59 308 -13 476.5t-264 168.5q-193 0 -334.5 -173t-199.5 -484q-59 -308 12.5 -476.5
t261.5 -168.5z" />
    <glyph glyph-name="one" unicode="1" horiz-adv-x="716" 
d="M715 1434l-279 -1434h-92l256 1309l-393 -299l20 116l414 308h74z" />
    <glyph glyph-name="two" unicode="2" horiz-adv-x="1110" 
d="M-4 0l14 72l701 596q137 117 208 203.5t85 168.5q28 134 -57 231t-228 97q-161 0 -274.5 -94.5t-145.5 -257.5h-92q36 205 179.5 321.5t338.5 116.5q121 0 214.5 -56.5t136.5 -155t20 -214.5q-39 -188 -318 -416l-631 -526h785l-17 -86h-919z" />
    <glyph glyph-name="three" unicode="3" horiz-adv-x="1083" 
d="M428 -20q-186 0 -298 96.5t-105 253.5h90q-2 -119 87.5 -191.5t237.5 -72.5q165 0 286.5 96t156.5 258q20 91 -7.5 167.5t-92 120.5t-158 56.5t-205.5 -23.5l14 72l580 535h-756l16 86h885l-14 -70l-592 -539q102 19 190.5 -5.5t145 -80.5t81.5 -141t7 -182
q-40 -200 -188.5 -318t-360.5 -118z" />
    <glyph glyph-name="four" unicode="4" horiz-adv-x="1144" 
d="M1065 418l-14 -84h-213l-66 -334h-90l66 334h-738l13 74l741 1026h104l-735 -1016h629l108 557h93l-109 -557h211z" />
    <glyph glyph-name="five" unicode="5" horiz-adv-x="1058" 
d="M422 -20q-179 0 -294 99t-103 251h88q0 -116 88.5 -190t232.5 -74q152 0 278.5 105t155.5 257q29 160 -57.5 267.5t-243.5 107.5q-91 0 -176 -29t-141 -82h-80l213 742h684l-16 -86h-605l-167 -564q59 46 142 72.5t169 26.5q122 0 216.5 -63t136.5 -169t18 -227
q-38 -196 -188.5 -320t-350.5 -124z" />
    <glyph glyph-name="six" unicode="6" horiz-adv-x="1099" 
d="M596 909q97 0 182 -37.5t143.5 -101t86.5 -153t14 -187.5q-26 -195 -172 -322.5t-342 -127.5q-98 0 -185 38.5t-147 102.5t-89.5 153t-16.5 185q10 72 54 167t114 179l536 629h107l-525 -607q117 82 240 82zM936 436q11 82 -13 156t-73.5 125.5t-121.5 81.5t-153 30
q-160 0 -279 -109t-140 -267q-14 -104 30 -193.5t132 -141.5t198 -52q158 0 279 106.5t141 263.5z" />
    <glyph glyph-name="seven" unicode="7" horiz-adv-x="997" 
d="M213 1434h913l-14 -72l-909 -1362h-103l908 1348h-811z" />
    <glyph glyph-name="eight" unicode="8" horiz-adv-x="1083" 
d="M467 -20q-183 0 -299.5 101t-112.5 257q3 154 114.5 277.5t272.5 156.5q-86 28 -138.5 105t-51.5 174q5 169 134.5 286t315.5 117q162 0 263.5 -89t97.5 -228q-1 -124 -90.5 -227t-227.5 -140q111 -29 178 -117.5t64 -203.5q-3 -128 -74 -236t-190 -170.5t-256 -62.5z
M600 811q155 0 267 95.5t112 232.5q1 102 -79 168.5t-204 66.5q-151 0 -255.5 -99t-106.5 -231q0 -108 72 -170.5t194 -62.5zM471 63q179 0 305.5 116.5t126.5 277.5q2 121 -82 195.5t-229 74.5q-184 0 -317.5 -114.5t-133.5 -274.5q-2 -118 90 -196.5t240 -78.5z" />
    <glyph glyph-name="nine" unicode="9" horiz-adv-x="1099" 
d="M678 1454q131 0 238.5 -64.5t162 -175t37.5 -237.5q-10 -74 -54 -169t-116 -179l-534 -629h-107l524 606q-117 -82 -239 -82q-97 0 -182 37.5t-143.5 101.5t-86.5 153.5t-14 187.5q25 195 171 322.5t343 127.5zM1030 981q20 159 -86 273t-274 114q-158 0 -279.5 -107
t-140.5 -264q-11 -82 12.5 -155.5t73.5 -124.5t121.5 -81t152.5 -30q161 0 280 109t140 266z" />
    <glyph glyph-name="colon" unicode=":" horiz-adv-x="436" 
d="M272 690q-38 0 -64 26t-26 64t26 65t64 27t65.5 -27t27.5 -65t-27 -64t-66 -26zM135 -20q-38 0 -64 26t-26 64t26 65t64 27t65 -27t27 -65t-27 -64t-65 -26z" />
    <glyph glyph-name="semicolon" unicode=";" horiz-adv-x="503" 
d="M324 596q-39 0 -66 26t-27 64t27.5 65t65.5 27t64 -27t26 -65t-26 -64t-64 -26zM272 174l-211 -369h-69l162 369h118z" />
    <glyph glyph-name="less" unicode="&#x3c;" horiz-adv-x="1173" 
d="M1139 1157l-19 -96l-805 -340l674 -338l-16 -88l-772 393l12 74z" />
    <glyph glyph-name="equal" unicode="=" horiz-adv-x="1163" 
d="M1069 840l-16 -82h-840l16 82h840zM1004 506l-17 -82h-837l14 82h840z" />
    <glyph glyph-name="greater" unicode="&#x3e;" horiz-adv-x="1175" 
d="M125 295l18 96l805 338l-674 338l17 88l772 -393l-12 -74z" />
    <glyph glyph-name="question" unicode="?" horiz-adv-x="976" 
d="M651 1454q156 0 264.5 -91t108.5 -222q0 -92 -27.5 -166t-72 -124t-99.5 -93t-113 -83t-108.5 -82.5t-89.5 -103.5t-53 -135h-86q15 85 54 154t88.5 115.5t106.5 88t111 80.5t98 83t70.5 106.5t26.5 140.5q0 108 -83 177t-208 69q-155 0 -266.5 -95.5t-139.5 -252.5h-88
q34 195 173 314.5t333 119.5zM375 -20q-38 0 -64 26t-26 64t26 65t64 27t64 -27t26 -65t-26 -64t-64 -26z" />
    <glyph glyph-name="at" unicode="@" horiz-adv-x="1888" 
d="M1061 1307q187 0 337 -55t246.5 -152.5t137.5 -236t16 -300.5q-38 -241 -131.5 -366t-234.5 -125q-196 0 -181 219q-58 -121 -160.5 -179.5t-234.5 -58.5q-120 0 -208.5 63t-126.5 173t-17 243q28 177 157 289.5t300 112.5q128 0 221 -61t121 -166l32 211h80l-88 -570
q-18 -114 11 -159.5t108 -45.5q97 0 168.5 108.5t103.5 311.5q47 307 -134 489.5t-533 182.5q-160 0 -309.5 -55.5t-263 -150t-190 -223t-98.5 -269.5q-26 -164 6 -309t111 -248.5t205 -163.5t281 -60q138 0 252 39t180 105h104q-77 -103 -223 -161t-320 -58
q-169 0 -308.5 66.5t-228.5 180.5t-126.5 273t-9.5 338q25 158 106.5 298.5t204 244.5t288.5 164.5t349 60.5zM868 129q155 0 264 98.5t138 264.5q28 159 -58 262.5t-254 103.5q-141 0 -247 -92.5t-131 -235.5q-31 -174 51 -287.5t237 -113.5z" />
    <glyph glyph-name="A" unicode="A" horiz-adv-x="1312" 
d="M1085 0l-81 397h-732l-237 -397h-98l854 1434h94l299 -1434h-99zM324 483h663l-170 830z" />
    <glyph glyph-name="B" unicode="B" horiz-adv-x="1212" 
d="M88 0l279 1434h477q163 0 257.5 -104t65.5 -253q-23 -121 -116 -212.5t-209 -106.5q139 -11 217.5 -119t50.5 -256q-31 -161 -168 -272t-307 -111h-547zM330 788h385q128 0 232.5 84t127.5 207q23 114 -48.5 191.5t-199.5 77.5h-387zM193 86h446q138 0 247 89.5
t134 221.5q26 131 -47.5 219.5t-210.5 88.5h-447z" />
    <glyph glyph-name="C" unicode="C" horiz-adv-x="1595" 
d="M1477 467q-74 -217 -270 -352t-441 -135q-177 0 -318 81t-219.5 222.5t-78.5 316.5q0 169 68.5 326.5t181.5 273t267 185t318 69.5q235 0 393.5 -130.5t173.5 -336.5h-96q-14 169 -146.5 275t-330.5 106q-146 0 -282 -62.5t-235.5 -166t-159.5 -244.5t-60 -291
q0 -234 147 -386t381 -152q207 0 374 111t232 290h101z" />
    <glyph glyph-name="D" unicode="D" horiz-adv-x="1423" 
d="M766 1434q100 0 191.5 -30t164 -85.5t126.5 -128.5t83 -163.5t29 -186.5q0 -176 -63 -332t-172 -267.5t-261.5 -176t-324.5 -64.5h-451l279 1434h399zM549 86q200 0 364.5 99.5t258.5 272.5t94 382q0 211 -145.5 359.5t-358.5 148.5h-322l-245 -1262h354z" />
    <glyph glyph-name="E" unicode="E" horiz-adv-x="1081" 
d="M367 1434h768l-17 -86h-678l-102 -527h604l-14 -86h-604l-129 -649h677l-16 -86h-768z" />
    <glyph glyph-name="F" unicode="F" horiz-adv-x="1038" 
d="M367 1434h768l-17 -86h-678l-102 -533h604l-16 -86h-604l-144 -729h-90z" />
    <glyph glyph-name="G" unicode="G" horiz-adv-x="1611" 
d="M1536 725q-5 -57 -8 -70q-52 -306 -250.5 -490.5t-491.5 -184.5q-132 0 -247.5 46.5t-200 129.5t-133.5 206t-49 269q0 170 64 322.5t174 262.5t264 174t327 64q234 0 393 -130.5t176 -336.5h-98q-14 169 -146 275t-331 106q-153 0 -289 -57t-232 -155t-152 -233
t-56 -286q0 -131 41.5 -239t114 -180.5t171 -112t211.5 -39.5q255 0 426 156.5t216 416.5h-523l17 86h612z" />
    <glyph glyph-name="H" unicode="H" horiz-adv-x="1439" 
d="M1348 1434h92l-279 -1434h-92l137 705h-891l-137 -705h-90l279 1434h90l-125 -643h891z" />
    <glyph glyph-name="I" unicode="I" horiz-adv-x="458" 
d="M367 1434h90l-279 -1434h-90z" />
    <glyph glyph-name="J" unicode="J" horiz-adv-x="589" 
d="M-41 66h31q126 0 204.5 83t112.5 254l199 1031h92l-203 -1045q-40 -203 -142.5 -306t-262.5 -103q-33 0 -47 2z" />
    <glyph glyph-name="K" unicode="K" horiz-adv-x="1187" 
d="M1270 1434l-846 -686l631 -748h-123l-613 733l-143 -733h-88l279 1434h88l-129 -664l815 664h129z" />
    <glyph glyph-name="L" unicode="L" horiz-adv-x="1116" 
d="M367 1434h90l-262 -1348h755l-16 -86h-846z" />
    <glyph glyph-name="M" unicode="M" horiz-adv-x="1761" 
d="M88 0l279 1434h98l344 -1301l854 1301h96l-278 -1434h-92l243 1241l-809 -1241h-73l-328 1241l-244 -1241h-90z" />
    <glyph glyph-name="N" unicode="N" horiz-adv-x="1454" 
d="M367 1434h96l647 -1284l252 1284h90l-278 -1434h-95l-649 1284l-252 -1284h-90z" />
    <glyph glyph-name="O" unicode="O" horiz-adv-x="1667" 
d="M983 1454q181 0 323.5 -80t221 -220.5t78.5 -315.5q0 -164 -68.5 -321.5t-181.5 -275t-269 -189.5t-321 -72q-179 0 -320.5 80.5t-218.5 221.5t-77 318q0 225 115 422.5t307.5 314.5t410.5 117zM981 1368q-146 0 -282.5 -62.5t-236.5 -166t-160 -244.5t-60 -291
q0 -234 146.5 -386t379.5 -152q146 0 283 63.5t237.5 168.5t161.5 247t61 291q0 231 -148 381.5t-382 150.5z" />
    <glyph glyph-name="P" unicode="P" horiz-adv-x="1218" 
d="M899 1434q145 0 246.5 -100t101.5 -240q0 -120 -64 -222.5t-172.5 -162.5t-234.5 -60h-471l-127 -649h-90l279 1434h532zM784 735q148 0 259.5 104.5t111.5 247.5q0 106 -77.5 183.5t-188.5 77.5h-449l-118 -613h462z" />
    <glyph glyph-name="Q" unicode="Q" horiz-adv-x="1665" 
d="M1606 838q0 -191 -90 -368.5t-242 -301.5l98 -168h-96l-70 117q-206 -137 -440 -137q-179 0 -320.5 80.5t-218.5 221.5t-77 318q0 225 115 422.5t307.5 314.5t410.5 117q181 0 323.5 -80t221 -220.5t78.5 -315.5zM768 66q209 0 395 127l-276 471h96l246 -420
q130 109 206 265.5t76 326.5q0 231 -148 381.5t-382 150.5q-146 0 -282.5 -62.5t-236.5 -166t-160 -244.5t-60 -291q0 -234 146.5 -386t379.5 -152z" />
    <glyph glyph-name="R" unicode="R" horiz-adv-x="1230" 
d="M868 1434q177 0 273.5 -114t64.5 -284q-34 -168 -164 -276.5t-305 -114.5l322 -645h-105l-311 645h-340l-125 -645h-90l279 1434h501zM1116 1044q26 133 -48.5 218.5t-215.5 85.5h-414l-119 -623h406q142 0 253.5 90t137.5 229z" />
    <glyph glyph-name="S" unicode="S" horiz-adv-x="1218" 
d="M567 -20q-110 0 -202.5 34.5t-154 94t-89.5 143.5t-12 180h90q-27 -161 81 -263.5t291 -102.5q167 0 286 80.5t142 209.5q14 83 -5.5 144t-64 96.5t-105.5 60.5t-130 42.5t-138 36t-129.5 47.5t-104 70t-62 109.5t-2.5 161.5q25 145 161 237.5t326 92.5q212 0 333 -112
t93 -277h-90q17 133 -82 218t-260 85q-154 0 -264 -73.5t-129 -188.5q-13 -76 7.5 -131t66 -86.5t107 -54t130.5 -39t138 -35.5t129 -50t103 -75.5t60 -119.5t0 -175q-29 -157 -174.5 -258.5t-345.5 -101.5z" />
    <glyph glyph-name="T" unicode="T" horiz-adv-x="1208" 
d="M1323 1434l-16 -86h-492l-262 -1348h-90l262 1348h-492l17 86h1073z" />
    <glyph glyph-name="U" unicode="U" horiz-adv-x="1441" 
d="M649 -20q-164 0 -279.5 72.5t-161.5 199.5t-15 285l174 897h90l-176 -904q-39 -203 64 -332.5t310 -129.5q193 0 335.5 125.5t183.5 334.5l174 906h92l-178 -912q-47 -246 -215 -394t-398 -148z" />
    <glyph glyph-name="V" unicode="V" horiz-adv-x="1267" 
d="M227 1434h95l237 -1311l750 1311h98l-825 -1434h-88z" />
    <glyph glyph-name="W" unicode="W" horiz-adv-x="2084" 
d="M2128 1434h98l-762 -1434h-90l-168 1307l-684 -1307h-88l-207 1434h95l180 -1309l686 1309h88l166 -1309z" />
    <glyph glyph-name="X" unicode="X" horiz-adv-x="1183" 
d="M1288 1434l-592 -695l348 -739h-102l-311 662l-563 -662h-119l639 750l-322 684h103l286 -607l516 607h117z" />
    <glyph glyph-name="Y" unicode="Y" horiz-adv-x="1218" 
d="M227 1434h103l327 -684l590 684h113l-670 -777l-129 -657h-92l131 659z" />
    <glyph glyph-name="Z" unicode="Z" horiz-adv-x="1177" 
d="M297 1434h981l-14 -72l-1153 -1276h911l-14 -86h-1041l13 72l1153 1276h-852z" />
    <glyph glyph-name="bracketleft" unicode="[" horiz-adv-x="608" 
d="M436 1470l-340 -1751h299l-14 -75h-385l371 1904h383l-15 -78h-299z" />
    <glyph glyph-name="backslash" unicode="\" horiz-adv-x="749" 
d="M813 0h-98l-910 1434h99z" />
    <glyph glyph-name="bracketright" unicode="]" horiz-adv-x="608" 
d="M211 -281l340 1751h-301l14 78h385l-368 -1904h-385l14 75h301z" />
    <glyph glyph-name="asciicircum" unicode="^" horiz-adv-x="1064" 
d="M983 606h-92l-193 740l-481 -740h-94l559 848h74z" />
    <glyph glyph-name="underscore" unicode="_" horiz-adv-x="970" 
d="M-76 -102l17 82h888l-16 -82h-889z" />
    <glyph glyph-name="grave" unicode="`" horiz-adv-x="485" 
d="M-33 1391h123l217 -275h-92z" />
    <glyph glyph-name="a" unicode="a" horiz-adv-x="1282" 
d="M1128 991h89l-193 -991h-90l49 250q-73 -125 -190 -197.5t-256 -72.5q-112 0 -203.5 41t-149.5 115.5t-81.5 177.5t1.5 227q40 205 194.5 338t354.5 133q173 0 282 -83.5t134 -234.5zM555 61q161 0 291 105.5t172 259.5l14 72q26 197 -78 314.5t-297 117.5
q-170 0 -301 -111.5t-163 -283.5q-39 -209 65 -341.5t297 -132.5z" />
    <glyph glyph-name="b" unicode="b" horiz-adv-x="1282" 
d="M745 1012q112 0 204.5 -41t150.5 -115.5t81.5 -177t-1.5 -225.5q-40 -206 -195 -339.5t-354 -133.5q-172 0 -282 82.5t-136 232.5l-57 -295h-90l278 1434h90l-135 -691q73 125 190 197t256 72zM1090 457q39 211 -64.5 342t-298.5 131q-158 0 -286.5 -102t-172.5 -253
l-18 -96q-22 -192 82 -305t293 -113q170 0 301.5 112t163.5 284z" />
    <glyph glyph-name="c" unicode="c" horiz-adv-x="1165" 
d="M551 -20q-130 0 -234 62.5t-161.5 171t-57.5 241.5q0 159 76.5 287t210.5 199t299 71t278 -92.5t109 -229.5h-88q3 101 -89 170.5t-220 69.5q-206 0 -346 -134.5t-140 -336.5q0 -169 105 -282.5t268 -113.5q83 0 160.5 28t138 85.5t86.5 134.5h88q-43 -153 -180 -242
t-303 -89z" />
    <glyph glyph-name="d" unicode="d" horiz-adv-x="1282" 
d="M1212 1434h91l-279 -1434h-90l49 248q-73 -125 -190 -196.5t-256 -71.5q-112 0 -203.5 41t-149.5 115.5t-81.5 177.5t1.5 227q40 205 194.5 338t354.5 133q172 0 281 -82.5t135 -231.5zM555 61q158 0 287 102.5t174 252.5l16 94q22 193 -81.5 306.5t-293.5 113.5
q-170 0 -301 -111.5t-163 -283.5q-39 -209 65 -341.5t297 -132.5z" />
    <glyph glyph-name="e" unicode="e" horiz-adv-x="1169" 
d="M1071 504h-887q-4 -40 -4 -60q0 -164 109 -273.5t272 -109.5q130 0 237 63.5t144 178.5h94q-44 -149 -181 -236t-304 -87q-194 0 -324.5 132t-130.5 328q0 119 45 225.5t121 182.5t179 120t216 44q187 0 305.5 -117.5t118.5 -304.5q0 -14 -10 -86zM655 932
q-162 0 -287.5 -98.5t-168.5 -253.5h792q-1 165 -91.5 258.5t-244.5 93.5z" />
    <glyph glyph-name="f" unicode="f" horiz-adv-x="675" 
d="M737 1448q36 0 76 -8l-14 -82q-27 8 -68 8q-109 0 -176.5 -52.5t-91.5 -174.5l-29 -148h293l-16 -82h-293l-178 -909h-88l176 909h-201l16 82h201l29 148q30 158 124.5 233.5t239.5 75.5z" />
    <glyph glyph-name="g" unicode="g" horiz-adv-x="1284" 
d="M1130 993h89l-189 -968q-40 -214 -186.5 -336.5t-368.5 -122.5q-120 0 -218.5 41t-153 122.5t-35.5 184.5h86q-14 -84 29 -145t123.5 -90t185.5 -29q178 0 296 100t152 273l45 233q-73 -125 -191 -197.5t-257 -72.5q-112 0 -203.5 41t-149.5 114.5t-81.5 176t1.5 225.5
q40 205 194.5 337t354.5 132q173 0 283 -84t135 -236zM557 68q169 0 303.5 116.5t165.5 280.5q39 212 -64.5 338.5t-304.5 126.5q-170 0 -301 -110.5t-163 -282.5q-39 -208 65 -338.5t299 -130.5z" />
    <glyph glyph-name="h" unicode="h" horiz-adv-x="1202" 
d="M711 1012q196 0 290 -119.5t56 -319.5l-113 -573h-88l111 573q31 163 -43 260t-228 97q-155 0 -268.5 -89.5t-155.5 -238.5l-116 -602h-90l278 1434h90l-125 -648q68 107 173 166.5t229 59.5z" />
    <glyph glyph-name="i" unicode="i" horiz-adv-x="413" 
d="M369 1401q30 0 53.5 -23t23.5 -53q0 -33 -23.5 -55.5t-53.5 -22.5q-34 0 -57 22t-23 56q0 31 23.5 53.5t56.5 22.5zM258 991h90l-192 -991h-90z" />
    <glyph glyph-name="j" unicode="j" horiz-adv-x="413" 
d="M367 1401q30 0 53.5 -23t23.5 -53q0 -33 -23.5 -55.5t-53.5 -22.5q-34 0 -57 22t-23 56q0 31 23.5 53.5t56.5 22.5zM-168 -338l21 -2q75 0 121.5 57.5t72.5 182.5l211 1091h90l-213 -1097q-32 -161 -103.5 -239.5t-185.5 -78.5h-30z" />
    <glyph glyph-name="k" unicode="k" horiz-adv-x="983" 
d="M1006 991l-656 -471l492 -520h-123l-467 500l-96 -500h-90l278 1434h90l-174 -893l625 450h121z" />
    <glyph glyph-name="l" unicode="l" horiz-adv-x="413" 
d="M434 1434l-278 -1434h-90l278 1434h90z" />
    <glyph glyph-name="m" unicode="m" horiz-adv-x="1886" 
d="M1413 1012q191 0 279.5 -115t50.5 -315l-115 -582h-88l111 578q32 166 -34.5 259t-215.5 93q-61 0 -121.5 -20t-116.5 -61t-98.5 -113t-60.5 -165v2l-113 -573h-88l112 578q32 167 -34 259.5t-217 92.5q-58 0 -115.5 -18t-113 -55t-99.5 -104t-64 -155l-116 -598h-90
l192 991h90l-41 -211q62 116 165 174t214 58q147 0 231.5 -70.5t96.5 -202.5q53 132 164 202.5t235 70.5z" />
    <glyph glyph-name="n" unicode="n" horiz-adv-x="1204" 
d="M713 1012q196 0 290 -119.5t56 -319.5l-113 -573h-88l111 573q31 163 -43 260t-228 97q-164 0 -281 -100t-151 -263l-110 -567h-90l192 991h90l-41 -211q68 109 174.5 170.5t231.5 61.5z" />
    <glyph glyph-name="o" unicode="o" horiz-adv-x="1216" 
d="M670 1012q196 0 325 -129.5t129 -323.5q0 -114 -47 -221t-124.5 -185.5t-184.5 -125.5t-221 -47q-196 0 -325.5 128t-129.5 320q0 115 46.5 223t124.5 187t185 126.5t222 47.5zM666 930q-129 0 -241 -68.5t-177.5 -183t-65.5 -244.5q0 -161 103 -266t266 -105
q95 0 184.5 40.5t155 107t105.5 156.5t40 186q0 162 -104.5 269.5t-265.5 107.5z" />
    <glyph glyph-name="p" unicode="p" horiz-adv-x="1284" 
d="M748 1012q229 0 354 -157.5t80 -401.5q-41 -207 -196 -340t-355 -133q-173 0 -283 84.5t-135 236.5l-135 -698h-90l270 1388h90l-49 -254q74 127 191.5 201t257.5 74zM1092 457q39 211 -65 342t-298 131q-168 0 -302 -116t-169 -279v-7q-39 -212 64.5 -339.5
t304.5 -127.5q170 0 301.5 112t163.5 284z" />
    <glyph glyph-name="q" unicode="q" horiz-adv-x="1284" 
d="M1130 989h89l-271 -1386h-88l127 655q-72 -129 -190 -203.5t-260 -74.5q-112 0 -203.5 41t-149.5 115.5t-81.5 177.5t1.5 227q40 205 194.5 338t354.5 133q175 0 285 -85.5t133 -240.5zM555 61q170 0 305 118t166 284q39 212 -64.5 339.5t-304.5 127.5
q-170 0 -301 -111.5t-163 -283.5q-39 -209 65 -341.5t297 -132.5z" />
    <glyph glyph-name="r" unicode="r" horiz-adv-x="688" 
d="M639 1012q36 0 90 -13l-16 -88q-43 19 -90 19q-116 0 -217 -86t-127 -215l-123 -629h-90l192 991h90l-37 -182q54 90 143.5 146.5t184.5 56.5z" />
    <glyph glyph-name="s" unicode="s" horiz-adv-x="915" 
d="M385 -20q-160 0 -259.5 81.5t-92.5 212.5h88q-6 -98 69.5 -157.5t194.5 -59.5q116 0 195.5 57t97.5 142q11 55 -2.5 95.5t-44.5 62.5t-74.5 39.5t-92.5 27.5t-98 25t-91.5 32.5t-72.5 51t-41.5 79t1.5 117.5q19 98 112 162t232 64q143 0 240.5 -73.5t91.5 -186.5h-88
q0 81 -72.5 132.5t-173.5 51.5q-105 0 -175 -47t-83 -115q-11 -53 3 -91.5t45.5 -59.5t75 -37t93 -25.5t98 -24.5t91 -33.5t72.5 -53t41 -82.5t-3 -123q-22 -114 -124.5 -189t-252.5 -75z" />
    <glyph glyph-name="t" unicode="t" horiz-adv-x="686" 
d="M406 909l-119 -610q-24 -122 23.5 -174.5t156.5 -52.5q43 0 70 8l-15 -80q-33 -8 -82 -8q-144 0 -208.5 75.5t-34.5 233.5l118 608h-200l16 82h201l55 281h88l-55 -281h295l-15 -82h-294z" />
    <glyph glyph-name="u" unicode="u" horiz-adv-x="1204" 
d="M1051 991h88l-193 -991h-88l41 213q-68 -110 -174.5 -171.5t-232.5 -61.5q-195 0 -290 120.5t-55 319.5l111 571h90l-112 -571q-31 -163 43 -260t229 -97q163 0 280.5 99.5t151.5 263.5z" />
    <glyph glyph-name="v" unicode="v" horiz-adv-x="1026" 
d="M1079 991l-618 -991h-82l-236 991h93l198 -891l547 891h98z" />
    <glyph glyph-name="w" unicode="w" horiz-adv-x="1605" 
d="M313 0l-170 991h86l144 -880l481 880h88l141 -880l486 880h92l-557 -991h-82l-141 883l-484 -883h-84z" />
    <glyph glyph-name="x" unicode="x" horiz-adv-x="968" 
d="M987 991l-448 -483l278 -508h-100l-242 440l-409 -440h-109l477 514l-260 477h100l224 -409l381 409h108z" />
    <glyph glyph-name="y" unicode="y" horiz-adv-x="1021" 
d="M979 991h98l-852 -1388h-96l242 395l-228 993h95l196 -893z" />
    <glyph glyph-name="z" unicode="z" horiz-adv-x="1019" 
d="M1020 991l-12 -71l-895 -836h731l-17 -84h-850l13 72l897 837h-686l16 82h803z" />
    <glyph glyph-name="braceleft" unicode="{" horiz-adv-x="716" 
d="M369 -356q-128 0 -193.5 84.5t-38.5 224.5l74 381q14 79 -28.5 143.5t-125.5 87.5l4 60q93 23 165 91.5t89 147.5l72 381q27 139 121 220t223 83h127l-14 -78h-119q-91 0 -164 -63.5t-94 -167.5l-72 -379q-17 -85 -78.5 -160t-144.5 -108q66 -33 101 -109t18 -159
l-74 -379q-20 -104 24.5 -165t133.5 -61h129l-15 -75h-120z" />
    <glyph glyph-name="bar" unicode="|" horiz-adv-x="413" 
d="M385 1638h90l-397 -2035h-90z" />
    <glyph glyph-name="braceright" unicode="}" horiz-adv-x="716" 
d="M387 1548q128 0 193 -85t38 -224l-73 -381q-15 -80 26.5 -144t124.5 -87l-4 -60q-92 -25 -163.5 -93t-88.5 -146l-73 -383q-27 -138 -120.5 -218.5t-221.5 -82.5h-129l14 75h121q90 0 162.5 64.5t93.5 169.5l73 377q15 85 77 159.5t145 110.5q-64 33 -99 109t-20 159
l76 377q20 104 -24.5 164.5t-135.5 60.5h-129l14 78h123z" />
    <glyph glyph-name="asciitilde" unicode="~" horiz-adv-x="1142" 
d="M248 528l-76 19q30 103 97 164t145 61q48 0 103.5 -24t96.5 -53t89 -53t83 -24q54 0 99.5 41.5t70.5 122.5l78 -16q-32 -103 -99 -165t-144 -62q-45 0 -98 24t-94 52.5t-91 52.5t-88 24q-56 0 -101.5 -41t-70.5 -123z" />
    <glyph glyph-name="uni00A0" unicode="&#xa0;" horiz-adv-x="526" 
 />
    <glyph glyph-name="exclamdown" unicode="&#xa1;" horiz-adv-x="434" 
d="M387 1454q38 0 64 -26t26 -64t-26 -65t-64 -27q-39 0 -65.5 26.5t-26.5 65.5q0 38 26 64t66 26zM180 0h-102l215 1079h90z" />
    <glyph glyph-name="cent" unicode="&#xa2;" horiz-adv-x="1105" 
d="M1071 690h-88q3 101 -89 170.5t-220 69.5q-206 0 -346 -134.5t-140 -336.5q0 -169 105 -282.5t268 -113.5q83 0 160.5 28t138 85.5t86.5 134.5h88q-43 -153 -180 -242t-303 -89h-4l-43 -226h-90l45 234q-161 32 -261 161t-100 306q0 235 159 391.5t402 165.5l43 227h89
l-46 -231q143 -18 236.5 -106.5t89.5 -211.5z" />
    <glyph glyph-name="sterling" unicode="&#xa3;" horiz-adv-x="1411" 
d="M1028 1454q142 0 227.5 -76.5t75.5 -199.5h-90q7 85 -57 137.5t-172 52.5q-124 0 -220 -90t-124 -229l-56 -279h445l-15 -78h-444l-45 -227q-57 -264 -242 -379h830l-17 -86h-940l17 86q211 131 260 379l45 227h-170l16 78h168l58 287q34 172 161 284.5t289 112.5z" />
    <glyph glyph-name="currency" unicode="&#xa4;" horiz-adv-x="1536" 
d="M1321 707q-36 -190 -182 -324l172 -211l-70 -61l-174 213q-74 -57 -163.5 -89t-178.5 -32q-193 0 -313 127l-262 -219l-52 61l262 219q-95 146 -59 330q39 191 186 326l-178 213l72 61l176 -215q161 121 350 121q192 0 305 -123l258 217l52 -61l-258 -218
q96 -148 57 -335zM727 285q183 0 332.5 126.5t183.5 309.5q34 178 -65.5 301t-274.5 123q-183 0 -335.5 -127.5t-186.5 -310.5q-21 -114 18 -211t126 -154t202 -57z" />
    <glyph glyph-name="yen" unicode="&#xa5;" horiz-adv-x="1216" 
d="M1360 1434l-610 -707h344l-17 -78h-389l-127 -649h-92l129 649h-399l18 78h350l-340 707h103l327 -684l590 684h113z" />
    <glyph glyph-name="brokenbar" unicode="&#xa6;" horiz-adv-x="413" 
d="M242 907l143 731h90l-143 -731h-90zM-12 -397l143 731h90l-143 -731h-90z" />
    <glyph glyph-name="section" unicode="&#xa7;" horiz-adv-x="1312" 
d="M823 1368q-143 0 -254 -74.5t-133 -187.5q-12 -61 2 -107.5t47.5 -74.5t81 -49.5t103 -33.5t114.5 -27t114 -29.5t102 -41.5t79 -62t43.5 -91.5t-2.5 -130.5q-12 -65 -62.5 -138.5t-119.5 -123.5q97 -84 66 -248q-28 -151 -172 -255t-338 -104q-261 0 -451 179l63 63
q162 -158 392 -158q157 0 277.5 83t142.5 202q13 67 -5 116t-59 76t-97.5 48.5t-121 34t-128.5 31.5t-119.5 42t-95 65t-55 100.5t0.5 148.5q12 64 63.5 133.5t120.5 113.5q-106 82 -72 246q29 147 163.5 241.5t313.5 94.5q128 0 232.5 -46.5t146.5 -117.5l-65 -59
q-37 64 -123.5 102.5t-194.5 38.5zM1034 471q14 68 -5.5 118t-59 78t-101 50t-120.5 34.5t-131 31.5t-119 40q-63 -31 -114 -95t-62 -118q-14 -72 5.5 -125t59.5 -81.5t102.5 -51t122.5 -34.5t132.5 -31.5t119.5 -42.5q65 40 112 104.5t58 122.5z" />
    <glyph glyph-name="dieresis" unicode="&#xa8;" horiz-adv-x="632" 
d="M63 1401q30 0 54 -23t24 -53q0 -33 -24 -55.5t-54 -22.5q-33 0 -56 22.5t-23 55.5q0 31 23.5 53.5t55.5 22.5zM334 1401q30 0 54 -23t24 -53q0 -33 -24 -55.5t-54 -22.5q-33 0 -56.5 22.5t-23.5 55.5q0 31 24 53.5t56 22.5z" />
    <glyph glyph-name="copyright" unicode="&#xa9;" horiz-adv-x="1730" 
d="M907 -20q-198 0 -367.5 99t-268.5 268.5t-99 369.5t99 369.5t268.5 268.5t367.5 99q150 0 287 -58.5t236.5 -157.5t158 -235t58.5 -286t-58.5 -286t-158 -235t-236.5 -157.5t-287 -58.5zM909 37q137 0 262 54t215.5 145t144.5 217t54 264t-54 264t-144.5 217t-215.5 145
t-262 54t-262.5 -54t-216.5 -145t-145 -217t-54 -264t54 -264t145 -217t216.5 -145t262.5 -54zM911 281q-177 0 -298 127t-121 313q0 183 121 308.5t298 125.5q138 0 243.5 -78.5t133.5 -202.5h-69q-28 98 -113.5 159t-194.5 61q-149 0 -251.5 -108.5t-102.5 -264.5
q0 -160 102.5 -269.5t251.5 -109.5q111 0 198 63.5t110 165.5h71q-28 -129 -133.5 -209.5t-245.5 -80.5z" />
    <glyph glyph-name="ordfeminine" unicode="&#xaa;" horiz-adv-x="731" 
d="M797 1440h63l-115 -596h-63l31 160q-46 -80 -123 -126.5t-168 -46.5q-126 0 -196.5 91.5t-45.5 220.5q26 130 131.5 219.5t231.5 89.5q92 0 150 -45t73 -125zM444 893q107 0 190 71t105 179q20 108 -35.5 178t-162.5 70q-104 0 -190.5 -72t-108.5 -176q-20 -104 39 -177
t163 -73z" />
    <glyph glyph-name="guillemotleft" unicode="&#xab;" horiz-adv-x="1255" 
d="M561 70l-467 432l15 67l632 430l-20 -104l-539 -367l398 -366zM1053 70l-467 432l14 67l633 430l-21 -104l-538 -367l397 -366z" />
    <glyph glyph-name="logicalnot" unicode="&#xac;" horiz-adv-x="1189" 
d="M1065 682l-98 -502h-86l80 418h-779l17 84h866z" />
    <glyph glyph-name="uni00AD" unicode="&#xad;" horiz-adv-x="593" 
d="M49 485l17 82h491l-16 -82h-492z" />
    <glyph glyph-name="registered" unicode="&#xae;" horiz-adv-x="1730" 
d="M907 1454q150 0 287 -58.5t236.5 -157.5t158 -235t58.5 -286t-58.5 -286t-158 -235t-236.5 -157.5t-287 -58.5q-198 0 -367.5 99t-268.5 268.5t-99 369.5t99 369.5t268.5 268.5t367.5 99zM909 37q137 0 262 54t215.5 145t144.5 217t54 264t-54 264t-144.5 217t-215.5 145
t-262 54t-262.5 -54t-216.5 -145t-145 -217t-54 -264t54 -264t145 -217t216.5 -145t262.5 -54zM1198 909q0 -99 -62 -165t-161 -74l260 -377h-78l-254 377h-188v-377h-66v850h303q106 0 176 -67t70 -167zM713 1081l2 -350h235q80 0 132.5 50t52.5 128q0 74 -53 123t-132 49
h-237z" />
    <glyph glyph-name="macron" unicode="&#xaf;" horiz-adv-x="860" 
d="M229 1151l15 76h655l-14 -76h-656z" />
    <glyph glyph-name="degree" unicode="&#xb0;" horiz-adv-x="778" 
d="M803 1176q0 -117 -83 -201t-198 -84q-116 0 -199 84t-83 201q0 115 83 196.5t199 81.5t198.5 -81.5t82.5 -196.5zM735 1176q0 87 -62.5 148.5t-150.5 61.5t-151.5 -61.5t-63.5 -148.5q0 -89 63.5 -153.5t151.5 -64.5t150.5 64.5t62.5 153.5z" />
    <glyph glyph-name="plusminus" unicode="&#xb1;" horiz-adv-x="1163" 
d="M666 713h376l-14 -84h-379l-74 -379h-83l73 379h-377l17 84h377l73 377h82zM66 0l16 82h838l-15 -82h-839z" />
    <glyph glyph-name="uni00B2" unicode="&#xb2;" horiz-adv-x="641" 
d="M70 573l10 52l412 350q84 73 125 121.5t51 97.5q15 77 -33 132.5t-131 55.5q-94 0 -159.5 -55.5t-84.5 -148.5l-63 8q20 118 107 189t204 71q112 0 180.5 -76.5t46.5 -177.5q-22 -120 -196 -258l-357 -297h457l-12 -64h-557z" />
    <glyph glyph-name="uni00B3" unicode="&#xb3;" horiz-adv-x="651" 
d="M324 1063l338 307h-441l15 64h530l-8 -50l-348 -307q79 14 143 -17t94 -95t15 -142q-23 -120 -114.5 -191t-213.5 -71q-107 0 -179 59t-77 150l63 18q4 -74 58 -118.5t137 -44.5q94 0 167.5 56t90.5 146q22 112 -53.5 167.5t-200.5 23.5z" />
    <glyph glyph-name="acute" unicode="&#xb4;" horiz-adv-x="485" 
d="M559 1391l-246 -275h-92l217 275h121z" />
    <glyph glyph-name="uni00B5" unicode="&#xb5;" horiz-adv-x="1202" 
d="M1051 991h88l-193 -991h-88l41 213q-68 -110 -174.5 -171.5t-232.5 -61.5q-222 0 -312 151l-102 -528h-90l270 1388h90l-119 -606q-17 -148 58 -235t221 -87q163 0 280.5 99.5t151.5 263.5z" />
    <glyph glyph-name="paragraph" unicode="&#xb6;" horiz-adv-x="1263" 
d="M1356 1434l-6 -86h-162l-299 -1745h-88l299 1745h-201l-299 -1745h-88l178 1046h-172q-166 0 -264 117t-72 283q26 161 159.5 273t299.5 112h715zM707 735l104 613h-176q-126 0 -232 -90t-131 -218q-23 -126 47.5 -215.5t196.5 -89.5h191z" />
    <glyph glyph-name="periodcentered" unicode="&#xb7;" horiz-adv-x="436" 
d="M223 432q-38 0 -64 26t-26 64t26 65t64 27t65 -27t27 -65t-27 -64t-65 -26z" />
    <glyph glyph-name="cedilla" unicode="&#xb8;" horiz-adv-x="483" 
d="M72 29l67 -6q53 -53 78.5 -109t25 -105t-22.5 -94t-60.5 -76.5t-93 -51t-115.5 -19.5l-21 67q120 14 184 72t54.5 144t-96.5 178z" />
    <glyph glyph-name="uni00B9" unicode="&#xb9;" horiz-adv-x="385" 
d="M508 1434l-166 -861h-68l152 768l-233 -176l12 84l254 185h49z" />
    <glyph glyph-name="ordmasculine" unicode="&#xba;" horiz-adv-x="724" 
d="M549 1452q128 0 200 -90t46 -219q-25 -131 -132 -221.5t-237 -90.5q-128 0 -199.5 90t-46.5 222q26 129 133 219t236 90zM535 1391q-101 0 -185 -72t-106 -176q-20 -104 36.5 -177t159.5 -73q101 0 186 73t105 177q22 104 -35.5 176t-160.5 72z" />
    <glyph glyph-name="guillemotright" unicode="&#xbb;" horiz-adv-x="1255" 
d="M203 997l467 -430l-15 -69l-632 -430l20 104l539 367l-398 366zM694 997l467 -430l-14 -69l-633 -430l21 104l538 367l-397 366z" />
    <glyph glyph-name="onequarter" unicode="&#xbc;" horiz-adv-x="1507" 
d="M1290 1434h82l-1231 -1434h-82zM248 573l151 768l-235 -176l14 84l252 185h51l-166 -861h-67zM1425 262l-12 -63h-125l-39 -199h-67l39 199h-439l9 49l440 612h78l-435 -598h359l61 320h70l-64 -320h125z" />
    <glyph glyph-name="onehalf" unicode="&#xbd;" horiz-adv-x="1503" 
d="M1290 1434h82l-1231 -1434h-82zM481 1434l-166 -861h-67l151 768l-235 -176l14 84l252 185h51zM868 0l9 51l411 350q84 71 125 120.5t51 99.5q15 77 -32.5 132.5t-131.5 55.5q-94 0 -159 -56t-84 -149l-64 8q21 119 108.5 189.5t205.5 70.5q112 0 179.5 -76t47.5 -178
q-25 -121 -197 -258l-356 -297h457l-15 -63h-555z" />
    <glyph glyph-name="threequarters" unicode="&#xbe;" horiz-adv-x="1726" 
d="M662 823q-23 -120 -114.5 -191t-213.5 -71q-107 0 -179 59t-77 150l63 18q4 -74 58 -118.5t137 -44.5q94 0 167.5 56t90.5 146q22 112 -53.5 167.5t-200.5 23.5l-16 45l338 307h-441l15 64h530l-8 -50l-348 -307q79 14 143 -17t94 -95t15 -142zM1509 1434h82l-1231 -1434
h-81zM1642 262l-10 -63h-125l-39 -199h-67l39 199h-439l9 49l440 612h78l-434 -598h358l61 320h68l-61 -320h122z" />
    <glyph glyph-name="questiondown" unicode="&#xbf;" horiz-adv-x="976" 
d="M688 1454q38 0 65 -26t27 -64t-27 -65t-65 -27t-64 27t-26 65t26 64t64 26zM412 -20q-157 0 -265 91.5t-108 223.5q0 91 27.5 165t72 124t99.5 92.5t113 82.5t108.5 82.5t89.5 103.5t53 134h88q-15 -85 -54.5 -154t-89.5 -115.5t-107 -87.5t-111 -80t-98 -83t-70.5 -107
t-26.5 -141q0 -108 82.5 -176.5t208.5 -68.5q155 0 266 95.5t139 252.5h89q-32 -195 -171.5 -314.5t-334.5 -119.5z" />
    <glyph glyph-name="Agrave" unicode="&#xc0;" horiz-adv-x="1312" 
d="M928 1559h-92l-246 274h121zM1085 0l-81 397h-732l-237 -397h-98l854 1434h94l299 -1434h-99zM324 483h663l-170 830z" />
    <glyph glyph-name="Aacute" unicode="&#xc1;" horiz-adv-x="1312" 
d="M1137 1833l-246 -274h-92l217 274h121zM1085 0l-81 397h-732l-237 -397h-98l854 1434h94l299 -1434h-99zM324 483h663l-170 830z" />
    <glyph glyph-name="Acircumflex" unicode="&#xc2;" horiz-adv-x="1312" 
d="M897 1788l-188 -211h-86l231 274h102l127 -274h-77zM1085 0l-81 397h-732l-237 -397h-98l854 1434h94l299 -1434h-99zM324 483h663l-170 830z" />
    <glyph glyph-name="Atilde" unicode="&#xc3;" horiz-adv-x="1312" 
d="M756 1706q-46 0 -83 -36t-46 -91l-74 16q21 86 77 137.5t122 51.5q39 0 79 -19t67 -42.5t58.5 -42.5t57.5 -19q48 0 85 35t46 90l76 -17q-23 -86 -79.5 -137t-123.5 -51q-39 0 -78 19.5t-65 43t-58.5 43t-60.5 19.5zM791 1434h94l299 -1434h-99l-81 397h-732l-237 -397
h-98zM324 483h663l-170 830z" />
    <glyph glyph-name="Adieresis" unicode="&#xc4;" horiz-adv-x="1312" 
d="M727 1593q-32 0 -55 23t-23 57q0 30 23 53t55 23q31 0 55.5 -23.5t24.5 -52.5q0 -33 -24.5 -56.5t-55.5 -23.5zM997 1593q-32 0 -54.5 23t-22.5 57q0 30 22.5 53t54.5 23q31 0 55.5 -23.5t24.5 -52.5q0 -33 -24.5 -56.5t-55.5 -23.5zM1085 0l-81 397h-732l-237 -397h-98
l854 1434h94l299 -1434h-99zM324 483h663l-170 830z" />
    <glyph glyph-name="Aring" unicode="&#xc5;" horiz-adv-x="1312" 
d="M879 1556q-98 0 -158 61t-55 155t71 154.5t164 60.5q97 0 157 -60.5t56 -154.5t-71 -155t-164 -61zM731 1772q-3 -65 40 -108.5t110 -43.5q69 0 116 43.5t50 108.5t-39 108t-111 43q-68 0 -115.5 -43.5t-50.5 -107.5zM1085 0l-81 397h-732l-237 -397h-98l854 1434h94
l299 -1434h-99zM324 483h663l-170 830z" />
    <glyph glyph-name="AE" unicode="&#xc6;" horiz-adv-x="1871" 
d="M1907 1348h-676l-103 -527h605l-17 -86h-602l-129 -649h676l-14 -86h-768l79 410h-577l-338 -410h-106l1185 1434h801zM975 492l162 835l-688 -835h526z" />
    <glyph glyph-name="Ccedilla" unicode="&#xc7;" horiz-adv-x="1595" 
d="M770 66q207 0 374 111t232 290h101q-74 -216 -268.5 -351t-436.5 -136q46 -60 59.5 -121.5t-4 -112t-56 -91t-98 -63.5t-128.5 -24l-21 67q109 13 173 64t66 123.5t-58 159.5q-246 22 -400.5 194.5t-154.5 423.5q0 169 68.5 326.5t181.5 273t267 185t318 69.5
q235 0 393.5 -130.5t173.5 -336.5h-96q-14 169 -146.5 275t-330.5 106q-146 0 -282 -62.5t-235.5 -166t-159.5 -244.5t-60 -291q0 -234 147 -386t381 -152z" />
    <glyph glyph-name="Egrave" unicode="&#xc8;" horiz-adv-x="1081" 
d="M500 1833h121l217 -274h-93zM367 1434h768l-17 -86h-678l-102 -527h604l-14 -86h-604l-129 -649h677l-16 -86h-768z" />
    <glyph glyph-name="Eacute" unicode="&#xc9;" horiz-adv-x="1081" 
d="M1047 1833l-246 -274h-92l217 274h121zM367 1434h768l-17 -86h-678l-102 -527h604l-14 -86h-604l-129 -649h677l-16 -86h-768z" />
    <glyph glyph-name="Ecircumflex" unicode="&#xca;" horiz-adv-x="1081" 
d="M807 1788l-189 -211h-86l232 274h102l127 -274h-78zM1118 1348h-678l-102 -527h604l-14 -86h-604l-129 -649h677l-16 -86h-768l279 1434h768z" />
    <glyph glyph-name="Edieresis" unicode="&#xcb;" horiz-adv-x="1081" 
d="M639 1749q31 0 55.5 -23.5t24.5 -52.5q0 -33 -24.5 -56.5t-55.5 -23.5q-32 0 -55 23t-23 57q0 30 23 53t55 23zM909 1749q31 0 55.5 -23.5t24.5 -52.5q0 -33 -24.5 -56.5t-55.5 -23.5q-32 0 -55 23t-23 57q0 30 23 53t55 23zM367 1434h768l-17 -86h-678l-102 -527h604
l-14 -86h-604l-129 -649h677l-16 -86h-768z" />
    <glyph glyph-name="Igrave" unicode="&#xcc;" horiz-adv-x="458" 
d="M162 1833h121l217 -274h-92zM367 1434h90l-279 -1434h-90z" />
    <glyph glyph-name="Iacute" unicode="&#xcd;" horiz-adv-x="458" 
d="M709 1833l-246 -274h-92l217 274h121zM367 1434h90l-279 -1434h-90z" />
    <glyph glyph-name="Icircumflex" unicode="&#xce;" horiz-adv-x="458" 
d="M655 1577h-77l-109 211l-188 -211h-86l231 274h102zM88 0l279 1434h90l-279 -1434h-90z" />
    <glyph glyph-name="Idieresis" unicode="&#xcf;" horiz-adv-x="458" 
d="M299 1749q31 0 55.5 -23.5t24.5 -52.5q0 -33 -24.5 -56.5t-55.5 -23.5q-32 0 -55 23t-23 57q0 30 23 53t55 23zM569 1749q31 0 55.5 -23.5t24.5 -52.5q0 -33 -24.5 -56.5t-55.5 -23.5q-32 0 -54.5 23t-22.5 57q0 30 22.5 53t54.5 23zM367 1434h90l-279 -1434h-90z" />
    <glyph glyph-name="Eth" unicode="&#xd0;" horiz-adv-x="1423" 
d="M766 1434q100 0 191.5 -30t164 -85.5t126.5 -128.5t83 -163.5t29 -186.5q0 -176 -63 -332t-172 -267.5t-261.5 -176t-324.5 -64.5h-451l133 688h-241l12 70h244l131 676h399zM549 86q200 0 364.5 99.5t258.5 272.5t94 382q0 211 -145.5 359.5t-358.5 148.5h-322
l-114 -590h252l-13 -70h-254l-116 -602h354z" />
    <glyph glyph-name="Ntilde" unicode="&#xd1;" horiz-adv-x="1454" 
d="M629 1595q21 86 76.5 137.5t121.5 51.5q39 0 79 -19t67 -42.5t59 -42.5t58 -19q48 0 85 35t46 90l75 -17q-23 -86 -79 -137t-123 -51q-39 0 -78 19.5t-65 43t-59 43t-61 19.5q-46 0 -83 -36t-46 -91zM367 1434h96l647 -1284l252 1284h90l-278 -1434h-95l-649 1284
l-252 -1284h-90z" />
    <glyph glyph-name="Ograve" unicode="&#xd2;" horiz-adv-x="1667" 
d="M768 1833h121l217 -274h-92zM983 1454q181 0 323.5 -80t221 -220.5t78.5 -315.5q0 -164 -68.5 -321.5t-181.5 -275t-269 -189.5t-321 -72q-179 0 -320.5 80.5t-218.5 221.5t-77 318q0 225 115 422.5t307.5 314.5t410.5 117zM981 1368q-146 0 -282.5 -62.5t-236.5 -166
t-160 -244.5t-60 -291q0 -234 146.5 -386t379.5 -152q146 0 283 63.5t237.5 168.5t161.5 247t61 291q0 231 -148 381.5t-382 150.5z" />
    <glyph glyph-name="Oacute" unicode="&#xd3;" horiz-adv-x="1667" 
d="M1315 1833l-246 -274h-92l217 274h121zM983 1454q181 0 323.5 -80t221 -220.5t78.5 -315.5q0 -164 -68.5 -321.5t-181.5 -275t-269 -189.5t-321 -72q-179 0 -320.5 80.5t-218.5 221.5t-77 318q0 225 115 422.5t307.5 314.5t410.5 117zM981 1368q-146 0 -282.5 -62.5
t-236.5 -166t-160 -244.5t-60 -291q0 -234 146.5 -386t379.5 -152q146 0 283 63.5t237.5 168.5t161.5 247t61 291q0 231 -148 381.5t-382 150.5z" />
    <glyph glyph-name="Ocircumflex" unicode="&#xd4;" horiz-adv-x="1667" 
d="M1075 1788l-188 -211h-86l231 274h103l127 -274h-78zM983 1454q181 0 323.5 -80t221 -220.5t78.5 -315.5q0 -164 -68.5 -321.5t-181.5 -275t-269 -189.5t-321 -72q-179 0 -320.5 80.5t-218.5 221.5t-77 318q0 225 115 422.5t307.5 314.5t410.5 117zM768 66
q146 0 283 63.5t237.5 168.5t161.5 247t61 291q0 231 -148 381.5t-382 150.5q-146 0 -282.5 -62.5t-236.5 -166t-160 -244.5t-60 -291q0 -234 146.5 -386t379.5 -152z" />
    <glyph glyph-name="Otilde" unicode="&#xd5;" horiz-adv-x="1667" 
d="M733 1595q21 86 77 137.5t122 51.5q39 0 79 -19t67 -42.5t58.5 -42.5t57.5 -19q48 0 85 35t46 90l76 -17q-23 -86 -79.5 -137t-123.5 -51q-39 0 -78 19.5t-65 43t-58.5 43t-60.5 19.5q-46 0 -83 -36t-46 -91zM983 1454q181 0 323.5 -80t221 -220.5t78.5 -315.5
q0 -164 -68.5 -321.5t-181.5 -275t-269 -189.5t-321 -72q-179 0 -320.5 80.5t-218.5 221.5t-77 318q0 225 115 422.5t307.5 314.5t410.5 117zM981 1368q-146 0 -282.5 -62.5t-236.5 -166t-160 -244.5t-60 -291q0 -234 146.5 -386t379.5 -152q146 0 283 63.5t237.5 168.5
t161.5 247t61 291q0 231 -148 381.5t-382 150.5z" />
    <glyph glyph-name="Odieresis" unicode="&#xd6;" horiz-adv-x="1667" 
d="M905 1749q31 0 55.5 -23.5t24.5 -52.5q0 -33 -24.5 -56.5t-55.5 -23.5q-32 0 -55 23t-23 57q0 30 23 53t55 23zM1176 1749q31 0 55 -23.5t24 -52.5q0 -33 -24 -56.5t-55 -23.5q-32 0 -55 23t-23 57q0 30 23 53t55 23zM983 1454q181 0 323.5 -80t221 -220.5t78.5 -315.5
q0 -164 -68.5 -321.5t-181.5 -275t-269 -189.5t-321 -72q-179 0 -320.5 80.5t-218.5 221.5t-77 318q0 225 115 422.5t307.5 314.5t410.5 117zM981 1368q-146 0 -282.5 -62.5t-236.5 -166t-160 -244.5t-60 -291q0 -234 146.5 -386t379.5 -152q146 0 283 63.5t237.5 168.5
t161.5 247t61 291q0 231 -148 381.5t-382 150.5z" />
    <glyph glyph-name="multiply" unicode="&#xd7;" horiz-adv-x="1030" 
d="M952 936l-352 -297l240 -295l-66 -57l-239 295l-351 -295l-51 61l350 297l-235 291l65 57l238 -293l350 297z" />
    <glyph glyph-name="Oslash" unicode="&#xd8;" horiz-adv-x="1667" 
d="M983 1454q181 0 323.5 -80t221 -220.5t78.5 -315.5q0 -164 -68.5 -321.5t-181.5 -275t-269 -189.5t-321 -72q-179 0 -320.5 80.5t-218.5 221.5t-77 318q0 225 115 422.5t307.5 314.5t410.5 117zM242 604q0 -206 114 -348l990 977q-144 135 -365 135q-146 0 -282.5 -62.5
t-236.5 -166t-160 -244.5t-60 -291zM768 66q146 0 283 63.5t237.5 168.5t161.5 247t61 291q0 199 -112 342l-991 -979q146 -133 360 -133z" />
    <glyph glyph-name="Ugrave" unicode="&#xd9;" horiz-adv-x="1441" 
d="M649 1833h121l217 -274h-92zM649 -20q-164 0 -279.5 72.5t-161.5 199.5t-15 285l174 897h90l-176 -904q-39 -203 64 -332.5t310 -129.5q193 0 335.5 125.5t183.5 334.5l174 906h92l-178 -912q-47 -246 -215 -394t-398 -148z" />
    <glyph glyph-name="Uacute" unicode="&#xda;" horiz-adv-x="1441" 
d="M1198 1833l-246 -274h-92l217 274h121zM649 -20q-164 0 -279.5 72.5t-161.5 199.5t-15 285l174 897h90l-176 -904q-39 -203 64 -332.5t310 -129.5q193 0 335.5 125.5t183.5 334.5l174 906h92l-178 -912q-47 -246 -215 -394t-398 -148z" />
    <glyph glyph-name="Ucircumflex" unicode="&#xdb;" horiz-adv-x="1441" 
d="M965 1788l-189 -213h-86l232 276h102l127 -276h-78zM1348 1434h92l-178 -912q-47 -246 -215 -394t-398 -148q-164 0 -279.5 72.5t-161.5 199.5t-15 285l174 897h90l-176 -904q-39 -203 64 -332.5t310 -129.5q193 0 335.5 125.5t183.5 334.5z" />
    <glyph glyph-name="Udieresis" unicode="&#xdc;" horiz-adv-x="1441" 
d="M801 1749q29 0 53.5 -23.5t24.5 -52.5q0 -33 -24 -56.5t-54 -23.5q-33 0 -56.5 23.5t-23.5 56.5q0 30 24 53t56 23zM1069 1749q31 0 55.5 -23.5t24.5 -52.5q0 -33 -24.5 -56.5t-55.5 -23.5q-32 0 -55 23t-23 57q0 30 23 53t55 23zM649 -20q-164 0 -279.5 72.5
t-161.5 199.5t-15 285l174 897h90l-176 -904q-39 -203 64 -332.5t310 -129.5q193 0 335.5 125.5t183.5 334.5l174 906h92l-178 -912q-47 -246 -215 -394t-398 -148z" />
    <glyph glyph-name="Yacute" unicode="&#xdd;" horiz-adv-x="1218" 
d="M1090 1833l-246 -274h-92l217 274h121zM227 1434h103l327 -684l590 684h113l-670 -777l-129 -657h-92l131 659z" />
    <glyph glyph-name="Thorn" unicode="&#xde;" horiz-adv-x="1212" 
d="M836 1112q145 0 246.5 -100.5t101.5 -239.5q0 -182 -139 -313t-330 -131h-473l-64 -328h-90l279 1434h90l-64 -322h443zM721 414q148 0 260.5 104.5t112.5 247.5q0 105 -78 182.5t-189 77.5h-450l-119 -612h463z" />
    <glyph glyph-name="germandbls" unicode="&#xdf;" horiz-adv-x="1200" 
d="M66 0l202 1042q36 188 181.5 300t341.5 112q178 0 280.5 -114.5t71.5 -272.5q-25 -126 -117.5 -213t-216.5 -100q149 -12 228 -114.5t50 -252.5q-21 -107 -90.5 -196t-169 -140t-206.5 -51h-308l17 86h299q129 0 237 92t133 221q27 133 -54.5 219.5t-250.5 86.5h-243
l16 83h229q127 0 231.5 83.5t129.5 205.5q24 120 -53 206.5t-213 86.5q-159 0 -281.5 -93.5t-151.5 -240.5l-202 -1036h-90z" />
    <glyph glyph-name="agrave" unicode="&#xe0;" horiz-adv-x="1282" 
d="M879 1116h-91l-247 275h121zM1128 991h89l-193 -991h-90l49 250q-73 -125 -190 -197.5t-256 -72.5q-112 0 -203.5 41t-149.5 115.5t-81.5 177.5t1.5 227q40 205 194.5 338t354.5 133q173 0 282 -83.5t134 -234.5zM555 61q161 0 291 105.5t172 259.5l14 72
q26 197 -78 314.5t-297 117.5q-170 0 -301 -111.5t-163 -283.5q-39 -209 65 -341.5t297 -132.5z" />
    <glyph glyph-name="aacute" unicode="&#xe1;" horiz-adv-x="1226" 
d="M1026 1391l-248 -275h-92l217 275h123zM1128 991h89l-193 -991h-90l49 250q-73 -125 -190 -197.5t-256 -72.5q-112 0 -203.5 41t-149.5 115.5t-81.5 177.5t1.5 227q40 205 194.5 338t354.5 133q173 0 282 -83.5t134 -234.5zM555 61q161 0 291 105.5t172 259.5l14 72
q26 197 -78 314.5t-297 117.5q-170 0 -301 -111.5t-163 -283.5q-39 -209 65 -341.5t297 -132.5z" />
    <glyph glyph-name="acircumflex" unicode="&#xe2;" horiz-adv-x="1226" 
d="M584 1346l-191 -211h-86l232 274h104l127 -274h-80zM1128 991h89l-193 -991h-90l49 250q-73 -125 -190 -197.5t-256 -72.5q-112 0 -203.5 41t-149.5 115.5t-81.5 177.5t1.5 227q40 205 194.5 338t354.5 133q173 0 282 -83.5t134 -234.5zM555 61q161 0 291 105.5
t172 259.5l14 72q26 197 -78 314.5t-297 117.5q-170 0 -301 -111.5t-163 -283.5q-39 -209 65 -341.5t297 -132.5z" />
    <glyph glyph-name="atilde" unicode="&#xe3;" horiz-adv-x="1282" 
d="M702 1264q-46 0 -83 -36t-46 -91l-73 16q21 86 76.5 137t121.5 51q39 0 79 -19t67 -42t59 -42t58 -19q48 0 85 34.5t46 89.5l75 -16q-23 -86 -79 -137t-123 -51q-39 0 -78 19.5t-65 43t-59 43t-61 19.5zM1128 991h89l-193 -991h-90l49 250q-73 -125 -190 -197.5
t-256 -72.5q-112 0 -203.5 41t-149.5 115.5t-81.5 177.5t1.5 227q40 205 194.5 338t354.5 133q173 0 282 -83.5t134 -234.5zM555 61q161 0 291 105.5t172 259.5l14 72q26 197 -78 314.5t-297 117.5q-170 0 -301 -111.5t-163 -283.5q-39 -209 65 -341.5t297 -132.5z" />
    <glyph glyph-name="adieresis" unicode="&#xe4;" horiz-adv-x="1226" 
d="M381 1247q-33 0 -56.5 22.5t-23.5 55.5q0 31 24 53.5t56 22.5q30 0 54 -23t24 -53q0 -33 -24 -55.5t-54 -22.5zM651 1247q-33 0 -56.5 22.5t-23.5 55.5q0 31 24 53.5t56 22.5q30 0 54 -23t24 -53q0 -33 -24 -55.5t-54 -22.5zM1128 991h89l-193 -991h-90l49 250
q-73 -125 -190 -197.5t-256 -72.5q-112 0 -203.5 41t-149.5 115.5t-81.5 177.5t1.5 227q40 205 194.5 338t354.5 133q173 0 282 -83.5t134 -234.5zM555 61q161 0 291 105.5t172 259.5l14 72q26 197 -78 314.5t-297 117.5q-170 0 -301 -111.5t-163 -283.5q-39 -209 65 -341.5
t297 -132.5z" />
    <glyph glyph-name="aring" unicode="&#xe5;" horiz-adv-x="1226" 
d="M768 1114q-97 0 -157 60.5t-56 154.5q4 93 71.5 154t164.5 61t157 -60.5t56 -154.5t-71 -154.5t-165 -60.5zM623 1329q-3 -65 39 -108t110 -43t115.5 43.5t50.5 107.5q3 65 -40 108.5t-112 43.5q-67 0 -113.5 -43.5t-49.5 -108.5zM1128 991h89l-193 -991h-90l49 250
q-73 -125 -190 -197.5t-256 -72.5q-112 0 -203.5 41t-149.5 115.5t-81.5 177.5t1.5 227q40 205 194.5 338t354.5 133q173 0 282 -83.5t134 -234.5zM555 61q161 0 291 105.5t172 259.5l14 72q26 197 -78 314.5t-297 117.5q-170 0 -301 -111.5t-163 -283.5q-39 -209 65 -341.5
t297 -132.5z" />
    <glyph glyph-name="ae" unicode="&#xe6;" horiz-adv-x="2041" 
d="M1954 504h-832l-37 -191q37 -114 134 -183t225 -69q130 0 237.5 63.5t145.5 178.5h92q-43 -149 -180 -236t-303 -87q-118 0 -217 51.5t-160 142.5l-35 -174h-90l49 250q-73 -125 -190 -197.5t-256 -72.5q-112 0 -203.5 41t-149.5 115.5t-81.5 177.5t1.5 227
q40 205 194.5 338t354.5 133q160 0 266.5 -71.5t141.5 -201.5q3 4 8 12t9.5 15t8.5 12l41 213h89l-19 -98q147 119 342 119q187 0 305.5 -117.5t118.5 -304.5q0 -38 -10 -86zM1538 932q-111 0 -207.5 -48t-161.5 -132l-32 -172h737q-1 165 -90.5 258.5t-245.5 93.5zM555 61
q137 0 254.5 80t177.5 205q-8 41 -8 94q0 124 47 230q-29 123 -126.5 191.5t-242.5 68.5q-170 0 -301 -111.5t-163 -283.5q-39 -209 65 -341.5t297 -132.5z" />
    <glyph glyph-name="ccedilla" unicode="&#xe7;" horiz-adv-x="1165" 
d="M1071 690h-88q3 101 -89 170.5t-220 69.5q-206 0 -346 -134.5t-140 -336.5q0 -169 105 -282.5t268 -113.5q83 0 160.5 28t138 85.5t86.5 134.5h88q-43 -153 -180 -242t-303 -89q-29 0 -43 2q58 -74 64.5 -150.5t-29 -133t-105 -93t-155.5 -37.5l-21 67q112 13 176 66
t63 128.5t-67 164.5q-151 38 -243.5 164.5t-92.5 296.5q0 159 76.5 287t210.5 199t299 71t278 -92.5t109 -229.5z" />
    <glyph glyph-name="egrave" unicode="&#xe8;" horiz-adv-x="1169" 
d="M774 1116h-92l-246 275h121zM1071 504h-887q-4 -40 -4 -60q0 -164 109 -273.5t272 -109.5q130 0 237 63.5t144 178.5h94q-44 -149 -181 -236t-304 -87q-194 0 -324.5 132t-130.5 328q0 119 45 225.5t121 182.5t179 120t216 44q187 0 305.5 -117.5t118.5 -304.5
q0 -14 -10 -86zM655 932q-162 0 -287.5 -98.5t-168.5 -253.5h792q-1 165 -91.5 258.5t-244.5 93.5z" />
    <glyph glyph-name="eacute" unicode="&#xe9;" horiz-adv-x="1169" 
d="M983 1391l-246 -275h-92l217 275h121zM1071 504h-887q-4 -40 -4 -60q0 -164 109 -273.5t272 -109.5q130 0 237 63.5t144 178.5h94q-44 -149 -181 -236t-304 -87q-194 0 -324.5 132t-130.5 328q0 119 45 225.5t121 182.5t179 120t216 44q187 0 305.5 -117.5t118.5 -304.5
q0 -14 -10 -86zM655 932q-162 0 -287.5 -98.5t-168.5 -253.5h792q-1 165 -91.5 258.5t-244.5 93.5z" />
    <glyph glyph-name="ecircumflex" unicode="&#xea;" horiz-adv-x="1169" 
d="M743 1346l-188 -211h-86l231 274h103l127 -274h-78zM1071 504h-887q-4 -40 -4 -60q0 -164 109 -273.5t272 -109.5q130 0 237 63.5t144 178.5h94q-44 -149 -181 -236t-304 -87q-194 0 -324.5 132t-130.5 328q0 119 45 225.5t121 182.5t179 120t216 44q187 0 305.5 -117.5
t118.5 -304.5q0 -14 -10 -86zM655 932q-162 0 -287.5 -98.5t-168.5 -253.5h792q-1 165 -91.5 258.5t-244.5 93.5z" />
    <glyph glyph-name="edieresis" unicode="&#xeb;" horiz-adv-x="1169" 
d="M618 1247q-34 0 -56.5 22t-22.5 56q0 31 23 53.5t56 22.5q30 0 54 -23t24 -53q0 -33 -24 -55.5t-54 -22.5zM887 1247q-33 0 -55.5 22.5t-22.5 55.5q0 31 23 53.5t55 22.5q31 0 55.5 -23t24.5 -53q0 -33 -24 -55.5t-56 -22.5zM1071 504h-887q-4 -40 -4 -60
q0 -164 109 -273.5t272 -109.5q130 0 237 63.5t144 178.5h94q-44 -149 -181 -236t-304 -87q-194 0 -324.5 132t-130.5 328q0 119 45 225.5t121 182.5t179 120t216 44q187 0 305.5 -117.5t118.5 -304.5q0 -14 -10 -86zM655 932q-162 0 -287.5 -98.5t-168.5 -253.5h792
q-1 165 -91.5 258.5t-244.5 93.5z" />
    <glyph glyph-name="igrave" unicode="&#xec;" horiz-adv-x="413" 
d="M55 1391h121l217 -275h-92zM258 991h90l-192 -991h-90z" />
    <glyph glyph-name="iacute" unicode="&#xed;" horiz-adv-x="413" 
d="M602 1391l-246 -275h-92l217 275h121zM258 991h90l-192 -991h-90z" />
    <glyph glyph-name="icircumflex" unicode="&#xee;" horiz-adv-x="413" 
d="M549 1135h-78l-109 211l-188 -211h-86l231 274h103zM66 0l192 991h90l-192 -991h-90z" />
    <glyph glyph-name="idieresis" unicode="&#xef;" horiz-adv-x="413" 
d="M236 1401q30 0 53.5 -23t23.5 -53q0 -33 -23.5 -55.5t-53.5 -22.5q-34 0 -57 22t-23 56q0 31 23.5 53.5t56.5 22.5zM504 1401q31 0 55.5 -23t24.5 -53q0 -33 -24 -55.5t-56 -22.5q-33 0 -55.5 22.5t-22.5 55.5q0 31 23 53.5t55 22.5zM258 991h90l-192 -991h-90z" />
    <glyph glyph-name="eth" unicode="&#xf0;" horiz-adv-x="1314" 
d="M1579 1290l-14 -69h-293l-139 -723q-30 -153 -120.5 -271.5t-219.5 -182.5t-275 -64t-252.5 69.5t-151.5 190.5t-18 268q43 212 216 358t380 146q161 0 265 -77t130 -202l97 488h-262l14 69h260l29 144h88l-27 -144h293zM1042 504q34 186 -62 306t-282 120
q-184 0 -334 -127.5t-184 -310.5q-34 -182 65 -305.5t277 -123.5q191 0 338 124.5t182 316.5z" />
    <glyph glyph-name="ntilde" unicode="&#xf1;" horiz-adv-x="1202" 
d="M604 1264q-46 0 -83 -36t-46 -91l-74 16q21 86 77 137t122 51q39 0 79 -19t67 -42t58.5 -42t57.5 -19q48 0 85 34.5t46 89.5l76 -16q-23 -86 -79.5 -137t-123.5 -51q-39 0 -78 19.5t-65 43t-58.5 43t-60.5 19.5zM713 1012q196 0 290 -119.5t56 -319.5l-113 -573h-88
l111 573q31 163 -43 260t-228 97q-164 0 -281 -100t-151 -263l-110 -567h-90l192 991h90l-41 -211q68 109 174.5 170.5t231.5 61.5z" />
    <glyph glyph-name="ograve" unicode="&#xf2;" horiz-adv-x="1216" 
d="M455 1391h120l218 -275h-93zM670 1012q196 0 325 -129.5t129 -323.5q0 -114 -47 -221t-124.5 -185.5t-184.5 -125.5t-221 -47q-196 0 -325.5 128t-129.5 320q0 115 46.5 223t124.5 187t185 126.5t222 47.5zM666 930q-129 0 -241 -68.5t-177.5 -183t-65.5 -244.5
q0 -161 103 -266t266 -105q95 0 184.5 40.5t155 107t105.5 156.5t40 186q0 162 -104.5 269.5t-265.5 107.5z" />
    <glyph glyph-name="oacute" unicode="&#xf3;" horiz-adv-x="1216" 
d="M1004 1391l-246 -275h-92l217 275h121zM670 1012q196 0 325 -129.5t129 -323.5q0 -114 -47 -221t-124.5 -185.5t-184.5 -125.5t-221 -47q-196 0 -325.5 128t-129.5 320q0 115 46.5 223t124.5 187t185 126.5t222 47.5zM666 930q-129 0 -241 -68.5t-177.5 -183
t-65.5 -244.5q0 -161 103 -266t266 -105q95 0 184.5 40.5t155 107t105.5 156.5t40 186q0 162 -104.5 269.5t-265.5 107.5z" />
    <glyph glyph-name="ocircumflex" unicode="&#xf4;" horiz-adv-x="1216" 
d="M764 1346l-189 -211h-86l232 274h102l127 -274h-78zM670 1012q196 0 325 -129.5t129 -323.5q0 -114 -47 -221t-124.5 -185.5t-184.5 -125.5t-221 -47q-196 0 -325.5 128t-129.5 320q0 115 46.5 223t124.5 187t185 126.5t222 47.5zM551 63q95 0 184.5 40.5t155 107
t105.5 156.5t40 186q0 162 -104.5 269.5t-265.5 107.5q-129 0 -241 -68.5t-177.5 -183t-65.5 -244.5q0 -161 103 -266t266 -105z" />
    <glyph glyph-name="otilde" unicode="&#xf5;" horiz-adv-x="1216" 
d="M420 1153q21 86 76.5 137t121.5 51q39 0 79 -19t67 -42t59 -42t58 -19q48 0 85 34.5t46 89.5l75 -16q-23 -86 -79 -137t-123 -51q-39 0 -78 19.5t-65 43t-58.5 43t-60.5 19.5q-46 0 -83 -36t-46 -91zM670 1012q196 0 325 -129.5t129 -323.5q0 -114 -47 -221
t-124.5 -185.5t-184.5 -125.5t-221 -47q-196 0 -325.5 128t-129.5 320q0 115 46.5 223t124.5 187t185 126.5t222 47.5zM666 930q-129 0 -241 -68.5t-177.5 -183t-65.5 -244.5q0 -161 103 -266t266 -105q95 0 184.5 40.5t155 107t105.5 156.5t40 186q0 162 -104.5 269.5
t-265.5 107.5z" />
    <glyph glyph-name="odieresis" unicode="&#xf6;" horiz-adv-x="1216" 
d="M637 1401q30 0 54 -23t24 -53q0 -33 -24 -55.5t-54 -22.5q-34 0 -57 22t-23 56q0 31 23.5 53.5t56.5 22.5zM905 1401q31 0 55.5 -23t24.5 -53q0 -33 -24 -55.5t-56 -22.5q-33 0 -55.5 22.5t-22.5 55.5q0 31 23 53.5t55 22.5zM670 1012q196 0 325 -129.5t129 -323.5
q0 -114 -47 -221t-124.5 -185.5t-184.5 -125.5t-221 -47q-196 0 -325.5 128t-129.5 320q0 115 46.5 223t124.5 187t185 126.5t222 47.5zM666 930q-129 0 -241 -68.5t-177.5 -183t-65.5 -244.5q0 -161 103 -266t266 -105q95 0 184.5 40.5t155 107t105.5 156.5t40 186
q0 162 -104.5 269.5t-265.5 107.5z" />
    <glyph glyph-name="divide" unicode="&#xf7;" horiz-adv-x="1165" 
d="M676 868q-39 0 -65.5 27t-26.5 66q0 38 26 64t66 26q38 0 64 -26t26 -64q0 -39 -26 -66t-64 -27zM1038 682l-16 -84h-840l17 84h839zM551 229q-38 0 -65 26t-27 64t27 65.5t65 27.5t64 -27t26 -66q0 -38 -26 -64t-64 -26z" />
    <glyph glyph-name="oslash" unicode="&#xf8;" horiz-adv-x="1216" 
d="M670 1012q196 0 325 -129.5t129 -323.5q0 -114 -47 -221t-124.5 -185.5t-184.5 -125.5t-221 -47q-196 0 -325.5 128t-129.5 320q0 115 46.5 223t124.5 187t185 126.5t222 47.5zM182 434q0 -104 45 -187.5t125 -131.5l439 794q-58 21 -125 21q-129 0 -241 -68.5
t-177.5 -183t-65.5 -244.5zM551 63q95 0 184.5 40.5t155 107t105.5 156.5t40 186q0 103 -45.5 187t-124.5 134l-440 -792q62 -19 125 -19z" />
    <glyph glyph-name="ugrave" unicode="&#xf9;" horiz-adv-x="1204" 
d="M803 1116h-92l-246 275h121zM1051 991h88l-193 -991h-88l41 213q-68 -110 -174.5 -171.5t-232.5 -61.5q-195 0 -290 120.5t-55 319.5l111 571h90l-112 -571q-31 -163 43 -260t229 -97q163 0 280.5 99.5t151.5 263.5z" />
    <glyph glyph-name="uacute" unicode="&#xfa;" horiz-adv-x="1202" 
d="M1004 1391l-248 -275h-92l217 275h123zM1051 991h88l-193 -991h-88l41 213q-68 -110 -174.5 -171.5t-232.5 -61.5q-195 0 -290 120.5t-55 319.5l111 571h90l-112 -571q-31 -163 43 -260t229 -97q163 0 280.5 99.5t151.5 263.5z" />
    <glyph glyph-name="ucircumflex" unicode="&#xfb;" horiz-adv-x="1202" 
d="M561 1346l-190 -211h-86l231 274h105l127 -274h-80zM1051 991h88l-193 -991h-88l41 213q-68 -110 -174.5 -171.5t-232.5 -61.5q-195 0 -290 120.5t-55 319.5l111 571h90l-112 -571q-31 -163 43 -260t229 -97q163 0 280.5 99.5t151.5 263.5z" />
    <glyph glyph-name="udieresis" unicode="&#xfc;" horiz-adv-x="1204" 
d="M639 1247q-34 0 -57 22t-23 56q0 31 23.5 53.5t56.5 22.5q30 0 54 -23t24 -53q0 -33 -24 -55.5t-54 -22.5zM907 1247q-33 0 -55.5 22.5t-22.5 55.5q0 31 23 53.5t55 22.5q31 0 55.5 -23t24.5 -53q0 -33 -24 -55.5t-56 -22.5zM1051 991h88l-193 -991h-88l41 213
q-68 -110 -174.5 -171.5t-232.5 -61.5q-195 0 -290 120.5t-55 319.5l111 571h90l-112 -571q-31 -163 43 -260t229 -97q163 0 280.5 99.5t151.5 263.5z" />
    <glyph glyph-name="yacute" unicode="&#xfd;" horiz-adv-x="1021" 
d="M920 1391l-246 -275h-92l217 275h121zM979 991h98l-852 -1388h-96l242 395l-228 993h95l196 -893z" />
    <glyph glyph-name="thorn" unicode="&#xfe;" horiz-adv-x="1230" 
d="M698 1012q197 0 317 -124.5t120 -328.5q0 -120 -46 -227.5t-124 -184.5t-186.5 -122t-229.5 -45q-119 0 -222.5 55.5t-138.5 140.5l-110 -573h-90l356 1831h88l-117 -605q69 80 173.5 131.5t209.5 51.5zM541 63q212 0 357.5 142t145.5 346q0 172 -98.5 275.5
t-263.5 103.5q-107 0 -213.5 -57.5t-173.5 -147.5l-90 -463q34 -89 130.5 -144t205.5 -55z" />
    <glyph glyph-name="ydieresis" unicode="&#xff;" horiz-adv-x="1021" 
d="M555 1247q-34 0 -57 22t-23 56q0 31 23.5 53.5t56.5 22.5q30 0 54 -23t24 -53q0 -33 -24 -55.5t-54 -22.5zM823 1247q-33 0 -55.5 22.5t-22.5 55.5q0 31 23 53.5t55 22.5q31 0 55.5 -23t24.5 -53q0 -33 -24 -55.5t-56 -22.5zM979 991h98l-852 -1388h-96l242 395l-228 993
h95l196 -893z" />
    <glyph glyph-name="Amacron" unicode="&#x100;" horiz-adv-x="1312" 
d="M557 1669h655l-14 -76h-655zM791 1434h94l299 -1434h-99l-81 397h-732l-237 -397h-98zM324 483h663l-170 830z" />
    <glyph glyph-name="amacron" unicode="&#x101;" horiz-adv-x="1208" 
d="M1075 1227l-14 -76h-655l14 76h655zM1128 991h89l-193 -991h-90l49 250q-73 -125 -190 -197.5t-256 -72.5q-112 0 -203.5 41t-149.5 115.5t-81.5 177.5t1.5 227q40 205 194.5 338t354.5 133q173 0 282 -83.5t134 -234.5zM555 61q161 0 291 105.5t172 259.5l14 72
q26 197 -78 314.5t-297 117.5q-170 0 -301 -111.5t-163 -283.5q-39 -209 65 -341.5t297 -132.5z" />
    <glyph glyph-name="Abreve" unicode="&#x102;" horiz-adv-x="1312" 
d="M868 1554q-120 0 -186 86.5t-43 212.5h72q-20 -99 29.5 -165t140.5 -66q92 0 162 64t90 167h73q-28 -138 -118.5 -218.5t-219.5 -80.5zM791 1434h94l299 -1434h-99l-81 397h-732l-237 -397h-98zM324 483h663l-170 830z" />
    <glyph glyph-name="abreve" unicode="&#x103;" horiz-adv-x="1208" 
d="M715 1112q-120 0 -186.5 86.5t-43.5 212.5h72q-20 -99 29.5 -165t140.5 -66q92 0 162 64t90 167h74q-28 -138 -118.5 -218.5t-219.5 -80.5zM1128 991h89l-193 -991h-90l49 250q-73 -125 -190 -197.5t-256 -72.5q-112 0 -203.5 41t-149.5 115.5t-81.5 177.5t1.5 227
q40 205 194.5 338t354.5 133q173 0 282 -83.5t134 -234.5zM555 61q161 0 291 105.5t172 259.5l14 72q26 197 -78 314.5t-297 117.5q-170 0 -301 -111.5t-163 -283.5q-39 -209 65 -341.5t297 -132.5z" />
    <glyph glyph-name="Aogonek" unicode="&#x104;" horiz-adv-x="1312" 
d="M1147 0q-101 -33 -168 -94t-82 -137q-9 -46 14.5 -75.5t75.5 -29.5q72 0 129 31l23 -64q-76 -39 -164 -39q-86 0 -129 50.5t-29 128.5q17 82 84.5 150t175.5 116l-73 360h-732l-237 -397h-98l854 1434h94l299 -1434h-37zM324 483h663l-170 830z" />
    <glyph glyph-name="aogonek" unicode="&#x105;" horiz-adv-x="1226" 
d="M1128 991h89l-193 -991h-51q-102 -33 -169.5 -94t-82.5 -137q-8 -46 16 -75.5t76 -29.5q70 0 127 31l23 -64q-73 -39 -162 -39q-87 0 -130 50.5t-28 128.5q17 89 96.5 162t204.5 120l39 197q-73 -125 -190 -197.5t-256 -72.5q-112 0 -203.5 41t-149.5 115.5t-81.5 177.5
t1.5 227q40 205 194.5 338t354.5 133q173 0 282 -83.5t134 -234.5zM555 61q161 0 291 105.5t172 259.5l14 72q26 197 -78 314.5t-297 117.5q-170 0 -301 -111.5t-163 -283.5q-39 -209 65 -341.5t297 -132.5z" />
    <glyph glyph-name="Cacute" unicode="&#x106;" horiz-adv-x="1595" 
d="M1311 1833l-246 -274h-92l217 274h121zM1477 467q-74 -217 -270 -352t-441 -135q-177 0 -318 81t-219.5 222.5t-78.5 316.5q0 169 68.5 326.5t181.5 273t267 185t318 69.5q235 0 393.5 -130.5t173.5 -336.5h-96q-14 169 -146.5 275t-330.5 106q-146 0 -282 -62.5
t-235.5 -166t-159.5 -244.5t-60 -291q0 -234 147 -386t381 -152q207 0 374 111t232 290h101z" />
    <glyph glyph-name="cacute" unicode="&#x107;" horiz-adv-x="1165" 
d="M973 1391l-246 -275h-92l217 275h121zM551 -20q-130 0 -234 62.5t-161.5 171t-57.5 241.5q0 159 76.5 287t210.5 199t299 71t278 -92.5t109 -229.5h-88q3 101 -89 170.5t-220 69.5q-206 0 -346 -134.5t-140 -336.5q0 -169 105 -282.5t268 -113.5q83 0 160.5 28t138 85.5
t86.5 134.5h88q-43 -153 -180 -242t-303 -89z" />
    <glyph glyph-name="Ccircumflex" unicode="&#x108;" horiz-adv-x="1595" 
d="M1071 1788l-188 -211h-86l231 274h102l127 -274h-77zM770 66q207 0 374 111t232 290h101q-74 -217 -270 -352t-441 -135q-177 0 -318 81t-219.5 222.5t-78.5 316.5q0 169 68.5 326.5t181.5 273t267 185t318 69.5q235 0 393.5 -130.5t173.5 -336.5h-96q-14 169 -146.5 275
t-330.5 106q-146 0 -282 -62.5t-235.5 -166t-159.5 -244.5t-60 -291q0 -234 147 -386t381 -152z" />
    <glyph glyph-name="ccircumflex" unicode="&#x109;" horiz-adv-x="1165" 
d="M733 1346l-188 -211h-86l231 274h103l127 -274h-78zM1071 690h-88q3 101 -89 170.5t-220 69.5q-206 0 -346 -134.5t-140 -336.5q0 -169 105 -282.5t268 -113.5q83 0 160.5 28t138 85.5t86.5 134.5h88q-43 -153 -180 -242t-303 -89q-130 0 -234 62.5t-161.5 171
t-57.5 241.5q0 159 76.5 287t210.5 199t299 71t278 -92.5t109 -229.5z" />
    <glyph glyph-name="Cdotaccent" unicode="&#x10a;" horiz-adv-x="1595" 
d="M1057 1749q31 0 55.5 -23.5t24.5 -52.5q0 -33 -24.5 -56.5t-55.5 -23.5q-32 0 -55 23t-23 57q0 30 23 53t55 23zM1477 467q-74 -217 -270 -352t-441 -135q-177 0 -318 81t-219.5 222.5t-78.5 316.5q0 169 68.5 326.5t181.5 273t267 185t318 69.5q235 0 393.5 -130.5
t173.5 -336.5h-96q-14 169 -146.5 275t-330.5 106q-146 0 -282 -62.5t-235.5 -166t-159.5 -244.5t-60 -291q0 -234 147 -386t381 -152q207 0 374 111t232 290h101z" />
    <glyph glyph-name="cdotaccent" unicode="&#x10b;" horiz-adv-x="1165" 
d="M739 1401q30 0 54 -23t24 -53q0 -33 -24 -55.5t-54 -22.5q-34 0 -57 22t-23 56q0 31 23.5 53.5t56.5 22.5zM551 -20q-130 0 -234 62.5t-161.5 171t-57.5 241.5q0 159 76.5 287t210.5 199t299 71t278 -92.5t109 -229.5h-88q3 101 -89 170.5t-220 69.5q-206 0 -346 -134.5
t-140 -336.5q0 -169 105 -282.5t268 -113.5q83 0 160.5 28t138 85.5t86.5 134.5h88q-43 -153 -180 -242t-303 -89z" />
    <glyph glyph-name="Ccaron" unicode="&#x10c;" horiz-adv-x="1595" 
d="M987 1559l-127 274h80l107 -211l188 211h88l-231 -274h-105zM770 66q207 0 374 111t232 290h101q-74 -217 -270 -352t-441 -135q-177 0 -318 81t-219.5 222.5t-78.5 316.5q0 169 68.5 326.5t181.5 273t267 185t318 69.5q235 0 393.5 -130.5t173.5 -336.5h-96
q-14 169 -146.5 275t-330.5 106q-146 0 -282 -62.5t-235.5 -166t-159.5 -244.5t-60 -291q0 -234 147 -386t381 -152z" />
    <glyph glyph-name="ccaron" unicode="&#x10d;" horiz-adv-x="1165" 
d="M649 1116l-127 275h80l107 -211l188 211h88l-231 -275h-105zM1071 690h-88q3 101 -89 170.5t-220 69.5q-206 0 -346 -134.5t-140 -336.5q0 -169 105 -282.5t268 -113.5q83 0 160.5 28t138 85.5t86.5 134.5h88q-43 -153 -180 -242t-303 -89q-130 0 -234 62.5t-161.5 171
t-57.5 241.5q0 159 76.5 287t210.5 199t299 71t278 -92.5t109 -229.5z" />
    <glyph glyph-name="Dcaron" unicode="&#x10e;" horiz-adv-x="1423" 
d="M799 1559l-127 274h80l106 -211l189 211h88l-232 -274h-104zM766 1434q100 0 191.5 -30t164 -85.5t126.5 -128.5t83 -163.5t29 -186.5q0 -176 -63 -332t-172 -267.5t-261.5 -176t-324.5 -64.5h-451l279 1434h399zM549 86q200 0 364.5 99.5t258.5 272.5t94 382
q0 211 -145.5 359.5t-358.5 148.5h-322l-245 -1262h354z" />
    <glyph glyph-name="dcaron" unicode="&#x10f;" horiz-adv-x="1273" 
d="M1419 1528h97l-148 -412h-74zM1212 1434h91l-279 -1434h-90l49 248q-73 -125 -190 -196.5t-256 -71.5q-112 0 -203.5 41t-149.5 115.5t-81.5 177.5t1.5 227q40 205 194.5 338t354.5 133q172 0 281 -82.5t135 -231.5zM555 61q158 0 287 102.5t174 252.5l16 94
q22 193 -81.5 306.5t-293.5 113.5q-170 0 -301 -111.5t-163 -283.5q-39 -209 65 -341.5t297 -132.5z" />
    <glyph glyph-name="Dcroat" unicode="&#x110;" horiz-adv-x="1423" 
d="M766 1434q100 0 191.5 -30t164 -85.5t126.5 -128.5t83 -163.5t29 -186.5q0 -176 -63 -332t-172 -267.5t-261.5 -176t-324.5 -64.5h-451l133 688h-241l12 70h244l131 676h399zM549 86q200 0 364.5 99.5t258.5 272.5t94 382q0 211 -145.5 359.5t-358.5 148.5h-322
l-114 -590h252l-13 -70h-254l-116 -602h354z" />
    <glyph glyph-name="dcroat" unicode="&#x111;" horiz-adv-x="1226" 
d="M1489 1288l-12 -67h-215l-238 -1221h-90l49 248q-73 -125 -190 -196.5t-256 -71.5q-112 0 -203.5 41t-149.5 115.5t-81.5 177.5t1.5 227q40 205 194.5 338t354.5 133q172 0 281 -82.5t135 -231.5l102 523h-280l12 67h281l28 146h91l-29 -146h215zM555 61q158 0 287 102.5
t174 252.5l16 94q22 193 -81.5 306.5t-293.5 113.5q-170 0 -301 -111.5t-163 -283.5q-39 -209 65 -341.5t297 -132.5z" />
    <glyph glyph-name="Emacron" unicode="&#x112;" horiz-adv-x="1081" 
d="M453 1593l14 76h655l-14 -76h-655zM367 1434h768l-17 -86h-678l-102 -527h604l-14 -86h-604l-129 -649h677l-16 -86h-768z" />
    <glyph glyph-name="emacron" unicode="&#x113;" horiz-adv-x="1169" 
d="M1059 1227l-15 -76h-655l14 76h656zM1071 504h-887q-4 -40 -4 -60q0 -164 109 -273.5t272 -109.5q130 0 237 63.5t144 178.5h94q-44 -149 -181 -236t-304 -87q-194 0 -324.5 132t-130.5 328q0 119 45 225.5t121 182.5t179 120t216 44q187 0 305.5 -117.5t118.5 -304.5
q0 -14 -10 -86zM655 932q-162 0 -287.5 -98.5t-168.5 -253.5h792q-1 165 -91.5 258.5t-244.5 93.5z" />
    <glyph glyph-name="Ebreve" unicode="&#x114;" horiz-adv-x="1081" 
d="M1116 1853q-28 -138 -118.5 -218.5t-219.5 -80.5q-120 0 -186 86.5t-43 212.5h72q-20 -99 29.5 -165t140.5 -66q92 0 161.5 64t89.5 167h74zM367 1434h768l-17 -86h-678l-102 -527h604l-14 -86h-604l-129 -649h677l-16 -86h-768z" />
    <glyph glyph-name="ebreve" unicode="&#x115;" horiz-adv-x="1169" 
d="M715 1112q-120 0 -186.5 86.5t-43.5 212.5h72q-20 -99 29.5 -165t140.5 -66q92 0 162 64t90 167h74q-28 -138 -118.5 -218.5t-219.5 -80.5zM1071 504h-887q-4 -40 -4 -60q0 -164 109 -273.5t272 -109.5q130 0 237 63.5t144 178.5h94q-44 -149 -181 -236t-304 -87
q-194 0 -324.5 132t-130.5 328q0 119 45 225.5t121 182.5t179 120t216 44q187 0 305.5 -117.5t118.5 -304.5q0 -14 -10 -86zM655 932q-162 0 -287.5 -98.5t-168.5 -253.5h792q-1 165 -91.5 258.5t-244.5 93.5z" />
    <glyph glyph-name="Edotaccent" unicode="&#x116;" horiz-adv-x="1081" 
d="M793 1749q31 0 55 -23.5t24 -52.5q0 -33 -24 -56.5t-55 -23.5q-32 0 -55 23t-23 57q0 30 23 53t55 23zM367 1434h768l-17 -86h-678l-102 -527h604l-14 -86h-604l-129 -649h677l-16 -86h-768z" />
    <glyph glyph-name="edotaccent" unicode="&#x117;" horiz-adv-x="1169" 
d="M750 1247q-34 0 -57 22t-23 56q0 31 23.5 53.5t56.5 22.5q30 0 53.5 -23t23.5 -53q0 -33 -23.5 -55.5t-53.5 -22.5zM1071 504h-887q-4 -40 -4 -60q0 -164 109 -273.5t272 -109.5q130 0 237 63.5t144 178.5h94q-44 -149 -181 -236t-304 -87q-194 0 -324.5 132t-130.5 328
q0 119 45 225.5t121 182.5t179 120t216 44q187 0 305.5 -117.5t118.5 -304.5q0 -14 -10 -86zM655 932q-162 0 -287.5 -98.5t-168.5 -253.5h792q-1 165 -91.5 258.5t-244.5 93.5z" />
    <glyph glyph-name="Eogonek" unicode="&#x118;" horiz-adv-x="1081" 
d="M1118 1348h-678l-102 -527h604l-14 -86h-604l-129 -649h677l-16 -86h-168q-101 -33 -168 -94t-82 -137q-9 -46 14.5 -75.5t75.5 -29.5q72 0 129 31l23 -64q-76 -39 -164 -39q-86 0 -129 50.5t-29 128.5q27 133 189 229h-459l279 1434h768z" />
    <glyph glyph-name="eogonek" unicode="&#x119;" horiz-adv-x="1169" 
d="M1071 504h-887q-4 -40 -4 -60q0 -164 109 -273.5t272 -109.5q130 0 237 63.5t144 178.5h94q-39 -130 -153 -217v-2q-140 -100 -208.5 -170t-82.5 -143q-9 -46 14.5 -76.5t75.5 -30.5q72 0 129 31l23 -64q-76 -39 -164 -39q-86 0 -129 50.5t-29 128.5q19 103 156 221
q-56 -12 -117 -12q-194 0 -324.5 132t-130.5 328q0 119 45 225.5t121 182.5t179 120t216 44q187 0 305.5 -117.5t118.5 -304.5q0 -14 -10 -86zM655 932q-162 0 -287.5 -98.5t-168.5 -253.5h792q-1 165 -91.5 258.5t-244.5 93.5z" />
    <glyph glyph-name="Ecaron" unicode="&#x11a;" horiz-adv-x="1081" 
d="M725 1559l-127 274h80l106 -211l189 211h88l-232 -274h-104zM1118 1348h-678l-102 -527h604l-14 -86h-604l-129 -649h677l-16 -86h-768l279 1434h768z" />
    <glyph glyph-name="ecaron" unicode="&#x11b;" horiz-adv-x="1169" 
d="M662 1116l-127 275h79l107 -211l188 211h88l-231 -275h-104zM1071 504h-887q-4 -40 -4 -60q0 -164 109 -273.5t272 -109.5q130 0 237 63.5t144 178.5h94q-44 -149 -181 -236t-304 -87q-194 0 -324.5 132t-130.5 328q0 119 45 225.5t121 182.5t179 120t216 44
q187 0 305.5 -117.5t118.5 -304.5q0 -14 -10 -86zM655 932q-162 0 -287.5 -98.5t-168.5 -253.5h792q-1 165 -91.5 258.5t-244.5 93.5z" />
    <glyph glyph-name="Gcircumflex" unicode="&#x11c;" horiz-adv-x="1611" 
d="M1085 1788l-188 -211h-86l231 274h103l127 -274h-78zM1536 725q-5 -57 -8 -70q-52 -306 -250.5 -490.5t-491.5 -184.5q-132 0 -247.5 46.5t-200 129.5t-133.5 206t-49 269q0 170 64 322.5t174 262.5t264 174t327 64q234 0 393 -130.5t176 -336.5h-98q-14 169 -146 275
t-331 106q-153 0 -289 -57t-232 -155t-152 -233t-56 -286q0 -131 41.5 -239t114 -180.5t171 -112t211.5 -39.5q255 0 426 156.5t216 416.5h-523l17 86h612z" />
    <glyph glyph-name="gcircumflex" unicode="&#x11d;" horiz-adv-x="1284" 
d="M872 1346l-188 -211h-86l231 274h103l127 -274h-78zM1130 993h89l-189 -968q-40 -214 -186.5 -336.5t-368.5 -122.5q-120 0 -218.5 41t-153 122.5t-35.5 184.5h86q-14 -84 29 -145t123.5 -90t185.5 -29q178 0 296 100t152 273l45 233q-73 -125 -191 -197.5t-257 -72.5
q-112 0 -203.5 41t-149.5 114.5t-81.5 176t1.5 225.5q40 205 194.5 337t354.5 132q173 0 283 -84t135 -236zM557 68q169 0 303.5 116.5t165.5 280.5q39 212 -64.5 338.5t-304.5 126.5q-170 0 -301 -110.5t-163 -282.5q-39 -208 65 -338.5t299 -130.5z" />
    <glyph glyph-name="Gbreve" unicode="&#x11e;" horiz-adv-x="1611" 
d="M1057 1554q-120 0 -186.5 86.5t-43.5 212.5h72q-20 -99 29.5 -165t140.5 -66q92 0 162 64t90 167h74q-28 -138 -118.5 -218.5t-219.5 -80.5zM1536 725q-5 -57 -8 -70q-52 -306 -250.5 -490.5t-491.5 -184.5q-132 0 -247.5 46.5t-200 129.5t-133.5 206t-49 269
q0 170 64 322.5t174 262.5t264 174t327 64q234 0 393 -130.5t176 -336.5h-98q-14 169 -146 275t-331 106q-153 0 -289 -57t-232 -155t-152 -233t-56 -286q0 -131 41.5 -239t114 -180.5t171 -112t211.5 -39.5q255 0 426 156.5t216 416.5h-523l17 86h612z" />
    <glyph glyph-name="gbreve" unicode="&#x11f;" horiz-adv-x="1284" 
d="M844 1112q-120 0 -186.5 86.5t-43.5 212.5h72q-20 -99 29.5 -165t140.5 -66q92 0 162 64t90 167h74q-28 -138 -118.5 -218.5t-219.5 -80.5zM1130 993h89l-189 -968q-40 -214 -186.5 -336.5t-368.5 -122.5q-120 0 -218.5 41t-153 122.5t-35.5 184.5h86q-14 -84 29 -145
t123.5 -90t185.5 -29q178 0 296 100t152 273l45 233q-73 -125 -191 -197.5t-257 -72.5q-112 0 -203.5 41t-149.5 114.5t-81.5 176t1.5 225.5q40 205 194.5 337t354.5 132q173 0 283 -84t135 -236zM557 68q169 0 303.5 116.5t165.5 280.5q39 212 -64.5 338.5t-304.5 126.5
q-170 0 -301 -110.5t-163 -282.5q-39 -208 65 -338.5t299 -130.5z" />
    <glyph glyph-name="Gdotaccent" unicode="&#x120;" horiz-adv-x="1611" 
d="M1071 1593q-32 0 -55 23t-23 57q0 30 23 53t55 23q31 0 55.5 -23.5t24.5 -52.5q0 -33 -24.5 -56.5t-55.5 -23.5zM1536 725q-5 -57 -8 -70q-52 -306 -250.5 -490.5t-491.5 -184.5q-132 0 -247.5 46.5t-200 129.5t-133.5 206t-49 269q0 170 64 322.5t174 262.5t264 174
t327 64q234 0 393 -130.5t176 -336.5h-98q-14 169 -146 275t-331 106q-153 0 -289 -57t-232 -155t-152 -233t-56 -286q0 -131 41.5 -239t114 -180.5t171 -112t211.5 -39.5q255 0 426 156.5t216 416.5h-523l17 86h612z" />
    <glyph glyph-name="gdotaccent" unicode="&#x121;" horiz-adv-x="1284" 
d="M879 1247q-34 0 -57 22t-23 56q0 31 23.5 53.5t56.5 22.5q30 0 53.5 -23t23.5 -53q0 -33 -23.5 -55.5t-53.5 -22.5zM1130 993h89l-189 -968q-40 -214 -186.5 -336.5t-368.5 -122.5q-120 0 -218.5 41t-153 122.5t-35.5 184.5h86q-14 -84 29 -145t123.5 -90t185.5 -29
q178 0 296 100t152 273l45 233q-73 -125 -191 -197.5t-257 -72.5q-112 0 -203.5 41t-149.5 114.5t-81.5 176t1.5 225.5q40 205 194.5 337t354.5 132q173 0 283 -84t135 -236zM557 68q169 0 303.5 116.5t165.5 280.5q39 212 -64.5 338.5t-304.5 126.5q-170 0 -301 -110.5
t-163 -282.5q-39 -208 65 -338.5t299 -130.5z" />
    <glyph glyph-name="uni0122" unicode="&#x122;" horiz-adv-x="1611" 
d="M1536 725q-5 -57 -8 -70q-52 -306 -250.5 -490.5t-491.5 -184.5q-132 0 -247.5 46.5t-200 129.5t-133.5 206t-49 269q0 170 64 322.5t174 262.5t264 174t327 64q234 0 393 -130.5t176 -336.5h-98q-14 169 -146 275t-331 106q-153 0 -289 -57t-232 -155t-152 -233
t-56 -286q0 -131 41.5 -239t114 -180.5t171 -112t211.5 -39.5q255 0 426 156.5t216 416.5h-523l17 86h612zM436 -434l217 276h121l-246 -276h-92z" />
    <glyph glyph-name="uni0123" unicode="&#x123;" horiz-adv-x="1284" 
d="M1034 1395l-217 -277h-121l248 277h90zM1130 993h89l-189 -968q-40 -214 -186.5 -336.5t-368.5 -122.5q-120 0 -218.5 41t-153 122.5t-35.5 184.5h86q-14 -84 29 -145t123.5 -90t185.5 -29q178 0 296 100t152 273l45 233q-73 -125 -191 -197.5t-257 -72.5
q-112 0 -203.5 41t-149.5 114.5t-81.5 176t1.5 225.5q40 205 194.5 337t354.5 132q173 0 283 -84t135 -236zM557 68q169 0 303.5 116.5t165.5 280.5q39 212 -64.5 338.5t-304.5 126.5q-170 0 -301 -110.5t-163 -282.5q-39 -208 65 -338.5t299 -130.5z" />
    <glyph glyph-name="Hcircumflex" unicode="&#x124;" horiz-adv-x="1439" 
d="M961 1788l-189 -211h-86l232 274h102l127 -274h-78zM1348 1434h92l-279 -1434h-92l137 705h-891l-137 -705h-90l279 1434h90l-125 -643h891z" />
    <glyph glyph-name="hcircumflex" unicode="&#x125;" horiz-adv-x="1202" 
d="M446 1788l-188 -211h-86l231 274h103l127 -274h-78zM711 1012q196 0 290 -119.5t56 -319.5l-113 -573h-88l111 573q31 163 -43 260t-228 97q-155 0 -268.5 -89.5t-155.5 -238.5l-116 -602h-90l278 1434h90l-125 -648q68 107 173 166.5t229 59.5z" />
    <glyph glyph-name="Hbar" unicode="&#x126;" horiz-adv-x="1439" 
d="M1530 1167l-17 -77h-141l-211 -1090h-92l137 705h-891l-137 -705h-90l211 1090h-145l16 77h145l52 267h90l-51 -267h890l52 267h92l-51 -267h141zM1223 791l57 299h-891l-57 -299h891z" />
    <glyph glyph-name="hbar" unicode="&#x127;" horiz-adv-x="1202" 
d="M711 1012q196 0 290 -119.5t56 -319.5l-113 -573h-88l111 573q31 163 -43 260t-228 97q-155 0 -268.5 -89.5t-155.5 -238.5l-116 -602h-90l237 1221h-244l13 67h243l29 146h90l-28 -146h251l-12 -67h-252l-84 -435q68 107 173 166.5t229 59.5z" />
    <glyph glyph-name="Itilde" unicode="&#x128;" horiz-adv-x="458" 
d="M125 1595q21 86 77 137.5t122 51.5q39 0 79 -19t67 -42.5t58.5 -42.5t57.5 -19q48 0 85 35t46 90l76 -17q-23 -86 -79.5 -137t-123.5 -51q-39 0 -78 19.5t-65 43t-58.5 43t-60.5 19.5q-46 0 -83 -36t-46 -91zM367 1434h90l-279 -1434h-90z" />
    <glyph glyph-name="itilde" unicode="&#x129;" horiz-adv-x="413" 
d="M18 1153q21 86 77 137t122 51q39 0 79 -19t67 -42t58.5 -42t57.5 -19q48 0 85 34.5t46 89.5l76 -16q-23 -86 -79.5 -137t-123.5 -51q-39 0 -78 19.5t-65 43t-58.5 43t-60.5 19.5q-46 0 -83 -36t-46 -91zM258 991h90l-192 -991h-90z" />
    <glyph glyph-name="Imacron" unicode="&#x12a;" horiz-adv-x="458" 
d="M115 1593l14 76h655l-14 -76h-655zM367 1434h90l-279 -1434h-90z" />
    <glyph glyph-name="imacron" unicode="&#x12b;" horiz-adv-x="413" 
d="M8 1151l15 76h655l-14 -76h-656zM258 991h90l-192 -991h-90z" />
    <glyph glyph-name="Ibreve" unicode="&#x12c;" horiz-adv-x="458" 
d="M778 1853q-28 -138 -118.5 -218.5t-219.5 -80.5q-120 0 -186 86.5t-43 212.5h72q-20 -99 29.5 -165t140.5 -66q92 0 162 64t90 167h73zM367 1434h90l-279 -1434h-90z" />
    <glyph glyph-name="ibreve" unicode="&#x12d;" horiz-adv-x="413" 
d="M672 1411q-28 -138 -118.5 -218.5t-219.5 -80.5q-120 0 -186.5 86.5t-43.5 212.5h72q-20 -99 29.5 -165t140.5 -66q92 0 162 64t90 167h74zM258 991h90l-192 -991h-90z" />
    <glyph glyph-name="Iogonek" unicode="&#x12e;" horiz-adv-x="458" 
d="M180 0q-101 -33 -168 -94t-82 -137q-9 -46 14.5 -75.5t75.5 -29.5q73 0 130 31l22 -64q-76 -39 -164 -39q-86 0 -129 50.5t-29 128.5q17 79 80.5 145.5t163.5 112.5l273 1405h90l-277 -1418v-16z" />
    <glyph glyph-name="iogonek" unicode="&#x12f;" horiz-adv-x="413" 
d="M369 1401q30 0 53.5 -23t23.5 -53q0 -33 -23.5 -55.5t-53.5 -22.5q-34 0 -57 22t-23 56q0 31 23.5 53.5t56.5 22.5zM258 991h90l-190 -975v-16q-101 -33 -168 -94t-82 -137q-9 -46 14.5 -75.5t75.5 -29.5q72 0 129 31l23 -64q-76 -39 -164 -39q-86 0 -129 50.5t-29 128.5
q17 79 80.5 145.5t163.5 112.5z" />
    <glyph glyph-name="Idotaccent" unicode="&#x130;" horiz-adv-x="458" 
d="M455 1749q31 0 55.5 -23.5t24.5 -52.5q0 -33 -24.5 -56.5t-55.5 -23.5q-32 0 -55 23t-23 57q0 30 23 53t55 23zM367 1434h90l-279 -1434h-90z" />
    <glyph glyph-name="dotlessi" unicode="&#x131;" horiz-adv-x="413" 
d="M258 991h90l-192 -991h-90z" />
    <glyph glyph-name="IJ" unicode="&#x132;" horiz-adv-x="1048" 
d="M367 1434h90l-279 -1434h-90zM418 66h31q126 0 204.5 83t112.5 254l199 1031h92l-203 -1045q-40 -203 -142.5 -306t-262.5 -103q-34 0 -48 2z" />
    <glyph glyph-name="ij" unicode="&#x133;" horiz-adv-x="827" 
d="M369 1401q30 0 53.5 -23t23.5 -53q0 -33 -23.5 -55.5t-53.5 -22.5q-34 0 -57 22t-23 56q0 31 23.5 53.5t56.5 22.5zM778 1401q31 0 55.5 -23t24.5 -53q0 -33 -24 -55.5t-56 -22.5q-33 0 -55.5 22.5t-22.5 55.5q0 31 23 53.5t55 22.5zM258 991h90l-192 -991h-90zM246 -338
l20 -2q75 0 122 57.5t73 182.5l211 1091h90l-213 -1097q-32 -161 -103.5 -239.5t-185.5 -78.5h-31z" />
    <glyph glyph-name="Jcircumflex" unicode="&#x134;" horiz-adv-x="589" 
d="M803 1577h-78l-109 211l-188 -211h-86l231 274h103zM307 403l199 1031h92l-203 -1045q-40 -203 -142.5 -306t-262.5 -103q-33 0 -47 2l16 84h31q126 0 204.5 83t112.5 254z" />
    <glyph glyph-name="jcircumflex" unicode="&#x135;" horiz-adv-x="413" 
d="M547 1135h-78l-109 211l-188 -211h-86l231 274h103zM47 -100l211 1091h90l-213 -1097q-32 -161 -103.5 -239.5t-185.5 -78.5h-30l16 86l21 -2q75 0 121.5 57.5t72.5 182.5z" />
    <glyph glyph-name="uni0136" unicode="&#x136;" horiz-adv-x="1187" 
d="M1270 1434l-846 -686l631 -748h-123l-613 733l-143 -733h-88l279 1434h88l-129 -664l815 664h129zM246 -434l217 276h121l-246 -276h-92z" />
    <glyph glyph-name="uni0137" unicode="&#x137;" horiz-adv-x="983" 
d="M1006 991l-656 -471l492 -520h-123l-467 500l-96 -500h-90l278 1434h90l-174 -893l625 450h121zM141 -434l217 276h121l-246 -276h-92z" />
    <glyph glyph-name="kgreenlandic" unicode="&#x138;" horiz-adv-x="987" 
d="M1008 991l-652 -471l490 -520h-123l-471 506l-98 -506h-88l192 991h90l-90 -456l631 456h119z" />
    <glyph glyph-name="Lacute" unicode="&#x139;" horiz-adv-x="1116" 
d="M709 1833l-246 -274h-92l217 274h121zM367 1434h90l-262 -1348h755l-16 -86h-846z" />
    <glyph glyph-name="lacute" unicode="&#x13a;" horiz-adv-x="413" 
d="M682 1833l-246 -274h-92l217 274h121zM434 1434l-278 -1434h-90l278 1434h90z" />
    <glyph glyph-name="uni013B" unicode="&#x13b;" horiz-adv-x="1116" 
d="M367 1434h90l-262 -1348h755l-16 -86h-846zM571 -158l-245 -276h-93l218 276h120z" />
    <glyph glyph-name="uni013C" unicode="&#x13c;" horiz-adv-x="413" 
d="M434 1434l-278 -1434h-90l278 1434h90zM184 -158l-245 -276h-93l217 276h121z" />
    <glyph glyph-name="Lcaron" unicode="&#x13d;" horiz-adv-x="1116" 
d="M860 1528l-147 -412h-74l125 412h96zM367 1434h90l-262 -1348h755l-16 -86h-846z" />
    <glyph glyph-name="lcaron" unicode="&#x13e;" horiz-adv-x="460" 
d="M702 1528l-147 -412h-74l125 412h96zM434 1434l-278 -1434h-90l278 1434h90z" />
    <glyph glyph-name="Ldot" unicode="&#x13f;" horiz-adv-x="1110" 
d="M367 1434h90l-262 -1348h755l-16 -86h-846zM774 655q-38 0 -65 26t-27 64t27 65.5t65 27.5t64 -27t26 -66q0 -38 -26 -64t-64 -26z" />
    <glyph glyph-name="ldot" unicode="&#x140;" horiz-adv-x="538" 
d="M438 1434l-278 -1434h-90l278 1434h90zM518 614q-40 0 -66 26t-26 65t26.5 65.5t65.5 26.5q38 0 64 -27t26 -65t-26 -64.5t-64 -26.5z" />
    <glyph glyph-name="Lslash" unicode="&#x141;" horiz-adv-x="1116" 
d="M195 86h755l-16 -86h-846l115 592l-148 -64l15 84l149 64l148 758h90l-140 -717l508 217l-14 -80l-510 -219z" />
    <glyph glyph-name="lslash" unicode="&#x142;" horiz-adv-x="413" 
d="M506 989l-14 -84l-175 -71l-161 -834h-90l153 793l-174 -74l14 82l177 73l108 560h90l-100 -516z" />
    <glyph glyph-name="Nacute" unicode="&#x143;" horiz-adv-x="1454" 
d="M1210 1833l-245 -274h-93l218 274h120zM367 1434h96l647 -1284l252 1284h90l-278 -1434h-95l-649 1284l-252 -1284h-90z" />
    <glyph glyph-name="nacute" unicode="&#x144;" horiz-adv-x="1202" 
d="M983 1391l-246 -275h-92l217 275h121zM713 1012q196 0 290 -119.5t56 -319.5l-113 -573h-88l111 573q31 163 -43 260t-228 97q-164 0 -281 -100t-151 -263l-110 -567h-90l192 991h90l-41 -211q68 109 174.5 170.5t231.5 61.5z" />
    <glyph glyph-name="uni0145" unicode="&#x145;" horiz-adv-x="1454" 
d="M367 1434h96l647 -1284l252 1284h90l-278 -1434h-95l-649 1284l-252 -1284h-90zM707 -158l-246 -276h-92l217 276h121z" />
    <glyph glyph-name="uni0146" unicode="&#x146;" horiz-adv-x="1202" 
d="M713 1012q196 0 290 -119.5t56 -319.5l-113 -573h-88l111 573q31 163 -43 260t-228 97q-164 0 -281 -100t-151 -263l-110 -567h-90l192 991h90l-41 -211q68 109 174.5 170.5t231.5 61.5zM231 -434l218 276h120l-247 -276h-91z" />
    <glyph glyph-name="Ncaron" unicode="&#x147;" horiz-adv-x="1454" 
d="M889 1559l-127 274h80l106 -211l189 211h88l-232 -274h-104zM1362 1434h90l-278 -1434h-95l-649 1284l-252 -1284h-90l279 1434h96l647 -1284z" />
    <glyph glyph-name="ncaron" unicode="&#x148;" horiz-adv-x="1202" 
d="M662 1116l-127 275h79l107 -211l188 211h88l-231 -275h-104zM713 1012q196 0 290 -119.5t56 -319.5l-113 -573h-88l111 573q31 163 -43 260t-228 97q-164 0 -281 -100t-151 -263l-110 -567h-90l192 991h90l-41 -211q68 109 174.5 170.5t231.5 61.5z" />
    <glyph glyph-name="napostrophe" unicode="&#x149;" horiz-adv-x="1181" 
d="M297 1116h-61l86 144q-30 8 -44.5 33.5t-7.5 60.5q6 37 34 60.5t65 23.5q41 0 63.5 -28t13.5 -69q-3 -28 -28 -63zM713 1012q196 0 290 -119.5t56 -319.5l-113 -573h-88l111 573q31 163 -43 260t-228 97q-164 0 -281 -100t-151 -263l-110 -567h-90l192 991h90l-41 -211
q68 109 174.5 170.5t231.5 61.5z" />
    <glyph glyph-name="Eng" unicode="&#x14a;" horiz-adv-x="1456" 
d="M737 -334h29q248 0 315 330l-651 1288l-252 -1284h-90l279 1434h96l647 -1284l252 1284h90l-278 -1448q-38 -201 -139 -303.5t-259 -102.5q-9 0 -27 1t-26 1z" />
    <glyph glyph-name="eng" unicode="&#x14b;" horiz-adv-x="1202" 
d="M713 1012q196 0 290 -119.5t56 -319.5l-113 -573h-2l-20 -109q-32 -162 -100 -238.5t-179 -76.5q-15 0 -51 4l18 82q10 -2 23 -2q78 0 128 59t75 183l67 356h2l62 315q31 163 -43 260t-228 97q-164 0 -281 -100t-151 -263l-110 -567h-90l192 991h90l-41 -211
q68 109 174.5 170.5t231.5 61.5z" />
    <glyph glyph-name="Omacron" unicode="&#x14c;" horiz-adv-x="1667" 
d="M721 1593l14 76h656l-15 -76h-655zM983 1454q181 0 323.5 -80t221 -220.5t78.5 -315.5q0 -164 -68.5 -321.5t-181.5 -275t-269 -189.5t-321 -72q-179 0 -320.5 80.5t-218.5 221.5t-77 318q0 225 115 422.5t307.5 314.5t410.5 117zM981 1368q-146 0 -282.5 -62.5
t-236.5 -166t-160 -244.5t-60 -291q0 -234 146.5 -386t379.5 -152q146 0 283 63.5t237.5 168.5t161.5 247t61 291q0 231 -148 381.5t-382 150.5z" />
    <glyph glyph-name="omacron" unicode="&#x14d;" horiz-adv-x="1216" 
d="M408 1151l14 76h655l-14 -76h-655zM670 1012q196 0 325 -129.5t129 -323.5q0 -114 -47 -221t-124.5 -185.5t-184.5 -125.5t-221 -47q-196 0 -325.5 128t-129.5 320q0 115 46.5 223t124.5 187t185 126.5t222 47.5zM666 930q-129 0 -241 -68.5t-177.5 -183t-65.5 -244.5
q0 -161 103 -266t266 -105q95 0 184.5 40.5t155 107t105.5 156.5t40 186q0 162 -104.5 269.5t-265.5 107.5z" />
    <glyph glyph-name="Obreve" unicode="&#x14e;" horiz-adv-x="1667" 
d="M1384 1853q-28 -138 -118 -218.5t-219 -80.5q-120 0 -186.5 86.5t-43.5 212.5h72q-20 -99 29.5 -165t140.5 -66q92 0 162 64t90 167h73zM983 1454q181 0 323.5 -80t221 -220.5t78.5 -315.5q0 -164 -68.5 -321.5t-181.5 -275t-269 -189.5t-321 -72q-179 0 -320.5 80.5
t-218.5 221.5t-77 318q0 225 115 422.5t307.5 314.5t410.5 117zM981 1368q-146 0 -282.5 -62.5t-236.5 -166t-160 -244.5t-60 -291q0 -234 146.5 -386t379.5 -152q146 0 283 63.5t237.5 168.5t161.5 247t61 291q0 231 -148 381.5t-382 150.5z" />
    <glyph glyph-name="obreve" unicode="&#x14f;" horiz-adv-x="1216" 
d="M1071 1411q-28 -138 -118.5 -218.5t-219.5 -80.5q-120 0 -186 86.5t-43 212.5h71q-20 -99 29.5 -165t140.5 -66q92 0 162 64t90 167h74zM670 1012q196 0 325 -129.5t129 -323.5q0 -114 -47 -221t-124.5 -185.5t-184.5 -125.5t-221 -47q-196 0 -325.5 128t-129.5 320
q0 115 46.5 223t124.5 187t185 126.5t222 47.5zM666 930q-129 0 -241 -68.5t-177.5 -183t-65.5 -244.5q0 -161 103 -266t266 -105q95 0 184.5 40.5t155 107t105.5 156.5t40 186q0 162 -104.5 269.5t-265.5 107.5z" />
    <glyph glyph-name="Ohungarumlaut" unicode="&#x150;" horiz-adv-x="1667" 
d="M938 1559l203 292h-90l-207 -292h94zM1204 1559l203 292h-92l-203 -292h92zM983 1454q181 0 323.5 -80t221 -220.5t78.5 -315.5q0 -164 -68.5 -321.5t-181.5 -275t-269 -189.5t-321 -72q-179 0 -320.5 80.5t-218.5 221.5t-77 318q0 225 115 422.5t307.5 314.5t410.5 117z
M981 1368q-146 0 -282.5 -62.5t-236.5 -166t-160 -244.5t-60 -291q0 -234 146.5 -386t379.5 -152q146 0 283 63.5t237.5 168.5t161.5 247t61 291q0 231 -148 381.5t-382 150.5z" />
    <glyph glyph-name="ohungarumlaut" unicode="&#x151;" horiz-adv-x="1216" 
d="M627 1116l202 293h-90l-207 -293h95zM893 1116l203 293h-92l-203 -293h92zM670 1012q196 0 325 -129.5t129 -323.5q0 -114 -47 -221t-124.5 -185.5t-184.5 -125.5t-221 -47q-196 0 -325.5 128t-129.5 320q0 115 46.5 223t124.5 187t185 126.5t222 47.5zM666 930
q-129 0 -241 -68.5t-177.5 -183t-65.5 -244.5q0 -161 103 -266t266 -105q95 0 184.5 40.5t155 107t105.5 156.5t40 186q0 162 -104.5 269.5t-265.5 107.5z" />
    <glyph glyph-name="OE" unicode="&#x152;" horiz-adv-x="2039" 
d="M713 0q-193 0 -333.5 94.5t-199.5 260.5t-20 368q38 203 161.5 366.5t299.5 254t370 90.5h1102l-16 -86h-678l-103 -527h605l-17 -86h-604l-127 -649h678l-16 -86h-1102zM725 86h336l248 1262h-338q-169 0 -321 -79.5t-257.5 -222.5t-140.5 -323q-29 -137 -4.5 -253.5
t86.5 -202t163.5 -133.5t227.5 -48z" />
    <glyph glyph-name="oe" unicode="&#x153;" horiz-adv-x="2093" 
d="M1122 504q-4 -34 -8 -49v-11q0 -164 109 -273.5t272 -109.5q130 0 237.5 63.5t145.5 178.5h92q-43 -149 -180 -236t-303 -87q-154 0 -270.5 85t-161.5 224q-76 -139 -213 -224t-295 -85q-196 0 -325.5 128t-129.5 320q0 115 46.5 223t124.5 187t185 126.5t222 47.5
q152 0 267.5 -81t160.5 -214q73 135 205.5 215t287.5 80q187 0 305.5 -117.5t118.5 -304.5q0 -38 -10 -86h-883zM1589 932q-161 0 -287 -99t-169 -253h792q-1 165 -91.5 258.5t-244.5 93.5zM551 63q179 0 319 127.5t162 307.5q2 4 2 14q2 14 2 41q0 162 -104.5 269.5
t-265.5 107.5q-129 0 -241 -68.5t-177.5 -183t-65.5 -244.5q0 -161 103 -266t266 -105z" />
    <glyph glyph-name="Racute" unicode="&#x154;" horiz-adv-x="1230" 
d="M1055 1833l-246 -274h-92l217 274h121zM868 1434q177 0 273.5 -114t64.5 -284q-34 -168 -164 -276.5t-305 -114.5l322 -645h-105l-311 645h-340l-125 -645h-90l279 1434h501zM1116 1044q26 133 -48.5 218.5t-215.5 85.5h-414l-119 -623h406q142 0 253.5 90t137.5 229z
" />
    <glyph glyph-name="racute" unicode="&#x155;" horiz-adv-x="688" 
d="M786 1389l-245 -275h-92l217 275h120zM639 1012q36 0 90 -13l-16 -88q-43 19 -90 19q-116 0 -217 -86t-127 -215l-123 -629h-90l192 991h90l-37 -182q54 90 143.5 146.5t184.5 56.5z" />
    <glyph glyph-name="uni0156" unicode="&#x156;" horiz-adv-x="1230" 
d="M868 1434q177 0 273.5 -114t64.5 -284q-34 -168 -164 -276.5t-305 -114.5l322 -645h-105l-311 645h-340l-125 -645h-90l279 1434h501zM1116 1044q26 133 -48.5 218.5t-215.5 85.5h-414l-119 -623h406q142 0 253.5 90t137.5 229zM260 -434l217 276h121l-246 -276h-92z" />
    <glyph glyph-name="uni0157" unicode="&#x157;" horiz-adv-x="688" 
d="M639 1012q36 0 90 -13l-16 -88q-43 19 -90 19q-116 0 -217 -86t-127 -215l-123 -629h-90l192 991h90l-37 -182q54 90 143.5 146.5t184.5 56.5zM162 -158l-246 -276h-92l217 276h121z" />
    <glyph glyph-name="Rcaron" unicode="&#x158;" horiz-adv-x="1230" 
d="M733 1559l-127 274h80l107 -211l188 211h88l-231 -274h-105zM868 1434q177 0 273.5 -114t64.5 -284q-34 -168 -164 -276.5t-305 -114.5l322 -645h-105l-311 645h-340l-125 -645h-90l279 1434h501zM1116 1044q26 133 -48.5 218.5t-215.5 85.5h-414l-119 -623h406
q142 0 253.5 90t137.5 229z" />
    <glyph glyph-name="rcaron" unicode="&#x159;" horiz-adv-x="688" 
d="M463 1114l-127 275h80l106 -211l189 211h88l-232 -275h-104zM311 809q54 90 143.5 146.5t184.5 56.5q36 0 90 -13l-16 -88q-43 19 -90 19q-116 0 -217 -86t-127 -215l-123 -629h-90l192 991h90z" />
    <glyph glyph-name="Sacute" unicode="&#x15a;" horiz-adv-x="1218" 
d="M1077 1833l-246 -274h-92l217 274h121zM567 -20q-110 0 -202.5 34.5t-154 94t-89.5 143.5t-12 180h90q-27 -161 81 -263.5t291 -102.5q167 0 286 80.5t142 209.5q14 83 -5.5 144t-64 96.5t-105.5 60.5t-130 42.5t-138 36t-129.5 47.5t-104 70t-62 109.5t-2.5 161.5
q25 145 161 237.5t326 92.5q212 0 333 -112t93 -277h-90q17 133 -82 218t-260 85q-154 0 -264 -73.5t-129 -188.5q-13 -76 7.5 -131t66 -86.5t107 -54t130.5 -39t138 -35.5t129 -50t103 -75.5t60 -119.5t0 -175q-29 -157 -174.5 -258.5t-345.5 -101.5z" />
    <glyph glyph-name="sacute" unicode="&#x15b;" horiz-adv-x="903" 
d="M831 1391l-245 -275h-92l217 275h120zM385 -20q-160 0 -259.5 81.5t-92.5 212.5h88q-6 -98 69.5 -157.5t194.5 -59.5q116 0 195.5 57t97.5 142q11 55 -2.5 95.5t-44.5 62.5t-74.5 39.5t-92.5 27.5t-98 25t-91.5 32.5t-72.5 51t-41.5 79t1.5 117.5q19 98 112 162t232 64
q143 0 240.5 -73.5t91.5 -186.5h-88q0 81 -72.5 132.5t-173.5 51.5q-105 0 -175 -47t-83 -115q-11 -53 3 -91.5t45.5 -59.5t75 -37t93 -25.5t98 -24.5t91 -33.5t72.5 -53t41 -82.5t-3 -123q-22 -114 -124.5 -189t-252.5 -75z" />
    <glyph glyph-name="Scircumflex" unicode="&#x15c;" horiz-adv-x="1218" 
d="M838 1788l-189 -211h-86l232 274h102l127 -274h-78zM1171 1065h-90q17 133 -82 218t-260 85q-154 0 -264 -73.5t-129 -188.5q-13 -76 7.5 -131t66 -86.5t107 -54t130.5 -39t138 -35.5t129 -50t103 -75.5t60 -119.5t0 -175q-29 -157 -174.5 -258.5t-345.5 -101.5
q-110 0 -202.5 34.5t-154 94t-89.5 143.5t-12 180h90q-27 -161 81 -263.5t291 -102.5q167 0 286 80.5t142 209.5q14 83 -5.5 144t-64 96.5t-105.5 60.5t-130 42.5t-138 36t-129.5 47.5t-104 70t-62 109.5t-2.5 161.5q25 145 161 237.5t326 92.5q212 0 333 -112t93 -277z" />
    <glyph glyph-name="scircumflex" unicode="&#x15d;" horiz-adv-x="903" 
d="M633 1346l-189 -211h-86l232 274h102l127 -274h-78zM504 936q-105 0 -175 -47t-83 -115q-11 -53 3 -91.5t45.5 -59.5t75 -37t93 -25.5t98 -24.5t91 -33.5t72.5 -53t41 -82.5t-3 -123q-22 -114 -124.5 -189t-252.5 -75q-160 0 -259.5 81.5t-92.5 212.5h88
q-6 -98 69.5 -157.5t194.5 -59.5q116 0 195.5 57t97.5 142q11 55 -2.5 95.5t-44.5 62.5t-74.5 39.5t-92.5 27.5t-98 25t-91.5 32.5t-72.5 51t-41.5 79t1.5 117.5q19 98 112 162t232 64q143 0 240.5 -73.5t91.5 -186.5h-88q0 81 -72.5 132.5t-173.5 51.5z" />
    <glyph glyph-name="Scedilla" unicode="&#x15e;" horiz-adv-x="1218" 
d="M1171 1065h-90q17 133 -82 218t-260 85q-154 0 -264 -73.5t-129 -188.5q-13 -76 7.5 -131t66 -86.5t107 -54t130.5 -39t138 -35.5t129 -50t103 -75.5t60 -119.5t0 -175q-29 -154 -168.5 -255t-332.5 -105q57 -74 63 -150t-30 -132.5t-105.5 -92.5t-155.5 -37l-20 67
q109 13 172.5 64t65.5 123.5t-58 159.5q-205 14 -322 140.5t-87 309.5h90q-27 -161 81 -263.5t291 -102.5q167 0 286 80.5t142 209.5q14 83 -5.5 144t-64 96.5t-105.5 60.5t-130 42.5t-138 36t-129.5 47.5t-104 70t-62 109.5t-2.5 161.5q25 145 161 237.5t326 92.5
q212 0 333 -112t93 -277z" />
    <glyph glyph-name="scedilla" unicode="&#x15f;" horiz-adv-x="903" 
d="M504 936q-105 0 -175 -47t-83 -115q-11 -53 3 -91.5t45.5 -59.5t75 -37t93 -25.5t98 -24.5t91 -33.5t72.5 -53t41 -82.5t-3 -123q-22 -112 -123 -187.5t-248 -76.5q57 -74 63 -150t-30.5 -132.5t-106 -92.5t-155.5 -37l-19 67q109 13 172.5 64.5t65.5 124.5t-59 160
q-135 15 -215 94t-74 196h88q-6 -98 69.5 -157.5t194.5 -59.5q116 0 195.5 57t97.5 142q11 55 -2.5 95.5t-44.5 62.5t-74.5 39.5t-92.5 27.5t-98 25t-91.5 32.5t-72.5 51t-41.5 79t1.5 117.5q19 98 112 162t232 64q143 0 240.5 -73.5t91.5 -186.5h-88q0 81 -72.5 132.5
t-173.5 51.5z" />
    <glyph glyph-name="Scaron" unicode="&#x160;" horiz-adv-x="1218" 
d="M756 1559l-127 274h80l106 -211l189 211h88l-232 -274h-104zM1171 1065h-90q17 133 -82 218t-260 85q-154 0 -264 -73.5t-129 -188.5q-13 -76 7.5 -131t66 -86.5t107 -54t130.5 -39t138 -35.5t129 -50t103 -75.5t60 -119.5t0 -175q-29 -157 -174.5 -258.5t-345.5 -101.5
q-110 0 -202.5 34.5t-154 94t-89.5 143.5t-12 180h90q-27 -161 81 -263.5t291 -102.5q167 0 286 80.5t142 209.5q14 83 -5.5 144t-64 96.5t-105.5 60.5t-130 42.5t-138 36t-129.5 47.5t-104 70t-62 109.5t-2.5 161.5q25 145 161 237.5t326 92.5q212 0 333 -112t93 -277z" />
    <glyph glyph-name="scaron" unicode="&#x161;" horiz-adv-x="903" 
d="M510 1116l-127 275h78l108 -211l189 211h86l-232 -275h-102zM506 1012q143 0 240.5 -73.5t91.5 -186.5h-88q0 81 -72.5 132.5t-173.5 51.5q-105 0 -175 -47t-83 -115q-11 -53 3 -91.5t45.5 -59.5t75 -37t93 -25.5t98 -24.5t91 -33.5t72.5 -53t41 -82.5t-3 -123
q-22 -114 -124.5 -189t-252.5 -75q-160 0 -259.5 81.5t-92.5 212.5h88q-6 -98 69.5 -157.5t194.5 -59.5q116 0 195.5 57t97.5 142q11 55 -2.5 95.5t-44.5 62.5t-74.5 39.5t-92.5 27.5t-98 25t-91.5 32.5t-72.5 51t-41.5 79t1.5 117.5q19 98 112 162t232 64z" />
    <glyph glyph-name="uni0162" unicode="&#x162;" horiz-adv-x="1208" 
d="M1307 1348h-492l-258 -1332q60 -62 83 -128.5t8.5 -122t-52.5 -100.5t-100.5 -70.5t-135.5 -26.5l-18 67q172 21 222 126t-58 239h-43l262 1348h-492l17 86h1073z" />
    <glyph glyph-name="uni0163" unicode="&#x163;" horiz-adv-x="686" 
d="M406 909l-119 -610q-24 -122 23.5 -174.5t156.5 -52.5q43 0 70 8l-15 -80q-33 -8 -82 -8h-28q63 -75 73 -153t-25 -136.5t-105 -96t-158 -38.5l-21 67q114 13 177.5 66.5t61 133.5t-74.5 167q-190 50 -143 299l118 608h-200l16 82h201l55 281h88l-55 -281h295l-15 -82
h-294z" />
    <glyph glyph-name="Tcaron" unicode="&#x164;" horiz-adv-x="1208" 
d="M758 1559l-127 274h80l106 -211l189 211h88l-232 -274h-104zM1323 1434l-16 -86h-492l-262 -1348h-90l262 1348h-492l17 86h1073z" />
    <glyph glyph-name="tcaron" unicode="&#x165;" horiz-adv-x="686" 
d="M860 1528l-147 -412h-74l125 412h96zM475 1272l-55 -281h295l-15 -82h-294l-119 -610q-24 -122 23.5 -174.5t156.5 -52.5q43 0 70 8l-15 -80q-33 -8 -82 -8q-144 0 -208.5 75.5t-34.5 233.5l118 608h-200l16 82h201l55 281h88z" />
    <glyph glyph-name="Tbar" unicode="&#x166;" horiz-adv-x="1208" 
d="M1307 1348h-492l-117 -596h244l-12 -70h-244l-133 -682h-90l133 682h-252l12 70h252l117 596h-492l17 86h1073z" />
    <glyph glyph-name="tbar" unicode="&#x167;" horiz-adv-x="686" 
d="M700 909h-294l-74 -379h286l-12 -67h-289l-30 -164q-24 -122 23.5 -174.5t156.5 -52.5q43 0 70 8l-15 -80q-33 -8 -82 -8q-144 0 -208.5 75.5t-34.5 233.5l32 162h-202l12 67h203l73 379h-200l16 82h201l55 281h88l-55 -281h295z" />
    <glyph glyph-name="Utilde" unicode="&#x168;" horiz-adv-x="1441" 
d="M616 1595q21 86 77 137.5t122 51.5q39 0 79 -19.5t67 -43t58.5 -43t57.5 -19.5q47 0 84.5 35.5t46.5 89.5l76 -17q-23 -85 -79 -135.5t-122 -50.5q-40 0 -79 19t-65.5 42.5t-59 42.5t-60.5 19q-46 0 -83 -35t-46 -90zM649 -20q-164 0 -279.5 72.5t-161.5 199.5t-15 285
l174 897h90l-176 -904q-39 -203 64 -332.5t310 -129.5q193 0 335.5 125.5t183.5 334.5l174 906h92l-178 -912q-47 -246 -215 -394t-398 -148z" />
    <glyph glyph-name="utilde" unicode="&#x169;" horiz-adv-x="1202" 
d="M623 1264q-46 0 -83 -36t-44 -91l-76 16q21 86 76.5 137t121.5 51q39 0 79 -19t67 -42t59 -42t58 -19q48 0 85 34.5t46 89.5l75 -16q-23 -87 -78 -137.5t-122 -50.5q-40 0 -79 19.5t-65.5 43t-59 43t-60.5 19.5zM1051 991h88l-193 -991h-88l41 213
q-68 -110 -174.5 -171.5t-232.5 -61.5q-195 0 -290 120.5t-55 319.5l111 571h90l-112 -571q-31 -163 43 -260t229 -97q163 0 280.5 99.5t151.5 263.5z" />
    <glyph glyph-name="Umacron" unicode="&#x16a;" horiz-adv-x="1441" 
d="M606 1591l15 78h655l-14 -78h-656zM649 -20q-164 0 -279.5 72.5t-161.5 199.5t-15 285l174 897h90l-176 -904q-39 -203 64 -332.5t310 -129.5q193 0 335.5 125.5t183.5 334.5l174 906h92l-178 -912q-47 -246 -215 -394t-398 -148z" />
    <glyph glyph-name="umacron" unicode="&#x16b;" horiz-adv-x="1202" 
d="M1079 1227l-14 -76h-655l14 76h655zM1051 991h88l-193 -991h-88l41 213q-68 -110 -174.5 -171.5t-232.5 -61.5q-195 0 -290 120.5t-55 319.5l111 571h90l-112 -571q-31 -163 43 -260t229 -97q163 0 280.5 99.5t151.5 263.5z" />
    <glyph glyph-name="Ubreve" unicode="&#x16c;" horiz-adv-x="1441" 
d="M1268 1851q-28 -138 -117.5 -217.5t-218.5 -79.5q-122 0 -188.5 85.5t-43.5 211.5h72q-20 -99 30 -164t142 -65q91 0 160.5 63.5t89.5 165.5h74zM649 -20q-164 0 -279.5 72.5t-161.5 199.5t-15 285l174 897h90l-176 -904q-39 -203 64 -332.5t310 -129.5
q193 0 335.5 125.5t183.5 334.5l174 906h92l-178 -912q-47 -246 -215 -394t-398 -148z" />
    <glyph glyph-name="ubreve" unicode="&#x16d;" horiz-adv-x="1202" 
d="M735 1112q-120 0 -186.5 86.5t-44.5 212.5h71q-20 -99 30.5 -165t142.5 -66q91 0 160 64t89 167h74q-28 -138 -117.5 -218.5t-218.5 -80.5zM1051 991h88l-193 -991h-88l41 213q-68 -110 -174.5 -171.5t-232.5 -61.5q-195 0 -290 120.5t-55 319.5l111 571h90l-112 -571
q-31 -163 43 -260t229 -97q163 0 280.5 99.5t151.5 263.5z" />
    <glyph glyph-name="Uring" unicode="&#x16e;" horiz-adv-x="1441" 
d="M942 1556q-97 0 -157 61t-56 155t71 154.5t165 60.5q97 0 157 -60.5t56 -154.5q-5 -94 -71.5 -155t-164.5 -61zM946 1620q68 0 115.5 43t50.5 109q2 65 -40.5 108t-110.5 43t-115.5 -43.5t-48.5 -107.5q-3 -66 38.5 -109t110.5 -43zM649 -20q-164 0 -279.5 72.5
t-161.5 199.5t-15 285l174 897h90l-176 -904q-39 -203 64 -332.5t310 -129.5q193 0 335.5 125.5t183.5 334.5l174 906h92l-178 -912q-47 -246 -215 -394t-398 -148z" />
    <glyph glyph-name="uring" unicode="&#x16f;" horiz-adv-x="1202" 
d="M745 1114q-97 0 -157 60.5t-56 154.5q4 93 71.5 154t164.5 61t157 -60.5t56 -154.5t-71 -154.5t-165 -60.5zM600 1329q-3 -65 39 -108t111 -43q67 0 114.5 43t50.5 108t-39.5 108.5t-111.5 43.5q-67 0 -114 -43.5t-50 -108.5zM1051 991h88l-193 -991h-88l41 213
q-68 -110 -174.5 -171.5t-232.5 -61.5q-195 0 -290 120.5t-55 319.5l111 571h90l-112 -571q-31 -163 43 -260t229 -97q163 0 280.5 99.5t151.5 263.5z" />
    <glyph glyph-name="Uhungarumlaut" unicode="&#x170;" horiz-adv-x="1441" 
d="M821 1559l205 292h-92l-205 -292h92zM1090 1559l200 292h-90l-205 -292h95zM649 -20q-164 0 -279.5 72.5t-161.5 199.5t-15 285l174 897h90l-176 -904q-39 -203 64 -332.5t310 -129.5q193 0 335.5 125.5t183.5 334.5l174 906h92l-178 -912q-47 -246 -215 -394t-398 -148z
" />
    <glyph glyph-name="uhungarumlaut" unicode="&#x171;" horiz-adv-x="1202" 
d="M829 1409l-204 -293h-93l205 293h92zM893 1116h-94l205 293h90zM1051 991h88l-193 -991h-88l41 213q-68 -110 -174.5 -171.5t-232.5 -61.5q-195 0 -290 120.5t-55 319.5l111 571h90l-112 -571q-31 -163 43 -260t229 -97q163 0 280.5 99.5t151.5 263.5z" />
    <glyph glyph-name="Uogonek" unicode="&#x172;" horiz-adv-x="1441" 
d="M1348 1434h92l-178 -912q-43 -217 -180.5 -360t-331.5 -174q-88 -36 -145 -93t-70 -126q-9 -46 14.5 -75.5t75.5 -29.5q73 0 127 31l24 -64q-76 -39 -164 -39q-86 0 -129 50.5t-28 128.5q24 122 157 209q-153 9 -259.5 83t-148 198t-11.5 276l174 897h90l-176 -904
q-39 -203 64 -332.5t310 -129.5q193 0 335.5 125.5t183.5 334.5z" />
    <glyph glyph-name="uogonek" unicode="&#x173;" horiz-adv-x="1202" 
d="M948 0q-101 -33 -168 -94t-82 -137q-9 -46 14.5 -75.5t75.5 -29.5q73 0 130 31l22 -64q-76 -39 -164 -39q-86 0 -129 50.5t-29 128.5q17 79 81 145.5t165 114.5l35 182q-68 -110 -174.5 -171.5t-232.5 -61.5q-195 0 -290 120.5t-55 319.5l111 571h90l-112 -571
q-31 -163 43 -260t229 -97q163 0 280.5 99.5t151.5 263.5l111 565h88l-191 -975v-16z" />
    <glyph glyph-name="Wcircumflex" unicode="&#x174;" horiz-adv-x="2084" 
d="M1282 1788l-188 -211h-86l231 274h102l127 -274h-77zM2128 1434h98l-762 -1434h-90l-168 1307l-684 -1307h-88l-207 1434h95l180 -1309l686 1309h88l166 -1309z" />
    <glyph glyph-name="wcircumflex" unicode="&#x175;" horiz-adv-x="1605" 
d="M961 1346l-189 -211h-86l232 274h102l127 -274h-78zM1569 991h92l-557 -991h-82l-141 883l-484 -883h-84l-170 991h86l144 -880l481 880h88l141 -880z" />
    <glyph glyph-name="Ycircumflex" unicode="&#x176;" horiz-adv-x="1218" 
d="M850 1788l-188 -211h-87l232 274h102l127 -274h-78zM1247 1434h113l-670 -777l-129 -657h-92l131 659l-373 775h103l327 -684z" />
    <glyph glyph-name="ycircumflex" unicode="&#x177;" horiz-adv-x="1021" 
d="M680 1346l-188 -211h-86l231 274h102l127 -274h-78zM979 991h98l-852 -1388h-96l242 395l-228 993h95l196 -893z" />
    <glyph glyph-name="Ydieresis" unicode="&#x178;" horiz-adv-x="1218" 
d="M680 1749q31 0 55.5 -23.5t24.5 -52.5q0 -33 -24.5 -56.5t-55.5 -23.5q-32 0 -55 23t-23 57q0 30 23 53t55 23zM950 1749q31 0 55.5 -23.5t24.5 -52.5q0 -33 -24.5 -56.5t-55.5 -23.5q-32 0 -55 23t-23 57q0 30 23 53t55 23zM227 1434h103l327 -684l590 684h113
l-670 -777l-129 -657h-92l131 659z" />
    <glyph glyph-name="Zacute" unicode="&#x179;" horiz-adv-x="1177" 
d="M1077 1833l-246 -274h-92l217 274h121zM297 1434h981l-14 -72l-1153 -1276h911l-14 -86h-1041l13 72l1153 1276h-852z" />
    <glyph glyph-name="zacute" unicode="&#x17a;" horiz-adv-x="1019" 
d="M893 1391l-246 -275h-92l217 275h121zM1020 991l-12 -71l-895 -836h731l-17 -84h-850l13 72l897 837h-686l16 82h803z" />
    <glyph glyph-name="Zdotaccent" unicode="&#x17b;" horiz-adv-x="1177" 
d="M823 1749q31 0 55.5 -23.5t24.5 -52.5q0 -33 -24.5 -56.5t-55.5 -23.5q-32 0 -55 23t-23 57q0 30 23 53t55 23zM297 1434h981l-14 -72l-1153 -1276h911l-14 -86h-1041l13 72l1153 1276h-852z" />
    <glyph glyph-name="zdotaccent" unicode="&#x17c;" horiz-adv-x="1019" 
d="M659 1401q30 0 54 -23t24 -53q0 -33 -24 -55.5t-54 -22.5q-34 0 -56.5 22t-22.5 56q0 31 23 53.5t56 22.5zM1020 991l-12 -71l-895 -836h731l-17 -84h-850l13 72l897 837h-686l16 82h803z" />
    <glyph glyph-name="Zcaron" unicode="&#x17d;" horiz-adv-x="1177" 
d="M756 1559l-127 274h80l106 -211l189 211h88l-232 -274h-104zM1278 1434l-14 -72l-1153 -1276h911l-14 -86h-1041l13 72l1153 1276h-852l16 86h981z" />
    <glyph glyph-name="zcaron" unicode="&#x17e;" horiz-adv-x="1019" 
d="M571 1116l-127 275h80l107 -211l188 211h88l-231 -275h-105zM1020 991l-12 -71l-895 -836h731l-17 -84h-850l13 72l897 837h-686l16 82h803z" />
    <glyph glyph-name="longs" unicode="&#x17f;" horiz-adv-x="612" 
d="M737 1448q36 0 76 -8l-14 -82q-27 8 -68 8q-109 0 -176.5 -52.5t-91.5 -174.5l-223 -1139h-88l176 909h-201l16 82h201l29 148q30 158 124.5 233.5t239.5 75.5z" />
    <glyph glyph-name="uni0180" unicode="&#x180;" horiz-adv-x="1226" 
d="M745 1012q112 0 204.5 -41t150.5 -115.5t81.5 -177t-1.5 -225.5q-40 -206 -195 -339.5t-354 -133.5q-172 0 -282 82.5t-136 232.5l-57 -295h-90l239 1237h-244l15 70h243l25 127h90l-24 -127h252l-15 -70h-252l-96 -494q73 125 190 197t256 72zM1090 457
q39 211 -64.5 342t-298.5 131q-158 0 -286.5 -102t-172.5 -253l-18 -96q-22 -192 82 -305t293 -113q170 0 301.5 112t163.5 284z" />
    <glyph glyph-name="florin" unicode="&#x192;" horiz-adv-x="718" 
d="M791 1460q41 0 71 -10l-14 -78q-24 6 -49 6q-109 0 -192.5 -70t-106.5 -192l-25 -125h295l-16 -82h-295l-172 -891l-21 -100q-30 -159 -133.5 -247.5t-245.5 -88.5q-38 0 -71 10l14 78q24 -6 51 -6q108 0 191 70t106 192l191 983h-199l14 82h201l6 33h2l21 100
q30 159 133.5 247.5t243.5 88.5z" />
    <glyph glyph-name="uni01EA" unicode="&#x1ea;" horiz-adv-x="1667" 
d="M864 -14q-85 -34 -141.5 -91.5t-69.5 -125.5q-9 -46 14.5 -75.5t75.5 -29.5q72 0 129 31l23 -64q-76 -39 -164 -39q-86 0 -129 50.5t-29 128.5q24 121 158 209q-258 12 -419.5 186t-161.5 434q0 225 115 422.5t307.5 314.5t410.5 117q181 0 323.5 -80t221 -220.5
t78.5 -315.5q0 -152 -59 -299.5t-158.5 -261.5t-237 -192.5t-287.5 -98.5zM242 604q0 -234 146.5 -386t379.5 -152q146 0 283 63.5t237.5 168.5t161.5 247t61 291q0 231 -148 381.5t-382 150.5q-146 0 -282.5 -62.5t-236.5 -166t-160 -244.5t-60 -291z" />
    <glyph glyph-name="uni01EB" unicode="&#x1eb;" horiz-adv-x="1216" 
d="M612 -16q-83 -36 -137 -92t-67 -123q-9 -46 14.5 -75.5t75.5 -29.5q72 0 129 31l22 -64q-76 -39 -164 -39q-86 0 -128.5 50.5t-28.5 128.5q23 118 161 213q-175 19 -286 142.5t-111 301.5q0 115 46.5 223t124.5 187t185 126.5t222 47.5q196 0 325 -129.5t129 -323.5
q0 -106 -40.5 -206.5t-109 -176.5t-163 -127.5t-199.5 -64.5zM182 434q0 -161 103 -266t266 -105q95 0 184.5 40.5t155 107t105.5 156.5t40 186q0 162 -104.5 269.5t-265.5 107.5q-129 0 -241 -68.5t-177.5 -183t-65.5 -244.5z" />
    <glyph glyph-name="Aringacute" unicode="&#x1fa;" horiz-adv-x="1312" 
d="M879 1556q-98 0 -158 61t-55 155q5 91 68 151.5t157 63.5l205 258h121l-242 -269q67 -22 104.5 -76.5t34.5 -127.5q-4 -94 -71 -155t-164 -61zM731 1772q-3 -65 40 -108.5t110 -43.5q69 0 116 43.5t50 108.5t-39 108t-111 43q-68 0 -115.5 -43.5t-50.5 -107.5zM791 1434
h94l299 -1434h-99l-81 397h-732l-237 -397h-98zM324 483h663l-170 830z" />
    <glyph glyph-name="aringacute" unicode="&#x1fb;" horiz-adv-x="1226" 
d="M768 1114q-97 0 -157 60.5t-56 154.5q4 90 67 150t156 65l205 260h121l-240 -270q67 -20 105 -75.5t35 -129.5q-4 -94 -71 -154.5t-165 -60.5zM623 1329q-3 -65 39 -108t110 -43t115.5 43.5t50.5 107.5q3 65 -40 108.5t-112 43.5q-67 0 -113.5 -43.5t-49.5 -108.5z
M1128 991h89l-193 -991h-90l49 250q-73 -125 -190 -197.5t-256 -72.5q-112 0 -203.5 41t-149.5 115.5t-81.5 177.5t1.5 227q40 205 194.5 338t354.5 133q173 0 282 -83.5t134 -234.5zM555 61q161 0 291 105.5t172 259.5l14 72q26 197 -78 314.5t-297 117.5
q-170 0 -301 -111.5t-163 -283.5q-39 -209 65 -341.5t297 -132.5z" />
    <glyph glyph-name="AEacute" unicode="&#x1fc;" horiz-adv-x="1871" 
d="M1812 1833l-245 -274h-92l217 274h120zM1907 1348h-676l-103 -527h605l-17 -86h-602l-129 -649h676l-14 -86h-768l79 410h-577l-338 -410h-106l1185 1434h801zM975 492l162 835l-688 -835h526z" />
    <glyph glyph-name="aeacute" unicode="&#x1fd;" horiz-adv-x="2041" 
d="M1317 1391l-246 -275h-92l217 275h121zM1954 504h-832l-37 -191q37 -114 134 -183t225 -69q130 0 237.5 63.5t145.5 178.5h92q-43 -149 -180 -236t-303 -87q-118 0 -217 51.5t-160 142.5l-35 -174h-90l49 250q-73 -125 -190 -197.5t-256 -72.5q-112 0 -203.5 41
t-149.5 115.5t-81.5 177.5t1.5 227q40 205 194.5 338t354.5 133q160 0 266.5 -71.5t141.5 -201.5q3 4 8 12t9.5 15t8.5 12l41 213h89l-19 -98q147 119 342 119q187 0 305.5 -117.5t118.5 -304.5q0 -38 -10 -86zM1538 932q-111 0 -207.5 -48t-161.5 -132l-32 -172h737
q-1 165 -90.5 258.5t-245.5 93.5zM555 61q137 0 254.5 80t177.5 205q-8 41 -8 94q0 124 47 230q-29 123 -126.5 191.5t-242.5 68.5q-170 0 -301 -111.5t-163 -283.5q-39 -209 65 -341.5t297 -132.5z" />
    <glyph glyph-name="uni0218" unicode="&#x218;" horiz-adv-x="1218" 
d="M567 -20q-110 0 -202.5 34.5t-154 94t-89.5 143.5t-12 180h90q-27 -161 81 -263.5t291 -102.5q167 0 286 80.5t142 209.5q14 83 -5.5 144t-64 96.5t-105.5 60.5t-130 42.5t-138 36t-129.5 47.5t-104 70t-62 109.5t-2.5 161.5q25 145 161 237.5t326 92.5q212 0 333 -112
t93 -277h-90q17 133 -82 218t-260 85q-154 0 -264 -73.5t-129 -188.5q-13 -76 7.5 -131t66 -86.5t107 -54t130.5 -39t138 -35.5t129 -50t103 -75.5t60 -119.5t0 -175q-29 -157 -174.5 -258.5t-345.5 -101.5zM588 -158l-246 -276h-92l217 276h121z" />
    <glyph glyph-name="uni0219" unicode="&#x219;" horiz-adv-x="903" 
d="M385 -20q-160 0 -259.5 81.5t-92.5 212.5h88q-6 -98 69.5 -157.5t194.5 -59.5q116 0 195.5 57t97.5 142q11 55 -2.5 95.5t-44.5 62.5t-74.5 39.5t-92.5 27.5t-98 25t-91.5 32.5t-72.5 51t-41.5 79t1.5 117.5q19 98 112 162t232 64q143 0 240.5 -73.5t91.5 -186.5h-88
q0 81 -72.5 132.5t-173.5 51.5q-105 0 -175 -47t-83 -115q-11 -53 3 -91.5t45.5 -59.5t75 -37t93 -25.5t98 -24.5t91 -33.5t72.5 -53t41 -82.5t-3 -123q-22 -114 -124.5 -189t-252.5 -75zM393 -158l-246 -276h-92l217 276h121z" />
    <glyph glyph-name="uni021A" unicode="&#x21a;" horiz-adv-x="1208" 
d="M1323 1434l-16 -86h-492l-262 -1348h-90l262 1348h-492l17 86h1073zM244 -434l217 276h121l-246 -276h-92z" />
    <glyph glyph-name="uni021B" unicode="&#x21b;" horiz-adv-x="686" 
d="M406 909l-119 -610q-24 -122 23.5 -174.5t156.5 -52.5q43 0 70 8l-15 -80q-33 -8 -82 -8q-144 0 -208.5 75.5t-34.5 233.5l118 608h-200l16 82h201l55 281h88l-55 -281h295l-15 -82h-294zM90 -434l217 276h121l-246 -276h-92z" />
    <glyph glyph-name="uni0237" unicode="&#x237;" horiz-adv-x="413" 
d="M-168 -338l21 -2q75 0 121.5 57.5t72.5 182.5l211 1091h90l-213 -1097q-32 -161 -103.5 -239.5t-185.5 -78.5h-30z" />
    <glyph glyph-name="uni0243" unicode="&#x243;" horiz-adv-x="1212" 
d="M1167 1077q-23 -121 -116 -212.5t-209 -106.5q139 -11 217.5 -119t50.5 -256q-31 -161 -168 -272t-307 -111h-547l68 348h-248l12 70h250l197 1016h477q163 0 257.5 -104t65.5 -253zM715 788q128 0 232.5 84t127.5 207q23 114 -48.5 191.5t-199.5 77.5h-387l-110 -560
h385zM1020 397q26 131 -47.5 219.5t-210.5 88.5h-447l-57 -287h248l-12 -70h-250l-51 -262h446q138 0 247 89.5t134 221.5z" />
    <glyph glyph-name="circumflex" unicode="&#x2c6;" horiz-adv-x="667" 
d="M471 1135h-78l-108 211l-189 -211h-86l232 274h102z" />
    <glyph glyph-name="caron" unicode="&#x2c7;" horiz-adv-x="667" 
d="M653 1391h88l-231 -275h-104l-127 275h79l107 -211z" />
    <glyph glyph-name="breve" unicode="&#x2d8;" horiz-adv-x="772" 
d="M848 1411q-28 -138 -117.5 -218.5t-218.5 -80.5q-120 0 -186.5 86.5t-44.5 212.5h71q-20 -99 30 -165t142 -66q91 0 160.5 64t89.5 167h74z" />
    <glyph glyph-name="dotaccent" unicode="&#x2d9;" horiz-adv-x="362" 
d="M-49 1401q31 0 55.5 -23t24.5 -53q0 -33 -24 -55.5t-56 -22.5q-33 0 -55.5 22.5t-22.5 55.5q0 31 23 53.5t55 22.5z" />
    <glyph glyph-name="ring" unicode="&#x2da;" horiz-adv-x="653" 
d="M463 1114q-97 0 -157 60.5t-56 154.5q5 94 71 154.5t164 60.5q97 0 157 -60.5t56 -154.5q-5 -94 -71 -154.5t-164 -60.5zM467 1178q68 0 115.5 43.5t50.5 107.5q2 65 -41 108.5t-111 43.5t-115.5 -44t-48.5 -108q-3 -65 39 -108t111 -43z" />
    <glyph glyph-name="ogonek" unicode="&#x2db;" horiz-adv-x="548" 
d="M119 -408q-87 0 -130 50.5t-28 128.5q20 95 108.5 171.5t225.5 123.5l-4 -66q-101 -33 -168 -94t-82 -137q-9 -46 14.5 -75.5t75.5 -29.5q72 0 129 31l23 -64q-76 -39 -164 -39z" />
    <glyph glyph-name="tilde" unicode="&#x2dc;" horiz-adv-x="837" 
d="M229 1153q21 86 77 137t122 51q39 0 79 -19t67 -42t58.5 -42t57.5 -19q48 0 85.5 34.5t47.5 89.5l74 -16q-21 -86 -77.5 -137t-123.5 -51q-40 0 -79 19.5t-65 43t-59 43t-61 19.5q-46 0 -83 -36t-44 -91z" />
    <glyph glyph-name="hungarumlaut" unicode="&#x2dd;" horiz-adv-x="710" 
d="M315 1116l205 293h-92l-205 -293h92zM584 1116l200 293h-90l-205 -293h95z" />
    <glyph glyph-name="gravecomb" unicode="&#x300;" horiz-adv-x="0" 
d="M-319 1391h120l217 -275h-92z" />
    <glyph glyph-name="acutecomb" unicode="&#x301;" horiz-adv-x="0" 
d="M-233 1391l-246 -275h-92l217 275h121z" />
    <glyph glyph-name="uni0302" unicode="&#x302;" horiz-adv-x="0" 
d="M20 1135h-77l-109 211l-188 -211h-86l231 274h103z" />
    <glyph glyph-name="tildecomb" unicode="&#x303;" horiz-adv-x="0" 
d="M-780 1153q21 86 76.5 137t121.5 51q39 0 79 -19t67 -42t59 -42t58 -19q48 0 85 34.5t46 89.5l75 -16q-23 -86 -79 -137t-123 -51q-39 0 -78 19.5t-65 43t-59 43t-61 19.5q-46 0 -83 -36t-46 -91z" />
    <glyph glyph-name="uni0304" unicode="&#x304;" horiz-adv-x="0" 
d="M-852 1151l14 76h656l-15 -76h-655z" />
    <glyph glyph-name="uni0306" unicode="&#x306;" horiz-adv-x="0" 
d="M-160 1411q-28 -138 -118.5 -218.5t-219.5 -80.5q-120 0 -186 86.5t-43 212.5h72q-20 -99 29.5 -165t140.5 -66q92 0 162 64t90 167h73z" />
    <glyph glyph-name="uni0307" unicode="&#x307;" horiz-adv-x="0" 
d="M-20 1401q30 0 53.5 -23t23.5 -53q0 -33 -23.5 -55.5t-53.5 -22.5q-34 0 -57 22t-23 56q0 31 23.5 53.5t56.5 22.5z" />
    <glyph glyph-name="uni0308" unicode="&#x308;" horiz-adv-x="0" 
d="M-291 1401q30 0 54 -23t24 -53q0 -33 -24 -55.5t-54 -22.5q-34 0 -57 22t-23 56q0 31 23.5 53.5t56.5 22.5zM-23 1401q31 0 55.5 -23t24.5 -53q0 -33 -24 -55.5t-56 -22.5q-33 0 -55 22.5t-22 55.5q0 31 22.5 53.5t54.5 22.5z" />
    <glyph glyph-name="uni030A" unicode="&#x30a;" horiz-adv-x="0" 
d="M-453 1114q-98 0 -158 60.5t-55 154.5q4 94 71 154.5t165 60.5q97 0 157 -60.5t56 -154.5q-4 -93 -71.5 -154t-164.5 -61zM-451 1178q69 0 116 43t50 108t-39 108.5t-110 43.5q-67 0 -115 -43.5t-51 -108.5t39.5 -108t109.5 -43z" />
    <glyph glyph-name="uni030B" unicode="&#x30b;" horiz-adv-x="0" 
d="M-612 1116l202 293h-90l-207 -293h95zM-346 1116l203 293h-93l-202 -293h92z" />
    <glyph glyph-name="uni030C" unicode="&#x30c;" horiz-adv-x="0" 
d="M-231 1391h88l-232 -275h-104l-127 275h80l106 -211z" />
    <glyph glyph-name="uni0312" unicode="&#x312;" horiz-adv-x="0" 
d="M-266 1118l248 277h90l-217 -277h-121z" />
    <glyph glyph-name="uni0326" unicode="&#x326;" horiz-adv-x="0" 
d="M-244 -158l-245 -276h-93l217 276h121z" />
    <glyph glyph-name="uni0327" unicode="&#x327;" horiz-adv-x="0" 
d="M-352 29l67 -6q63 -63 88 -130t11.5 -123.5t-51.5 -102.5t-101 -72t-137 -27l-19 67q120 14 184 72t54.5 144t-96.5 178z" />
    <glyph glyph-name="uni0328" unicode="&#x328;" horiz-adv-x="0" 
d="M-772 -408q-86 0 -129 50.5t-29 128.5q20 95 108.5 171.5t225.5 123.5l-4 -66q-101 -33 -168 -94t-82 -137q-9 -46 14.5 -75.5t75.5 -29.5q72 0 129 31l23 -64q-76 -39 -164 -39z" />
    <glyph glyph-name="uni0394" unicode="&#x394;" horiz-adv-x="1236" 
d="M-63 0l14 86l803 1350h92l278 -1350l-16 -86h-1171zM51 86h979l-248 1235z" />
    <glyph glyph-name="uni03A9" unicode="&#x3a9;" horiz-adv-x="1593" 
d="M76 0l16 86h340q-366 234 -282 666q39 204 161.5 365t296.5 249t367 88q198 0 341 -90t203.5 -254t20.5 -371q-81 -425 -530 -653h331l-16 -86h-459l13 86q490 247 571 664q53 275 -83 446.5t-394 171.5q-172 0 -326 -78.5t-262.5 -223.5t-144.5 -331q-81 -405 309 -649
l-12 -86h-461z" />
    <glyph glyph-name="uni03BC" unicode="&#x3bc;" horiz-adv-x="1202" 
d="M1051 991h88l-193 -991h-88l41 213q-68 -110 -174.5 -171.5t-232.5 -61.5q-222 0 -312 151l-102 -528h-90l270 1388h90l-119 -606q-17 -148 58 -235t221 -87q163 0 280.5 99.5t151.5 263.5z" />
    <glyph glyph-name="pi" unicode="&#x3c0;" horiz-adv-x="1384" 
d="M1092 909l-113 -581q-24 -122 27.5 -189t154.5 -67q35 0 62 8l-2 -80q-29 -10 -68 -10q-145 0 -218.5 91.5t-43.5 250.5l113 577h-447l-178 -909h-88l178 909h-293l17 82h1208l-17 -82h-292z" />
    <glyph glyph-name="uni0E3F" unicode="&#xe3f;" horiz-adv-x="1140" 
d="M1075 1077q-25 -121 -117 -212.5t-208 -106.5q139 -11 217 -119t49 -256q-31 -162 -167.5 -272.5t-307.5 -110.5h-101l-47 -246h-86l47 246h-360l278 1434h361l47 245h86l-45 -245h29q163 0 258.5 -104t66.5 -253zM623 788q126 0 230.5 84t129.5 207q23 114 -48.5 191.5
t-199.5 77.5h-389l-108 -560h385zM928 397q25 131 -48.5 219.5t-209.5 88.5h-449l-121 -619h447q137 0 246 89t135 222z" />
    <glyph glyph-name="Wgrave" unicode="&#x1e80;" horiz-adv-x="2084" 
d="M975 1833h121l217 -274h-92zM2128 1434h98l-762 -1434h-90l-168 1307l-684 -1307h-88l-207 1434h95l180 -1309l686 1309h88l166 -1309z" />
    <glyph glyph-name="wgrave" unicode="&#x1e81;" horiz-adv-x="1605" 
d="M651 1391h121l217 -275h-92zM313 0l-170 991h86l144 -880l481 880h88l141 -880l486 880h92l-557 -991h-82l-141 883l-484 -883h-84z" />
    <glyph glyph-name="Wacute" unicode="&#x1e82;" horiz-adv-x="2084" 
d="M1522 1833l-246 -274h-92l217 274h121zM2128 1434h98l-762 -1434h-90l-168 1307l-684 -1307h-88l-207 1434h95l180 -1309l686 1309h88l166 -1309z" />
    <glyph glyph-name="wacute" unicode="&#x1e83;" horiz-adv-x="1605" 
d="M1198 1391l-246 -275h-92l217 275h121zM313 0l-170 991h86l144 -880l481 880h88l141 -880l486 880h92l-557 -991h-82l-141 883l-484 -883h-84z" />
    <glyph glyph-name="Wdieresis" unicode="&#x1e84;" horiz-adv-x="2084" 
d="M1114 1749q31 0 55.5 -23.5t24.5 -52.5q0 -33 -24.5 -56.5t-55.5 -23.5q-32 0 -55 23t-23 57q0 30 23 53t55 23zM1384 1749q31 0 55.5 -23.5t24.5 -52.5q0 -33 -24.5 -56.5t-55.5 -23.5q-32 0 -54.5 23t-22.5 57q0 30 22.5 53t54.5 23zM2128 1434h98l-762 -1434h-90
l-168 1307l-684 -1307h-88l-207 1434h95l180 -1309l686 1309h88l166 -1309z" />
    <glyph glyph-name="wdieresis" unicode="&#x1e85;" horiz-adv-x="1605" 
d="M834 1401q30 0 53.5 -23t23.5 -53q0 -33 -23.5 -55.5t-53.5 -22.5q-34 0 -57 22t-23 56q0 31 23.5 53.5t56.5 22.5zM1102 1401q31 0 55.5 -23t24.5 -53q0 -33 -24 -55.5t-56 -22.5q-33 0 -55.5 22.5t-22.5 55.5q0 31 23 53.5t55 22.5zM313 0l-170 991h86l144 -880
l481 880h88l141 -880l486 880h92l-557 -991h-82l-141 883l-484 -883h-84z" />
    <glyph glyph-name="uni1E9E" unicode="&#x1e9e;" horiz-adv-x="1212" 
d="M799 1454q168 0 277 -98.5t104 -243.5l-447 -346q210 10 312 -92.5t67 -284.5q-31 -161 -169 -275t-300 -114h-309l16 86h301q129 0 237.5 92t133.5 221q26 141 -39.5 221t-212.5 80h-141l-2 68l458 360q-6 103 -85 172.5t-197 69.5q-156 0 -276.5 -101.5t-151.5 -254.5
l-197 -1014h-90l199 1020q37 190 180.5 312t331.5 122z" />
    <glyph glyph-name="Ygrave" unicode="&#x1ef2;" horiz-adv-x="1218" 
d="M541 1833h121l217 -274h-93zM227 1434h103l327 -684l590 684h113l-670 -777l-129 -657h-92l131 659z" />
    <glyph glyph-name="ygrave" unicode="&#x1ef3;" horiz-adv-x="1021" 
d="M711 1116h-93l-245 275h121zM979 991h98l-852 -1388h-96l242 395l-228 993h95l196 -893z" />
    <glyph glyph-name="uni2009" unicode="&#x2009;" horiz-adv-x="423" 
 />
    <glyph glyph-name="endash" unicode="&#x2013;" horiz-adv-x="1107" 
d="M100 485l17 82h903l-16 -82h-904z" />
    <glyph glyph-name="emdash" unicode="&#x2014;" horiz-adv-x="2252" 
d="M100 485l17 82h2048l-17 -82h-2048z" />
    <glyph glyph-name="quoteleft" unicode="&#x2018;" horiz-adv-x="391" 
d="M240 1200q6 28 30 64l164 237h58l-127 -219q30 -9 44 -34t7 -60q-6 -37 -34 -61.5t-65 -24.5q-41 0 -63 28t-14 70z" />
    <glyph glyph-name="quoteright" unicode="&#x2019;" horiz-adv-x="391" 
d="M467 1405q-4 -19 -31 -64l-166 -239h-57l127 221q-28 8 -42.5 33.5t-8.5 60.5q6 36 34 60t64 24q41 0 64.5 -28t15.5 -68z" />
    <glyph glyph-name="quotesinglbase" unicode="&#x201a;" horiz-adv-x="391" 
d="M215 111q-6 -25 -31 -62l-166 -239h-57l127 221q-28 8 -42 33.5t-7 60.5q4 36 32.5 60t65.5 24q41 0 63.5 -28.5t14.5 -69.5z" />
    <glyph glyph-name="quotedblleft" unicode="&#x201c;" horiz-adv-x="663" 
d="M240 1200q6 28 30 64l164 237h58l-127 -219q30 -9 44 -34t7 -60q-6 -37 -34 -61.5t-65 -24.5q-41 0 -63 28t-14 70zM510 1200q6 26 31 64l166 237h57l-127 -219q28 -9 42.5 -34t8.5 -60q-6 -37 -34.5 -61.5t-65.5 -24.5q-41 0 -63.5 28.5t-14.5 69.5z" />
    <glyph glyph-name="quotedblright" unicode="&#x201d;" horiz-adv-x="663" 
d="M467 1405q-4 -19 -31 -64l-166 -239h-57l127 221q-28 8 -42.5 33.5t-8.5 60.5q6 36 34 60t64 24q41 0 64.5 -28t15.5 -68zM737 1405q-6 -28 -30 -64l-166 -239h-56l125 221q-28 8 -42 33.5t-7 60.5q4 36 32.5 60t65.5 24q41 0 63.5 -28t14.5 -68z" />
    <glyph glyph-name="quotedblbase" unicode="&#x201e;" horiz-adv-x="663" 
d="M215 111q-6 -25 -31 -62l-166 -239h-57l127 221q-28 8 -42 33.5t-7 60.5q4 36 32.5 60t65.5 24q41 0 63.5 -28.5t14.5 -69.5zM485 111q-7 -27 -30 -62l-164 -239h-58l127 221q-30 8 -44 33.5t-7 60.5q6 37 34 60.5t65 23.5q41 0 63 -28t14 -70z" />
    <glyph glyph-name="dagger" unicode="&#x2020;" horiz-adv-x="911" 
d="M928 1118l-15 -78h-311l-115 -594h-84l115 594h-309l14 78h309l70 357h84l-70 -357h312z" />
    <glyph glyph-name="daggerdbl" unicode="&#x2021;" horiz-adv-x="913" 
d="M487 446h-2l-2 -12h314l-15 -78h-313l-70 -356h-84l70 356h-309l14 78h309l115 594h2l2 12h-309l14 78h309l70 357h84l-70 -357h312l-15 -78h-311z" />
    <glyph glyph-name="bullet" unicode="&#x2022;" horiz-adv-x="571" 
d="M285 293q-88 0 -146.5 59t-58.5 148q0 88 58.5 146.5t146.5 58.5t147.5 -58.5t59.5 -146.5q0 -89 -59.5 -148t-147.5 -59z" />
    <glyph glyph-name="ellipsis" unicode="&#x2026;" horiz-adv-x="1095" 
d="M135 -20q-38 0 -64 26t-26 64t26 65t64 27t65 -27t27 -65t-27 -64t-65 -26zM477 -20q-38 0 -64 26t-26 64t26 65t64 27t64 -27t26 -65t-26 -64t-64 -26zM795 -20q-38 0 -64 26t-26 64t26 65t64 27t65 -27t27 -65t-27 -64t-65 -26z" />
    <glyph glyph-name="perthousand" unicode="&#x2030;" horiz-adv-x="2117" 
d="M545 891q-112 0 -182.5 80t-65.5 203q4 123 79.5 201.5t188.5 78.5q114 0 183.5 -78.5t64.5 -201.5q-5 -124 -79.5 -203.5t-188.5 -79.5zM1448 1434h82l-1231 -1434h-82zM371 1174q-3 -95 45.5 -155.5t132.5 -60.5q83 0 136 60.5t56 155.5t-45.5 153.5t-132.5 58.5
q-83 0 -137 -59t-55 -153zM1657 543q113 0 183 -79.5t65 -201.5q-5 -123 -80 -202.5t-189 -79.5q-75 0 -133.5 38t-89.5 105q-34 -67 -95.5 -105t-137.5 -38q-112 0 -181.5 79.5t-64.5 202.5q5 122 80 201.5t188 79.5q75 0 133.5 -38t89.5 -104q34 66 95.5 104t136.5 38z
M1376 262q3 94 -45.5 153.5t-132.5 59.5q-83 0 -136 -60t-56 -153q-3 -95 45.5 -155t132.5 -60q83 0 136 60.5t56 154.5zM1833 262q3 93 -46 153t-132 60q-84 0 -138 -60t-57 -153q-2 -95 47 -155t131 -60q84 0 138 60.5t57 154.5z" />
    <glyph glyph-name="guilsinglleft" unicode="&#x2039;" horiz-adv-x="745" 
d="M561 70l-467 432l15 67l632 430l-20 -104l-539 -367l398 -366z" />
    <glyph glyph-name="guilsinglright" unicode="&#x203a;" horiz-adv-x="765" 
d="M205 997l465 -430l-13 -69l-632 -430l20 104l537 367l-396 366z" />
    <glyph glyph-name="fraction" unicode="&#x2044;" horiz-adv-x="477" 
d="M858 1434h82l-1231 -1434h-82z" />
    <glyph glyph-name="Euro" unicode="&#x20ac;" horiz-adv-x="1712" 
d="M920 66q205 0 372 111t232 290h100q-72 -217 -268 -352t-441 -135q-178 0 -319.5 81t-220 222.5t-78.5 316.5q0 26 4 84h-197l15 80h194q40 191 159 348.5t293.5 249.5t367.5 92q235 0 393.5 -130.5t173.5 -336.5h-96q-13 169 -146.5 275t-331.5 106q-168 0 -320.5 -80.5
t-256.5 -218.5t-141 -305h749l-55 -80h-709q-4 -54 -4 -80q0 -234 148.5 -386t382.5 -152z" />
    <glyph glyph-name="uni20BD" unicode="&#x20bd;" horiz-adv-x="1314" 
d="M991 1434q167 0 263.5 -114t70.5 -280q-28 -166 -159 -278.5t-298 -112.5h-467l-53 -272h459l-8 -78h-467l-58 -299h-92l58 299h-201l6 78h211l53 272h-211l8 86h220l135 699h530zM1235 1047q23 128 -48 214.5t-198 86.5h-452l-119 -613h452q128 0 234 91t131 221z" />
    <glyph glyph-name="uni2116" unicode="&#x2116;" horiz-adv-x="2756" 
d="M2208 1454q197 0 326.5 -130.5t129.5 -324.5q0 -114 -47 -220.5t-124.5 -185t-184.5 -126t-221 -47.5q-197 0 -326 128t-129 322q0 115 46.5 223t124.5 187t184.5 126.5t220.5 47.5zM367 1434h96l647 -1284l252 1284h90l-278 -1434h-95l-649 1284l-252 -1284h-90z
M2204 1370q-129 0 -240.5 -68t-177.5 -182.5t-66 -245.5q0 -159 103.5 -264.5t265.5 -105.5q128 0 240 67.5t178.5 181t66.5 242.5q0 162 -104 268.5t-266 106.5zM2398 82l-14 -82h-840l17 82h837z" />
    <glyph glyph-name="uni2117" unicode="&#x2117;" horiz-adv-x="1730" 
d="M907 1454q150 0 287 -58.5t236.5 -157.5t158 -235t58.5 -286t-58.5 -286t-158 -235t-236.5 -157.5t-287 -58.5q-198 0 -367.5 99t-268.5 268.5t-99 369.5t99 369.5t268.5 268.5t367.5 99zM909 37q137 0 262 54t215.5 145t144.5 217t54 264t-54 264t-144.5 217t-215.5 145
t-262 54t-262.5 -54t-216.5 -145t-145 -217t-54 -264t54 -264t145 -217t216.5 -145t262.5 -54zM1016 1143q101 0 170 -68t69 -166q0 -101 -69 -169t-170 -68h-264v-379h-64v850h328zM1016 733q73 0 123.5 51t50.5 125q0 72 -51 122t-123 50h-264v-348h264z" />
    <glyph glyph-name="trademark" unicode="&#x2122;" horiz-adv-x="1990" 
d="M868 1434v-64h-288v-797h-68v797h-291v64h647zM1829 1434h72v-861h-68v709l-338 -709h-57l-338 709v-709h-68v861h70l364 -756z" />
    <glyph glyph-name="uni2126" unicode="&#x2126;" horiz-adv-x="1593" 
d="M76 0l16 86h340q-366 234 -282 666q39 204 161.5 365t296.5 249t367 88q198 0 341 -90t203.5 -254t20.5 -371q-81 -425 -530 -653h331l-16 -86h-459l13 86q490 247 571 664q53 275 -83 446.5t-394 171.5q-172 0 -326 -78.5t-262.5 -223.5t-144.5 -331q-81 -405 309 -649
l-12 -86h-461z" />
    <glyph glyph-name="oneeighth" unicode="&#x215b;" horiz-adv-x="1560" 
d="M1290 1434h82l-1231 -1434h-82zM481 1434l-166 -861h-67l151 768l-235 -176l14 84l252 185h51zM1151 -12q-112 0 -182 62t-68 157q1 90 67 164t162 94q-52 17 -82 63.5t-30 102.5q3 101 83 171t191 70q98 0 159.5 -54t59.5 -138q-2 -74 -53.5 -135t-132.5 -84
q65 -17 103.5 -71t37.5 -124q-3 -115 -96 -196.5t-219 -81.5zM1233 492q88 0 152 54.5t65 133.5q0 58 -46.5 96.5t-115.5 38.5q-87 0 -148 -57.5t-61 -132.5q0 -60 42 -96.5t112 -36.5zM1155 49q102 0 175 66.5t75 156.5q0 71 -49 115.5t-131 44.5q-105 0 -182.5 -65.5
t-77.5 -157.5q0 -70 53 -115t137 -45z" />
    <glyph glyph-name="threeeighths" unicode="&#x215c;" horiz-adv-x="1779" 
d="M324 1063l338 307h-441l15 64h530l-8 -50l-348 -307q79 14 143 -17t94 -95t15 -142q-23 -120 -114.5 -191t-213.5 -71q-107 0 -179 59t-77 150l63 18q4 -74 58 -118.5t137 -44.5q94 0 167.5 56t90.5 146q22 112 -53.5 167.5t-200.5 23.5zM1509 1434h82l-1231 -1434h-81z
M1372 -12q-112 0 -182.5 62.5t-67.5 156.5q1 90 67 164t161 94q-53 17 -83 63.5t-28 102.5q1 101 81 171t193 70q98 0 159.5 -54.5t58.5 -137.5q-2 -74 -53 -135t-134 -84q66 -17 105 -70.5t37 -124.5q-3 -115 -96 -196.5t-218 -81.5zM1452 492q89 0 153 54.5t64 133.5
q0 59 -46 97t-116 38q-87 0 -147 -57t-62 -133q0 -60 42 -96.5t112 -36.5zM1374 49q102 0 176 66.5t74 156.5q0 72 -48.5 116t-131.5 44q-105 0 -181.5 -65.5t-76.5 -157.5q-2 -69 51 -114.5t137 -45.5z" />
    <glyph glyph-name="fiveeighths" unicode="&#x215d;" horiz-adv-x="1755" 
d="M336 561q-104 0 -176.5 60t-75.5 151l63 14q5 -69 58.5 -115t136.5 -46q89 0 163 60.5t91 148.5q17 91 -31 153t-137 62q-117 0 -186 -66l-56 18l123 433h418l-10 -62h-361l-92 -319q62 53 174 53q118 0 183.5 -80.5t40.5 -202.5q-22 -111 -115.5 -186.5t-210.5 -75.5z
M1485 1434h82l-1231 -1434h-82zM1346 -12q-112 0 -182.5 62.5t-67.5 156.5q1 90 67 164t160 94q-53 17 -83 63.5t-28 102.5q3 101 82.5 171t192.5 70q98 0 159 -54.5t58 -137.5q-2 -74 -52.5 -135t-131.5 -84q64 -17 102.5 -70.5t36.5 -124.5q-3 -115 -95.5 -196.5
t-217.5 -81.5zM1425 492q89 0 153 54.5t64 133.5q0 59 -45.5 97t-115.5 38q-87 0 -147 -57.5t-60 -132.5q-2 -60 39.5 -96.5t111.5 -36.5zM1350 49q102 0 174.5 66.5t72.5 156.5q0 72 -48.5 116t-131.5 44q-104 0 -181 -66t-77 -157q0 -70 53 -115t138 -45z" />
    <glyph glyph-name="seveneighths" unicode="&#x215e;" horiz-adv-x="1626" 
d="M1356 1434h82l-1231 -1434h-82zM199 1434h553l-9 -52l-540 -809h-76l537 797h-476zM1219 -12q-112 0 -182.5 62.5t-67.5 156.5q1 90 67 164t160 94q-53 17 -83 63.5t-28 102.5q1 101 81.5 171t193.5 70q98 0 159 -54.5t58 -137.5q-2 -74 -53 -135t-133 -84
q66 -17 104.5 -70.5t36.5 -124.5q-3 -115 -95.5 -196.5t-217.5 -81.5zM1298 492q89 0 153.5 54.5t64.5 133.5q0 59 -46 97t-116 38q-87 0 -147 -57t-62 -133q0 -60 41.5 -96.5t111.5 -36.5zM1221 49q102 0 175.5 66.5t73.5 156.5q0 72 -48.5 116t-131.5 44
q-105 0 -181.5 -65.5t-76.5 -157.5q-2 -69 51.5 -114.5t137.5 -45.5z" />
    <glyph glyph-name="arrowleft" unicode="&#x2190;" horiz-adv-x="1492" 
d="M1411 684v-82h-1128l467 -459l-60 -59l-559 559l559 561l60 -59l-467 -461h1128z" />
    <glyph glyph-name="arrowup" unicode="&#x2191;" horiz-adv-x="1325" 
d="M1274 758l-60 -60l-458 467v-1128h-80v1130l-463 -469l-59 60l561 559z" />
    <glyph glyph-name="arrowright" unicode="&#x2192;" horiz-adv-x="1492" 
d="M860 1204l559 -561l-559 -559l-59 59l467 459h-1129v82h1129l-467 461z" />
    <glyph glyph-name="arrowdown" unicode="&#x2193;" horiz-adv-x="1325" 
d="M1165 561l60 -59l-561 -559l-560 559l60 59l461 -469v1131h80v-1129z" />
    <glyph glyph-name="uni2196" unicode="&#x2196;" horiz-adv-x="1308" 
d="M1143 172l-58 -55l-796 796l4 -655h-84v791l792 2v-84l-655 4z" />
    <glyph glyph-name="uni2197" unicode="&#x2197;" horiz-adv-x="1150" 
d="M211 1049l793 -2v-791h-84l4 655l-797 -796l-57 55l796 799l-655 -4v84z" />
    <glyph glyph-name="uni2198" unicode="&#x2198;" horiz-adv-x="1308" 
d="M1020 766h86l-2 -791l-791 -2v84l656 -4l-797 799l55 55l799 -796z" />
    <glyph glyph-name="uni2199" unicode="&#x2199;" horiz-adv-x="1153" 
d="M1087 852l-796 -799l655 4v-84l-790 2v791h84l-7 -655l799 796z" />
    <glyph glyph-name="partialdiff" unicode="&#x2202;" horiz-adv-x="1077" 
d="M940 805q84 -197 49 -379q-39 -205 -175 -325.5t-337 -120.5q-140 0 -244.5 66t-151 181.5t-20.5 253.5q35 192 169 310t309 118q202 0 305 -106l-283 631h105zM901 426q34 182 -61 292.5t-303 110.5q-139 0 -249.5 -97t-140.5 -253q-35 -180 62 -296.5t278 -116.5
q157 0 271 99t143 261z" />
    <glyph glyph-name="emptyset" unicode="&#x2205;" horiz-adv-x="1536" 
d="M1374 1260l-213 -213q121 -143 121 -334q0 -139 -68 -256.5t-185 -185.5t-255 -68q-190 0 -336 123l-215 -215l-61 61l215 215q-119 145 -119 326q0 140 69 258.5t188 187t259 68.5q184 0 326 -119l213 213zM340 713q0 -147 96 -267l606 605q-118 94 -268 94
q-180 0 -307 -126t-127 -306zM1200 713q0 152 -96 276l-606 -604q117 -100 276 -100q177 0 301.5 125t124.5 303z" />
    <glyph glyph-name="uni2206" unicode="&#x2206;" horiz-adv-x="1236" 
d="M-63 0l14 86l803 1350h92l278 -1350l-16 -86h-1171zM51 86h979l-248 1235z" />
    <glyph glyph-name="product" unicode="&#x220f;" horiz-adv-x="1280" 
d="M1360 1434l-279 -1434h-92l262 1348h-891l-262 -1348h-92l279 1434h1075z" />
    <glyph glyph-name="summation" unicode="&#x2211;" horiz-adv-x="1187" 
d="M1268 1434l-17 -86h-878l338 -631l-580 -631h875l-17 -86h-983l14 84l582 633l-332 633l15 84h983z" />
    <glyph glyph-name="minus" unicode="&#x2212;" horiz-adv-x="1163" 
d="M1036 678l-14 -82h-840l15 82h839z" />
    <glyph glyph-name="radical" unicode="&#x221a;" horiz-adv-x="1351" 
d="M1343 1434h91l-768 -1434h-111l-115 905h-258l17 86h327l103 -897z" />
    <glyph glyph-name="infinity" unicode="&#x221e;" horiz-adv-x="1986" 
d="M1513 1126q190 0 285 -134.5t55 -334.5q-37 -196 -179 -326t-326 -130q-142 0 -242 93t-109 216q-56 -125 -188 -217t-270 -92q-126 0 -213.5 62t-120.5 169t-8 238q39 197 179.5 326.5t325.5 129.5q142 0 243 -92.5t110 -216.5q54 125 185.5 217t272.5 92zM987 670
q23 161 -59 266.5t-223 105.5q-155 0 -274 -109t-152 -276q-31 -164 41.5 -268t222.5 -104q147 0 275 109t169 276zM1772 670q32 162 -41 267t-222 105q-146 0 -273 -109.5t-171 -275.5q-23 -162 59 -267t224 -105q154 0 273.5 109t150.5 276z" />
    <glyph glyph-name="integral" unicode="&#x222b;" horiz-adv-x="718" 
d="M791 1460q41 0 71 -10l-14 -78q-24 6 -49 6q-109 0 -192.5 -70t-106.5 -192l-213 -1098l-21 -100q-30 -159 -133.5 -247.5t-245.5 -88.5q-38 0 -71 10l14 78q24 -6 51 -6q108 0 191 70t106 192l213 1098h2l21 100q30 159 133.5 247.5t243.5 88.5z" />
    <glyph glyph-name="approxequal" unicode="&#x2248;" horiz-adv-x="1142" 
d="M266 627l-76 16q30 103 98 165t144 62q48 0 103.5 -24t97 -53.5t89.5 -53.5t83 -24q54 0 99.5 41.5t72.5 122.5l78 -17q-33 -103 -100.5 -165t-143.5 -62q-45 0 -98.5 24.5t-94.5 53.5t-91 53.5t-87 24.5q-119 0 -174 -164zM197 279l-74 16q30 103 97.5 165t144.5 62
q48 0 103.5 -24t96.5 -53.5t89 -53.5t83 -24q54 0 98.5 41t71.5 122l78 -16q-32 -103 -99.5 -165t-144.5 -62q-45 0 -98 24t-94 53.5t-90.5 53.5t-87.5 24q-56 0 -101.5 -41t-72.5 -122z" />
    <glyph glyph-name="notequal" unicode="&#x2260;" horiz-adv-x="1163" 
d="M1053 758h-301l-177 -252h429l-17 -82h-469l-143 -207h-90l143 207h-278l14 82h321l174 252h-446l16 82h488l117 168h92l-117 -168h260z" />
    <glyph glyph-name="lessequal" unicode="&#x2264;" horiz-adv-x="1173" 
d="M1145 1190l-19 -96l-804 -340l673 -338l-16 -88l-772 393l12 76zM66 0l16 82h848l-17 -82h-847z" />
    <glyph glyph-name="greaterequal" unicode="&#x2265;" horiz-adv-x="1173" 
d="M131 328l19 96l804 340l-671 338l14 88l774 -393l-14 -76zM66 0l16 82h848l-15 -82h-849z" />
    <glyph glyph-name="lozenge" unicode="&#x25ca;" horiz-adv-x="1052" 
d="M987 717h4l-520 -717h-80l-239 717h-5l521 717h77zM897 717h4l-209 624l-452 -624h-2l204 -625z" />
    <glyph glyph-name="circle" unicode="&#x25cb;" horiz-adv-x="1701" 
d="M850 -20q-198 0 -367.5 99t-268.5 268.5t-99 369.5t99 369.5t268.5 268.5t367.5 99q201 0 371 -99t269 -268.5t99 -369.5t-99 -369.5t-269 -268.5t-371 -99zM852 37q137 0 262.5 54t216 145t144 217t53.5 264t-53.5 264t-144 217t-216 145t-262.5 54t-262.5 -54
t-216.5 -145t-145 -217t-54 -264t54 -264t145 -217t216.5 -145t262.5 -54z" />
    <glyph glyph-name="uni25CF" unicode="&#x25cf;" horiz-adv-x="1701" 
d="M852 -20q-200 0 -369.5 99t-268.5 268.5t-99 369.5t99 369.5t268.5 268.5t369.5 99t369.5 -99t268.5 -268.5t99 -369.5t-99 -369.5t-268.5 -268.5t-369.5 -99z" />
    <glyph glyph-name="P_sq" horiz-adv-x="1294" 
d="M1292 1434l-153 -785h-834l-127 -649h-90l279 1434h925zM322 735h743l119 613h-744z" />
    <glyph glyph-name="P_sq_sinf" horiz-adv-x="772" 
d="M739 860l-94 -481h-491l-74 -379h-72l168 860h563zM168 446h420l67 349h-419z" />
    <glyph glyph-name="Iacute_J.loclNLD" horiz-adv-x="1048" 
d="M709 1833l-246 -274h-92l217 274h121zM1315 1833l-246 -274h-92l217 274h121zM367 1434h90l-279 -1434h-90zM418 66h31q126 0 204.5 83t112.5 254l199 1031h92l-203 -1045q-40 -203 -142.5 -306t-262.5 -103q-34 0 -48 2z" />
    <glyph glyph-name="O.ss10" horiz-adv-x="1589" 
d="M1587 1434l-278 -1434h-1221l279 1434h1220zM1233 86l246 1262h-1039l-245 -1262h1038z" />
    <glyph glyph-name="Oacute.ss10" horiz-adv-x="1589" 
d="M1274 1833l-246 -274h-92l217 274h121zM1587 1434l-278 -1434h-1221l279 1434h1220zM1233 86l246 1262h-1039l-245 -1262h1038z" />
    <glyph glyph-name="Obreve.ss10" horiz-adv-x="1589" 
d="M1006 1554q-120 0 -186.5 86.5t-43.5 212.5h72q-20 -99 29.5 -165t140.5 -66q92 0 162 64t90 167h73q-28 -138 -118 -218.5t-219 -80.5zM1587 1434l-278 -1434h-1221l279 1434h1220zM1233 86l246 1262h-1039l-245 -1262h1038z" />
    <glyph glyph-name="Ocircumflex.ss10" horiz-adv-x="1589" 
d="M1034 1788l-188 -211h-86l231 274h103l127 -274h-78zM1587 1434l-278 -1434h-1221l279 1434h1220zM1233 86l246 1262h-1039l-245 -1262h1038z" />
    <glyph glyph-name="Odieresis.ss10" horiz-adv-x="1589" 
d="M864 1593q-32 0 -55 23t-23 57q0 30 23 53t55 23q31 0 55.5 -23.5t24.5 -52.5q0 -33 -24.5 -56.5t-55.5 -23.5zM1135 1593q-32 0 -55 23t-23 57q0 30 23 53t55 23q31 0 55 -23.5t24 -52.5q0 -33 -24 -56.5t-55 -23.5zM1587 1434l-278 -1434h-1221l279 1434h1220zM1233 86
l246 1262h-1039l-245 -1262h1038z" />
    <glyph glyph-name="Ograve.ss10" horiz-adv-x="1589" 
d="M1065 1559h-92l-246 274h121zM1587 1434l-278 -1434h-1221l279 1434h1220zM1233 86l246 1262h-1039l-245 -1262h1038z" />
    <glyph glyph-name="Ohungarumlaut.ss10" horiz-adv-x="1589" 
d="M1100 1851l-203 -292h-94l207 292h90zM1163 1559h-92l203 292h92zM1587 1434l-278 -1434h-1221l279 1434h1220zM1233 86l246 1262h-1039l-245 -1262h1038z" />
    <glyph glyph-name="Omacron.ss10" horiz-adv-x="1589" 
d="M1350 1669l-15 -76h-655l14 76h656zM1587 1434l-278 -1434h-1221l279 1434h1220zM1233 86l246 1262h-1039l-245 -1262h1038z" />
    <glyph glyph-name="uni01EA.ss10" horiz-adv-x="1589" 
d="M1587 1434l-278 -1434h-430q-101 -33 -168 -94t-82 -137q-9 -46 14.5 -75.5t75.5 -29.5q72 0 129 31l22 -64q-76 -39 -163 -39q-86 0 -129 50.5t-29 128.5q27 134 188 229h-649l279 1434h1220zM1233 86l246 1262h-1039l-245 -1262h1038z" />
    <glyph glyph-name="S.ss12" horiz-adv-x="1120" 
d="M690 1434h420l-16 -86h-422q-150 0 -253.5 -68.5t-125.5 -181.5q-12 -60 2 -108.5t39 -78t79.5 -58t94 -42t112.5 -36.5q41 -13 62 -19.5t59.5 -20t59 -24t52 -27t48.5 -33t38.5 -38t31 -46t18 -54t7.5 -65t-9 -75.5q-33 -174 -172 -273.5t-358 -99.5h-461l16 86h457
q174 0 289 79.5t141 217.5q13 69 -5 120.5t-60 83.5t-99.5 56.5t-123 44t-130.5 40t-122 51t-97.5 71.5t-56.5 106t0 150q29 149 161 238.5t324 89.5z" />
    <glyph glyph-name="Sacute.ss12" horiz-adv-x="1120" 
d="M1053 1833l-246 -274h-92l217 274h121zM690 1434h420l-16 -86h-422q-150 0 -253.5 -68.5t-125.5 -181.5q-12 -60 2 -108.5t39 -78t79.5 -58t94 -42t112.5 -36.5q41 -13 62 -19.5t59.5 -20t59 -24t52 -27t48.5 -33t38.5 -38t31 -46t18 -54t7.5 -65t-9 -75.5
q-33 -174 -172 -273.5t-358 -99.5h-461l16 86h457q174 0 289 79.5t141 217.5q13 69 -5 120.5t-60 83.5t-99.5 56.5t-123 44t-130.5 40t-122 51t-97.5 71.5t-56.5 106t0 150q29 149 161 238.5t324 89.5z" />
    <glyph glyph-name="Scaron.ss12" horiz-adv-x="1120" 
d="M729 1559l-127 274h80l106 -211l189 211h88l-231 -274h-105zM672 1348q-150 0 -253.5 -68.5t-125.5 -181.5q-12 -60 2 -108.5t39 -78t79.5 -58t94 -42t112.5 -36.5q41 -13 62 -19.5t59.5 -20t59 -24t52 -27t48.5 -33t38.5 -38t31 -46t18 -54t7.5 -65t-9 -75.5
q-33 -174 -172 -273.5t-358 -99.5h-461l16 86h457q174 0 289 79.5t141 217.5q13 69 -5 120.5t-60 83.5t-99.5 56.5t-123 44t-130.5 40t-122 51t-97.5 71.5t-56.5 106t0 150q29 149 161 238.5t324 89.5h420l-16 -86h-422z" />
    <glyph glyph-name="Scedilla.ss12" horiz-adv-x="1120" 
d="M672 1348q-150 0 -253.5 -68.5t-125.5 -181.5q-12 -60 2 -108.5t39 -78t79.5 -58t94 -42t112.5 -36.5q41 -13 62 -19.5t59.5 -20t59 -24t52 -27t48.5 -33t38.5 -38t31 -46t18 -54t7.5 -65t-9 -75.5q-31 -169 -164 -268t-342 -105q67 -76 79 -155.5t-22.5 -139t-105.5 -98
t-160 -39.5l-20 67q113 13 176.5 66t62 132.5t-72.5 166.5h-422l16 86h457q174 0 289 79.5t141 217.5q13 69 -5 120.5t-60 83.5t-99.5 56.5t-123 44t-130.5 40t-122 51t-97.5 71.5t-56.5 106t0 150q29 149 161 238.5t324 89.5h420l-16 -86h-422z" />
    <glyph glyph-name="Scircumflex.ss12" horiz-adv-x="1120" 
d="M813 1788l-188 -211h-86l231 274h102l127 -274h-77zM672 1348q-150 0 -253.5 -68.5t-125.5 -181.5q-12 -60 2 -108.5t39 -78t79.5 -58t94 -42t112.5 -36.5q41 -13 62 -19.5t59.5 -20t59 -24t52 -27t48.5 -33t38.5 -38t31 -46t18 -54t7.5 -65t-9 -75.5
q-33 -174 -172 -273.5t-358 -99.5h-461l16 86h457q174 0 289 79.5t141 217.5q13 69 -5 120.5t-60 83.5t-99.5 56.5t-123 44t-130.5 40t-122 51t-97.5 71.5t-56.5 106t0 150q29 149 161 238.5t324 89.5h420l-16 -86h-422z" />
    <glyph glyph-name="uni0218.ss12" horiz-adv-x="1120" 
d="M690 1434h420l-16 -86h-422q-150 0 -253.5 -68.5t-125.5 -181.5q-12 -60 2 -108.5t39 -78t79.5 -58t94 -42t112.5 -36.5q41 -13 62 -19.5t59.5 -20t59 -24t52 -27t48.5 -33t38.5 -38t31 -46t18 -54t7.5 -65t-9 -75.5q-33 -174 -172 -273.5t-358 -99.5h-461l16 86h457
q174 0 289 79.5t141 217.5q13 69 -5 120.5t-60 83.5t-99.5 56.5t-123 44t-130.5 40t-122 51t-97.5 71.5t-56.5 106t0 150q29 149 161 238.5t324 89.5zM502 -158l-246 -276h-92l217 276h121z" />
    <glyph glyph-name="D.ss16" horiz-adv-x="1472" 
d="M815 1434q124 0 234.5 -47t188.5 -127t123.5 -189.5t45.5 -230.5q0 -235 -106.5 -427.5t-294.5 -302.5t-418 -110h-621l17 86h168l262 1348h401zM596 86q200 0 365 99.5t259.5 272.5t94.5 382q0 138 -66 254.5t-182.5 185t-257.5 68.5h-320l-245 -1262h352z" />
    <glyph glyph-name="Eth.ss16" horiz-adv-x="1472" 
d="M815 1434q124 0 234.5 -47t188.5 -127t123.5 -189.5t45.5 -230.5q0 -235 -106.5 -427.5t-294.5 -302.5t-418 -110h-621l17 86h168l116 596h-166l13 70h166l133 682h401zM596 86q200 0 365 99.5t259.5 272.5t94.5 382q0 138 -66 254.5t-182.5 185t-257.5 68.5h-320
l-116 -596h327l-12 -70h-328l-116 -596h352z" />
    <glyph glyph-name="Dcaron.ss16" horiz-adv-x="1472" 
d="M850 1559l-127 274h80l106 -211l189 211h88l-232 -274h-104zM815 1434q124 0 234.5 -47t188.5 -127t123.5 -189.5t45.5 -230.5q0 -235 -106.5 -427.5t-294.5 -302.5t-418 -110h-621l17 86h168l262 1348h401zM596 86q200 0 365 99.5t259.5 272.5t94.5 382q0 138 -66 254.5
t-182.5 185t-257.5 68.5h-320l-245 -1262h352z" />
    <glyph glyph-name="Dcroat.ss16" horiz-adv-x="1472" 
d="M815 1434q124 0 234.5 -47t188.5 -127t123.5 -189.5t45.5 -230.5q0 -235 -106.5 -427.5t-294.5 -302.5t-418 -110h-621l17 86h168l116 596h-166l13 70h166l133 682h401zM596 86q200 0 365 99.5t259.5 272.5t94.5 382q0 138 -66 254.5t-182.5 185t-257.5 68.5h-320
l-116 -596h327l-12 -70h-328l-116 -596h352z" />
    <glyph glyph-name="J.ss17" horiz-adv-x="753" 
d="M752 1434l-279 -1434h-524l16 86h432l262 1348h93z" />
    <glyph glyph-name="Jcircumflex.ss17" horiz-adv-x="753" 
d="M950 1577h-78l-108 211l-189 -211h-86l232 274h102zM397 86l262 1348h93l-279 -1434h-524l16 86h432z" />
    <glyph glyph-name="L.ss18" horiz-adv-x="1175" 
d="M1065 86l-16 -86h-1016l16 86h170l262 1348h90l-262 -1348h756z" />
    <glyph glyph-name="Lacute.ss18" horiz-adv-x="1175" 
d="M823 1833l-245 -274h-93l217 274h121zM1065 86l-16 -86h-1016l16 86h170l262 1348h90l-262 -1348h756z" />
    <glyph glyph-name="Lcaron.ss18" horiz-adv-x="1175" 
d="M1085 1528l-147 -412h-74l125 412h96zM309 86h756l-16 -86h-1016l16 86h170l262 1348h90z" />
    <glyph glyph-name="uni013B.ss18" horiz-adv-x="1175" 
d="M1065 86l-16 -86h-1016l16 86h170l262 1348h90l-262 -1348h756zM328 -434l217 276h121l-246 -276h-92z" />
    <glyph glyph-name="Ldot.ss18" horiz-adv-x="1175" 
d="M1065 86l-16 -86h-1016l16 86h170l262 1348h90l-262 -1348h756zM850 655q-38 0 -64 26t-26 64q0 39 26 66t64 27q39 0 65.5 -27t26.5 -66q0 -38 -26 -64t-66 -26z" />
    <glyph glyph-name="Lslash.ss18" horiz-adv-x="1175" 
d="M1065 86l-16 -86h-1016l16 86h170l103 522l-185 -80l15 84l186 80l143 742h90l-137 -701l473 201l-14 -80l-473 -205l-111 -563h756z" />
    <glyph glyph-name="M.swsh" horiz-adv-x="2084" 
d="M43 0h-98l762 1434h90l168 -1307l684 1307h88l207 -1434h-95l-180 1309l-684 -1309h-90l-166 1309z" />
    <glyph glyph-name="G.titl" horiz-adv-x="1689" 
d="M1696 725l-17 -86h-153q-56 -300 -254 -479.5t-486 -179.5q-132 0 -247.5 46.5t-200 129.5t-133.5 206t-49 269q0 170 64 322.5t174 262.5t264 174t327 64q203 0 353.5 -96.5t193.5 -249.5l-92 -16q-38 123 -165.5 199.5t-293.5 76.5q-154 0 -290 -57t-232.5 -155
t-152.5 -233t-56 -286q0 -131 41.5 -239t114 -180.5t171 -112t211.5 -39.5q255 0 426 156.5t216 416.5h-523l17 86h772z" />
    <glyph glyph-name="Gbreve.titl" horiz-adv-x="1689" 
d="M1014 1554q-120 0 -186.5 86.5t-43.5 212.5h72q-20 -99 29.5 -165t140.5 -66q92 0 162 64t90 167h74q-28 -138 -118.5 -218.5t-219.5 -80.5zM1696 725l-17 -86h-153q-56 -300 -254 -479.5t-486 -179.5q-132 0 -247.5 46.5t-200 129.5t-133.5 206t-49 269q0 170 64 322.5
t174 262.5t264 174t327 64q203 0 353.5 -96.5t193.5 -249.5l-92 -16q-38 123 -165.5 199.5t-293.5 76.5q-154 0 -290 -57t-232.5 -155t-152.5 -233t-56 -286q0 -131 41.5 -239t114 -180.5t171 -112t211.5 -39.5q255 0 426 156.5t216 416.5h-523l17 86h772z" />
    <glyph glyph-name="Gcircumflex.titl" horiz-adv-x="1689" 
d="M1042 1788l-188 -211h-86l231 274h103l127 -274h-78zM1696 725l-17 -86h-153q-56 -300 -254 -479.5t-486 -179.5q-132 0 -247.5 46.5t-200 129.5t-133.5 206t-49 269q0 170 64 322.5t174 262.5t264 174t327 64q203 0 353.5 -96.5t193.5 -249.5l-92 -16
q-38 123 -165.5 199.5t-293.5 76.5q-154 0 -290 -57t-232.5 -155t-152.5 -233t-56 -286q0 -131 41.5 -239t114 -180.5t171 -112t211.5 -39.5q255 0 426 156.5t216 416.5h-523l17 86h772z" />
    <glyph glyph-name="uni0122.titl" horiz-adv-x="1689" 
d="M1696 725l-17 -86h-153q-56 -300 -254 -479.5t-486 -179.5q-132 0 -247.5 46.5t-200 129.5t-133.5 206t-49 269q0 170 64 322.5t174 262.5t264 174t327 64q203 0 353.5 -96.5t193.5 -249.5l-92 -16q-38 123 -165.5 199.5t-293.5 76.5q-154 0 -290 -57t-232.5 -155
t-152.5 -233t-56 -286q0 -131 41.5 -239t114 -180.5t171 -112t211.5 -39.5q255 0 426 156.5t216 416.5h-523l17 86h772zM430 -434l217 276h121l-246 -276h-92z" />
    <glyph glyph-name="Gdotaccent.titl" horiz-adv-x="1689" 
d="M1028 1593q-32 0 -55 23t-23 57q0 30 23 53t55 23q31 0 55.5 -23.5t24.5 -52.5q0 -33 -24.5 -56.5t-55.5 -23.5zM1696 725l-17 -86h-153q-56 -300 -254 -479.5t-486 -179.5q-132 0 -247.5 46.5t-200 129.5t-133.5 206t-49 269q0 170 64 322.5t174 262.5t264 174t327 64
q203 0 353.5 -96.5t193.5 -249.5l-92 -16q-38 123 -165.5 199.5t-293.5 76.5q-154 0 -290 -57t-232.5 -155t-152.5 -233t-56 -286q0 -131 41.5 -239t114 -180.5t171 -112t211.5 -39.5q255 0 426 156.5t216 416.5h-523l17 86h772z" />
    <glyph glyph-name="I.titl" horiz-adv-x="684" 
d="M721 1350h-168l-246 -1264h166l-14 -86h-426l16 86h166l246 1264h-166l16 86h426z" />
    <glyph glyph-name="IJ.titl" horiz-adv-x="1439" 
d="M553 1350l-246 -1264h166l-14 -86h-426l16 86h166l246 1264h-166l16 86h426l-16 -86h-168zM1448 1434l-16 -86h-166l-187 -959q-40 -203 -143 -306t-264 -103q-31 0 -45 2l16 84h31q252 0 315 337l185 945h-168l16 86h426z" />
    <glyph glyph-name="Iacute.titl" horiz-adv-x="684" 
d="M821 1833l-246 -274h-92l217 274h121zM295 1350l16 86h426l-16 -86h-168l-246 -1264h166l-14 -86h-426l16 86h166l246 1264h-166z" />
    <glyph glyph-name="Ibreve.titl" horiz-adv-x="684" 
d="M817 1853h74q-28 -138 -118.5 -218.5t-219.5 -80.5q-120 0 -186 86.5t-43 212.5h71q-20 -99 29.5 -165t140.5 -66q92 0 162 64t90 167zM295 1350l16 86h426l-16 -86h-168l-246 -1264h166l-14 -86h-426l16 86h166l246 1264h-166z" />
    <glyph glyph-name="Icircumflex.titl" horiz-adv-x="684" 
d="M584 1788l-189 -211h-86l232 274h102l127 -274h-78zM295 1350l16 86h426l-16 -86h-168l-246 -1264h166l-14 -86h-426l16 86h166l246 1264h-166z" />
    <glyph glyph-name="Idieresis.titl" horiz-adv-x="684" 
d="M414 1593q-32 0 -55 23t-23 57q0 30 23 53t55 23q31 0 55.5 -23.5t24.5 -52.5q0 -33 -24.5 -56.5t-55.5 -23.5zM684 1749q31 0 55.5 -23.5t24.5 -52.5q0 -33 -24.5 -56.5t-55.5 -23.5q-32 0 -55 23t-23 57q0 30 23 53t55 23zM295 1350l16 86h426l-16 -86h-168l-246 -1264
h166l-14 -86h-426l16 86h166l246 1264h-166z" />
    <glyph glyph-name="Idotaccent.titl" horiz-adv-x="684" 
d="M567 1593q-32 0 -55 23t-23 57q0 30 23 53t55 23q31 0 55.5 -23.5t24.5 -52.5q0 -33 -24.5 -56.5t-55.5 -23.5zM721 1350h-168l-246 -1264h166l-14 -86h-426l16 86h166l246 1264h-166l16 86h426z" />
    <glyph glyph-name="Igrave.titl" horiz-adv-x="684" 
d="M612 1559h-92l-246 274h121zM721 1350h-168l-246 -1264h166l-14 -86h-426l16 86h166l246 1264h-166l16 86h426z" />
    <glyph glyph-name="Imacron.titl" horiz-adv-x="684" 
d="M242 1669h655l-14 -76h-656zM295 1350l16 86h426l-16 -86h-168l-246 -1264h166l-14 -86h-426l16 86h166l246 1264h-166z" />
    <glyph glyph-name="Iogonek.titl" horiz-adv-x="684" 
d="M721 1350h-168l-246 -1264h166l-14 -86h-35q-101 -33 -168 -94t-82 -137q-9 -46 14.5 -75.5t75.5 -29.5q72 0 129 31l23 -64q-76 -39 -164 -39q-86 0 -129 50.5t-29 128.5q27 133 189 229h-250l16 86h166l246 1264h-166l16 86h426z" />
    <glyph glyph-name="Itilde.titl" horiz-adv-x="684" 
d="M831 1786l76 -17q-23 -86 -79 -137t-123 -51q-39 0 -78 19.5t-65 43t-59 43t-61 19.5q-46 0 -83 -36t-46 -91l-73 16q21 86 76.5 137.5t121.5 51.5q39 0 79 -19t67 -42.5t58.5 -42.5t57.5 -19q48 0 85 35t46 90zM295 1350l16 86h426l-16 -86h-168l-246 -1264h166l-14 -86
h-426l16 86h166l246 1264h-166z" />
    <glyph glyph-name="J.titl" horiz-adv-x="755" 
d="M766 1434l-16 -86h-168l-187 -959q-40 -203 -142.5 -306t-262.5 -103q-33 0 -47 2l16 84h31q126 0 204.5 83t112.5 254l182 945h-165l16 86h426z" />
    <glyph glyph-name="Jcircumflex.titl" horiz-adv-x="755" 
d="M610 1788l-188 -211h-86l231 274h103l127 -274h-78zM766 1434l-16 -86h-168l-187 -959q-40 -203 -142.5 -306t-262.5 -103q-33 0 -47 2l16 84h31q126 0 204.5 83t112.5 254l182 945h-165l16 86h426z" />
    <glyph glyph-name="T.titl" horiz-adv-x="1208" 
d="M1307 1348h-492l-246 -1262h168l-16 -86h-426l16 86h168l246 1262h-492l17 86h1073z" />
    <glyph glyph-name="Tbar.titl" horiz-adv-x="1208" 
d="M1307 1348h-492l-117 -596h248l-14 -70h-246l-117 -596h168l-16 -86h-426l16 86h168l117 596h-250l14 70h248l117 596h-492l17 86h1073z" />
    <glyph glyph-name="Tcaron.titl" horiz-adv-x="1208" 
d="M760 1559l-127 274h80l106 -211l191 211h86l-232 -274h-104zM1307 1348h-492l-246 -1262h168l-16 -86h-426l16 86h168l246 1262h-492l17 86h1073z" />
    <glyph glyph-name="uni0162.titl" horiz-adv-x="1208" 
d="M1307 1348h-492l-246 -1262h168l-16 -86h-160q53 -61 72 -125.5t3 -117.5t-54 -96t-99.5 -67.5t-132.5 -25.5l-18 67q172 21 222 126t-58 239h-201l16 86h168l246 1262h-492l17 86h1073z" />
    <glyph glyph-name="uni021A.titl" horiz-adv-x="1208" 
d="M1307 1348h-492l-246 -1262h168l-16 -86h-426l16 86h168l246 1262h-492l17 86h1073zM244 -434l217 276h121l-246 -276h-92z" />
    <glyph glyph-name="Y.titl" horiz-adv-x="1216" 
d="M690 657l-112 -571h165l-14 -86h-426l16 86h166l115 573l-373 775h103l327 -684l590 684h113z" />
    <glyph glyph-name="Yacute.titl" horiz-adv-x="1216" 
d="M1071 1833l-246 -274h-92l217 274h121zM690 657l-112 -571h165l-14 -86h-426l16 86h166l115 573l-373 775h103l327 -684l590 684h113z" />
    <glyph glyph-name="Ycircumflex.titl" horiz-adv-x="1216" 
d="M629 1788l-189 -213h-86l232 276h102l127 -276h-78zM690 657l-112 -571h165l-14 -86h-426l16 86h166l115 573l-373 775h103l327 -684l590 684h113z" />
    <glyph glyph-name="Ydieresis.titl" horiz-adv-x="1216" 
d="M668 1593q-32 0 -55 23t-23 57q0 30 23 53t55 23q31 0 55.5 -23.5t24.5 -52.5q0 -33 -24.5 -56.5t-55.5 -23.5zM938 1593q-32 0 -55 23t-23 57q0 30 23 53t55 23q31 0 55.5 -23.5t24.5 -52.5q0 -33 -24.5 -56.5t-55.5 -23.5zM690 657l-112 -571h165l-14 -86h-426l16 86
h166l115 573l-373 775h103l327 -684l590 684h113z" />
    <glyph glyph-name="Ygrave.titl" horiz-adv-x="1216" 
d="M653 1559h-92l-246 274h121zM690 657l-112 -571h165l-14 -86h-426l16 86h166l115 573l-373 775h103l327 -684l590 684h113z" />
    <glyph glyph-name="i.loclTRK" horiz-adv-x="413" 
d="M369 1401q30 0 53.5 -23t23.5 -53q0 -33 -23.5 -55.5t-53.5 -22.5q-34 0 -57 22t-23 56q0 31 23.5 53.5t56.5 22.5zM258 991h90l-192 -991h-90z" />
    <glyph glyph-name="eth.alt" horiz-adv-x="1241" 
d="M907 1309l178 -414q66 -150 66 -313q0 -127 -46 -239t-125.5 -191.5t-191.5 -125.5t-239 -46q-195 0 -325 132t-130 318q0 161 76.5 294.5t209.5 209.5t294 76q98 0 182 -33.5t139 -91.5l-170 385l-272 -127l-14 59l262 123l-86 195h100l68 -156l295 137l16 -59zM553 66
q142 0 259.5 67.5t184 185t66.5 259.5q0 150 -109.5 250t-277.5 100q-209 0 -352.5 -142.5t-143.5 -351.5q0 -150 108 -259t265 -109z" />
    <glyph glyph-name="germandbls.calt" horiz-adv-x="1212" 
d="M799 1454q168 0 277 -98.5t104 -243.5l-447 -346q210 10 312 -92.5t67 -284.5q-31 -161 -169 -275t-300 -114h-309l16 86h301q129 0 237.5 92t133.5 221q26 141 -39.5 221t-212.5 80h-141l-2 68l458 360q-6 103 -85 172.5t-197 69.5q-156 0 -276.5 -101.5t-151.5 -254.5
l-197 -1014h-90l199 1020q37 190 180.5 312t331.5 122z" />
    <glyph glyph-name="iacute_j.loclNLD" horiz-adv-x="827" 
d="M602 1391l-246 -275h-92l217 275h121zM1014 1391l-246 -275h-92l217 275h121zM258 991h90l-192 -991h-90zM246 -338l20 -2q75 0 122 57.5t73 182.5l211 1091h90l-213 -1097q-32 -161 -103.5 -239.5t-185.5 -78.5h-31z" />
    <glyph glyph-name="a.ss01" horiz-adv-x="1048" 
d="M582 1012q185 0 285 -110t69 -275l-123 -627h-86l41 209q-68 -106 -172 -167.5t-227 -61.5q-145 0 -223 65t-78 176q0 96 46.5 168t130 113.5t186 61.5t226.5 20h185l8 45q27 136 -56.5 221.5t-228.5 85.5q-129 0 -221 -72t-119 -184h-88q33 144 154 238t291 94zM805 401
l22 111h-176q-240 0 -367.5 -71.5t-127.5 -209.5q0 -81 59 -127.5t172 -46.5q152 0 271 101t147 243z" />
    <glyph glyph-name="aacute.ss01" horiz-adv-x="1048" 
d="M913 1391l-245 -275h-93l218 275h120zM582 1012q185 0 285 -110t69 -275l-123 -627h-86l41 209q-68 -106 -172 -167.5t-227 -61.5q-145 0 -223 65t-78 176q0 96 46.5 168t130 113.5t186 61.5t226.5 20h185l8 45q27 136 -56.5 221.5t-228.5 85.5q-129 0 -221 -72
t-119 -184h-88q33 144 154 238t291 94zM805 401l22 111h-176q-240 0 -367.5 -71.5t-127.5 -209.5q0 -81 59 -127.5t172 -46.5q152 0 271 101t147 243z" />
    <glyph glyph-name="abreve.ss01" horiz-adv-x="1048" 
d="M645 1112q-120 0 -186 86.5t-43 212.5h71q-20 -99 29.5 -165t140.5 -66q92 0 162 64t90 167h74q-28 -138 -118.5 -218.5t-219.5 -80.5zM582 1012q185 0 285 -110t69 -275l-123 -627h-86l41 209q-68 -106 -172 -167.5t-227 -61.5q-145 0 -223 65t-78 176q0 96 46.5 168
t130 113.5t186 61.5t226.5 20h185l8 45q27 136 -56.5 221.5t-228.5 85.5q-129 0 -221 -72t-119 -184h-88q33 144 154 238t291 94zM805 401l22 111h-176q-240 0 -367.5 -71.5t-127.5 -209.5q0 -81 59 -127.5t172 -46.5q152 0 271 101t147 243z" />
    <glyph glyph-name="acircumflex.ss01" horiz-adv-x="1048" 
d="M674 1346l-189 -211h-86l232 274h102l127 -274h-78zM582 1012q185 0 285 -110t69 -275l-123 -627h-86l41 209q-68 -106 -172 -167.5t-227 -61.5q-145 0 -223 65t-78 176q0 96 46.5 168t130 113.5t186 61.5t226.5 20h185l8 45q27 136 -56.5 221.5t-228.5 85.5
q-129 0 -221 -72t-119 -184h-88q33 144 154 238t291 94zM805 401l22 111h-176q-240 0 -367.5 -71.5t-127.5 -209.5q0 -81 59 -127.5t172 -46.5q152 0 271 101t147 243z" />
    <glyph glyph-name="adieresis.ss01" horiz-adv-x="1048" 
d="M547 1247q-34 0 -57 22t-23 56q0 31 23.5 53.5t56.5 22.5q30 0 54 -23t24 -53q0 -33 -24 -55.5t-54 -22.5zM815 1247q-33 0 -55.5 22.5t-22.5 55.5q0 31 23 53.5t55 22.5q31 0 55.5 -23t24.5 -53q0 -33 -24 -55.5t-56 -22.5zM582 1012q185 0 285 -110t69 -275l-123 -627
h-86l41 209q-68 -106 -172 -167.5t-227 -61.5q-145 0 -223 65t-78 176q0 96 46.5 168t130 113.5t186 61.5t226.5 20h185l8 45q27 136 -56.5 221.5t-228.5 85.5q-129 0 -221 -72t-119 -184h-88q33 144 154 238t291 94zM805 401l22 111h-176q-240 0 -367.5 -71.5
t-127.5 -209.5q0 -81 59 -127.5t172 -46.5q152 0 271 101t147 243z" />
    <glyph glyph-name="agrave.ss01" horiz-adv-x="1048" 
d="M705 1116h-93l-245 275h120zM582 1012q185 0 285 -110t69 -275l-123 -627h-86l41 209q-68 -106 -172 -167.5t-227 -61.5q-145 0 -223 65t-78 176q0 96 46.5 168t130 113.5t186 61.5t226.5 20h185l8 45q27 136 -56.5 221.5t-228.5 85.5q-129 0 -221 -72t-119 -184h-88
q33 144 154 238t291 94zM805 401l22 111h-176q-240 0 -367.5 -71.5t-127.5 -209.5q0 -81 59 -127.5t172 -46.5q152 0 271 101t147 243z" />
    <glyph glyph-name="amacron.ss01" horiz-adv-x="1048" 
d="M334 1227h655l-14 -76h-656zM582 1012q185 0 285 -110t69 -275l-123 -627h-86l41 209q-68 -106 -172 -167.5t-227 -61.5q-145 0 -223 65t-78 176q0 96 46.5 168t130 113.5t186 61.5t226.5 20h185l8 45q27 136 -56.5 221.5t-228.5 85.5q-129 0 -221 -72t-119 -184h-88
q33 144 154 238t291 94zM805 401l22 111h-176q-240 0 -367.5 -71.5t-127.5 -209.5q0 -81 59 -127.5t172 -46.5q152 0 271 101t147 243z" />
    <glyph glyph-name="aogonek.ss01" horiz-adv-x="1048" 
d="M582 1012q185 0 285 -110t69 -275l-117 -596l-2 -31q-101 -33 -168 -94t-82 -137q-9 -46 14.5 -75.5t75.5 -29.5q72 0 129 31l23 -64q-76 -39 -164 -39q-86 0 -129 50.5t-29 128.5q17 79 81 145.5t165 114.5l35 178q-68 -106 -172 -167.5t-227 -61.5q-145 0 -223 65
t-78 176q0 96 46.5 168t130 113.5t186 61.5t226.5 20h185l8 45q27 136 -56.5 221.5t-228.5 85.5q-129 0 -221 -72t-119 -184h-88q33 144 154 238t291 94zM805 401l22 111h-176q-240 0 -367.5 -71.5t-127.5 -209.5q0 -81 59 -127.5t172 -46.5q152 0 271 101t147 243z" />
    <glyph glyph-name="aring.ss01" horiz-adv-x="1048" 
d="M657 1114q-98 0 -158 60.5t-55 154.5q4 94 71 154.5t165 60.5q97 0 157 -60.5t56 -154.5q-4 -93 -71.5 -154t-164.5 -61zM510 1329q-3 -65 39.5 -108t109.5 -43q69 0 116 43t50 108t-39 108.5t-110 43.5q-67 0 -115 -43.5t-51 -108.5zM582 1012q185 0 285 -110t69 -275
l-123 -627h-86l41 209q-68 -106 -172 -167.5t-227 -61.5q-145 0 -223 65t-78 176q0 96 46.5 168t130 113.5t186 61.5t226.5 20h185l8 45q27 136 -56.5 221.5t-228.5 85.5q-129 0 -221 -72t-119 -184h-88q33 144 154 238t291 94zM805 401l22 111h-176q-240 0 -367.5 -71.5
t-127.5 -209.5q0 -81 59 -127.5t172 -46.5q152 0 271 101t147 243z" />
    <glyph glyph-name="atilde.ss01" horiz-adv-x="1048" 
d="M535 1264q-46 0 -83 -36t-46 -91l-74 16q21 86 76.5 137t121.5 51q39 0 79 -19t67 -42t59 -42t58 -19q48 0 85 34.5t46 89.5l75 -16q-23 -86 -79 -137t-123 -51q-39 0 -78 19.5t-65 43t-58.5 43t-60.5 19.5zM582 1012q185 0 285 -110t69 -275l-123 -627h-86l41 209
q-68 -106 -172 -167.5t-227 -61.5q-145 0 -223 65t-78 176q0 96 46.5 168t130 113.5t186 61.5t226.5 20h185l8 45q27 136 -56.5 221.5t-228.5 85.5q-129 0 -221 -72t-119 -184h-88q33 144 154 238t291 94zM805 401l22 111h-176q-240 0 -367.5 -71.5t-127.5 -209.5
q0 -81 59 -127.5t172 -46.5q152 0 271 101t147 243z" />
    <glyph glyph-name="ae.ss01" horiz-adv-x="1896" 
d="M1808 504h-886q-4 -40 -4 -60q0 -164 108.5 -273.5t271.5 -109.5q130 0 237 63.5t144 178.5h95q-44 -149 -181.5 -236t-304.5 -87q-146 0 -260 78t-164 208l-51 -266h-86l41 209q-68 -106 -172 -167.5t-227 -61.5q-145 0 -223 65t-78 176q0 96 46.5 168t130 113.5
t186 61.5t226.5 20h185l8 45q27 136 -56.5 221.5t-228.5 85.5q-129 0 -221 -72t-119 -184h-88q33 144 154 238t291 94q140 0 234.5 -66.5t119.5 -175.5q78 112 199 177t260 65q187 0 305.5 -117.5t118.5 -304.5q0 -6 -11 -86zM1393 932q-162 0 -288 -99t-169 -253h793
q-1 165 -91.5 258.5t-244.5 93.5zM805 401l22 111h-176q-240 0 -367.5 -71.5t-127.5 -209.5q0 -81 59 -127.5t172 -46.5q152 0 271 101t147 243z" />
    <glyph glyph-name="aeacute.ss01" horiz-adv-x="1896" 
d="M1341 1391l-245 -275h-92l217 275h120zM1808 504h-886q-4 -40 -4 -60q0 -164 108.5 -273.5t271.5 -109.5q130 0 237 63.5t144 178.5h95q-44 -149 -181.5 -236t-304.5 -87q-146 0 -260 78t-164 208l-51 -266h-86l41 209q-68 -106 -172 -167.5t-227 -61.5q-145 0 -223 65
t-78 176q0 96 46.5 168t130 113.5t186 61.5t226.5 20h185l8 45q27 136 -56.5 221.5t-228.5 85.5q-129 0 -221 -72t-119 -184h-88q33 144 154 238t291 94q140 0 234.5 -66.5t119.5 -175.5q78 112 199 177t260 65q187 0 305.5 -117.5t118.5 -304.5q0 -6 -11 -86zM1393 932
q-162 0 -288 -99t-169 -253h793q-1 165 -91.5 258.5t-244.5 93.5zM805 401l22 111h-176q-240 0 -367.5 -71.5t-127.5 -209.5q0 -81 59 -127.5t172 -46.5q152 0 271 101t147 243z" />
    <glyph glyph-name="a.ss02" horiz-adv-x="1075" 
d="M270 991h740l-193 -991h-90l35 174q-80 -96 -187.5 -145t-214.5 -49q-167 0 -247 82.5t-52 222.5q28 144 175.5 219.5t396.5 75.5h207l65 333h-649zM780 272l45 234h-182q-222 0 -350 -58t-150 -174q-22 -102 38.5 -160.5t191.5 -58.5q106 0 214.5 56t192.5 161z" />
    <glyph glyph-name="aacute.ss02" horiz-adv-x="1075" 
d="M936 1391l-248 -275h-90l217 275h121zM270 991h740l-193 -991h-90l35 174q-80 -96 -187.5 -145t-214.5 -49q-167 0 -247 82.5t-52 222.5q28 144 175.5 219.5t396.5 75.5h207l65 333h-649zM780 272l45 234h-182q-222 0 -350 -58t-150 -174q-22 -102 38.5 -160.5
t191.5 -58.5q106 0 214.5 56t192.5 161z" />
    <glyph glyph-name="abreve.ss02" horiz-adv-x="1075" 
d="M668 1112q-120 0 -187 86.5t-45 212.5h72q-20 -99 30 -165t142 -66q91 0 160.5 64t89.5 167h76q-29 -139 -119.5 -219t-218.5 -80zM270 991h740l-193 -991h-90l35 174q-80 -96 -187.5 -145t-214.5 -49q-167 0 -247 82.5t-52 222.5q28 144 175.5 219.5t396.5 75.5h207
l65 333h-649zM780 272l45 234h-182q-222 0 -350 -58t-150 -174q-22 -102 38.5 -160.5t191.5 -58.5q106 0 214.5 56t192.5 161z" />
    <glyph glyph-name="acircumflex.ss02" horiz-adv-x="1075" 
d="M696 1346l-188 -211h-86l231 274h103l127 -274h-78zM270 991h740l-193 -991h-90l35 174q-80 -96 -187.5 -145t-214.5 -49q-167 0 -247 82.5t-52 222.5q28 144 175.5 219.5t396.5 75.5h207l65 333h-649zM780 272l45 234h-182q-222 0 -350 -58t-150 -174
q-22 -102 38.5 -160.5t191.5 -58.5q106 0 214.5 56t192.5 161z" />
    <glyph glyph-name="adieresis.ss02" horiz-adv-x="1075" 
d="M569 1247q-33 0 -56.5 22.5t-23.5 55.5q0 31 24 53.5t56 22.5q30 0 54 -23t24 -53q0 -33 -24 -55.5t-54 -22.5zM838 1247q-33 0 -55.5 22.5t-22.5 55.5q0 31 23 53.5t55 22.5q31 0 55.5 -23t24.5 -53q0 -33 -24 -55.5t-56 -22.5zM270 991h740l-193 -991h-90l35 174
q-80 -96 -187.5 -145t-214.5 -49q-167 0 -247 82.5t-52 222.5q28 144 175.5 219.5t396.5 75.5h207l65 333h-649zM780 272l45 234h-182q-222 0 -350 -58t-150 -174q-22 -102 38.5 -160.5t191.5 -58.5q106 0 214.5 56t192.5 161z" />
    <glyph glyph-name="agrave.ss02" horiz-adv-x="1075" 
d="M727 1116h-92l-248 275h123zM270 991h740l-193 -991h-90l35 174q-80 -96 -187.5 -145t-214.5 -49q-167 0 -247 82.5t-52 222.5q28 144 175.5 219.5t396.5 75.5h207l65 333h-649zM780 272l45 234h-182q-222 0 -350 -58t-150 -174q-22 -102 38.5 -160.5t191.5 -58.5
q106 0 214.5 56t192.5 161z" />
    <glyph glyph-name="amacron.ss02" horiz-adv-x="1075" 
d="M1012 1227l-15 -76h-655l14 76h656zM256 913l14 78h740l-193 -991h-90l35 174q-80 -96 -187.5 -145t-214.5 -49q-167 0 -247 82.5t-52 222.5q28 144 175.5 219.5t396.5 75.5h207l65 333h-649zM780 272l45 234h-182q-222 0 -350 -58t-150 -174q-22 -102 38.5 -160.5
t191.5 -58.5q106 0 214.5 56t192.5 161z" />
    <glyph glyph-name="aogonek.ss02" horiz-adv-x="1075" 
d="M819 0q-101 -33 -168 -94t-82 -137q-8 -46 15.5 -75.5t74.5 -29.5q72 0 129 31l23 -64q-73 -39 -162 -39q-86 0 -129 50.5t-28 128.5q30 158 241 258l29 145q-80 -96 -187.5 -145t-214.5 -49q-167 0 -247 82.5t-52 222.5q28 144 175.5 219.5t396.5 75.5h207l65 333h-649
l14 78h740l-189 -971zM373 55q106 0 214.5 56t192.5 161l45 234h-182q-222 0 -350 -58t-150 -174q-22 -102 38.5 -160.5t191.5 -58.5z" />
    <glyph glyph-name="aring.ss02" horiz-adv-x="1075" 
d="M678 1114q-97 0 -157 60.5t-56 154.5q4 93 71 154t164 61q98 0 158.5 -60.5t54.5 -154.5q-5 -94 -71 -154.5t-164 -60.5zM532 1329q-3 -65 39 -108t111 -43q68 0 115.5 43.5t50.5 107.5q3 65 -40 108.5t-110 43.5q-69 0 -116 -43.5t-50 -108.5zM270 991h740l-193 -991
h-90l35 174q-80 -96 -187.5 -145t-214.5 -49q-167 0 -247 82.5t-52 222.5q28 144 175.5 219.5t396.5 75.5h207l65 333h-649zM780 272l45 234h-182q-222 0 -350 -58t-150 -174q-22 -102 38.5 -160.5t191.5 -58.5q106 0 214.5 56t192.5 161z" />
    <glyph glyph-name="atilde.ss02" horiz-adv-x="1075" 
d="M555 1264q-46 0 -83 -36t-44 -91l-76 16q21 86 77 137t122 51q39 0 79 -19t67 -42t58.5 -42t57.5 -19q48 0 85.5 34.5t47.5 89.5l74 -16q-21 -86 -77.5 -137t-123.5 -51q-40 0 -79 19.5t-65.5 43t-59 43t-60.5 19.5zM256 913l14 78h740l-193 -991h-90l35 174
q-80 -96 -187.5 -145t-214.5 -49q-167 0 -247 82.5t-52 222.5q28 144 175.5 219.5t396.5 75.5h207l65 333h-649zM780 272l45 234h-182q-222 0 -350 -58t-150 -174q-22 -102 38.5 -160.5t191.5 -58.5q106 0 214.5 56t192.5 161z" />
    <glyph glyph-name="ae.ss02" horiz-adv-x="1890" 
d="M1417 1012q202 0 312.5 -138t72.5 -339q0 -3 -1 -7l-2.5 -10l-2.5 -10l-881 4l-4 -16q-38 -191 55.5 -315t266.5 -124q128 0 239 53t179 144l63 -47q-78 -106 -206.5 -166.5t-274.5 -60.5q-137 0 -238.5 68.5t-142.5 187.5l-45 -236h-80l35 174q-81 -97 -190.5 -145.5
t-229.5 -48.5q-153 0 -231 83.5t-52 217.5q29 147 175.5 222t388.5 75h217l65 335h-649l14 78h729l-43 -221q85 111 207 176.5t254 65.5zM1724 582q22 152 -67 253t-242 101q-157 0 -290.5 -99.5t-190.5 -256.5zM780 272l47 238h-213q-203 0 -326.5 -60t-144.5 -176
q-20 -99 37.5 -158t173.5 -59q120 0 232.5 55t193.5 160z" />
    <glyph glyph-name="aeacute.ss02" horiz-adv-x="1890" 
d="M1337 1391l-245 -275h-93l218 275h120zM1417 1012q202 0 312.5 -138t72.5 -339q0 -3 -1 -7l-2.5 -10l-2.5 -10l-881 4l-4 -16q-38 -191 55.5 -315t266.5 -124q128 0 239 53t179 144l63 -47q-78 -106 -206.5 -166.5t-274.5 -60.5q-137 0 -238.5 68.5t-142.5 187.5
l-45 -236h-80l35 174q-81 -97 -190.5 -145.5t-229.5 -48.5q-153 0 -231 83.5t-52 217.5q29 147 175.5 222t388.5 75h217l65 335h-649l14 78h729l-43 -221q85 111 207 176.5t254 65.5zM1724 582q22 152 -67 253t-242 101q-157 0 -290.5 -99.5t-190.5 -256.5zM780 272l47 238
h-213q-203 0 -326.5 -60t-144.5 -176q-20 -99 37.5 -158t173.5 -59q120 0 232.5 55t193.5 160z" />
    <glyph glyph-name="c.ss03" horiz-adv-x="1026" 
d="M967 909h-635l-162 -825h635l-17 -84h-722l192 991h723z" />
    <glyph glyph-name="cacute.ss03" horiz-adv-x="1026" 
d="M913 1391l-245 -275h-93l218 275h120zM967 909h-635l-162 -825h635l-17 -84h-722l192 991h723z" />
    <glyph glyph-name="ccaron.ss03" horiz-adv-x="1026" 
d="M592 1116l-127 275h80l106 -211l189 211h88l-232 -275h-104zM967 909h-635l-162 -825h635l-17 -84h-722l192 991h723z" />
    <glyph glyph-name="ccedilla.ss03" horiz-adv-x="1026" 
d="M967 909h-635l-162 -825h635l-17 -84h-315q67 -76 79 -155.5t-22.5 -139t-105.5 -98t-160 -39.5l-20 67q113 13 176.5 66t62 132.5t-72.5 166.5h-344l192 991h723z" />
    <glyph glyph-name="ccircumflex.ss03" horiz-adv-x="1026" 
d="M674 1346l-189 -211h-86l232 274h102l127 -274h-78zM967 909h-635l-162 -825h635l-17 -84h-722l192 991h723z" />
    <glyph glyph-name="cdotaccent.ss03" horiz-adv-x="1026" 
d="M680 1401q30 0 54 -23t24 -53q0 -33 -24 -55.5t-54 -22.5q-34 0 -57 22t-23 56q0 31 23.5 53.5t56.5 22.5zM967 909h-635l-162 -825h635l-17 -84h-722l192 991h723z" />
    <glyph glyph-name="g.ss04" horiz-adv-x="1230" 
d="M1075 991h90l-270 -1388h-784l16 84h694l94 485q-68 -79 -173 -129.5t-210 -50.5q-197 0 -316.5 123t-119.5 325q0 159 77.5 290t212.5 206.5t298 75.5q117 0 220 -54.5t138 -136.5zM551 74q104 0 209.5 55.5t175.5 144.5l90 461q-34 87 -131 141t-205 54
q-139 0 -255 -64.5t-182.5 -175.5t-66.5 -244q0 -169 99.5 -270.5t265.5 -101.5z" />
    <glyph glyph-name="gbreve.ss04" horiz-adv-x="1226" 
d="M741 1112q-121 0 -187.5 86.5t-43.5 212.5h72q-20 -99 30 -165t142 -66q91 0 160.5 64t89.5 167h73q-28 -138 -118.5 -218.5t-217.5 -80.5zM1075 991h90l-270 -1388h-784l16 84h694l94 485q-68 -79 -173 -129.5t-210 -50.5q-197 0 -316.5 123t-119.5 325q0 159 77.5 290
t212.5 206.5t298 75.5q117 0 220 -54.5t138 -136.5zM551 74q104 0 209.5 55.5t175.5 144.5l90 461q-34 87 -131 141t-205 54q-139 0 -255 -64.5t-182.5 -175.5t-66.5 -244q0 -169 99.5 -270.5t265.5 -101.5z" />
    <glyph glyph-name="gcircumflex.ss04" horiz-adv-x="1226" 
d="M770 1346l-190 -211h-86l231 274h104l127 -274h-79zM1075 991h90l-270 -1388h-784l16 84h694l94 485q-68 -79 -173 -129.5t-210 -50.5q-197 0 -316.5 123t-119.5 325q0 159 77.5 290t212.5 206.5t298 75.5q117 0 220 -54.5t138 -136.5zM551 74q104 0 209.5 55.5
t175.5 144.5l90 461q-34 87 -131 141t-205 54q-139 0 -255 -64.5t-182.5 -175.5t-66.5 -244q0 -169 99.5 -270.5t265.5 -101.5z" />
    <glyph glyph-name="uni0123.ss04" horiz-adv-x="1226" 
d="M932 1395l-217 -277h-121l246 277h92zM1075 991h90l-270 -1388h-784l16 84h694l94 485q-68 -79 -173 -129.5t-210 -50.5q-197 0 -316.5 123t-119.5 325q0 159 77.5 290t212.5 206.5t298 75.5q117 0 220 -54.5t138 -136.5zM551 74q104 0 209.5 55.5t175.5 144.5l90 461
q-34 87 -131 141t-205 54q-139 0 -255 -64.5t-182.5 -175.5t-66.5 -244q0 -169 99.5 -270.5t265.5 -101.5z" />
    <glyph glyph-name="gdotaccent.ss04" horiz-adv-x="1226" 
d="M754 1247q-33 0 -55.5 22.5t-22.5 55.5q0 31 23 53.5t55 22.5q31 0 55.5 -23t24.5 -53q0 -33 -24 -55.5t-56 -22.5zM1075 991h90l-270 -1388h-784l16 84h694l94 485q-68 -79 -173 -129.5t-210 -50.5q-197 0 -316.5 123t-119.5 325q0 159 77.5 290t212.5 206.5t298 75.5
q117 0 220 -54.5t138 -136.5zM551 74q104 0 209.5 55.5t175.5 144.5l90 461q-34 87 -131 141t-205 54q-139 0 -255 -64.5t-182.5 -175.5t-66.5 -244q0 -169 99.5 -270.5t265.5 -101.5z" />
    <glyph glyph-name="h.ss05" horiz-adv-x="1167" 
d="M434 1434l-86 -443h754l-193 -991h-88l176 909h-665l-176 -909h-90l278 1434h90z" />
    <glyph glyph-name="hbar.ss05" horiz-adv-x="1167" 
d="M348 991h754l-193 -991h-88l176 909h-665l-176 -909h-90l231 1188h-246l12 69h246l35 177h90l-35 -177h250l-12 -69h-250z" />
    <glyph glyph-name="hcircumflex.ss05" horiz-adv-x="1167" 
d="M446 1788l-188 -211h-86l231 274h103l127 -274h-78zM348 991h754l-193 -991h-88l176 909h-665l-176 -909h-90l278 1434h90z" />
    <glyph glyph-name="j.ss06" horiz-adv-x="413" 
d="M367 1401q30 0 53.5 -23t23.5 -53q0 -33 -23.5 -55.5t-53.5 -22.5q-34 0 -57 22t-23 56q0 31 23.5 53.5t56.5 22.5zM348 991l-270 -1388h-90l270 1388h90z" />
    <glyph glyph-name="uni0237.ss06" horiz-adv-x="413" 
d="M348 991l-270 -1388h-90l270 1388h90z" />
    <glyph glyph-name="jcircumflex.ss06" horiz-adv-x="413" 
d="M547 1135h-78l-109 211l-188 -211h-86l231 274h103zM-12 -397l270 1388h90l-270 -1388h-90z" />
    <glyph glyph-name="l.ss07" horiz-adv-x="491" 
d="M434 1434l-264 -1350h166l-17 -84h-253l278 1434h90z" />
    <glyph glyph-name="lacute.ss07" horiz-adv-x="491" 
d="M688 1833l-246 -274h-92l217 274h121zM434 1434l-264 -1350h166l-17 -84h-253l278 1434h90z" />
    <glyph glyph-name="lcaron.ss07" horiz-adv-x="526" 
d="M672 1528l-148 -412h-73l124 412h97zM434 1434l-264 -1350h166l-17 -84h-253l278 1434h90z" />
    <glyph glyph-name="uni013C.ss07" horiz-adv-x="491" 
d="M434 1434l-264 -1350h166l-17 -84h-253l278 1434h90zM242 -158l-246 -276h-92l217 276h121z" />
    <glyph glyph-name="ldot.ss07" horiz-adv-x="546" 
d="M434 1434l-264 -1350h166l-17 -84h-253l278 1434h90zM526 614q-38 0 -64 26.5t-26 64.5t26 65t64 27t64 -27t26 -65t-26 -64.5t-64 -26.5z" />
    <glyph glyph-name="lslash.ss07" horiz-adv-x="491" 
d="M492 905l-175 -74l-147 -747h166l-17 -84h-253l153 793l-174 -74l14 82l177 73l108 560h90l-100 -519l172 74z" />
    <glyph glyph-name="m.ss08" horiz-adv-x="1830" 
d="M1765 991l-192 -991h-88l176 909h-621l-176 -909h-90l178 909h-620l-176 -909h-90l192 991h1507z" />
    <glyph glyph-name="n.ss09" horiz-adv-x="1167" 
d="M1102 991l-193 -991h-88l176 909h-665l-176 -909h-90l192 991h844z" />
    <glyph glyph-name="nacute.ss09" horiz-adv-x="1167" 
d="M979 1391l-246 -275h-92l217 275h121zM1102 991l-193 -991h-88l176 909h-665l-176 -909h-90l192 991h844z" />
    <glyph glyph-name="ncaron.ss09" horiz-adv-x="1167" 
d="M655 1116l-127 275h80l107 -211l188 211h88l-231 -275h-105zM258 991h844l-193 -991h-88l176 909h-665l-176 -909h-90z" />
    <glyph glyph-name="uni0146.ss09" horiz-adv-x="1167" 
d="M1102 991l-193 -991h-88l176 909h-665l-176 -909h-90l192 991h844zM559 -158l-246 -276h-92l217 276h121z" />
    <glyph glyph-name="eng.ss09" horiz-adv-x="1138" 
d="M954 229l-18 -88l-27 -141l-22 -109q-31 -162 -98.5 -238.5t-178.5 -76.5q-19 0 -51 4l16 82q10 -2 25 -2q78 0 128 59t75 183l61 327h2l131 680h-665l-176 -909h-90l192 991h844z" />
    <glyph glyph-name="ntilde.ss09" horiz-adv-x="1167" 
d="M395 1153q21 86 77 137t122 51q39 0 79 -19t67 -42t58.5 -42t57.5 -19q48 0 85 34.5t46 89.5l76 -16q-23 -86 -79.5 -137t-123.5 -51q-39 0 -78 19.5t-65 43t-58.5 43t-60.5 19.5q-46 0 -83 -36t-46 -91zM1102 991l-193 -991h-88l176 909h-665l-176 -909h-90l192 991h844
z" />
    <glyph glyph-name="o.ss10" horiz-adv-x="1167" 
d="M1102 991l-193 -991h-843l192 991h844zM999 909h-669l-162 -825h670z" />
    <glyph glyph-name="oacute.ss10" horiz-adv-x="1167" 
d="M979 1391l-246 -275h-92l217 275h121zM1102 991l-193 -991h-843l192 991h844zM999 909h-669l-162 -825h670z" />
    <glyph glyph-name="obreve.ss10" horiz-adv-x="1167" 
d="M1047 1411q-28 -138 -118.5 -218.5t-219.5 -80.5q-120 0 -186.5 86.5t-43.5 212.5h72q-20 -99 29.5 -165t140.5 -66q92 0 162 64t90 167h74zM1102 991l-193 -991h-843l192 991h844zM999 909h-669l-162 -825h670z" />
    <glyph glyph-name="ocircumflex.ss10" horiz-adv-x="1167" 
d="M739 1346l-188 -211h-86l231 274h103l127 -274h-78zM258 991h844l-193 -991h-843zM838 84l161 825h-669l-162 -825h670z" />
    <glyph glyph-name="odieresis.ss10" horiz-adv-x="1167" 
d="M612 1401q30 0 54 -23t24 -53q0 -33 -24 -55.5t-54 -22.5q-34 0 -57 22t-23 56q0 31 23.5 53.5t56.5 22.5zM881 1401q31 0 55.5 -23t24.5 -53q0 -33 -24 -55.5t-56 -22.5q-33 0 -55.5 22.5t-22.5 55.5q0 31 23 53.5t55 22.5zM1102 991l-193 -991h-843l192 991h844z
M999 909h-669l-162 -825h670z" />
    <glyph glyph-name="ograve.ss10" horiz-adv-x="1167" 
d="M430 1391h121l217 -275h-92zM1102 991l-193 -991h-843l192 991h844zM999 909h-669l-162 -825h670z" />
    <glyph glyph-name="ohungarumlaut.ss10" horiz-adv-x="1167" 
d="M602 1116l203 293h-90l-207 -293h94zM868 1116l203 293h-92l-203 -293h92zM1102 991l-193 -991h-843l192 991h844zM999 909h-669l-162 -825h670z" />
    <glyph glyph-name="omacron.ss10" horiz-adv-x="1167" 
d="M383 1151l14 76h656l-15 -76h-655zM1102 991l-193 -991h-843l192 991h844zM999 909h-669l-162 -825h670z" />
    <glyph glyph-name="oslash.ss10" horiz-adv-x="1167" 
d="M246 991h844l-168 -991h-844zM328 909l-146 -776l768 776h-622zM840 84l143 774l-764 -774h621z" />
    <glyph glyph-name="otilde.ss10" horiz-adv-x="1167" 
d="M395 1153q21 86 77 137t122 51q39 0 79 -19t67 -42t58.5 -42t57.5 -19q48 0 85 34.5t46 89.5l76 -16q-23 -86 -79.5 -137t-123.5 -51q-39 0 -78 19.5t-65 43t-58.5 43t-60.5 19.5q-46 0 -83 -36t-46 -91zM1102 991l-193 -991h-843l192 991h844zM999 909h-669l-162 -825
h670z" />
    <glyph glyph-name="oe.ss10" horiz-adv-x="2004" 
d="M1030 504q-4 -40 -4 -60q-1 -164 108 -273.5t273 -109.5q128 0 235.5 63.5t145.5 178.5h94q-44 -149 -181 -236t-304 -87q-152 0 -269 84t-163 221l-56 -285h-843l192 991h844l-37 -190q79 99 193 155t243 56q188 0 306 -117.5t118 -304.5q0 -38 -10 -86h-885zM1499 932
q-161 0 -286.5 -99t-168.5 -253h791q0 165 -90 258.5t-246 93.5zM838 84l161 825h-669l-162 -825h670z" />
    <glyph glyph-name="r.ss11" horiz-adv-x="692" 
d="M735 991l-16 -82h-387l-178 -909h-88l192 991h477z" />
    <glyph glyph-name="racute.ss11" horiz-adv-x="692" 
d="M791 1391l-246 -275h-92l217 275h121zM735 991l-16 -82h-387l-178 -909h-88l192 991h477z" />
    <glyph glyph-name="rcaron.ss11" horiz-adv-x="692" 
d="M469 1116l-127 275h80l106 -211l189 211h88l-232 -275h-104zM66 0l192 991h477l-16 -82h-387l-178 -909h-88z" />
    <glyph glyph-name="uni0157.ss11" horiz-adv-x="692" 
d="M735 991l-16 -82h-387l-178 -909h-88l192 991h477zM174 -158l-246 -276h-92l217 276h121z" />
    <glyph glyph-name="s.ss12" horiz-adv-x="894" 
d="M352 0h-327l14 76h321q132 0 216.5 53t103.5 147q9 48 -5.5 83t-47 55.5t-76.5 35.5t-93.5 26.5t-99 24t-92.5 31.5t-74 46t-44 72t-1 104q23 113 119 176t248 63h326l-15 -78h-323q-109 0 -180 -44.5t-86 -122.5q-9 -48 5.5 -83t46.5 -55.5t75.5 -34.5t93 -24.5
t99 -22.5t92.5 -31t73.5 -47t42.5 -74t0 -108q-25 -127 -133 -197.5t-279 -70.5z" />
    <glyph glyph-name="sacute.ss12" horiz-adv-x="894" 
d="M860 1391l-246 -275h-92l217 275h121zM352 0h-327l14 76h321q132 0 216.5 53t103.5 147q9 48 -5.5 83t-47 55.5t-76.5 35.5t-93.5 26.5t-99 24t-92.5 31.5t-74 46t-44 72t-1 104q23 113 119 176t248 63h326l-15 -78h-323q-109 0 -180 -44.5t-86 -122.5q-9 -48 5.5 -83
t46.5 -55.5t75.5 -34.5t93 -24.5t99 -22.5t92.5 -31t73.5 -47t42.5 -74t0 -108q-25 -127 -133 -197.5t-279 -70.5z" />
    <glyph glyph-name="scaron.ss12" horiz-adv-x="894" 
d="M539 1116l-127 275h80l106 -211l188 211h88l-231 -275h-104zM147 754q23 113 119 176t248 63h326l-15 -78h-323q-109 0 -180 -44.5t-86 -122.5q-9 -48 5.5 -83t46.5 -55.5t75.5 -34.5t93 -24.5t99 -22.5t92.5 -31t73.5 -47t42.5 -74t0 -108q-25 -127 -133 -197.5
t-279 -70.5h-327l14 76h321q132 0 216.5 53t103.5 147q9 48 -5.5 83t-47 55.5t-76.5 35.5t-93.5 26.5t-99 24t-92.5 31.5t-74 46t-44 72t-1 104z" />
    <glyph glyph-name="scedilla.ss12" horiz-adv-x="894" 
d="M502 915q-109 0 -180 -44.5t-86 -122.5q-9 -48 5.5 -83t46.5 -55.5t75.5 -34.5t93 -24.5t99 -22.5t92.5 -31t73.5 -47t42.5 -74t0 -108q-23 -119 -119.5 -189t-251.5 -77q67 -76 79 -156t-22.5 -140t-105.5 -98.5t-160 -39.5l-20 67q113 13 176.5 66t62 132.5
t-72.5 166.5h-305l14 76h321q132 0 216.5 53t103.5 147q9 48 -5.5 83t-47 55.5t-76.5 35.5t-93.5 26.5t-99 24t-92.5 31.5t-74 46t-44 72t-1 104q23 113 119 176t248 63h326l-15 -78h-323z" />
    <glyph glyph-name="scircumflex.ss12" horiz-adv-x="894" 
d="M621 1346l-189 -211h-86l232 274h102l127 -274h-78zM502 915q-109 0 -180 -44.5t-86 -122.5q-9 -48 5.5 -83t46.5 -55.5t75.5 -34.5t93 -24.5t99 -22.5t92.5 -31t73.5 -47t42.5 -74t0 -108q-25 -127 -133 -197.5t-279 -70.5h-327l14 76h321q132 0 216.5 53t103.5 147
q9 48 -5.5 83t-47 55.5t-76.5 35.5t-93.5 26.5t-99 24t-92.5 31.5t-74 46t-44 72t-1 104q23 113 119 176t248 63h326l-15 -78h-323z" />
    <glyph glyph-name="uni0219.ss12" horiz-adv-x="894" 
d="M352 0h-327l14 76h321q132 0 216.5 53t103.5 147q9 48 -5.5 83t-47 55.5t-76.5 35.5t-93.5 26.5t-99 24t-92.5 31.5t-74 46t-44 72t-1 104q23 113 119 176t248 63h326l-15 -78h-323q-109 0 -180 -44.5t-86 -122.5q-9 -48 5.5 -83t46.5 -55.5t75.5 -34.5t93 -24.5
t99 -22.5t92.5 -31t73.5 -47t42.5 -74t0 -108q-25 -127 -133 -197.5t-279 -70.5zM416 -158l-246 -276h-92l217 276h121z" />
    <glyph glyph-name="t.ss13" horiz-adv-x="688" 
d="M737 991l-16 -82h-262l-176 -909h-88l176 909h-258l14 82h260l53 277h88l-53 -277h262z" />
    <glyph glyph-name="tbar.ss13" horiz-adv-x="688" 
d="M721 909h-262l-74 -383h193l-11 -67h-196l-88 -459h-88l88 459h-191l10 67h195l74 383h-258l14 82h260l53 277h88l-53 -277h262z" />
    <glyph glyph-name="tcaron.ss13" horiz-adv-x="688" 
d="M870 1528l-147 -412h-74l125 412h96zM528 1268l-53 -277h262l-16 -82h-262l-176 -909h-88l176 909h-258l14 82h260l53 277h88z" />
    <glyph glyph-name="uni0163.ss13" horiz-adv-x="688" 
d="M721 909h-262l-174 -895q60 -62 83 -128t8.5 -121.5t-52.5 -100t-100.5 -70t-135.5 -26.5l-18 67q113 13 176.5 66t61 132.5t-74.5 166.5h-38l176 909h-258l14 82h260l53 277h88l-53 -277h262z" />
    <glyph glyph-name="uni021B.ss13" horiz-adv-x="688" 
d="M737 991l-16 -82h-262l-176 -909h-88l176 909h-258l14 82h260l53 277h88l-53 -277h262zM-25 -434l218 276h120l-245 -276h-93z" />
    <glyph glyph-name="u.ss14" horiz-adv-x="1212" 
d="M1145 991l-105 -538q-42 -217 -177 -345t-328 -128q-205 0 -312.5 133.5t-66.5 347.5l104 530h88l-104 -536q-35 -179 47.5 -285.5t243.5 -106.5t272 107.5t145 288.5l105 532h88z" />
    <glyph glyph-name="uacute.ss14" horiz-adv-x="1212" 
d="M999 1391l-245 -275h-92l217 275h120zM1145 991l-105 -538q-42 -217 -177 -345t-328 -128q-205 0 -312.5 133.5t-66.5 347.5l104 530h88l-104 -536q-35 -179 47.5 -285.5t243.5 -106.5t272 107.5t145 288.5l105 532h88z" />
    <glyph glyph-name="ucircumflex.ss14" horiz-adv-x="1212" 
d="M762 1346l-189 -211h-86l232 274h102l127 -274h-78zM1057 991h88l-105 -538q-42 -217 -177 -345t-328 -128q-205 0 -312.5 133.5t-66.5 347.5l104 530h88l-104 -536q-35 -179 47.5 -285.5t243.5 -106.5t272 107.5t145 288.5z" />
    <glyph glyph-name="udieresis.ss14" horiz-adv-x="1212" 
d="M635 1401q30 0 54 -23t24 -53q0 -33 -24 -55.5t-54 -22.5q-34 0 -57 22t-23 56q0 31 23.5 53.5t56.5 22.5zM903 1401q31 0 55.5 -23t24.5 -53q0 -33 -24 -55.5t-56 -22.5q-33 0 -55.5 22.5t-22.5 55.5q0 31 23 53.5t55 22.5zM1145 991l-105 -538q-42 -217 -177 -345
t-328 -128q-205 0 -312.5 133.5t-66.5 347.5l104 530h88l-104 -536q-35 -179 47.5 -285.5t243.5 -106.5t272 107.5t145 288.5l105 532h88z" />
    <glyph glyph-name="ugrave.ss14" horiz-adv-x="1212" 
d="M453 1391h120l218 -275h-93zM1145 991l-105 -538q-42 -217 -177 -345t-328 -128q-205 0 -312.5 133.5t-66.5 347.5l104 530h88l-104 -536q-35 -179 47.5 -285.5t243.5 -106.5t272 107.5t145 288.5l105 532h88z" />
    <glyph glyph-name="uhungarumlaut.ss14" horiz-adv-x="1212" 
d="M625 1116l202 293h-90l-207 -293h95zM891 1116l203 293h-93l-202 -293h92zM1145 991l-105 -538q-42 -217 -177 -345t-328 -128q-205 0 -312.5 133.5t-66.5 347.5l104 530h88l-104 -536q-35 -179 47.5 -285.5t243.5 -106.5t272 107.5t145 288.5l105 532h88z" />
    <glyph glyph-name="umacron.ss14" horiz-adv-x="1212" 
d="M406 1151l14 76h655l-14 -76h-655zM1145 991l-105 -538q-42 -217 -177 -345t-328 -128q-205 0 -312.5 133.5t-66.5 347.5l104 530h88l-104 -536q-35 -179 47.5 -285.5t243.5 -106.5t272 107.5t145 288.5l105 532h88z" />
    <glyph glyph-name="uogonek.ss14" horiz-adv-x="1212" 
d="M1057 991h88l-105 -538q-37 -193 -149 -317t-275 -150q-85 -34 -141 -91t-69 -126q-9 -46 14.5 -75.5t75.5 -29.5q72 0 129 31l22 -64q-76 -39 -164 -39q-86 0 -128.5 50.5t-28.5 128.5q24 121 159 211q-183 17 -275 148t-54 331l104 530h88l-104 -536
q-35 -179 47.5 -285.5t243.5 -106.5t272 107.5t145 288.5z" />
    <glyph glyph-name="uring.ss14" horiz-adv-x="1212" 
d="M743 1114q-98 0 -158 60.5t-55 154.5q4 94 71 154.5t165 60.5q97 0 157 -60.5t56 -154.5q-4 -93 -71.5 -154t-164.5 -61zM745 1178q69 0 116 43t50 108t-39 108.5t-110 43.5q-67 0 -115 -43.5t-51 -108.5t39.5 -108t109.5 -43zM1145 991l-105 -538q-42 -217 -177 -345
t-328 -128q-205 0 -312.5 133.5t-66.5 347.5l104 530h88l-104 -536q-35 -179 47.5 -285.5t243.5 -106.5t272 107.5t145 288.5l105 532h88z" />
    <glyph glyph-name="utilde.ss14" horiz-adv-x="1212" 
d="M418 1153q21 86 76.5 137t121.5 51q39 0 79 -19t67 -42t59 -42t58 -19q48 0 85 34.5t46 89.5l75 -16q-23 -86 -79 -137t-123 -51q-39 0 -78 19.5t-65 43t-58.5 43t-60.5 19.5q-46 0 -83 -36t-46 -91zM1145 991l-105 -538q-42 -217 -177 -345t-328 -128
q-205 0 -312.5 133.5t-66.5 347.5l104 530h88l-104 -536q-35 -179 47.5 -285.5t243.5 -106.5t272 107.5t145 288.5l105 532h88z" />
    <glyph glyph-name="u.ss15" horiz-adv-x="1169" 
d="M66 0l192 991h90l-178 -909h666l178 909h88l-193 -991h-843z" />
    <glyph glyph-name="uacute.ss15" horiz-adv-x="1169" 
d="M979 1391l-246 -275h-92l217 275h121zM66 0l192 991h90l-178 -909h666l178 909h88l-193 -991h-843z" />
    <glyph glyph-name="ucircumflex.ss15" horiz-adv-x="1169" 
d="M739 1346l-188 -211h-86l231 274h103l127 -274h-78zM1014 991h88l-193 -991h-843l192 991h90l-178 -909h666z" />
    <glyph glyph-name="udieresis.ss15" horiz-adv-x="1169" 
d="M612 1401q30 0 54 -23t24 -53q0 -33 -24 -55.5t-54 -22.5q-34 0 -57 22t-23 56q0 31 23.5 53.5t56.5 22.5zM881 1401q31 0 55.5 -23t24.5 -53q0 -33 -24 -55.5t-56 -22.5q-33 0 -55.5 22.5t-22.5 55.5q0 31 23 53.5t55 22.5zM66 0l192 991h90l-178 -909h666l178 909h88
l-193 -991h-843z" />
    <glyph glyph-name="ugrave.ss15" horiz-adv-x="1169" 
d="M432 1391h121l217 -275h-92zM66 0l192 991h90l-178 -909h666l178 909h88l-193 -991h-843z" />
    <glyph glyph-name="uhungarumlaut.ss15" horiz-adv-x="1169" 
d="M602 1116l203 293h-90l-207 -293h94zM868 1116l203 293h-92l-203 -293h92zM66 0l192 991h90l-178 -909h666l178 909h88l-193 -991h-843z" />
    <glyph glyph-name="umacron.ss15" horiz-adv-x="1169" 
d="M385 1151l14 76h656l-15 -76h-655zM66 0l192 991h90l-178 -909h666l178 909h88l-193 -991h-843z" />
    <glyph glyph-name="uogonek.ss15" horiz-adv-x="1169" 
d="M1014 991h88l-193 -991h-258q-101 -33 -168 -94t-82 -137q-9 -46 15 -75.5t76 -29.5q72 0 129 31l22 -64q-76 -39 -164 -39q-86 0 -128.5 50.5t-28.5 128.5q27 134 188 229h-444l192 991h90l-178 -909h666z" />
    <glyph glyph-name="uring.ss15" horiz-adv-x="1169" 
d="M721 1114q-98 0 -158 60.5t-55 154.5t71 154.5t164 60.5q97 0 157 -60.5t56 -154.5q-4 -93 -71 -154t-164 -61zM723 1178q69 0 116 43t50 108t-39.5 108.5t-110.5 43.5q-67 0 -115 -43.5t-51 -108.5t40 -108t110 -43zM66 0l192 991h90l-178 -909h666l178 909h88
l-193 -991h-843z" />
    <glyph glyph-name="utilde.ss15" horiz-adv-x="1169" 
d="M395 1153q21 86 77 137t122 51q39 0 79 -19t67 -42t58.5 -42t57.5 -19q48 0 85 34.5t46 89.5l76 -16q-23 -86 -79.5 -137t-123.5 -51q-39 0 -78 19.5t-65 43t-58.5 43t-60.5 19.5q-46 0 -83 -36t-46 -91zM66 0l192 991h90l-178 -909h666l178 909h88l-193 -991h-843z" />
    <glyph glyph-name="uni00CD00A40301" horiz-adv-x="1048" 
d="M709 1833l-246 -274h-92l217 274h121zM1315 1833l-246 -274h-92l217 274h121zM367 1434h90l-279 -1434h-90zM418 66h31q126 0 204.5 83t112.5 254l199 1031h92l-203 -1045q-40 -203 -142.5 -306t-262.5 -103q-34 0 -48 2z" />
    <glyph glyph-name="T_h.dlig" horiz-adv-x="2392" 
d="M1898 1012q196 0 290.5 -119.5t56.5 -319.5l-113 -573h-88l110 573q32 162 -42 259.5t-228 97.5t-268 -90.5t-156 -239.5l-117 -600h-90l263 1348h-701l-262 -1348h-90l262 1348h-492l17 86h1372l-127 -652q68 108 173.5 169t229.5 61z" />
    <glyph glyph-name="T_i.dlig" horiz-adv-x="1462" 
d="M1307 1348h-492l-262 -1348h-90l262 1348h-492l17 86h1073zM1307 991h90l-193 -991h-90z" />
    <glyph glyph-name="f_f.dlig" horiz-adv-x="1234" 
d="M1307 1448q37 0 77 -8l-14 -82q-27 8 -67 8q-109 0 -178 -52.5t-93 -174.5l-28 -148h294l-16 -82h-295l-176 -909h-88l176 909h-481l-178 -909h-88l176 909h-201l16 82h201l29 148q30 158 124.5 233.5t239.5 75.5q36 0 76 -8l-14 -82q-27 8 -68 8q-109 0 -176.5 -52.5
t-91.5 -174.5l-29 -148h481l29 148q30 158 124 233.5t239 75.5z" />
    <glyph glyph-name="f_f_i.dlig" horiz-adv-x="1628" 
d="M1563 991l-193 -991h-90l178 909h-471l-176 -909h-88l176 909h-481l-178 -909h-88l176 909h-201l16 82h201l29 148q30 158 124.5 233.5t239.5 75.5q36 0 76 -8l-14 -82q-27 8 -68 8q-109 0 -176.5 -52.5t-91.5 -174.5l-29 -148h481l29 148q30 158 124 233.5t239 75.5
q37 0 77 -8l-14 -82q-27 8 -67 8q-109 0 -178 -52.5t-93 -174.5l-28 -148h559z" />
    <glyph glyph-name="f_f_t.dlig" horiz-adv-x="1837" 
d="M1546 909l-119 -610q-22 -122 26 -174.5t157 -52.5q42 0 69 8l-14 -80q-33 -8 -82 -8q-145 0 -209.5 75.5t-34.5 233.5l119 608h-471l-176 -909h-88l176 909h-481l-178 -909h-88l176 909h-201l16 82h201l29 148q30 158 124.5 233.5t239.5 75.5q36 0 76 -8l-14 -82
q-27 8 -68 8q-109 0 -176.5 -52.5t-91.5 -174.5l-29 -148h481l29 148q30 158 124 233.5t239 75.5q37 0 77 -8l-14 -82q-27 8 -67 8q-109 0 -178 -52.5t-93 -174.5l-28 -148h471l55 281h88l-55 -281h295l-15 -82h-297z" />
    <glyph glyph-name="f_i.dlig" horiz-adv-x="1056" 
d="M991 991l-192 -991h-88l176 909h-469l-178 -909h-88l176 909h-201l16 82h201l29 148q30 158 124.5 233.5t239.5 75.5q36 0 76 -8l-14 -82q-27 8 -68 8q-109 0 -176.5 -52.5t-91.5 -174.5l-29 -148h557z" />
    <glyph glyph-name="f_l.dlig" horiz-adv-x="1056" 
d="M989 1434h88l-278 -1434h-88l176 909h-469l-178 -909h-88l176 909h-201l16 82h201l29 148q30 158 124.5 233.5t239.5 75.5q36 0 76 -8l-14 -82q-27 8 -68 8q-109 0 -176.5 -52.5t-91.5 -174.5l-29 -148h469z" />
    <glyph glyph-name="f_t.dlig" horiz-adv-x="1265" 
d="M977 909l-119 -610q-24 -122 24.5 -174.5t157.5 -52.5q41 0 68 8l-14 -80q-31 -8 -82 -8q-145 0 -209.5 75.5t-34.5 233.5l119 608h-469l-178 -909h-88l176 909h-201l16 82h201l29 148q30 158 124.5 233.5t239.5 75.5q36 0 76 -8l-14 -82q-27 8 -68 8
q-109 0 -176.5 -52.5t-91.5 -174.5l-29 -148h469l55 281h91l-56 -281h293l-14 -82h-295z" />
    <glyph glyph-name="A.sinf" horiz-adv-x="792" 
d="M606 0l-47 229h-430l-135 -229h-72l512 860h66l178 -860h-72zM164 289h383l-98 479z" />
    <glyph glyph-name="B.sinf" horiz-adv-x="727" 
d="M10 0l168 860h291q99 0 156.5 -62t40.5 -151q-13 -70 -70 -126.5t-123 -65.5q84 -7 128.5 -71.5t29.5 -150.5q-20 -98 -104 -165.5t-187 -67.5h-330zM168 475h223q71 0 131.5 48.5t73.5 117.5q12 65 -29.5 110.5t-111.5 45.5h-224zM88 63h260q78 0 139.5 52t75.5 127
q15 75 -27.5 126.5t-117.5 51.5h-260z" />
    <glyph glyph-name="C.sinf" horiz-adv-x="940" 
d="M393 -12q-118 0 -204.5 59t-122.5 161.5t-13 225.5q37 185 184.5 311.5t327.5 126.5q138 0 230 -79t96 -203h-74q-7 98 -82 158.5t-184 60.5q-150 0 -273.5 -109t-154.5 -266q-31 -161 50.5 -272t232.5 -111q112 0 210 64.5t142 167.5h73q-54 -131 -175.5 -213
t-262.5 -82z" />
    <glyph glyph-name="D.sinf" horiz-adv-x="849" 
d="M436 860q178 0 274 -120.5t60 -305.5q-35 -184 -180 -309t-322 -125h-258l168 860h258zM285 63q148 0 267 106.5t150 264.5t-47.5 260.5t-228.5 102.5h-195l-141 -734h195z" />
    <glyph glyph-name="E.sinf" horiz-adv-x="647" 
d="M178 860h467l-12 -63h-402l-57 -299h356l-12 -64h-356l-72 -371h399l-12 -63h-467z" />
    <glyph glyph-name="F.sinf" horiz-adv-x="622" 
d="M178 860h467l-12 -63h-402l-59 -305h356l-10 -64h-356l-84 -428h-68z" />
    <glyph glyph-name="G.sinf" horiz-adv-x="964" 
d="M887 440q-5 -33 -8 -43q-34 -174 -173.5 -291.5t-310.5 -117.5q-181 0 -279 129t-63 317q37 185 186 311.5t330 126.5q126 0 222.5 -74t111.5 -180h-76q-15 81 -93 136t-177 55q-152 0 -277.5 -109t-156.5 -266q-32 -161 52.5 -272t238.5 -111q139 0 252 95t139 231v4
h-305l12 59h375z" />
    <glyph glyph-name="H.sinf" horiz-adv-x="864" 
d="M764 860h65l-167 -860h-66l82 416h-518l-82 -416h-68l168 860h68l-74 -381h518z" />
    <glyph glyph-name="I.sinf" horiz-adv-x="278" 
d="M178 860h68l-168 -860h-68z" />
    <glyph glyph-name="J.sinf" horiz-adv-x="358" 
d="M-59 51h18q147 0 184 195l121 614h66l-123 -627q-23 -120 -86 -182.5t-160 -62.5q-25 0 -33 2z" />
    <glyph glyph-name="K.sinf" horiz-adv-x="724" 
d="M735 860l-499 -409l370 -451h-92l-352 436l-86 -436h-66l168 860h66l-78 -395l481 395h88z" />
    <glyph glyph-name="L.sinf" horiz-adv-x="669" 
d="M178 860h68l-156 -797h447l-13 -63h-514z" />
    <glyph glyph-name="M.sinf" horiz-adv-x="1056" 
d="M10 0l168 860h76l201 -762l499 762h70l-168 -860h-70l142 721l-471 -721h-51l-189 721l-139 -721h-68z" />
    <glyph glyph-name="N.sinf" horiz-adv-x="868" 
d="M178 860h68l375 -743l145 743h68l-168 -860h-68l-375 743l-145 -743h-68z" />
    <glyph glyph-name="O.sinf" horiz-adv-x="995" 
d="M571 872q119 0 207.5 -57.5t126 -158.5t13.5 -222q-23 -123 -100 -225.5t-188 -161.5t-231 -59q-181 0 -281 129t-65 317q37 185 187 311.5t331 126.5zM559 809q-153 0 -279 -109t-157 -266q-31 -160 53 -271.5t236 -111.5q154 0 280.5 111t155.5 272q31 157 -53 266
t-236 109z" />
    <glyph glyph-name="P.sinf" horiz-adv-x="731" 
d="M510 860q102 0 159 -68t38 -169q-22 -103 -105 -171.5t-186 -68.5h-262l-76 -383h-68l168 860h332zM637 623q13 73 -27 123.5t-112 50.5h-265l-67 -351h264q73 0 133 51.5t74 125.5z" />
    <glyph glyph-name="Q.sinf" horiz-adv-x="995" 
d="M918 434q-37 -190 -193 -323l66 -111h-70l-45 74q-133 -86 -277 -86q-181 0 -281 129t-65 317q37 185 187 311.5t331 126.5q119 0 207.5 -57.5t126 -158.5t13.5 -222zM645 125l-164 272h74l139 -233q127 111 154 270q31 157 -53 266t-236 109q-153 0 -279 -109t-157 -266
q-31 -160 53 -271.5t236 -111.5q123 0 233 74z" />
    <glyph glyph-name="R.sinf" horiz-adv-x="741" 
d="M483 860q107 0 164.5 -67.5t38.5 -169.5q-19 -100 -94 -166.5t-176 -75.5l186 -381h-80l-182 381h-188l-74 -381h-68l168 860h305zM618 621q15 77 -28 126.5t-125 49.5h-236l-65 -357h233q81 0 143.5 51.5t77.5 129.5z" />
    <glyph glyph-name="S.sinf" horiz-adv-x="731" 
d="M274 -12q-132 0 -204 77t-50 197h66q-17 -92 40.5 -151.5t160.5 -59.5q98 0 172.5 50t89.5 126q8 44 -3 76.5t-37.5 52t-62.5 34t-77 24.5t-82 21t-76.5 27.5t-61 39.5t-36 61t-0.5 88q19 97 109 159t212 62q127 0 191 -67.5t43 -169.5h-68q12 76 -38 125t-142 49
t-160 -44t-80 -112q-9 -45 7 -76.5t49.5 -48t77.5 -31t90.5 -24t89.5 -28t75 -43t45.5 -69.5t1.5 -106q-20 -102 -117 -170.5t-225 -68.5z" />
    <glyph glyph-name="T.sinf" horiz-adv-x="724" 
d="M758 860l-13 -63h-288l-156 -797h-68l156 797h-293l15 63h647z" />
    <glyph glyph-name="U.sinf" horiz-adv-x="860" 
d="M330 -12q-138 0 -212 94.5t-46 236.5l106 541h68l-107 -541q-23 -115 35.5 -191.5t169.5 -76.5q110 0 197.5 76.5t109.5 191.5l107 541h67l-106 -541q-28 -142 -138.5 -236.5t-250.5 -94.5z" />
    <glyph glyph-name="V.sinf" horiz-adv-x="765" 
d="M96 860h72l139 -766l436 766h70l-496 -860h-61z" />
    <glyph glyph-name="W.sinf" horiz-adv-x="1251" 
d="M1227 860h71l-456 -860h-64l-102 750l-393 -750h-62l-125 860h72l102 -764l404 764h55l100 -764z" />
    <glyph glyph-name="X.sinf" horiz-adv-x="722" 
d="M748 860l-357 -414l209 -446h-78l-182 387l-332 -387h-80l385 446l-194 414h78l165 -354l306 354h80z" />
    <glyph glyph-name="Y.sinf" horiz-adv-x="741" 
d="M96 860h80l191 -401l342 401h79l-401 -467l-78 -393h-65l75 393z" />
    <glyph glyph-name="Z.sinf" horiz-adv-x="710" 
d="M139 860h592l-10 -51l-682 -746h543l-13 -63h-628l10 51l688 746h-514z" />
    <glyph glyph-name="a.sinf" horiz-adv-x="772" 
d="M633 596h63l-114 -596h-64l31 158q-48 -79 -124 -124.5t-167 -45.5q-126 0 -196.5 90t-45.5 219q26 130 131.5 220.5t231.5 90.5q91 0 149.5 -45.5t73.5 -124.5zM281 49q105 0 187 68t105 172l5 20q17 104 -40 171t-161 67t-190.5 -72.5t-108.5 -177.5
q-20 -103 39.5 -175.5t163.5 -72.5z" />
    <glyph glyph-name="b.sinf" horiz-adv-x="772" 
d="M438 608q126 0 196 -90.5t44 -220.5q-25 -128 -129.5 -218.5t-231.5 -90.5q-91 0 -149 45.5t-76 126.5l-31 -160h-65l170 860h63l-82 -424q47 82 123.5 127t167.5 45zM616 297q20 104 -37.5 177t-160.5 73t-186 -65.5t-109 -166.5l-8 -39q-12 -99 46.5 -163t160.5 -64
t188 72.5t106 175.5z" />
    <glyph glyph-name="c.sinf" horiz-adv-x="688" 
d="M264 -12q-129 0 -201 89.5t-47 219.5q26 131 133 221t236 90q98 0 164.5 -56.5t66.5 -141.5h-65q-4 59 -55.5 98t-122.5 39q-103 0 -187 -72t-106 -178q-20 -104 37 -176t159 -72q72 0 138.5 40.5t93.5 103.5h65q-32 -90 -121 -147.5t-188 -57.5z" />
    <glyph glyph-name="d.sinf" horiz-adv-x="772" 
d="M686 860h64l-168 -860h-64l31 160q-46 -80 -123 -126t-168 -46q-126 0 -196.5 90t-45.5 219q26 130 131.5 220.5t231.5 90.5q92 0 150 -46t73 -128zM281 49q106 0 189 70.5t105 177.5q22 109 -34.5 179.5t-163.5 70.5q-104 0 -190.5 -72.5t-108.5 -177.5
q-20 -103 39.5 -175.5t163.5 -72.5z" />
    <glyph glyph-name="e.sinf" horiz-adv-x="694" 
d="M377 608q120 0 186 -82t43 -202q-4 -12 -4 -21h-522q-2 -2 -2 -6q-22 -109 31.5 -181.5t156.5 -72.5q82 0 149 39t95 102h63q-35 -88 -123 -142t-192 -54q-128 0 -197 90t-43 223q25 129 129.5 218t229.5 89zM543 350q12 87 -39 145t-139 58t-163.5 -56t-109.5 -147h451z
" />
    <glyph glyph-name="f.sinf" horiz-adv-x="413" 
d="M408 870q25 0 49 -4l-13 -61q-15 6 -38 6q-134 0 -158 -133l-17 -82h172l-10 -61h-174l-102 -535h-66l103 535h-119l10 61h121l16 84q39 190 226 190z" />
    <glyph glyph-name="g.sinf" horiz-adv-x="772" 
d="M594 59v-4l-4 -16l-6 -23q-23 -124 -118 -198t-226 -74q-112 0 -183 55.5t-55 151.5h64q-12 -67 41 -109.5t143 -42.5q100 0 175.5 59.5t94.5 155.5l4 25l25 123q-48 -79 -124 -123.5t-167 -44.5q-126 0 -196.5 89.5t-45.5 217.5q26 129 131.5 218t231.5 89
q91 0 149.5 -44.5t73.5 -123.5l31 156h63zM281 51q105 0 187 69t105 175l5 16q17 103 -40 170.5t-161 67.5t-190.5 -72.5t-108.5 -175.5q-19 -103 40 -176.5t163 -73.5z" />
    <glyph glyph-name="h.sinf" horiz-adv-x="720" 
d="M397 608q115 0 169.5 -71t31.5 -191l-68 -346h-65l67 340q19 94 -24.5 150.5t-132.5 56.5q-93 0 -160 -56.5t-86 -150.5h-2l-66 -340h-65l170 860h63l-77 -397q40 68 104 106.5t141 38.5z" />
    <glyph glyph-name="i.sinf" horiz-adv-x="256" 
d="M195 846q20 0 34.5 -15t12.5 -34q-6 -23 -25.5 -39.5t-40.5 -16.5q-22 0 -34.5 16.5t-8.5 39.5q3 19 21.5 34t40.5 15zM115 596h63l-115 -596h-65z" />
    <glyph glyph-name="j.sinf" horiz-adv-x="251" 
d="M193 846q20 0 34 -15t11 -34q-6 -23 -25 -39.5t-39 -16.5q-22 0 -34.5 16.5t-6.5 39.5q2 19 20 34t40 15zM-139 -190h14q84 0 113 137l125 649h63l-125 -655q-37 -193 -182 -193h-21z" />
    <glyph glyph-name="k.sinf" horiz-adv-x="598" 
d="M573 596l-380 -285l284 -311h-88l-270 299l-58 -299h-65l170 860h63l-104 -536l362 272h86z" />
    <glyph glyph-name="l.sinf" horiz-adv-x="251" 
d="M229 860l-168 -860h-65l170 860h63z" />
    <glyph glyph-name="m.sinf" horiz-adv-x="1126" 
d="M811 608q113 0 165 -68t30 -188l-70 -352h-66l66 344q19 94 -19.5 148.5t-125.5 54.5q-46 0 -90.5 -19t-83 -67t-52.5 -117l-2 4l-65 -348h-64l68 344q19 95 -21 149t-125 54q-74 0 -140.5 -49.5t-86.5 -153.5h-2l-66 -344h-65l117 596h63l-22 -117q40 65 102 97t127 32
q80 0 128 -36t58 -105q37 66 104 103.5t138 37.5z" />
    <glyph glyph-name="n.sinf" horiz-adv-x="720" 
d="M397 608q115 0 169.5 -71t31.5 -191l-68 -346h-65l67 340q19 94 -24.5 150.5t-132.5 56.5q-93 0 -160 -56.5t-86 -150.5h-2l-66 -340h-65l117 596h63l-26 -135q40 69 104.5 108t142.5 39z" />
    <glyph glyph-name="o.sinf" horiz-adv-x="724" 
d="M385 608q128 0 200 -90.5t46 -220.5q-25 -130 -132 -219.5t-235 -89.5q-129 0 -201 89.5t-47 219.5q26 131 133 221t236 90zM373 547q-103 0 -187 -72t-106 -178q-20 -104 37 -176t159 -72q101 0 186 72t105 176q22 105 -35 177.5t-159 72.5z" />
    <glyph glyph-name="p.sinf" horiz-adv-x="772" 
d="M438 608q127 0 196.5 -90t43.5 -221q-25 -129 -130 -219t-231 -90q-91 0 -150.5 46t-74.5 126l-76 -393h-65l162 829h63l-31 -162q47 82 124 128t169 46zM616 297q20 104 -37.5 177t-160.5 73q-108 0 -192.5 -70.5t-106.5 -179.5q-22 -106 36 -177t167 -71
q102 0 188 72.5t106 175.5z" />
    <glyph glyph-name="q.sinf" horiz-adv-x="772" 
d="M633 596h63l-159 -829h-66l76 389q-48 -79 -123.5 -123.5t-165.5 -44.5q-126 0 -196.5 90t-45.5 219q26 130 131.5 220.5t231.5 90.5q90 0 148 -45t75 -125zM281 49q100 0 181 63.5t107 161.5l11 48q11 100 -45.5 162.5t-157.5 62.5q-104 0 -190.5 -72.5t-108.5 -177.5
q-20 -103 39.5 -175.5t163.5 -72.5z" />
    <glyph glyph-name="r.sinf" horiz-adv-x="417" 
d="M352 608q26 0 54 -8l-13 -61q-23 10 -55 10q-70 0 -130 -52t-75 -126l-72 -371h-65l117 596h63l-20 -111q35 56 87 89.5t109 33.5z" />
    <glyph glyph-name="s.sinf" horiz-adv-x="555" 
d="M176 -12q-96 0 -149 48.5t-47 131.5h61q-4 -57 35 -91t108 -34q70 0 121 33.5t60 87.5q11 52 -22 79t-85.5 37t-105 22t-84 48t-19.5 101q15 69 81.5 113t156.5 44q84 0 135 -44t47 -115h-63q1 45 -37 75.5t-95 30.5q-61 0 -106 -28.5t-53 -71.5q-9 -42 13.5 -67t62 -33
t85.5 -19t84.5 -24.5t58.5 -50t9 -95.5q-15 -78 -86.5 -128t-165.5 -50z" />
    <glyph glyph-name="a.ss01.sinf" horiz-adv-x="624" 
d="M330 608q108 0 160 -63t32 -168l-73 -377h-62l25 121q-42 -62 -108 -97.5t-144 -35.5q-88 0 -133.5 47.5t-30.5 120.5q19 95 109 143.5t241 48.5h109l6 31q15 78 -24.5 126t-119.5 48q-69 0 -128 -42t-74 -103h-60q20 84 101 142t174 58zM180 43q88 0 158 50.5t92 125.5
l16 82h-106q-258 0 -285 -141q-10 -52 24.5 -84.5t100.5 -32.5z" />
    <glyph glyph-name="a.ss02.sinf" horiz-adv-x="638" 
d="M117 596h446l-114 -596h-66l25 123q-42 -63 -107 -99t-145 -36q-88 0 -133.5 47.5t-30.5 120.5q19 95 109 143.5t241 48.5h111l36 191h-383zM176 43q91 0 162 54t90 132l14 72h-106q-258 0 -285 -141q-11 -53 23.5 -85t101.5 -32z" />
    <glyph glyph-name="c.ss03.sinf" horiz-adv-x="671" 
d="M537 535h-371l-92 -474h370l-12 -61h-436l117 596h436z" />
    <glyph glyph-name="g.ss04.sinf" horiz-adv-x="770" 
d="M631 596h65l-161 -829h-506l10 55h442l68 348q-46 -80 -123 -126t-168 -46q-126 0 -196.5 88.5t-45.5 216.5q26 127 131 216t230 89q91 0 149.5 -44.5t73.5 -123.5zM279 55q107 0 190.5 71t103.5 177q22 107 -34.5 177.5t-163.5 70.5q-103 0 -189 -72t-108 -176
q-20 -104 39 -176t162 -72z" />
    <glyph glyph-name="h.ss05.sinf" horiz-adv-x="698" 
d="M229 860l-53 -264h447l-115 -596h-66l105 535h-381l-105 -535h-65l170 860h63z" />
    <glyph glyph-name="j.ss06.sinf" horiz-adv-x="253" 
d="M193 846q21 0 35 -15t12 -34q-6 -23 -25.5 -39.5t-40.5 -16.5q-22 0 -34.5 16.5t-6.5 39.5q2 19 20 34t40 15zM176 596l-160 -829h-65l162 829h63z" />
    <glyph glyph-name="l.ss07.sinf" horiz-adv-x="301" 
d="M229 860l-155 -799h98l-12 -61h-164l170 860h63z" />
    <glyph glyph-name="m.ss08.sinf" horiz-adv-x="1091" 
d="M1018 596l-115 -596h-65l104 535h-354l-105 -535h-67l104 535h-354l-105 -535h-65l117 596h905z" />
    <glyph glyph-name="n.ss09.sinf" horiz-adv-x="698" 
d="M623 596l-115 -596h-66l105 535h-381l-105 -535h-65l117 596h510z" />
    <glyph glyph-name="O.ss10.sinf" horiz-adv-x="948" 
d="M846 860h67l-168 -860h-735l168 860h68v-4h600v4zM690 63l144 732h-601l-143 -732h600z" />
    <glyph glyph-name="o.ss10.sinf" horiz-adv-x="698" 
d="M623 596l-115 -596h-512l117 596h510zM547 535h-381l-92 -474h381z" />
    <glyph glyph-name="r.ss11.sinf" horiz-adv-x="419" 
d="M406 596l-11 -61h-229l-105 -535h-65l117 596h293z" />
    <glyph glyph-name="S.ss12.sinf" horiz-adv-x="671" 
d="M381 860h248l-13 -63h-258q-84 0 -141.5 -39t-69.5 -101q-8 -45 7 -77.5t46 -51t72 -35t85 -27.5t84.5 -30.5t70.5 -43.5t43 -65.5t2 -97.5q-21 -105 -105.5 -167t-215.5 -62h-279l14 63h279q99 0 163 44.5t79 121.5q9 44 -6 76.5t-46 50.5t-72 34t-85.5 27.5t-85 30.5
t-70.5 43t-43 66t-2 98q17 92 99.5 148.5t199.5 56.5z" />
    <glyph glyph-name="s.ss12.sinf" horiz-adv-x="538" 
d="M172 0h-199l11 51h198q74 0 121.5 30.5t56.5 82.5q8 40 -14 65t-61 35t-84.5 22.5t-84 26t-60 47t-11.5 84.5q14 71 74 111.5t153 40.5h195l-10 -51h-199q-61 0 -100.5 -25.5t-48.5 -70.5q-6 -33 10 -55.5t46.5 -34.5t68 -20.5t75 -19.5t66.5 -27.5t43.5 -47.5t5.5 -76
q-15 -78 -81.5 -123t-170.5 -45z" />
    <glyph glyph-name="t.ss13.sinf" horiz-adv-x="419" 
d="M410 596l-13 -61h-153l-105 -535h-63l104 535h-153l10 61h153l33 164h64l-33 -164h156z" />
    <glyph glyph-name="u.ss14.sinf" horiz-adv-x="722" 
d="M647 596l-61 -322q-25 -129 -114 -207.5t-210 -78.5q-120 0 -178 78.5t-33 207.5l62 322h65l-63 -322q-19 -103 24.5 -164t134.5 -61q92 0 160 61t88 164l62 322h63z" />
    <glyph glyph-name="u.ss15.sinf" horiz-adv-x="698" 
d="M508 0h-512l117 596h63l-102 -535h383l102 535h64z" />
    <glyph glyph-name="D.ss16.sinf" horiz-adv-x="880" 
d="M469 860q178 0 274.5 -121.5t59.5 -304.5q-35 -184 -180 -309t-322 -125h-360l12 61h100l156 799h260zM735 434q32 157 -47 260t-229 103h-195l-143 -734h194q149 0 269 106.5t151 264.5z" />
    <glyph glyph-name="J.ss17.sinf" horiz-adv-x="454" 
d="M420 860l-168 -860h-322l13 63h256l155 797h66z" />
    <glyph glyph-name="L.ss18.sinf" horiz-adv-x="702" 
d="M121 63h448l-12 -63h-616l12 61h100l156 799h67z" />
    <glyph glyph-name="t.sinf" horiz-adv-x="417" 
d="M213 535l-68 -347q-27 -133 105 -133q25 0 43 6l-12 -61q-36 -6 -50 -6q-89 0 -129 47.5t-22 144.5l67 349h-120l10 61h123l33 168h65l-33 -168h170l-10 -61h-172z" />
    <glyph glyph-name="G.titl.sinf" horiz-adv-x="1003" 
d="M961 440l-13 -59h-74q-37 -167 -175 -280t-304 -113q-181 0 -279 129t-63 317q37 185 186 311.5t330 126.5q126 0 222.5 -74t111.5 -180h-76q-15 81 -93 136t-177 55q-152 0 -277.5 -109t-156.5 -266q-32 -161 52.5 -272t238.5 -111q137 0 251 97t140 233h-305l12 59h449
z" />
    <glyph glyph-name="I.titl.sinf" horiz-adv-x="411" 
d="M397 799h-98l-143 -738h98l-12 -61h-265l13 61h98l143 738h-98l12 61h265z" />
    <glyph glyph-name="J.titl.sinf" horiz-adv-x="456" 
d="M428 860l-12 -61h-99l-110 -566q-23 -120 -86 -182.5t-160 -62.5q-25 0 -33 2l13 61h18q147 0 184 195l109 553h-102l14 61h264z" />
    <glyph glyph-name="T.titl.sinf" horiz-adv-x="724" 
d="M745 797h-288l-144 -736h97l-13 -61h-264l12 61h101l143 736h-293l15 63h647z" />
    <glyph glyph-name="Y.titl.sinf" horiz-adv-x="741" 
d="M387 393l-65 -332h100l-12 -61h-267l13 61h100l63 332l-223 467h80l191 -401l342 401h79z" />
    <glyph glyph-name="u.sinf" horiz-adv-x="720" 
d="M582 596h63l-115 -596h-65l24 127q-40 -66 -102.5 -102.5t-138.5 -36.5q-115 0 -169.5 71t-31.5 191l66 346h63l-63 -340q-19 -94 24.5 -150.5t134.5 -56.5q86 0 150.5 50t87.5 134z" />
    <glyph glyph-name="v.sinf" horiz-adv-x="622" 
d="M616 596l-372 -596h-58l-141 596h70l114 -518l316 518h71z" />
    <glyph glyph-name="w.sinf" horiz-adv-x="964" 
d="M147 0l-102 596h68l77 -510l283 510h55l86 -510l277 510h67l-333 -596h-56l-84 510l-282 -510h-56z" />
    <glyph glyph-name="x.sinf" horiz-adv-x="589" 
d="M563 596l-268 -289l166 -307h-76l-137 256l-238 -256h-76l285 307l-156 289h76l129 -238l219 238h76z" />
    <glyph glyph-name="y.sinf" horiz-adv-x="618" 
d="M543 596h69l-510 -829h-67l145 233l-135 596h70l112 -520z" />
    <glyph glyph-name="z.sinf" horiz-adv-x="614" 
d="M575 596l-10 -51l-518 -484h426l-12 -61h-514l10 51l520 484h-397l10 61h485z" />
    <glyph glyph-name="zero.cv01" horiz-adv-x="1204" 
d="M797 1454q235 0 331 -156.5t39 -449.5l-53 -268q-57 -294 -209.5 -447t-388.5 -153h-22q-235 0 -330.5 157t-38.5 451l51 266q59 294 211 447t387 153h23zM764 1368q-193 0 -321 -133.5t-175 -384.5l-53 -272q-51 -251 23.5 -381.5t267.5 -130.5h20q193 0 320.5 133
t177.5 385l51 272q51 252 -23 382t-268 130h-20z" />
    <glyph glyph-name="two.cv01" horiz-adv-x="1243" 
d="M59 0l13 63q18 97 51 168t104 145t178.5 145.5t280.5 166.5q63 34 105.5 60.5t96.5 69t86.5 84t55.5 99t23 121.5q0 107 -71.5 176.5t-199.5 69.5q-162 0 -284.5 -95.5t-151.5 -256.5h-90q23 133 103.5 233.5t195 152.5t246.5 52q160 0 252 -87t92 -226q0 -57 -15 -110.5
t-37 -95t-59.5 -83.5t-70 -71t-82.5 -62.5t-82.5 -53t-83.5 -47.5q-160 -91 -249.5 -149.5t-155.5 -120.5t-95 -120.5t-45 -141.5h776l-16 -86h-871z" />
    <glyph glyph-name="three.cv01" horiz-adv-x="1165" 
d="M719 780q117 -9 202 -96.5t85 -212.5q0 -126 -77.5 -240t-205.5 -182.5t-270 -68.5q-187 0 -294 100.5t-87 257.5h86q-12 -120 75.5 -196t235.5 -76q116 0 218.5 55.5t164 149t61.5 198.5q0 122 -93 196t-255 74h-59l12 70h60q170 0 289.5 97.5t119.5 234.5
q0 99 -72.5 162t-193.5 63q-138 0 -240.5 -76.5t-134.5 -204.5h-84q39 163 173 265t304 102q151 0 245.5 -82.5t94.5 -212.5q0 -141 -106 -250.5t-254 -126.5z" />
    <glyph glyph-name="four.cv01" horiz-adv-x="1173" 
d="M1092 399l-17 -88h-213l-61 -311h-92l61 311h-764l12 78l943 1045h118l-200 -1035h213zM133 399h653l181 926z" />
    <glyph glyph-name="seven.cv01" horiz-adv-x="1054" 
d="M1184 1434l-15 -72l-919 -1362h-103l916 1348h-741l-43 -222h-91l58 308h938z" />
    <glyph glyph-name="zero.tf" horiz-adv-x="1224" 
d="M520 -20q-238 0 -334 198t-28 545q66 343 233 537t397 194q239 0 335 -197.5t28 -545.5q-66 -343 -233.5 -537t-397.5 -194zM524 68q194 0 335.5 172t201.5 483q59 308 -13 476.5t-264 168.5q-194 0 -335 -173t-199 -484q-60 -307 11.5 -475t262.5 -168z" />
    <glyph glyph-name="one.tf" horiz-adv-x="1224" 
d="M582 86h381l-15 -86h-866l16 86h391l240 1223l-393 -299l20 116l414 308h74z" />
    <glyph glyph-name="two.tf" horiz-adv-x="1224" 
d="M111 0l14 72l700 596q135 115 205.5 202t87.5 170q28 135 -56.5 231.5t-227.5 96.5q-161 0 -274.5 -94.5t-145.5 -257.5h-92q36 205 178.5 321.5t339.5 116.5q121 0 214 -56.5t136 -155t20 -214.5q-39 -190 -319 -416l-629 -526h785l-17 -86h-919z" />
    <glyph glyph-name="three.tf" horiz-adv-x="1224" 
d="M537 -20q-186 0 -298.5 96.5t-105.5 253.5h90q-2 -119 87 -191.5t237 -72.5q165 0 287 96t157 258q19 91 -8.5 167.5t-92 120.5t-157.5 56.5t-205 -23.5l13 72l581 535h-755l14 86h885l-13 -70l-591 -539q102 19 190 -5.5t144.5 -80.5t81 -141t5.5 -182
q-38 -199 -186.5 -317.5t-359.5 -118.5z" />
    <glyph glyph-name="four.tf" horiz-adv-x="1224" 
d="M1120 418l-14 -84h-213l-66 -334h-92l66 334h-735l12 74l739 1026h105l-736 -1016h631l109 557h90l-109 -557h213z" />
    <glyph glyph-name="five.tf" horiz-adv-x="1224" 
d="M528 -20q-179 0 -294 99t-103 251h90q-2 -116 87 -190t233 -74q152 0 278.5 105t155.5 257q29 160 -57.5 267.5t-243.5 107.5q-91 0 -176.5 -29t-141.5 -82h-77l210 742h685l-15 -86h-606l-166 -564q57 46 140 72.5t169 26.5q123 0 217 -63t136 -169t18 -227
q-38 -196 -188.5 -320t-350.5 -124z" />
    </font>
</defs>
</svg>
