<svg width="16" height="16" viewBox="0 0 100 100" fill="none" xmlns="http://www.w3.org/2000/svg">
<g filter="url(#filter0_d_3920_912)">
<circle cx="50.5" cy="48.5" r="43.5" fill="#5FC97D"/>
</g>
<path d="M53.8159 68.7425C51.4954 68.7425 49.1789 68.7425 46.8584 68.7425C46.3432 68.5805 45.8077 68.6291 45.2844 68.5886C43.1302 68.4265 40.9922 68.1632 38.907 67.5597C35.1544 66.4742 32.6676 64.1087 31.5195 60.3538C30.8582 58.1868 30.5783 55.959 30.412 53.7109C30.3714 53.1843 30.4201 52.6497 30.2578 52.1353C30.2578 49.709 30.2578 47.2868 30.2578 44.8605C30.4201 44.3461 30.3714 43.8114 30.412 43.2848C30.5661 41.2069 30.8217 39.1492 31.3694 37.1321C32.4363 33.2111 34.8745 30.6228 38.7934 29.4684C40.9111 28.8406 43.0896 28.5692 45.2844 28.4112C45.8361 28.3707 46.396 28.4153 46.9396 28.2573C49.2844 28.2573 51.6293 28.2573 53.9741 28.2573C54.0796 28.4153 54.2378 28.3262 54.3677 28.3343C56.7896 28.4558 59.1953 28.6867 61.5564 29.2862C65.7917 30.3596 68.5098 32.96 69.6417 37.2131C70.2867 39.6474 70.5382 42.1304 70.6518 44.6296C70.7898 47.6878 70.7776 50.7419 70.5707 53.796C70.4328 55.8456 70.165 57.8789 69.6214 59.8718C68.522 63.9102 65.9743 66.4985 61.9377 67.6205C59.8971 68.1875 57.816 68.4427 55.7105 68.6007C55.0776 68.6372 54.4366 68.5886 53.8159 68.7425ZM33.6412 48.4898C33.6412 49.9804 33.6493 51.4669 33.7426 52.9535C33.8846 55.1367 34.1037 57.3078 34.7609 59.41C35.479 61.7107 36.8989 63.3107 39.2113 64.1046C41.4791 64.8823 43.828 65.1294 46.1931 65.259C49.0613 65.417 51.9335 65.4129 54.8017 65.259C57.0371 65.1415 59.2602 64.9107 61.4144 64.2383C63.7146 63.5213 65.309 62.0915 66.1001 59.7786C66.879 57.4982 67.1224 55.1327 67.2481 52.755C67.4023 49.9115 67.3982 47.064 67.2481 44.2205C67.1305 41.9846 66.8952 39.7649 66.2339 37.606C65.4996 35.2202 64.0027 33.6121 61.6132 32.8304C59.7835 32.235 57.9012 31.9636 55.9985 31.8218C52.7125 31.5747 49.4183 31.5788 46.1282 31.7448C43.9172 31.8583 41.7265 32.1013 39.5967 32.7615C37.2802 33.4785 35.6656 34.9124 34.8826 37.2414C34.485 38.4161 34.2214 39.6231 34.051 40.8464C33.698 43.382 33.6331 45.9339 33.6412 48.4898Z" fill="white"/>
<path d="M52.1729 44.1111C52.1729 44.8605 52.1972 45.6139 52.1607 46.3632C52.1404 46.7642 52.2784 46.8331 52.6435 46.829C54.1973 46.8088 55.751 46.8088 57.3089 46.829C58.1202 46.8371 58.7491 47.4164 58.891 48.2143C59.029 48.9758 58.6152 49.7414 57.9052 50.0492C57.6334 50.1667 57.3454 50.1788 57.0533 50.1788C55.605 50.1788 54.1567 50.1788 52.7043 50.1788C52.1729 50.1788 52.1729 50.1788 52.1729 50.7338C52.1729 52.2608 52.1851 53.7919 52.1648 55.319C52.1526 56.1331 51.5806 56.7569 50.7773 56.9027C50.0187 57.0405 49.252 56.6233 48.9437 55.9144C48.8301 55.6552 48.8138 55.3797 48.8138 55.1003C48.8138 53.6097 48.7976 52.1231 48.826 50.6325C48.8341 50.2315 48.7043 50.1667 48.3392 50.1707C46.7854 50.191 45.2316 50.191 43.6738 50.1707C42.8584 50.1586 42.2336 49.5834 42.0916 48.7814C41.9537 48.0199 42.3675 47.2544 43.0815 46.9465C43.3411 46.8331 43.617 46.8169 43.8929 46.8169C45.3696 46.8169 46.8463 46.7966 48.3189 46.829C48.753 46.8371 48.826 46.6954 48.8219 46.3025C48.8017 44.7592 48.8017 43.22 48.8219 41.6768C48.8301 40.8626 49.4061 40.2388 50.2094 40.093C50.9721 39.9553 51.7348 40.3684 52.0431 41.0813C52.1486 41.3284 52.1729 41.5876 52.1729 41.855C52.1729 42.6084 52.1729 43.3577 52.1729 44.1111Z" fill="white"/>
<defs>
<filter id="filter0_d_3920_912" x="0" y="0" width="101" height="101" filterUnits="userSpaceOnUse" color-interpolation-filters="sRGB">
<feFlood flood-opacity="0" result="BackgroundImageFix"/>
<feColorMatrix in="SourceAlpha" type="matrix" values="0 0 0 0 0 0 0 0 0 0 0 0 0 0 0 0 0 0 127 0" result="hardAlpha"/>
<feMorphology radius="1" operator="dilate" in="SourceAlpha" result="effect1_dropShadow_3920_912"/>
<feOffset dy="2"/>
<feGaussianBlur stdDeviation="3"/>
<feComposite in2="hardAlpha" operator="out"/>
<feColorMatrix type="matrix" values="0 0 0 0 0 0 0 0 0 0 0 0 0 0 0 0 0 0 0.15 0"/>
<feBlend mode="normal" in2="BackgroundImageFix" result="effect1_dropShadow_3920_912"/>
<feBlend mode="normal" in="SourceGraphic" in2="effect1_dropShadow_3920_912" result="shape"/>
</filter>
</defs>
</svg>
