<svg width="16" height="16" viewBox="0 0 20 20" fill="none" xmlns="http://www.w3.org/2000/svg">
  <g clip-path="url(#clip0_4106_6786)">
    <path
      d="M17.9533 1.20818H13.0389V0.971747C13.0389 0.201948 12.4039 0.0644836 11.6286 0.0644836H7.59124C6.81594 0.0644836 6.18635 0.201948 6.18635 0.971747V1.20818H1.29126C1.18127 1.208 1.07233 1.22953 0.970679 1.27154C0.869029 1.31355 0.77667 1.37521 0.698896 1.45298C0.621123 1.53075 0.559466 1.62311 0.517459 1.72476C0.475452 1.82641 0.453922 1.93535 0.454103 2.04534V3.66192C0.454103 3.88395 0.542303 4.09688 0.6993 4.25388C0.856297 4.41087 1.06923 4.49907 1.29126 4.49907H17.9533C18.1753 4.49907 18.3882 4.41087 18.5452 4.25388C18.7022 4.09688 18.7904 3.88395 18.7904 3.66192V2.04534C18.7904 1.82331 18.7022 1.61038 18.5452 1.45338C18.3882 1.29638 18.1753 1.20818 17.9533 1.20818Z"
      fill="#BDBDBD"/>
    <path
      d="M16.1964 6.72324H3.04795C2.92975 6.72428 2.81311 6.75029 2.70567 6.79958C2.59824 6.84887 2.50244 6.92032 2.42455 7.00923C2.34667 7.09815 2.28847 7.20252 2.25376 7.31552C2.21905 7.42851 2.20863 7.54756 2.22316 7.66486L3.57169 17.8674C3.62198 18.2641 3.8146 18.6289 4.11372 18.8941C4.41284 19.1594 4.79811 19.307 5.19789 19.3094H14.0464C14.4474 19.3086 14.8343 19.1618 15.1349 18.8964C15.4355 18.631 15.6291 18.2652 15.6795 17.8674L17.0267 7.66486C17.0415 7.54706 17.0311 7.42746 16.9961 7.31399C16.9612 7.20052 16.9025 7.09578 16.824 7.00672C16.7455 6.91767 16.6489 6.84634 16.5407 6.79746C16.4325 6.74858 16.3151 6.72328 16.1964 6.72324Z"
      fill="#BDBDBD"/>
  </g>
</svg>
