<svg width="16" height="16" viewBox="0 0 18 18" fill="none" xmlns="http://www.w3.org/2000/svg">
  <g clip-path="url(#clip0_4106_6789)">
    <path fill-rule="evenodd" clip-rule="evenodd"
          d="M10.6711 0.52972L1.38053 9.92701L0.094815 15.8413C0.031022 16.1331 0.0416231 16.4363 0.125644 16.723C0.209664 17.0097 0.364408 17.2707 0.575647 17.4819C0.786886 17.6931 1.04784 17.8479 1.33452 17.9319C1.6212 18.0159 1.9244 18.0265 2.21624 17.9627L8.13053 16.677L17.434 7.26429C17.7654 6.9293 17.9507 6.47676 17.9495 6.00554C17.9483 5.53431 17.7607 5.08272 17.4275 4.74943L13.2014 0.522005C13.035 0.355818 12.8375 0.224141 12.6201 0.134541C12.4027 0.044941 12.1698 -0.000815378 11.9346 -9.8517e-05C11.6995 0.000618344 11.4668 0.0477943 11.25 0.138718C11.0332 0.229642 10.8364 0.362521 10.6711 0.52972ZM3.61253 16.0264L2.02596 14.4411L2.83596 10.7216L7.33596 15.2216L3.61253 16.0264Z"
          fill="#BDBDBD"/>
  </g>
  <defs>
    <clipPath id="clip0_4106_6789">
      <rect width="18" height="18" fill="white"/>
    </clipPath>
  </defs>
</svg>
