<svg width="16" height="16" viewBox="0 0 16 16" fill="none" xmlns="http://www.w3.org/2000/svg">
<path d="M15.6742 5.87528C15.5558 4.61143 15.0155 3.47044 14.0758 2.49727C11.9551 0.300946 9.20882 -0.365664 6.04477 0.239711C3.84416 0.660993 2.21076 1.80896 1.15847 3.52509C0.191436 5.10209 0.0132875 6.75388 0.713767 8.4518C1.00724 9.16337 1.44252 9.80711 2.02363 10.3733C2.11652 10.464 2.11248 10.5117 2.01017 10.5873C1.87914 10.6849 1.75843 10.7942 1.64176 10.9051C1.3595 11.1725 1.24956 11.4887 1.33078 11.8426C1.45418 12.3786 1.95498 12.7216 2.60699 12.7235C3.62159 12.7262 4.63663 12.7243 5.65168 12.7243C6.48723 12.7243 7.32233 12.7247 8.15788 12.7243C8.50026 12.7243 8.8422 12.7076 9.18055 12.6662C10.9077 12.4542 12.4002 11.8248 13.6002 10.7322C15.0913 9.37459 15.8515 7.76232 15.6742 5.87528ZM7.97659 8.77425C6.65595 8.77774 5.33577 8.77774 4.01513 8.77425C3.58614 8.77309 3.25631 8.49908 3.19708 8.11191C3.13471 7.70574 3.33081 7.34608 3.68576 7.20384C3.80198 7.15734 3.9209 7.15772 4.04026 7.15734C4.51906 7.15656 4.99787 7.15656 5.47712 7.15656C5.79527 7.15617 6.11388 7.15617 6.43203 7.15617C6.64069 7.15617 6.84981 7.15579 7.05847 7.15579C7.35688 7.1554 7.65484 7.1554 7.95325 7.15656C7.95909 7.15656 7.96447 7.15695 7.96986 7.15734C7.97255 7.15734 7.97479 7.15734 7.97748 7.15734C7.9887 7.15734 7.99992 7.1585 8.01114 7.15889C8.01338 7.15889 8.01563 7.15889 8.01787 7.15927C8.49174 7.17865 8.81662 7.49762 8.82201 7.95029C8.82829 8.42816 8.48097 8.77309 7.97659 8.77425ZM12.0933 5.60088C11.6975 5.60166 11.3013 5.60166 10.9055 5.60166C10.8822 5.60359 10.8584 5.60476 10.8337 5.60476C9.89225 5.60631 8.95035 5.60553 8.0089 5.60553C7.05623 5.60553 6.10311 5.60669 5.15044 5.60476C5.13069 5.60476 5.11185 5.60359 5.093 5.60243C4.71965 5.60204 4.3463 5.60166 3.97295 5.60049C3.60768 5.59933 3.32722 5.38462 3.22131 5.0486C3.12124 4.7308 3.22356 4.37385 3.47485 4.16302C3.62518 4.03706 3.80018 3.98435 3.98865 3.98435C6.69544 3.98358 9.40223 3.98164 12.109 3.98551C12.5838 3.98629 12.9172 4.33045 12.919 4.79204C12.9212 5.26951 12.5905 5.59972 12.0933 5.60088Z" fill="#BDBDBD"/>
</svg>
