<svg width="16" height="16" viewBox="0 0 20 18" fill="none" xmlns="http://www.w3.org/2000/svg">
  <path
    d="M20 5.58885C20 8.86339 20 12.1385 20 15.413C19.9208 15.5063 19.9312 15.6271 19.9015 15.7355C19.5321 17.086 18.3687 17.9592 16.9214 17.9597C12.3073 17.9613 7.69271 17.9602 3.07865 17.9602C3.00727 17.9602 2.93537 17.9592 2.86399 17.9561C1.56928 17.9019 0.461615 17.0214 0.108891 15.773C0.0750254 15.6527 0.0854456 15.5177 0 15.413C0 11.1246 0 6.83615 0 2.54772C0.0729414 2.5102 0.0494959 2.43309 0.0625212 2.3763C0.384505 0.958635 1.5573 0.00570842 3.01925 0.00310337C6.3386 -0.00262773 9.65744 0.00154034 12.9768 0.000498325C13.3847 0.000498325 13.7823 0.0609355 14.1543 0.229222C15.2375 0.720013 15.8653 1.55154 15.9788 2.74049C15.9992 2.95098 16.058 3.01246 16.2644 2.99474C16.5035 2.97442 16.7458 2.98745 16.9865 2.99057C18.3843 3.00777 19.5436 3.89817 19.9036 5.22571C19.937 5.34658 19.925 5.47944 20 5.58885ZM14.1564 15.9637C13.8938 15.0577 14.0058 14.1438 14.0021 13.2394C13.9902 9.86842 13.9881 6.49697 14.0047 3.12604C14.0084 2.41017 13.503 1.98555 12.8705 1.98919C9.62305 2.00691 6.37507 2.00691 3.12762 1.98971C2.45291 1.98607 1.98869 2.45654 1.99078 3.1276C2.0038 7.03152 2.0038 10.9355 1.99078 14.8389C1.98869 15.4932 2.44093 15.9752 3.13283 15.9715C6.73197 15.9543 10.3311 15.9637 13.9302 15.9637C14.0011 15.9637 14.072 15.9637 14.1564 15.9637ZM16.0028 10.0753C16.0028 11.6607 16.0028 13.2461 16.0033 14.8316C16.0033 14.9675 15.9997 15.104 16.0382 15.2374C16.1794 15.7246 16.6374 16.0231 17.1459 15.9569C17.6367 15.8929 18.0014 15.4646 18.0019 14.9311C18.004 11.9618 18.0045 8.99261 18.0019 6.02285C18.0014 5.41639 17.5789 5.00167 16.9682 4.99229C16.7077 4.98812 16.4467 5.00271 16.1873 4.9876C16.0257 4.97823 15.9997 5.03762 15.9997 5.18298C16.0044 6.81322 16.0028 8.4445 16.0028 10.0753ZM7.99854 3.99039C8.96866 3.99039 9.93878 3.98987 10.9089 3.99039C11.5919 3.99091 11.9968 4.39626 11.9973 5.08191C11.9983 6.349 11.9983 7.6161 11.9973 8.88319C11.9968 9.57718 11.5919 9.98044 10.8922 9.98096C8.96501 9.982 7.03832 9.982 5.11111 9.98096C4.40514 9.98044 3.99875 9.57301 3.99771 8.86704C3.99667 7.61297 3.99667 6.3589 3.99771 5.10483C3.99823 4.39522 4.40253 3.99091 5.10798 3.99039C6.07133 3.99039 7.03467 3.99039 7.99854 3.99039ZM8.00323 7.97976C8.61437 7.97976 9.22604 7.97716 9.83718 7.98185C9.95389 7.98289 10.006 7.96778 10.0039 7.82867C9.99453 7.26442 9.99713 6.69964 10.0023 6.13487C10.0034 6.02181 9.98359 5.97961 9.85594 5.98013C8.62063 5.98534 7.38479 5.98534 6.14948 5.98065C6.02391 5.98013 5.99943 6.02181 6.00047 6.13643C6.00568 6.69443 6.00724 7.25295 5.99943 7.81096C5.99734 7.9459 6.03017 7.98549 6.16928 7.98341C6.78094 7.97559 7.39209 7.97976 8.00323 7.97976ZM10.9464 13.9719C11.1392 13.9724 11.3215 13.937 11.4893 13.8427C11.878 13.6239 12.078 13.1685 11.9728 12.747C11.8571 12.2838 11.4815 11.9801 10.9964 11.9796C8.99888 11.9764 7.00185 11.978 5.0043 11.979C4.92667 11.979 4.84747 11.9848 4.77245 12.0025C4.28531 12.1197 3.95342 12.5766 4.00448 13.0544C4.06023 13.5822 4.46662 13.9656 4.99336 13.9688C5.99526 13.9745 6.99716 13.9703 7.99906 13.9703C8.98169 13.9709 9.96431 13.9698 10.9464 13.9719Z"
    fill="#BDBDBD"/>
</svg>
