<svg width="13" height="15" viewBox="0 0 13 15" fill="none" xmlns="http://www.w3.org/2000/svg">
  <path
    d="M9.625 9.5C8.91406 9.5 8.28516 9.77344 7.79297 10.2383L5.11328 8.54297C5.27734 8.05078 5.27734 7.47656 5.11328 6.98438L7.79297 5.28906C8.28516 5.72656 8.91406 6 9.625 6C11.0742 6 12.25 4.82422 12.25 3.375C12.25 1.92578 11.0742 0.75 9.625 0.75C8.17578 0.75 7 1.92578 7 3.375C7 3.64844 7.02734 3.92188 7.10938 4.16797L4.42969 5.86328C3.9375 5.39844 3.30859 5.125 2.625 5.125C1.17578 5.125 0 6.30078 0 7.75C0 9.19922 1.17578 10.375 2.625 10.375C3.30859 10.375 3.9375 10.1016 4.42969 9.66406L7.10938 11.3594C7.02734 11.6055 7 11.8789 7 12.125C7 13.5742 8.17578 14.75 9.625 14.75C11.0742 14.75 12.25 13.5742 12.25 12.125C12.25 10.6758 11.0742 9.5 9.625 9.5ZM9.625 2.0625C10.3359 2.0625 10.9375 2.66406 10.9375 3.375C10.9375 4.11328 10.3359 4.6875 9.625 4.6875C8.88672 4.6875 8.3125 4.11328 8.3125 3.375C8.3125 2.66406 8.88672 2.0625 9.625 2.0625ZM2.625 9.0625C1.88672 9.0625 1.3125 8.48828 1.3125 7.75C1.3125 7.03906 1.88672 6.4375 2.625 6.4375C3.33594 6.4375 3.9375 7.03906 3.9375 7.75C3.9375 8.48828 3.33594 9.0625 2.625 9.0625ZM9.625 13.4375C8.88672 13.4375 8.3125 12.8633 8.3125 12.125C8.3125 11.4141 8.88672 10.8125 9.625 10.8125C10.3359 10.8125 10.9375 11.4141 10.9375 12.125C10.9375 12.8633 10.3359 13.4375 9.625 13.4375Z"
    fill="#BDBDBD"/>
</svg>
