<svg width="16" height="16" viewBox="0 0 25 24" fill="none" xmlns="http://www.w3.org/2000/svg">
<path d="M12.5285 8.09281C13.332 8.09281 14.1026 7.77362 14.6708 7.20545C15.239 6.63728 15.5582 5.86668 15.5582 5.06317C15.5582 4.25967 15.239 3.48907 14.6708 2.9209C14.1026 2.35273 13.332 2.03354 12.5285 2.03354C11.725 2.03354 10.9544 2.35273 10.3863 2.9209C9.81809 3.48907 9.49889 4.25967 9.49889 5.06317C9.49889 5.86668 9.81809 6.63728 10.3863 7.20545C10.9544 7.77362 11.725 8.09281 12.5285 8.09281ZM7.98408 5.44188C7.98408 5.79 7.91551 6.13472 7.78229 6.45635C7.64906 6.77797 7.4538 7.07021 7.20764 7.31637C6.96147 7.56253 6.66924 7.7578 6.34761 7.89102C6.02599 8.02424 5.68127 8.09281 5.33314 8.09281C4.98502 8.09281 4.6403 8.02424 4.31868 7.89102C3.99705 7.7578 3.70482 7.56253 3.45865 7.31637C3.21249 7.07021 3.01723 6.77797 2.884 6.45635C2.75078 6.13472 2.68221 5.79 2.68221 5.44188C2.68221 4.73881 2.96151 4.06453 3.45865 3.56739C3.9558 3.07024 4.63007 2.79095 5.33314 2.79095C6.03622 2.79095 6.71049 3.07024 7.20764 3.56739C7.70478 4.06453 7.98408 4.73881 7.98408 5.44188ZM22.3748 5.44188C22.3748 5.79 22.3063 6.13472 22.1731 6.45635C22.0398 6.77797 21.8446 7.07021 21.5984 7.31637C21.3522 7.56253 21.06 7.7578 20.7384 7.89102C20.4168 8.02424 20.072 8.09281 19.7239 8.09281C19.3758 8.09281 19.0311 8.02424 18.7094 7.89102C18.3878 7.7578 18.0956 7.56253 17.8494 7.31637C17.6033 7.07021 17.408 6.77797 17.2748 6.45635C17.1416 6.13472 17.073 5.79 17.073 5.44188C17.073 4.73881 17.3523 4.06453 17.8494 3.56739C18.3466 3.07024 19.0208 2.79095 19.7239 2.79095C20.427 2.79095 21.1013 3.07024 21.5984 3.56739C22.0956 4.06453 22.3748 4.73881 22.3748 5.44188ZM7.51221 9.60763C7.08121 10.1445 6.84682 10.8127 6.84796 11.5011V17.1817C6.84796 18.1171 7.07367 18.9995 7.47434 19.7774C6.89709 20.0809 6.25125 20.2302 5.59936 20.2108C4.94746 20.1914 4.31162 20.004 3.75342 19.6668C3.19522 19.3295 2.73358 18.8538 2.41321 18.2857C2.09284 17.7177 1.92461 17.0765 1.9248 16.4243V11.5011C1.9248 10.999 2.1243 10.5173 2.4794 10.1622C2.83451 9.80712 3.31613 9.60763 3.81833 9.60763H7.51221ZM11.0137 17.1817C11.0137 13.7832 13.501 10.9657 16.7549 10.4491C16.5819 10.19 16.3475 9.97757 16.0727 9.83077C15.7979 9.68397 15.491 9.60732 15.1795 9.60763H9.8776C9.3754 9.60763 8.89378 9.80712 8.53868 10.1622C8.18357 10.5173 7.98408 10.999 7.98408 11.5011V17.1817C7.98409 17.7967 8.10895 18.4053 8.35107 18.9707C8.5932 19.536 8.94756 20.0464 9.39269 20.4707C9.83782 20.8951 10.3645 21.2247 10.9407 21.4396C11.517 21.6545 12.1308 21.7502 12.7451 21.7209C11.628 20.4731 11.0114 18.8565 11.0137 17.1817ZM17.5448 9.60763C17.7274 9.83636 17.8781 10.0916 17.9894 10.3666C18.9791 10.3887 19.952 10.6266 20.8402 11.0635C21.7285 11.5004 22.5107 12.1259 23.1323 12.8963V11.5011C23.1323 10.999 22.9328 10.5173 22.5777 10.1622C22.2225 9.80712 21.7409 9.60763 21.2387 9.60763H17.5448ZM17.8304 11.5011C19.337 11.5011 20.7818 12.0996 21.8472 13.1649C22.9125 14.2303 23.511 15.6751 23.511 17.1817C23.511 18.6883 22.9125 20.1332 21.8472 21.1985C20.7818 22.2638 19.337 22.8623 17.8304 22.8623C16.3238 22.8623 14.8789 22.2638 13.8136 21.1985C12.7483 20.1332 12.1498 18.6883 12.1498 17.1817C12.1498 15.6751 12.7483 14.2303 13.8136 13.1649C14.8789 12.0996 16.3238 11.5011 17.8304 11.5011ZM19.8905 14.3187L17.8304 16.3789L15.7702 14.3187C15.7182 14.2629 15.6555 14.2181 15.5858 14.1871C15.5162 14.156 15.4409 14.1393 15.3647 14.138C15.2884 14.1367 15.2126 14.1507 15.1419 14.1793C15.0712 14.2078 15.0069 14.2503 14.953 14.3043C14.899 14.3582 14.8565 14.4225 14.8279 14.4932C14.7994 14.564 14.7853 14.6397 14.7867 14.716C14.788 14.7923 14.8047 14.8675 14.8358 14.9372C14.8668 15.0068 14.9116 15.0696 14.9674 15.1216L17.0275 17.1817L14.9674 19.2419C14.9116 19.2939 14.8668 19.3566 14.8358 19.4263C14.8047 19.4959 14.788 19.5712 14.7867 19.6474C14.7853 19.7237 14.7994 19.7995 14.8279 19.8702C14.8565 19.9409 14.899 20.0052 14.953 20.0591C15.0069 20.1131 15.0712 20.1556 15.1419 20.1842C15.2126 20.2127 15.2884 20.2268 15.3647 20.2254C15.4409 20.2241 15.5162 20.2074 15.5858 20.1763C15.6555 20.1453 15.7182 20.1005 15.7702 20.0447L17.8304 17.9846L19.8905 20.0447C19.9425 20.1005 20.0053 20.1453 20.0749 20.1763C20.1446 20.2074 20.2198 20.2241 20.2961 20.2254C20.3724 20.2268 20.4482 20.2127 20.5189 20.1842C20.5896 20.1556 20.6539 20.1131 20.7078 20.0591C20.7618 20.0052 20.8043 19.9409 20.8329 19.8702C20.8614 19.7995 20.8755 19.7237 20.8741 19.6474C20.8728 19.5712 20.8561 19.4959 20.825 19.4263C20.794 19.3566 20.7492 19.2939 20.6934 19.2419L18.6332 17.1817L20.6934 15.1216C20.7492 15.0696 20.794 15.0068 20.825 14.9372C20.8561 14.8675 20.8728 14.7923 20.8741 14.716C20.8755 14.6397 20.8614 14.564 20.8329 14.4932C20.8043 14.4225 20.7618 14.3582 20.7078 14.3043C20.6539 14.2503 20.5896 14.2078 20.5189 14.1793C20.4482 14.1507 20.3724 14.1367 20.2961 14.138C20.2198 14.1393 20.1446 14.156 20.0749 14.1871C20.0053 14.2181 19.9425 14.2629 19.8905 14.3187Z" fill="#BDBDBD"/>
</svg>
