<svg width="25" height="25" viewBox="0 0 25 25" fill="none" xmlns="http://www.w3.org/2000/svg">
  <g id="fluent:people-team-32-filled">
    <path id="Vector"
          d="M12.3244 8.93394C13.1279 8.93394 13.8985 8.61474 14.4667 8.04658C15.0349 7.47841 15.3541 6.70781 15.3541 5.9043C15.3541 5.10079 15.0349 4.33019 14.4667 3.76202C13.8985 3.19386 13.1279 2.87466 12.3244 2.87466C11.5209 2.87466 10.7503 3.19386 10.1822 3.76202C9.61399 4.33019 9.29479 5.10079 9.29479 5.9043C9.29479 6.70781 9.61399 7.47841 10.1822 8.04658C10.7503 8.61474 11.5209 8.93394 12.3244 8.93394ZM7.77997 6.283C7.77997 6.63113 7.71141 6.97585 7.57818 7.29747C7.44496 7.6191 7.2497 7.91133 7.00353 8.1575C6.75737 8.40366 6.46514 8.59892 6.14351 8.73215C5.82189 8.86537 5.47717 8.93394 5.12904 8.93394C4.78092 8.93394 4.4362 8.86537 4.11458 8.73215C3.79295 8.59892 3.50071 8.40366 3.25455 8.1575C3.00839 7.91133 2.81312 7.6191 2.6799 7.29747C2.54668 6.97585 2.47811 6.63113 2.47811 6.283C2.47811 5.57993 2.75741 4.90566 3.25455 4.40851C3.7517 3.91137 4.42597 3.63207 5.12904 3.63207C5.83211 3.63207 6.50639 3.91137 7.00353 4.40851C7.50068 4.90566 7.77997 5.57993 7.77997 6.283ZM22.1707 6.283C22.1707 6.63113 22.1022 6.97585 21.969 7.29747C21.8357 7.6191 21.6405 7.91133 21.3943 8.1575C21.1481 8.40366 20.8559 8.59892 20.5343 8.73215C20.2127 8.86537 19.8679 8.93394 19.5198 8.93394C19.1717 8.93394 18.827 8.86537 18.5053 8.73215C18.1837 8.59892 17.8915 8.40366 17.6453 8.1575C17.3992 7.91133 17.2039 7.6191 17.0707 7.29747C16.9375 6.97585 16.8689 6.63113 16.8689 6.283C16.8689 5.57993 17.1482 4.90566 17.6453 4.40851C18.1425 3.91137 18.8167 3.63207 19.5198 3.63207C20.2229 3.63207 20.8972 3.91137 21.3943 4.40851C21.8915 4.90566 22.1707 5.57993 22.1707 6.283ZM7.30811 10.4488C6.87711 10.9856 6.64272 11.6538 6.64386 12.3423V18.0228C6.64386 18.9582 6.86957 19.8406 7.27024 20.6185C6.69299 20.922 6.04715 21.0713 5.39525 21.0519C4.74336 21.0326 4.10752 20.8452 3.54932 20.5079C2.99112 20.1706 2.52948 19.6949 2.20911 19.1269C1.88874 18.5588 1.72051 17.9176 1.7207 17.2654V12.3423C1.7207 11.8401 1.9202 11.3585 2.2753 11.0034C2.63041 10.6482 3.11203 10.4488 3.61423 10.4488H7.30811ZM17.3786 20.6185C17.7916 19.8157 18.0063 18.9256 18.005 18.0228V12.3423C18.005 11.6258 17.7566 10.9676 17.3407 10.4488H21.0346C21.5368 10.4488 22.0184 10.6482 22.3736 11.0034C22.7287 11.3585 22.9282 11.8401 22.9282 12.3423V17.2654C22.9283 17.9176 22.7601 18.5588 22.4397 19.1269C22.1194 19.6949 21.6577 20.1706 21.0995 20.5079C20.5413 20.8452 19.9055 21.0326 19.2536 21.0519C18.6017 21.0713 17.9559 20.922 17.3786 20.6185ZM9.6735 10.4488C9.1713 10.4488 8.68968 10.6482 8.33457 11.0034C7.97947 11.3585 7.77997 11.8401 7.77997 12.3423V18.0228C7.77997 19.2281 8.25876 20.384 9.11101 21.2363C9.96326 22.0885 11.1192 22.5673 12.3244 22.5673C13.5297 22.5673 14.6856 22.0885 15.5378 21.2363C16.3901 20.384 16.8689 19.2281 16.8689 18.0228V12.3423C16.8689 11.8401 16.6694 11.3585 16.3143 11.0034C15.9592 10.6482 15.4776 10.4488 14.9754 10.4488H9.6735Z"
          fill="#BDBDBD"/>
  </g>
</svg>
