<svg width="16" height="16" viewBox="0 0 17 11" fill="none" xmlns="http://www.w3.org/2000/svg">
<path id="Vector" d="M6.45735 10.8128C4.81803 10.8128 3.1787 10.814 1.5389 10.8124C0.976378 10.8119 0.584639 10.4422 0.6956 10.0113C0.735159 9.85768 0.80463 9.70856 0.876513 9.56273C1.35799 8.58216 2.26207 8.03622 3.44115 7.77948C4.43015 7.56422 5.44085 7.533 6.45445 7.53259C7.46757 7.53218 8.47779 7.56627 9.46824 7.77701C10.8191 8.06415 11.7569 8.7358 12.1848 9.88315C12.373 10.3884 12.0189 10.8111 11.3941 10.8124C9.92945 10.8152 8.46477 10.8132 7.00009 10.8132C6.81869 10.8128 6.63826 10.8128 6.45735 10.8128ZM6.45976 6.8782C8.36973 6.87778 9.93186 5.55216 9.93475 3.92911C9.93765 2.29703 8.37455 0.971403 6.45204 0.976332C4.53001 0.981672 2.98911 2.2958 2.99152 3.92829C2.99345 5.55667 4.54834 6.87902 6.45976 6.8782ZM14.544 3.68674C14.3548 1.97292 12.0001 1.04493 10.3405 2.02796C10.2184 2.10026 10.1683 2.1664 10.2406 2.29292C10.8634 3.37988 10.8639 4.46931 10.2401 5.55626C10.174 5.6717 10.203 5.74276 10.325 5.8126C10.7877 6.07715 11.2943 6.21559 11.8524 6.21682C13.4532 6.22955 14.6959 5.06126 14.544 3.68674ZM10.5914 6.89832C10.4606 6.89956 10.3554 6.94844 10.3217 7.06511C10.286 7.18834 10.341 7.28734 10.4596 7.358C10.518 7.39292 10.5865 7.41551 10.6517 7.44139C11.2446 7.67678 11.7535 8.00377 12.1573 8.44373C12.2794 8.57682 12.386 8.71978 12.511 8.85082C12.9153 9.27476 13.4189 9.52411 14.0847 9.50111C14.4634 9.48837 14.8436 9.49946 15.2227 9.49864C15.8943 9.497 16.2585 9.03198 16.0077 8.50083C15.6589 7.76263 15.0042 7.32144 14.1247 7.10085C13.319 6.89874 12.4907 6.86546 11.6575 6.89668C11.3015 6.89709 10.9464 6.89463 10.5914 6.89832Z" fill="#BDBDBD"/>
</svg>
