<svg width="58" height="68" viewBox="0 0 58 68" fill="none" xmlns="http://www.w3.org/2000/svg">
<rect width="57.8" height="68" rx="4" fill="white"/>
<rect width="57.8" height="68" rx="4" fill="#FE4D97" fill-opacity="0.08"/>
<path fill-rule="evenodd" clip-rule="evenodd" d="M19.661 47.4292C18.8425 47.4292 18.1993 46.9615 17.907 46.6691C16.913 45.4998 16.913 44.5058 17.0884 43.8627C17.2054 43.278 17.5562 42.7518 18.0824 42.401C18.8425 41.8163 20.9472 40.3547 24.0459 39.0684C25.683 36.0866 26.7939 33.6895 27.5539 31.7601C26.2676 29.3045 25.7999 27.3167 25.683 26.3227C25.5661 25.5042 25.6246 24.6857 25.8584 23.9841C26.4431 22.1132 27.7293 22.0546 28.2555 22.1132C28.3725 22.1132 30.4187 22.4055 30.7695 25.3288C30.7695 25.3357 30.7704 25.3488 30.7716 25.3681C30.7909 25.676 30.91 27.5761 29.4248 31.7016C30.4187 33.3971 31.8219 35.2681 33.9853 37.0806C36.0315 37.0806 38.2533 37.256 40.592 37.8407C41.1182 37.9576 41.5859 38.2499 41.9367 38.6592C42.5214 39.3024 42.6383 40.1209 42.3459 40.9394C42.3459 40.9394 42.229 41.3487 41.8782 41.758C41.235 42.6349 40.0073 42.9273 39.0133 42.4011C36.7917 41.2318 34.9207 40.004 33.4005 38.7178C30.3018 38.8347 27.5539 39.5363 25.3321 40.4133C24.3382 42.2257 23.1104 44.2136 21.7072 46.4353C21.4148 46.8445 21.064 47.1954 20.5963 47.3708C20.3632 47.3707 20.168 47.3897 19.9999 47.406L19.9999 47.406C19.873 47.4184 19.7616 47.4292 19.661 47.4292ZM22.5258 41.5241C20.7718 42.4596 19.544 43.2781 19.0763 43.6873C18.9009 43.8627 18.7255 44.0381 18.7255 44.2135C18.6085 44.6227 18.7839 45.032 19.1932 45.4998C19.1932 45.4998 19.544 45.7921 19.8948 45.6752C20.0118 45.6167 20.1286 45.5582 20.1872 45.3828C20.4396 44.9681 20.692 44.559 20.941 44.1554L20.941 44.1554L20.941 44.1554C21.4994 43.2503 22.0406 42.3732 22.5258 41.5241ZM39.6565 40.8225C38.3702 40.1793 37.2009 39.4192 36.1485 38.7177C37.4348 38.8346 38.7211 39.01 40.0073 39.3608C40.2411 39.4193 40.4165 39.5362 40.5335 39.6532C40.7088 39.8286 40.7089 39.9455 40.5919 40.2379C40.5919 40.2379 40.5335 40.4133 40.3581 40.6471C40.1827 40.8809 39.8903 40.9394 39.6565 40.8225ZM28.5478 33.5142C27.9631 34.8589 27.2616 36.379 26.3262 38.133C27.9048 37.6653 29.6003 37.2561 31.4712 37.0807C30.3019 35.8528 29.308 34.625 28.5478 33.5142ZM27.3785 24.4518C27.554 23.9255 27.7294 23.6917 27.9632 23.6917C28.0217 23.6917 28.8402 23.8671 29.0156 25.4458C29.0156 25.4458 29.1325 26.6151 28.2555 29.4215C27.6123 27.9014 27.3785 26.732 27.2616 26.0305C27.2031 25.4458 27.2031 24.9196 27.3785 24.4518Z" fill="#E56353"/>
</svg>
