<svg width="58" height="68" viewBox="0 0 58 68" fill="none" xmlns="http://www.w3.org/2000/svg">
<rect width="57.8" height="68" rx="4" fill="white"/>
<rect width="57.8" height="68" rx="4" fill="#FE4D97" fill-opacity="0.08"/>
<path fill-rule="evenodd" clip-rule="evenodd" d="M22.1 46.1833C22.1 46.9657 22.7343 47.6 23.5167 47.6C24.2992 47.6 24.9334 46.9657 24.9334 46.183V39.0998H29.1834C33.0953 39.0998 36.2666 35.9285 36.2666 32.0165V29.1832C36.2666 25.2713 33.0953 22.1 29.1834 22.1H23.5167C22.7343 22.1 22.1 22.7343 22.1 23.5167V46.1833ZM29.1834 36.2666H24.9334V24.9334H29.1834C31.5305 24.9334 33.4333 26.8362 33.4333 29.1834V32.0166C33.4333 34.3638 31.5305 36.2666 29.1834 36.2666Z" fill="#FE4D97"/>
</svg>
