<svg width="58" height="68" viewBox="0 0 58 68" fill="none" xmlns="http://www.w3.org/2000/svg">
<rect width="57.8" height="68" rx="4" fill="white"/>
<rect width="57.8" height="68" rx="4" fill="#4D7CFE" fill-opacity="0.08"/>
<path d="M34.1916 44.9798C33.6028 44.9792 33.0855 44.589 32.923 44.023L28.9057 29.9678L24.8883 44.023C24.5982 44.7244 23.7944 45.0577 23.0929 44.7676C22.7557 44.6281 22.4879 44.3603 22.3484 44.023L17.0625 25.5224C16.8413 24.8269 17.2258 24.0838 17.9213 23.8625C18.6168 23.6413 19.3599 24.0258 19.5812 24.7213C19.589 24.7459 19.5961 24.7706 19.6025 24.7955L23.6197 38.8481L27.637 24.7929C27.9272 24.0916 28.731 23.7582 29.4324 24.0484C29.7697 24.1879 30.0375 24.4557 30.177 24.7929L34.1916 38.8482L38.2089 24.7957C38.3991 24.1001 39.1172 23.6904 39.8127 23.8806C39.8226 23.8833 39.8324 23.8862 39.8423 23.889C40.5435 24.09 40.9492 24.8211 40.7488 25.5224L35.4628 44.023C35.3 44.5899 34.7813 44.9803 34.1916 44.9798Z" fill="#4D7CFE"/>
</svg>
