<svg width="58" height="68" viewBox="0 0 58 68" fill="none" xmlns="http://www.w3.org/2000/svg">
<rect width="57.8" height="68" rx="4" fill="white"/>
<rect width="57.8" height="68" rx="4" fill="#6DD230" fill-opacity="0.08"/>
<path d="M35.8666 47.4743C35.3832 47.4743 34.9339 47.2253 34.6777 46.8154L20.6571 24.3824C20.2261 23.7391 20.3982 22.8682 21.0415 22.4372C21.6848 22.0061 22.5558 22.1783 22.9868 22.8216C23.0037 22.8469 23.0198 22.8726 23.035 22.8989L37.0557 45.3319C37.4645 45.9896 37.2628 46.8541 36.6052 47.263C36.3835 47.4007 36.1277 47.4739 35.8666 47.4743Z" fill="#6DD230"/>
<path d="M21.846 47.4743C21.0717 47.4728 20.4452 46.8438 20.4468 46.0695C20.4473 45.8076 20.5212 45.5512 20.6598 45.3292L34.6805 22.8961C35.0688 22.2262 35.9267 21.9979 36.5966 22.3861C37.2665 22.7744 37.4948 23.6324 37.1066 24.3022C37.0913 24.3285 37.0753 24.3542 37.0583 24.3795L23.0378 46.8125C22.7817 47.2243 22.331 47.4747 21.846 47.4743Z" fill="#6DD230"/>
</svg>
